<?xml version="1.0" encoding="utf-8"?>
<!-- Generator: Adobe Illustrator 19.1.0, SVG Export Plug-In . SVG Version: 6.00 Build 0)  -->
<svg version="1.1" id="Layer_1" xmlns="http://www.w3.org/2000/svg" xmlns:xlink="http://www.w3.org/1999/xlink" x="0px" y="0px"
	 viewBox="0 0 450 300" style="enable-background:new 0 0 450 300;" xml:space="preserve">
<style type="text/css">
	.st0{fill:#4D4D4D;}
	.st1{fill:#FCBD10;}
	.st2{fill:#F38034;}
	.st3{fill:#B4406B;}
	.st4{fill:#658DC8;}
	.st5{opacity:0.5;}
	.st6{fill:none;}
	.st7{fill:#FFFFFF;}
	.st8{fill:#4D7092;}
	.st9{fill:#B66228;}
	.st10{fill:#C3902C;}
	.st11{fill:#7D3057;}
	.st12{fill:#333333;}
	.st13{fill:#E74E37;}
	.st14{opacity:0.8;}
	.st15{fill:#7C2C24;}
	.st16{fill:#FFE666;}
	.st17{opacity:0.4;}
	.st18{fill:#80D1EA;}
	.st19{fill:#231F20;}
	.st20{fill:#EC1C24;}
	.st21{fill:#DE271E;}
	.st22{fill:#E1AA1F;}
	.st23{fill:#C28214;}
	.st24{fill:none;stroke:#12100B;stroke-width:1.5;stroke-miterlimit:10;}
	.st25{fill:#BBE020;}
	.st26{fill:#52561B;}
	.st27{fill:#804000;}
	.st28{fill:#575756;}
	.st29{fill:#58BEEC;}
	.st30{fill:#3DAEF4;}
	.st31{fill:#FFB300;}
	.st32{fill:#FFFF00;}
	.st33{fill:#FF4D3B;}
	.st34{fill:#C757FF;}
	.st35{fill:url(#SVGID_1_);}
	.st36{opacity:0.8;fill:url(#SVGID_2_);}
	.st37{fill:url(#SVGID_3_);}
	.st38{fill:#7CFF1D;}
	.st39{opacity:0.9;fill:url(#SVGID_4_);}
	.st40{fill:#33BFFF;}
	.st41{fill:url(#SVGID_5_);}
	.st42{fill:#9D2DA0;}
	.st43{fill:#631D66;}
	.st44{fill:#E4AEED;}
</style>
<g>
	<path class="st0" d="M94,148.8l-3.6,17c-1.5,6.9-0.7,8.7,1.4,10.9l-5.1,4c-2.5-2.6-3.4-5-3.1-9c-2.8,5-7.9,8.2-14.3,8.2
		c-5,0-9.8-4-9.8-13.1c0-8.1,3.1-17.5,8.6-23c4.3-4.4,10.1-6.9,16.4-6.9c4.5,0,8.4,1.2,11.6,3.4C95.5,142.2,94.6,146.1,94,148.8
		 M84,142.1c-5.1,0-8.5,1.8-12,5.9c-4.1,5-5.8,12.8-5.8,18.9c0,5.4,2.1,7.4,5.9,7.4c4.4,0,9.3-4.1,12.3-9.9l4.5-21.2
		C87.7,142.5,86,142.1,84,142.1"/>
	<path class="st0" d="M129.2,144.5c-3.2-1.7-6-3-9.7-3c-5.4,0-9.3,2.2-9.3,6.1c0,2.8,1,4.3,4.5,5.8l5.2,2.2
		c6.4,2.7,8.7,5.9,8.7,10.4c0,8.9-7.6,14.3-17.9,14.3c-5.2,0-10.6-1.4-14.2-4l2.6-5c3.7,2.6,7.7,3.9,12.2,3.9c5.7,0,10-2.7,10-6.9
		c0-3.4-1.2-5.1-5.2-6.9l-4.9-2.2c-5.7-2.5-8-5.3-8-10.1c0-7.4,6.8-12.8,16.8-12.8c4.3,0,8.8,1.2,11.9,3.1L129.2,144.5z"/>
	<path class="st0" d="M142,179.2h-6.9l8.8-41l7-1.1L142,179.2z M150.1,130.3c-2.8,0-5-2.2-5-5c0-2.8,2.2-5.1,5-5.1c2.8,0,5,2.2,5,5
		C155.2,128.1,152.9,130.3,150.1,130.3"/>
	<path class="st0" d="M183.8,144.5c-3.2-1.7-6-3-9.7-3c-5.4,0-9.3,2.2-9.3,6.1c0,2.8,1,4.3,4.5,5.8l5.2,2.2
		c6.4,2.7,8.7,5.9,8.7,10.4c0,8.9-7.6,14.3-17.9,14.3c-5.2,0-10.6-1.4-14.2-4l2.6-5c3.7,2.6,7.7,3.9,12.2,3.9c5.7,0,10-2.7,10-6.9
		c0-3.4-1.2-5.1-5.2-6.9l-4.9-2.2c-5.7-2.5-8-5.3-8-10.1c0-7.4,6.8-12.8,16.8-12.8c4.3,0,8.8,1.2,11.9,3.1L183.8,144.5z"/>
	<path class="st0" d="M211.8,142.9h-8.9l-5.1,24.1c-0.4,1.8-0.6,3.3-0.6,4.5c0,3.1,1.2,4,4.1,4c1.8,0,3-0.2,4.3-0.8v4.1
		c-2.3,1.1-4.7,1.7-7.6,1.7c-4.8,0-7.3-2.4-7.3-6.7c0-1.5,0.2-3.9,0.7-6l5.2-24.9h-5.4l0.9-4.9h5.5c0.8-3.3,1.9-7.3,2.9-10.4l7-1.5
		c-1.1,3.1-2.6,8.3-3.4,11.9h10.2L211.8,142.9z"/>
	<path class="st0" d="M217.7,179.2h-6.9l8.8-41l7-1.1L217.7,179.2z M225.8,130.3c-2.8,0-5-2.2-5-5c0-2.8,2.2-5.1,5-5.1
		c2.8,0,5,2.2,5,5C230.8,128.1,228.6,130.3,225.8,130.3"/>
	<path class="st0" d="M264.4,165.9c-1.5,6.8-0.7,8.3,1.3,10.9l-5.5,4.1c-2.1-2.1-3.4-4.3-3.1-8.8c-4,5.2-8.4,7.7-14.5,7.7
		c-7.8,0-11.5-5-11.5-13.8c0-8.3,3.3-16.8,9.2-22.8c4-4,9.8-5.9,14.3-5.9c4.6,0,7,0.5,9.1,1.6l4.2-19.9l6.3,1.1L264.4,165.9z
		 M254.5,142.6c-3.2,0-7.4,1.8-9.9,4.5c-3.7,4-6.5,13-6.5,19.2c0,5.3,2.1,8,6,8c4.8,0,10-2.7,14.1-9.8l4.2-20.2
		C259.8,143,258.3,142.6,254.5,142.6"/>
	<path class="st0" d="M305.7,156.1c-3.5,3.2-8.8,4.7-17.8,4.7c-1.6,0-3.3-0.1-5.1-0.2c-0.4,1.9-0.6,3.6-0.6,5.2
		c0,5.8,3.8,8.8,8.2,8.8c5.1,0,8.2-1.2,12.1-4.7l2.7,4c-4.1,4.2-8.4,6.1-16.7,6.1c-7.6,0-13.5-5.4-13.5-14.9c0-7.9,3.1-17,9.1-22.5
		c4.1-3.9,8.6-5.8,13.5-5.8c7.8,0,11.8,4.2,11.8,10.7C309.5,151,308.1,154,305.7,156.1 M296.7,142c-5.3,0-10.7,5.3-12.8,13.8
		c1.2,0.1,3,0.1,4.2,0.1c7.4,0,10.7-1,12.8-3.1c1.3-1.3,2.1-3,2.1-5C303,144.5,301.3,142,296.7,142"/>
	<path class="st1" d="M383.2,173.9c2.2-3.1,3.9-6.4,5.2-10c-19.6,9.7-44.9,13.9-60.2,15.7c1.6,0,3.2,0,5,0
		C346.6,179.7,366,178.7,383.2,173.9"/>
	<path class="st2" d="M324.4,177.5c15.2-2.1,44.7-7.6,65.4-20c0.9-5,0.8-10.1-0.2-15.2C371.5,160.4,340.1,172.4,324.4,177.5"/>
	<path class="st3" d="M341.3,110.3c-1.1,9.6-6.5,28.8-15,47.6c-4.1,9-6.7,14.5-8.4,17.7c10.7-8.1,43.4-34.8,51.7-61.2
		C360.9,109.5,350.8,108.1,341.3,110.3"/>
	<path class="st4" d="M376.8,118.9c-12.1,24.7-42.4,47.9-55.1,56.9c14.3-5.3,49-19.8,66.8-40.4C386,129,382,123.3,376.8,118.9"/>
	<g class="st5">
		<g>
			<rect x="358.8" y="167.7" class="st6" width="21.2" height="10.7"/>
			<path class="st7" d="M371.1,170.8c-3.4,3.4-7.6,6.1-12.3,7.5c0.1,0,0.1,0,0.2,0c0.9-0.1,1.9-0.2,2.9-0.3c0.2,0,0.4-0.1,0.6-0.1
				c0.9-0.1,1.8-0.2,2.8-0.4c0.3,0,0.5-0.1,0.8-0.1c0.9-0.1,1.8-0.3,2.7-0.4c0.3,0,0.6-0.1,0.8-0.1c0.9-0.2,1.8-0.3,2.7-0.5
				c0.2,0,0.4-0.1,0.6-0.1c2.8-2.5,5.2-5.4,7.2-8.7C377.1,168.8,374.1,169.9,371.1,170.8"/>
		</g>
	</g>
	<g class="st5">
		<g>
			<rect x="375.8" y="147" class="st6" width="8.9" height="17.5"/>
			<path class="st7" d="M382.9,161.3c1.2-3.5,1.8-7.3,1.8-11.2c0-1.1-0.1-2.1-0.2-3.2c-1.6,1.4-3.3,2.7-5.1,4
				c-0.1,4.9-1.5,9.5-3.7,13.6C378.2,163.5,380.6,162.4,382.9,161.3"/>
		</g>
	</g>
	<g class="st5">
		<g>
			<rect x="370.8" y="124.7" class="st6" width="12.7" height="19.9"/>
			<path class="st7" d="M373.6,124.7c-0.9,1.5-1.9,3-2.9,4.5c4.2,4.1,7.1,9.5,8.3,15.5c1.5-1.3,3-2.6,4.4-4
				C381.7,134.5,378.2,129,373.6,124.7"/>
		</g>
	</g>
	<g class="st5">
		<g>
			<rect x="338.7" y="115.4" class="st6" width="28.6" height="9.3"/>
			<path class="st7" d="M350,115.4c-3.4,0-6.7,0.5-9.9,1.4c0,0,0,0.1,0,0.1c-0.1,0.4-0.2,0.8-0.3,1.3c0,0.1,0,0.1,0,0.2
				c-0.1,0.4-0.2,0.8-0.3,1.2c0,0.1,0,0.2-0.1,0.2c-0.1,0.4-0.2,0.9-0.3,1.3c0,0.1,0,0.1-0.1,0.2c-0.1,0.5-0.2,0.9-0.4,1.4
				c0,0,0,0.1,0,0.1c3.5-1.4,7.3-2.2,11.3-2.2c5.5,0,10.6,1.5,15,4.1c0.8-1.6,1.6-3.1,2.3-4.7C362.2,117.1,356.3,115.4,350,115.4"/>
		</g>
	</g>
	<path class="st8" d="M388.4,135.4c-2.4-6.4-6.4-12.1-11.7-16.5c-0.9,1.9-2,3.9-3.2,5.8l0,0c4.6,4.3,8,9.8,9.8,16
		C385.2,139,386.9,137.2,388.4,135.4"/>
	<path class="st9" d="M389.8,157.6c0.9-5,0.8-10.1-0.2-15.1l-0.1,0.1c-1.6,1.6-3.3,3.1-5,4.5l0.2,0.3c0.1,0.9,0.1,1.9,0.1,2.8
		c0,3.9-0.6,7.7-1.8,11.2C385.3,160.1,387.6,158.9,389.8,157.6"/>
	<path class="st10" d="M383.2,173.9c2.2-3.1,3.9-6.4,5.2-10c-2.7,1.3-5.5,2.6-8.4,3.7l0,0c-1.9,3.3-4.3,6.2-7.2,8.7
		C376.4,175.6,379.8,174.9,383.2,173.9"/>
	<path class="st11" d="M341.3,110.3c-0.2,1.8-0.6,4.1-1.1,6.5c3.1-0.9,6.4-1.4,9.9-1.4c6.3,0,12.2,1.7,17.3,4.6
		c0.8-1.9,1.6-3.8,2.1-5.7C360.9,109.5,350.8,108.1,341.3,110.3"/>
	<g>
		<path class="st0" d="M71.7,203.5l-0.1-1.1h-0.1c-0.5,0.7-1.4,1.2-2.5,1.2c-1.7,0-2.5-1.2-2.5-2.4c0-2,1.8-3.1,5-3.1v-0.2
			c0-0.7-0.2-1.9-1.9-1.9c-0.8,0-1.6,0.2-2.2,0.6l-0.3-1c0.7-0.4,1.7-0.7,2.7-0.7c2.5,0,3.2,1.7,3.2,3.4v3.1c0,0.7,0,1.4,0.1,2H71.7
			z M71.5,199.3c-1.7,0-3.5,0.3-3.5,1.9c0,1,0.7,1.4,1.4,1.4c1.1,0,1.8-0.7,2-1.4c0.1-0.2,0.1-0.3,0.1-0.5V199.3z"/>
		<path class="st0" d="M75.2,202c0.4,0.3,1.2,0.6,2,0.6c1.1,0,1.6-0.6,1.6-1.2c0-0.7-0.4-1.1-1.6-1.5c-1.5-0.5-2.2-1.4-2.2-2.4
			c0-1.3,1.1-2.4,2.9-2.4c0.8,0,1.6,0.2,2.1,0.5l-0.4,1.1c-0.3-0.2-0.9-0.5-1.7-0.5c-0.9,0-1.4,0.5-1.4,1.1c0,0.7,0.5,1,1.6,1.4
			c1.4,0.6,2.2,1.3,2.2,2.5c0,1.5-1.1,2.5-3.1,2.5c-0.9,0-1.8-0.2-2.3-0.6L75.2,202z"/>
		<path class="st0" d="M83.9,192.9c0,0.5-0.4,0.9-1,0.9c-0.5,0-0.9-0.4-0.9-0.9c0-0.5,0.4-0.9,0.9-0.9
			C83.6,191.9,83.9,192.3,83.9,192.9z M82.3,203.5v-8.3h1.5v8.3H82.3z"/>
		<path class="st0" d="M86.1,202c0.4,0.3,1.2,0.6,2,0.6c1.1,0,1.6-0.6,1.6-1.2c0-0.7-0.4-1.1-1.6-1.5c-1.5-0.5-2.2-1.4-2.2-2.4
			c0-1.3,1.1-2.4,2.9-2.4c0.8,0,1.6,0.2,2.1,0.5l-0.4,1.1c-0.3-0.2-0.9-0.5-1.7-0.5c-0.9,0-1.4,0.5-1.4,1.1c0,0.7,0.5,1,1.6,1.4
			c1.4,0.6,2.2,1.3,2.2,2.5c0,1.5-1.1,2.5-3.1,2.5c-0.9,0-1.8-0.2-2.3-0.6L86.1,202z"/>
		<path class="st0" d="M94.9,192.8v2.4h2.2v1.2h-2.2v4.5c0,1,0.3,1.6,1.1,1.6c0.4,0,0.7-0.1,0.9-0.1l0.1,1.1
			c-0.3,0.1-0.8,0.2-1.3,0.2c-0.7,0-1.3-0.2-1.6-0.6c-0.4-0.4-0.6-1.2-0.6-2.2v-4.5h-1.3v-1.2h1.3v-2L94.9,192.8z"/>
		<path class="st0" d="M99.5,199.6c0,2.1,1.3,2.9,2.9,2.9c1.1,0,1.7-0.2,2.3-0.4l0.3,1.1c-0.5,0.2-1.4,0.5-2.8,0.5
			c-2.6,0-4.1-1.7-4.1-4.2c0-2.5,1.5-4.5,3.9-4.5c2.7,0,3.4,2.4,3.4,3.9c0,0.3,0,0.6-0.1,0.7H99.5z M104,198.6c0-1-0.4-2.5-2.1-2.5
			c-1.5,0-2.2,1.4-2.3,2.5H104z"/>
		<path class="st0" d="M107.3,197.5c0-0.9,0-1.6-0.1-2.3h1.3l0.1,1.4h0c0.4-0.8,1.4-1.6,2.8-1.6c1.2,0,2.9,0.7,2.9,3.5v5h-1.5v-4.8
			c0-1.3-0.5-2.5-1.9-2.5c-1,0-1.8,0.7-2,1.6c-0.1,0.2-0.1,0.4-0.1,0.7v5h-1.5V197.5z"/>
		<path class="st0" d="M122.8,203.2c-0.4,0.2-1.3,0.5-2.4,0.5c-2.5,0-4.2-1.7-4.2-4.3c0-2.6,1.8-4.4,4.5-4.4c0.9,0,1.7,0.2,2.1,0.4
			l-0.3,1.2c-0.4-0.2-0.9-0.4-1.8-0.4c-1.9,0-2.9,1.4-2.9,3.2c0,1.9,1.2,3.1,2.9,3.1c0.9,0,1.4-0.2,1.9-0.4L122.8,203.2z"/>
		<path class="st0" d="M126.3,192.9c0,0.5-0.4,0.9-1,0.9c-0.5,0-0.9-0.4-0.9-0.9c0-0.5,0.4-0.9,0.9-0.9
			C125.9,191.9,126.3,192.3,126.3,192.9z M124.6,203.5v-8.3h1.5v8.3H124.6z"/>
		<path class="st0" d="M133.3,203.5l-0.1-1.1h-0.1c-0.5,0.7-1.4,1.2-2.5,1.2c-1.7,0-2.5-1.2-2.5-2.4c0-2,1.8-3.1,5-3.1v-0.2
			c0-0.7-0.2-1.9-1.9-1.9c-0.8,0-1.6,0.2-2.2,0.6l-0.3-1c0.7-0.4,1.7-0.7,2.7-0.7c2.5,0,3.2,1.7,3.2,3.4v3.1c0,0.7,0,1.4,0.1,2
			H133.3z M133,199.3c-1.7,0-3.5,0.3-3.5,1.9c0,1,0.7,1.4,1.4,1.4c1.1,0,1.8-0.7,2-1.4c0.1-0.2,0.1-0.3,0.1-0.5V199.3z"/>
		<path class="st0" d="M142.4,192.8v2.4h2.2v1.2h-2.2v4.5c0,1,0.3,1.6,1.1,1.6c0.4,0,0.7-0.1,0.9-0.1l0.1,1.1
			c-0.3,0.1-0.8,0.2-1.3,0.2c-0.7,0-1.3-0.2-1.6-0.6c-0.4-0.4-0.6-1.2-0.6-2.2v-4.5h-1.3v-1.2h1.3v-2L142.4,192.8z"/>
		<path class="st0" d="M147,199.6c0,2.1,1.3,2.9,2.9,2.9c1.1,0,1.7-0.2,2.3-0.4l0.3,1.1c-0.5,0.2-1.4,0.5-2.8,0.5
			c-2.6,0-4.1-1.7-4.1-4.2c0-2.5,1.5-4.5,3.9-4.5c2.7,0,3.4,2.4,3.4,3.9c0,0.3,0,0.6-0.1,0.7H147z M151.5,198.6c0-1-0.4-2.5-2.1-2.5
			c-1.5,0-2.2,1.4-2.3,2.5H151.5z M151.8,191.6l-2.1,2.5h-1.1l1.5-2.5H151.8z"/>
		<path class="st0" d="M160.8,203.2c-0.4,0.2-1.3,0.5-2.4,0.5c-2.5,0-4.2-1.7-4.2-4.3c0-2.6,1.8-4.4,4.5-4.4c0.9,0,1.7,0.2,2.1,0.4
			l-0.3,1.2c-0.4-0.2-0.9-0.4-1.8-0.4c-1.9,0-2.9,1.4-2.9,3.2c0,1.9,1.2,3.1,2.9,3.1c0.9,0,1.4-0.2,1.9-0.4L160.8,203.2z"/>
		<path class="st0" d="M162.5,197.5c0-0.9,0-1.6-0.1-2.3h1.3l0.1,1.4h0c0.4-0.8,1.4-1.6,2.8-1.6c1.2,0,2.9,0.7,2.9,3.5v5h-1.5v-4.8
			c0-1.3-0.5-2.5-1.9-2.5c-1,0-1.8,0.7-2,1.6c-0.1,0.2-0.1,0.4-0.1,0.7v5h-1.5V197.5z"/>
		<path class="st0" d="M173.8,192.9c0,0.5-0.4,0.9-1,0.9c-0.5,0-0.9-0.4-0.9-0.9c0-0.5,0.4-0.9,0.9-0.9
			C173.4,191.9,173.8,192.3,173.8,192.9z M172.1,203.5v-8.3h1.5v8.3H172.1z"/>
		<path class="st0" d="M182.1,203.2c-0.4,0.2-1.3,0.5-2.4,0.5c-2.5,0-4.2-1.7-4.2-4.3c0-2.6,1.8-4.4,4.5-4.4c0.9,0,1.7,0.2,2.1,0.4
			l-0.3,1.2c-0.4-0.2-0.9-0.4-1.8-0.4c-1.9,0-2.9,1.4-2.9,3.2c0,1.9,1.2,3.1,2.9,3.1c0.9,0,1.4-0.2,1.9-0.4L182.1,203.2z"/>
		<path class="st0" d="M188.5,203.5l-0.1-1.1h-0.1c-0.5,0.7-1.4,1.2-2.5,1.2c-1.7,0-2.5-1.2-2.5-2.4c0-2,1.8-3.1,5-3.1v-0.2
			c0-0.7-0.2-1.9-1.9-1.9c-0.8,0-1.6,0.2-2.2,0.6l-0.3-1c0.7-0.4,1.7-0.7,2.7-0.7c2.5,0,3.2,1.7,3.2,3.4v3.1c0,0.7,0,1.4,0.1,2
			H188.5z M188.2,199.3c-1.7,0-3.5,0.3-3.5,1.9c0,1,0.7,1.4,1.4,1.4c1.1,0,1.8-0.7,2-1.4c0.1-0.2,0.1-0.3,0.1-0.5V199.3z"/>
		<path class="st0" d="M196.4,195.2l1.8,4.9c0.2,0.6,0.4,1.2,0.5,1.7h0c0.2-0.5,0.3-1.1,0.5-1.7l1.7-4.9h1.6l-2.3,5.9
			c-1.1,2.9-1.8,4.3-2.9,5.2c-0.7,0.7-1.5,0.9-1.9,1l-0.4-1.3c0.4-0.1,0.9-0.4,1.3-0.7c0.4-0.3,0.9-0.9,1.3-1.7
			c0.1-0.2,0.1-0.3,0.1-0.4c0-0.1,0-0.2-0.1-0.4l-3.1-7.7H196.4z"/>
		<path class="st0" d="M213.5,203.2c-0.4,0.2-1.3,0.5-2.4,0.5c-2.5,0-4.2-1.7-4.2-4.3c0-2.6,1.8-4.4,4.5-4.4c0.9,0,1.7,0.2,2.1,0.4
			l-0.3,1.2c-0.4-0.2-0.9-0.4-1.8-0.4c-1.9,0-2.9,1.4-2.9,3.2c0,1.9,1.2,3.1,2.9,3.1c0.9,0,1.4-0.2,1.9-0.4L213.5,203.2z"/>
		<path class="st0" d="M219.9,203.5l-0.1-1.1h-0.1c-0.5,0.7-1.4,1.2-2.5,1.2c-1.7,0-2.5-1.2-2.5-2.4c0-2,1.8-3.1,5-3.1v-0.2
			c0-0.7-0.2-1.9-1.9-1.9c-0.8,0-1.6,0.2-2.2,0.6l-0.3-1c0.7-0.4,1.7-0.7,2.7-0.7c2.5,0,3.2,1.7,3.2,3.4v3.1c0,0.7,0,1.4,0.1,2
			H219.9z M219.7,199.3c-1.7,0-3.5,0.3-3.5,1.9c0,1,0.7,1.4,1.4,1.4c1.1,0,1.8-0.7,2-1.4c0.1-0.2,0.1-0.3,0.1-0.5V199.3z"/>
		<path class="st0" d="M223.6,197.9c0-1.1,0-1.9-0.1-2.7h1.4l0.1,1.4h0c0.6-1,1.6-1.6,3-1.6c2,0,3.5,1.7,3.5,4.2
			c0,3-1.8,4.5-3.8,4.5c-1.1,0-2.1-0.5-2.6-1.3h0v4.5h-1.5V197.9z M225.1,200.1c0,0.2,0,0.4,0.1,0.6c0.3,1.1,1.2,1.8,2.3,1.8
			c1.6,0,2.5-1.3,2.5-3.2c0-1.7-0.9-3.1-2.5-3.1c-1,0-2,0.7-2.3,1.9c-0.1,0.2-0.1,0.4-0.1,0.6V200.1z"/>
		<path class="st0" d="M238,203.5l-0.1-1.1h-0.1c-0.5,0.7-1.4,1.2-2.5,1.2c-1.7,0-2.5-1.2-2.5-2.4c0-2,1.8-3.1,5-3.1v-0.2
			c0-0.7-0.2-1.9-1.9-1.9c-0.8,0-1.6,0.2-2.2,0.6l-0.3-1c0.7-0.4,1.7-0.7,2.7-0.7c2.5,0,3.2,1.7,3.2,3.4v3.1c0,0.7,0,1.4,0.1,2H238z
			 M237.8,199.3c-1.7,0-3.5,0.3-3.5,1.9c0,1,0.7,1.4,1.4,1.4c1.1,0,1.8-0.7,2-1.4c0.1-0.2,0.1-0.3,0.1-0.5V199.3z"/>
		<path class="st0" d="M247.6,203.2c-0.4,0.2-1.3,0.5-2.4,0.5c-2.5,0-4.2-1.7-4.2-4.3c0-2.6,1.8-4.4,4.5-4.4c0.9,0,1.7,0.2,2.1,0.4
			l-0.3,1.2c-0.4-0.2-0.9-0.4-1.8-0.4c-1.9,0-2.9,1.4-2.9,3.2c0,1.9,1.2,3.1,2.9,3.1c0.9,0,1.4-0.2,1.9-0.4L247.6,203.2z"/>
		<path class="st0" d="M251.1,192.9c0,0.5-0.4,0.9-1,0.9c-0.5,0-0.9-0.4-0.9-0.9c0-0.5,0.4-0.9,0.9-0.9
			C250.7,191.9,251.1,192.3,251.1,192.9z M249.4,203.5v-8.3h1.5v8.3H249.4z"/>
		<path class="st0" d="M255.3,192.8v2.4h2.2v1.2h-2.2v4.5c0,1,0.3,1.6,1.1,1.6c0.4,0,0.7-0.1,0.9-0.1l0.1,1.1
			c-0.3,0.1-0.8,0.2-1.3,0.2c-0.7,0-1.3-0.2-1.6-0.6c-0.4-0.4-0.6-1.2-0.6-2.2v-4.5h-1.3v-1.2h1.3v-2L255.3,192.8z"/>
		<path class="st0" d="M263.8,203.5l-0.1-1.1h-0.1c-0.5,0.7-1.4,1.2-2.5,1.2c-1.7,0-2.5-1.2-2.5-2.4c0-2,1.8-3.1,5-3.1v-0.2
			c0-0.7-0.2-1.9-1.9-1.9c-0.8,0-1.6,0.2-2.2,0.6l-0.3-1c0.7-0.4,1.7-0.7,2.7-0.7c2.5,0,3.2,1.7,3.2,3.4v3.1c0,0.7,0,1.4,0.1,2
			H263.8z M263.5,199.3c-1.7,0-3.5,0.3-3.5,1.9c0,1,0.7,1.4,1.4,1.4c1.1,0,1.8-0.7,2-1.4c0.1-0.2,0.1-0.3,0.1-0.5V199.3z"/>
		<path class="st0" d="M273.4,203.2c-0.4,0.2-1.3,0.5-2.4,0.5c-2.5,0-4.2-1.7-4.2-4.3c0-2.6,1.8-4.4,4.5-4.4c0.9,0,1.7,0.2,2.1,0.4
			l-0.3,1.2c-0.4-0.2-0.9-0.4-1.8-0.4c-1.9,0-2.9,1.4-2.9,3.2c0,1.9,1.2,3.1,2.9,3.1c0.9,0,1.4-0.2,1.9-0.4L273.4,203.2z"/>
		<path class="st0" d="M276.8,192.9c0,0.5-0.4,0.9-1,0.9c-0.5,0-0.9-0.4-0.9-0.9c0-0.5,0.4-0.9,0.9-0.9
			C276.5,191.9,276.8,192.3,276.8,192.9z M275.2,203.5v-8.3h1.5v8.3H275.2z"/>
		<path class="st0" d="M286.7,199.3c0,3.1-2.1,4.4-4.2,4.4c-2.3,0-4-1.7-4-4.3c0-2.8,1.8-4.4,4.1-4.4
			C285.1,195,286.7,196.7,286.7,199.3z M280.1,199.4c0,1.8,1.1,3.2,2.5,3.2c1.4,0,2.5-1.4,2.5-3.2c0-1.4-0.7-3.2-2.5-3.2
			C280.9,196.1,280.1,197.8,280.1,199.4z M284.9,191.6l-2.1,2.5h-1.1l1.5-2.5H284.9z"/>
		<path class="st0" d="M288.6,197.5c0-0.9,0-1.6-0.1-2.3h1.3l0.1,1.4h0c0.4-0.8,1.4-1.6,2.8-1.6c1.2,0,2.9,0.7,2.9,3.5v5h-1.5v-4.8
			c0-1.3-0.5-2.5-1.9-2.5c-1,0-1.8,0.7-2,1.6c-0.1,0.2-0.1,0.4-0.1,0.7v5h-1.5V197.5z"/>
	</g>
</g>
</svg>
