<?xml version="1.0" encoding="utf-8"?>
<!-- Generator: Adobe Illustrator 19.1.0, SVG Export Plug-In . SVG Version: 6.00 Build 0)  -->
<svg version="1.1" id="Layer_1" xmlns="http://www.w3.org/2000/svg" xmlns:xlink="http://www.w3.org/1999/xlink" x="0px" y="0px"
	 viewBox="0 0 450 300" style="enable-background:new 0 0 450 300;" xml:space="preserve">
<style type="text/css">
	.st0{fill:#4D4D4D;}
	.st1{fill:#FCBD10;}
	.st2{fill:#F38034;}
	.st3{fill:#B4406B;}
	.st4{fill:#658DC8;}
	.st5{opacity:0.5;}
	.st6{fill:none;}
	.st7{fill:#FFFFFF;}
	.st8{fill:#4D7092;}
	.st9{fill:#B66228;}
	.st10{fill:#C3902C;}
	.st11{fill:#7D3057;}
	.st12{fill:#333333;}
	.st13{fill:#E74E37;}
	.st14{opacity:0.8;}
	.st15{fill:#7C2C24;}
	.st16{fill:#FFE666;}
	.st17{opacity:0.4;}
	.st18{fill:#80D1EA;}
	.st19{fill:#231F20;}
	.st20{fill:#EC1C24;}
	.st21{fill:#DE271E;}
	.st22{fill:#E1AA1F;}
	.st23{fill:#C28214;}
	.st24{fill:none;stroke:#12100B;stroke-width:1.5;stroke-miterlimit:10;}
	.st25{fill:#BBE020;}
	.st26{fill:#52561B;}
	.st27{fill:#804000;}
	.st28{fill:#575756;}
	.st29{fill:#58BEEC;}
	.st30{fill:#3DAEF4;}
	.st31{fill:#FFB300;}
	.st32{fill:#FFFF00;}
	.st33{fill:#FF4D3B;}
	.st34{fill:#C757FF;}
	.st35{fill:url(#SVGID_1_);}
	.st36{opacity:0.8;fill:url(#SVGID_2_);}
	.st37{fill:url(#SVGID_3_);}
	.st38{fill:#7CFF1D;}
	.st39{opacity:0.9;fill:url(#SVGID_4_);}
	.st40{fill:#33BFFF;}
	.st41{fill:url(#SVGID_5_);}
	.st42{fill:#9D2DA0;}
	.st43{fill:#631D66;}
	.st44{fill:#E4AEED;}
</style>
<g>
	<g>
		<g>
			<path class="st20" d="M90.7,144.6v-0.3c0.9-0.3,1.5-0.8,1.9-1.6c0.3-0.8,0.5-2.5,0.5-5.1V136v-4.9c0-2-0.1-3.2-0.4-3.6
				c-0.3-0.4-0.8-0.7-1.6-0.7l0-0.3c0.6-0.1,1.4-0.3,2.1-0.5c0.8-0.2,1.6-0.5,2.6-0.8l-0.1,5.6c0.8-1.9,1.8-3.3,2.9-4.2
				c1.1-1,2.4-1.4,3.8-1.4c0.2,0,0.3,0,0.5,0c0.1,0,0.2,0,0.3,0l-1.4,4.1h-0.2c-0.2-0.3-0.5-0.5-0.8-0.7c-0.3-0.2-0.6-0.2-1-0.2
				c-1.2,0-2.1,0.6-2.8,1.7c-0.6,1.1-1,2.8-1,4.9v2.2c0,2.9,0.2,4.8,0.5,5.6c0.3,0.8,1,1.3,1.9,1.6l0,0.3c-0.6,0-1.3-0.1-1.9-0.1
				c-0.6,0-1.3,0-1.9,0c-0.5,0-1.1,0-1.7,0C92.2,144.5,91.5,144.5,90.7,144.6z"/>
			<path class="st20" d="M124.7,144.5c0,0-0.1,0-0.1,0c-1.3,0-2.3-0.1-2.9-0.1h-1c-0.3-0.6-0.6-1.1-0.8-1.7
				c-0.2-0.6-0.4-1.2-0.5-1.8c-0.7,1.3-1.7,2.3-3,3c-1.3,0.7-2.7,1-4.4,1c-2.3,0-4.2-0.5-5.5-1.6c-1.4-1.1-2-2.6-2-4.4
				c0-2.1,1.2-3.6,3.6-4.7c2.4-1.1,5.9-1.6,10.5-1.6l0.9,0c-0.1-2.5-0.6-4.3-1.6-5.4c-1-1.2-2.5-1.7-4.5-1.7c-1.9,0-3.4,0.4-4.5,1.3
				c-1.2,0.9-1.9,2.1-2.2,3.7h-0.2l-1.1-3.8c1.2-0.6,2.5-1.1,3.9-1.5c1.4-0.3,2.9-0.5,4.4-0.5c1.5,0,2.9,0.2,4.1,0.6
				c1.2,0.4,2.2,1,2.9,1.7c0.6,0.6,1,1.4,1.3,2.2c0.3,0.9,0.4,2.3,0.4,4.3v2.7c0,3.1,0.2,5.1,0.5,6.2c0.3,1.1,1,1.7,1.8,1.9V144.5z
				 M119.6,133.4c-0.2,0-0.4,0-0.6,0c-0.2,0-0.6,0-1,0c-3.2,0-5.7,0.5-7.5,1.5c-1.8,1-2.6,2.4-2.6,4.3c0,1.4,0.5,2.6,1.4,3.5
				c0.9,0.9,2.2,1.3,3.7,1.3c2,0,3.6-0.6,4.8-1.9c1.2-1.3,1.7-3.1,1.7-5.4v-2V133.4z"/>
			<path class="st20" d="M125.8,144.6v-0.3c0.9-0.3,1.5-0.8,1.8-1.6c0.3-0.8,0.5-2.6,0.5-5.4V136v-5.2c0-1.7-0.1-2.7-0.4-3.2
				c-0.3-0.4-0.8-0.7-1.6-0.7l0-0.3c0.8-0.2,1.6-0.4,2.3-0.6c0.7-0.2,1.5-0.5,2.2-0.7v5.5c0.5-2,1.4-3.5,2.8-4.5
				c1.3-1,3.1-1.5,5.2-1.5c1.4,0,2.7,0.3,3.8,0.8c1.1,0.6,2,1.3,2.6,2.3c0.4,0.7,0.7,1.6,0.9,2.6c0.2,1.1,0.3,2.6,0.3,4.7v1.5
				c0,3.2,0.2,5.1,0.5,5.9c0.3,0.8,0.9,1.3,1.8,1.6v0.3c-0.7,0-1.4-0.1-2-0.1c-0.6,0-1.2,0-1.8,0c-0.4,0-0.9,0-1.5,0
				c-0.6,0-1.3,0-2.2,0.1v-0.3c0.9-0.3,1.5-0.8,1.8-1.6c0.3-0.8,0.5-2.5,0.5-5.1V136v-0.7c0-3.3-0.5-5.7-1.4-7.2
				c-0.9-1.5-2.3-2.3-4.3-2.3c-2.2,0-3.9,0.8-5.1,2.4c-1.1,1.6-1.7,4-1.7,7.1v1.8c0,3,0.2,4.8,0.5,5.6c0.3,0.8,0.9,1.3,1.8,1.6v0.3
				c-0.7,0-1.3-0.1-1.9-0.1s-1.2,0-1.8,0c-0.4,0-0.9,0-1.5,0C127.3,144.5,126.6,144.5,125.8,144.6z"/>
			<path class="st20" d="M170.4,144.5c0,0-0.1,0-0.1,0c-1.3,0-2.3-0.1-2.9-0.1h-1c-0.3-0.6-0.6-1.1-0.8-1.7
				c-0.2-0.6-0.4-1.2-0.5-1.8c-0.7,1.3-1.7,2.3-3,3c-1.3,0.7-2.7,1-4.4,1c-2.3,0-4.2-0.5-5.5-1.6c-1.4-1.1-2-2.6-2-4.4
				c0-2.1,1.2-3.6,3.6-4.7c2.4-1.1,5.9-1.6,10.5-1.6l0.9,0c-0.1-2.5-0.6-4.3-1.6-5.4c-1-1.2-2.5-1.7-4.5-1.7c-1.9,0-3.4,0.4-4.5,1.3
				c-1.2,0.9-1.9,2.1-2.2,3.7h-0.2l-1.1-3.8c1.2-0.6,2.5-1.1,3.9-1.5c1.4-0.3,2.9-0.5,4.4-0.5c1.5,0,2.9,0.2,4.1,0.6
				c1.2,0.4,2.2,1,2.9,1.7c0.6,0.6,1,1.4,1.3,2.2c0.3,0.9,0.4,2.3,0.4,4.3v2.7c0,3.1,0.2,5.1,0.5,6.2c0.3,1.1,1,1.7,1.8,1.9V144.5z
				 M165.2,133.4c-0.2,0-0.4,0-0.6,0c-0.2,0-0.6,0-1,0c-3.2,0-5.7,0.5-7.5,1.5c-1.8,1-2.6,2.4-2.6,4.3c0,1.4,0.5,2.6,1.4,3.5
				c0.9,0.9,2.2,1.3,3.7,1.3c2,0,3.6-0.6,4.8-1.9c1.2-1.3,1.7-3.1,1.7-5.4v-2V133.4z"/>
			<path class="st20" d="M171.7,143.2l1.3-4.2h0.2c0.2,1.6,1,2.8,2.3,3.7c1.4,0.9,3.1,1.4,5.2,1.4c1.8,0,3.2-0.4,4.3-1.3
				c1.1-0.9,1.6-2,1.6-3.4c0-1.2-0.3-2-1-2.6c-0.7-0.5-2.3-1-4.9-1.3c-2.6-0.3-4.5-0.9-5.7-1.8c-1.2-0.8-1.8-2-1.8-3.5
				c0-1.6,0.8-3,2.4-4.1c1.6-1.1,3.7-1.6,6.2-1.6c1.4,0,2.7,0.1,3.9,0.3c1.2,0.2,2.3,0.5,3.3,0.9l-1,3.6h-0.3c-0.4-1.4-1-2.4-2-3.1
				c-0.9-0.7-2.2-1-3.7-1c-1.6,0-3,0.4-4,1.2c-1.1,0.8-1.6,1.9-1.6,3.1c0,1,0.4,1.8,1.1,2.3c0.7,0.5,2.4,0.9,4.9,1.2
				c2.9,0.3,4.9,0.9,6,1.6c1.1,0.8,1.7,1.9,1.7,3.4c0,2.1-0.9,3.7-2.6,4.9c-1.8,1.2-4.1,1.9-7.2,1.9c-1.6,0-3-0.1-4.4-0.4
				C174.3,144.3,173,143.8,171.7,143.2z"/>
		</g>
		<g>
			<path class="st20" d="M96.3,169v-0.3c0.9-0.3,1.5-0.8,1.9-1.6c0.3-0.8,0.5-2.5,0.5-5.1v-1.5v-4.9c0-2-0.1-3.2-0.4-3.6
				c-0.3-0.4-0.8-0.7-1.6-0.7l0-0.3c0.7-0.1,1.4-0.3,2.1-0.5c0.8-0.2,1.6-0.5,2.6-0.8l-0.1,5.6c0.8-1.8,1.8-3.3,2.9-4.2
				c1.1-1,2.4-1.5,3.8-1.5c0.2,0,0.3,0,0.5,0c0.1,0,0.2,0,0.3,0l-1.4,4.1h-0.2c-0.2-0.3-0.5-0.5-0.8-0.7c-0.3-0.2-0.6-0.2-1-0.2
				c-1.2,0-2.1,0.6-2.8,1.7c-0.6,1.1-1,2.8-1,4.9v2.2c0,2.9,0.2,4.8,0.5,5.6c0.3,0.8,1,1.3,1.9,1.6l0,0.3c-0.6,0-1.3-0.1-1.9-0.1
				c-0.6,0-1.3,0-1.9,0c-0.5,0-1.1,0-1.7,0C97.7,168.9,97,168.9,96.3,169z"/>
			<path class="st20" d="M110.2,159c0-2.9,1-5.3,2.9-7.1c2-1.8,4.5-2.8,7.6-2.8c3.1,0,5.6,0.9,7.6,2.8c1.9,1.9,2.9,4.3,2.9,7.3
				c0,3-1,5.5-2.9,7.3c-1.9,1.9-4.5,2.8-7.7,2.8c-3.1,0-5.6-0.9-7.5-2.9C111.1,164.6,110.2,162.1,110.2,159z M113.6,159.1
				c0,3,0.6,5.3,1.9,7c1.3,1.7,3,2.5,5.3,2.5c2.3,0,4-0.8,5.2-2.4c1.2-1.6,1.8-4,1.8-7c0-3-0.6-5.3-1.9-6.9c-1.2-1.6-3-2.5-5.2-2.5
				s-4,0.8-5.2,2.5C114.2,153.8,113.6,156.1,113.6,159.1z"/>
			<path class="st20" d="M128.9,176l1.2-3.7h0.3c0.3,0.9,0.6,1.6,1.1,2c0.5,0.5,1,0.7,1.6,0.7c1.1,0,1.9-0.7,2.3-2.2
				c0.4-1.5,0.6-4.3,0.6-8.5v-9.9c0-1.2-0.1-2-0.4-2.4c-0.3-0.4-0.8-0.6-1.6-0.7V151c0.8-0.1,1.6-0.3,2.4-0.5
				c0.8-0.2,1.7-0.5,2.5-0.9c0,0.2,0,0.6,0,1.1c-0.1,3.7-0.1,6.3-0.1,7.8c0,1.2,0,2.7,0.1,4.4c0,1.7,0.1,2.8,0.1,3.3
				c0,1.7-0.1,3-0.4,4c-0.3,1-0.7,2-1.4,2.8c-0.8,1-1.7,1.7-2.8,2.3c-1.1,0.6-2.3,0.8-3.5,0.8c-0.3,0-0.6,0-0.9-0.1
				C129.6,176.2,129.3,176.1,128.9,176z M135.5,145.1c0-0.5,0.2-0.9,0.5-1.3c0.3-0.3,0.8-0.5,1.3-0.5c0.5,0,0.9,0.2,1.2,0.5
				c0.3,0.3,0.5,0.8,0.5,1.3c0,0.5-0.2,0.9-0.5,1.3c-0.3,0.3-0.7,0.5-1.2,0.5c-0.5,0-1-0.2-1.3-0.5
				C135.7,146,135.5,145.6,135.5,145.1z"/>
			<path class="st20" d="M163.2,168.9c0,0-0.1,0-0.1,0c-1.3,0-2.3-0.1-2.8-0.1h-1c-0.3-0.6-0.6-1.1-0.8-1.7
				c-0.2-0.6-0.4-1.2-0.5-1.8c-0.7,1.3-1.7,2.3-3,3c-1.3,0.7-2.7,1-4.4,1c-2.3,0-4.2-0.5-5.5-1.6c-1.4-1.1-2-2.6-2-4.4
				c0-2.1,1.2-3.6,3.6-4.7c2.4-1.1,5.9-1.6,10.5-1.6l0.9,0c-0.1-2.5-0.6-4.3-1.6-5.4c-1-1.2-2.5-1.8-4.5-1.8c-1.9,0-3.4,0.4-4.5,1.3
				c-1.2,0.9-1.9,2.1-2.2,3.7H145l-1.1-3.8c1.2-0.6,2.5-1.1,3.9-1.5c1.4-0.3,2.9-0.5,4.4-0.5c1.5,0,2.9,0.2,4.1,0.6
				c1.2,0.4,2.2,1,2.9,1.7c0.6,0.6,1,1.4,1.3,2.2c0.3,0.9,0.4,2.3,0.4,4.3v2.7c0,3.1,0.2,5.1,0.5,6.2c0.3,1.1,1,1.7,1.9,2V168.9z
				 M158,157.8c-0.2,0-0.4,0-0.6,0c-0.2,0-0.6,0-1,0c-3.2,0-5.7,0.5-7.5,1.5c-1.8,1-2.6,2.4-2.6,4.3c0,1.4,0.5,2.6,1.4,3.5
				c0.9,0.9,2.2,1.3,3.7,1.3c2,0,3.6-0.6,4.8-1.9c1.2-1.3,1.7-3.1,1.7-5.4v-2V157.8z"/>
			<path class="st20" d="M164.5,167.6l1.3-4.2h0.2c0.2,1.6,1,2.8,2.3,3.7c1.4,0.9,3.1,1.4,5.1,1.4c1.8,0,3.2-0.4,4.3-1.3
				c1.1-0.9,1.6-2,1.6-3.4c0-1.2-0.3-2-1-2.6c-0.7-0.5-2.3-1-4.9-1.3c-2.6-0.3-4.5-0.9-5.7-1.8c-1.2-0.8-1.8-2-1.8-3.5
				c0-1.6,0.8-3,2.4-4c1.6-1.1,3.7-1.6,6.2-1.6c1.4,0,2.7,0.1,3.9,0.3c1.2,0.2,2.3,0.5,3.3,0.9l-1,3.6h-0.3c-0.4-1.4-1-2.4-2-3.1
				c-0.9-0.7-2.2-1-3.7-1c-1.6,0-3,0.4-4,1.2c-1.1,0.8-1.6,1.9-1.6,3.1c0,1,0.4,1.8,1.1,2.3c0.7,0.5,2.4,0.9,4.9,1.2
				c2.9,0.3,4.9,0.9,6,1.6c1.1,0.8,1.7,1.9,1.7,3.4c0,2.1-0.9,3.7-2.6,4.9c-1.8,1.2-4.1,1.9-7.2,1.9c-1.6,0-3-0.1-4.4-0.4
				C167.1,168.7,165.7,168.2,164.5,167.6z"/>
		</g>
	</g>
	<path class="st20" d="M227.3,184.3c0,0-0.9,0.6-8.4,1c0,0-5.5-0.1-5.5,4.6c0,0-0.4,2.8,3.4,4.9c3.8,2.1,5,9.5,26.4,9.5
		c0,0,5.5,2.3,10.8,7.4c0,0,1.3,1.3,2,0.5c0.9-1-0.4-2-0.4-2s-3.6-3.6-5.7-5.3c-2.9-2.4,2.4-4.3,2.4-4.3s13.7-4.5,19-10
		c0,0,1.8-1.7,0-3.1c-1.9-1.5-3.5,0.9-3.5,0.9c-5.8,6.8-8.7,6.7-8.7,6.7c3.8-6.7-9.6-16.1-9.6-16.1c-2-1.4,1.7-2.2,1.7-2.2
		s15.2-3.6,21.8-25.9c0,0,0.6-3.4,2.9-1.3c2.3,2.1,7.7,6.5,8.3,7.1c0.6,0.6,6,7.6,9.5,7.6c0,0,10.1,0,14.2-2.2c0,0,3.1-1.6,5.1-1.8
		c2.8-0.4,4.5-1,8.4-4.4c0,0,1.5-1.2,6.1-1c2.4,0.1,3.8,0.9,3.8,0.9c0.3,0.2,0.7,0.3,1,0.3c1.1,0,2.1-1,2.1-2.3
		c0-1.3-0.9-2.3-2.1-2.3c-0.4,0-0.8,0.3-2.1,0.9c-1.3,0.5-0.3,0.2-7.2,0.2c-3,0-0.5-3.4-0.5-3.4s1.3-2,4-5.8
		c1.4-1.9,2.9-2.6,2.9-2.6c0.3-0.1,0.6-0.4,0.9-0.7c0.7-0.9,0.3-2.3-0.7-3c-1-0.7-2.4-0.5-3.1,0.4c-0.2,0.3-0.2,0.9-0.5,2.2
		c-0.3,1.3-1.8,3.5-6.4,8.7c0,0-1.4,1.8-3.9,1.8c0,0-2.1,0.4-2.5-4.7c-0.2-2.4-0.1-1.6-0.2-2.7c0.1-0.2,0.3-1.8,0.3-2
		c0-1.1-1.2-1.4-2.3-1.4c-2.4,0-1.6,2.3-0.9,3.6c0,0,1.3,3.6,1.3,7.4c0,3.7,0.4,4-3.4,4.4c0,0-4,0.1-10.4,1.9
		c-1.7,0.5-4.3,1-6.4-1.8c-2.1-2.8-9.7-11.9-11.8-14.2c-2.1-2.3,4.9-10,4.9-10s4.7-3.9,4.7-7c0,0,0.4-3.2-1.6-4.5
		c0,0-0.8-2.2-0.2-6.9c0,0,1-6.5-2.8-9c-3.8-2.5-7.5-2.6-11.5-0.3c-4,2.2-5.1,1.2-6.2,1c-1.1-0.2-5.3-1-7.9,1.9
		c-2.6,3-2.3,5.5-2.6,7c-0.3,1.5-1.4,3.3-3.3,5.6c-1.9,2.2-3.8,8-7.4,2.1c0,0-0.9-1.7-0.1-3.4c0.9-1.7,4.1-7.9,4.1-7.9
		s3.9-7.9-0.1-8.6c0,0-2.2-0.5-1.9,3c0.2,3.7-1.3,10.3-5.1,10.3c0,0-2.5,0-3.5-5c0,0-1.1-6.2-3.8-5.1c-2.7,1.1-1.4,3.1,0.3,4.5
		c1.7,1.3,5.3,5.7,1.6,9.3c0,0-10.6,10.2-13.8,17.4c0,0-1.6-4.5-5-4.5c-3.5,0,2.1-5.9,5.9-8.8c3.5-2.6,4-3.8,2.7-4.6
		c-2.7-1.7-4.4,1.8-17,16c0,0-2.4,2.9-3.1-0.4c0,0-1.5-9-3.7-8.7c-2.5,0.4-0.7,3.6,0.1,6.1c0.8,2.4,1.5,4.8,0.4,8.1
		c0,0-6.1,15.3-6.4,28.6c0,0-0.6,5,4,6.6c0,0,4.2,1.6,7.1-4.1c2.9-5.7,6.2-10.8,6.2-10.8s-1.2,11,13.1,22.6c0,0,0.8,0.7,0.8,1.6
		C228.2,183.9,227.3,184.3,227.3,184.3z"/>
</g>
</svg>
