<?xml version="1.0" encoding="utf-8"?>
<!-- Generator: Adobe Illustrator 19.1.0, SVG Export Plug-In . SVG Version: 6.00 Build 0)  -->
<svg version="1.1" id="Layer_1" xmlns="http://www.w3.org/2000/svg" xmlns:xlink="http://www.w3.org/1999/xlink" x="0px" y="0px"
	 viewBox="0 0 450 300" style="enable-background:new 0 0 450 300;" xml:space="preserve">
<style type="text/css">
	.st0{fill:#BBE020;}
	.st1{fill:#4D4D4D;}
	.st2{fill:#FCBD10;}
	.st3{fill:#F38034;}
	.st4{fill:#B4406B;}
	.st5{fill:#658DC8;}
	.st6{opacity:0.5;}
	.st7{fill:none;}
	.st8{fill:#FFFFFF;}
	.st9{fill:#4D7092;}
	.st10{fill:#B66228;}
	.st11{fill:#C3902C;}
	.st12{fill:#7D3057;}
	.st13{fill:#333333;}
	.st14{fill:#E74E37;}
	.st15{opacity:0.4;}
	.st16{fill:#7C2C24;}
	.st17{fill:#FFE666;}
	.st18{fill:#80D1EA;}
	.st19{fill:#231F20;}
	.st20{fill:#EC1C24;}
	.st21{fill:#DE271E;}
	.st22{fill:#E1AA1F;}
	.st23{fill:#C28214;}
	.st24{fill:none;stroke:#12100B;stroke-width:1.5;stroke-miterlimit:10;}
	.st25{fill:#52561B;}
	.st26{fill:#804000;}
	.st27{fill:#575756;}
	.st28{fill:#58BEEC;}
	.st29{fill:#3DAEF4;}
	.st30{fill:#FFB300;}
	.st31{fill:#FFFF00;}
	.st32{fill:#FF4D3B;}
	.st33{fill:#C757FF;}
	.st34{fill:url(#SVGID_1_);}
	.st35{opacity:0.8;fill:url(#SVGID_2_);}
	.st36{fill:url(#SVGID_3_);}
	.st37{fill:#7CFF1D;}
	.st38{opacity:0.9;fill:url(#SVGID_4_);}
	.st39{fill:#33BFFF;}
	.st40{fill:url(#SVGID_5_);}
	.st41{fill:#9D2DA0;}
	.st42{fill:#631D66;}
	.st43{fill:#E4AEED;}
</style>
<path class="st0" d="M402,44c0-5.5-4.5-10-10-10H52c-5.5,0-10,4.5-10,10v220c0,5.5,4.5,10,10,10h340c5.5,0,10-4.5,10-10V44z"/>
<g>
	<g>
		<g>
			<g>
				<path class="st25" d="M166.8,143.8c0,2.1-0.4,4-1.2,5.7c-0.8,1.6-1.9,3-3.3,4.1c-1.6,1.3-3.4,2.1-5.2,2.7
					c-1.9,0.5-4.3,0.7-7.2,0.7H138v-43h11c3.1,0,5.4,0.1,6.9,0.3c1.5,0.2,3,0.7,4.4,1.4c1.5,0.8,2.7,1.9,3.4,3.3
					c0.7,1.3,1.1,2.9,1.1,4.7c0,2-0.4,3.8-1.5,5.4c-1.1,1.6-2.3,2.9-4.3,3.8v0.2c2,0.7,4.4,2,5.8,3.8
					C166.2,138.8,166.8,141.1,166.8,143.8z M158.8,124.5c0-1-0.2-1.9-0.5-2.7c-0.3-0.8-0.9-1.4-1.7-1.8c-0.9-0.5-2-1.3-3.1-1.4
					c-1.1-0.1-2.7-0.6-4.7-0.6H143v13h6.8c1.8,0,3.1,0.1,4,0c0.9-0.2,1.7-0.5,2.6-1c0.9-0.6,1.5-1.2,1.9-2.1
					C158.6,126.9,158.8,125.8,158.8,124.5z M160.8,144.1c0-1.6-0.2-3-0.7-4c-0.5-1.1-1.4-1.9-2.8-2.7c-0.9-0.5-1.9-0.9-3-1.1
					c-1.1-0.1-2.6-0.3-4.6-0.3H143v16h4.9c2.5,0,4.5,0,5.9-0.3c1.5-0.2,2.7-0.7,3.8-1.4c1.1-0.8,1.9-1.6,2.4-2.5
					C160.6,146.8,160.8,145.6,160.8,144.1z"/>
				<path class="st25" d="M241,157h-5v-21h-20v21h-6v-43h6v17h20v-17h5V157z"/>
				<path class="st25" d="M170.2,157l14.6-43h7.1l14.6,43h-6.1l-3.9-12h-16.5l-3.9,12H170.2z M194.8,140l-6.7-20.4l-6.6,20.4H194.8z
					"/>
				<path class="st25" d="M281.6,157h-7.5l-13.7-17H254v17h-6v-43h11.3c2.5,0,4.5,0.1,6.2,0.4c1.7,0.3,3.3,0.9,4.8,1.9
					c1.5,1,2.7,2.2,3.6,3.7c0.9,1.5,1.3,3.4,1.3,5.7c0,3.2-0.8,5.8-2.4,7.9c-1.6,2.1-3.8,3.7-6.6,4.7L281.6,157z M269.2,126.1
					c0-1.3-0.2-2.4-0.7-3.3c-0.4-1-1.1-1.8-2.1-2.4c-0.8-0.5-1.8-0.8-2.8-1.1c-1.1-0.2-2.4-0.3-4-0.3H254v16h5
					c1.6,0,3.1-0.1,4.4-0.4c1.3-0.3,2.4-0.9,3.4-1.8c0.8-0.8,1.4-1.8,1.8-2.9C269,128.9,269.2,127.6,269.2,126.1z"/>
				<path class="st25" d="M280.4,157l14.6-43h7.1l14.6,43h-6.1l-3.9-12h-16.5l-3.9,12H280.4z M305,140l-6.7-20.4l-6.6,20.4H305z"/>
			</g>
			<g>
				<path class="st25" d="M139.9,182.5c0,0.3,0,0.5-0.1,0.7c-0.1,0.2-0.2,0.4-0.3,0.6c-0.1,0.2-0.3,0.3-0.4,0.5
					c-0.2,0.1-0.4,0.2-0.6,0.3c-0.2,0.1-0.4,0.2-0.7,0.3c-0.2,0-0.5,0.1-0.8,0.1h-2.2c-0.1,0,0.1-0.1,0-0.2
					c-0.1-0.1,0.2-0.2,0.2-0.4v-7.5c0-0.2-0.3-0.5-0.2-0.6c0.1-0.1-0.1-0.3,0-0.3h1.9c0.5,0,0.9,0.3,1.2,0.4
					c0.3,0.1,0.6,0.3,0.8,0.5c0.2,0.2,0.4,0.5,0.5,0.7c0.1,0.3,0.2,0.6,0.2,0.9c0,0.2,0,0.4-0.1,0.6c0,0.2-0.1,0.4-0.2,0.5
					c-0.1,0.2-0.2,0.3-0.4,0.4c-0.1,0.1-0.3,0.2-0.5,0.3c0.2,0,0.4,0.1,0.6,0.2c0.2,0.1,0.4,0.3,0.5,0.4c0.1,0.2,0.3,0.4,0.4,0.6
					C139.9,181.9,139.9,182.2,139.9,182.5z M138.3,178.7c0-0.2,0-0.4-0.1-0.6c-0.1-0.2-0.1-0.3-0.3-0.4c-0.1-0.1-0.3-0.4-0.5-0.4
					c-0.2-0.1-0.5-0.3-0.8-0.3H136v3h0.8c0.3,0,0.5,0,0.7-0.1c0.2-0.1,0.3-0.2,0.4-0.3c0.1-0.1,0.2-0.3,0.3-0.4
					C138.2,179,138.3,178.9,138.3,178.7z M138.8,182.5c0-0.3,0-0.5-0.1-0.7c-0.1-0.2-0.2-0.4-0.4-0.5c-0.2-0.1-0.3-0.2-0.6-0.3
					c-0.2-0.1-0.5-0.1-0.9-0.1H136v3h1.1c0.3,0,0.5,0,0.7-0.1c0.2-0.1,0.4-0.2,0.5-0.3c0.1-0.1,0.3-0.3,0.3-0.5
					C138.7,183,138.8,182.8,138.8,182.5z"/>
				<path class="st25" d="M146,184.7c0,0.1,0,0.1-0.1,0.1c0,0-0.1,0-0.2,0.1c-0.1,0-0.2,0-0.3,0c-0.1,0-0.2,0-0.3,0
					c-0.1,0-0.1,0-0.2-0.1c0,0-0.1-0.1-0.1-0.1v-0.6c0,0.3-0.5,0.5-0.8,0.6c-0.3,0.2-0.6,0.2-1,0.2c-0.3,0-0.6,0-0.8-0.1
					c-0.3-0.1-0.5-0.2-0.6-0.3c-0.2-0.2-0.3-0.3-0.4-0.6c-0.1-0.2-0.1-0.5-0.1-0.8c0-0.3,0.1-0.6,0.2-0.9c0.1-0.2,0.3-0.4,0.6-0.6
					c0.3-0.2,0.6-0.4,0.9-0.5c0.4-0.1,0.8-0.3,1.2-0.3h0.9v-0.2c0-0.2-0.1-0.4-0.1-0.6c0-0.2-0.2-0.3-0.3-0.4
					c-0.1-0.1-0.3-0.2-0.4-0.3c-0.2-0.1-0.4-0.1-0.6-0.1c-0.3,0-0.5,0-0.7,0.1c-0.2,0.1-0.4,0.1-0.6,0.2c-0.2,0.1-0.3,0.1-0.4,0.2
					c-0.1,0.1-0.2,0.1-0.2,0.1c0,0-0.1,0-0.1,0c0,0,0,0-0.1-0.1c0,0,0-0.1,0-0.1c0-0.1,0-0.1,0-0.2c0-0.1,0-0.2,0-0.3
					c0-0.1,0.1-0.1,0.1-0.2c0.1-0.1,0.2-0.1,0.3-0.2c0.1-0.1,0.3-0.1,0.5-0.2c0.2-0.1,0.4-0.1,0.6-0.2c0.2,0,0.4-0.1,0.7-0.1
					c0.4,0,0.8,0,1.1,0.1c0.3,0.1,0.5,0.2,0.7,0.4c0.2,0.2,0.3,0.4,0.4,0.7c0.1,0.3,0.2,0.6,0.2,1V184.7z M145,182h-1
					c-0.3,0-0.6,0.1-0.8,0.1c-0.2,0-0.4,0.1-0.5,0.2c-0.1,0.1-0.2,0.2-0.3,0.4c-0.1,0.1-0.1,0.3-0.1,0.5c0,0.3,0.1,0.5,0.3,0.7
					c0.2,0.2,0.5,0.3,0.8,0.3c0.3,0,0.6-0.1,0.8-0.2c0.2-0.1,0.8-0.4,0.8-0.7V182z"/>
				<path class="st25" d="M151.6,183.1c0,0.3-0.1,0.6-0.2,0.8c-0.1,0.2-0.3,0.4-0.5,0.6c-0.2,0.2-0.4,0.3-0.7,0.4
					c-0.3,0.1-0.6,0.1-0.9,0.1c-0.2,0-0.4,0-0.6,0c-0.2,0-0.4-0.1-0.5-0.1c-0.1,0-0.3-0.1-0.4-0.2c-0.1-0.1-0.2-0.1-0.2-0.1
					c0,0-0.1-0.1-0.1-0.2c0-0.1,0-0.2,0-0.3c0-0.1,0-0.2,0-0.2c0-0.1,0-0.1,0-0.1c0,0,0-0.1,0.1-0.1c0,0,0.1,0,0.1,0
					c0,0,0.1,0,0.2,0.1c0.1,0.1,0.2,0.1,0.3,0.2c0.1,0.1,0.3,0.1,0.5,0.2c0.2,0.1,0.4,0.1,0.6,0.1c0.2,0,0.3,0,0.5-0.1
					c0.1,0,0.3-0.1,0.4-0.2c0.1-0.1,0.2-0.2,0.3-0.3c0.1-0.1,0.1-0.3,0.1-0.4c0-0.2,0-0.3-0.1-0.4c-0.1-0.1-0.2-0.2-0.3-0.3
					c-0.1-0.1-0.3-0.2-0.5-0.2c-0.2-0.1-0.4-0.1-0.5-0.2c-0.2-0.1-0.4-0.2-0.5-0.3c-0.2-0.1-0.3-0.2-0.5-0.3
					c-0.1-0.1-0.3-0.3-0.3-0.5c-0.1-0.2-0.1-0.4-0.1-0.7c0-0.2,0-0.5,0.1-0.7c0.1-0.2,0.2-0.4,0.4-0.6c0.2-0.2,0.4-0.3,0.7-0.4
					c0.3-0.1,0.6-0.1,0.9-0.1c0.2,0,0.3,0,0.5,0c0.2,0,0.3,0.1,0.4,0.1c0.1,0,0.2,0.1,0.3,0.1c0.1,0,0.2,0.1,0.2,0.1
					c0,0,0.1,0.1,0.1,0.1c0,0,0,0.1,0,0.1c0,0,0,0.1,0,0.1c0,0,0,0.1,0,0.2c0,0.1,0,0.1,0,0.2c0,0.1,0,0.1,0,0.1c0,0,0,0.1-0.1,0.1
					c0,0,0,0-0.1,0c0,0-0.1,0-0.2-0.1c-0.1,0-0.2-0.1-0.3-0.2c-0.1-0.1-0.3-0.1-0.4-0.2c-0.2,0-0.3-0.1-0.5-0.1
					c-0.2,0-0.3,0-0.5,0.1c-0.1,0-0.3,0.1-0.3,0.2c-0.1,0.1-0.2,0.2-0.2,0.3c0,0.1-0.1,0.2-0.1,0.3c0,0.2,0,0.3,0.1,0.4
					c0.1,0.1,0.2,0.2,0.3,0.3c0.1,0.1,0.3,0.2,0.5,0.2c0.2,0.1,0.4,0.1,0.5,0.2c0.2,0.1,0.4,0.2,0.5,0.2c0.2,0.1,0.3,0.2,0.5,0.3
					c0.1,0.1,0.3,0.3,0.3,0.5C151.6,182.7,151.6,182.9,151.6,183.1z"/>
				<path class="st25" d="M158,181.5c0,0.2,0,0.3-0.1,0.4c-0.1,0.1-0.1,0.1-0.2,0.1h-3.9c0,0,0,0.6,0.1,0.9c0.1,0.3,0.2,0.5,0.3,0.7
					c0.2,0.2,0.4,0.3,0.6,0.4c0.2,0.1,0.5,0.2,0.9,0.2c0.3,0,0.5,0,0.7-0.1c0.2,0,0.4-0.1,0.6-0.2s0.3-0.1,0.4-0.2
					c0.1,0,0.2-0.1,0.2-0.1c0,0,0.1,0,0.1,0c0,0,0,0,0.1,0.1c0,0,0,0.1,0,0.1c0,0.1,0,0.1,0,0.2c0,0.1,0,0.1,0,0.1c0,0,0,0.1,0,0.1
					c0,0,0,0.1,0,0.1c0,0,0,0.1-0.1,0.1c0,0-0.1,0.1-0.2,0.1c-0.1,0.1-0.3,0.1-0.5,0.2c-0.2,0.1-0.4,0.1-0.6,0.1
					c-0.2,0-0.5,0.1-0.8,0.1c-0.5,0-0.9-0.1-1.3-0.2c-0.4-0.1-0.7-0.3-0.9-0.6c-0.2-0.3-0.4-0.6-0.6-1c-0.1-0.4-0.2-0.9-0.2-1.4
					c0-0.5,0.1-1,0.2-1.4c0.1-0.4,0.3-0.7,0.6-1c0.2-0.3,0.5-0.5,0.9-0.6c0.3-0.1,0.7-0.2,1.2-0.2c0.5,0,0.9,0.1,1.2,0.2
					c0.3,0.1,0.6,0.3,0.8,0.6c0.2,0.3,0.3,0.5,0.4,0.9c0.1,0.3,0.1,0.7,0.1,1.1V181.5z M157.1,181c0-1-0.1-0.9-0.4-1.2
					c-0.3-0.3-0.7-0.4-1.2-0.4c-0.3,0-0.5,0.1-0.7,0.2c-0.2,0.1-0.4,0.2-0.5,0.4c-0.1,0.2-0.2,0.3-0.3,0.5c-0.1,0.2-0.1,0.6-0.1,0.6
					H157.1z"/>
				<path class="st25" d="M168,184.7c0,0-0.1,0.1-0.1,0.1c0,0-0.1,0-0.1,0.1c0,0-0.1,0-0.2,0c-0.1,0-0.1,0-0.2,0c-0.1,0-0.2,0-0.2,0
					c-0.1,0-0.1,0-0.2,0c0,0,0,0,0-0.1c0,0,0-0.1,0-0.1V184c0,0.3-0.7,0.6-1,0.8c-0.3,0.2-0.7,0.3-1.1,0.3c-0.4,0-0.8-0.1-1.1-0.3
					c-0.3-0.2-0.6-0.4-0.7-0.7c-0.2-0.3-0.3-0.6-0.4-1c-0.1-0.4-0.1-0.8-0.1-1.2c0-0.5,0.1-1,0.2-1.4c0.1-0.4,0.3-0.8,0.5-1
					c0.2-0.3,0.5-0.5,0.8-0.7c0.3-0.2,0.7-0.2,1.1-0.2c0.3,0,0.8,0.1,1.1,0.2c0.3,0.2,1,0.4,1,0.7V176c0,0-0.1-0.1-0.1-0.1
					c0,0,0,0,0-0.1c0,0,0.1,0,0.1,0c0.1,0,0.1,0,0.2,0c0.1,0,0.2,0,0.3,0c0.1,0,0.1,0,0.2,0c0,0,0.2,0,0.2,0.1c0,0,0.1,0.1,0.1,0.1
					V184.7z M167,180.6c0-0.4-0.7-0.6-1-0.8c-0.3-0.2-0.6-0.3-0.9-0.3c-0.3,0-0.5,0.1-0.7,0.2c-0.2,0.1-0.4,0.3-0.5,0.5
					c-0.1,0.2-0.2,0.5-0.3,0.7c-0.1,0.3-0.1,0.5-0.1,0.8c0,0.3,0,0.6,0.1,0.9c0,0.3,0.1,0.5,0.2,0.8c0.1,0.2,0.3,0.4,0.4,0.5
					c0.2,0.1,0.4,0.2,0.7,0.2c0.1,0,0.3,0,0.4-0.1c0.1,0,0.3-0.1,0.4-0.2c0.1-0.1,0.4-0.2,0.6-0.4c0.2-0.1,0.6-0.3,0.6-0.5V180.6z"
					/>
				<path class="st25" d="M175,181.5c0,0.2-0.1,0.3-0.2,0.4c-0.1,0.1-0.3,0.1-0.4,0.1h-3.9c0,0,0,0.6,0.1,0.9
					c0.1,0.3,0.2,0.5,0.3,0.7c0.2,0.2,0.4,0.3,0.6,0.4c0.2,0.1,0.5,0.2,0.9,0.2c0.3,0,0.5,0,0.7-0.1c0.2,0,0.4-0.1,0.6-0.2
					s0.3-0.1,0.4-0.2c0.1,0,0.2-0.1,0.2-0.1c0,0,0.1,0,0.1,0c0,0,0,0,0.1,0.1c0,0,0,0.1,0,0.1c0,0.1,0,0.1,0,0.2c0,0.1,0,0.1,0,0.1
					c0,0,0,0.1,0,0.1c0,0,0,0.1,0,0.1c0,0,0,0.1-0.1,0.1c0,0-0.1,0.1-0.2,0.1c-0.1,0.1-0.3,0.1-0.5,0.2c-0.2,0.1-0.4,0.1-0.6,0.1
					c-0.2,0-0.5,0.1-0.8,0.1c-0.5,0-0.9-0.1-1.3-0.2c-0.4-0.1-0.7-0.3-0.9-0.6c-0.2-0.3-0.4-0.6-0.6-1c-0.1-0.4-0.2-0.9-0.2-1.4
					c0-0.5,0.1-1,0.2-1.4c0.1-0.4,0.3-0.7,0.6-1c0.2-0.3,0.5-0.5,0.9-0.6c0.3-0.1,0.7-0.2,1.2-0.2c0.5,0,0.9,0.1,1.2,0.2
					c0.3,0.1,0.6,0.3,0.8,0.6c0.2,0.3,0.5,0.5,0.5,0.9c0.1,0.3,0.2,0.7,0.2,1.1V181.5z M173.7,181c0-1-0.1-0.9-0.4-1.2
					c-0.3-0.3-0.7-0.4-1.2-0.4c-0.3,0-0.5,0.1-0.7,0.2c-0.2,0.1-0.4,0.2-0.5,0.4c-0.1,0.2-0.2,0.3-0.3,0.5c-0.1,0.2-0.1,0.6-0.1,0.6
					H173.7z"/>
				<path class="st25" d="M185.9,184.5c0,0.1,0.1,0.2,0.1,0.2c0,0.1,0,0.1,0,0.1c0,0-0.1,0-0.2,0.1c-0.1,0-0.2,0-0.3,0s-0.2,0-0.3,0
					c-0.1,0-0.1,0-0.2,0c0,0-0.1,0-0.1-0.1c0,0,0-0.4-0.1-0.4l-0.7-2.4h-3.5l-0.7,2.4c0,0,0,0.2-0.1,0.3c0,0-0.1,0.1-0.1,0.2
					c0,0-0.1,0.1-0.2,0.1c-0.1,0-0.2,0-0.3,0c-0.1,0-0.2,0-0.3,0c-0.1,0-0.1,0-0.2-0.1c0,0,0-0.1,0-0.1c0-0.1,0-0.1,0.1-0.2l2.8-7.8
					c0,0,0-0.1,0.1-0.1c0,0,0.1-0.1,0.1-0.1c0.1,0,0.1,0,0.2,0c0.1,0,0.2,0,0.3,0c0.1,0,0.3,0,0.3,0c0.1,0,0.2,0,0.2,0
					c0.1,0,0.1,0,0.1,0.1c0,0,0.1,0.1,0.1,0.1L185.9,184.5z M182.3,177L182.3,177l-1.5,4h2.9L182.3,177z"/>
				<path class="st25" d="M190.9,183.1c0,0.3-0.1,0.6-0.2,0.8c-0.1,0.2-0.3,0.4-0.5,0.6c-0.2,0.2-0.4,0.3-0.7,0.4
					c-0.3,0.1-0.6,0.1-0.9,0.1c-0.2,0-0.4,0-0.6,0c-0.2,0-0.4-0.1-0.5-0.1s-0.3-0.1-0.4-0.2c-0.1-0.1-0.2-0.1-0.2-0.1
					c0,0-0.1-0.1-0.1-0.2c0-0.1,0-0.2,0-0.3c0-0.1,0-0.2,0-0.2c0-0.1,0-0.1,0-0.1c0,0,0-0.1,0.1-0.1c0,0,0.1,0,0.1,0
					c0,0,0.1,0,0.2,0.1c0.1,0.1,0.2,0.1,0.3,0.2c0.1,0.1,0.3,0.1,0.5,0.2c0.2,0.1,0.4,0.1,0.6,0.1c0.2,0,0.3,0,0.5-0.1
					c0.1,0,0.3-0.1,0.4-0.2c0.1-0.1,0.2-0.2,0.3-0.3c0.1-0.1,0.1-0.3,0.1-0.4c0-0.2,0-0.3-0.1-0.4c-0.1-0.1-0.2-0.2-0.3-0.3
					c-0.1-0.1-0.3-0.2-0.5-0.2c-0.2-0.1-0.4-0.1-0.5-0.2c-0.2-0.1-0.4-0.2-0.5-0.3c-0.2-0.1-0.3-0.2-0.5-0.3
					c-0.1-0.1-0.3-0.3-0.3-0.5c-0.1-0.2-0.1-0.4-0.1-0.7c0-0.2,0-0.5,0.1-0.7s0.2-0.4,0.4-0.6c0.2-0.2,0.4-0.3,0.7-0.4
					c0.3-0.1,0.6-0.1,0.9-0.1c0.2,0,0.3,0,0.5,0c0.2,0,0.3,0.1,0.4,0.1c0.1,0,0.2,0.1,0.3,0.1c0.1,0,0.2,0.1,0.2,0.1
					c0,0,0.1,0.1,0.1,0.1c0,0,0,0.1,0,0.1c0,0,0,0.1,0,0.1c0,0,0,0.1,0,0.2c0,0.1,0,0.1,0,0.2c0,0.1,0,0.1,0,0.1c0,0,0,0.1-0.1,0.1
					c0,0,0,0-0.1,0c0,0-0.1,0-0.2-0.1c-0.1,0-0.2-0.1-0.3-0.2c-0.1-0.1-0.3-0.1-0.4-0.2c-0.2,0-0.3-0.1-0.5-0.1
					c-0.2,0-0.3,0-0.5,0.1c-0.1,0-0.3,0.1-0.3,0.2c-0.1,0.1-0.2,0.2-0.2,0.3c0,0.1-0.1,0.2-0.1,0.3c0,0.2,0,0.3,0.1,0.4
					c0.1,0.1,0.2,0.2,0.3,0.3c0.1,0.1,0.3,0.2,0.5,0.2c0.2,0.1,0.4,0.1,0.5,0.2c0.2,0.1,0.4,0.2,0.5,0.2c0.2,0.1,0.3,0.2,0.5,0.3
					c0.1,0.1,0.3,0.3,0.3,0.5C190.8,182.7,190.9,182.9,190.9,183.1z"/>
				<path class="st25" d="M198,181.5c0,0.2-0.3,0.3-0.4,0.4c-0.1,0.1-0.5,0.1-0.6,0.1h-3.9c0,0,0,0.6,0.1,0.9
					c0.1,0.3,0.2,0.5,0.3,0.7c0.2,0.2,0.4,0.3,0.6,0.4c0.2,0.1,0.5,0.2,0.9,0.2c0.3,0,0.5,0,0.7-0.1c0.2,0,0.4-0.1,0.6-0.2
					c0.2-0.1,0.3-0.1,0.4-0.2c0.1,0,0.2-0.1,0.2-0.1c0,0,0.1,0,0.1,0c0,0,0,0,0.1,0.1c0,0,0,0.1,0,0.1c0,0.1,0,0.1,0,0.2
					c0,0.1,0,0.1,0,0.1c0,0,0,0.1,0,0.1c0,0,0,0.1,0,0.1c0,0,0,0.1-0.1,0.1c0,0-0.1,0.1-0.2,0.1c-0.1,0.1-0.3,0.1-0.5,0.2
					c-0.2,0.1-0.4,0.1-0.6,0.1c-0.2,0-0.5,0.1-0.8,0.1c-0.5,0-0.9-0.1-1.3-0.2c-0.4-0.1-0.7-0.3-0.9-0.6c-0.2-0.3-0.4-0.6-0.6-1
					c-0.1-0.4-0.2-0.9-0.2-1.4c0-0.5,0.1-1,0.2-1.4c0.1-0.4,0.3-0.7,0.6-1c0.2-0.3,0.5-0.5,0.9-0.6c0.3-0.1,0.7-0.2,1.2-0.2
					c0.5,0,0.9,0.1,1.2,0.2c0.3,0.1,0.6,0.3,0.8,0.6c0.2,0.3,0.6,0.5,0.7,0.9c0.1,0.3,0.4,0.7,0.4,1.1V181.5z M196.3,181
					c0-1-0.1-0.9-0.4-1.2c-0.3-0.3-0.7-0.4-1.2-0.4c-0.3,0-0.5,0.1-0.7,0.2c-0.2,0.1-0.4,0.2-0.5,0.4c-0.1,0.2-0.2,0.3-0.3,0.5
					c-0.1,0.2-0.1,0.6-0.1,0.6H196.3z"/>
				<path class="st25" d="M204,184.7C204,184.8,204,184.8,204,184.7c0,0.1,0,0.1,0,0.1c0,0-0.1,0-0.1,0c-0.1,0-0.1,0-0.3,0
					c-0.1,0-0.2,0-0.3,0c-0.1,0-0.1,0-0.2,0c0,0-0.1,0-0.1-0.1c0,0,0-0.1,0-0.1v-3.4c0-0.3,0-0.6-0.1-0.8c-0.1-0.2-0.1-0.4-0.2-0.5
					c-0.1-0.1-0.2-0.3-0.4-0.3c-0.2-0.1-0.3-0.1-0.5-0.1c-0.3,0-0.6,0.1-0.9,0.3c-0.3,0.2,0.1,0.5-0.9,0.8v4.1c0,0,0.1,0.1,0,0.1
					c0,0,0,0-0.1,0.1c0,0-0.1,0-0.1,0c-0.1,0-0.1,0-0.3,0c-0.1,0-0.2,0-0.3,0c-0.1,0-0.1,0-0.2,0c0,0-0.1,0-0.1-0.1
					c0,0-0.1-0.1-0.1-0.1v-5.9c0,0,0-0.1,0.1-0.1c0,0,0.1,0,0.1-0.1c0,0,0.1,0,0.2,0c0.1,0,0.1,0,0.2,0c0.1,0,0.2,0,0.2,0
					c0.1,0,0.1,0,0.1,0c0,0,0,0,0.1,0.1c0,0,0,0.1,0,0.1v0.8c0-0.4,0.7-0.6,1-0.8c0.3-0.2,0.7-0.3,1-0.3c0.4,0,0.7,0.1,1,0.2
					c0.3,0.1,0.5,0.3,0.7,0.5c0.2,0.2,0.2,0.5,0.3,0.8c0.1,0.3,0.1,0.7,0.1,1.1V184.7z"/>
				<path class="st25" d="M209,184.3c0,0.1,0,0.2,0,0.3c0,0.1,0,0.1-0.1,0.2c0,0-0.1,0.1-0.2,0.1c-0.1,0-0.1,0.1-0.2,0.1
					c-0.1,0-0.2,0-0.3,0c-0.1,0-0.2,0-0.3,0c-0.3,0-0.6,0-0.8-0.1c-0.2-0.1-0.4-0.2-0.5-0.4c-0.1-0.2-0.3-0.4-0.4-0.6
					c-0.1-0.3-0.2-0.5-0.2-0.9v-4h-0.6c-0.1,0-0.1,0.3-0.2,0.2c0-0.1-0.1,0-0.1-0.2c0-0.1,0-0.1,0-0.1c0-0.1,0-0.1,0-0.1
					c0,0,0-0.4,0.1-0.4c0,0,0.1-0.3,0.1-0.3h0.6v-0.7c0,0,0.1-0.1,0.1-0.1c0,0,0.1,0,0.1-0.1c0,0,0.1,0,0.2,0c0.1,0,0.2,0,0.3,0
					c0.1,0,0.2,0,0.3,0c0.1,0,0.1,0,0.2,0c0,0-0.1,0-0.1,0.1c0,0-0.1,0.1-0.1,0.1v0.7h1.8c0,0,0.1,0.4,0.1,0.4c0,0,0,0.2,0.1,0.3
					c0,0,0,0.2,0,0.2c0,0.1,0,0.2,0,0.3c0,0.2,0,0-0.1,0.1c0,0.1-0.1-0.2-0.2-0.2H207v3.9c0,0.4,0.2,0.7,0.3,0.9
					c0.1,0.2,0.4,0.3,0.7,0.3c0.1,0,0.2,0,0.3,0c0.1,0,0.2,0,0.2-0.1c0.1,0,0.1,0,0.2-0.1c0,0,0.1,0,0.1,0c0,0,0,0,0.1,0
					c0,0,0,0,0,0.1c0,0,0,0.1,0,0.1C209,184.2,209,184.2,209,184.3z"/>
				<path class="st25" d="M215,184.7c0,0.1-0.2,0.1-0.2,0.1c0,0-0.2,0-0.2,0.1c-0.1,0-0.2,0-0.3,0c-0.1,0-0.2,0-0.3,0
					c-0.1,0,0,0,0-0.1c0,0,0.1-0.1,0.1-0.1v-0.6c0,0.3-0.7,0.5-1,0.6c-0.3,0.2-0.7,0.2-1.1,0.2c-0.3,0-0.6,0-0.9-0.1
					c-0.2-0.1-0.5-0.2-0.7-0.3c-0.2-0.2-0.3-0.3-0.4-0.6c-0.1-0.2-0.2-0.5-0.2-0.8c0-0.3,0.1-0.6,0.2-0.9c0.1-0.2,0.3-0.4,0.6-0.6
					c0.3-0.2,0.6-0.4,0.9-0.5c0.4-0.1,0.8-0.3,1.2-0.3h1.2v-0.2c0-0.2-0.2-0.4-0.3-0.6c0-0.2-0.2-0.3-0.3-0.4
					c-0.1-0.1-0.3-0.2-0.5-0.3c-0.2-0.1-0.4-0.1-0.6-0.1c-0.3,0-0.5,0-0.7,0.1c-0.2,0.1-0.4,0.1-0.6,0.2c-0.2,0.1-0.3,0.1-0.4,0.2
					c-0.1,0.1-0.2,0.1-0.2,0.1c0,0-0.1,0-0.1,0c0,0,0,0-0.1-0.1c0,0,0-0.1,0-0.1c0-0.1,0-0.1,0-0.2c0-0.1,0-0.2,0-0.3
					c0-0.1,0.1-0.1,0.1-0.2c0.1-0.1,0.2-0.1,0.3-0.2c0.1-0.1,0.3-0.1,0.5-0.2c0.2-0.1,0.4-0.1,0.6-0.2c0.2,0,0.4-0.1,0.7-0.1
					c0.4,0,0.8,0,1.1,0.1c0.3,0.1,0.5,0.2,0.7,0.4c0.2,0.2,0.5,0.4,0.6,0.7c0.1,0.3,0.3,0.6,0.3,1V184.7z M214,182h-1.3
					c-0.3,0-0.6,0.1-0.8,0.1c-0.2,0-0.4,0.1-0.5,0.2c-0.1,0.1-0.2,0.2-0.3,0.4c-0.1,0.1-0.1,0.3-0.1,0.5c0,0.3,0.1,0.5,0.3,0.7
					c0.2,0.2,0.5,0.3,0.8,0.3c0.3,0,0.7-0.1,1-0.2c0.2-0.1,0-0.4,1-0.7V182z"/>
				<path class="st25" d="M225,184.7c0,0,0.2,0.1,0.2,0.1c0,0,0,0,0,0.1c0,0,0,0-0.1,0c-0.1,0-0.1,0-0.2,0c-0.1,0-0.2,0-0.3,0
					c-0.1,0-0.1,0-0.2,0c0,0-0.2,0-0.2-0.1c0,0-0.2-0.1-0.2-0.1v-3.6c0-0.2,0.1-0.5,0.1-0.7c0-0.2,0-0.4-0.1-0.5
					c-0.1-0.1-0.2-0.3-0.3-0.3c-0.1-0.1-0.3-0.1-0.5-0.1c-0.2,0-0.3,0.1-0.5,0.3c-0.2,0.2-0.6,0.5-0.6,0.8v4.1c0,0-0.2,0.1-0.3,0.1
					c0,0-0.2,0-0.2,0.1c0,0-0.2,0-0.2,0c-0.1,0-0.2,0-0.3,0c-0.1,0-0.2,0-0.3,0c-0.1,0-0.1,0-0.2,0c0,0,0.2,0,0.2-0.1
					c0,0,0.2-0.1,0.2-0.1v-3.6c0-0.2-0.3-0.5-0.3-0.7c0-0.2-0.3-0.4-0.3-0.5c-0.1-0.1-0.3-0.3-0.4-0.3c-0.1-0.1-0.4-0.1-0.6-0.1
					c-0.2,0-0.4,0.1-0.6,0.3c-0.3,0.2-0.7,0.5-0.7,0.8v4.1c0,0-0.1,0.1-0.2,0.1c0,0-0.1,0-0.2,0.1c0,0-0.1,0-0.2,0
					c-0.1,0-0.2,0-0.3,0c-0.1,0-0.2,0-0.3,0c-0.1,0-0.1,0-0.2,0c0,0,0.1,0,0.1-0.1c0,0,0.1-0.1,0.1-0.1v-5.9c0,0-0.2-0.1-0.2-0.1
					c0,0,0,0,0-0.1c0,0,0,0,0.1,0c0.1,0,0.1,0,0.2,0c0.1,0,0.2,0,0.2,0c0.1,0,0.1,0,0.1,0c0,0,0.2,0,0.3,0.1c0,0,0.2,0.1,0.2,0.1
					v0.8c0-0.4,0.5-0.6,0.8-0.8c0.3-0.2,0.5-0.3,0.8-0.3c0.2,0,0.4,0,0.6,0.1c0.2,0.1,0.3,0.1,0.5,0.2c0.1,0.1,0.3,0.2,0.4,0.4
					c0.1,0.1,0.2,0.3,0.3,0.5c0.2-0.2,0.4-0.4,0.6-0.5c0.2-0.1,0.3-0.3,0.5-0.4c0.2-0.1,0.3-0.2,0.5-0.2c0.2,0,0.3-0.1,0.5-0.1
					c0.4,0,0.7,0.1,1,0.2c0.3,0.1,0.5,0.3,0.6,0.5c0.2,0.2,0.1,0.5,0.2,0.8c0.1,0.3-0.1,0.6-0.1,0.9V184.7z"/>
				<path class="st25" d="M228.5,176.9c0,0.3,0,0.4-0.1,0.5c-0.1,0.1-0.3,0.1-0.5,0.1c-0.3,0-0.4,0-0.5-0.1
					c-0.1-0.1-0.1-0.3-0.1-0.5c0-0.3,0-0.4,0.1-0.5s0.3-0.1,0.5-0.1c0.3,0,0.4,0,0.5,0.1C228.5,176.5,228.5,176.6,228.5,176.9z
					 M229,184.7c0,0-0.3,0.1-0.3,0.1c0,0-0.2,0-0.2,0.1c0,0-0.2,0-0.2,0c-0.1,0-0.2,0-0.3,0c-0.1,0-0.2,0-0.3,0c-0.1,0-0.1,0-0.2,0
					c0,0-0.2,0-0.2-0.1c0,0-0.2-0.1-0.2-0.1v-5.9c0,0,0.2-0.1,0.2-0.1c0,0,0.1,0,0.2-0.1c0,0,0.1,0,0.2,0c0.1,0,0.2,0,0.3,0
					c0.1,0,0.2,0,0.3,0c0.1,0,0.1,0,0.2,0c0,0,0.4,0,0.4,0.1c0,0,0.3,0.1,0.3,0.1V184.7z"/>
				<path class="st25" d="M236,181.5c0,0.2-0.3,0.3-0.4,0.4c-0.1,0.1-0.5,0.1-0.6,0.1h-3.9c0,0,0,0.6,0.1,0.9
					c0.1,0.3,0.2,0.5,0.3,0.7c0.2,0.2,0.4,0.3,0.6,0.4c0.2,0.1,0.5,0.2,0.9,0.2c0.3,0,0.5,0,0.7-0.1c0.2,0,0.4-0.1,0.6-0.2
					c0.2-0.1,0.3-0.1,0.4-0.2c0.1,0,0.2-0.1,0.2-0.1c0,0,0.1,0,0.1,0c0,0,0,0,0.1,0.1c0,0,0,0.1,0,0.1c0,0.1,0,0.1,0,0.2
					c0,0.1,0,0.1,0,0.1c0,0,0,0.1,0,0.1c0,0,0,0.1,0,0.1c0,0,0,0.1-0.1,0.1c0,0-0.1,0.1-0.2,0.1c-0.1,0.1-0.3,0.1-0.5,0.2
					c-0.2,0.1-0.4,0.1-0.6,0.1c-0.2,0-0.5,0.1-0.8,0.1c-0.5,0-0.9-0.1-1.3-0.2c-0.4-0.1-0.7-0.3-0.9-0.6c-0.2-0.3-0.4-0.6-0.6-1
					c-0.1-0.4-0.2-0.9-0.2-1.4c0-0.5,0.1-1,0.2-1.4c0.1-0.4,0.3-0.7,0.6-1c0.2-0.3,0.5-0.5,0.9-0.6c0.3-0.1,0.7-0.2,1.2-0.2
					c0.5,0,0.9,0.1,1.2,0.2c0.3,0.1,0.6,0.3,0.8,0.6c0.2,0.3,0.7,0.5,0.8,0.9c0.1,0.3,0.5,0.7,0.5,1.1V181.5z M234.3,181
					c0-1-0.1-0.9-0.4-1.2c-0.3-0.3-0.7-0.4-1.2-0.4c-0.3,0-0.5,0.1-0.7,0.2c-0.2,0.1-0.4,0.2-0.5,0.4c-0.1,0.2-0.2,0.3-0.3,0.5
					c-0.1,0.2-0.1,0.6-0.1,0.6H234.3z"/>
				<path class="st25" d="M242,184.7C242,184.8,242,184.8,242,184.7c0,0.1,0,0.1-0.1,0.1c0,0-0.1,0-0.2,0c-0.1,0-0.2,0-0.3,0
					c-0.1,0-0.2,0-0.3,0c-0.1,0-0.1,0-0.2,0c0,0-0.1,0-0.1-0.1c0,0,0-0.1,0-0.1v-3.4c0-0.3,0-0.6-0.1-0.8c-0.1-0.2-0.1-0.4-0.2-0.5
					c-0.1-0.1-0.2-0.3-0.4-0.3c-0.2-0.1-0.3-0.1-0.6-0.1c-0.3,0-0.6,0.1-0.9,0.3c-0.3,0.2,0.1,0.5-0.9,0.8v4.1c0,0,0,0.1,0,0.1
					c0,0,0,0-0.1,0.1c0,0-0.1,0-0.2,0c-0.1,0-0.2,0-0.3,0c-0.1,0-0.2,0-0.3,0c-0.1,0-0.1,0-0.2,0c0,0-0.1,0-0.1-0.1c0,0,0-0.1,0-0.1
					v-5.9c0,0,0-0.1,0-0.1c0,0,0,0,0.1-0.1c0,0,0.1,0,0.2,0c0.1,0,0.1,0,0.2,0c0.1,0,0.2,0,0.2,0c0.1,0,0.1,0,0.1,0
					c0,0,0.1,0,0.1,0.1c0,0,0,0.1,0,0.1v0.8c0-0.4,0.7-0.6,1-0.8s0.7-0.3,1-0.3c0.4,0,0.7,0.1,1,0.2c0.3,0.1,0.5,0.3,0.6,0.5
					c0.2,0.2,0.2,0.5,0.3,0.8c0.1,0.3,0.1,0.7,0.1,1.1V184.7z"/>
				<path class="st25" d="M247,184.3c0,0.1,0,0.2,0,0.3c0,0.1,0,0.1-0.1,0.2c0,0-0.1,0.1-0.2,0.1c-0.1,0-0.1,0.1-0.2,0.1
					c-0.1,0-0.2,0-0.3,0c-0.1,0-0.2,0-0.3,0c-0.3,0-0.6,0-0.8-0.1c-0.2-0.1-0.4-0.2-0.5-0.4c-0.1-0.2-0.3-0.4-0.4-0.6
					c-0.1-0.3-0.2-0.5-0.2-0.9v-4h-0.7c-0.1,0-0.1,0.3-0.2,0.2c0-0.1-0.1,0-0.1-0.2c0-0.1,0-0.1,0-0.1c0-0.1,0-0.1,0-0.1
					c0,0,0-0.4,0.1-0.4c0,0,0.1-0.3,0.1-0.3h0.6v-0.7c0,0,0.1-0.1,0.1-0.1c0,0,0.1,0,0.1-0.1c0,0,0.1,0,0.2,0c0.1,0,0.2,0,0.3,0
					c0.1,0,0.2,0,0.3,0c0.1,0,0.1,0,0.2,0c0,0-0.1,0,0,0.1c0,0-0.1,0.1-0.1,0.1v0.7h1.7c0,0,0.1,0.4,0.1,0.4c0,0,0,0.2,0.1,0.3
					c0,0,0,0.2,0,0.2c0,0.1,0,0.2,0,0.3c0,0.2,0,0-0.1,0.1c0,0.1-0.1-0.2-0.2-0.2H245v3.9c0,0.4,0.2,0.7,0.3,0.9
					c0.1,0.2,0.4,0.3,0.7,0.3c0.1,0,0.2,0,0.3,0c0.1,0,0.2,0,0.2-0.1c0.1,0,0.1,0,0.2-0.1c0,0,0.1,0,0.1,0c0,0,0,0,0.1,0
					c0,0,0,0,0,0.1c0,0,0,0.1,0,0.1C247,184.2,247,184.2,247,184.3z"/>
				<path class="st25" d="M253.7,181.7c0,0.5-0.1,0.9-0.2,1.3c-0.1,0.4-0.3,0.7-0.6,1c-0.2,0.3-0.6,0.5-0.9,0.7
					c-0.4,0.2-0.8,0.2-1.3,0.2c-0.5,0-0.9-0.1-1.3-0.2c-0.4-0.1-0.7-0.4-0.9-0.6c-0.2-0.3-0.4-0.6-0.5-1c-0.1-0.4-0.2-0.8-0.2-1.3
					c0-0.5,0.1-0.9,0.2-1.3c0.1-0.4,0.3-0.7,0.6-1c0.2-0.3,0.6-0.5,0.9-0.7c0.4-0.2,0.8-0.2,1.3-0.2c0.5,0,0.9,0.1,1.3,0.2
					c0.4,0.1,0.7,0.4,0.9,0.6c0.2,0.3,0.4,0.6,0.5,1C253.7,180.8,253.7,181.2,253.7,181.7z M252.6,181.8c0-0.3,0-0.6-0.1-0.9
					c-0.1-0.3-0.2-0.5-0.3-0.7c-0.1-0.2-0.3-0.4-0.6-0.5c-0.2-0.1-0.5-0.2-0.9-0.2c-0.3,0-0.6,0.1-0.8,0.2c-0.2,0.1-0.4,0.3-0.6,0.5
					c-0.1,0.2-0.3,0.5-0.3,0.7c-0.1,0.3-0.1,0.6-0.1,0.9c0,0.3,0,0.6,0.1,0.9c0.1,0.3,0.2,0.5,0.3,0.7c0.1,0.2,0.3,0.4,0.6,0.5
					c0.2,0.1,0.5,0.2,0.9,0.2c0.3,0,0.6-0.1,0.8-0.2c0.2-0.1,0.4-0.3,0.6-0.5c0.1-0.2,0.3-0.4,0.3-0.7
					C252.6,182.4,252.6,182.1,252.6,181.8z"/>
				<path class="st25" d="M259,183.1c0,0.3-0.1,0.6-0.2,0.8c-0.1,0.2-0.3,0.4-0.5,0.6c-0.2,0.2-0.4,0.3-0.7,0.4
					c-0.3,0.1-0.6,0.1-0.9,0.1c-0.2,0-0.4,0-0.6,0c-0.2,0-0.4-0.1-0.5-0.1s-0.3-0.1-0.4-0.2c-0.1-0.1-0.2-0.1-0.2-0.1
					c0,0-0.1-0.1-0.1-0.2c0-0.1,0-0.2,0-0.3c0-0.1,0-0.2,0-0.2c0-0.1,0-0.1,0-0.1c0,0,0-0.1,0.1-0.1c0,0,0.1,0,0.1,0
					c0,0,0.1,0,0.2,0.1c0.1,0.1,0.2,0.1,0.3,0.2c0.1,0.1,0.3,0.1,0.5,0.2c0.2,0.1,0.4,0.1,0.6,0.1c0.2,0,0.3,0,0.5-0.1
					c0.1,0,0.3-0.1,0.4-0.2c0.1-0.1,0.2-0.2,0.3-0.3c0.1-0.1,0.1-0.3,0.1-0.4c0-0.2,0-0.3-0.1-0.4c-0.1-0.1-0.2-0.2-0.3-0.3
					c-0.1-0.1-0.3-0.2-0.5-0.2c-0.2-0.1-0.4-0.1-0.5-0.2c-0.2-0.1-0.4-0.2-0.5-0.3c-0.2-0.1-0.3-0.2-0.5-0.3
					c-0.1-0.1-0.3-0.3-0.3-0.5c-0.1-0.2-0.1-0.4-0.1-0.7c0-0.2,0-0.5,0.1-0.7c0.1-0.2,0.2-0.4,0.4-0.6c0.2-0.2,0.4-0.3,0.7-0.4
					c0.3-0.1,0.6-0.1,0.9-0.1c0.2,0,0.3,0,0.5,0c0.2,0,0.3,0.1,0.4,0.1c0.1,0,0.2,0.1,0.3,0.1c0.1,0,0.2,0.1,0.2,0.1
					c0,0,0.1,0.1,0.1,0.1c0,0,0,0.1,0,0.1c0,0,0,0.1,0,0.1c0,0,0,0.1,0,0.2c0,0.1,0,0.1,0,0.2c0,0.1,0,0.1,0,0.1c0,0,0,0.1-0.1,0.1
					c0,0,0,0-0.1,0c0,0-0.1,0-0.2-0.1c-0.1,0-0.2-0.1-0.3-0.2c-0.1-0.1-0.3-0.1-0.4-0.2c-0.2,0-0.3-0.1-0.5-0.1
					c-0.2,0-0.3,0-0.5,0.1c-0.1,0-0.3,0.1-0.3,0.2c-0.1,0.1-0.2,0.2-0.2,0.3c0,0.1-0.1,0.2-0.1,0.3c0,0.2,0,0.3,0.1,0.4
					c0.1,0.1,0.2,0.2,0.3,0.3c0.1,0.1,0.3,0.2,0.5,0.2c0.2,0.1,0.4,0.1,0.5,0.2c0.2,0.1,0.4,0.2,0.5,0.2c0.2,0.1,0.3,0.2,0.5,0.3
					c0.1,0.1,0.3,0.3,0.3,0.5C258.9,182.7,259,182.9,259,183.1z"/>
				<path class="st25" d="M270,184.7c0,0-0.1,0.1-0.2,0.1c0,0-0.1,0-0.2,0.1c0,0-0.1,0-0.2,0c-0.1,0-0.2,0-0.3,0c-0.1,0-0.2,0-0.3,0
					c-0.1,0-0.1,0-0.2,0c0,0,0.1,0,0.1-0.1c0,0,0.2-0.1,0.2-0.1V181h-4v3.7c0,0-0.1,0.1-0.1,0.1c0,0-0.1,0-0.1,0.1c0,0-0.1,0-0.2,0
					c-0.1,0-0.2,0-0.3,0c-0.1,0-0.2,0-0.3,0c-0.1,0-0.1,0-0.2,0c0,0,0.1,0,0.1-0.1c0,0,0.1-0.1,0.1-0.1v-8.1c0,0-0.2-0.1-0.1-0.1
					c0,0,0,0,0-0.1c0,0,0.1,0,0.1,0c0.1,0,0.1,0,0.2,0c0.1,0,0.2,0,0.3,0c0.1,0,0.1,0,0.2,0c0,0,0.2,0,0.2,0.1c0,0,0.1,0.1,0.1,0.1
					v3.4h4v-3.4c0,0-0.2-0.1-0.2-0.1c0,0,0,0,0-0.1c0,0,0.1,0,0.1,0c0.1,0,0.1,0,0.2,0c0.1,0,0.2,0,0.3,0c0.1,0,0.1,0,0.2,0
					c0,0,0.2,0,0.2,0.1c0,0,0.2,0.1,0.2,0.1V184.7z"/>
				<path class="st25" d="M277,184.7C277,184.8,276.9,184.8,277,184.7c-0.1,0.1-0.2,0.1-0.2,0.1c0,0-0.1,0-0.2,0c-0.1,0-0.1,0-0.2,0
					c-0.1,0-0.2,0-0.2,0c-0.1,0-0.1,0-0.2,0c0,0,0,0,0-0.1c0,0,0-0.1,0-0.1V184c0,0.4-0.7,0.6-1,0.8c-0.3,0.2-0.7,0.3-1,0.3
					c-0.4,0-0.7-0.1-1-0.2c-0.3-0.1-0.5-0.3-0.7-0.5c-0.2-0.2-0.2-0.5-0.3-0.8c-0.1-0.3,0-0.7,0-1.1v-3.6c0,0-0.1-0.1-0.1-0.1
					c0,0,0,0,0-0.1c0,0,0.1,0,0.1,0c0.1,0,0.1,0,0.2,0c0.1,0,0.2,0,0.3,0c0.1,0,0.1,0,0.2,0c0,0,0.1,0,0.1,0.1c0,0,0.1,0.1,0.1,0.1
					v3.4c0,0.3,0,0.6,0,0.8c0,0.2,0.1,0.4,0.2,0.5c0.1,0.1,0.2,0.3,0.4,0.3c0.2,0.1,0.3,0.1,0.5,0.1c0.3,0,0.6-0.1,0.9-0.3
					c0.3-0.2,1-0.5,1-0.8v-4.1c0,0-0.1-0.1-0.1-0.1c0,0,0,0,0-0.1c0,0,0.1,0,0.1,0c0.1,0,0.1,0,0.3,0c0.1,0,0.2,0,0.3,0
					c0.1,0,0.1,0,0.2,0c0,0,0.1,0,0.1,0.1c0,0,0.1,0.1,0.1,0.1V184.7z"/>
				<path class="st25" d="M288,184.7c0,0-0.2,0.1-0.2,0.1c0,0-0.2,0-0.2,0.1c0,0-0.1,0-0.2,0c-0.1,0-0.2,0-0.3,0c-0.1,0-0.2,0-0.3,0
					c-0.1,0-0.1,0-0.2,0c0,0,0.2,0,0.2-0.1c0,0,0.2-0.1,0.2-0.1v-3.6c0-0.2-0.3-0.5-0.3-0.7c0-0.2-0.2-0.4-0.3-0.5
					c-0.1-0.1-0.3-0.3-0.4-0.3c-0.1-0.1-0.4-0.1-0.6-0.1c-0.2,0-0.4,0.1-0.6,0.3c-0.2,0.2-0.7,0.5-0.7,0.8v4.1c0,0-0.1,0.1-0.1,0.1
					c0,0-0.1,0-0.1,0.1c0,0-0.1,0-0.2,0c-0.1,0-0.2,0-0.3,0c-0.1,0-0.2,0-0.3,0c-0.1,0-0.1,0-0.2,0c0,0,0.1,0,0.1-0.1
					c0,0,0.1-0.1,0.1-0.1v-3.6c0-0.2-0.2-0.5-0.2-0.7c0-0.2-0.2-0.4-0.3-0.5c-0.1-0.1-0.3-0.3-0.4-0.3c-0.1-0.1-0.3-0.1-0.5-0.1
					c-0.2,0-0.5,0.1-0.7,0.3c-0.3,0.2-0.8,0.5-0.8,0.8v4.1c0,0,0,0.1-0.1,0.1c0,0-0.1,0-0.1,0.1c0,0-0.1,0-0.2,0c-0.1,0-0.2,0-0.3,0
					c-0.1,0-0.2,0-0.3,0c-0.1,0-0.1,0-0.2,0c0,0,0,0,0-0.1c0,0,0-0.1,0-0.1v-5.9c0,0-0.1-0.1,0-0.1c0,0,0,0,0-0.1c0,0,0.1,0,0.1,0
					c0.1,0,0.1,0,0.2,0c0.1,0,0.2,0,0.2,0c0.1,0,0.1,0,0.1,0c0,0,0.1,0,0.2,0.1c0,0,0.1,0.1,0.1,0.1v0.8c0-0.4,0.6-0.6,0.9-0.8
					c0.3-0.2,0.6-0.3,0.9-0.3c0.2,0,0.4,0,0.6,0.1c0.2,0.1,0.4,0.1,0.5,0.2c0.1,0.1,0.3,0.2,0.4,0.4c0.1,0.1,0.2,0.3,0.3,0.5
					c0.2-0.2,0.4-0.4,0.6-0.5c0.2-0.1,0.3-0.3,0.5-0.4c0.2-0.1,0.3-0.2,0.5-0.2c0.2,0,0.3-0.1,0.5-0.1c0.4,0,0.7,0.1,1,0.2
					c0.3,0.1,0.5,0.3,0.6,0.5c0.2,0.2,0.5,0.5,0.6,0.8c0.1,0.3,0.3,0.6,0.3,0.9V184.7z"/>
				<path class="st25" d="M294,184.7c0,0.1,0,0.1-0.1,0.1c0,0-0.1,0-0.2,0.1c-0.1,0-0.2,0-0.3,0c-0.1,0-0.2,0-0.3,0
					c-0.1,0-0.1,0-0.2-0.1c0,0-0.1-0.1-0.1-0.1v-0.6c0,0.3-0.5,0.5-0.8,0.6c-0.3,0.2-0.6,0.2-1,0.2c-0.3,0-0.6,0-0.8-0.1
					c-0.2-0.1-0.5-0.2-0.6-0.3c-0.2-0.2-0.3-0.3-0.4-0.6c-0.1-0.2-0.1-0.5-0.1-0.8c0-0.3,0.1-0.6,0.2-0.9c0.1-0.2,0.3-0.4,0.6-0.6
					c0.3-0.2,0.6-0.4,0.9-0.5c0.4-0.1,0.8-0.3,1.2-0.3h0.9v-0.2c0-0.2-0.1-0.4-0.1-0.6c0-0.2-0.2-0.3-0.3-0.4
					c-0.1-0.1-0.3-0.2-0.4-0.3s-0.4-0.1-0.6-0.1c-0.3,0-0.5,0-0.7,0.1c-0.2,0.1-0.4,0.1-0.6,0.2c-0.2,0.1-0.3,0.1-0.4,0.2
					c-0.1,0.1-0.2,0.1-0.2,0.1c0,0-0.1,0-0.1,0c0,0,0,0-0.1-0.1c0,0,0-0.1,0-0.1c0-0.1,0-0.1,0-0.2c0-0.1,0-0.2,0-0.3
					c0-0.1,0.1-0.1,0.1-0.2c0.1-0.1,0.2-0.1,0.3-0.2c0.1-0.1,0.3-0.1,0.5-0.2c0.2-0.1,0.4-0.1,0.6-0.2c0.2,0,0.4-0.1,0.7-0.1
					c0.4,0,0.8,0,1.1,0.1c0.3,0.1,0.5,0.2,0.7,0.4c0.2,0.2,0.3,0.4,0.4,0.7c0.1,0.3,0.2,0.6,0.2,1V184.7z M293,182h-1
					c-0.3,0-0.6,0.1-0.8,0.1c-0.2,0-0.4,0.1-0.5,0.2c-0.1,0.1-0.2,0.2-0.3,0.4c-0.1,0.1-0.1,0.3-0.1,0.5c0,0.3,0.1,0.5,0.3,0.7
					c0.2,0.2,0.5,0.3,0.8,0.3c0.3,0,0.6-0.1,0.8-0.2c0.2-0.1,0.8-0.4,0.8-0.7V182z"/>
				<path class="st25" d="M301,184.7C301,184.8,301,184.8,301,184.7c-0.1,0.1-0.1,0.1-0.1,0.1c0,0-0.1,0-0.2,0c-0.1,0-0.2,0-0.3,0
					c-0.1,0-0.2,0-0.3,0c-0.1,0-0.1,0-0.2,0c0,0,0,0,0-0.1c0,0,0-0.1,0-0.1v-3.4c0-0.3-0.1-0.6-0.1-0.8c-0.1-0.2-0.2-0.4-0.3-0.5
					c-0.1-0.1-0.2-0.3-0.4-0.3c-0.2-0.1-0.3-0.1-0.6-0.1c-0.3,0-0.5,0.1-0.8,0.3c-0.3,0.2-0.8,0.5-0.8,0.8v4.1c0,0,0,0.1,0,0.1
					c0,0,0,0-0.1,0.1c0,0-0.1,0-0.2,0c-0.1,0-0.2,0-0.3,0c-0.1,0-0.2,0-0.3,0c-0.1,0-0.1,0-0.2,0c0,0,0,0,0-0.1c0,0,0-0.1,0-0.1
					v-5.9c0,0,0-0.1,0-0.1c0,0,0,0,0.1-0.1c0,0,0.1,0,0.1,0c0.1,0,0.1,0,0.2,0c0.1,0,0.2,0,0.2,0c0.1,0,0.1,0,0.1,0
					c0,0,0.1,0,0.1,0.1c0,0,0.1,0.1,0.1,0.1v0.8c0-0.4,0.6-0.6,0.9-0.8c0.3-0.2,0.6-0.3,1-0.3c0.4,0,0.7,0.1,1,0.2
					c0.3,0.1,0.5,0.3,0.6,0.5c0.2,0.2,0.3,0.5,0.4,0.8c0.1,0.3,0.1,0.7,0.1,1.1V184.7z"/>
				<path class="st25" d="M308.4,181.7c0,0.5-0.1,0.9-0.2,1.3c-0.1,0.4-0.3,0.7-0.6,1c-0.2,0.3-0.6,0.5-0.9,0.7
					c-0.4,0.2-0.8,0.2-1.3,0.2c-0.5,0-0.9-0.1-1.3-0.2c-0.4-0.1-0.7-0.4-0.9-0.6c-0.2-0.3-0.4-0.6-0.5-1c-0.1-0.4-0.2-0.8-0.2-1.3
					c0-0.5,0.1-0.9,0.2-1.3c0.1-0.4,0.3-0.7,0.6-1c0.2-0.3,0.6-0.5,0.9-0.7c0.4-0.2,0.8-0.2,1.3-0.2c0.5,0,0.9,0.1,1.3,0.2
					c0.4,0.1,0.7,0.4,0.9,0.6c0.2,0.3,0.4,0.6,0.5,1C308.3,180.8,308.4,181.2,308.4,181.7z M307.3,181.8c0-0.3,0-0.6-0.1-0.9
					c-0.1-0.3-0.2-0.5-0.3-0.7c-0.1-0.2-0.3-0.4-0.6-0.5c-0.2-0.1-0.5-0.2-0.9-0.2c-0.3,0-0.6,0.1-0.8,0.2c-0.2,0.1-0.4,0.3-0.6,0.5
					c-0.1,0.2-0.3,0.5-0.3,0.7c-0.1,0.3-0.1,0.6-0.1,0.9c0,0.3,0,0.6,0.1,0.9c0.1,0.3,0.2,0.5,0.3,0.7c0.1,0.2,0.3,0.4,0.6,0.5
					c0.2,0.1,0.5,0.2,0.9,0.2c0.3,0,0.6-0.1,0.8-0.2c0.2-0.1,0.4-0.3,0.6-0.5c0.1-0.2,0.3-0.4,0.3-0.7
					C307.2,182.4,307.3,182.1,307.3,181.8z"/>
				<path class="st25" d="M313.7,183.1c0,0.3-0.1,0.6-0.2,0.8c-0.1,0.2-0.3,0.4-0.5,0.6c-0.2,0.2-0.4,0.3-0.7,0.4
					c-0.3,0.1-0.6,0.1-0.9,0.1c-0.2,0-0.4,0-0.6,0c-0.2,0-0.4-0.1-0.5-0.1s-0.3-0.1-0.4-0.2c-0.1-0.1-0.2-0.1-0.2-0.1
					c0,0-0.1-0.1-0.1-0.2c0-0.1,0-0.2,0-0.3c0-0.1,0-0.2,0-0.2c0-0.1,0-0.1,0-0.1c0,0,0-0.1,0.1-0.1c0,0,0.1,0,0.1,0
					c0,0,0.1,0,0.2,0.1c0.1,0.1,0.2,0.1,0.3,0.2c0.1,0.1,0.3,0.1,0.5,0.2c0.2,0.1,0.4,0.1,0.6,0.1c0.2,0,0.3,0,0.5-0.1
					c0.1,0,0.3-0.1,0.4-0.2c0.1-0.1,0.2-0.2,0.3-0.3c0.1-0.1,0.1-0.3,0.1-0.4c0-0.2,0-0.3-0.1-0.4c-0.1-0.1-0.2-0.2-0.3-0.3
					c-0.1-0.1-0.3-0.2-0.5-0.2c-0.2-0.1-0.4-0.1-0.5-0.2c-0.2-0.1-0.4-0.2-0.5-0.3c-0.2-0.1-0.3-0.2-0.5-0.3
					c-0.1-0.1-0.3-0.3-0.3-0.5c-0.1-0.2-0.1-0.4-0.1-0.7c0-0.2,0-0.5,0.1-0.7s0.2-0.4,0.4-0.6c0.2-0.2,0.4-0.3,0.7-0.4
					c0.3-0.1,0.6-0.1,0.9-0.1c0.2,0,0.3,0,0.5,0c0.2,0,0.3,0.1,0.4,0.1c0.1,0,0.2,0.1,0.3,0.1c0.1,0,0.2,0.1,0.2,0.1
					c0,0,0.1,0.1,0.1,0.1c0,0,0,0.1,0,0.1c0,0,0,0.1,0,0.1c0,0,0,0.1,0,0.2c0,0.1,0,0.1,0,0.2c0,0.1,0,0.1,0,0.1c0,0,0,0.1-0.1,0.1
					c0,0,0,0-0.1,0c0,0-0.1,0-0.2-0.1c-0.1,0-0.2-0.1-0.3-0.2s-0.3-0.1-0.4-0.2c-0.2,0-0.3-0.1-0.5-0.1c-0.2,0-0.3,0-0.5,0.1
					c-0.1,0-0.3,0.1-0.3,0.2c-0.1,0.1-0.2,0.2-0.2,0.3c0,0.1-0.1,0.2-0.1,0.3c0,0.2,0,0.3,0.1,0.4c0.1,0.1,0.2,0.2,0.3,0.3
					c0.1,0.1,0.3,0.2,0.5,0.2c0.2,0.1,0.4,0.1,0.5,0.2c0.2,0.1,0.4,0.2,0.5,0.2c0.2,0.1,0.3,0.2,0.5,0.3c0.1,0.1,0.3,0.3,0.3,0.5
					C313.6,182.7,313.7,182.9,313.7,183.1z"/>
				<path class="st25" d="M139,198.7c0,0,0.1,0.1,0.1,0.1c0,0,0,0,0,0.1c0,0,0,0-0.1,0c-0.1,0-0.1,0-0.2,0c-0.1,0-0.2,0-0.2,0
					c-0.1,0-0.1,0-0.1,0c0,0-0.2,0-0.2-0.1c0,0-0.2-0.1-0.2-0.1v-0.8c0,0.3-0.5,0.6-0.8,0.8c-0.3,0.2-0.6,0.3-1,0.3
					c-0.4,0-0.8-0.1-1.1-0.3c-0.3-0.2-0.5-0.4-0.7-0.7c-0.2-0.3-0.3-0.6-0.4-1c-0.1-0.4-0.1-0.8-0.1-1.2c0-0.5,0.1-1,0.2-1.4
					c0.1-0.4,0.3-0.8,0.5-1c0.2-0.3,0.5-0.5,0.8-0.7c0.3-0.2,0.7-0.2,1.1-0.2c0.3,0,0.6,0.1,0.8,0.2c0.3,0.2,0.7,0.4,0.7,0.7V190
					c0,0,0.1-0.1,0.1-0.1c0,0,0.1,0,0.1-0.1c0,0,0.1,0,0.2,0c0.1,0,0.2,0,0.3,0c0.1,0,0.2,0,0.3,0c0.1,0,0.1,0,0.2,0
					c0,0-0.1,0-0.1,0.1c0,0-0.1,0.1-0.1,0.1V198.7z M138,194.5c0-0.4-0.5-0.6-0.7-0.8c-0.3-0.2-0.5-0.3-0.8-0.3
					c-0.3,0-0.5,0.1-0.7,0.2c-0.2,0.1-0.3,0.3-0.5,0.5c-0.1,0.2-0.2,0.5-0.3,0.7c-0.1,0.3-0.1,0.5-0.1,0.8c0,0.3,0,0.6,0.1,0.9
					c0,0.3,0.1,0.5,0.2,0.8c0.1,0.2,0.3,0.4,0.5,0.5c0.2,0.1,0.4,0.2,0.7,0.2c0.1,0,0.3,0,0.4-0.1c0.1,0,0.3-0.1,0.4-0.2
					c0.1-0.1,0.2-0.2,0.3-0.4c0.2-0.1,0.4-0.3,0.4-0.5V194.5z"/>
				<path class="st25" d="M146,195.5c0,0.2,0.1,0.3,0,0.4c-0.1,0.1,0,0.1-0.1,0.1H142c0,0,0,0.6,0.1,0.9c0.1,0.3,0.2,0.5,0.3,0.7
					c0.2,0.2,0.4,0.3,0.6,0.4c0.2,0.1,0.5,0.1,0.9,0.1c0.3,0,0.5,0,0.7-0.1c0.2,0,0.4-0.1,0.6-0.2c0.2-0.1,0.3-0.1,0.4-0.2
					c0.1,0,0.2-0.1,0.2-0.1c0,0,0.1,0,0.1,0c0,0,0,0,0.1,0.1c0,0,0,0.1,0,0.1c0,0.1,0,0.1,0,0.2c0,0.1,0,0.1,0,0.1c0,0,0,0.1,0,0.1
					c0,0,0,0.1,0,0.1c0,0,0,0.1-0.1,0.1c0,0-0.1,0.1-0.2,0.1c-0.1,0.1-0.3,0.1-0.5,0.2c-0.2,0.1-0.4,0.1-0.6,0.1
					c-0.2,0-0.5,0.1-0.8,0.1c-0.5,0-0.9-0.1-1.3-0.2c-0.4-0.1-0.7-0.3-0.9-0.6c-0.2-0.3-0.4-0.6-0.6-1c-0.1-0.4-0.2-0.9-0.2-1.4
					c0-0.5,0.1-1,0.2-1.4c0.1-0.4,0.3-0.7,0.6-1c0.2-0.3,0.5-0.5,0.9-0.6c0.3-0.1,0.7-0.2,1.2-0.2c0.5,0,0.9,0.1,1.2,0.2
					c0.3,0.1,0.6,0.3,0.8,0.6c0.2,0.3,0.2,0.5,0.3,0.9c0.1,0.3,0,0.7,0,1.1V195.5z M145.2,195c0-1-0.1-0.9-0.4-1.2
					c-0.3-0.3-0.7-0.4-1.2-0.4c-0.3,0-0.5,0.1-0.7,0.2c-0.2,0.1-0.4,0.2-0.5,0.4c-0.1,0.2-0.2,0.3-0.3,0.5c-0.1,0.2-0.1,0.6-0.1,0.6
					H145.2z"/>
				<path class="st25" d="M152,198.7C152,198.7,152,198.7,152,198.7c0,0.1-0.1,0.1-0.1,0.1c0,0-0.1,0-0.2,0c-0.1,0-0.2,0-0.3,0
					c-0.1,0-0.2,0-0.3,0c-0.1,0-0.1,0-0.2,0c0,0,0,0-0.1-0.1c0,0,0-0.1,0-0.1V190c0,0,0-0.1,0-0.1c0,0,0,0,0.1-0.1c0,0,0.1,0,0.2,0
					c0.1,0,0.2,0,0.3,0c0.1,0,0.2,0,0.3,0c0.1,0,0.1,0,0.2,0c0,0,0.1,0,0.1,0.1c0,0,0,0.1,0,0.1V198.7z"/>
				<path class="st25" d="M159,198.7c0,0.1-0.3,0.1-0.3,0.1c0,0-0.2,0-0.3,0.1c-0.1,0-0.2,0-0.3,0c-0.1,0-0.2,0-0.3,0
					c-0.1,0,0.1,0,0.1-0.1c0,0,0.2-0.1,0.2-0.1v-0.6c-1,0.3-0.8,0.5-1.1,0.6c-0.3,0.2-0.8,0.2-1.1,0.2c-0.3,0-0.7,0-0.9-0.1
					c-0.3-0.1-0.5-0.2-0.7-0.3c-0.2-0.2-0.3-0.3-0.4-0.6c-0.1-0.2-0.2-0.5-0.2-0.8c0-0.3,0.1-0.6,0.2-0.9c0.1-0.2,0.3-0.4,0.6-0.6
					c0.3-0.2,0.6-0.4,0.9-0.5c0.4-0.1,0.8-0.2,1.2-0.2h0.5v-0.2c0-0.2,0.2-0.4,0.1-0.6c0-0.2,0-0.3-0.1-0.4
					c-0.1-0.1-0.2-0.2-0.4-0.3c-0.2-0.1-0.4-0.1-0.6-0.1c-0.3,0-0.5,0-0.7,0.1c-0.2,0.1-0.4,0.1-0.5,0.2c-0.2,0.1-0.3,0.1-0.4,0.2
					c-0.1,0.1-0.2,0.1-0.2,0.1c0,0-0.1,0-0.1,0c0,0,0,0-0.1-0.1c0,0,0-0.1,0-0.1c0-0.1,0-0.1,0-0.2c0-0.1,0-0.2,0-0.3
					c0-0.1,0.1-0.1,0.1-0.2c0.1-0.1,0.2-0.1,0.3-0.2c0.1-0.1,0.3-0.1,0.5-0.2c0.2-0.1,0.4-0.1,0.6-0.2c0.2,0,0.4-0.1,0.7-0.1
					c0.4,0,0.8,0,1.1,0.1c0.3,0.1,0.5,0.2,0.7,0.4c0.2,0.2,0.6,0.4,0.7,0.7c0.1,0.3,0.4,0.6,0.4,1V198.7z M157,196h-0.6
					c-0.3,0-0.6,0-0.8,0.1c-0.2,0-0.4,0.1-0.5,0.2c-0.1,0.1-0.2,0.2-0.3,0.4c-0.1,0.1-0.1,0.3-0.1,0.5c0,0.3,0.1,0.5,0.3,0.7
					c0.2,0.2,0.5,0.3,0.8,0.3c0.3,0,0.4-0.1,0.6-0.2c0.2-0.1,0.6-0.4,0.6-0.7V196z"/>
				<path class="st25" d="M169.2,198.7C169.2,198.7,169.2,198.7,169.2,198.7c0,0.1-0.1,0.1-0.1,0.2c0,0-0.1,0-0.2,0
					c-0.1,0-0.2,0-0.3,0c-0.1,0-0.2,0-0.3,0c-0.1,0-0.1,0-0.2,0c0,0-0.1,0-0.1-0.1c0,0,0-0.1-0.1-0.1l-0.8-2
					c-0.1-0.2-0.2-0.4-0.3-0.6c-0.1-0.2-0.2-0.4-0.3-0.5c-0.1-0.1-0.3-0.3-0.5-0.4c-0.2-0.1-0.4-0.2-0.7-0.2H165v3.7
					c0,0-0.2,0.1-0.2,0.1c0,0-0.1,0-0.2,0.1c0,0-0.1,0-0.2,0c-0.1,0-0.2,0-0.3,0c-0.1,0-0.2,0-0.3,0c-0.1,0-0.1,0-0.2,0
					c0,0,0.2,0,0.1-0.1c0,0,0.2-0.1,0.2-0.1v-7.8c0-0.2-0.2-0.5-0.1-0.6c0.1-0.1,0-0.3,0.1-0.3h1.8c0.2,0,0.4,0.2,0.5,0.2
					c0.1,0,0.3,0.1,0.4,0.1c0.3,0.1,0.6,0.2,0.9,0.3c0.2,0.1,0.5,0.3,0.6,0.5c0.2,0.2,0.3,0.4,0.4,0.7c0.1,0.2,0.1,0.5,0.1,0.8
					c0,0.3,0,0.5-0.1,0.8c-0.1,0.2-0.2,0.4-0.3,0.6c-0.1,0.2-0.3,0.3-0.5,0.4c-0.2,0.1-0.4,0.2-0.7,0.3c0.1,0.1,0.3,0.1,0.4,0.2
					s0.2,0.2,0.3,0.3c0.1,0.1,0.2,0.3,0.3,0.4c0.1,0.2,0.2,0.4,0.3,0.6l0.8,1.9c0.1,0.2,0.1,0.3,0.1,0.3
					C169.2,198.6,169.2,198.6,169.2,198.7z M167.5,192.7c0-0.3-0.1-0.6-0.2-0.8c-0.1-0.2-0.4-0.4-0.7-0.5c-0.1,0-0.2-0.2-0.4-0.2
					c-0.1,0-0.3-0.2-0.5-0.2H165v3h0.8c0.3,0,0.6,0,0.8,0c0.2-0.1,0.4-0.1,0.5-0.3c0.1-0.1,0.2-0.3,0.3-0.4
					C167.4,193.1,167.5,192.9,167.5,192.7z"/>
				<path class="st25" d="M176,195.5c0,0.2-0.3,0.3-0.4,0.4c-0.1,0.1-0.5,0.1-0.6,0.1h-3.9c0,0,0,0.6,0.1,0.9
					c0.1,0.3,0.2,0.5,0.3,0.7c0.2,0.2,0.4,0.3,0.6,0.4c0.2,0.1,0.5,0.1,0.9,0.1c0.3,0,0.5,0,0.7-0.1c0.2,0,0.4-0.1,0.6-0.2
					c0.2-0.1,0.3-0.1,0.4-0.2c0.1,0,0.2-0.1,0.2-0.1c0,0,0.1,0,0.1,0c0,0,0,0,0.1,0.1c0,0,0,0.1,0,0.1c0,0.1,0,0.1,0,0.2
					c0,0.1,0,0.1,0,0.1c0,0,0,0.1,0,0.1c0,0,0,0.1,0,0.1c0,0,0,0.1-0.1,0.1c0,0-0.1,0.1-0.2,0.1c-0.1,0.1-0.3,0.1-0.5,0.2
					c-0.2,0.1-0.4,0.1-0.6,0.1c-0.2,0-0.5,0.1-0.8,0.1c-0.5,0-0.9-0.1-1.3-0.2c-0.4-0.1-0.7-0.3-0.9-0.6c-0.2-0.3-0.4-0.6-0.6-1
					c-0.1-0.4-0.2-0.9-0.2-1.4c0-0.5,0.1-1,0.2-1.4c0.1-0.4,0.3-0.7,0.6-1c0.2-0.3,0.5-0.5,0.9-0.6c0.3-0.1,0.7-0.2,1.2-0.2
					c0.5,0,0.9,0.1,1.2,0.2c0.3,0.1,0.6,0.3,0.8,0.6c0.2,0.3,0.6,0.5,0.7,0.9c0.1,0.3,0.4,0.7,0.4,1.1V195.5z M174.4,195
					c0-1-0.1-0.9-0.4-1.2c-0.3-0.3-0.7-0.4-1.2-0.4c-0.3,0-0.5,0.1-0.7,0.2c-0.2,0.1-0.4,0.2-0.5,0.4c-0.1,0.2-0.2,0.3-0.3,0.5
					c-0.1,0.2-0.1,0.6-0.1,0.6H174.4z"/>
				<path class="st25" d="M182.5,195.7c0,0.5-0.1,1-0.2,1.4c-0.1,0.4-0.3,0.8-0.5,1c-0.2,0.3-0.5,0.5-0.8,0.7
					c-0.3,0.2-0.7,0.2-1.1,0.2c-0.2,0-0.3,0-0.5-0.1c-0.1,0-0.3-0.1-0.4-0.2c-0.1-0.1-0.4-0.2-0.5-0.3c-0.1-0.1-0.5-0.2-0.5-0.4v2.9
					c0,0,0.1,0.1,0,0.1c0,0,0,0,0,0.1c0,0-0.1,0-0.1,0c-0.1,0-0.1,0-0.3,0c-0.1,0-0.2,0-0.3,0c-0.1,0-0.1,0-0.2,0c0,0-0.1,0-0.1-0.1
					c0,0-0.1-0.1-0.1-0.1v-8.2c0,0,0-0.1,0.1-0.1c0,0,0.1,0,0.1-0.1c0,0,0.1,0,0.2,0c0.1,0,0.1,0,0.2,0c0.1,0,0.2,0,0.2,0
					c0.1,0,0.1,0,0.1,0c0,0,0.1,0,0.1,0.1c0,0,0,0.1,0,0.1v0.8c0-0.2,0.4-0.3,0.5-0.5c0.2-0.1,0.3-0.2,0.5-0.3
					c0.2-0.1,0.3-0.2,0.5-0.2c0.2,0,0.4-0.1,0.6-0.1c0.4,0,0.8,0.1,1.1,0.2c0.3,0.2,0.5,0.4,0.7,0.7c0.2,0.3,0.3,0.6,0.4,1
					C182.4,194.8,182.5,195.2,182.5,195.7z M181.4,195.8c0-0.3,0-0.6-0.1-0.9c0-0.3-0.1-0.5-0.2-0.7c-0.1-0.2-0.3-0.4-0.4-0.5
					c-0.2-0.1-0.4-0.2-0.7-0.2c-0.1,0-0.3,0-0.4,0.1c-0.1,0-0.3,0.1-0.4,0.2c-0.1,0.1-0.4,0.2-0.5,0.4c-0.2,0.1-0.6,0.3-0.6,0.5v2.3
					c1,0.4,0.7,0.6,0.9,0.8c0.3,0.2,0.6,0.3,0.9,0.3c0.3,0,0.5-0.1,0.7-0.2c0.2-0.1,0.4-0.3,0.5-0.5c0.1-0.2,0.2-0.5,0.3-0.7
					C181.3,196.3,181.4,196,181.4,195.8z"/>
				<path class="st25" d="M189,198.7C189,198.7,189,198.7,189,198.7c0,0.1,0,0.1,0,0.1c0,0-0.1,0-0.1,0c-0.1,0-0.1,0-0.2,0
					c-0.1,0-0.2,0-0.2,0c-0.1,0-0.1,0-0.1,0c0,0-0.1,0-0.1-0.1c0,0-0.1-0.1-0.1-0.1v-0.8c0,0.4-0.6,0.6-0.9,0.8
					c-0.3,0.2-0.6,0.3-1,0.3c-0.4,0-0.7-0.1-1-0.2c-0.3-0.1-0.5-0.3-0.6-0.5c-0.2-0.2-0.3-0.5-0.4-0.8c-0.1-0.3-0.1-0.7-0.1-1.1
					v-3.6c0,0,0-0.1,0-0.1c0,0,0.1,0,0.1-0.1c0,0,0.1,0,0.2,0c0.1,0,0.2,0,0.3,0s0.2,0,0.3,0c0.1,0,0.1,0,0.2,0c0,0,0,0,0,0.1
					c0,0,0,0.1,0,0.1v3.4c0,0.3,0.1,0.6,0.1,0.8c0,0.2,0.2,0.4,0.3,0.5c0.1,0.1,0.2,0.3,0.4,0.3c0.2,0.1,0.3,0.1,0.6,0.1
					c0.3,0,0.5-0.1,0.8-0.3c0.3-0.2,0.8-0.5,0.8-0.8v-4.1c0,0,0-0.1,0-0.1c0,0,0.1,0,0.1-0.1c0,0,0.1,0,0.2,0c0.1,0,0.2,0,0.3,0
					c0.1,0,0.2,0,0.3,0c0.1,0,0.1,0,0.2,0c0,0,0,0,0,0.1c0,0,0,0.1,0,0.1V198.7z M187.1,189.9c0,0,0.1-0.1,0.1-0.1
					c0,0,0.1-0.1,0.1-0.1s0.1,0,0.2,0c0.1,0,0.2,0,0.3,0c0.1,0,0.2,0,0.3,0c0.1,0,0.1,0,0.2,0.1c0,0,0,0.1,0,0.1c0,0,0,0.1-0.1,0.1
					l-1.2,1.5c0,0-0.1,0.1-0.1,0.1c0,0-0.1,0-0.1,0.1c0,0-0.1,0-0.1,0c-0.1,0-0.1,0-0.2,0c-0.1,0-0.2,0-0.2,0c-0.1,0-0.1,0-0.1-0.1
					c0,0,0,0,0-0.1c0,0,0-0.1,0.1-0.1L187.1,189.9z"/>
				<path class="st25" d="M196.5,195.7c0,0.5-0.1,1-0.2,1.4c-0.1,0.4-0.3,0.8-0.5,1c-0.2,0.3-0.5,0.5-0.8,0.7
					c-0.3,0.2-0.7,0.2-1.1,0.2c-0.2,0-0.4,0-0.5-0.1c-0.2,0-0.3-0.1-0.5-0.2c-0.2-0.1-0.3-0.2-0.5-0.3c-0.2-0.1-0.5-0.3-0.5-0.5v0.7
					c0,0,0,0.1,0,0.1c0,0,0,0-0.1,0.1c0,0-0.1,0-0.1,0c-0.1,0-0.1,0-0.2,0c-0.1,0-0.2,0-0.2,0c-0.1,0-0.1,0-0.1,0c0,0-0.1,0-0.1-0.1
					c0,0-0.1-0.1-0.1-0.1V190c0,0,0.1-0.1,0.1-0.1c0,0,0.1,0,0.1-0.1c0,0,0.1,0,0.2,0c0.1,0,0.2,0,0.3,0c0.1,0,0.2,0,0.3,0
					c0.1,0,0.1,0,0.2,0c0,0,0,0,0,0.1c0,0-0.1,0.1-0.1,0.1v3.5c0-0.2,0.4-0.3,0.6-0.4c0.2-0.1,0.4-0.2,0.5-0.3
					c0.2-0.1,0.3-0.1,0.5-0.2c0.2,0,0.3-0.1,0.5-0.1c0.4,0,0.8,0.1,1.1,0.3c0.3,0.2,0.6,0.4,0.7,0.7s0.3,0.6,0.4,1
					C196.4,194.8,196.5,195.2,196.5,195.7z M195.4,195.8c0-0.3,0-0.6-0.1-0.9c0-0.3-0.1-0.5-0.2-0.7c-0.1-0.2-0.3-0.4-0.5-0.5
					c-0.2-0.1-0.4-0.2-0.7-0.2c-0.1,0-0.3,0-0.4,0.1c-0.1,0-0.3,0.1-0.4,0.2c-0.1,0.1-0.4,0.2-0.5,0.4c-0.2,0.1-0.6,0.3-0.6,0.5v2.3
					c1,0.4,0.7,0.6,0.9,0.8c0.3,0.2,0.6,0.3,0.9,0.3c0.3,0,0.5-0.1,0.7-0.2c0.2-0.1,0.4-0.3,0.5-0.5c0.1-0.2,0.2-0.5,0.3-0.7
					S195.4,196.1,195.4,195.8z"/>
				<path class="st25" d="M199,198.7C199,198.7,199.1,198.7,199,198.7c0,0.1,0.1,0.1,0,0.1c0,0-0.1,0-0.1,0c-0.1,0-0.1,0-0.3,0
					c-0.1,0-0.2,0-0.3,0c-0.1,0-0.1,0-0.2,0c0,0-0.1,0-0.1-0.1c0,0-0.1-0.1-0.1-0.1V190c0,0,0.1-0.1,0.1-0.1c0,0,0.1,0,0.1-0.1
					c0,0,0.1,0,0.2,0c0.1,0,0.2,0,0.3,0c0.1,0,0.2,0,0.3,0c0.1,0,0.1,0,0.2,0c0,0,0,0,0,0.1c0,0-0.1,0.1-0.1,0.1V198.7z"/>
				<path class="st25" d="M202.4,190.8c0,0.3,0,0.4-0.1,0.5c-0.1,0.1-0.3,0.1-0.5,0.1c-0.3,0-0.4,0-0.5-0.1
					c-0.1-0.1-0.1-0.3-0.1-0.5c0-0.3,0-0.4,0.1-0.5c0.1-0.1,0.3-0.1,0.5-0.1c0.3,0,0.4,0,0.5,0.1
					C202.3,190.4,202.4,190.6,202.4,190.8z M202,198.7C202,198.7,202.1,198.7,202,198.7c0.1,0.1,0.1,0.1,0.1,0.1c0,0-0.1,0-0.1,0
					c-0.1,0-0.1,0-0.3,0c-0.1,0-0.2,0-0.3,0c-0.1,0-0.1,0-0.2,0c0,0-0.2,0-0.2-0.1c0,0-0.1-0.1-0.1-0.1v-5.9c0,0,0.1-0.1,0.1-0.1
					c0,0,0.1,0,0.1-0.1c0,0,0.1,0,0.2,0c0.1,0,0.2,0,0.3,0c0.1,0,0.2,0,0.3,0c0.1,0,0.1,0,0.2,0c0,0-0.1,0,0,0.1
					c0,0-0.1,0.1-0.1,0.1V198.7z"/>
				<path class="st25" d="M208.5,197.8c0,0.1,0,0.1,0,0.2c0,0.1,0,0.1,0,0.1c0,0,0,0.1,0,0.1c0,0-0.1,0.1-0.1,0.1
					c-0.1,0.1-0.1,0.1-0.3,0.2c-0.1,0.1-0.3,0.2-0.4,0.2c-0.2,0.1-0.3,0.1-0.5,0.2c-0.2,0-0.4,0.1-0.6,0.1c-0.4,0-0.8-0.1-1.1-0.2
					c-0.3-0.1-0.6-0.3-0.8-0.6c-0.2-0.3-0.4-0.6-0.5-1c-0.1-0.4-0.2-0.8-0.2-1.3c0-0.6,0.1-1.1,0.2-1.5c0.1-0.4,0.3-0.8,0.6-1
					c0.2-0.3,0.5-0.5,0.9-0.6c0.3-0.1,0.7-0.2,1.1-0.2c0.2,0,0.4,0,0.5,0.1c0.2,0,0.3,0.1,0.5,0.1c0.1,0.1,0.3,0.1,0.4,0.2
					c0.1,0.1,0.2,0.1,0.3,0.2c0.1,0.1,0.1,0.1,0.1,0.1c0,0,0,0.1,0,0.1c0,0,0,0.1,0,0.1c0,0.1,0,0.1,0,0.2c0,0.2,0,0.3-0.1,0.4
					c0,0.1-0.1,0.1-0.1,0.1c-0.1,0-0.1,0-0.2-0.1c-0.1-0.1-0.2-0.2-0.3-0.2c-0.1-0.1-0.3-0.2-0.5-0.2s-0.4-0.1-0.7-0.1
					c-0.5,0-0.9,0.2-1.2,0.6c-0.3,0.4-0.4,1-0.4,1.7c0,0.4,0,0.7,0.1,1s0.2,0.5,0.3,0.7c0.1,0.2,0.3,0.3,0.5,0.4
					c0.2,0.1,0.4,0.1,0.7,0.1c0.2,0,0.5,0,0.7-0.1c0.2-0.1,0.3-0.2,0.5-0.3c0.1-0.1,0.3-0.2,0.3-0.3c0.1-0.1,0.2-0.1,0.2-0.1
					c0,0,0.1,0,0.1,0c0,0,0,0,0.1,0.1c0,0,0,0.1,0,0.2S208.5,197.7,208.5,197.8z"/>
				<path class="st25" d="M214,198.7c0,0.1,0.1,0.1,0,0.1c0,0,0,0-0.1,0.1c-0.1,0-0.1,0-0.2,0c-0.1,0-0.2,0-0.3,0
					c-0.1,0-0.2,0-0.3-0.1c0,0-0.2-0.1-0.2-0.1v-0.6c0,0.3-0.4,0.5-0.7,0.6c-0.3,0.2-0.6,0.2-0.9,0.2c-0.3,0-0.6,0-0.8-0.1
					c-0.2-0.1-0.4-0.2-0.6-0.3c-0.2-0.2-0.3-0.3-0.4-0.6c-0.1-0.2-0.1-0.5-0.1-0.8c0-0.3,0.1-0.6,0.2-0.9c0.1-0.2,0.3-0.4,0.6-0.6
					c0.3-0.2,0.6-0.4,0.9-0.5c0.4-0.1,0.8-0.2,1.2-0.2h0.7v-0.2c0-0.2,0-0.4,0-0.6c0-0.2-0.1-0.3-0.2-0.4c-0.1-0.1-0.2-0.2-0.4-0.3
					c-0.2-0.1-0.4-0.1-0.6-0.1c-0.3,0-0.5,0-0.7,0.1c-0.2,0.1-0.4,0.1-0.6,0.2c-0.2,0.1-0.3,0.1-0.4,0.2c-0.1,0.1-0.2,0.1-0.2,0.1
					c0,0-0.1,0-0.1,0c0,0,0,0-0.1-0.1c0,0,0-0.1,0-0.1c0-0.1,0-0.1,0-0.2c0-0.1,0-0.2,0-0.3c0-0.1,0.1-0.1,0.1-0.2
					c0.1-0.1,0.2-0.1,0.3-0.2c0.1-0.1,0.3-0.1,0.5-0.2c0.2-0.1,0.4-0.1,0.6-0.2c0.2,0,0.4-0.1,0.7-0.1c0.4,0,0.8,0,1.1,0.1
					c0.3,0.1,0.5,0.2,0.7,0.4c0.2,0.2,0.2,0.4,0.3,0.7c0.1,0.3,0,0.6,0,1V198.7z M213,196h-0.8c-0.3,0-0.6,0-0.8,0.1
					c-0.2,0-0.4,0.1-0.5,0.2c-0.1,0.1-0.2,0.2-0.3,0.4c-0.1,0.1-0.1,0.3-0.1,0.5c0,0.3,0.1,0.5,0.3,0.7c0.2,0.2,0.5,0.3,0.8,0.3
					c0.3,0,0.5-0.1,0.7-0.2c0.2-0.1,0.7-0.4,0.7-0.7V196z"/>
				<path class="st25" d="M225.6,198.4c0,0.1,0.1,0.2,0.1,0.2c0,0.1,0,0.1,0,0.1c0,0-0.1,0-0.2,0.1c-0.1,0-0.2,0-0.3,0
					c-0.1,0-0.2,0-0.3,0c-0.1,0-0.1,0-0.2,0c0,0-0.1,0-0.1-0.1c0,0,0-0.4-0.1-0.4l-0.7-2.4h-3.5l-0.7,2.3c0,0,0,0.2-0.1,0.3
					c0,0-0.1,0.1-0.1,0.1c0,0-0.1,0.1-0.2,0.1c-0.1,0-0.2,0-0.3,0c-0.1,0-0.2,0-0.3,0c-0.1,0-0.1,0-0.2-0.1c0,0,0-0.1,0-0.1
					c0-0.1,0-0.1,0.1-0.2l2.8-7.8c0,0,0-0.1,0.1-0.1c0,0,0.1-0.1,0.1-0.1c0.1,0,0.1,0,0.2,0c0.1,0,0.2,0,0.3,0c0.1,0,0.3,0,0.3,0
					c0.1,0,0.2,0,0.2,0c0.1,0,0.1,0,0.1,0.1c0,0,0.1,0.1,0.1,0.1L225.6,198.4z M222,191L222,191l-1.5,4h2.9L222,191z"/>
				<path class="st25" d="M230.3,193.2c0,0.1,0,0.2,0,0.2c0,0.1,0,0.1,0,0.2c0,0,0,0.1,0,0.1c0,0,0,0-0.1,0c0,0-0.1,0-0.1,0
					c0,0-0.1,0-0.2-0.1c-0.1,0-0.1,0-0.2-0.1c-0.1,0-0.2,0-0.3,0c-0.1,0-0.2,0-0.3,0.1c-0.1,0-0.2,0.1-0.3,0.2
					c-0.1,0.1-0.2,0.2-0.4,0.4c-0.1,0.2-0.4,0.4-0.4,0.6v3.9c0,0,0,0.1,0,0.1c0,0,0,0-0.1,0.1c0,0-0.1,0-0.2,0c-0.1,0-0.2,0-0.3,0
					c-0.1,0-0.2,0-0.3,0c-0.1,0-0.1,0-0.2,0s0,0,0-0.1c0,0,0-0.1,0-0.1v-5.9c0,0,0-0.1,0-0.1c0,0,0,0,0.1-0.1c0,0,0.1,0,0.1,0
					c0.1,0,0.1,0,0.2,0c0.1,0,0.2,0,0.2,0c0.1,0,0.1,0,0.1,0c0,0,0.1,0,0.1,0.1c0,0,0.1,0.1,0.1,0.1v0.9c0-0.2,0.3-0.4,0.4-0.6
					c0.1-0.1,0.2-0.3,0.4-0.3c0.1-0.1,0.2-0.1,0.4-0.2c0.1,0,0.2,0,0.4,0c0.1,0,0.1,0,0.2,0c0.1,0,0.1,0,0.2,0c0.1,0,0.1,0,0.2,0.1
					c0.1,0,0.1,0,0.1,0.1c0,0,0,0,0.1,0.1c0,0,0,0,0,0.1c0,0,0,0.1,0,0.1C230.3,193,230.3,193.1,230.3,193.2z"/>
				<path class="st25" d="M236.3,193.1C236.3,193.2,236.3,193.1,236.3,193.1c-0.1,0.1-0.2-0.1-0.2-0.1h-0.8c0.2,0,0.3,0.6,0.3,0.8
					c0.1,0.2,0.1,0.5,0.1,0.7c0,0.3-0.1,0.7-0.2,1c-0.1,0.3-0.3,0.5-0.5,0.7c-0.2,0.2-0.4,0.3-0.7,0.4c-0.3,0.1-0.6,0.2-0.9,0.2
					c-0.2,0-0.5,0-0.7-0.1c-0.2-0.1-0.4-0.1-0.5-0.2c-0.1,0.1-0.1,0.2-0.2,0.3s-0.1,0.2-0.1,0.3c0,0.2,0.1,0.3,0.2,0.4
					c0.1,0.1,0.3,0.2,0.6,0.2l1.5,0.1c0.3,0,0.6,0,0.8,0.1c0.2,0.1,0.5,0.2,0.6,0.3c0.2,0.1,0.3,0.3,0.4,0.5
					c0.1,0.2,0.2,0.4,0.2,0.7c0,0.3-0.1,0.5-0.2,0.8c-0.1,0.2-0.3,0.5-0.5,0.6c-0.2,0.2-0.5,0.3-0.9,0.4c-0.4,0.1-0.8,0.2-1.3,0.2
					c-0.5,0-0.9,0-1.2-0.1c-0.3-0.1-0.6-0.2-0.8-0.3c-0.2-0.1-0.4-0.3-0.5-0.5c-0.1-0.2-0.1-0.4-0.1-0.6c0-0.1,0-0.3,0.1-0.4
					c0-0.1,0.1-0.3,0.2-0.4c0.1-0.1,0.2-0.2,0.3-0.3c0.1-0.1,0.2-0.2,0.4-0.3c-0.2-0.1-0.4-0.2-0.5-0.4c-0.1-0.2-0.2-0.3-0.2-0.5
					c0-0.3,0.1-0.5,0.2-0.7c0.1-0.2,0.2-0.4,0.4-0.6c-0.1-0.2-0.2-0.3-0.3-0.5c-0.1-0.2-0.1-0.4-0.1-0.7c0-0.3,0.1-0.6,0.2-0.9
					c0.1-0.3,0.3-0.5,0.5-0.7c0.2-0.2,0.4-0.3,0.7-0.4c0.3-0.1,0.6-0.1,0.9-0.1c0.2,0,0.3-0.3,0.5-0.3c0.2,0,0.3-0.2,0.4-0.2h1.8
					c0.1,0,0.1,0.4,0.2,0.4C236.3,192.5,236.3,192.9,236.3,193.1z M235.1,199.3c0-0.3-0.1-0.4-0.3-0.6c-0.2-0.1-0.5-0.2-0.8-0.2
					l-1.5-0.1c-0.1,0.1-0.3,0.2-0.3,0.3c-0.1,0.1-0.2,0.2-0.2,0.3c-0.1,0.1-0.1,0.2-0.1,0.3c0,0.1,0,0.2,0,0.3
					c0,0.3,0.1,0.5,0.4,0.6c0.3,0.1,0.7,0.2,1.2,0.2c0.3,0,0.6,0,0.8-0.1c0.2-0.1,0.4-0.1,0.5-0.3c0.1-0.1,0.2-0.2,0.3-0.4
					C235.1,199.6,235.1,199.4,235.1,199.3z M234.6,194.6c0-0.4-0.1-0.7-0.3-0.9c-0.2-0.2-0.5-0.3-0.9-0.3c-0.2,0-0.4,0-0.5,0.1
					c-0.2,0.1-0.3,0.2-0.4,0.3c-0.1,0.1-0.2,0.3-0.2,0.4c0,0.2-0.1,0.3-0.1,0.5c0,0.4,0.1,0.7,0.3,0.9c0.2,0.2,0.5,0.3,0.9,0.3
					c0.2,0,0.4,0,0.6-0.1c0.2-0.1,0.3-0.2,0.4-0.3c0.1-0.1,0.2-0.3,0.2-0.4C234.6,195,234.6,194.8,234.6,194.6z"/>
				<path class="st25" d="M243,195.5c0,0.2-0.3,0.3-0.3,0.4s-0.4,0.1-0.5,0.1h-3.9c0,0,0,0.6,0.1,0.9c0.1,0.3,0.2,0.5,0.3,0.7
					c0.2,0.2,0.4,0.3,0.6,0.4c0.2,0.1,0.5,0.1,0.9,0.1c0.3,0,0.5,0,0.7-0.1c0.2,0,0.4-0.1,0.6-0.2c0.2-0.1,0.3-0.1,0.4-0.2
					c0.1,0,0.2-0.1,0.2-0.1c0,0,0.1,0,0.1,0c0,0,0,0,0.1,0.1c0,0,0,0.1,0,0.1c0,0.1,0,0.1,0,0.2c0,0.1,0,0.1,0,0.1c0,0,0,0.1,0,0.1
					c0,0,0,0.1,0,0.1c0,0,0,0.1-0.1,0.1c0,0-0.1,0.1-0.2,0.1c-0.1,0.1-0.3,0.1-0.5,0.2c-0.2,0.1-0.4,0.1-0.6,0.1
					c-0.2,0-0.5,0.1-0.8,0.1c-0.5,0-0.9-0.1-1.3-0.2c-0.4-0.1-0.7-0.3-0.9-0.6c-0.2-0.3-0.4-0.6-0.6-1c-0.1-0.4-0.2-0.9-0.2-1.4
					c0-0.5,0.1-1,0.2-1.4c0.1-0.4,0.3-0.7,0.6-1c0.2-0.3,0.5-0.5,0.9-0.6c0.3-0.1,0.7-0.2,1.2-0.2c0.5,0,0.9,0.1,1.2,0.2
					c0.3,0.1,0.6,0.3,0.8,0.6c0.2,0.3,0.6,0.5,0.7,0.9c0.1,0.3,0.4,0.7,0.4,1.1V195.5z M241.5,195c0-1-0.1-0.9-0.4-1.2
					c-0.3-0.3-0.7-0.4-1.2-0.4c-0.3,0-0.5,0.1-0.7,0.2s-0.4,0.2-0.5,0.4c-0.1,0.2-0.2,0.3-0.3,0.5c-0.1,0.2-0.1,0.6-0.1,0.6H241.5z"
					/>
				<path class="st25" d="M249,198.7C249,198.7,249.1,198.7,249,198.7c0.1,0.1,0.1,0.1,0.1,0.1c0,0-0.1,0-0.1,0c-0.1,0-0.1,0-0.2,0
					c-0.1,0-0.2,0-0.3,0c-0.1,0-0.1,0-0.2,0c0,0-0.2,0-0.2-0.1c0,0-0.1-0.1-0.1-0.1v-3.4c0-0.3,0.1-0.6,0-0.8
					c-0.1-0.2-0.1-0.4-0.2-0.5c-0.1-0.1-0.2-0.3-0.4-0.3c-0.2-0.1-0.3-0.1-0.5-0.1c-0.3,0-0.7,0.1-0.9,0.3c-0.3,0.2,0,0.5-1,0.8v4.1
					c0,0,0.1,0.1,0.1,0.1c0,0,0,0,0,0.1c0,0-0.1,0-0.1,0c-0.1,0-0.1,0-0.3,0c-0.1,0-0.2,0-0.3,0c-0.1,0-0.1,0-0.2,0
					c0,0-0.2,0-0.2-0.1c0,0-0.1-0.1-0.1-0.1v-5.9c0,0,0.1-0.1,0.1-0.1c0,0,0.1,0,0.1-0.1c0,0,0.1,0,0.2,0c0.1,0,0.2,0,0.3,0
					c0.1,0,0.2,0,0.2,0c0.1,0,0.1,0,0.1,0c0,0,0,0,0,0.1c0,0-0.1,0.1-0.1,0.1v0.8c1-0.4,0.7-0.6,1.1-0.8c0.3-0.2,0.7-0.3,1-0.3
					c0.4,0,0.7,0.1,1,0.2c0.3,0.1,0.5,0.3,0.7,0.5c0.2,0.2,0.2,0.5,0.2,0.8c0.1,0.3,0,0.7,0,1.1V198.7z"/>
				<path class="st25" d="M256.2,192c0.1,0,0.5,0.3,0.5,0.4c0,0.1,0.3,0.5,0.3,0.6v5.7c0,0-0.2,0.1-0.3,0.1c0,0-0.2,0-0.2,0.1
					s-0.2,0-0.2,0c-0.1,0-0.2,0-0.3,0c-0.1,0-0.2,0-0.3,0c-0.1,0-0.1,0-0.2,0c0,0,0.2,0,0.2-0.1c0,0,0.2-0.1,0.2-0.1V193h-3v3.8
					c0,0.4-0.2,0.7-0.1,0.9c0.1,0.2,0.2,0.3,0.5,0.3c0.1,0,0.1,0,0.2,0c0.1,0,0.1,0,0.2-0.1c0.1,0,0.1,0,0.1-0.1c0,0,0.1,0,0.1,0
					c0,0,0,0,0.1,0c0,0,0,0,0,0.1c0,0,0,0.1,0,0.1c0,0.1,0,0.1,0,0.2c0,0.1,0,0.2,0,0.3c0,0.1,0,0.1-0.1,0.2c0,0-0.1,0.1-0.2,0.1
					c-0.1,0-0.1,0.1-0.2,0.1c-0.1,0-0.2,0-0.3,0c-0.1,0-0.2,0-0.3,0c-0.3,0-0.6,0-0.8-0.1c-0.2-0.1-0.4-0.2-0.5-0.4
					c-0.1-0.2-0.4-0.4-0.5-0.6c-0.1-0.3-0.3-0.5-0.3-0.9v-4h-0.5c-0.1,0-0.1,0.2-0.2,0.2c0-0.1-0.1,0-0.1-0.2c0-0.1,0-0.1,0-0.1
					c0-0.1,0-0.1,0-0.1c0,0,0-0.4,0.1-0.4c0,0,0.1-0.3,0.1-0.3h0.5v-0.8c0,0,0.2-0.1,0.2-0.1c0,0,0.1,0,0.2-0.1c0,0,0.1,0,0.2,0
					c0.1,0,0.2,0,0.3,0c0.1,0,0.2,0,0.3,0c0.1,0,0.1,0,0.2,0c0,0,0.4,0,0.4,0.1c0,0,0.3,0.1,0.3,0.1v0.8H256.2z M256.7,190.8
					c0,0.3,0,0.4-0.1,0.5c-0.1,0.1-0.3,0.1-0.5,0.1c-0.3,0-0.4,0-0.5-0.1c-0.1-0.1-0.1-0.3-0.1-0.5c0-0.3,0-0.4,0.1-0.5
					c0.1-0.1,0.3-0.1,0.5-0.1c0.3,0,0.4,0,0.5,0.1C256.6,190.4,256.7,190.6,256.7,190.8z"/>
				<path class="st25" d="M264,198.7c0,0-0.2,0.1-0.2,0.1c0,0-0.2,0-0.2,0.1c0,0-0.1,0-0.2,0c-0.1,0-0.2,0-0.3,0c-0.1,0-0.2,0-0.3,0
					c-0.1,0-0.1,0-0.2,0c0,0,0.2,0,0.2-0.1c0,0,0.2-0.1,0.2-0.1v-3.4c0-0.3-0.3-0.6-0.3-0.8c-0.1-0.2-0.3-0.4-0.4-0.5
					c-0.1-0.1-0.3-0.3-0.5-0.3c-0.2-0.1-0.4-0.1-0.6-0.1c-0.3,0-0.4,0.1-0.6,0.3c-0.3,0.2-0.7,0.5-0.7,0.8v4.1c0,0-0.2,0.1-0.2,0.1
					c0,0-0.1,0-0.2,0.1c0,0-0.1,0-0.2,0c-0.1,0-0.2,0-0.3,0c-0.1,0-0.2,0-0.3,0c-0.1,0-0.1,0-0.2,0c0,0,0.2,0,0.2-0.1
					c0,0,0.2-0.1,0.2-0.1v-5.9c0,0-0.2-0.1-0.2-0.1c0,0-0.1,0,0-0.1c0,0,0,0,0.1,0c0.1,0,0.1,0,0.2,0c0.1,0,0.2,0,0.2,0
					c0.1,0,0.1,0,0.1,0c0,0,0.3,0,0.3,0.1c0,0,0.3,0.1,0.3,0.1v0.8c0-0.4,0.4-0.6,0.7-0.8c0.3-0.2,0.5-0.3,0.9-0.3
					c0.4,0,0.7,0.1,0.9,0.2c0.3,0.1,0.5,0.3,0.6,0.5c0.2,0.2,0.5,0.5,0.6,0.8c0.1,0.3,0.3,0.7,0.3,1.1V198.7z"/>
				<path class="st25" d="M270,198.7c0,0.1,0,0.1-0.1,0.1c0,0-0.1,0-0.2,0.1c-0.1,0-0.2,0-0.3,0c-0.1,0-0.2,0-0.3,0
					c-0.1,0-0.1,0-0.2-0.1c0,0-0.1-0.1-0.1-0.1v-0.6c0,0.3-0.5,0.5-0.8,0.6c-0.3,0.2-0.6,0.2-1,0.2c-0.3,0-0.6,0-0.8-0.1
					c-0.2-0.1-0.5-0.2-0.6-0.3c-0.2-0.2-0.3-0.3-0.4-0.6c-0.1-0.2-0.1-0.5-0.1-0.8c0-0.3,0.1-0.6,0.2-0.9c0.1-0.2,0.3-0.4,0.6-0.6
					c0.3-0.2,0.6-0.4,0.9-0.5c0.4-0.1,0.8-0.2,1.2-0.2h0.9v-0.2c0-0.2-0.1-0.4-0.1-0.6c0-0.2-0.2-0.3-0.3-0.4
					c-0.1-0.1-0.3-0.2-0.4-0.3c-0.2-0.1-0.4-0.1-0.6-0.1c-0.3,0-0.5,0-0.7,0.1c-0.2,0.1-0.4,0.1-0.6,0.2c-0.2,0.1-0.3,0.1-0.4,0.2
					c-0.1,0.1-0.2,0.1-0.2,0.1c0,0-0.1,0-0.1,0c0,0,0,0-0.1-0.1c0,0,0-0.1,0-0.1c0-0.1,0-0.1,0-0.2c0-0.1,0-0.2,0-0.3
					c0-0.1,0.1-0.1,0.1-0.2c0.1-0.1,0.2-0.1,0.3-0.2c0.1-0.1,0.3-0.1,0.5-0.2c0.2-0.1,0.4-0.1,0.6-0.2c0.2,0,0.4-0.1,0.7-0.1
					c0.4,0,0.8,0,1.1,0.1c0.3,0.1,0.5,0.2,0.7,0.4c0.2,0.2,0.3,0.4,0.4,0.7c0.1,0.3,0.1,0.6,0.1,1V198.7z M269,196h-1
					c-0.3,0-0.6,0-0.8,0.1c-0.2,0-0.4,0.1-0.5,0.2c-0.1,0.1-0.2,0.2-0.3,0.4c-0.1,0.1-0.1,0.3-0.1,0.5c0,0.3,0.1,0.5,0.3,0.7
					c0.2,0.2,0.5,0.3,0.8,0.3c0.3,0,0.6-0.1,0.8-0.2c0.2-0.1,0.8-0.4,0.8-0.7V196z"/>
			</g>
		</g>
	</g>
</g>
</svg>
