<?xml version="1.0" encoding="utf-8"?>
<!-- Generator: Adobe Illustrator 19.1.0, SVG Export Plug-In . SVG Version: 6.00 Build 0)  -->
<svg version="1.1" id="Layer_1" xmlns="http://www.w3.org/2000/svg" xmlns:xlink="http://www.w3.org/1999/xlink" x="0px" y="0px"
	 viewBox="0 0 450 300" style="enable-background:new 0 0 450 300;" xml:space="preserve">
<style type="text/css">
	.st0{fill:#4D4D4D;}
	.st1{fill:#FCBD10;}
	.st2{fill:#F38034;}
	.st3{fill:#B4406B;}
	.st4{fill:#658DC8;}
	.st5{opacity:0.5;}
	.st6{fill:none;}
	.st7{fill:#FFFFFF;}
	.st8{fill:#4D7092;}
	.st9{fill:#B66228;}
	.st10{fill:#C3902C;}
	.st11{fill:#7D3057;}
	.st12{fill:#333333;}
	.st13{fill:#E74E37;}
	.st14{opacity:0.8;}
	.st15{fill:#7C2C24;}
	.st16{fill:#FFE666;}
	.st17{opacity:0.4;}
	.st18{fill:#80D1EA;}
	.st19{fill:#231F20;}
	.st20{fill:#EC1C24;}
	.st21{fill:#DE271E;}
	.st22{fill:#E1AA1F;}
	.st23{fill:#C28214;}
	.st24{fill:none;stroke:#12100B;stroke-width:1.5;stroke-miterlimit:10;}
	.st25{fill:#BBE020;}
	.st26{fill:#52561B;}
	.st27{fill:#804000;}
	.st28{fill:#575756;}
	.st29{fill:#58BEEC;}
	.st30{fill:#3DAEF4;}
	.st31{fill:#FFB300;}
	.st32{fill:#FFFF00;}
	.st33{fill:#FF4D3B;}
	.st34{fill:#C757FF;}
	.st35{fill:url(#SVGID_1_);}
	.st36{opacity:0.8;fill:url(#SVGID_2_);}
	.st37{fill:url(#SVGID_3_);}
	.st38{fill:#7CFF1D;}
	.st39{opacity:0.9;fill:url(#SVGID_4_);}
	.st40{fill:#33BFFF;}
	.st41{fill:url(#SVGID_5_);}
	.st42{fill:#9D2DA0;}
	.st43{fill:#631D66;}
	.st44{fill:#E4AEED;}
</style>
<g>
	<g>
		<path class="st27" d="M216.9,159c-1.3,1.1-2.6,2.3-3.9,3.4c-2.8,2-5.7,3.5-8.9,4.7c-3.2,1.1-6.5,1.7-9.8,1.7
			c-2.8,0-5.5-0.4-8.1-1.3c-3.5-1.2-6.4-3.1-8.8-5.7c-2.3-2.6-3.8-5.7-4.4-9.3c-0.3-1.9-0.4-3.6-0.4-5.2c0-7,2-13.7,5.9-20.1
			c4-6.4,9.1-10.9,15.3-13.7c2.7-1.1,5.4-1.7,8.1-1.7c1.5,0,2.8,0.1,4,0.4c1.2,0.3,2.3,0.8,3.5,1.6c1.9,1.2,3.4,2.8,4.4,4.9
			c1,2.1,1.5,4.3,1.5,6.6c0,3.1-0.8,6-2.3,8.9c-1.2,2.2-3,4.1-5.3,5.7c-2.3,1.6-4.7,2.3-7.1,2.3c-1.9,0-3.6-0.5-5.2-1.5
			c-0.8-0.5-1.3-1.1-1.7-1.9c-0.3-0.8-0.5-1.7-0.5-2.7c0-1.1,0.2-2.1,0.6-3.2c0.4-1,0.9-1.8,1.5-2.3c0.3,0.6,0.7,1.3,1.2,2.1
			c0.5,0.7,1,1.1,1.7,1.1c2.1,0.2,4-1,5.7-3.6c1.7-2.6,2.5-5.4,2.5-8.3c0-1.5-0.3-2.7-0.8-3.6c-0.5-1-1.2-1.5-2-1.7
			c-0.8-0.2-1.4-0.3-1.7-0.3c-1.2,0-2.5,0.4-3.8,1.2c-1.1,0.6-2.1,1.5-3.1,2.6c-2.8,3.2-5.1,6.8-6.9,10.9c-1.9,4.5-2.9,8.9-2.9,13.1
			c0,2.1,0.3,4,0.8,5.9c0.5,1.9,1.3,3.6,2.4,5.3c1.5,2.2,3.3,3.9,5.4,5.1c2.1,1.2,4.3,1.7,6.6,1.7c0,0,9.7,0.7,17.6-12.3"/>
		<g>
			<path class="st27" d="M268.1,196.5c0,4.5-2.2,6.8-6.5,6.8c-1.5,0-2.9-0.3-4-0.9v-2c1.4,0.8,2.7,1.2,4,1.2c3,0,4.6-1.6,4.6-4.9
				v-1.4h-0.1c-0.9,1.6-2.4,2.4-4.2,2.4c-1.5,0-2.8-0.5-3.7-1.6c-0.9-1.1-1.4-2.6-1.4-4.4c0-2.1,0.5-3.8,1.5-5
				c1-1.2,2.4-1.9,4.1-1.9c1.7,0,2.9,0.7,3.7,2h0.1v-1.7h2V196.5z M266.1,191.9v-1.8c0-1-0.3-1.8-1-2.5c-0.7-0.7-1.5-1-2.5-1
				c-1.2,0-2.2,0.4-2.9,1.3c-0.7,0.9-1,2.1-1,3.7c0,1.4,0.3,2.5,1,3.3c0.7,0.8,1.5,1.2,2.6,1.2c1.1,0,2-0.4,2.7-1.2
				C265.8,194.2,266.1,193.2,266.1,191.9z"/>
			<path class="st27" d="M278.6,187.2c-0.4-0.3-0.9-0.4-1.5-0.4c-0.8,0-1.5,0.4-2.1,1.2c-0.6,0.8-0.8,1.9-0.8,3.3v6.3h-2v-12.4h2
				v2.5h0c0.3-0.9,0.7-1.5,1.3-2c0.6-0.5,1.2-0.7,1.9-0.7c0.5,0,0.9,0.1,1.2,0.2V187.2z"/>
			<path class="st27" d="M285.9,197.8c-1.8,0-3.3-0.6-4.4-1.7c-1.1-1.2-1.6-2.7-1.6-4.6c0-2.1,0.6-3.7,1.7-4.9
				c1.1-1.2,2.7-1.8,4.6-1.8c1.8,0,3.3,0.6,4.3,1.7c1,1.1,1.6,2.7,1.6,4.7c0,2-0.6,3.6-1.7,4.7C289.2,197.2,287.7,197.8,285.9,197.8
				z M286,186.5c-1.3,0-2.3,0.4-3,1.3c-0.7,0.9-1.1,2.1-1.1,3.6c0,1.5,0.4,2.6,1.1,3.5c0.7,0.8,1.8,1.3,3,1.3c1.3,0,2.3-0.4,3-1.2
				c0.7-0.8,1-2,1-3.5c0-1.5-0.3-2.7-1-3.6C288.3,186.9,287.3,186.5,286,186.5z"/>
			<path class="st27" d="M310.8,185.2l-3.7,12.4h-2l-2.5-8.8c-0.1-0.3-0.2-0.7-0.2-1.1h0c0,0.3-0.1,0.7-0.3,1.1l-2.8,8.9h-2
				l-3.7-12.4h2.1l2.6,9.3c0.1,0.3,0.1,0.7,0.2,1.1h0.1c0-0.4,0.1-0.7,0.2-1.1l2.8-9.3h1.8l2.6,9.3c0.1,0.3,0.1,0.7,0.2,1.1h0.1
				c0-0.3,0.1-0.7,0.2-1.1l2.5-9.3H310.8z"/>
			<path class="st27" d="M319.1,197.1v-2.1c1.1,0.8,2.3,1.2,3.6,1.2c1.7,0,2.6-0.6,2.6-1.7c0-0.3-0.1-0.6-0.2-0.8
				c-0.1-0.2-0.4-0.4-0.6-0.6c-0.3-0.2-0.6-0.3-0.9-0.5c-0.3-0.1-0.7-0.3-1.1-0.4c-0.5-0.2-1-0.4-1.4-0.7c-0.4-0.2-0.8-0.5-1-0.8
				c-0.3-0.3-0.5-0.6-0.6-0.9c-0.1-0.4-0.2-0.8-0.2-1.2c0-0.6,0.1-1.1,0.4-1.5c0.3-0.4,0.6-0.8,1.1-1.1c0.4-0.3,1-0.5,1.5-0.7
				c0.6-0.2,1.2-0.2,1.8-0.2c1.1,0,2,0.2,2.9,0.6v2c-0.9-0.6-2-0.9-3.1-0.9c-0.4,0-0.7,0-1,0.1c-0.3,0.1-0.6,0.2-0.8,0.4
				c-0.2,0.2-0.4,0.3-0.5,0.6c-0.1,0.2-0.2,0.4-0.2,0.7c0,0.3,0.1,0.6,0.2,0.8c0.1,0.2,0.3,0.4,0.5,0.6c0.2,0.2,0.5,0.3,0.8,0.5
				c0.3,0.1,0.7,0.3,1.1,0.4c0.5,0.2,1,0.4,1.5,0.6c0.4,0.2,0.8,0.5,1.1,0.7c0.3,0.3,0.5,0.6,0.7,1c0.2,0.4,0.2,0.8,0.2,1.3
				c0,0.6-0.1,1.1-0.4,1.6c-0.3,0.5-0.6,0.8-1.1,1.1c-0.4,0.3-1,0.5-1.6,0.7c-0.6,0.1-1.2,0.2-1.8,0.2
				C321.1,197.8,320,197.6,319.1,197.1z"/>
			<path class="st27" d="M340.6,197.5h-2v-7.1c0-2.6-1-3.9-2.9-3.9c-1,0-1.8,0.4-2.4,1.1c-0.7,0.7-1,1.7-1,2.9v7h-2v-18.3h2v8h0.1
				c0.9-1.6,2.3-2.3,4.1-2.3c2.8,0,4.2,1.7,4.2,5V197.5z"/>
			<path class="st27" d="M349.5,197.8c-1.8,0-3.3-0.6-4.4-1.7c-1.1-1.2-1.6-2.7-1.6-4.6c0-2.1,0.6-3.7,1.7-4.9
				c1.1-1.2,2.7-1.8,4.6-1.8c1.8,0,3.3,0.6,4.3,1.7c1,1.1,1.5,2.7,1.5,4.7c0,2-0.6,3.6-1.7,4.7C352.8,197.2,351.3,197.8,349.5,197.8
				z M349.6,186.5c-1.3,0-2.3,0.4-3,1.3c-0.7,0.9-1.1,2.1-1.1,3.6c0,1.5,0.4,2.6,1.1,3.5c0.7,0.8,1.8,1.3,3,1.3
				c1.3,0,2.3-0.4,2.9-1.2c0.7-0.8,1-2,1-3.5c0-1.5-0.3-2.7-1-3.6C351.9,186.9,350.9,186.5,349.6,186.5z"/>
			<path class="st27" d="M360.8,195.7L360.8,195.7l0,7.5h-2v-18h2v2.2h0c1-1.6,2.4-2.5,4.3-2.5c1.6,0,2.8,0.6,3.7,1.7
				c0.9,1.1,1.3,2.6,1.3,4.4c0,2.1-0.5,3.7-1.5,5c-1,1.2-2.4,1.9-4.1,1.9C362.9,197.8,361.7,197.1,360.8,195.7z M360.7,190.7v1.7
				c0,1,0.3,1.9,1,2.6c0.7,0.7,1.5,1.1,2.5,1.1c1.2,0,2.1-0.5,2.8-1.4c0.7-0.9,1-2.2,1-3.8c0-1.4-0.3-2.4-0.9-3.2
				c-0.6-0.8-1.5-1.2-2.6-1.2c-1.2,0-2.1,0.4-2.8,1.2C361.1,188.5,360.7,189.5,360.7,190.7z"/>
		</g>
		<path class="st27" d="M121.6,150c0,0-4.2,5-7,7.2c-1.3,1-2.8,1.6-4.2,2c-1.4,0.4-2.7,0.6-4,0.6c-1,0-2.1-0.1-3.2-0.4
			c-1.1-0.3-2.8-0.8-5.1-1.7c-2.2-0.9-3.7-1.4-4.5-1.7c-1.7-0.5-3.3-0.8-4.6-0.8c2.4-2.9,4.1-5.9,5.2-8.8c0.8-2.1,1.5-4.5,1.9-7.2
			c0.3-1.7,0.7-4.6,1.2-8.7c0.5-4.1,1.1-7.1,1.9-9.1c1.3-3.5,3.2-5.3,5.6-5.3c0.3,0,0.7,0.1,1.4,0.2c1.3,0.3,2.3,1,2.9,2.1
			c0.6,1.1,0.9,2.4,0.9,4c0,1.4-0.2,2.7-0.6,3.9c-0.4,1.3-0.8,2.4-1.4,3.3c-0.6,0.9-1.1,1.6-1.6,1.9c-0.5,0.3-1.1,0.5-1.9,0.5
			c-0.6,0-1.2-0.1-1.9-0.4c-0.7-0.2-1.3-0.5-2-0.8c-0.1,0.5-0.1,1.1-0.2,1.6c-0.1,0.5-0.1,1-0.1,1.5c0,1.3,0.2,2.4,0.6,3.4
			c0.4,0.9,1.1,1.7,2.1,2.3c1,0.6,2,0.9,3.2,0.9c1.6,0,3.2-0.4,4.6-1.3c2.4-1.3,4.4-3.3,5.8-5.9c1.4-2.6,2.1-5.4,2.1-8.3
			c0-2.1-0.4-4.1-1.3-6.1c-0.9-1.9-2.2-3.5-3.8-4.8c-1.2-0.9-2.4-1.5-3.6-1.9c-1.2-0.4-2.5-0.6-3.9-0.6c-4.1,0-8.2,1.8-12.2,5.3
			c-3.7,3.2-6.3,7.1-7.8,11.5c-1.5,4.4-2.3,9.2-2.3,14.4c0,2.3-0.2,4.5-0.7,6.7c-0.5,2.2-1.3,4.3-2.6,6.2c-2.5,0.4-4.7,1.2-6.6,2.2
			c-2.4,1.3-3.9,2.9-4.4,4.9c-0.2,0.6-0.2,1.2-0.2,1.7c0,1,0.3,1.8,0.8,2.5c0.5,0.7,1.2,1.2,2,1.4c0.8,0.2,1.5,0.3,1.9,0.3
			c1.6,0,3.3-0.6,5.1-1.9c1.3-0.9,2.6-2.2,4-3.7c2.8,1,5.3,2,7.5,3c3.7,1.7,7.1,2.5,10.4,2.5c3.4,0,6.7-0.9,10-2.7
			c2.9-1.5,5.9-3.9,9.1-7.1L121.6,150z"/>
		<path class="st27" d="M156.9,160.5c-1.9,1.2-3.5,1.8-4.7,1.8c-0.7,0-1.2-0.2-1.6-0.6c-0.4-0.4-0.6-1.2-0.6-2.2
			c0-1.5,0.4-3.2,1.1-5.2l4.4-12.4h-1.6c-0.4,0-0.9,0-1.5,0.1c-0.6,0.1-1,0.1-1.3,0.2l-6.6,2.8c-1.6-2.1-3.8-3.2-6.7-3.2
			c-4.5,0-8.9,1.7-13.3,5.2c-4.4,3.5-6.6,7.4-6.6,11.9c0,2.1,0.5,3.9,1.6,5.5c1.1,1.6,2.5,2.8,4.4,3.5c0.7,0.3,1.2,0.4,1.6,0.5
			c0.4,0.1,1.1,0.1,2,0.1c2.3,0,4.6-0.7,7-2.1c2-1.2,3.9-2.8,5.5-4.8c0.2,1.3,0.5,2.5,1.1,3.6c0.6,1,1.4,1.9,2.6,2.5
			c1.2,0.6,2.3,0.9,3.5,0.9c1.7,0,3.5-0.5,5.3-1.5c0.3-0.2,2.9-2.1,7.9-5.7V158C158.3,159.5,157.1,160.3,156.9,160.5z M139.5,154.9
			c-0.9,1.9-2,3.4-3.2,4.6c-1.4,1.4-2.9,2.1-4.4,2.1c-0.8,0-1.5-0.3-2-0.8c-0.5-0.6-0.8-1.4-0.8-2.5c0-2.5,1-5.2,3-8
			c2-2.9,4.1-4.3,6.4-4.3c0.9,0,1.5,0.4,1.9,1.1c0.4,0.7,0.6,1.6,0.6,2.6C140.9,151.1,140.4,152.9,139.5,154.9z"/>
		<path class="st27" d="M220.6,146.8c-1.6,1.4-2.9,3.1-3.9,5.1c-1,2-1.5,3.9-1.5,5.9c0,2.5,0.9,4.7,2.6,6.8c1.2,1.4,2.5,2.4,4,3
			c1.5,0.6,3.1,0.9,4.9,0.9c4.9,0,9-1.9,12.3-5.8c1.7,0.9,3.4,1.3,5.1,1.3c2.3,0,4.7-0.8,7.3-2.4v-3.6c-1.3,0.9-2.4,1.5-3.4,1.9
			c-0.9,0.4-1.9,0.6-2.9,0.6c-1.4,0-2.7-0.4-4-1.2c0.9-1.8,1.6-3.5,2.1-5c0.7-2.2,1.1-4.1,1.1-5.8c0-1.5-0.3-2.7-0.9-3.8
			c-0.6-1.1-1.6-1.8-2.9-2.3c-1.3-0.5-2.8-0.7-4.6-0.7C225.7,141.5,220.6,146.8,220.6,146.8z M233.5,161.8c-0.6,0.5-1.2,0.8-1.7,0.9
			c-0.5,0.1-1,0.2-1.5,0.2c-1.5,0-2.5-0.9-3.2-2.6c-0.4-1.2-0.6-2.7-0.6-4.7c0.2-2.7,1.1-5.1,2.5-7.2c1.5-2.1,3.5-3.1,5.9-3.1
			c-1.1,1-2,2.1-2.5,3.2c-0.5,1.1-0.8,2.3-0.8,3.6c0,2.8,1.2,5.4,3.6,7.9C234.7,160.7,234.1,161.3,233.5,161.8z"/>
		<path class="st27" d="M271.7,161c-2.2,1-4.2,1.5-5.9,1.5c-0.4,0-0.9,0-1.5-0.2c-1.5-0.3-2.4-1.4-2.8-3.4c-0.2-0.8-0.2-2.3-0.2-4.8
			c4.3-3.8,7.4-7.1,9.3-10c2.6-4,4-8.3,4-12.9c0-1.6-0.3-2.9-1-4c-0.7-1.1-1.6-1.7-2.9-1.7c-0.4,0-0.9,0.1-1.5,0.2l-8.9,2.5
			l-0.4,0.6c-1.9,3-3.6,6.4-5.3,10.3c-2.2,5.1-3.5,9.6-4.1,13.6c-0.1,0.4-0.1,1-0.2,1.8c-0.1,0.8-0.1,1.4-0.1,2
			c0,2.4,0.4,4.5,1.2,6.3c0.8,1.8,2,3.2,3.7,4.2c1.7,1,3.5,1.5,5.6,1.5c2.6,0,5.5-0.8,8.8-2.4c2.3-1.1,4.8-2.7,7.7-4.7V158
			C274.7,159.4,273,160.4,271.7,161z M264.7,138.9c0.9-2.5,1.7-4.5,2.5-5.9c0.8-1.5,1.4-2.3,2-2.6c0.3-0.1,0.5,0.1,0.6,0.6
			c0.2,0.5,0.2,1.2,0.2,2.1c0,2.5-0.8,5.2-2.5,7.9c-1.1,1.8-2.9,4-5.3,6.5C262.8,144.7,263.7,141.8,264.7,138.9z"/>
		<path class="st27" d="M296.5,161.5c-0.4,0.2-1.9,1.3-4.6,3.3c-3.4,2.5-6.2,3.7-8.4,3.7c-1.1,0-2.1-0.2-3-0.6
			c-1.5-0.6-2.6-1.7-3.3-3c-0.7-1.4-1.1-3-1.1-4.9c0-0.5,0-1.1,0.1-1.8c0.1-0.7,0.1-1.2,0.2-1.6c0.4-2,1-4.2,1.8-6.6
			c0.5-1.7,1.3-3.8,2.4-6.4l12-1.9l-2.1,5.7c-0.9,2.1-1.7,4.3-2.4,6.6c-0.7,2.3-1,4-1,5.1c0,0.9,0.2,1.5,0.6,1.7
			c0.4,0.2,0.9,0.3,1.4,0.3c0.8,0,1.7-0.2,2.7-0.6c1-0.4,2.5-1.3,4.7-2.7V161.5z"/>
		<path class="st27" d="M333.8,161.5c-3.7,2.7-6,4.3-6.7,4.7c-2.8,1.7-5.4,2.5-7.7,2.5c-1.3,0-2.6-0.3-3.8-0.9
			c-1.2-0.6-2.2-1.4-2.8-2.3c-0.6-0.9-0.9-2-0.9-3.2c0-1.7,0.6-3.8,1.7-6.4c1.6-3.8,2.5-5.8,2.6-6.1c-0.1-0.2-0.1-0.5-0.1-0.7
			c-0.8,0.3-1.3,0.6-1.5,0.7c-1.5,1-3,2.1-4.5,3.3c-1.1,1-2.5,2.3-4,3.9c-0.3,1.9-0.5,3.9-0.5,5.7c0,1.5,0.1,2.9,0.2,4.4l-9.8,1.5
			c-0.8-3-1.1-5.9-1.1-8.7c0-1.7,0.2-3.4,0.5-5.1c0.3-1.7,0.9-3.7,1.8-5.8c0.6-1.5,1.4-3.4,2.5-5.7l11.2-1.9c-0.7,1.7-1.2,3-1.5,3.9
			c-0.6,1.5-1.1,2.8-1.5,4c2.7-2.5,5.4-4.4,8.1-5.7c2.2-1.1,4.1-1.6,5.8-1.6c1,0,2,0.2,3,0.6c1,0.4,1.8,1,2.2,1.8
			c0.5,0.8,0.7,1.8,0.7,2.9c0,1.6-0.5,3.6-1.4,6c-1.1,2.7-2.1,5.4-3.2,8.1c0,0.4,0.1,0.6,0.4,0.7c0.3,0.1,0.5,0.1,0.8,0.1
			c1.3,0,3.3-0.8,6.1-2.4c1.2-0.8,2.3-1.4,3.2-1.9V161.5z"/>
		<path class="st27" d="M367.9,160.5c-1.9,1.2-3.5,1.8-4.7,1.8c-0.7,0-1.2-0.2-1.6-0.6c-0.4-0.4-0.6-1.2-0.6-2.2
			c0-1.5,0.4-3.2,1.1-5.2l4.4-12.4h-1.6c-0.4,0-0.9,0-1.5,0.1c-0.6,0.1-1,0.1-1.3,0.2l-6.6,2.8c-1.6-2.1-3.8-3.2-6.7-3.2
			c-4.5,0-8.9,1.7-13.3,5.2c-4.4,3.5-6.6,7.4-6.6,11.9c0,2.1,0.5,3.9,1.6,5.5c1,1.6,2.5,2.8,4.4,3.5c0.7,0.3,1.2,0.4,1.6,0.5
			c0.4,0.1,1.1,0.1,2,0.1c2.3,0,4.6-0.7,7-2.1c2-1.2,3.9-2.8,5.5-4.8c0.2,1.3,0.5,2.5,1.1,3.6c0.6,1,1.4,1.9,2.6,2.5
			c1.2,0.6,2.3,0.9,3.5,0.9c1.7,0,3.4-0.5,5.3-1.5c0.3-0.2,2.9-2.1,7.9-5.7V158C369.3,159.5,368.1,160.3,367.9,160.5z M350.5,154.9
			c-0.9,1.9-2,3.4-3.2,4.6c-1.4,1.4-2.9,2.1-4.4,2.1c-0.8,0-1.5-0.3-2-0.8c-0.5-0.6-0.8-1.4-0.8-2.5c0-2.5,1-5.2,3-8
			c2-2.9,4.1-4.3,6.4-4.3c0.9,0,1.5,0.4,1.9,1.1c0.4,0.7,0.6,1.6,0.6,2.6C351.9,151.1,351.4,152.9,350.5,154.9z"/>
		<path class="st27" d="M298.2,129.8c0-3.2-2.6-5.8-5.7-5.8c-3.2,0-5.8,2.6-5.8,5.8c0,3.2,2.6,5.8,5.8,5.8
			C295.7,135.6,298.2,133,298.2,129.8z"/>
	</g>
</g>
</svg>
