<?xml version="1.0" encoding="utf-8"?>
<!-- Generator: Adobe Illustrator 19.1.0, SVG Export Plug-In . SVG Version: 6.00 Build 0)  -->
<svg version="1.1" id="Layer_1" xmlns="http://www.w3.org/2000/svg" xmlns:xlink="http://www.w3.org/1999/xlink" x="0px" y="0px"
	 viewBox="0 0 450 300" style="enable-background:new 0 0 450 300;" xml:space="preserve">
<style type="text/css">
	.st0{fill:#4D4D4D;}
	.st1{fill:#FCBD10;}
	.st2{fill:#F38034;}
	.st3{fill:#B4406B;}
	.st4{fill:#658DC8;}
	.st5{opacity:0.5;}
	.st6{fill:none;}
	.st7{fill:#FFFFFF;}
	.st8{fill:#4D7092;}
	.st9{fill:#B66228;}
	.st10{fill:#C3902C;}
	.st11{fill:#7D3057;}
	.st12{fill:#333333;}
	.st13{fill:#E74E37;}
	.st14{opacity:0.8;}
	.st15{fill:#7C2C24;}
	.st16{fill:#FFE666;}
	.st17{opacity:0.4;}
	.st18{fill:#80D1EA;}
	.st19{fill:#231F20;}
	.st20{fill:#EC1C24;}
	.st21{fill:#DE271E;}
	.st22{fill:#E1AA1F;}
	.st23{fill:#C28214;}
	.st24{fill:none;stroke:#12100B;stroke-width:1.5;stroke-miterlimit:10;}
	.st25{fill:#BBE020;}
	.st26{fill:#52561B;}
	.st27{fill:#804000;}
	.st28{fill:#575756;}
	.st29{fill:#58BEEC;}
	.st30{fill:#3DAEF4;}
	.st31{fill:#FFB300;}
	.st32{fill:#FFFF00;}
	.st33{fill:#FF4D3B;}
	.st34{fill:#C757FF;}
	.st35{fill:url(#SVGID_1_);}
	.st36{opacity:0.8;fill:url(#SVGID_2_);}
	.st37{fill:url(#SVGID_3_);}
	.st38{fill:#7CFF1D;}
	.st39{opacity:0.9;fill:url(#SVGID_4_);}
	.st40{fill:#33BFFF;}
	.st41{fill:url(#SVGID_5_);}
	.st42{fill:#9D2DA0;}
	.st43{fill:#631D66;}
	.st44{fill:#E4AEED;}
</style>
<g>
	<g>
		<path class="st28" d="M101.2,182.9c-1.1,1.8-2.5,3.3-4.3,4.5c-1.8,1.2-3.9,2.1-6.1,2.7c-2.3,0.6-4.7,0.9-7.2,0.9
			c-5.7,0-11.3-1.6-17-4.8l3.3-6.7c2.9,1.3,5.5,2.3,7.7,2.9c2.2,0.7,4.4,1,6.7,1c1.2,0,2.4-0.2,3.5-0.5c1.2-0.3,2.2-0.8,3.1-1.3
			c0.9-0.6,1.7-1.3,2.2-2.2c0.5-0.9,0.8-1.8,0.8-2.9c0-1.3-0.7-2.4-2-3.1c-1.3-0.7-3-1.3-5-1.8c-2-0.5-4.2-1-6.5-1.5
			c-2.3-0.5-4.5-1.2-6.5-2.2c-2-1-3.7-2.2-5-3.8c-1.3-1.6-2-3.7-2-6.4c0-1.9,0.5-3.6,1.5-5.2c1-1.6,2.3-3.1,4-4.3
			c1.7-1.2,3.6-2.2,5.8-2.9c2.2-0.7,4.5-1.1,7-1.1c2.5,0,5.1,0.3,7.9,1c2.8,0.6,5.3,1.7,7.5,3.2l-3.8,6.7c-2-1.3-4-2.2-6-2.6
			c-2-0.4-4-0.6-6-0.6c-1.2,0-2.3,0.1-3.4,0.4c-1.1,0.3-2.1,0.7-2.9,1.2c-0.8,0.5-1.5,1.2-2,1.8c-0.5,0.7-0.8,1.4-0.8,2.2
			c0,1.5,0.7,2.6,2,3.3c1.3,0.7,3,1.3,5,1.8c2,0.5,4.2,1,6.5,1.5c2.3,0.5,4.5,1.2,6.5,2.2c2,0.9,3.7,2.2,5,3.8c1.3,1.6,2,3.8,2,6.6
			C102.8,179.1,102.3,181.1,101.2,182.9z"/>
		<path class="st28" d="M150.4,177.1c-1.2,2.8-2.8,5.3-4.9,7.4c-2.1,2.1-4.6,3.8-7.5,4.9c-2.9,1.2-6,1.8-9.3,1.8
			c-3.3,0-6.4-0.6-9.3-1.8c-2.9-1.2-5.4-2.8-7.5-4.9c-2.1-2.1-3.8-4.6-5-7.4c-1.2-2.8-1.8-5.9-1.8-9.3c0-3.3,0.6-6.4,1.8-9.3
			c1.2-2.9,2.9-5.4,5-7.5c2.1-2.1,4.6-3.8,7.5-4.9c2.9-1.2,6-1.8,9.3-1.8c3.3,0,6.4,0.6,9.3,1.8c2.9,1.2,5.4,2.8,7.5,4.9
			c2.1,2.1,3.7,4.6,4.9,7.5c1.2,2.9,1.8,6,1.8,9.3C152.2,171.2,151.6,174.3,150.4,177.1z M142.2,161.5c-0.8-1.9-1.8-3.6-3.1-5.1
			c-1.3-1.4-2.9-2.5-4.6-3.4c-1.8-0.8-3.7-1.2-5.7-1.2c-2.1,0-4,0.4-5.8,1.2c-1.8,0.8-3.4,1.9-4.7,3.4c-1.3,1.4-2.4,3.1-3.1,5.1
			c-0.8,1.9-1.2,4-1.2,6.3c0,2.3,0.4,4.4,1.2,6.3c0.8,1.9,1.8,3.6,3.1,5c1.3,1.4,2.9,2.5,4.7,3.3c1.8,0.8,3.7,1.2,5.8,1.2
			c2.1,0,4-0.4,5.7-1.2c1.8-0.8,3.3-1.9,4.6-3.3c1.3-1.4,2.4-3.1,3.1-5c0.8-1.9,1.2-4,1.2-6.3C143.4,165.6,143,163.5,142.2,161.5z"
			/>
		<path class="st28" d="M184.9,190.1v-25.5c0-4.1-0.9-7.2-2.8-9.5c-1.9-2.2-4.4-3.3-7.4-3.3c-2.6,0-4.8,0.2-6.7,0.7
			c-1.9,0.5-3.5,1.1-4.8,1.8v35.8h-8.6v-46.4l6.6,3.4v-0.2c4.1-1.8,8.9-2.7,14.3-2.7c5.4,0,9.8,1.6,13.1,4.6
			c3.3,3.1,4.9,7.8,4.9,14.1v27.1H184.9z"/>
		<path class="st28" d="M241.5,177.1c-1.2,2.8-2.8,5.3-4.9,7.4c-2.1,2.1-4.6,3.8-7.5,4.9c-2.9,1.2-6,1.8-9.3,1.8
			c-3.3,0-6.4-0.6-9.3-1.8c-2.9-1.2-5.4-2.8-7.5-4.9c-2.1-2.1-3.8-4.6-5-7.4c-1.2-2.8-1.8-5.9-1.8-9.3c0-3.3,0.6-6.4,1.8-9.3
			c1.2-2.9,2.9-5.4,5-7.5c2.1-2.1,4.6-3.8,7.5-4.9c2.9-1.2,6-1.8,9.3-1.8c3.3,0,6.4,0.6,9.3,1.8c2.9,1.2,5.4,2.8,7.5,4.9
			c2.1,2.1,3.7,4.6,4.9,7.5c1.2,2.9,1.8,6,1.8,9.3C243.3,171.2,242.7,174.3,241.5,177.1z M233.3,161.5c-0.8-1.9-1.8-3.6-3.1-5.1
			c-1.3-1.4-2.9-2.5-4.6-3.4c-1.8-0.8-3.7-1.2-5.7-1.2c-2.1,0-4,0.4-5.8,1.2c-1.8,0.8-3.4,1.9-4.7,3.4c-1.3,1.4-2.4,3.1-3.1,5.1
			c-0.8,1.9-1.2,4-1.2,6.3c0,2.3,0.4,4.4,1.2,6.3c0.8,1.9,1.8,3.6,3.1,5c1.3,1.4,2.9,2.5,4.7,3.3c1.8,0.8,3.7,1.2,5.8,1.2
			c2.1,0,4-0.4,5.7-1.2c1.8-0.8,3.3-1.9,4.6-3.3c1.3-1.4,2.4-3.1,3.1-5c0.8-1.9,1.2-4,1.2-6.3C234.4,165.6,234.1,163.5,233.3,161.5z
			"/>
		<path class="st28" d="M271.6,154.5c-2-1.7-4.3-2.6-6.7-2.6c-1.7,0-3.4,0.4-5.2,1.2c-1.8,0.8-3.3,2.4-4.6,4.8v32.1h-8.5v-45.9
			l6.1,3.8h0.3c1.4-1.2,3.2-2.2,5.4-3.1c2.2-0.9,4.5-1.3,6.9-1.3c2.4,0,4.5,0.3,6.2,0.8c1.7,0.5,3.2,1.3,4.5,2.4L271.6,154.5z"/>
		<path class="st28" d="M315.2,177.1c-1.2,2.8-2.8,5.3-4.9,7.4c-2.1,2.1-4.6,3.8-7.5,4.9c-2.9,1.2-6,1.8-9.3,1.8
			c-3.3,0-6.4-0.6-9.3-1.8c-2.9-1.2-5.4-2.8-7.5-4.9c-2.1-2.1-3.8-4.6-5-7.4c-1.2-2.8-1.8-5.9-1.8-9.3c0-3.3,0.6-6.4,1.8-9.3
			c1.2-2.9,2.9-5.4,5-7.5c2.1-2.1,4.6-3.8,7.5-4.9c2.9-1.2,6-1.8,9.3-1.8c3.3,0,6.4,0.6,9.3,1.8c2.9,1.2,5.4,2.8,7.5,4.9
			c2.1,2.1,3.7,4.6,4.9,7.5c1.2,2.9,1.8,6,1.8,9.3C317,171.2,316.4,174.3,315.2,177.1z M307,161.5c-0.8-1.9-1.8-3.6-3.1-5.1
			c-1.3-1.4-2.9-2.5-4.6-3.4c-1.8-0.8-3.7-1.2-5.7-1.2c-2.1,0-4,0.4-5.8,1.2c-1.8,0.8-3.4,1.9-4.7,3.4c-1.3,1.4-2.4,3.1-3.1,5.1
			c-0.8,1.9-1.2,4-1.2,6.3c0,2.3,0.4,4.4,1.2,6.3c0.8,1.9,1.8,3.6,3.1,5c1.3,1.4,2.9,2.5,4.7,3.3c1.8,0.8,3.7,1.2,5.8,1.2
			c2.1,0,4-0.4,5.7-1.2c1.8-0.8,3.3-1.9,4.6-3.3c1.3-1.4,2.4-3.1,3.1-5c0.8-1.9,1.2-4,1.2-6.3C308.2,165.6,307.8,163.5,307,161.5z"
			/>
	</g>
	<g>
		<path class="st28" d="M401.2,155.5c0-19.9-16.1-36-36-36c-19.9,0-36,16.1-36,36s16.1,36,36,36
			C385.1,191.5,401.2,175.4,401.2,155.5z"/>
		<g>
			<g>
				<rect x="351.9" y="129.4" class="st7" width="2.1" height="42.7"/>
				<rect x="351.9" y="170" class="st7" width="17.9" height="2.1"/>
			</g>
			<polygon class="st7" points="374.8,139.5 373.4,138 335.5,175.9 336,176.6 336.7,177.5 			"/>
			<rect x="373.4" y="138" class="st7" width="2.1" height="45.2"/>
			<rect x="353.6" y="159.6" class="st7" width="20.8" height="2.1"/>
			<g>
				<polygon class="st7" points="375.4,138 374,139.4 389.6,155.1 391.1,153.6 				"/>
				<polygon class="st7" points="389.6,155.1 388.2,153.7 374,167.6 375.4,169.1 				"/>
				
					<rect x="381.5" y="149.6" transform="matrix(0.7063 -0.7079 0.7079 0.7063 -1.3832 317.9496)" class="st7" width="2" height="22.1"/>
				<polygon class="st7" points="389.6,169.2 388.2,167.8 374,181.7 375.4,183.2 				"/>
			</g>
		</g>
	</g>
	<g>
		<path class="st28" d="M75.7,133.3c0,0.1,0,0.1,0,0.2c0,0.1,0,0.1,0,0.1c0,0,0,0.1-0.1,0.1c0,0-0.1,0-0.1,0h-4.2
			c-0.1,0-0.2,0-0.3-0.1c-0.1-0.1-0.1-0.2-0.1-0.4v-9c0,0,0-0.1,0-0.1c0,0,0,0,0.1-0.1c0,0,0.1,0,0.1,0c0.1,0,0.1,0,0.2,0
			c0.1,0,0.2,0,0.2,0c0.1,0,0.1,0,0.1,0c0,0,0.1,0,0.1,0.1c0,0,0,0.1,0,0.1v8.6h3.7c0,0,0.1,0,0.1,0c0,0,0.1,0,0.1,0.1
			c0,0,0,0.1,0,0.1C75.6,133.2,75.7,133.2,75.7,133.3z"/>
		<path class="st28" d="M99.2,133.4c0,0.1,0,0.1,0,0.2c0,0.1,0,0.1,0,0.1c0,0-0.1,0-0.1,0.1c-0.1,0-0.2,0-0.3,0c-0.1,0-0.2,0-0.3,0
			c-0.1,0-0.1,0-0.1,0c0,0-0.1,0-0.1-0.1c0,0,0-0.1,0-0.1l-0.9-2.6h-4.2l-0.9,2.5c0,0,0,0.1,0,0.1c0,0-0.1,0-0.1,0.1
			c0,0-0.1,0-0.1,0c-0.1,0-0.1,0-0.2,0c-0.1,0-0.2,0-0.3,0c-0.1,0-0.1,0-0.2-0.1c0,0,0-0.1-0.1-0.1c0,0,0-0.1,0-0.2l3.4-9.1
			c0,0,0-0.1,0.1-0.1c0,0,0.1-0.1,0.1-0.1c0,0,0.1,0,0.2,0c0.1,0,0.1,0,0.2,0c0.1,0,0.2,0,0.2,0c0.1,0,0.1,0,0.2,0
			c0,0,0.1,0,0.1,0.1c0,0,0.1,0.1,0.1,0.1L99.2,133.4z M95.2,125.1L95.2,125.1l-1.8,5.2h3.7L95.2,125.1z"/>
		<path class="st28" d="M122.1,131c0,0.3,0,0.5-0.1,0.8c-0.1,0.2-0.2,0.5-0.3,0.7c-0.1,0.2-0.3,0.4-0.5,0.5
			c-0.2,0.2-0.4,0.3-0.6,0.4c-0.2,0.1-0.5,0.2-0.7,0.2c-0.3,0.1-0.6,0.1-0.9,0.1h-2.5c-0.1,0-0.2,0-0.3-0.1
			c-0.1-0.1-0.1-0.2-0.1-0.4v-8.7c0-0.2,0-0.3,0.1-0.4c0.1-0.1,0.2-0.1,0.3-0.1h2.1c0.6,0,1,0.1,1.4,0.2c0.3,0.1,0.6,0.3,0.9,0.5
			c0.2,0.2,0.4,0.5,0.5,0.8c0.1,0.3,0.2,0.6,0.2,1c0,0.2,0,0.4-0.1,0.7c0,0.2-0.1,0.4-0.2,0.6c-0.1,0.2-0.2,0.3-0.4,0.5
			c-0.2,0.1-0.3,0.3-0.6,0.4c0.3,0.1,0.5,0.1,0.7,0.3c0.2,0.1,0.4,0.3,0.6,0.5c0.2,0.2,0.3,0.4,0.4,0.7
			C122.1,130.4,122.1,130.7,122.1,131z M120.5,126.6c0-0.3,0-0.5-0.1-0.7c-0.1-0.2-0.2-0.4-0.3-0.5c-0.2-0.1-0.3-0.3-0.6-0.3
			c-0.2-0.1-0.6-0.1-1-0.1H117v3.4h1.6c0.4,0,0.7-0.1,0.9-0.1c0.2-0.1,0.4-0.2,0.5-0.4c0.1-0.2,0.2-0.4,0.3-0.6
			C120.5,127.1,120.5,126.8,120.5,126.6z M121.2,131.1c0-0.3-0.1-0.6-0.2-0.8c-0.1-0.2-0.2-0.4-0.4-0.6c-0.2-0.2-0.4-0.3-0.7-0.4
			c-0.3-0.1-0.6-0.1-1.1-0.1H117v3.7h2.1c0.3,0,0.6,0,0.8-0.1c0.2-0.1,0.4-0.2,0.6-0.3c0.2-0.2,0.3-0.3,0.4-0.6
			C121.1,131.7,121.2,131.4,121.2,131.1z"/>
		<path class="st28" d="M147.2,128.8c0,0.8-0.1,1.5-0.3,2.1c-0.2,0.6-0.4,1.2-0.8,1.6c-0.3,0.4-0.8,0.8-1.3,1
			c-0.5,0.2-1.2,0.4-1.9,0.4c-0.7,0-1.3-0.1-1.8-0.3c-0.5-0.2-0.9-0.5-1.3-1c-0.3-0.4-0.6-0.9-0.7-1.5c-0.2-0.6-0.2-1.3-0.2-2
			c0-0.7,0.1-1.4,0.3-2c0.2-0.6,0.4-1.1,0.8-1.6c0.4-0.4,0.8-0.8,1.3-1c0.5-0.2,1.2-0.4,1.9-0.4c0.7,0,1.3,0.1,1.8,0.3
			c0.5,0.2,0.9,0.5,1.3,1c0.3,0.4,0.6,0.9,0.7,1.5C147.1,127.4,147.2,128.1,147.2,128.8z M146.2,128.9c0-0.6-0.1-1.1-0.2-1.6
			c-0.1-0.5-0.3-0.9-0.5-1.3c-0.3-0.4-0.6-0.7-1-0.9c-0.4-0.2-0.9-0.3-1.5-0.3c-0.6,0-1.1,0.1-1.5,0.3c-0.4,0.2-0.7,0.5-1,0.9
			c-0.3,0.4-0.4,0.8-0.6,1.3c-0.1,0.5-0.2,1-0.2,1.6c0,0.6,0.1,1.1,0.2,1.6c0.1,0.5,0.3,0.9,0.5,1.3c0.2,0.4,0.6,0.7,1,0.9
			c0.4,0.2,0.9,0.3,1.5,0.3c0.6,0,1.1-0.1,1.5-0.3c0.4-0.2,0.7-0.5,1-0.9c0.3-0.4,0.4-0.8,0.5-1.3
			C146.1,130,146.2,129.4,146.2,128.9z"/>
		<path class="st28" d="M170.6,133.6C170.6,133.6,170.6,133.6,170.6,133.6c0,0.1-0.1,0.1-0.1,0.1c0,0-0.1,0-0.1,0
			c-0.1,0-0.1,0-0.2,0c-0.1,0-0.2,0-0.2,0c-0.1,0-0.1,0-0.1,0c0,0-0.1,0-0.1-0.1c0,0,0-0.1-0.1-0.1l-0.9-2.3
			c-0.1-0.3-0.2-0.5-0.3-0.7c-0.1-0.2-0.3-0.4-0.4-0.6c-0.2-0.2-0.4-0.3-0.6-0.4c-0.2-0.1-0.5-0.1-0.9-0.1h-1v4.3c0,0,0,0.1,0,0.1
			c0,0,0,0-0.1,0.1c0,0-0.1,0-0.1,0c-0.1,0-0.1,0-0.2,0c-0.1,0-0.2,0-0.2,0c-0.1,0-0.1,0-0.1,0c0,0-0.1,0-0.1-0.1c0,0,0-0.1,0-0.1
			v-9c0-0.2,0-0.3,0.1-0.4c0.1-0.1,0.2-0.1,0.3-0.1h1.8c0.2,0,0.4,0,0.6,0c0.2,0,0.3,0,0.4,0.1c0.4,0.1,0.7,0.2,1,0.3
			c0.3,0.1,0.5,0.3,0.7,0.5c0.2,0.2,0.3,0.4,0.4,0.7c0.1,0.3,0.1,0.6,0.1,0.9c0,0.3,0,0.6-0.1,0.8c-0.1,0.3-0.2,0.5-0.4,0.7
			c-0.2,0.2-0.4,0.4-0.6,0.5c-0.2,0.1-0.5,0.3-0.7,0.3c0.2,0.1,0.3,0.2,0.4,0.3c0.1,0.1,0.3,0.2,0.4,0.4c0.1,0.2,0.2,0.3,0.3,0.5
			c0.1,0.2,0.2,0.4,0.3,0.7l0.9,2.2c0.1,0.2,0.1,0.3,0.1,0.4C170.6,133.5,170.6,133.5,170.6,133.6z M169,126.7c0-0.4-0.1-0.8-0.3-1
			c-0.2-0.3-0.5-0.5-0.9-0.6c-0.1,0-0.3-0.1-0.5-0.1c-0.2,0-0.4,0-0.7,0h-1.2v3.5h1.4c0.4,0,0.7,0,1-0.1c0.3-0.1,0.5-0.2,0.7-0.4
			c0.2-0.2,0.3-0.3,0.4-0.6C168.9,127.2,169,127,169,126.7z"/>
		<path class="st28" d="M194.6,133.4c0,0.1,0,0.1,0,0.2c0,0.1,0,0.1-0.1,0.1c0,0-0.1,0-0.1,0.1c-0.1,0-0.2,0-0.3,0
			c-0.1,0-0.2,0-0.2,0c-0.1,0-0.1,0-0.1,0c0,0-0.1,0-0.1-0.1c0,0,0-0.1,0-0.1l-0.9-2.6h-4.2l-0.9,2.5c0,0,0,0.1,0,0.1
			c0,0,0,0-0.1,0.1c0,0-0.1,0-0.1,0c-0.1,0-0.1,0-0.2,0c-0.1,0-0.2,0-0.3,0c-0.1,0-0.1,0-0.2-0.1c0,0,0-0.1-0.1-0.1c0,0,0-0.1,0-0.2
			l3.4-9.1c0,0,0-0.1,0.1-0.1c0,0,0.1-0.1,0.1-0.1c0,0,0.1,0,0.2,0c0.1,0,0.1,0,0.2,0c0.1,0,0.2,0,0.2,0c0.1,0,0.1,0,0.2,0
			c0,0,0.1,0,0.1,0.1c0,0,0,0.1,0.1,0.1L194.6,133.4z M190.7,125.1L190.7,125.1l-1.8,5.2h3.7L190.7,125.1z"/>
		<path class="st28" d="M216.2,124.5c0,0.1,0,0.1,0,0.2c0,0,0,0.1,0,0.1c0,0,0,0.1-0.1,0.1c0,0-0.1,0-0.1,0h-2.9v8.6
			c0,0,0,0.1,0,0.1c0,0,0,0-0.1,0.1c0,0-0.1,0-0.1,0c-0.1,0-0.1,0-0.2,0c-0.1,0-0.2,0-0.2,0c-0.1,0-0.1,0-0.1,0c0,0-0.1,0-0.1-0.1
			c0,0,0-0.1,0-0.1v-8.6h-2.9c0,0-0.1,0-0.1,0s0,0-0.1-0.1c0,0,0-0.1,0-0.1c0-0.1,0-0.1,0-0.2c0-0.1,0-0.1,0-0.2c0-0.1,0-0.1,0-0.1
			c0,0,0-0.1,0.1-0.1c0,0,0.1,0,0.1,0h6.6c0,0,0.1,0,0.1,0c0,0,0.1,0,0.1,0.1c0,0,0,0.1,0,0.1C216.2,124.4,216.2,124.5,216.2,124.5z
			"/>
		<path class="st28" d="M240.2,128.8c0,0.8-0.1,1.5-0.3,2.1c-0.2,0.6-0.4,1.2-0.8,1.6c-0.4,0.4-0.8,0.8-1.3,1
			c-0.5,0.2-1.2,0.4-1.9,0.4c-0.7,0-1.3-0.1-1.8-0.3c-0.5-0.2-0.9-0.5-1.3-1c-0.3-0.4-0.6-0.9-0.7-1.5c-0.2-0.6-0.2-1.3-0.2-2
			c0-0.7,0.1-1.4,0.3-2c0.2-0.6,0.4-1.1,0.8-1.6c0.4-0.4,0.8-0.8,1.3-1c0.5-0.2,1.2-0.4,1.9-0.4c0.7,0,1.3,0.1,1.8,0.3
			c0.5,0.2,0.9,0.5,1.3,1c0.3,0.4,0.6,0.9,0.7,1.5C240.1,127.4,240.2,128.1,240.2,128.8z M239.2,128.9c0-0.6,0-1.1-0.2-1.6
			c-0.1-0.5-0.3-0.9-0.5-1.3c-0.2-0.4-0.6-0.7-1-0.9c-0.4-0.2-0.9-0.3-1.5-0.3c-0.6,0-1.1,0.1-1.5,0.3c-0.4,0.2-0.7,0.5-1,0.9
			c-0.3,0.4-0.4,0.8-0.6,1.3c-0.1,0.5-0.2,1-0.2,1.6c0,0.6,0.1,1.1,0.2,1.6c0.1,0.5,0.3,0.9,0.5,1.3c0.2,0.4,0.6,0.7,1,0.9
			c0.4,0.2,0.9,0.3,1.5,0.3c0.6,0,1.1-0.1,1.5-0.3c0.4-0.2,0.7-0.5,1-0.9c0.3-0.4,0.4-0.8,0.5-1.3
			C239.2,130,239.2,129.4,239.2,128.9z"/>
		<path class="st28" d="M263.6,133.6C263.6,133.6,263.6,133.6,263.6,133.6c0,0.1-0.1,0.1-0.1,0.1c0,0-0.1,0-0.1,0
			c-0.1,0-0.1,0-0.2,0c-0.1,0-0.2,0-0.2,0c-0.1,0-0.1,0-0.1,0c0,0-0.1,0-0.1-0.1c0,0-0.1-0.1-0.1-0.1l-0.9-2.3
			c-0.1-0.3-0.2-0.5-0.3-0.7c-0.1-0.2-0.3-0.4-0.4-0.6c-0.2-0.2-0.4-0.3-0.6-0.4c-0.2-0.1-0.5-0.1-0.9-0.1h-1v4.3c0,0,0,0.1,0,0.1
			c0,0,0,0-0.1,0.1c0,0-0.1,0-0.1,0c-0.1,0-0.1,0-0.2,0c-0.1,0-0.2,0-0.2,0c-0.1,0-0.1,0-0.1,0c0,0-0.1,0-0.1-0.1c0,0,0-0.1,0-0.1
			v-9c0-0.2,0-0.3,0.1-0.4c0.1-0.1,0.2-0.1,0.3-0.1h1.8c0.2,0,0.4,0,0.6,0c0.2,0,0.3,0,0.4,0.1c0.4,0.1,0.7,0.2,1,0.3
			c0.3,0.1,0.5,0.3,0.7,0.5c0.2,0.2,0.3,0.4,0.4,0.7c0.1,0.3,0.1,0.6,0.1,0.9c0,0.3,0,0.6-0.1,0.8c-0.1,0.3-0.2,0.5-0.4,0.7
			c-0.2,0.2-0.4,0.4-0.6,0.5c-0.2,0.1-0.5,0.3-0.8,0.3c0.2,0.1,0.3,0.2,0.4,0.3c0.1,0.1,0.3,0.2,0.4,0.4c0.1,0.2,0.2,0.3,0.3,0.5
			c0.1,0.2,0.2,0.4,0.3,0.7l0.9,2.2c0.1,0.2,0.1,0.3,0.1,0.4C263.6,133.5,263.6,133.5,263.6,133.6z M262,126.7c0-0.4-0.1-0.8-0.3-1
			c-0.2-0.3-0.5-0.5-0.9-0.6c-0.1,0-0.3-0.1-0.5-0.1c-0.2,0-0.4,0-0.7,0h-1.2v3.5h1.4c0.4,0,0.7,0,1-0.1c0.3-0.1,0.5-0.2,0.7-0.4
			c0.2-0.2,0.3-0.3,0.4-0.6C261.9,127.2,262,127,262,126.7z"/>
		<path class="st28" d="M281.7,133.6C281.7,133.6,281.7,133.6,281.7,133.6c0,0.1-0.1,0.1-0.1,0.1c0,0-0.1,0-0.1,0
			c-0.1,0-0.1,0-0.2,0c-0.1,0-0.2,0-0.2,0c-0.1,0-0.1,0-0.1,0c0,0-0.1,0-0.1-0.1c0,0,0-0.1,0-0.1v-9.3c0,0,0-0.1,0-0.1
			c0,0,0,0,0.1-0.1c0,0,0.1,0,0.1,0c0.1,0,0.1,0,0.2,0c0.1,0,0.2,0,0.2,0c0.1,0,0.1,0,0.1,0c0,0,0.1,0,0.1,0.1c0,0,0,0.1,0,0.1
			V133.6z"/>
		<path class="st28" d="M307.5,128.8c0,0.8-0.1,1.5-0.3,2.1c-0.2,0.6-0.4,1.2-0.8,1.6c-0.3,0.4-0.8,0.8-1.3,1
			c-0.5,0.2-1.2,0.4-1.9,0.4c-0.7,0-1.3-0.1-1.8-0.3c-0.5-0.2-0.9-0.5-1.3-1c-0.3-0.4-0.6-0.9-0.7-1.5c-0.2-0.6-0.2-1.3-0.2-2
			c0-0.7,0.1-1.4,0.3-2c0.2-0.6,0.4-1.1,0.8-1.6c0.4-0.4,0.8-0.8,1.3-1c0.5-0.2,1.2-0.4,1.9-0.4c0.7,0,1.3,0.1,1.8,0.3
			c0.5,0.2,0.9,0.5,1.3,1c0.3,0.4,0.6,0.9,0.7,1.5C307.4,127.4,307.5,128.1,307.5,128.8z M306.5,128.9c0-0.6-0.1-1.1-0.2-1.6
			c-0.1-0.5-0.3-0.9-0.5-1.3c-0.2-0.4-0.6-0.7-1-0.9c-0.4-0.2-0.9-0.3-1.5-0.3c-0.6,0-1.1,0.1-1.5,0.3c-0.4,0.2-0.7,0.5-1,0.9
			c-0.3,0.4-0.4,0.8-0.5,1.3c-0.1,0.5-0.2,1-0.2,1.6c0,0.6,0,1.1,0.2,1.6c0.1,0.5,0.3,0.9,0.5,1.3c0.2,0.4,0.6,0.7,1,0.9
			c0.4,0.2,0.9,0.3,1.5,0.3c0.6,0,1.1-0.1,1.5-0.3c0.4-0.2,0.7-0.5,1-0.9c0.3-0.4,0.4-0.8,0.5-1.3
			C306.4,130,306.5,129.4,306.5,128.9z"/>
	</g>
</g>
</svg>
