<?xml version="1.0" encoding="utf-8"?>
<!-- Generator: Adobe Illustrator 19.1.0, SVG Export Plug-In . SVG Version: 6.00 Build 0)  -->
<svg version="1.1" id="Layer_1" xmlns="http://www.w3.org/2000/svg" xmlns:xlink="http://www.w3.org/1999/xlink" x="0px" y="0px"
	 viewBox="0 0 450 300" style="enable-background:new 0 0 450 300;" xml:space="preserve">
<style type="text/css">
	.st0{fill:#4D4D4D;}
	.st1{fill:#FCBD10;}
	.st2{fill:#F38034;}
	.st3{fill:#B4406B;}
	.st4{fill:#658DC8;}
	.st5{opacity:0.5;}
	.st6{fill:none;}
	.st7{fill:#FFFFFF;}
	.st8{fill:#4D7092;}
	.st9{fill:#B66228;}
	.st10{fill:#C3902C;}
	.st11{fill:#7D3057;}
	.st12{fill:#333333;}
	.st13{fill:#E74E37;}
	.st14{opacity:0.8;}
	.st15{fill:#7C2C24;}
	.st16{fill:#FFE666;}
	.st17{opacity:0.4;}
	.st18{fill:#80D1EA;}
	.st19{fill:#231F20;}
	.st20{fill:#EC1C24;}
	.st21{fill:#DE271E;}
	.st22{fill:#E1AA1F;}
	.st23{fill:#C28214;}
	.st24{fill:none;stroke:#12100B;stroke-width:1.5;stroke-miterlimit:10;}
	.st25{fill:#BBE020;}
	.st26{fill:#52561B;}
	.st27{fill:#804000;}
	.st28{fill:#575756;}
	.st29{fill:#58BEEC;}
	.st30{fill:#3DAEF4;}
	.st31{fill:#FFB300;}
	.st32{fill:#FFFF00;}
	.st33{fill:#FF4D3B;}
	.st34{fill:#C757FF;}
	.st35{fill:url(#SVGID_1_);}
	.st36{opacity:0.8;fill:url(#SVGID_2_);}
	.st37{fill:url(#SVGID_3_);}
	.st38{fill:#7CFF1D;}
	.st39{opacity:0.9;fill:url(#SVGID_4_);}
	.st40{fill:#33BFFF;}
	.st41{fill:url(#SVGID_5_);}
	.st42{fill:#9D2DA0;}
	.st43{fill:#631D66;}
	.st44{fill:#E4AEED;}
</style>
<g>
	<g>
		<path class="st0" d="M383.7,146.5c-1.5,2.2-4.3,3.1-8.3,3.1c-4,0-6.8-1-8.3-3.1c-3.4-5-1.3-10-1.2-10.2c-0.2,0.6-3,5,0.5,10.7
			c1.5,2.5,4.7,3.5,9,3.5c4.3,0,7.5-1,9-3.5c3.5-5.8,0.7-10.2,0.5-10.7C385,136.5,387,141.5,383.7,146.5z"/>
		<circle class="st0" cx="380.5" cy="140.4" r="1.7"/>
		<circle class="st0" cx="370.1" cy="140.4" r="1.7"/>
		<path class="st0" d="M391.3,146.3l4.2-0.7l-0.3-1.7l1.7-0.3l-1.8-11.9l-1.7,0.3l-0.3-1.7l-2.1-0.2c-2.9-5-8.7-9-15.7-9h0
			c-7,0-12.9,4-15.7,9l-2.1-0.1l-0.3,1.8l-1.7-0.2l-1.8,11.9l1.7,0.3l-0.3,1.7l4.2,0.7l0.3-1.8c0.1,0.9,0.2,3.3-0.3,4.5l0,0
			c-0.1,0.4-3.6,10.1-2.8,18.1l0,0.1c0.1,0.3,1.4,7.1,4.6,13.5c-0.2,0.6-0.7,2.1-0.9,3.7l0,0.4l0.3,0.3c0.2,0.2,5.5,4,13.4,4h4.5
			c7.9,0,11.5-3.9,11.7-4l0.3-0.2l0-0.4c-0.1-1.6-0.6-3.1-0.9-3.7c3.1-6.3,4.5-13.2,4.6-13.5l0-0.1c0.8-8-2.6-17.8-2.8-18.2l0,0
			c-0.5-1.2-0.4-3.5-0.3-4.5L391.3,146.3z M390,149.5c0,0,0,0.1,0.1,0.2c-1.1,1.3-5.5,4.7-13.9,4.7c-8.4,0-14.2-3.4-15.4-4.7
			c0,0,0,0,0,0c0.8-1.9,0.5-4.9,0.4-5.3c-0.3-5.5,0.5-7.7,0.5-7.8c2.2-6.1,9.3-8.5,13.7-8.5h0.7c4.4,0,10.7,2.4,12.9,8.5
			c0,0,0.9,2.1,0.5,7.6C389.6,144.5,389.2,147.6,390,149.5z M392.7,167c-0.1,0.5-1.6,7.4-4.6,13.4l-0.2,0.3
			c-1.9,1.5-5.8,3.3-11.8,3.3c-5.8,0-12.4-2.8-13.4-3.4l-0.2-0.3c-3-6-4.5-12.8-4.6-13.3c-0.1-0.6-0.1-1.1-0.1-1.7
			c3.5,1.9,10.7,3.8,18.4,3.8c7.2,0,12.9-1.6,16.3-3.4C392.8,166.1,392.7,166.6,392.7,167z M392.8,165.1c-3.4,1.8-9.1,3.4-16.4,3.4
			c-7.8,0-15-1.9-18.4-3.8c0-5.9,1.9-12.2,2.6-14.3c1.5,1.6,7.3,4.7,15.6,4.7c8.2,0,12.7-3,14.1-4.6
			C391,152.7,392.9,159.2,392.8,165.1z M376.2,126.1h-0.7c-4.4,0-10.9,2.3-14.1,7.5l0.4-2.7l-1.3-0.1c2.5-4.4,7.6-7.8,14.8-7.8h0
			c7.2,0,12.3,3.3,14.8,7.8l-1.3,0.1l0.4,2.5C386.4,128.4,380.5,126.1,376.2,126.1z"/>
	</g>
	<g>
		<g>
			<path class="st0" d="M104.4,158c-0.5-1.2-0.4-3.8-0.4-8v-5.2c0-4.6-1.1-8-2.8-10.2c-1.7-2.2-4.4-3.2-8-3.2c-2.6,0-4.9,0.7-6.8,2
				c-1.9,1.4-3.3,3.3-4.1,5.8c-0.6-2.6-1.7-4.5-3.5-5.9c-1.8-1.3-4.1-2-7-2c-2.7,0-5.6,0.8-7.4,2.3c-1.8,1.5-1.5,3.7-4.5,6.5v-8
				l0.1,0.1c-3.3,1.1-5.3,1.7-7.1,1.9v0.4c1.8,0.1,2.4,0.4,2.8,1c0.4,0.6,1.2,2.1,1.2,4.6v8c0,5.2-0.6,8.4-1,9.7
				c-0.5,1.3-2.1,2.2-3,2.5v0.4c0.9-0.1,2.2-0.1,3.2-0.1c1,0,2,0,2.9,0c1,0,1.9,0,2.9,0c1,0,1.9,0.1,2.9,0.1v-0.4
				c-1-0.4-3-1.2-3.5-2.3c-0.5-1.1-1.5-3.9-1.5-8.2v-0.7v-3.9c0-3.8,1.7-6.8,3.3-9c1.6-2.2,4.1-3.3,6.8-3.3c2.4,0,4.1,1,5.3,3.1
				c1.2,2.1,1.7,5.1,1.7,9.1v2.8v1.8c0,4.2,0.1,6.8-0.4,8c-0.5,1.2-1.2,2-2.5,2.4l0.1,0.4c0.9-0.1,1.8-0.1,2.7-0.1
				c0.9,0,2.1,0,3.6,0c0.8,0,1.7,0,2.7,0c1,0,2,0.1,3.1,0.1l0-0.4c-1.3-0.4-2.2-1.2-2.7-2.3c-0.5-1.2-0.7-3.7-0.7-7.6v-5.6
				c0-3.6,0.7-6.5,2.3-8.6c1.5-2.1,3.5-3.2,6.1-3.2c2.3,0,3.9,1,5.1,3.1c1.2,2,1.6,5.1,1.6,9.2v2.8v2.4c0,3.8-0.1,6.3-0.6,7.5
				c-0.5,1.2-0.4,2-2.4,2.4v0.4c1-0.1,1.7-0.1,2.6-0.1c0.9,0,1.9,0,3.2,0c1.5,0,2.7,0,3.5,0c0.9,0,1.7,0.1,2.4,0.1l0.2-0.4
				C105.6,160,104.9,159.2,104.4,158z"/>
			<path class="st0" d="M187.2,158c-0.5-1.2-0.2-3.8-0.2-8v-5.2c0-4.6-1.4-8-3-10.2c-1.7-2.2-4.6-3.2-8.1-3.2c-2.6,0-5,0.7-6.8,2
				c-1.9,1.4-3.3,3.3-4.1,5.8c-0.6-2.6-1.8-4.5-3.5-5.9c-1.8-1.3-4.1-2-7-2c-2.7,0-4.8,0.8-6.7,2.3c-1.8,1.5-3.7,3.7-3.7,6.5v-8
				l-0.4,0.1c-3.3,1.1-6.6,1.7-7.6,1.9v0.4c1,0.1,1.9,0.4,2.3,1c0.4,0.6,0.7,2.1,0.7,4.6v8c0,5.2-0.2,8.4-0.7,9.7
				c-0.4,1.1-1.1,1.8-2,2.3c-0.9-0.4-1.8-1.2-2.2-2.4c-0.6-1.5-1.1-3.8-1.1-6.9v-7.2c0-2.7,0-4.7-0.6-6.2c-0.5-1.4-1.3-2.6-2.6-3.5
				c-1.2-0.9-2.5-1.5-4.1-1.9c-1.6-0.4-3.3-0.6-5.3-0.6c-2.3,0-4.6,0.2-6.7,0.7c-2.1,0.5-4.1,1.4-5.9,2.3l1.7,5.7h0.3
				c0.4-2,1.4-4.2,3.2-5.5c1.8-1.3,3.9-2.1,6.5-2.1c2.9,0,5.1,0.8,6.4,2.5c1.4,1.7,2.1,4.4,2.1,8.1l-0.3,0c-7,0-12.3,0.8-15.9,2.4
				c-3.6,1.6-5.4,3.9-5.4,6.9c0,2.6,1,4.8,3.1,6.5c2.1,1.7,4.7,2.5,8,2.5c2.3,0,4.4-0.5,6.2-1.6c1.8-1,3.3-2.5,4.4-4.4
				c0.2,1,0.5,2.2,0.8,3.1c0.3,0.9,0.7,0.7,1.1,2.7h1.9c0.6,0,1.4-0.2,2.1-0.2c0.4,0-1.2-0.2,1.8-0.2v0.1c0,0,0.7,0,1.1-0.1
				c0,0-0.1,0-0.1,0v0c0,0,1.2,0,1.8-0.1c1,0,1.9,0,2.9,0c1,0,1.7,0,2.7,0c1,0,1.7,0.1,2.7,0.1v-0.4c-1-0.4-2-1.2-2.5-2.3
				c-0.5-1.1-0.5-3.9-0.5-8.2v-0.7v-3.9c0-3.8,0.9-6.8,2.5-9c1.6-2.2,3.7-3.3,6.4-3.3c2.4,0,3.6,1,4.9,3.1c1.2,2.1,1.3,5.1,1.3,9.1
				v2.8v1.8c0,4.2,0.4,6.8-0.1,8c-0.5,1.2-1.1,2-2.4,2.4l0.2,0.4c0.9-0.1,1.8-0.1,2.7-0.1c0.9,0,2.1,0,3.6,0c0.8,0,1.8,0,2.7,0
				c1,0,2,0.1,3.1,0.1l0-0.4c-1.3-0.4-1.9-1.2-2.4-2.3c-0.5-1.2-0.4-3.7-0.4-7.6v-5.6c0-3.6,0.5-6.5,2-8.6c1.5-2.1,3.4-3.2,5.9-3.2
				c2.3,0,3.6,1,4.8,3.1c1.2,2,1.3,5.1,1.3,9.2v2.8v2.4c0,3.8,0.4,6.3-0.1,7.5c-0.5,1.2-0.9,2-1.9,2.4v0.4c1-0.1,1.5-0.1,2.3-0.1
				c0.9,0,1.8,0,3.1,0c1.5,0,2.6,0,3.5,0c0.9,0,1.6,0.1,2.4,0.1l0.3-0.4C188.3,160,187.6,159.2,187.2,158z M128,146
				c0,4.8-0.6,8.3-2,10.5c-1.4,2.1-3.6,3.2-6.7,3.2c-2,0-3.6-0.6-4.8-1.9c-1.2-1.2-1.8-2.9-1.8-5.1c0-2.8,1.2-4.9,3.4-6.3
				c2.3-1.5,5.6-2.2,9.9-2.2c0.6,0,0.9,0,1.2,0c0.3,0,0.8,0,0.8,0V146z"/>
			<path class="st0" d="M218,157.6c-0.5-1.5,0-4.6,0-9.3v-6.4c0-1.8,0.1-3.6,0.1-5.2c0-1.6,0.1-3.2,0.2-4.7c-1.9,0.6-3.4,1-4.7,1.3
				c-1.3,0.3-3.6,0.5-3.6,0.7v0.4c0,0.1,1.5,0.5,1.9,1.2c0.4,0.7,0.1,2.5,0.1,5.3v5.1c0,4.5-0.3,7.9-1.8,10.3
				c-1.5,2.4-3.5,3.6-6.2,3.6c-3.1,0-5-1-6.3-3.1c-1.2-2-1.7-6-1.7-12v-3.5c0-1.5-0.1-3.1,0-4.6c0-1.5,0.1-3.1,0.1-4.6
				c-2,0.6-3.9,1.1-5.2,1.4c-1.3,0.3-1.9,0.5-3.9,0.6v0.4c2,0.1,2,0.5,2.4,1.1c0.4,0.6,0.6,2,0.6,4.1v5.3v1.7c0,3.2,0.5,5.5,0.8,6.9
				c0.3,1.4,0.9,2.6,1.6,3.6c0.9,1.4,2.4,2.4,4.1,3.1c1.8,0.7,3.9,1.1,6.2,1.1c2.3,0,4.3-0.5,6-1.5c1.7-1,3.1-2.5,4.1-4.5
				c0.2,1,0.5,2.2,0.8,3.1c0.3,0.9,0.7,0.7,1.1,2.7h5.2v-0.8C220,160.1,218.5,159.1,218,157.6z"/>
			<path class="st0" d="M233.7,161.4c4.6,0,8.3-0.9,10.9-2.8c2.6-1.8,3.9-4.4,3.9-7.6c0-2.3-0.9-4.1-2.6-5.2c-1.7-1.1-5-2-9.7-2.4
				c-3.2-0.3-5.4-0.8-6.5-1.6c-1.2-0.7-1.8-1.8-1.8-3.3c0-1.7,0.8-3.2,2.4-4.4c1.6-1.2,3.6-1.8,6.1-1.8c2.3,0,4.1,0.3,5.5,1.3
				c1.4,1,2.4,3.4,3,4.4h0.3l1.6-5.1c-1.4-0.6-3.1-1-4.9-1.3c-1.8-0.3-3.8-0.4-5.9-0.4c-3.9,0-7.1,0.8-9.5,2.4
				c-2.4,1.6-3.6,3.7-3.6,6.3c0,2.4,0.9,4.2,2.6,5.4c1.7,1.3,4.7,2.2,8.8,2.7c4,0.5,6.5,1.2,7.5,1.9c1,0.7,1.5,1.9,1.5,3.5
				c0,1.9-0.8,3.5-2.5,4.7c-1.6,1.2-3.8,1.9-6.4,1.9c-3.1,0-5.7-1-7.8-2.4c-2.1-1.4-3.2-3.8-3.5-5.8h-0.3l-1.9,6.4
				c1.9,0.9,4,1.6,6.1,2.1C229.1,161.1,231.4,161.4,233.7,161.4z"/>
			<path class="st0" d="M307.7,160.7c1.3,0,2.9,0,3.6,0c0.7,0-0.3,0,2.7,0.1v-0.4c-4-1.2-5.5-4-8.3-8.3c-0.7-1-1.5-1.8-1.9-2.4
				c-1.7-2.5-3.6-4.2-5.1-5.1c-1.6-0.9-3.7-1.3-6.1-1.3l6.5-4.9c0.1-0.1,0.3-0.3,0.6-0.5c4.2-3.1,8-5,11.3-5.6l0-0.4
				c-0.7,0-1.5,0.1-2.4,0.1c-0.9,0-2.2,0-4,0c-1.5,0-3.1,0-3.9,0c-0.8,0-1.6,0-2.6-0.1v0.3c1,0.1,1.4,0.3,1.7,0.5
				c0.2,0.2,0.6,0.4,0.6,0.8c0,0.5-0.2,1.1-0.7,1.8c-0.6,0.7-1.4,1.7-3,3l-6.6,5.8v-12.9c0-2.4-0.1-4.5-0.1-6.2c0-1.7,0-3.1,0.1-4.3
				c-1.6,0.5-2.8,0.9-4.2,1.3c-1.4,0.3-3.8,0.6-3.8,0.7v0.4c0,0.1,2,0.4,2.4,1.1c0.4,0.6,0.6,2.4,0.6,5.3v17.5v2.5
				c0,4.3-0.5,7-1,8.3c-0.4,1-1.2,1.7-2.1,2.2c-0.8-0.4-0.6-1-1-1.9c-0.5-1.1,0.1-3.7,0.1-7.9v-0.6v-4.8c0-4.6-1.8-8-3.6-10.1
				c-1.8-2.2-5.1-3.2-8.9-3.2c-2.8,0-5.3,0.7-7.2,2c-1.9,1.3-2.2,3.3-4.2,5.8v-8.1c0-2.3,0-4.3,0.1-5.9c0-1.7,0.1-3.2,0.2-4.5
				c-1.6,0.6-3.5,1-4.9,1.4c-1.4,0.3-2.3,0.5-4.3,0.7v0.4c2,0.1,3,0.4,3.4,1.1c0.4,0.7,1.6,2.1,1.6,4.4v19.4v1.8c0,4.1-1,6.8-1.5,8
				c-0.5,1.2-1.5,2-3.5,2.4v0.4c0-0.1,1.9-0.1,2.8-0.1c0.9,0,2.2,0,3.7,0c1,0,2.2,0,3.2,0c1,0,1.2,0.1,3.2,0.1v-0.4
				c-2-0.4-2.5-1.1-3-2.3c-0.5-1.2-1-4-1-8.3v-4.4c0-3.8,0.9-6.7,2.6-8.9c1.7-2.2,3.9-3.3,6.7-3.3c2.6,0,4.6,1,5.8,3
				c1.2,2,1.9,5.1,1.9,9.2v2.8v1.8c0,4.1,0,6.8-0.5,8c-0.5,1.2-2.5,2-2.5,2.4v0.4c0-0.1,1.4-0.1,2.3-0.1c0.9,0,2,0,3.5,0
				c1,0,2,0,3,0c0.4,0,1.2,0,1.2,0v0.1c0,0,0.5,0,0.8,0c0.3,0,0.6,0,0.9,0l0-0.1c0.4,0,0.7,0,1.1,0c0.9,0,2,0,3.2,0
				c1.6,0,2.7,0,3.6,0c0.9,0,1.4,0.1,2.4,0.1v-0.4c-1-0.4-2.2-1.3-2.7-2.7c-0.5-1.4-0.7-4.4-0.7-9c0-1.4,0.2-2.3,0.5-2.9
				c0.3-0.6,0.9-0.8,1.6-0.8c1.6,0,4.6,3.9,9.1,11.7c1,1.8,1.9,3.2,2.5,4.2c0.7,0,1.4-0.1,2.1-0.1
				C306.1,160.7,306.9,160.7,307.7,160.7z"/>
			<path class="st0" d="M338.1,157.7c-0.6-1.5-1.1-3.8-1.1-6.9v-7.2c0-2.7-0.3-4.7-0.8-6.2c-0.5-1.4-1.5-2.6-2.7-3.5
				c-1.2-0.9-2.6-1.5-4.1-1.9c-1.6-0.4-3.3-0.6-5.3-0.6c-2.3,0-4.6,0.2-6.7,0.7c-2.1,0.5-4.1,1.4-5.9,2.3l1.7,5.7h0.3
				c0.4-2,1.4-4.2,3.2-5.5c1.8-1.3,3.9-2.1,6.5-2.1c2.9,0,5.1,0.8,6.4,2.5c1.4,1.7,2.1,4.4,2.1,8.1l-0.3,0c-7,0-12.3,0.8-15.9,2.4
				c-3.6,1.6-5.4,3.9-5.4,6.9c0,2.6,1,4.8,3.1,6.5c2.1,1.7,4.7,2.5,8,2.5c2.3,0,4.4-0.5,6.2-1.6c1.8-1,3.3-2.5,4.4-4.4
				c0.2,1,0.5,2.2,0.8,3.1c0.3,0.9,0.7,0.7,1.1,2.7h1.9c0.6,0,1.5-0.2,2.2-0.2c0.7,0,1.2-0.2,3.2-0.2v-0.4
				C339,160.1,338.6,159.2,338.1,157.7z M332,146c0,4.8-0.9,8.3-2.3,10.5c-1.4,2.1-3.7,3.2-6.8,3.2c-2,0-3.7-0.6-4.9-1.9
				c-1.2-1.2-1.8-2.9-1.8-5.1c0-2.8,1.1-4.9,3.4-6.3c2.3-1.5,5.6-2.2,9.9-2.2c0.6,0,1.1,0,1.4,0c0.3,0,1,0,1,0V146z"/>
		</g>
		<g>
			<path class="st0" d="M199.5,179.1c0,0.3-0.1,0.6-0.3,0.7c-0.2,0.1-0.3,0.2-0.5,0.2h-8.6c0,0.8,0.1,1.5,0.2,2.1
				c0.2,0.6,0.4,1.2,0.8,1.6c0.4,0.5,0.8,0.8,1.4,1c0.6,0.2,1.3,0.4,2.1,0.4c0.6,0,1.1,0,1.6-0.2c0.5-0.1,0.9-0.2,1.2-0.3
				c0.3-0.1,0.6-0.2,0.8-0.3c0.2-0.1,0.4-0.2,0.5-0.2c0.1,0,0.1,0,0.2,0c0,0,0.1,0.1,0.1,0.1c0,0.1,0,0.1,0.1,0.2c0,0.1,0,0.2,0,0.3
				c0,0.1,0,0.1,0,0.2c0,0.1,0,0.1,0,0.2c0,0.1,0,0.1-0.1,0.1c0,0-0.1,0.1-0.1,0.1c0,0-0.2,0.1-0.4,0.2c-0.2,0.1-0.6,0.2-0.9,0.3
				c-0.4,0.1-0.8,0.2-1.4,0.3c-0.5,0.1-1.1,0.1-1.7,0.1c-1,0-1.8-0.1-2.6-0.4c-0.8-0.3-1.4-0.7-1.9-1.3c-0.5-0.6-0.9-1.3-1.2-2.1
				c-0.3-0.8-0.4-1.8-0.4-2.9c0-1.1,0.1-2,0.4-2.9c0.3-0.8,0.7-1.6,1.2-2.2c0.5-0.6,1.1-1,1.8-1.4c0.7-0.3,1.5-0.5,2.4-0.5
				c0.9,0,1.8,0.2,2.4,0.5c0.7,0.3,1.2,0.7,1.7,1.3c0.4,0.5,0.7,1.2,0.9,1.9c0.2,0.7,0.3,1.5,0.3,2.2V179.1z M197.8,178.6
				c0-1.3-0.3-2.4-0.9-3.1c-0.6-0.8-1.6-1.1-2.8-1.1c-0.6,0-1.2,0.1-1.7,0.4c-0.5,0.2-0.9,0.6-1.2,0.9c-0.3,0.4-0.6,0.8-0.8,1.4
				c-0.2,0.5-0.3,1.1-0.3,1.6H197.8z"/>
			<path class="st0" d="M210.7,182.7c0,0.6-0.1,1.1-0.3,1.6c-0.2,0.5-0.5,0.9-1,1.2c-0.4,0.3-0.9,0.6-1.5,0.8
				c-0.6,0.2-1.2,0.3-1.9,0.3c-0.4,0-0.9,0-1.2-0.1c-0.4-0.1-0.7-0.2-1.1-0.3c-0.3-0.1-0.6-0.2-0.8-0.3c-0.2-0.1-0.4-0.2-0.5-0.3
				c-0.1-0.1-0.2-0.2-0.2-0.4c0-0.1-0.1-0.3-0.1-0.6c0-0.1,0-0.2,0-0.3c0-0.1,0-0.2,0.1-0.2c0-0.1,0.1-0.1,0.1-0.1c0,0,0.1,0,0.2,0
				c0.1,0,0.3,0.1,0.4,0.2c0.2,0.1,0.4,0.3,0.7,0.4c0.3,0.2,0.6,0.3,1,0.4c0.4,0.1,0.9,0.2,1.4,0.2c0.4,0,0.8,0,1.2-0.1
				c0.4-0.1,0.7-0.2,0.9-0.4c0.3-0.2,0.5-0.4,0.6-0.7c0.1-0.3,0.2-0.6,0.2-1c0-0.4-0.1-0.7-0.3-1c-0.2-0.3-0.4-0.5-0.7-0.7
				c-0.3-0.2-0.6-0.4-1-0.5c-0.4-0.2-0.8-0.3-1.2-0.5c-0.4-0.2-0.8-0.3-1.2-0.5c-0.4-0.2-0.7-0.4-1-0.7c-0.3-0.3-0.5-0.6-0.7-1
				c-0.2-0.4-0.3-0.9-0.3-1.4c0-0.4,0.1-0.9,0.3-1.3c0.2-0.4,0.4-0.8,0.8-1.1c0.4-0.3,0.8-0.6,1.3-0.8c0.5-0.2,1.2-0.3,1.9-0.3
				c0.3,0,0.6,0,0.9,0.1c0.3,0,0.6,0.1,0.9,0.2c0.3,0.1,0.5,0.2,0.7,0.3c0.2,0.1,0.3,0.2,0.4,0.3c0.1,0.1,0.2,0.1,0.2,0.2
				c0,0,0.1,0.1,0.1,0.2c0,0.1,0,0.1,0,0.2c0,0.1,0,0.2,0,0.3c0,0.1,0,0.2,0,0.3c0,0.1,0,0.2-0.1,0.2c0,0.1-0.1,0.1-0.1,0.1
				c0,0-0.1,0-0.1,0c-0.1,0-0.2,0-0.3-0.2c-0.2-0.1-0.3-0.2-0.6-0.3c-0.2-0.1-0.5-0.2-0.9-0.3c-0.3-0.1-0.7-0.2-1.2-0.2
				c-0.4,0-0.8,0.1-1.2,0.2c-0.3,0.1-0.6,0.2-0.8,0.4c-0.2,0.2-0.4,0.4-0.5,0.7c-0.1,0.2-0.2,0.5-0.2,0.8c0,0.4,0.1,0.8,0.3,1
				c0.2,0.3,0.4,0.5,0.7,0.7c0.3,0.2,0.7,0.4,1,0.5c0.4,0.2,0.8,0.3,1.2,0.5c0.4,0.2,0.8,0.3,1.2,0.5c0.4,0.2,0.7,0.4,1,0.7
				c0.3,0.3,0.6,0.6,0.7,1C210.6,181.7,210.7,182.1,210.7,182.7z"/>
			<path class="st0" d="M220.1,185.3c0,0.2,0,0.4,0,0.5c0,0.1-0.1,0.2-0.2,0.3c-0.1,0.1-0.2,0.1-0.3,0.2c-0.1,0.1-0.3,0.1-0.5,0.2
				c-0.2,0-0.4,0.1-0.6,0.1c-0.2,0-0.4,0-0.6,0c-0.6,0-1.2-0.1-1.6-0.3c-0.4-0.2-0.8-0.4-1.1-0.8c-0.3-0.3-0.5-0.8-0.6-1.3
				c-0.1-0.5-0.2-1.1-0.2-1.8v-7.9h-1.9c-0.1,0-0.2-0.1-0.3-0.2c-0.1-0.1-0.1-0.3-0.1-0.5c0-0.1,0-0.2,0-0.3c0-0.1,0-0.2,0.1-0.2
				c0-0.1,0.1-0.1,0.1-0.1c0.1,0,0.1,0,0.2,0h1.9V170c0-0.1,0-0.1,0-0.2c0,0,0.1-0.1,0.1-0.1c0.1,0,0.2-0.1,0.3-0.1
				c0.1,0,0.2,0,0.4,0c0.2,0,0.3,0,0.4,0c0.1,0,0.2,0,0.3,0.1c0.1,0,0.1,0.1,0.1,0.1c0,0,0,0.1,0,0.2v3.1h3.5c0.1,0,0.1,0,0.2,0
				c0.1,0,0.1,0.1,0.1,0.1c0,0.1,0.1,0.1,0.1,0.2c0,0.1,0,0.2,0,0.3c0,0.2,0,0.4-0.1,0.5c-0.1,0.1-0.2,0.2-0.3,0.2h-3.5v7.6
				c0,1,0.1,1.7,0.4,2.2c0.3,0.5,0.8,0.8,1.5,0.8c0.2,0,0.4,0,0.6-0.1c0.2,0,0.3-0.1,0.5-0.2c0.1-0.1,0.3-0.1,0.4-0.2
				c0.1,0,0.2-0.1,0.3-0.1c0,0,0.1,0,0.1,0c0,0,0.1,0.1,0.1,0.1c0,0.1,0,0.1,0.1,0.2C220.1,185.1,220.1,185.2,220.1,185.3z"/>
			<path class="st0" d="M233.6,186c0,0.1,0,0.1,0,0.2c0,0-0.1,0.1-0.1,0.1c-0.1,0-0.1,0-0.3,0.1c-0.1,0-0.2,0-0.4,0
				c-0.2,0-0.3,0-0.4,0c-0.1,0-0.2,0-0.2-0.1c-0.1,0-0.1-0.1-0.1-0.1c0,0,0-0.1,0-0.2v-1.8c-0.7,0.8-1.4,1.4-2.1,1.8
				c-0.7,0.4-1.4,0.5-2.1,0.5c-0.8,0-1.5-0.1-2.1-0.4c-0.6-0.3-1-0.7-1.4-1.1c-0.4-0.5-0.6-1-0.8-1.7c-0.2-0.6-0.2-1.4-0.2-2.3v-7.6
				c0-0.1,0-0.1,0-0.2c0,0,0.1-0.1,0.1-0.1c0.1,0,0.2-0.1,0.3-0.1c0.1,0,0.2,0,0.4,0c0.2,0,0.3,0,0.4,0c0.1,0,0.2,0,0.3,0.1
				c0.1,0,0.1,0.1,0.1,0.1c0,0,0,0.1,0,0.2v7.5c0,0.8,0.1,1.4,0.2,1.9c0.1,0.5,0.3,0.9,0.5,1.3c0.2,0.3,0.6,0.6,0.9,0.8
				c0.4,0.2,0.8,0.3,1.3,0.3c0.6,0,1.3-0.2,1.9-0.7c0.6-0.5,1.3-1.1,2-2v-9.1c0-0.1,0-0.1,0-0.2c0,0,0.1-0.1,0.1-0.1
				c0.1,0,0.2-0.1,0.3-0.1c0.1,0,0.2,0,0.4,0c0.2,0,0.3,0,0.4,0c0.1,0,0.2,0,0.3,0.1c0.1,0,0.1,0.1,0.1,0.1c0,0,0,0.1,0,0.2V186z"/>
			<path class="st0" d="M248.5,186c0,0.1,0,0.1,0,0.2c0,0-0.1,0.1-0.1,0.1c-0.1,0-0.1,0-0.2,0.1c-0.1,0-0.2,0-0.3,0
				c-0.1,0-0.3,0-0.4,0c-0.1,0-0.2,0-0.2-0.1c-0.1,0-0.1-0.1-0.1-0.1c0,0,0-0.1,0-0.2v-1.8c-0.7,0.7-1.4,1.3-2.1,1.7
				c-0.7,0.4-1.5,0.6-2.3,0.6c-0.9,0-1.7-0.2-2.3-0.5c-0.6-0.4-1.2-0.8-1.6-1.4c-0.4-0.6-0.7-1.3-0.9-2.1c-0.2-0.8-0.3-1.7-0.3-2.6
				c0-1.1,0.1-2,0.3-2.9c0.2-0.9,0.6-1.6,1-2.2c0.5-0.6,1-1.1,1.7-1.4c0.7-0.3,1.4-0.5,2.3-0.5c0.8,0,1.5,0.2,2.1,0.5
				c0.6,0.3,1.3,0.8,1.9,1.5v-7.6c0-0.1,0-0.1,0-0.2c0,0,0.1-0.1,0.1-0.1c0.1,0,0.2,0,0.3-0.1c0.1,0,0.2,0,0.4,0c0.2,0,0.3,0,0.4,0
				c0.1,0,0.2,0,0.3,0.1c0.1,0,0.1,0.1,0.1,0.1c0,0,0,0.1,0,0.2V186z M246.8,176.9c-0.7-0.8-1.4-1.5-2-1.9c-0.6-0.4-1.3-0.7-2-0.7
				c-0.6,0-1.2,0.2-1.6,0.5c-0.5,0.3-0.8,0.7-1.1,1.2c-0.3,0.5-0.5,1.1-0.6,1.7c-0.1,0.6-0.2,1.3-0.2,1.9c0,0.7,0.1,1.4,0.2,2
				c0.1,0.7,0.3,1.3,0.6,1.8c0.3,0.5,0.6,0.9,1.1,1.2c0.4,0.3,1,0.5,1.7,0.5c0.3,0,0.7,0,1-0.1c0.3-0.1,0.6-0.2,1-0.5
				c0.3-0.2,0.7-0.5,1-0.8c0.4-0.3,0.7-0.8,1.2-1.3V176.9z"/>
			<path class="st0" d="M255,169.1c0,0.4-0.1,0.8-0.2,0.9c-0.2,0.2-0.4,0.2-0.9,0.2c-0.4,0-0.7-0.1-0.8-0.2
				c-0.2-0.2-0.2-0.5-0.2-0.9c0-0.4,0.1-0.7,0.2-0.9c0.2-0.2,0.4-0.2,0.9-0.2c0.4,0,0.7,0.1,0.8,0.2C255,168.4,255,168.7,255,169.1z
				 M254.8,186c0,0.1,0,0.1,0,0.2c0,0-0.1,0.1-0.1,0.1c-0.1,0-0.1,0-0.3,0.1c-0.1,0-0.2,0-0.4,0c-0.2,0-0.3,0-0.4,0
				c-0.1,0-0.2,0-0.3-0.1c-0.1,0-0.1-0.1-0.1-0.1c0,0,0-0.1,0-0.2v-12.6c0-0.1,0-0.1,0-0.2c0,0,0.1-0.1,0.1-0.1
				c0.1,0,0.2-0.1,0.3-0.1c0.1,0,0.2,0,0.4,0c0.2,0,0.3,0,0.4,0c0.1,0,0.2,0,0.3,0.1c0.1,0,0.1,0.1,0.1,0.1c0,0,0,0.1,0,0.2V186z"/>
			<path class="st0" d="M270.6,179.6c0,1-0.1,1.9-0.4,2.8c-0.3,0.9-0.6,1.6-1.2,2.2c-0.5,0.6-1.2,1.1-1.9,1.5
				c-0.8,0.3-1.7,0.5-2.7,0.5c-1,0-1.8-0.2-2.6-0.5c-0.7-0.3-1.4-0.8-1.9-1.3c-0.5-0.6-0.9-1.3-1.1-2.1c-0.2-0.8-0.4-1.8-0.4-2.8
				c0-1,0.1-1.9,0.4-2.8c0.3-0.8,0.6-1.6,1.2-2.2c0.5-0.6,1.2-1.1,1.9-1.4c0.8-0.3,1.7-0.5,2.7-0.5c1,0,1.8,0.2,2.6,0.5
				c0.7,0.3,1.4,0.8,1.8,1.3c0.5,0.6,0.9,1.3,1.1,2.1C270.5,177.6,270.6,178.6,270.6,179.6z M268.9,179.7c0-0.7-0.1-1.4-0.2-2.1
				c-0.1-0.7-0.4-1.2-0.7-1.7c-0.3-0.5-0.8-0.9-1.3-1.2c-0.5-0.3-1.2-0.4-2.1-0.4c-0.8,0-1.4,0.1-2,0.4c-0.5,0.3-1,0.6-1.3,1.1
				c-0.3,0.5-0.6,1-0.8,1.7c-0.2,0.7-0.2,1.4-0.2,2.1c0,0.7,0.1,1.4,0.2,2.1c0.1,0.7,0.4,1.2,0.7,1.7c0.3,0.5,0.8,0.9,1.3,1.2
				c0.5,0.3,1.2,0.4,2.1,0.4c0.8,0,1.4-0.1,2-0.4c0.5-0.3,1-0.6,1.3-1.1c0.3-0.5,0.6-1,0.8-1.7C268.8,181.2,268.9,180.5,268.9,179.7
				z"/>
			<path class="st0" d="M298.8,186c0,0.1,0,0.1,0,0.2c0,0-0.1,0.1-0.1,0.1c-0.1,0-0.1,0-0.3,0.1c-0.1,0-0.2,0-0.4,0
				c-0.2,0-0.3,0-0.4,0c-0.1,0-0.2,0-0.3-0.1c-0.1,0-0.1-0.1-0.1-0.1c0,0,0-0.1,0-0.2v-7.8c0-0.6-0.1-1.1-0.2-1.6
				c-0.1-0.5-0.3-0.9-0.5-1.3c-0.2-0.3-0.5-0.6-0.9-0.8c-0.3-0.2-0.8-0.3-1.2-0.3c-0.6,0-1.2,0.2-1.8,0.7c-0.6,0.5-1.3,1.1-2,2v9.1
				c0,0.1,0,0.1,0,0.2c0,0-0.1,0.1-0.1,0.1c-0.1,0-0.1,0-0.3,0.1c-0.1,0-0.2,0-0.4,0c-0.2,0-0.3,0-0.4,0c-0.1,0-0.2,0-0.3-0.1
				c-0.1,0-0.1-0.1-0.1-0.1c0,0,0-0.1,0-0.2v-7.8c0-0.6-0.1-1.1-0.2-1.6c-0.1-0.5-0.3-0.9-0.5-1.3c-0.2-0.3-0.5-0.6-0.9-0.8
				c-0.3-0.2-0.8-0.3-1.2-0.3c-0.6,0-1.2,0.2-1.8,0.7c-0.6,0.5-1.3,1.1-2,2v9.1c0,0.1,0,0.1,0,0.2c0,0-0.1,0.1-0.1,0.1
				c-0.1,0-0.1,0-0.3,0.1c-0.1,0-0.2,0-0.4,0c-0.2,0-0.3,0-0.4,0c-0.1,0-0.2,0-0.3-0.1c-0.1,0-0.1-0.1-0.1-0.1c0,0,0-0.1,0-0.2
				v-12.6c0-0.1,0-0.1,0-0.2c0,0,0.1-0.1,0.1-0.1c0.1,0,0.1-0.1,0.2-0.1c0.1,0,0.2,0,0.4,0c0.2,0,0.3,0,0.4,0c0.1,0,0.2,0,0.2,0.1
				c0.1,0,0.1,0.1,0.1,0.1c0,0,0,0.1,0,0.2v1.8c0.7-0.8,1.4-1.4,2.1-1.8c0.7-0.4,1.3-0.5,1.9-0.5c0.5,0,1,0.1,1.4,0.2
				c0.4,0.1,0.8,0.3,1.1,0.5c0.3,0.2,0.6,0.5,0.8,0.8c0.2,0.3,0.4,0.7,0.5,1c0.4-0.5,0.8-0.9,1.2-1.2c0.4-0.3,0.8-0.6,1.1-0.8
				c0.3-0.2,0.7-0.3,1-0.4c0.3-0.1,0.6-0.1,1-0.1c0.8,0,1.5,0.1,2,0.4c0.5,0.3,1,0.7,1.3,1.1c0.3,0.5,0.6,1,0.7,1.7
				c0.1,0.6,0.2,1.3,0.2,2V186z"/>
			<path class="st0" d="M314.6,179.6c0,1-0.1,1.9-0.4,2.8c-0.3,0.9-0.6,1.6-1.2,2.2c-0.5,0.6-1.2,1.1-1.9,1.5
				c-0.8,0.3-1.7,0.5-2.7,0.5c-1,0-1.8-0.2-2.6-0.5c-0.7-0.3-1.4-0.8-1.9-1.3c-0.5-0.6-0.9-1.3-1.1-2.1c-0.2-0.8-0.4-1.8-0.4-2.8
				c0-1,0.1-1.9,0.4-2.8c0.3-0.8,0.6-1.6,1.2-2.2c0.5-0.6,1.2-1.1,1.9-1.4c0.8-0.3,1.7-0.5,2.7-0.5c1,0,1.8,0.2,2.6,0.5
				c0.7,0.3,1.4,0.8,1.8,1.3c0.5,0.6,0.9,1.3,1.1,2.1C314.5,177.6,314.6,178.6,314.6,179.6z M312.8,179.7c0-0.7-0.1-1.4-0.2-2.1
				c-0.1-0.7-0.4-1.2-0.7-1.7c-0.3-0.5-0.8-0.9-1.3-1.2c-0.6-0.3-1.2-0.4-2.1-0.4c-0.8,0-1.4,0.1-2,0.4c-0.5,0.3-1,0.6-1.3,1.1
				c-0.3,0.5-0.6,1-0.8,1.7c-0.2,0.7-0.3,1.4-0.3,2.1c0,0.7,0.1,1.4,0.2,2.1c0.1,0.7,0.4,1.2,0.7,1.7c0.3,0.5,0.8,0.9,1.3,1.2
				c0.6,0.3,1.2,0.4,2.1,0.4c0.8,0,1.4-0.1,2-0.4c0.5-0.3,1-0.6,1.3-1.1c0.3-0.5,0.6-1,0.8-1.7C312.8,181.2,312.8,180.5,312.8,179.7
				z"/>
			<path class="st0" d="M327.9,173.4C327.9,173.4,327.9,173.4,327.9,173.4c0,0.1,0,0.2,0,0.2c0,0,0,0.1,0,0.1c0,0,0,0.1,0,0.1
				l-4.6,12.3c0,0.1-0.1,0.1-0.1,0.2c-0.1,0.1-0.1,0.1-0.2,0.1c-0.1,0-0.2,0-0.3,0.1c-0.1,0-0.3,0-0.4,0c-0.2,0-0.3,0-0.4,0
				c-0.1,0-0.2,0-0.3-0.1c-0.1,0-0.2-0.1-0.2-0.1c-0.1,0-0.1-0.1-0.1-0.2l-4.6-12.3c0-0.1-0.1-0.1-0.1-0.2c0,0,0-0.1,0-0.1
				c0,0,0-0.1,0-0.1c0-0.1,0-0.1,0-0.2c0,0,0.1-0.1,0.1-0.1c0.1,0,0.1,0,0.2,0c0.1,0,0.2,0,0.4,0c0.2,0,0.4,0,0.5,0
				c0.1,0,0.2,0,0.3,0.1c0.1,0,0.1,0.1,0.2,0.1c0,0,0.1,0.1,0.1,0.2l4,11l0,0.1l0-0.1l3.9-11c0-0.1,0-0.1,0.1-0.2
				c0,0,0.1-0.1,0.2-0.1c0.1,0,0.2-0.1,0.3-0.1c0.1,0,0.3,0,0.4,0c0.2,0,0.3,0,0.4,0c0.1,0,0.2,0,0.2,0.1c0.1,0,0.1,0.1,0.1,0.1
				C327.8,173.3,327.9,173.3,327.9,173.4z"/>
			<path class="st0" d="M332.7,169.1c0,0.4-0.1,0.8-0.2,0.9c-0.2,0.2-0.4,0.2-0.9,0.2c-0.4,0-0.7-0.1-0.8-0.2
				c-0.2-0.2-0.2-0.5-0.2-0.9c0-0.4,0.1-0.7,0.2-0.9c0.2-0.2,0.4-0.2,0.9-0.2c0.4,0,0.7,0.1,0.8,0.2
				C332.6,168.4,332.7,168.7,332.7,169.1z M332.4,186c0,0.1,0,0.1,0,0.2c0,0-0.1,0.1-0.1,0.1c-0.1,0-0.1,0-0.2,0.1
				c-0.1,0-0.2,0-0.4,0c-0.2,0-0.3,0-0.4,0c-0.1,0-0.2,0-0.3-0.1c-0.1,0-0.1-0.1-0.1-0.1c0,0,0-0.1,0-0.2v-12.6c0-0.1,0-0.1,0-0.2
				c0,0,0.1-0.1,0.1-0.1c0.1,0,0.1-0.1,0.3-0.1c0.1,0,0.2,0,0.4,0c0.2,0,0.3,0,0.4,0c0.1,0,0.2,0,0.2,0.1c0.1,0,0.1,0.1,0.1,0.1
				c0,0,0,0.1,0,0.2V186z"/>
			<path class="st0" d="M338.7,186c0,0.1,0,0.1,0,0.2c0,0-0.1,0.1-0.1,0.1c-0.1,0-0.1,0-0.3,0.1c-0.1,0-0.2,0-0.4,0
				c-0.2,0-0.3,0-0.4,0c-0.1,0-0.2,0-0.3-0.1c-0.1,0-0.1-0.1-0.1-0.1c0,0,0-0.1,0-0.2v-18.8c0-0.1,0-0.1,0-0.2c0,0,0.1-0.1,0.1-0.1
				c0.1,0,0.1-0.1,0.3-0.1c0.1,0,0.2,0,0.4,0c0.2,0,0.3,0,0.4,0c0.1,0,0.2,0,0.3,0.1c0.1,0,0.1,0.1,0.1,0.1c0,0.1,0,0.1,0,0.2V186z"
				/>
		</g>
	</g>
</g>
</svg>
