<?xml version="1.0" encoding="utf-8"?>
<!-- Generator: Adobe Illustrator 19.1.0, SVG Export Plug-In . SVG Version: 6.00 Build 0)  -->
<svg version="1.1" id="Layer_1" xmlns="http://www.w3.org/2000/svg" xmlns:xlink="http://www.w3.org/1999/xlink" x="0px" y="0px"
	 viewBox="0 0 450 300" style="enable-background:new 0 0 450 300;" xml:space="preserve">
<style type="text/css">
	.st0{fill:#58BEEC;}
	.st1{fill:#BBE020;}
	.st2{fill:#4D4D4D;}
	.st3{fill:#FCBD10;}
	.st4{fill:#F38034;}
	.st5{fill:#B4406B;}
	.st6{fill:#658DC8;}
	.st7{opacity:0.5;}
	.st8{fill:none;}
	.st9{fill:#FFFFFF;}
	.st10{fill:#4D7092;}
	.st11{fill:#B66228;}
	.st12{fill:#C3902C;}
	.st13{fill:#7D3057;}
	.st14{fill:#333333;}
	.st15{fill:#E74E37;}
	.st16{opacity:0.4;}
	.st17{fill:#7C2C24;}
	.st18{fill:#FFE666;}
	.st19{fill:#80D1EA;}
	.st20{fill:#231F20;}
	.st21{fill:#EC1C24;}
	.st22{fill:#DE271E;}
	.st23{fill:#E1AA1F;}
	.st24{fill:#C28214;}
	.st25{fill:none;stroke:#12100B;stroke-width:1.5;stroke-miterlimit:10;}
	.st26{fill:#52561B;}
	.st27{fill:#804000;}
	.st28{fill:#575756;}
	.st29{fill:#3DAEF4;}
	.st30{fill:#FFB300;}
	.st31{fill:#FFFF00;}
	.st32{fill:#FF4D3B;}
	.st33{fill:#C757FF;}
	.st34{fill:url(#SVGID_1_);}
	.st35{opacity:0.8;fill:url(#SVGID_2_);}
	.st36{fill:url(#SVGID_3_);}
	.st37{fill:#7CFF1D;}
	.st38{opacity:0.9;fill:url(#SVGID_4_);}
	.st39{fill:#33BFFF;}
	.st40{fill:url(#SVGID_5_);}
	.st41{fill:#9D2DA0;}
	.st42{fill:#631D66;}
	.st43{fill:#E4AEED;}
</style>
<path class="st0" d="M402,41.1c0-5.5-4.5-10-10-10H52c-5.5,0-10,4.5-10,10v220c0,5.5,4.5,10,10,10h340c5.5,0,10-4.5,10-10V41.1z"/>
<g>
	<g>
		<g>
			<g>
				<g>
					<path class="st9" d="M234,113.1v50h-9v-50H234z"/>
					<path class="st9" d="M245,113.5c4-0.7,9.1-1.1,14.6-1.1c9.5,0,15.8,2,20.5,5.9c5,4,7.9,10.1,7.9,18.6c0,9.1-3.1,15.8-7.9,20.1
						c-5,4.6-12.9,6.9-22.8,6.9c-5.3,0-9.3-0.3-12.3-0.7V113.5z M254,156.4c1,0.2,3.2,0.2,5.1,0.2c12,0.1,19.1-6.6,19.1-19.5
						c0.1-11.1-6.4-17.6-17.9-17.6c-2.9,0-5.3,0.2-6.3,0.5V156.4z"/>
					<path class="st9" d="M324,141.1h-19v15h22v7h-31v-50h29v7h-20v13h19V141.1z"/>
				</g>
			</g>
			<g>
				<g>
					<path class="st9" d="M235,181.1h-7v6h7v2h-9v-17h9v2h-7v5h7V181.1z"/>
					<path class="st9" d="M248,172.1V186c0,1.1,0.3,2.1,0.3,3.1h-1.9l-0.1-2h0c-0.7,1-2.1,2.3-4.1,2.3c-2.9,0-5.1-2.5-5.1-6.1
						c0-4,2.4-6.2,5.3-6.2c1.8,0,3,1,3.6,2h0v-7H248z M246,182c0-0.3,0-0.6-0.1-0.9c-0.3-1.4-1.5-2.5-3.1-2.5c-2.2,0-3.5,2-3.5,4.6
						c0,2.4,1.2,4.4,3.5,4.4c1.4,0,2.7-1,3.1-2.6c0.1-0.3,0.1-0.6,0.1-0.9V182z"/>
					<path class="st9" d="M262,185.9c0,1.2-0.2,2.3-0.1,3.3h-1.9l-0.1-2h0c-0.6,1-1.7,2.2-3.8,2.2c-1.9,0-4-1-4-5.2v-7h2v6.7
						c0,2.3,0.6,3.8,2.6,3.8c1.4,0,2.6-1,3-2c0.1-0.3,0.4-0.7,0.4-1.1v-7.4h2V185.9z"/>
					<path class="st9" d="M273.8,188.7c-0.6,0.3-1.8,0.7-3.4,0.7c-3.6,0-5.9-2.4-5.9-6.1c0-3.7,2.5-6.3,6.4-6.3c1.3,0,2.4,0.3,3,0.6
						l-0.5,1.7c-0.5-0.3-1.3-0.6-2.5-0.6c-2.7,0-4.2,2-4.2,4.5c0,2.7,1.8,4.4,4.1,4.4c1.2,0,2-0.3,2.7-0.6L273.8,188.7z"/>
					<path class="st9" d="M282.9,189.1l-0.2-2h-0.1c-0.7,1-1.9,2-3.6,2c-2.4,0-3.4-1.6-3.4-3.3c0-2.9,2.4-4.3,7.4-4.3v-0.2
						c0-1-0.5-2.7-2.9-2.7c-1.1,0-2.4,0.3-3.2,0.9l-0.5-1.4c1-0.6,2.5-1.1,4-1.1c3.6,0,4.6,2.5,4.6,4.9v4.4c0,1-0.3,1.9-0.1,2.9
						H282.9z M283,183c-3,0-5.2,0.4-5.2,2.7c0,1.4,0.8,2.1,1.9,2.1c1.5,0,2.7-1,3-2c0.1-0.2,0.3-0.5,0.3-0.7V183z"/>
					<path class="st9" d="M296.6,188.7c-0.6,0.3-1.8,0.7-3.4,0.7c-3.6,0-5.9-2.4-5.9-6.1c0-3.7,2.5-6.3,6.4-6.3c1.3,0,2.4,0.3,3,0.6
						l-0.5,1.7c-0.5-0.3-1.3-0.6-2.5-0.6c-2.7,0-4.2,2-4.2,4.5c0,2.7,1.8,4.4,4.1,4.4c1.2,0,2-0.3,2.7-0.6L296.6,188.7z"/>
					<path class="st9" d="M301.6,173.9c0,0.7-0.5,1.3-1.4,1.3c-0.8,0-1.3-0.6-1.3-1.3c0-0.8,0.6-1.3,1.3-1.3
						C301.1,172.5,301.6,173.1,301.6,173.9z M299,189.1v-12h2v12H299z"/>
					<path class="st9" d="M315.7,183.1c0,4.4-3,6.3-5.9,6.3c-3.2,0-5.7-2.4-5.7-6.1c0-4,2.6-6.3,5.9-6.3
						C313.4,176.9,315.7,179.4,315.7,183.1z M306.2,183.2c0,2.6,1.5,4.6,3.6,4.6c2.1,0,3.6-1.9,3.6-4.6c0-2-1-4.6-3.6-4.6
						C307.3,178.6,306.2,180.9,306.2,183.2z M313.1,172.1l-3,3h-1.5l2.2-3H313.1z"/>
					<path class="st9" d="M318,180.4c0-1.2,0.4-2.3,0.3-3.3h1.9l0.1,2h0c0.6-1,2.2-2.2,4.2-2.2c1.6,0,4.4,1,4.4,5.1v7.1h-3v-6.9
						c0-1.9-0.5-3.5-2.6-3.5c-1.4,0-2.2,1-2.6,2.2c-0.1,0.3,0.2,0.6,0.2,1v7.2h-3V180.4z"/>
				</g>
			</g>
		</g>
		<g>
			<path class="st9" d="M162.6,151.3c0.7,12.5,1.9,23.4,7.8,29.4c6,6,15.6,6,21.6,0c6-6,6-15.6,0-21.6
				C186,153.1,175.1,152,162.6,151.3z"/>
			<path class="st9" d="M155.8,144.5c-12.5-0.7-23.4-1.9-29.4-7.8c-6-6-6-15.6,0-21.6c6-6,15.6-6,21.6,0
				C153.9,121.1,155.1,131.9,155.8,144.5z"/>
			<path class="st9" d="M162.6,144.5c12.5-0.7,23.4-1.9,29.4-7.8c6-6,5.9-15.6,0-21.6c-6-6-15.6-6-21.6,0
				C164.4,121.1,163.3,131.9,162.6,144.5z"/>
			<path class="st9" d="M155.8,151.3c-0.7,12.5-1.8,23.4-7.8,29.4c-6,6-15.6,6-21.6,0c-6-6-6-15.6,0-21.6
				C132.4,153.1,143.3,152,155.8,151.3z"/>
		</g>
	</g>
</g>
</svg>
