<?xml version="1.0" encoding="utf-8"?>
<!-- Generator: Adobe Illustrator 19.1.0, SVG Export Plug-In . SVG Version: 6.00 Build 0)  -->
<svg version="1.1" id="Layer_1" xmlns="http://www.w3.org/2000/svg" xmlns:xlink="http://www.w3.org/1999/xlink" x="0px" y="0px"
	 viewBox="0 0 450 300" style="enable-background:new 0 0 450 300;" xml:space="preserve">
<style type="text/css">
	.st0{fill:#4D4D4D;}
	.st1{fill:#FCBD10;}
	.st2{fill:#F38034;}
	.st3{fill:#B4406B;}
	.st4{fill:#658DC8;}
	.st5{opacity:0.5;}
	.st6{fill:none;}
	.st7{fill:#FFFFFF;}
	.st8{fill:#4D7092;}
	.st9{fill:#B66228;}
	.st10{fill:#C3902C;}
	.st11{fill:#7D3057;}
	.st12{fill:#333333;}
	.st13{fill:#E74E37;}
	.st14{opacity:0.8;}
	.st15{fill:#7C2C24;}
	.st16{fill:#FFE666;}
	.st17{opacity:0.4;}
	.st18{fill:#80D1EA;}
	.st19{fill:#231F20;}
	.st20{fill:#EC1C24;}
	.st21{fill:#DE271E;}
	.st22{fill:#E1AA1F;}
	.st23{fill:#C28214;}
	.st24{fill:none;stroke:#12100B;stroke-width:1.5;stroke-miterlimit:10;}
	.st25{fill:#BBE020;}
	.st26{fill:#52561B;}
	.st27{fill:#804000;}
	.st28{fill:#575756;}
	.st29{fill:#58BEEC;}
	.st30{fill:#3DAEF4;}
	.st31{fill:#FFB300;}
	.st32{fill:#FFFF00;}
	.st33{fill:#FF4D3B;}
	.st34{fill:#C757FF;}
	.st35{fill:url(#SVGID_1_);}
	.st36{opacity:0.8;fill:url(#SVGID_2_);}
	.st37{fill:url(#SVGID_3_);}
	.st38{fill:#7CFF1D;}
	.st39{opacity:0.9;fill:url(#SVGID_4_);}
	.st40{fill:#33BFFF;}
	.st41{fill:url(#SVGID_5_);}
	.st42{fill:#9D2DA0;}
	.st43{fill:#631D66;}
	.st44{fill:#E4AEED;}
</style>
<g>
	<path d="M135.7,150.4c0,3.7-0.5,6.9-1.4,9.7c-0.9,2.8-2.3,5.2-4.1,7c-1.8,1.9-4,3.3-6.7,4.3c-2.6,1-5.8,1.5-9.5,1.5h-8.6
		c-0.4,0-0.8-0.2-1.2-0.5c-0.4-0.3-0.6-0.9-0.6-1.7v-39.4c0-0.8,0.2-1.4,0.6-1.7c0.4-0.3,0.8-0.5,1.2-0.5h9.2c3.7,0,6.8,0.5,9.4,1.5
		c2.6,1,4.7,2.4,6.4,4.3c1.7,1.9,3,4.1,3.9,6.7C135.3,144.3,135.7,147.2,135.7,150.4z M131.3,150.6c0-2.5-0.3-4.9-1-7.1
		c-0.6-2.2-1.6-4-3-5.6c-1.3-1.6-3-2.8-5.1-3.7c-2-0.9-4.7-1.3-7.8-1.3h-6.7v36.3h6.8c3,0,5.5-0.4,7.5-1.1c2.1-0.7,3.8-1.9,5.2-3.4
		c1.4-1.5,2.4-3.5,3.1-5.8C130.9,156.6,131.3,153.8,131.3,150.6z"/>
	<path d="M169,171.1c0,0.3,0,0.6-0.1,0.8c0,0.2-0.1,0.4-0.2,0.6c-0.1,0.2-0.2,0.3-0.4,0.4c-0.1,0.1-0.3,0.1-0.4,0.1h-20.5
		c-0.4,0-0.8-0.2-1.2-0.5c-0.4-0.3-0.6-0.9-0.6-1.7v-39.4c0-0.8,0.2-1.4,0.6-1.7c0.4-0.3,0.8-0.5,1.2-0.5h20.2c0.2,0,0.3,0,0.4,0.1
		c0.1,0.1,0.2,0.2,0.3,0.4c0.1,0.2,0.2,0.4,0.2,0.6c0,0.2,0.1,0.5,0.1,0.8c0,0.3,0,0.6-0.1,0.8c0,0.2-0.1,0.4-0.2,0.6
		c-0.1,0.1-0.2,0.3-0.3,0.3c-0.1,0.1-0.3,0.1-0.4,0.1h-17.9v15.4h15.5c0.2,0,0.3,0,0.5,0.1c0.1,0.1,0.2,0.2,0.3,0.3
		c0.1,0.1,0.2,0.3,0.2,0.6c0,0.2,0.1,0.5,0.1,0.8c0,0.3,0,0.5-0.1,0.8c0,0.2-0.1,0.4-0.2,0.5c-0.1,0.1-0.2,0.2-0.3,0.3
		c-0.1,0.1-0.3,0.1-0.5,0.1h-15.5v17.4h18.2c0.2,0,0.3,0,0.4,0.1c0.1,0.1,0.3,0.2,0.4,0.3c0.1,0.1,0.2,0.3,0.2,0.6
		C169,170.5,169,170.8,169,171.1z"/>
	<path d="M210.7,170.9c0,0.4-0.1,0.7-0.2,1c-0.1,0.3-0.3,0.5-0.5,0.7c-0.2,0.2-0.4,0.3-0.6,0.4c-0.2,0.1-0.5,0.1-0.7,0.1h-0.8
		c-0.5,0-0.9-0.1-1.2-0.2c-0.4-0.1-0.7-0.3-1.1-0.6c-0.3-0.3-0.7-0.7-1-1.1c-0.3-0.5-0.7-1.1-1.2-1.8L188,142
		c-0.8-1.3-1.5-2.7-2.3-4.1c-0.8-1.4-1.5-2.8-2.2-4.1h0c0,1.6,0,3.3,0,5c0,1.7,0,3.4,0,5v28.3c0,0.1,0,0.3-0.1,0.4
		c-0.1,0.1-0.2,0.2-0.3,0.3c-0.2,0.1-0.4,0.1-0.6,0.2c-0.3,0-0.6,0.1-1,0.1c-0.4,0-0.7,0-1-0.1c-0.3,0-0.5-0.1-0.6-0.2
		c-0.2-0.1-0.3-0.2-0.3-0.3c-0.1-0.1-0.1-0.2-0.1-0.4v-40.9c0-0.8,0.2-1.4,0.6-1.7c0.4-0.3,0.8-0.5,1.2-0.5h1.7c0.5,0,1,0,1.4,0.1
		c0.4,0.1,0.7,0.2,1,0.5c0.3,0.2,0.6,0.5,0.9,0.9c0.3,0.4,0.6,0.9,0.9,1.5l11.8,20.9c0.7,1.3,1.4,2.6,2.1,3.8
		c0.7,1.2,1.3,2.4,1.9,3.5c0.6,1.2,1.3,2.3,1.9,3.4c0.6,1.1,1.2,2.3,1.8,3.4h0c0-1.9,0-3.9,0-5.9c0-2,0-4,0-5.9V130
		c0-0.1,0-0.3,0.1-0.4c0.1-0.1,0.2-0.2,0.3-0.3c0.2-0.1,0.4-0.1,0.6-0.2c0.3,0,0.6-0.1,1-0.1c0.4,0,0.7,0,0.9,0.1
		c0.3,0,0.5,0.1,0.6,0.2c0.2,0.1,0.3,0.2,0.4,0.3c0.1,0.1,0.1,0.2,0.1,0.4V170.9z"/>
	<path d="M250,131.1c0,0.3,0,0.6-0.1,0.8c0,0.2-0.1,0.4-0.2,0.6c-0.1,0.1-0.2,0.3-0.3,0.3c-0.1,0.1-0.3,0.1-0.4,0.1h-13v39.3
		c0,0.1,0,0.3-0.1,0.4c-0.1,0.1-0.2,0.2-0.3,0.3c-0.2,0.1-0.4,0.1-0.6,0.2c-0.3,0-0.6,0.1-1,0.1c-0.4,0-0.7,0-1-0.1
		c-0.3,0-0.5-0.1-0.6-0.2c-0.2-0.1-0.3-0.2-0.3-0.3c-0.1-0.1-0.1-0.2-0.1-0.4v-39.3h-13c-0.2,0-0.3,0-0.5-0.1
		c-0.1-0.1-0.2-0.2-0.3-0.3c-0.1-0.1-0.2-0.3-0.2-0.6c0-0.2-0.1-0.5-0.1-0.8c0-0.3,0-0.6,0.1-0.8c0-0.2,0.1-0.4,0.2-0.6
		c0.1-0.2,0.2-0.3,0.3-0.4c0.1-0.1,0.3-0.1,0.5-0.1h30.2c0.2,0,0.3,0,0.4,0.1c0.1,0.1,0.2,0.2,0.3,0.4c0.1,0.2,0.2,0.4,0.2,0.6
		C250,130.5,250,130.8,250,131.1z"/>
	<path d="M284.3,172.2c0,0.2,0,0.3-0.1,0.4c-0.1,0.1-0.2,0.2-0.3,0.3c-0.2,0.1-0.4,0.1-0.7,0.2c-0.3,0-0.6,0.1-1.1,0.1
		c-0.4,0-0.7,0-1-0.1c-0.3,0-0.5-0.1-0.7-0.2c-0.2-0.1-0.3-0.2-0.4-0.4c-0.1-0.2-0.2-0.4-0.3-0.7l-4.1-10.6c-0.5-1.2-1-2.3-1.5-3.4
		c-0.5-1.1-1.2-2-2-2.8c-0.8-0.8-1.7-1.4-2.8-1.8c-1.1-0.5-2.4-0.7-3.9-0.7h-4.5v19.7c0,0.1,0,0.3-0.1,0.4c-0.1,0.1-0.2,0.2-0.3,0.3
		c-0.2,0.1-0.4,0.1-0.6,0.2c-0.3,0-0.6,0.1-1,0.1c-0.4,0-0.7,0-1-0.1c-0.3,0-0.5-0.1-0.6-0.2c-0.2-0.1-0.3-0.2-0.3-0.3
		c-0.1-0.1-0.1-0.2-0.1-0.4v-40.9c0-0.8,0.2-1.4,0.6-1.7c0.4-0.3,0.8-0.5,1.2-0.5h8.2c1.1,0,2,0,2.7,0.1c0.7,0.1,1.4,0.1,1.9,0.2
		c1.7,0.3,3.1,0.8,4.4,1.4c1.2,0.7,2.3,1.5,3.1,2.4c0.8,1,1.4,2,1.8,3.2c0.4,1.2,0.6,2.5,0.6,3.9c0,1.4-0.2,2.7-0.6,3.9
		c-0.4,1.1-1,2.1-1.7,3c-0.7,0.9-1.6,1.6-2.7,2.2c-1,0.6-2.2,1.2-3.4,1.6c0.7,0.3,1.4,0.8,2,1.2c0.6,0.5,1.1,1.1,1.7,1.8
		c0.5,0.7,1,1.5,1.4,2.4c0.5,0.9,0.9,1.9,1.4,3.1l4.1,10.2c0.3,0.8,0.5,1.3,0.6,1.6C284.3,171.8,284.3,172,284.3,172.2z M277,140.9
		c0-1.9-0.4-3.4-1.2-4.7c-0.8-1.3-2.2-2.2-4.2-2.8c-0.7-0.2-1.4-0.3-2.1-0.4c-0.8-0.1-1.8-0.1-3-0.1h-5.4v16h6.3
		c1.7,0,3.1-0.2,4.4-0.6c1.2-0.4,2.2-1,3-1.7c0.8-0.7,1.4-1.6,1.8-2.5C276.9,143.1,277,142.1,277,140.9z"/>
	<g>
		<path d="M337.6,163.1c-0.1,0-0.1,0-0.2,0.3c-0.6,2.8-1.6,4.9-3,7c-1.4,2.1-3.2,3.6-5.5,4.9c-2.3,1.2-5.1,1.8-8.4,1.8
			c-3.4,0-6.2-0.6-8.4-1.8c-2.2-1.2-4-2.8-5.4-4.8c-1.3-2.1-2.3-3.8-2.9-6.6c-0.1-0.4-0.2-0.6-0.2-0.6h-5.5c0.2,0,0.5,2.1,0.8,3.3
			c0.9,3.3,2.2,5.9,4,8.2c1.8,2.3,4.1,3.9,7,5.2c2.8,1.2,6.2,1.8,10.2,1.8c3.9,0,7.4-0.7,10.4-2s5.4-3.2,7.4-5.6
			c1.9-2.4,3.4-4.7,4.4-8.2c0.3-1.1,0.5-2.7,0.8-2.7H337.6z"/>
		<path d="M303.2,147.1c0.2-1,0.4-2.8,0.7-4.2c0.6-2.7,1.6-5.1,3-7.1c1.4-2.1,3.2-3.7,5.5-4.9c2.3-1.2,5-1.8,8.3-1.8
			c3.3,0,6.1,0.6,8.3,1.8c2.2,1.2,4,2.8,5.4,4.8c1.4,2,2.3,4.3,2.9,7.1c0.3,1.4,0.5,3.4,0.7,4.4h5.4c-0.2-1-0.6-4.9-1.2-7.1
			c-0.9-3.3-2.3-6-4.1-8.3c-1.8-2.3-4.2-4-7-5.3c-2.8-1.2-6.2-1.8-10-1.8c-4,0-7.4,0.7-10.4,2c-2.9,1.3-5.4,3.2-7.4,5.6
			c-2,2.4-3.4,5.2-4.4,8.6c-0.6,2-1,5.4-1.2,6.4H303.2z"/>
	</g>
</g>
</svg>
