<?xml version="1.0" encoding="utf-8"?>
<!-- Generator: Adobe Illustrator 19.1.0, SVG Export Plug-In . SVG Version: 6.00 Build 0)  -->
<svg version="1.1" id="Layer_1" xmlns="http://www.w3.org/2000/svg" xmlns:xlink="http://www.w3.org/1999/xlink" x="0px" y="0px"
	 viewBox="0 0 450 300" style="enable-background:new 0 0 450 300;" xml:space="preserve">
<style type="text/css">
	.st0{fill:#4D4D4D;}
	.st1{fill:#FCBD10;}
	.st2{fill:#F38034;}
	.st3{fill:#B4406B;}
	.st4{fill:#658DC8;}
	.st5{opacity:0.5;}
	.st6{fill:none;}
	.st7{fill:#FFFFFF;}
	.st8{fill:#4D7092;}
	.st9{fill:#B66228;}
	.st10{fill:#C3902C;}
	.st11{fill:#7D3057;}
	.st12{fill:#333333;}
	.st13{fill:#E74E37;}
	.st14{opacity:0.8;}
	.st15{fill:#7C2C24;}
	.st16{fill:#FFE666;}
	.st17{opacity:0.4;}
	.st18{fill:#80D1EA;}
	.st19{fill:#231F20;}
	.st20{fill:#EC1C24;}
	.st21{fill:#DE271E;}
	.st22{fill:#E1AA1F;}
	.st23{fill:#C28214;}
	.st24{fill:none;stroke:#12100B;stroke-width:1.5;stroke-miterlimit:10;}
	.st25{fill:#BBE020;}
	.st26{fill:#52561B;}
	.st27{fill:#804000;}
	.st28{fill:#575756;}
	.st29{fill:#58BEEC;}
	.st30{fill:#3DAEF4;}
	.st31{fill:#FFB300;}
	.st32{fill:#FFFF00;}
	.st33{fill:#FF4D3B;}
	.st34{fill:#C757FF;}
	.st35{fill:url(#SVGID_1_);}
	.st36{opacity:0.8;fill:url(#SVGID_2_);}
	.st37{fill:url(#SVGID_3_);}
	.st38{fill:#7CFF1D;}
	.st39{opacity:0.9;fill:url(#SVGID_4_);}
	.st40{fill:#33BFFF;}
	.st41{fill:url(#SVGID_5_);}
	.st42{fill:#9D2DA0;}
	.st43{fill:#631D66;}
	.st44{fill:#E4AEED;}
</style>
<g>
	<g>
		<path class="st30" d="M169,196.3h7.6c4.6,0,8,2.9,8,8.7c0,5.1-2.6,8.9-8,8.9H169V196.3z M172.8,210.6h3.5c2.2,0,4.4-1.4,4.4-5.3
			c0-3.6-1.2-5.8-5.1-5.8h-2.8V210.6z"/>
		<path class="st30" d="M190.5,199.1H187v-2.9h3.5V199.1z M187,201.1h3.5v12.8H187V201.1z"/>
		<path class="st30" d="M193.3,201.1h3.3v1.6h0c0.8-1.4,2.2-2,3.8-2c4,0,5.8,3.2,5.8,6.9c0,3.4-1.9,6.6-5.6,6.6
			c-1.5,0-3-0.7-3.8-1.9h0v6.1h-3.5V201.1z M202.8,207.5c0-2-0.8-4.1-3.1-4.1c-2.3,0-3,2.1-3,4.1c0,2.1,0.8,4.1,3.1,4.1
			C202,211.6,202.8,209.6,202.8,207.5z"/>
		<path class="st30" d="M220.4,213.9H217v-1.8H217c-0.9,1.4-2.4,2.1-3.9,2.1c-3.7,0-4.7-2.1-4.7-5.3v-7.9h3.5v7.2
			c0,2.1,0.6,3.1,2.3,3.1c1.9,0,2.7-1.1,2.7-3.7v-6.7h3.5V213.9z"/>
		<path class="st30" d="M227.5,201.1h2.6v2.3h-2.6v6.3c0,1.2,0.3,1.5,1.5,1.5c0.4,0,0.7,0,1.1-0.1v2.7c-0.6,0.1-1.4,0.1-2.1,0.1
			c-2.2,0-4-0.5-4-3v-7.5h-2.1v-2.3h2.1v-3.8h3.5V201.1z"/>
		<path class="st30" d="M231.6,205.1c0.2-3.3,3.1-4.3,6-4.3c2.5,0,5.6,0.6,5.6,3.6v6.7c0,1.2,0.1,2.3,0.4,2.8h-3.6
			c-0.1-0.4-0.2-0.8-0.2-1.2c-1.1,1.2-2.7,1.6-4.3,1.6c-2.4,0-4.4-1.2-4.4-3.8c0-2.9,2.2-3.6,4.4-3.9c2.2-0.3,4.2-0.2,4.2-1.7
			c0-1.5-1-1.7-2.3-1.7c-1.3,0-2.2,0.5-2.3,1.9H231.6z M239.7,207.6c-0.6,0.5-1.8,0.5-2.9,0.7c-1.1,0.2-2.1,0.6-2.1,1.9
			c0,1.3,1,1.6,2.2,1.6c2.7,0,2.8-2.2,2.8-2.9V207.6z"/>
		<path class="st30" d="M255.1,212.3L255.1,212.3c-0.9,1.4-2.3,2-3.9,2c-3.9,0-5.7-3.3-5.7-6.8c0-3.4,1.9-6.6,5.7-6.6
			c1.5,0,3,0.6,3.8,1.9h0v-6.4h3.5v17.7h-3.3V212.3z M252,203.4c-2.3,0-3.1,2-3.1,4.1c0,2,0.9,4.1,3.1,4.1c2.3,0,3-2,3-4.1
			C255,205.4,254.3,203.4,252,203.4z"/>
		<path class="st30" d="M267.2,200.8c4,0,6.6,2.7,6.6,6.7c0,4.1-2.6,6.7-6.6,6.7c-4,0-6.6-2.7-6.6-6.7
			C260.6,203.4,263.2,200.8,267.2,200.8z M267.2,211.6c2.4,0,3.1-2.1,3.1-4.1c0-2.1-0.7-4.1-3.1-4.1c-2.4,0-3.1,2.1-3.1,4.1
			C264.2,209.6,264.9,211.6,267.2,211.6z"/>
		<path class="st30" d="M278.9,209.7c0,1.5,1.3,2.2,2.7,2.2c1,0,2.3-0.4,2.3-1.6c0-1.1-1.5-1.4-4-2c-2-0.4-4.1-1.2-4.1-3.4
			c0-3.3,2.8-4.1,5.6-4.1c2.8,0,5.4,0.9,5.6,4.1h-3.3c-0.1-1.4-1.1-1.7-2.4-1.7c-0.8,0-2,0.1-2,1.2c0,1.3,2,1.4,4,1.9
			c2.1,0.5,4.1,1.2,4.1,3.6c0,3.4-2.9,4.5-5.8,4.5c-3,0-5.9-1.1-6-4.5H278.9z"/>
		<path class="st30" d="M169,220.2h7.5c3,0,5.7,1,5.7,4.3c0,1.9-1.2,3.6-3.1,4v0c2.3,0.3,3.7,2,3.7,4.3c0,1.7-0.6,5-6.3,5H169V220.2
			z M170.7,228h5.8c2.7,0,4-1.3,4-3c0-2.2-1.4-3.3-4-3.3h-5.8V228z M170.7,236.5h5.8c2.5,0,4.6-0.8,4.6-3.6c0-2.2-1.7-3.4-4.6-3.4
			h-5.8V236.5z"/>
		<path class="st30" d="M196.7,231.5c0,3.7-2.1,6.7-6,6.7c-3.9,0-6-3.1-6-6.7c0-3.7,2.1-6.7,6-6.7
			C194.5,224.8,196.7,227.9,196.7,231.5z M186.1,231.5c0,2.7,1.5,5.4,4.5,5.4c3,0,4.5-2.7,4.5-5.4c0-2.7-1.5-5.4-4.5-5.4
			C187.6,226.1,186.1,228.8,186.1,231.5z"/>
		<path class="st30" d="M198.9,225.1h1.6v2.2h0c0.6-1.5,2.3-2.6,4.1-2.6c3.6,0,4.7,1.9,4.7,4.9v8.2h-1.6v-8c0-2.2-0.7-3.9-3.2-3.9
			c-2.5,0-4,1.9-4,4.4v7.4h-1.6V225.1z"/>
		<path class="st30" d="M212.1,229c0.1-3,2.2-4.3,5.2-4.3c2.3,0,4.7,0.7,4.7,4.1v6.8c0,0.6,0.3,0.9,0.9,0.9c0.2,0,0.4,0,0.5-0.1v1.3
			c-0.3,0.1-0.6,0.1-1,0.1c-1.6,0-1.8-0.9-1.8-2.2h0c-1.1,1.7-2.2,2.6-4.6,2.6c-2.3,0-4.3-1.2-4.3-3.7c0-3.6,3.5-3.7,6.8-4.1
			c1.3-0.1,2-0.3,2-1.7c0-2.1-1.5-2.6-3.3-2.6c-1.9,0-3.4,0.9-3.4,3H212.1z M220.4,230.9L220.4,230.9c-0.2,0.4-0.9,0.5-1.4,0.6
			c-2.6,0.5-5.9,0.4-5.9,2.9c0,1.6,1.4,2.5,2.8,2.5c2.4,0,4.5-1.5,4.4-4V230.9z"/>
		<path class="st30" d="M226,231.9c0,2.3,1.2,5,4.2,5c2.3,0,3.5-1.3,4-3.3h1.6c-0.7,2.9-2.3,4.6-5.6,4.6c-4.1,0-5.8-3.1-5.8-6.7
			c0-3.4,1.7-6.7,5.8-6.7c4.1,0,5.7,3.6,5.6,7.2H226z M234.2,230.6c-0.1-2.3-1.5-4.5-4.1-4.5c-2.5,0-4,2.2-4.2,4.5H234.2z"/>
		<path class="st30" d="M237.9,225.1h1.4v3h0c0.8-2.1,2.5-3.3,4.8-3.2v1.6c-2.8-0.1-4.7,1.9-4.7,4.6v6.8h-1.6V225.1z"/>
		<path class="st30" d="M246.2,231.9c0,2.3,1.2,5,4.2,5c2.3,0,3.5-1.3,4-3.3h1.6c-0.7,2.9-2.3,4.6-5.6,4.6c-4.1,0-5.8-3.1-5.8-6.7
			c0-3.4,1.7-6.7,5.8-6.7c4.1,0,5.7,3.6,5.6,7.2H246.2z M254.4,230.6c-0.1-2.3-1.5-4.5-4.1-4.5c-2.5,0-4,2.2-4.2,4.5H254.4z"/>
		<path class="st30" d="M258,225.1h1.6v2.2h0c0.6-1.5,2.3-2.6,4.1-2.6c3.6,0,4.7,1.9,4.7,4.9v8.2h-1.6v-8c0-2.2-0.7-3.9-3.2-3.9
			c-2.5,0-4,1.9-4,4.4v7.4H258V225.1z"/>
		<path class="st30" d="M279,228.9c-0.1-1.9-1.6-2.8-3.3-2.8c-1.4,0-3,0.5-3,2.2c0,1.4,1.6,1.9,2.6,2.2l2.1,0.5
			c1.8,0.3,3.6,1.3,3.6,3.5c0,2.8-2.7,3.8-5.1,3.8c-3,0-5-1.4-5.2-4.5h1.6c0.1,2.1,1.7,3.2,3.8,3.2c1.5,0,3.5-0.6,3.5-2.4
			c0-1.5-1.4-2-2.8-2.3l-2-0.4c-2-0.5-3.6-1.2-3.6-3.4c0-2.6,2.5-3.6,4.8-3.6c2.5,0,4.6,1.3,4.7,4.1H279z"/>
		<path class="st30" d="M284.2,231.9c0,2.3,1.2,5,4.2,5c2.3,0,3.5-1.3,4-3.3h1.6c-0.7,2.9-2.3,4.6-5.6,4.6c-4.1,0-5.8-3.1-5.8-6.7
			c0-3.4,1.7-6.7,5.8-6.7c4.1,0,5.7,3.6,5.6,7.2H284.2z M292.4,230.6c-0.1-2.3-1.5-4.5-4.1-4.5c-2.5,0-4,2.2-4.2,4.5H292.4z"/>
		<path class="st30" d="M303.7,228.9c-0.1-1.9-1.6-2.8-3.3-2.8c-1.4,0-3,0.5-3,2.2c0,1.4,1.6,1.9,2.6,2.2l2.1,0.5
			c1.8,0.3,3.6,1.3,3.6,3.5c0,2.8-2.7,3.8-5.1,3.8c-3,0-5-1.4-5.2-4.5h1.6c0.1,2.1,1.7,3.2,3.8,3.2c1.5,0,3.5-0.6,3.5-2.4
			c0-1.5-1.4-2-2.8-2.3l-2-0.4c-2-0.5-3.6-1.2-3.6-3.4c0-2.6,2.5-3.6,4.8-3.6c2.5,0,4.6,1.3,4.7,4.1H303.7z"/>
	</g>
	<path class="st30" d="M169.9,63h51.3c38.1,0,54.6,27.7,54.6,61.9c0,34.1-16.5,61.9-54.6,61.9h-51.3V63z"/>
	<path class="st7" d="M192.7,91.8c5.1-0.1,10.2-0.2,15.3-0.2c1,0,1.6-0.3,2.2-1.1c1.8-2.4,3.8-4.6,5.6-7c0.7-0.9,1.4-1.3,2.5-1.2
		c1.8,0.2,3.3-0.1,4.2-1.9c0.7-1.3,1.5-0.1,2.2,0c3.1,1,5.8,2.6,8.3,4.5c1.7,1.3,3.4,2.6,5.6,3c2,0.4,2.3,0.8,2.2,3
		c-0.1,1.5,0.4,2.6,1.5,3.6c2.1,1.9,3.9,4.1,6.1,5.8c1.7,1.3,1.9,3.4,1.6,5.2c-0.4,2.7-0.2,5.2,0.5,7.7c0.3,1.1,0.7,1.6,1.9,1.6
		c2.4,0,2.6,0.5,2.5,3c-0.1,3-1,5.7-3,8c-1.7,2.1-3.2,4.4-4.7,6.6c-0.2,0.3-0.3,0.6-0.6,0.7c-3.1,1.8-5.3,4.7-8.9,6.1
		c-4.7,1.9-9.6,3.2-14.5,4.6c-2.3,0.6-4.6,0.6-6.9,0.3c-2.9-0.3-5.8,0-8.8-0.5c-1.3-0.2-2.4-0.6-3.6-1.1c-0.6-0.3-1.2-0.9-2-0.3
		c-0.7,0.6-0.5,1.2-0.5,2c0.1,2.5,1.1,4.7,2,6.9c0.4,1,0.5,1.9-0.5,2.6c-0.6,0.4-0.8,1.1-1,1.8c-0.3,1.1-0.6,2.1-1,3.1
		c-0.6,1.6-0.8,3.1,0.5,4.5c0.7,0.8,0.6,1.7,0,2.6c-0.7,1-1.4,2.1-2.2,3.1c-0.8,1.1-1.5,1.1-2.5,0.2c-1.2-1.1-2.3-2.3-3.6-3.3
		c-1.2-0.9-1.6-2.1-1.6-3.5c0-11.4,0-22.8,0-34.2c0-5.6,0.2-11.2,0.4-16.8c0.2-6.2,0.1-12.4,0.2-18.7
		C192.5,92.4,192.4,92.1,192.7,91.8z"/>
</g>
</svg>
