<?xml version="1.0" encoding="utf-8"?>
<!-- Generator: Adobe Illustrator 19.1.0, SVG Export Plug-In . SVG Version: 6.00 Build 0)  -->
<svg version="1.1" id="Layer_1" xmlns="http://www.w3.org/2000/svg" xmlns:xlink="http://www.w3.org/1999/xlink" x="0px" y="0px"
	 viewBox="0 0 450 300" style="enable-background:new 0 0 450 300;" xml:space="preserve">
<style type="text/css">
	.st0{fill:#4D4D4D;}
	.st1{fill:#FCBD10;}
	.st2{fill:#F38034;}
	.st3{fill:#B4406B;}
	.st4{fill:#658DC8;}
	.st5{opacity:0.5;}
	.st6{fill:none;}
	.st7{fill:#FFFFFF;}
	.st8{fill:#4D7092;}
	.st9{fill:#B66228;}
	.st10{fill:#C3902C;}
	.st11{fill:#7D3057;}
	.st12{fill:#333333;}
	.st13{fill:#E74E37;}
	.st14{opacity:0.8;}
	.st15{fill:#7C2C24;}
	.st16{fill:#FFE666;}
	.st17{opacity:0.4;}
	.st18{fill:#80D1EA;}
	.st19{fill:#231F20;}
	.st20{fill:#EC1C24;}
	.st21{fill:#DE271E;}
	.st22{fill:#E1AA1F;}
	.st23{fill:#C28214;}
	.st24{fill:none;stroke:#12100B;stroke-width:1.5;stroke-miterlimit:10;}
	.st25{fill:#BBE020;}
	.st26{fill:#52561B;}
	.st27{fill:#804000;}
	.st28{fill:#575756;}
	.st29{fill:#58BEEC;}
	.st30{fill:#3DAEF4;}
	.st31{fill:#5D5D5D;}
	.st32{font-family:'Helvetica';}
	.st33{font-size:22.1574px;}
	.st34{font-family:'Helvetica-Bold';}
	.st35{font-size:24.7285px;}
	.st36{fill:#FFB300;}
	.st37{fill:#FFFF00;}
	.st38{fill:#FF4D3B;}
	.st39{fill:#C757FF;}
	.st40{fill:url(#SVGID_1_);}
	.st41{opacity:0.8;fill:url(#SVGID_2_);}
	.st42{fill:url(#SVGID_3_);}
	.st43{fill:#7CFF1D;}
	.st44{opacity:0.9;fill:url(#SVGID_4_);}
	.st45{fill:#33BFFF;}
	.st46{fill:url(#SVGID_5_);}
	.st47{fill:#9D2DA0;}
	.st48{fill:#631D66;}
	.st49{fill:#E4AEED;}
</style>
<g>
	<text transform="matrix(1 0 0 1 149.4907 260.2553)"><tspan x="0" y="0" class="st31 st32 st33">LaPlata.</tspan><tspan x="81.3" y="0" class="st31 st34 st35">DEV</tspan></text>
	<g>
		<path class="st36" d="M248.7,68.7c49.3,49.3,2.1,89.1,2.1,89.1l-44.4,44.4l20.8,20.8l44.2-44.4c0,0,45-42.4-1.8-89.2L248.7,68.7z"
			/>
		<path class="st37" d="M248.1,202c49.3-49.3,2.8-89.7,2.8-89.7l-44-44.1l21.2-21l43.9,44.2c0,0,44.8,42.4-2,89.2L248.1,202z"/>
		
			<rect x="179.1" y="106.9" transform="matrix(0.7071 -0.7071 0.7071 0.7071 -62.5466 186.5398)" class="st38" width="29.6" height="123.7"/>
		
			<rect x="186.8" y="72.1" transform="matrix(-0.7071 -0.7071 0.7071 -0.7071 277.4008 303.9202)" class="st39" width="29.6" height="44.8"/>
		
			<linearGradient id="SVGID_1_" gradientUnits="userSpaceOnUse" x1="149.4311" y1="124.2204" x2="134.7412" y2="109.5305" gradientTransform="matrix(0.9394 -6.062211e-002 -6.062211e-002 0.9394 51.2352 51.2352)">
			<stop  offset="0" style="stop-color:#FF4D3B"/>
			<stop  offset="0.4409" style="stop-color:#FD4C3B"/>
			<stop  offset="0.5997" style="stop-color:#F64939"/>
			<stop  offset="0.7128" style="stop-color:#EB4337"/>
			<stop  offset="0.8037" style="stop-color:#DA3B34"/>
			<stop  offset="0.8817" style="stop-color:#C43030"/>
			<stop  offset="1" style="stop-color:#6B2F2F"/>
		</linearGradient>
		<polygon class="st40" points="194.6,148.4 173.6,169.3 160.7,156.4 181.6,135.5 		"/>
		
			<linearGradient id="SVGID_2_" gradientUnits="userSpaceOnUse" x1="94.6582" y1="201.4947" x2="109.348" y2="186.8048" gradientTransform="matrix(0.9874 1.256137e-002 1.256137e-002 0.9874 107.15 -107.15)">
			<stop  offset="0.7151" style="stop-color:#C757FF"/>
			<stop  offset="0.8167" style="stop-color:#C556FD"/>
			<stop  offset="0.861" style="stop-color:#BF54F6"/>
			<stop  offset="0.8942" style="stop-color:#B550E9"/>
			<stop  offset="0.9218" style="stop-color:#A74AD7"/>
			<stop  offset="0.946" style="stop-color:#9443C0"/>
			<stop  offset="0.9678" style="stop-color:#7C39A3"/>
			<stop  offset="0.9873" style="stop-color:#612E82"/>
			<stop  offset="1" style="stop-color:#4C2668"/>
		</linearGradient>
		<polygon class="st41" points="213.6,103.5 192.7,82.5 207,68.2 228,89.2 		"/>
		
			<linearGradient id="SVGID_3_" gradientUnits="userSpaceOnUse" x1="968.8989" y1="-4715.4429" x2="980.8914" y2="-4727.4351" gradientTransform="matrix(2.542244e-002 -0.9904 0.9908 -6.116409e-003 4923.0732 1048.8741)">
			<stop  offset="0" style="stop-color:#FFFF00"/>
			<stop  offset="0.3055" style="stop-color:#FFFC00"/>
			<stop  offset="0.5083" style="stop-color:#FFF300"/>
			<stop  offset="0.5699" style="stop-color:#FFEF00"/>
			<stop  offset="0.7143" style="stop-color:#FDED00"/>
			<stop  offset="0.7842" style="stop-color:#F7E500"/>
			<stop  offset="0.8381" style="stop-color:#EBD800"/>
			<stop  offset="0.8838" style="stop-color:#DBC600"/>
			<stop  offset="0.9243" style="stop-color:#C6AE00"/>
			<stop  offset="0.9611" style="stop-color:#AD9001"/>
			<stop  offset="0.9945" style="stop-color:#8F6E01"/>
			<stop  offset="1" style="stop-color:#896701"/>
		</linearGradient>
		<path class="st42" d="M284.9,109.2l-22,18.2c0,0-2-3.4-4.1-6.3s-4.3-5.2-4.3-5.2l21.1-20.7c0,0,2.5,2.9,5,6.8
			C281.9,103.9,284.9,109.2,284.9,109.2z"/>
		<polygon class="st43" points="175.2,99.7 196.2,120.7 160.6,156.5 139.7,135.5 		"/>
		
			<linearGradient id="SVGID_4_" gradientUnits="userSpaceOnUse" x1="-575.0663" y1="870.9762" x2="-560.3765" y2="856.2863" gradientTransform="matrix(0.8871 0.1129 0.1129 0.8871 586.0768 -586.0769)">
			<stop  offset="0" style="stop-color:#7CFF1D"/>
			<stop  offset="0.3886" style="stop-color:#7BFD1D"/>
			<stop  offset="0.5543" style="stop-color:#79F61D"/>
			<stop  offset="0.6772" style="stop-color:#74E91D"/>
			<stop  offset="0.7634" style="stop-color:#6FDB1D"/>
			<stop  offset="0.8004" style="stop-color:#6DD61D;stop-opacity:0.9844"/>
			<stop  offset="0.8424" style="stop-color:#66C91D;stop-opacity:0.9666"/>
			<stop  offset="0.8869" style="stop-color:#5CB21D;stop-opacity:0.9478"/>
			<stop  offset="0.9331" style="stop-color:#4D921D;stop-opacity:0.9283"/>
			<stop  offset="0.9803" style="stop-color:#3A691D;stop-opacity:0.9083"/>
			<stop  offset="1" style="stop-color:#31561D;stop-opacity:0.9"/>
		</linearGradient>
		<polygon class="st44" points="184.8,132.1 163.8,111.1 175.2,99.7 196.2,120.7 		"/>
		<polygon class="st45" points="254.5,115.9 207,68.2 228.2,47.2 275.8,95 		"/>
		
			<linearGradient id="SVGID_5_" gradientUnits="userSpaceOnUse" x1="400.4894" y1="-5090.1748" x2="385.7787" y2="-5104.8857" gradientTransform="matrix(-5.559218e-002 -0.9343 0.9343 5.559218e-002 5028.8999 835.9028)">
			<stop  offset="0" style="stop-color:#FFB300"/>
			<stop  offset="0.6879" style="stop-color:#FFB300"/>
			<stop  offset="0.8065" style="stop-color:#FFB300"/>
			<stop  offset="0.8356" style="stop-color:#FAAF01"/>
			<stop  offset="0.8722" style="stop-color:#EAA205"/>
			<stop  offset="0.9128" style="stop-color:#D08E0A"/>
			<stop  offset="0.9564" style="stop-color:#AD7212"/>
			<stop  offset="1" style="stop-color:#814F1C"/>
		</linearGradient>
		<path class="st46" d="M240.2,168.3l19.6,19.7c0-0.3-2.9,4.2-5.1,6.7c-2.7,3.1-7,7.7-6.7,7.3l-20.8-20.8L240.2,168.3z"/>
	</g>
</g>
</svg>
