<?xml version="1.0" encoding="utf-8"?>
<!-- Generator: Adobe Illustrator 19.1.0, SVG Export Plug-In . SVG Version: 6.00 Build 0)  -->
<svg version="1.1" id="Layer_1" xmlns="http://www.w3.org/2000/svg" xmlns:xlink="http://www.w3.org/1999/xlink" x="0px" y="0px"
	 viewBox="0 0 450 300" style="enable-background:new 0 0 450 300;" xml:space="preserve">
<style type="text/css">
	.st0{fill:#4D4D4D;}
	.st1{fill:#FCBD10;}
	.st2{fill:#F38034;}
	.st3{fill:#B4406B;}
	.st4{fill:#658DC8;}
	.st5{opacity:0.5;}
	.st6{fill:none;}
	.st7{fill:#FFFFFF;}
	.st8{fill:#4D7092;}
	.st9{fill:#B66228;}
	.st10{fill:#C3902C;}
	.st11{fill:#7D3057;}
	.st12{fill:#333333;}
	.st13{fill:#E74E37;}
	.st14{opacity:0.4;}
	.st15{fill:#7C2C24;}
	.st16{fill:#FFE666;}
	.st17{fill:#80D1EA;}
	.st18{fill:#231F20;}
	.st19{fill:#EC1C24;}
	.st20{fill:#DE271E;}
	.st21{fill:#E1AA1F;}
	.st22{fill:#C28214;}
	.st23{fill:none;stroke:#12100B;stroke-width:1.5;stroke-miterlimit:10;}
	.st24{fill:#BBE020;}
	.st25{fill:#52561B;}
	.st26{fill:#804000;}
	.st27{fill:#575756;}
	.st28{fill:#58BEEC;}
	.st29{fill:#3DAEF4;}
	.st30{fill:#FFB300;}
	.st31{fill:#FFFF00;}
	.st32{fill:#FF4D3B;}
	.st33{fill:#C757FF;}
	.st34{fill:url(#SVGID_1_);}
	.st35{opacity:0.8;fill:url(#SVGID_2_);}
	.st36{fill:url(#SVGID_3_);}
	.st37{fill:#7CFF1D;}
	.st38{opacity:0.9;fill:url(#SVGID_4_);}
	.st39{fill:#33BFFF;}
	.st40{fill:url(#SVGID_5_);}
	.st41{fill:#9D2DA0;}
	.st42{fill:#631D66;}
	.st43{fill:#E4AEED;}
</style>
<path class="st13" d="M427,97.9c0-5.5-4.5-10-10-10H33.9c-5.5,0-10,4.5-10,10v97.8c0,5.5,4.5,10,10,10H417c5.5,0,10-4.5,10-10V97.9z
	"/>
<g>
	<g class="st14">
		<path class="st15" d="M179.4,166.5c0-0.7-0.6-0.6-0.6-0.6c-0.2,0-0.4,0-0.4,0c-1-0.1-3.1-2-0.7-7.6c2.4-5.6,0.3-9-2.3-9.8
			c-3.1-1-5.6,1.5-5.6,1.5c-0.2,0.2-0.3,0.3-0.5,0.5c-0.3,0.4-0.6,0.7-0.8,1.1c-0.2,0.4-0.5,0.7-0.6,1.1c-0.2,0.4-0.4,0.7-0.6,1.1
			c-0.3,0.7-0.6,1.5-0.9,2.3c-0.1,0.4-0.2,0.8-0.3,1.2c0,0-0.8,3.3-3.9,6.4c-0.2,0.2-1.4,1.1-1.8,0.8c-0.3-0.3,0.6-1.5,0.6-1.5
			c0.2-0.2,0.3-0.5,0.5-0.7c0.3-0.4,0.5-0.8,0.8-1.1c0.2-0.4,0.4-0.8,0.6-1.2c0-0.1,0-0.1,0.1-0.2c0-0.1,0-0.1,0.1-0.1
			c0-0.1,0-0.1,0.1-0.2c0,0,0-0.1,0.1-0.1c0-0.1,0.1-0.2,0.1-0.4c0,0,0-0.1,0.1-0.2c0-0.1,0-0.1,0.1-0.2l0.2-0.7
			c0-0.1,0.1-0.3,0.1-0.4c0-0.1,0-0.2,0.1-0.3c0-0.1,0-0.2,0.1-0.4c0-0.1,0-0.2,0.1-0.4c0-0.1,0-0.3,0-0.4c0-0.1,0-0.2,0-0.4
			c0-0.5,0-1,0-1.5c0-0.3-0.1-0.5-0.1-0.8c0-0.3-0.1-0.5-0.2-0.8c-0.1-0.5-0.3-1-0.6-1.5c-0.1-0.1-0.1-0.3-0.2-0.4
			c-0.1-0.1-0.2-0.2-0.2-0.4c-0.1-0.1-0.2-0.2-0.3-0.3c-0.1-0.1-0.2-0.2-0.3-0.3c-0.2-0.2-0.5-0.4-0.7-0.5c-0.3-0.2-0.6-0.3-0.9-0.4
			c-0.2,0-0.3-0.1-0.5-0.1c-0.1,0-0.3,0-0.5-0.1c-0.1,0-0.1,0-0.2,0c-0.1,0-0.2,0-0.2,0h0h0h0h-0.1h-0.1c0,0-0.1,0-0.1,0
			c0,0-0.1,0-0.1,0c-0.3,0.1-0.6,0.2-0.9,0.3c-0.1,0.1-0.2,0.1-0.4,0.2c-0.1,0.1-0.2,0.1-0.3,0.2c-0.2,0.2-0.4,0.3-0.6,0.5
			c-0.2,0.2-0.3,0.3-0.5,0.5c-0.3,0.3-0.6,0.6-0.9,1c-0.1,0.1-0.1,0.2-0.2,0.2c-0.1,0.1-0.1,0.2-0.2,0.3c-0.1,0.1-0.2,0.2-0.2,0.2
			c-0.1,0.1-0.1,0.2-0.2,0.3c-0.1,0.2-0.3,0.3-0.4,0.5c-0.1,0.2-0.2,0.4-0.3,0.5c-0.3,0.4-0.5,0.7-0.7,1.1c-0.1,0.2-0.2,0.4-0.3,0.6
			c-0.1,0.2-0.2,0.4-0.3,0.5c-0.1,0.1-0.2,0.3-0.2,0.4c-0.1,0.1-0.1,0.3-0.2,0.4c0-0.2,0.1-0.4,0.1-0.6c0-0.2,0.1-0.4,0.1-0.6
			l0.2-0.9c0-0.2,0.1-0.3,0.1-0.5c0-0.2,0-0.3,0.1-0.4l0.2-0.9l0.2-0.9c0-0.2,0-0.3,0.1-0.5c0-0.2,0-0.3,0.1-0.5l0.1-0.5l0-0.2
			c0-0.1,0-0.2,0-0.3c0-0.5-0.1-0.9-0.4-1.4c-0.3-0.4-0.7-0.7-1.2-0.8c-0.5-0.1-1-0.1-1.5,0.2c-0.5,0.3-0.7,0.7-0.9,1.2l0,0.1
			l-0.4,1.7l-0.4,1.7l-0.4,1.8l-0.4,1.8c-0.1,0.6-0.2,1.1-0.4,1.7c-0.2,1.2-2.4,8.5-5.8,8.1c-1-0.1-3.1-2-0.7-7.6
			c2.4-5.6,0.3-9-2.3-9.8c-3.1-1-5.6,1.5-5.6,1.5c-0.2,0.2-0.3,0.3-0.5,0.5c-0.3,0.4-0.6,0.7-0.8,1.1c-0.2,0.4-0.5,0.7-0.6,1.1
			c-0.2,0.4-0.4,0.7-0.6,1.1c-0.3,0.7-0.6,1.5-0.9,2.3c-0.1,0.4-0.2,0.8-0.3,1.2c0,0-1.1,4.8-6.2,8.2c-2.9,1.9,0.8-5.1,0.8-5.1
			c0.2-0.4,0.4-0.9,0.7-1.3c0.2-0.5,0.4-0.9,0.7-1.4c0.1-0.2,0.2-0.5,0.3-0.7c0.1-0.2,0.2-0.5,0.3-0.7c0.1-0.2,0.2-0.5,0.3-0.7
			c0.1-0.3,0.2-0.5,0.3-0.8c0.1-0.3,0.2-0.6,0.3-0.8c0.1-0.3,0.2-0.6,0.3-0.9c0-0.2,0.1-0.3,0.1-0.5c0-0.2,0-0.3,0.1-0.5
			c0-0.1,0-0.2,0-0.3c0-0.1,0-0.2,0-0.3c0-0.1,0-0.2,0-0.3c0-0.1,0-0.2,0-0.4c0-0.2-0.1-0.5-0.2-0.9c0-0.1,0-0.2-0.1-0.3
			c0-0.1-0.1-0.2-0.1-0.3c0-0.1-0.1-0.2-0.1-0.3c-0.1-0.1-0.1-0.2-0.2-0.3c-0.1-0.2-0.3-0.4-0.5-0.6c-0.2-0.2-0.4-0.3-0.6-0.5
			c-0.2-0.1-0.5-0.2-0.7-0.3c-0.1,0-0.2-0.1-0.3-0.1c-0.1,0-0.2,0-0.3,0c-0.1,0-0.2,0-0.3,0h-0.1h-0.1h0h0h0H123c0,0-0.1,0-0.2,0
			c-0.1,0-0.3,0-0.4,0c-0.1,0-0.2,0-0.4,0.1c-0.2,0-0.5,0.1-0.6,0.2c-0.2,0.1-0.4,0.2-0.6,0.3c-0.3,0.2-0.7,0.4-0.9,0.6
			c-0.1,0.1-0.3,0.2-0.4,0.4c-0.1,0.1-0.2,0.3-0.3,0.4c-0.4,0.5-0.7,1-1,1.5c0,0.1-0.1,0.1-0.1,0.2c0,0.1-0.1,0.1-0.1,0.2l-0.2,0.4
			c-0.1,0.1-0.1,0.3-0.2,0.4c-0.1,0.1-0.1,0.2-0.2,0.4c-0.1,0.2-0.3,0.5-0.4,0.7c-0.1,0.2-0.3,0.5-0.4,0.7c-0.1,0.2-0.2,0.5-0.4,0.7
			c-0.1,0.2-0.2,0.4-0.3,0.6c0,0,0-0.1,0-0.1c0-0.2,0.1-0.4,0.1-0.6c0-0.2,0.1-0.4,0.1-0.6c0-0.2,0.1-0.4,0.1-0.6c0-0.2,0-0.4,0-0.7
			c0-0.1,0-0.2,0-0.3c0-0.1,0-0.2,0-0.3c0-0.1,0-0.3,0-0.4c0-0.1,0-0.3,0-0.4c0-0.1,0-0.3-0.1-0.4c0-0.2-0.1-0.3-0.1-0.5
			c-0.1-0.3-0.3-0.7-0.5-1.1c-0.1-0.1-0.2-0.2-0.3-0.3c-0.1-0.1-0.2-0.2-0.3-0.3c-0.2-0.2-0.5-0.4-0.8-0.5c-0.3-0.1-0.5-0.2-0.8-0.2
			h-0.2h-0.1h-0.1h0h0h-0.1h-0.2c-0.2,0-0.4,0.1-0.6,0.2c-0.2,0.1-0.4,0.1-0.5,0.2c-0.2,0.1-0.3,0.2-0.4,0.3
			c-0.1,0.1-0.2,0.2-0.3,0.3c0,0-0.1,0.1-0.1,0.1c0,0.1-0.1,0.1-0.1,0.2c-0.1,0.1-0.1,0.2-0.2,0.3l-0.5,0.5l-0.2,0.3
			c0,0-0.1,0.1-0.1,0.1c0,0-0.1,0.1-0.1,0.1c0,0.1-0.1,0.2-0.2,0.3c-0.1,0.1-0.1,0.2-0.2,0.3c-0.2,0.4-0.4,0.7-0.6,1
			c-0.1,0.2-0.2,0.3-0.3,0.5c-0.1,0.2-0.2,0.3-0.3,0.5c-0.2,0.4-0.3,0.7-0.5,1c-0.2,0.3-0.3,0.7-0.5,1.1c-0.1,0.2-0.2,0.3-0.2,0.5
			c-0.1,0.2-0.1,0.3-0.2,0.5c-0.2,0.3-0.3,0.7-0.4,1l1.3-7.2c0.1-0.4,0-0.8-0.2-1.1c-0.2-0.3-0.5-0.6-0.9-0.7
			c-0.4-0.1-0.8-0.1-1.2,0.1c-0.4,0.2-0.6,0.5-0.7,0.9l-4.3,15.5c0,0,0,0.1,0,0.1c0,0,0,0.1,0,0.1c-0.1,0.6,0,1.2,0.4,1.7
			c0.3,0.5,0.8,0.8,1.5,0.9s1.2,0,1.7-0.4c0.5-0.3,0.8-0.8,0.9-1.5l0-0.2v0l0.2-0.5c0.1-0.2,0.1-0.3,0.2-0.5
			c0.1-0.2,0.1-0.3,0.2-0.5c0.1-0.2,0.1-0.3,0.2-0.5c0.1-0.2,0.1-0.3,0.2-0.5c0.1-0.3,0.3-0.7,0.5-1c0.3-0.7,0.6-1.3,0.9-2
			c0.3-0.7,0.6-1.3,1-2c0.1-0.2,0.2-0.3,0.3-0.5c0.1-0.1,0.2-0.3,0.2-0.5c0.1-0.1,0.2-0.3,0.3-0.5c0.1-0.2,0.2-0.3,0.3-0.5
			c0.2-0.3,0.4-0.6,0.5-0.9c0.2-0.3,0.4-0.6,0.6-0.9c0.1-0.2,0.2-0.3,0.3-0.4c0.1-0.1,0.2-0.3,0.3-0.4c0.1-0.1,0.2-0.3,0.3-0.4
			c0.1-0.1,0.2-0.3,0.3-0.4c0.1-0.2,0.2-0.3,0.3-0.4c0,0,0.1-0.1,0.1-0.1c0,0,0,0,0.1-0.1c0-0.1,0.1-0.1,0.1-0.1v0.2
			c0,0.3,0,0.6-0.1,0.9c0,0.2,0,0.3-0.1,0.5c0,0.2,0,0.3-0.1,0.5c-0.1,0.3-0.1,0.7-0.2,1c-0.1,0.3-0.2,0.7-0.2,1
			c-0.2,0.7-0.4,1.4-0.6,2.1c-0.2,0.7-0.4,1.4-0.6,2.1l-0.7,2c-0.1,0.2-0.1,0.3-0.2,0.5c-0.1,0.2-0.1,0.3-0.2,0.5l-0.2,0.5L109,164
			l-0.1,0.3v0c-0.2,0.5-0.2,1,0,1.5c0.2,0.5,0.6,0.8,1.1,1c0.5,0.2,1,0.2,1.5,0c0.5-0.2,0.8-0.6,1-1.1l0.1-0.3l0.1-0.3l0.2-0.5
			c0,0,0-0.1,0-0.1c0,0,0-0.1,0-0.1c0-0.1,0.1-0.2,0.1-0.3c0-0.1,0.1-0.2,0.1-0.3c0.1-0.2,0.2-0.5,0.3-0.7c0.1-0.2,0.2-0.5,0.3-0.7
			c0.2-0.4,0.5-0.9,0.7-1.3c0.2-0.4,0.5-0.9,0.7-1.3l0.8-1.3c0.1-0.2,0.3-0.4,0.4-0.6c0.1-0.2,0.3-0.4,0.4-0.6
			c0.3-0.4,0.6-0.8,0.9-1.2c0.3-0.4,0.6-0.8,0.9-1.2c0.2-0.2,0.3-0.3,0.5-0.5c0.2-0.2,0.3-0.3,0.5-0.5c0.2-0.2,0.4-0.3,0.5-0.5
			c0.1-0.1,0.2-0.1,0.3-0.2l0.3-0.2c0.1,0,0.2-0.1,0.4-0.2l0,0.1c-0.1,0.2-0.1,0.5-0.2,0.7c-0.1,0.2-0.1,0.5-0.2,0.7
			c-0.1,0.2-0.1,0.5-0.2,0.7c-0.1,0.2-0.1,0.5-0.2,0.7c-0.2,0.5-0.3,1-0.5,1.5c-0.2,0.5-0.3,1-0.5,1.5c-0.1,0.2-0.2,0.5-0.2,0.7
			c-0.1,0.3-0.1,0.5-0.2,0.8c0,0.1-0.1,0.3-0.1,0.4c0,0.1-0.1,0.3-0.1,0.4c0,0.1-0.1,0.3-0.1,0.4c0,0.1-0.1,0.3-0.1,0.4
			c0,0.2-0.1,0.3-0.1,0.4c0,0.1,0,0.3-0.1,0.4c0,0.1,0,0.3,0,0.4c0,0.1,0,0.3,0,0.5v0.5c0,0.1,0,0.2,0,0.3c0,0.1,0,0.2,0,0.3
			c0,0.1,0,0.2,0,0.3c0,0.1,0,0.2,0.1,0.4c0.1,0.3,0.2,0.5,0.4,0.8c0,0.1,0.1,0.2,0.2,0.2c0.1,0.1,0.1,0.1,0.2,0.2
			c0.1,0.1,0.1,0.1,0.2,0.2c0.1,0.1,0.2,0.1,0.2,0.1c0.1,0.1,0.3,0.2,0.5,0.3c0.1,0,0.2,0,0.2,0.1c0.1,0,0.1,0,0.2,0
			c0.1,0,0.1,0,0.2,0c0.1,0,0.1,0,0.2,0h0.2l0.1,0h0.1h0.1h0h0.1c0,0,0.1,0,0.1,0c0,0,0,0,0.1,0c0.1,0,0.2,0,0.3-0.1
			c0.2,0,0.4-0.1,0.5-0.2c0.2-0.1,0.3-0.2,0.5-0.2c0.1-0.1,0.3-0.2,0.4-0.2c0.1-0.1,0.3-0.2,0.4-0.3c0.2-0.2,0.5-0.4,0.7-0.6
			c1.1-1.1,3-3.4,3-3.4c0.3-0.4,0.5-0.7,0.8-0.7c0.2,0,0.2,0.3,0.3,0.6c0,0.1,0,0.2,0,0.3c0,0.2,0,0.4,0.1,0.6c0,0,0.4,3.1,2.7,3.5
			c0.1,0,0.2,0,0.2,0c0.1,0,0.1,0,0.2,0h0.1h0.1h0h0.1h0c0,0,0.1,0,0.1,0c0,0,0,0,0,0c0.2,0,0.3-0.1,0.4-0.1c0.1,0,0.2-0.1,0.4-0.1
			c0.3-0.1,0.5-0.3,0.7-0.4c0.1-0.1,0.2-0.2,0.3-0.2c0.1-0.1,0.2-0.1,0.3-0.2c0.2-0.2,0.3-0.3,0.5-0.5c0.1-0.2,0.3-0.3,0.4-0.5
			c0.3-0.3,0.5-0.7,0.6-1c0.1-0.2,0.2-0.3,0.3-0.5c0.1-0.2,0.2-0.4,0.3-0.5c0-0.1,0.1-0.2,0.1-0.3c0-0.1,0.1-0.2,0.1-0.3
			c0,0.1,0,0.3,0,0.4c0,0.1,0,0.3,0,0.4c0,0.2,0,0.3,0,0.4c0,0.1,0,0.3,0.1,0.4c0.1,0.3,0.2,0.6,0.3,0.9c0.1,0.3,0.2,0.6,0.5,0.9
			c0.2,0.3,0.4,0.6,0.7,0.9c0.3,0.3,0.7,0.5,1,0.6c0.2,0.1,0.4,0.1,0.5,0.2c0,0,2.4,0.5,3.8-1l0,0.1c-0.1,0.2-0.4,0.8-0.5,1
			c-0.1,0.1-0.1,0.3-0.2,0.4c-0.1,0.1-0.2,0.3-0.2,0.4c-0.1,0.1-0.1,0.3-0.2,0.4c-0.1,0.1-0.1,0.3-0.2,0.4c-0.1,0.1-0.2,0.2-0.2,0.4
			c0,0.1-0.1,0.2-0.1,0.2l-0.1,0.1l-0.1,0.1c-0.1,0.2-0.1,0.3-0.2,0.4c-0.1,0.1-0.1,0.3-0.2,0.4c-0.3,0.6-0.5,1.1-0.7,1.7
			c-0.2,0.6-0.4,1.2-0.6,1.8c-0.4,1.1-0.8,2.3-1.1,3.6l-0.1,0.2v0.1l0,0.1l-0.1,0.5c0,0.2-0.1,0.3-0.1,0.5c0,0.1,0,0.3-0.1,0.5
			c0,0.2,0,0.3,0,0.5c0,0.2,0,0.3,0,0.5v0.5c0,0.1,0,0.2,0,0.3c0,0.1,0,0.2,0.1,0.3c0,0.2,0.1,0.5,0.2,0.6c0,0,0.1,0.1,0.1,0.2
			c0,0.1,0.1,0.1,0.1,0.2c0.1,0.1,0.2,0.2,0.4,0.3c0.1,0.1,0.2,0.1,0.5,0.2c0,0,0.1,0,0.1,0c0,0,0.1,0,0.1,0h0h0h0h0.1
			c0.1,0,0.2,0,0.4,0c0.1,0,0.2,0,0.4-0.1c0.3-0.1,0.5-0.1,0.6-0.2c0.1,0,0.2-0.1,0.3-0.1c0.1-0.1,0.2-0.1,0.3-0.1
			c0.3-0.2,0.6-0.5,0.9-0.7l0.4-0.4c0.1-0.1,0.1-0.1,0.2-0.2c0.1-0.1,0.1-0.1,0.2-0.2c0.1-0.1,0.2-0.3,0.3-0.4
			c0.1-0.1,0.2-0.3,0.3-0.4c0.4-0.6,0.8-1.2,1-1.7l0.4-0.9c0.1-0.2,0.1-0.3,0.2-0.4c0.1-0.1,0.1-0.3,0.2-0.5c0-0.2,0.1-0.3,0.2-0.4
			c0.1-0.1,0.1-0.3,0.2-0.5c0.1-0.2,0.1-0.3,0.2-0.4c0.1-0.1,0.1-0.3,0.1-0.4c0.1-0.3,0.2-0.6,0.3-0.9c0.1-0.3,0.2-0.6,0.3-0.9
			c0-0.2,0.1-0.3,0.1-0.4c0-0.1,0.1-0.3,0.1-0.4l0.3-0.9c0.3-1.2,0.7-2.4,1-3.5c0.3-1.2,0.6-2.4,0.9-3.5c0.2-0.7,0.3-1.4,0.5-2.2
			c0.2-0.7,0.3-1.4,0.5-2.1c0-0.1,0.1-0.1,0.1-0.2c0-0.1,0.1-0.1,0.1-0.2c0.1-0.2,0.2-0.4,0.3-0.5c0.1-0.2,0.2-0.4,0.3-0.5
			c0.2-0.3,0.5-0.7,0.7-1c0.2-0.3,0.4-0.7,0.7-1c0.1-0.2,0.2-0.3,0.4-0.5c0.1-0.2,0.2-0.3,0.4-0.5l0.8-1c0.1-0.2,0.3-0.3,0.4-0.5
			c0.1-0.1,0.3-0.3,0.4-0.4c0.1-0.1,0.1-0.2,0.2-0.2c0.1-0.1,0.1-0.1,0.2-0.2l0.4-0.4c0.2-0.1,0.3-0.3,0.4-0.4
			c0.1-0.1,0.3-0.2,0.4-0.4l0.5-0.3c0.2-0.1,0.3-0.2,0.5-0.3c0.1,0,0.1-0.1,0.2-0.1c0.1,0,0.1,0,0.2,0c0.1,0,0.2,0,0.3,0h0.1v0h0
			c0,0,0.1,0,0.1,0c0,0,0.1,0,0.1,0c0.1,0,0.2,0.1,0.3,0.2c0.2,0.1,0.3,0.2,0.4,0.4c0,0,0.1,0.1,0.1,0.1c0,0.1,0,0.1,0.1,0.2
			c0,0.1,0.1,0.2,0.1,0.4c0,0.1,0.1,0.3,0.1,0.4c0,0.1,0,0.3,0,0.4c0,0.3,0,0.6,0,0.9c0,0.6-0.1,1.3-0.3,2c0,0.1-0.1,0.2-0.1,0.3
			c0,0.1,0,0.2,0,0.2c-0.1,0.2-0.1,0.4-0.2,0.5c0,0,0,0.1,0,0.1c0,0,0,0.1-0.1,0.1c0,0.1-0.1,0.2-0.1,0.3c0,0-0.1,0.1-0.1,0.3
			c0,0-0.1,0.1-0.1,0.3c-0.1,0.3-0.3,0.7-0.4,1c-0.1,0.3-0.3,0.7-0.4,1c-0.2,0.3-0.3,0.7-0.5,1c-0.2,0.3-0.3,0.6-0.5,1
			c-0.2,0.3-0.4,0.6-0.6,0.9c-0.2,0.3-0.5,0.6-0.7,0.8c-0.1,0.1-0.3,0.2-0.4,0.3c-0.1,0.1-0.3,0.2-0.4,0.3c-0.3,0.2-0.6,0.3-0.8,0.3
			c-0.3,0.1-0.5,0.1-0.7,0c-0.2,0-0.3-0.1-0.4-0.2c-0.1,0-0.1-0.1-0.2-0.1c-0.1-0.1-0.1-0.1-0.2-0.1c0,0,0-0.1-0.1-0.1
			c0,0,0-0.1-0.1-0.1c0,0-0.1-0.1-0.1-0.1c0,0,0-0.1-0.1-0.1c0-0.1-0.1-0.2-0.1-0.2c0-0.1-0.1-0.2-0.1-0.3c0-0.1-0.1-0.2-0.1-0.3
			c0-0.1-0.1-0.2-0.1-0.3c0-0.1,0-0.2-0.1-0.3c0-0.1,0-0.2-0.1-0.3c0-0.2-0.1-0.3-0.3-0.3c-0.1,0-0.2,0-0.3,0.1
			c-0.1,0.1-0.1,0.1-0.1,0.2c-0.1,0.5-0.1,0.9,0,1.4c0,0.1,0,0.2,0,0.3c0,0.1,0,0.2,0.1,0.3c0,0.1,0.1,0.3,0.1,0.4
			c0,0.1,0.1,0.2,0.1,0.3c0.1,0.1,0.1,0.2,0.2,0.3c0.1,0.1,0.2,0.2,0.3,0.3c0,0,5.2,5.4,12.6-3.5l0,0c0.3-0.4,0.6-0.7,0.8-0.7
			c0.2,0,0.2,0.3,0.2,0.6c0,0.1,0,0.2,0,0.3c0,0.2,0,0.4,0.1,0.6c0,0,0.4,3.1,2.7,3.5c0.1,0,0.2,0,0.2,0c0.1,0,0.1,0,0.2,0h0.1h0.1
			h0h0.1h0c0,0,0.1,0,0.1,0c0,0,0,0,0,0c0.2,0,0.3-0.1,0.4-0.1c0.1,0,0.2-0.1,0.4-0.1c0.3-0.1,0.5-0.3,0.7-0.4
			c0.1-0.1,0.2-0.2,0.3-0.2c0.1-0.1,0.2-0.1,0.3-0.2c0.2-0.2,0.3-0.3,0.5-0.5c0.1-0.2,0.3-0.3,0.4-0.5c0.3-0.3,0.5-0.7,0.6-1
			c0.1-0.2,0.2-0.3,0.3-0.5c0.1-0.2,0.2-0.4,0.3-0.5c0-0.1,0.1-0.2,0.1-0.3c0-0.1,0.1-0.2,0.1-0.3c0,0.1,0,0.3,0,0.4
			c0,0.1,0,0.3,0,0.4c0,0.2,0,0.3,0.1,0.4c0,0.1,0,0.3,0.1,0.4c0.1,0.3,0.2,0.6,0.3,0.9c0.1,0.3,0.2,0.6,0.5,0.9
			c0.2,0.3,0.4,0.6,0.7,0.9c0.3,0.3,0.7,0.5,1,0.6c0.2,0.1,0.4,0.1,0.6,0.2c0,0,0.9,0.2,1.8,0C179.4,166.9,179.4,166.5,179.4,166.5z
			 M112.1,151.2C112.1,151.2,112.1,151.2,112.1,151.2L112.1,151.2z M136.6,158.2L136.6,158.2c-0.2,0.6-0.5,1.2-0.7,1.7
			c-0.2,0.3-0.3,0.7-0.5,1c-0.2,0.3-0.3,0.6-0.5,0.9l-0.6,0.9c-0.1,0.2-0.2,0.3-0.3,0.4c-0.1,0.1-0.2,0.3-0.3,0.4
			c-0.1,0.1-0.2,0.2-0.3,0.3c-0.1,0.1-0.2,0.2-0.3,0.3c-0.2,0.2-0.5,0.3-0.7,0.4c-0.1,0-0.2,0.1-0.3,0.1h0h0h0h0c0,0-0.1,0-0.1,0
			c0,0,0,0,0,0l-0.2-0.1c-0.1-0.1-0.1-0.1-0.2-0.1c0,0,0-0.1-0.1-0.1c0,0,0-0.1-0.1-0.1c0,0,0-0.1-0.1-0.1c0,0,0-0.1-0.1-0.2
			c0-0.1-0.1-0.2-0.1-0.4c0-0.1,0-0.3,0-0.4c0-0.2,0-0.3,0-0.5c0-0.2,0-0.3,0-0.5c0-0.2,0-0.3,0-0.5c0-0.2,0-0.3,0.1-0.5
			c0-0.3,0.1-0.7,0.2-1c0.1-0.3,0.2-0.7,0.3-1c0.2-0.6,0.4-1.3,0.7-2c0.2-0.3,0.3-0.6,0.4-0.9c0.1-0.3,0.3-0.6,0.5-0.9
			c0.2-0.3,0.4-0.6,0.5-0.9c0.2-0.3,0.4-0.5,0.6-0.8c0,0,1.5-2.2,2.9-1.3C138.4,153.1,136.8,157.7,136.6,158.2z M144.3,169.5
			c0,0.2-0.1,0.5-0.1,0.7l-0.2,0.9l-0.2,0.9c-0.1,0.3-0.1,0.6-0.2,0.9c-0.1,0.3-0.1,0.6-0.2,0.8c0,0.1-0.1,0.3-0.1,0.4
			c0,0.1-0.1,0.3-0.1,0.4c0,0.1-0.1,0.3-0.1,0.4c0,0.1-0.1,0.3-0.1,0.4l-0.1,0.2c0,0,0,0.1-0.1,0.2l-0.1,0.4l-0.3,0.8l-0.6,1.6
			c-0.1,0.3-0.2,0.5-0.3,0.7c-0.1,0.2-0.2,0.5-0.3,0.7c-0.1,0.2-0.2,0.4-0.4,0.6c-0.1,0.1-0.1,0.2-0.2,0.2c-0.1,0.1-0.1,0.1-0.2,0.2
			c-0.1,0.1-0.1,0.1-0.2,0.1h0l0,0c0,0,0,0,0,0v0h-0.1c-0.1-0.1-0.1-0.1-0.1-0.2c0-0.1-0.1-0.2-0.1-0.3c0-0.2-0.1-0.3-0.1-0.4
			c0-0.1,0-0.3,0-0.4c0-0.1,0-0.3,0-0.4c0-0.2,0-0.3,0-0.4c0-0.1,0-0.3,0-0.4c0-0.1,0.1-0.2,0.1-0.4l0-0.1l0-0.1l0-0.2
			c0.2-0.6,0.4-1.1,0.6-1.7c0.2-0.5,0.4-1.1,0.6-1.7c0.2-0.6,0.5-1.1,0.8-1.6c0.3-0.5,0.6-1.1,0.9-1.6c0.1-0.1,0.2-0.3,0.2-0.4
			c0.1-0.1,0.1-0.2,0.2-0.4l0.1-0.1l0.1-0.1c0-0.1,0.1-0.1,0.1-0.2c0-0.1,0.1-0.1,0.1-0.2c0-0.1,0.1-0.1,0.1-0.2
			c0.1-0.1,0.2-0.3,0.3-0.4c0.1-0.1,0.2-0.2,0.3-0.3c0,0,0.1-0.1,0.2-0.2C144.5,169,144.4,169.3,144.3,169.5z M173.8,158.2
			L173.8,158.2c-0.2,0.6-0.5,1.2-0.7,1.7c-0.2,0.3-0.3,0.7-0.5,1c-0.2,0.3-0.3,0.6-0.5,0.9l-0.6,0.9c-0.1,0.2-0.2,0.3-0.3,0.4
			c-0.1,0.1-0.2,0.3-0.3,0.4c-0.1,0.1-0.2,0.2-0.3,0.3c-0.1,0.1-0.2,0.2-0.3,0.3c-0.2,0.2-0.5,0.3-0.7,0.4c-0.1,0-0.2,0.1-0.3,0.1h0
			h0h0h0c0,0-0.1,0-0.1,0c0,0,0,0,0,0l-0.2-0.1c-0.1-0.1-0.1-0.1-0.2-0.1c0,0,0-0.1-0.1-0.1c0,0,0-0.1-0.1-0.1c0,0,0-0.1-0.1-0.1
			c0,0,0-0.1-0.1-0.2c0-0.1-0.1-0.2-0.1-0.4c0-0.1,0-0.3,0-0.4c0-0.2,0-0.3,0-0.5c0-0.2,0-0.3,0-0.5c0-0.2,0-0.3,0-0.5
			c0-0.2,0-0.3,0.1-0.5c0-0.3,0.1-0.7,0.2-1c0.1-0.3,0.2-0.7,0.3-1c0.2-0.6,0.4-1.3,0.7-2c0.2-0.3,0.3-0.6,0.4-0.9
			c0.1-0.3,0.3-0.6,0.5-0.9c0.2-0.3,0.4-0.6,0.5-0.9c0.2-0.3,0.4-0.5,0.6-0.8c0,0,1.5-2.2,2.9-1.3
			C175.6,153.1,174,157.7,173.8,158.2z"/>
		<path class="st15" d="M388.9,156.7c-0.1-0.1-0.2-0.2-0.4-0.1c-0.1,0-0.2,0.1-0.4,0.2c-0.1,0.1-0.2,0.2-0.3,0.4
			c-0.1,0.1-0.2,0.2-0.4,0.4c-0.1,0.1-0.3,0.2-0.4,0.3c-0.1,0.1-0.2,0.2-0.4,0.3c-0.3,0.2-0.5,0.4-0.8,0.5c-0.3,0.2-0.5,0.3-0.8,0.5
			c-0.1,0.1-0.3,0.1-0.4,0.2c-0.1,0-0.3,0.1-0.4,0.1c-0.1,0-0.2,0.1-0.3,0.1c-0.1,0-0.2,0-0.3,0.1c0-0.1,0.1-0.3,0.1-0.4
			c0.1-0.1,0.1-0.2,0.1-0.4c0.2-0.3,0.3-0.7,0.4-1c0.1-0.3,0.2-0.7,0.3-1c0.2-0.7,0.4-1.4,0.5-2.1c0-0.3,0.1-0.6,0.1-0.8
			c0,0,0,0,0,0c0.8-6.1-5.6-5.9-5.6-5.9c-4.2,0-6.2,1.7-8,5.3c-0.7,1.4-1.1,2.5-1.9,4.3c-0.1,0.2-0.2,0.5-0.4,0.7
			c-0.1,0.2-0.3,0.5-0.4,0.7c-0.1,0.2-0.3,0.5-0.4,0.7c-0.1,0.2-0.3,0.4-0.4,0.6c-0.5,0.9-1.1,1.7-1.8,2.5c-0.1,0.1-0.2,0.2-0.3,0.3
			c0,0-0.1,0.1-0.1,0.1c0,0,0,0,0,0c-0.1,0.1-0.1,0.1-0.2,0.2l-0.3,0.3c-3.6,3.5-2.6-3.1-2.6-3.1h0l0,0c0-0.1,0-0.2,0.1-0.4
			c0.1-0.2,0.1-0.5,0.2-0.7c0.1-0.2,0.1-0.5,0.2-0.7c0.3-1,0.7-1.8,1.2-2.6c0.1-0.2,0.2-0.4,0.4-0.6c0.1-0.2,0.3-0.4,0.4-0.5
			c0.3-0.3,0.6-0.6,0.9-0.9c0.3-0.2,0.5-0.5,0.7-0.9c0.1-0.4,0.2-0.8,0.1-1.2c-0.1-0.6-0.4-1-0.9-1.4c-0.5-0.3-1-0.4-1.6-0.3
			l-0.7,0.2c-0.3,0.1-0.5,0.2-0.8,0.3c-0.2,0.1-0.5,0.2-0.8,0.3c-0.3,0.1-0.5,0.1-0.8,0.2c-0.3,0.1-0.5,0.1-0.8,0.2
			c-1,0.3-2,0.4-2.9,0.4H357c0-0.2,0.1-0.4,0.1-0.5c0-0.1,0-0.2,0-0.2c0-0.1,0-0.2,0-0.2c0-0.1,0-0.2,0-0.2c0-0.1,0-0.2,0-0.3
			c0-0.1,0-0.2,0-0.2c0-0.1,0-0.2,0-0.3c0-0.1,0-0.2,0-0.3c0-0.1,0-0.2-0.1-0.3c0-0.1-0.1-0.2-0.1-0.3c0-0.1-0.1-0.2-0.1-0.3
			c-0.1-0.1-0.1-0.2-0.2-0.2c-0.1-0.1-0.1-0.1-0.2-0.2c-0.1-0.1-0.2-0.1-0.3-0.2c-0.1,0-0.2-0.1-0.3-0.1c-0.1,0-0.2-0.1-0.3-0.1
			c-0.1,0-0.2,0-0.3,0c-0.1,0-0.2,0-0.3,0c-0.1,0-0.2,0-0.3,0h-0.1h0h0h-0.1h-0.3c-0.2,0-0.4,0.1-0.6,0.1c-0.2,0-0.4,0.1-0.6,0.2
			c-0.1,0.1-0.2,0.1-0.3,0.2c-0.1,0.1-0.2,0.1-0.3,0.2c0,0-0.1,0.1-0.1,0.1c0,0-0.1,0.1-0.1,0.1c-0.1,0.1-0.2,0.2-0.2,0.3
			c-0.3,0.4-0.4,0.9-0.5,1.4c-0.1,0.5,0,0.9,0.1,1.4c0.1,0.4,0.3,0.8,0.6,1.2c0.2,0.4,0.5,0.7,0.8,0.9c0.1,0.1,0.3,0.2,0.4,0.3
			c0.2,0.2,1,1,0.4,2.2c0,0-0.9,1.6-2.6,3.1c-0.1,0.1-0.2,0.2-0.3,0.3c0,0,0,0,0,0c-0.5,0.4-0.9,0.7-1.4,1c-0.5,0.3-1,0.6-1.5,0.9
			c-0.2,0.1-0.5,0.3-0.7,0.4c-0.2,0.1-0.5,0.2-0.8,0.4c-0.3,0.1-0.5,0.2-0.8,0.3c-0.3,0.1-0.5,0.2-0.8,0.2c-0.5,0.1-1,0.2-1.6,0.2
			c-0.2,0-0.5,0-0.7,0c-0.1,0-0.2,0-0.3,0c-0.1,0-0.2,0-0.3,0c-0.2,0-0.5-0.1-0.6-0.1c-0.2,0-0.4-0.1-0.6-0.1
			c-0.2,0-0.3-0.1-0.5-0.1c-0.1-0.1-0.3-0.1-0.4-0.2c-0.1-0.1-0.2-0.2-0.4-0.3c-0.1-0.1-0.2-0.2-0.3-0.4c-0.2-0.3-0.4-0.6-0.6-1
			c-0.1-0.2-0.2-0.4-0.2-0.6c0-0.1-0.1-0.2-0.1-0.2l0,0.1c-0.1-0.4-0.2-0.8,0.2-1.1c0.3-0.2,0.6-0.1,0.8,0c0.7,0.5,1.4,0.7,1.4,0.7
			l0,0c0.1,0,0.1,0,0.2,0.1c0.1,0,0.2,0,0.3,0.1l0.6,0.1c0.7,0.1,1.5,0,2.2-0.2c0.4-0.1,0.7-0.2,1-0.3c0.1,0,0.2-0.1,0.3-0.1
			c0,0,0,0,0.1,0l0.1,0c0.1,0,0.1-0.1,0.2-0.1c0.2-0.1,0.4-0.3,0.6-0.4c0.4-0.2,0.7-0.5,1-0.8c0.3-0.3,0.6-0.6,0.7-0.9
			c0.2-0.3,0.4-0.7,0.6-1c0.2-0.3,0.3-0.7,0.4-1.1c0-0.2,0.1-0.3,0.1-0.5c0-0.2,0.1-0.4,0.1-0.6c0.1-0.4,0.1-0.8,0.1-1.2
			c0-0.4,0-0.8-0.1-1.3c-0.1-0.4-0.2-0.8-0.5-1.3c-0.2-0.5-0.5-0.9-0.9-1.2c-0.3-0.3-0.8-0.6-1.3-0.8c-0.2-0.1-0.5-0.2-0.7-0.2
			c-0.2,0-0.4-0.1-0.7-0.1c-0.2,0-0.4-0.1-0.6,0c-0.2,0-0.4,0-0.6,0.1c-0.2,0-0.4,0.1-0.6,0.1c-0.2,0-0.4,0.1-0.5,0.1
			c-0.4,0.2-0.7,0.3-1,0.4c-0.3,0.2-0.6,0.3-0.9,0.5c-0.3,0.2-0.6,0.4-0.9,0.6c-0.1,0.1-0.3,0.2-0.4,0.3c-0.1,0.1-0.3,0.2-0.4,0.3
			c-0.1,0.1-0.2,0.2-0.4,0.3c-0.1,0.1-0.2,0.2-0.4,0.4c-0.2,0.2-0.4,0.5-0.6,0.7c-0.2,0.2-0.4,0.5-0.6,0.8c-0.2,0.3-0.4,0.5-0.6,0.8
			c-0.2,0.3-0.3,0.6-0.5,0.9c-0.4,0.7-0.7,1.4-1,2.1v0c-0.2,0.5-0.6,1.3-1.2,1.9c0,0,0,0,0,0c-0.1,0.1-0.2,0.2-0.3,0.3
			c-0.1,0.1-0.2,0.2-0.3,0.3c-0.1,0.1-0.3,0.2-0.4,0.4c-0.2,0.2-0.3,0.3-0.4,0.4c-0.4,0.3-0.8,0.6-1.1,0.9c-0.4,0.3-0.8,0.5-1.2,0.8
			c-0.2,0.1-0.4,0.3-0.6,0.4c-0.2,0.1-0.4,0.2-0.6,0.3c-0.1,0.1-0.2,0.1-0.3,0.2c-0.1,0.1-0.2,0.1-0.3,0.1c-0.1,0-0.2,0.1-0.3,0.1
			c-0.1,0-0.2,0.1-0.3,0.1c-0.4,0.2-0.9,0.3-1.3,0.4c-0.4,0.1-0.8,0.2-1.3,0.3c-0.1,0-0.2,0-0.3,0c-0.1,0-0.2,0-0.3,0h-0.6h-0.6
			h-0.1h-0.1h0h-0.1h0l0,0h-0.3c-0.2,0-0.3-0.1-0.5-0.1c-0.2,0-0.3-0.1-0.4-0.1c-0.3-0.1-0.5-0.2-0.7-0.3c-0.2-0.1-0.4-0.3-0.6-0.5
			c-0.1-0.1-0.2-0.2-0.2-0.3c-0.1-0.1-0.2-0.3-0.2-0.4c-0.2-0.3-0.3-0.6-0.4-1c-0.1-0.4-0.2-0.8-0.2-1.2c0-0.4-0.1-0.9-0.1-1.3
			c0-0.4,0-0.9,0.1-1.3c0.1-0.5,0.2-0.9,0.3-1.3c0.1-0.4,0.3-0.9,0.5-1.3c0.4-0.9,0.9-1.6,1.5-2.2c0.1-0.1,0.2-0.2,0.2-0.2
			c0.1-0.1,0.2-0.1,0.2-0.2c0.1-0.1,0.2-0.2,0.3-0.2c0.1-0.1,0.2-0.1,0.3-0.1c0.1-0.1,0.2-0.1,0.3-0.1c0.1,0,0.2-0.1,0.3-0.1
			c0.1,0,0.2-0.1,0.3-0.1c0.1,0,0.2,0,0.3-0.1c0.4,0,0.8,0,1.2,0.1h0.1l0,0h0h0c0,0,0.1,0,0.1,0c0.1,0,0.1,0.1,0.2,0.1
			c0.1,0,0.1,0.1,0.2,0.1c0.1,0,0.1,0.1,0.1,0.1c0.1,0.1,0.2,0.3,0.3,0.6c0.1,0.2,0.1,0.5,0.1,0.7c0,0.3,0,0.6-0.1,0.8
			c-0.1,0.3-0.2,0.5-0.3,0.8c-0.1,0.2-0.2,0.4-0.4,0.6l-0.2,0.2c0,0-0.1,0-0.1,0.1l0,0l0,0h0c-0.5,0.3-0.8,0.7-1,1.2
			c-0.2,0.5-0.2,1,0,1.6c0.2,0.6,0.6,1,1.2,1.3c0.6,0.3,1.1,0.3,1.7,0.1l0,0h0l0.1,0c0,0,0,0,0.1,0c0,0,0,0,0.1,0
			c0.1,0,0.2-0.1,0.3-0.2c0.2-0.1,0.4-0.2,0.5-0.3c0.4-0.3,0.7-0.6,0.9-0.8c0.5-0.6,0.9-1.2,1.1-1.9c0.2-0.7,0.4-1.4,0.4-2.1
			c0-0.4,0-0.7-0.1-1.1c0-0.3-0.1-0.7-0.2-1.1c0-0.2-0.1-0.3-0.2-0.5c-0.1-0.2-0.2-0.3-0.2-0.5c-0.1-0.2-0.2-0.4-0.3-0.5
			c-0.1-0.2-0.2-0.3-0.4-0.5c-0.2-0.2-0.3-0.3-0.5-0.4c-0.2-0.1-0.3-0.3-0.5-0.4c-0.1,0-0.2-0.1-0.3-0.1c-0.1-0.1-0.2-0.1-0.3-0.1
			c-0.1,0-0.2-0.1-0.3-0.1c-0.1,0-0.2-0.1-0.3-0.1c-0.2,0-0.4-0.1-0.6-0.1c-0.2,0-0.4,0-0.6,0c-0.1,0-0.2,0-0.3,0
			c-0.1,0-0.2,0-0.3,0c0,0-0.1,0-0.1,0c0,0-0.1,0-0.1,0h0h0h0l0,0h0h-0.1c-0.6,0.1-1.2,0.3-1.7,0.6c-0.5,0.2-1,0.5-1.5,0.9
			c-0.3,0.2-0.5,0.3-0.7,0.5c-0.2,0.2-0.4,0.4-0.6,0.5c-0.2,0.2-0.4,0.4-0.6,0.6c-0.2,0.2-0.4,0.4-0.5,0.6c-0.2,0.2-0.3,0.4-0.5,0.6
			c-0.2,0.2-0.3,0.4-0.5,0.6c-0.6,0.9-1.1,1.9-1.6,2.9c-0.1,0.1-0.1,0.2-0.1,0.4c-0.2,0.5-0.6,1.4-1.2,1.9c-0.1,0.1-0.1,0.1-0.2,0.2
			c-0.2,0.2-0.4,0.3-0.5,0.4c-0.1,0.1-0.2,0.2-0.3,0.3c-0.1,0.1-0.2,0.2-0.3,0.3c-0.1,0.1-0.2,0.2-0.3,0.3c-0.1,0.1-0.2,0.2-0.3,0.3
			c-0.5,0.4-0.9,0.7-1.4,1c-0.5,0.3-1,0.6-1.5,0.9c-0.2,0.1-0.5,0.3-0.7,0.4c-0.2,0.1-0.5,0.2-0.8,0.4c-0.3,0.1-0.5,0.2-0.8,0.3
			c-0.3,0.1-0.5,0.2-0.8,0.2c-0.5,0.1-1,0.2-1.6,0.2c-0.2,0-0.5,0-0.7,0c-0.1,0-0.2,0-0.3,0c-0.1,0-0.2,0-0.3,0
			c-0.2,0-0.5-0.1-0.6-0.1c-0.2,0-0.4-0.1-0.6-0.1c-0.2,0-0.3-0.1-0.5-0.1c-0.1-0.1-0.3-0.1-0.4-0.2c-0.1-0.1-0.2-0.2-0.4-0.3
			c-0.1-0.1-0.2-0.2-0.3-0.4c-0.2-0.3-0.4-0.6-0.6-1c-0.1-0.2-0.2-0.4-0.2-0.6c0-0.1,0-0.1-0.1-0.2l0,0c-0.1-0.4-0.2-0.8,0.2-1.1
			c0.3-0.2,0.7,0,0.9,0.1c0.7,0.5,1.4,0.6,1.4,0.6l0,0c0.1,0,0.1,0,0.2,0.1c0.1,0,0.2,0,0.3,0.1l0.6,0.1c0.7,0.1,1.5,0,2.2-0.2
			c0.4-0.1,0.7-0.2,1-0.3c0.1,0,0.2-0.1,0.3-0.1c0,0,0,0,0.1,0l0.1,0c0.1,0,0.1-0.1,0.2-0.1c0.2-0.1,0.4-0.3,0.6-0.4
			c0.4-0.2,0.7-0.5,1-0.8c0.3-0.3,0.6-0.6,0.7-0.9c0.2-0.3,0.4-0.7,0.6-1c0.2-0.3,0.3-0.7,0.4-1.1c0-0.2,0.1-0.3,0.1-0.5
			c0-0.2,0.1-0.4,0.1-0.6c0.1-0.4,0.1-0.8,0.1-1.2c0-0.4,0-0.8-0.1-1.3c-0.1-0.4-0.2-0.8-0.5-1.3c-0.2-0.5-0.5-0.9-0.9-1.2
			c-0.3-0.3-0.8-0.6-1.3-0.8c-0.2-0.1-0.5-0.2-0.7-0.2c-0.2,0-0.4-0.1-0.7-0.1c-0.2,0-0.4-0.1-0.6,0c-0.2,0-0.4,0-0.6,0.1
			c-0.2,0-0.4,0.1-0.6,0.1c-0.2,0-0.4,0.1-0.5,0.1c-0.4,0.2-0.7,0.3-1,0.4c-0.3,0.2-0.6,0.3-0.9,0.5c-0.3,0.2-0.6,0.4-0.9,0.6
			c-0.1,0.1-0.3,0.2-0.4,0.3c-0.1,0.1-0.3,0.2-0.4,0.3c-0.1,0.1-0.2,0.2-0.4,0.3c-0.1,0.1-0.2,0.2-0.4,0.4c-0.2,0.2-0.5,0.5-0.6,0.7
			c-0.2,0.2-0.4,0.5-0.6,0.8c-0.2,0.3-0.4,0.5-0.6,0.8c-0.2,0.3-0.3,0.6-0.5,0.9c-0.4,0.7-0.7,1.4-1,2.1c-0.2,0.4-0.7,1.1-1.5,1.4
			c-0.2,0.1-0.3,0.1-0.5,0.2c-0.6,0.1-1.3,0.2-1.9,0c-0.2,0-0.5-0.1-0.7-0.2c0.1-0.2,0.3-0.3,0.4-0.5c0.1-0.2,0.2-0.4,0.3-0.5
			c0.2-0.4,0.5-0.7,0.6-1.1c0.2-0.4,0.4-0.8,0.5-1.2c0.1-0.2,0.2-0.4,0.2-0.6c0.1-0.2,0.1-0.4,0.2-0.7c0-0.1,0-0.3,0-0.4
			c0-0.1,0-0.3,0-0.4V152V152v0h0v-0.1v0c0-0.1,0-0.1,0-0.2c0-0.1,0-0.2-0.1-0.4l-0.1-0.4c0-0.1-0.1-0.3-0.1-0.4
			c-0.1-0.1-0.1-0.3-0.2-0.4c-0.2-0.2-0.3-0.5-0.6-0.7c-0.2-0.2-0.5-0.4-0.8-0.5c-0.3-0.2-0.6-0.2-0.9-0.3c-0.3-0.1-0.6-0.1-0.9,0
			c-0.6,0-1.1,0.2-1.7,0.4c-0.1,0.1-0.3,0.1-0.4,0.2c-0.1,0.1-0.2,0.1-0.4,0.2c-0.1,0-0.1,0.1-0.2,0.1c-0.1,0-0.1,0.1-0.2,0.1
			c0,0-0.1,0.1-0.1,0.1c0,0-0.1,0-0.1,0.1v0l-0.1,0l-0.1,0.1c-0.4,0.4-0.7,0.8-1.1,1.4c-0.3,0.6-0.5,1.2-0.6,1.7c0,0.2,0,0.3,0,0.4
			c0,0.1,0,0.3,0,0.4c0,0.2,0,0.3,0,0.4c0,0.1,0,0.3,0,0.4c0,0.2,0,0.3,0.1,0.4c0,0.1,0.1,0.3,0.1,0.4c0,0.1,0.1,0.3,0.1,0.4
			c0.1,0.1,0.1,0.3,0.1,0.4c0.1,0.2,0.2,0.5,0.4,0.7c0.1,0.2,0.3,0.5,0.4,0.7c0.3,0.4,0.6,0.7,0.9,1l0,0c0,0,0.7,0.6-0.2,1.4
			c0,0,0,0,0,0l-1.9,1.6c0,0-0.1,0.1-0.1,0.1c-0.4,0.3-0.7-0.4-0.7-0.7l-1.9-11.9c-0.1-0.5-0.3-1-0.8-1.3c-0.4-0.3-0.9-0.4-1.5-0.4
			c-0.5,0.1-1,0.4-1.3,0.8c-0.3,0.4-0.4,0.9-0.3,1.5l0.1,0.8c-0.1,0.9-0.3,1.9-0.6,2.8c-0.3,0.9-0.6,1.8-0.9,2.5
			c-0.3,0.7-0.6,1.3-0.9,1.8c-0.3,0.5-0.4,0.7-0.4,0.7c0,0,0,0,0,0c0,0,0,0.1,0,0.1c-0.1,0.2-0.3,0.5-0.4,0.7
			c-0.1,0.2-0.3,0.4-0.4,0.6c-0.5,0.8-1,1.6-1.6,2.3c-0.1,0.1-0.1,0.2-0.2,0.2c-0.1,0.1-0.2,0.2-0.2,0.3c0,0-0.1,0.1-0.1,0.1
			c-4.2,4.7-3.1-2.5-3.1-2.5c0-0.1,0-0.2,0.1-0.4c0.1-0.2,0.1-0.5,0.2-0.7c0.1-0.2,0.1-0.5,0.2-0.7c0.3-1,0.7-1.8,1.2-2.6
			c0.1-0.2,0.2-0.4,0.4-0.6c0.1-0.2,0.3-0.4,0.4-0.5c0.3-0.3,0.6-0.6,0.9-0.9c0.3-0.2,0.5-0.5,0.7-0.9c0.1-0.4,0.2-0.8,0.1-1.2
			c-0.1-0.6-0.4-1-0.9-1.4c-0.5-0.3-1-0.4-1.6-0.3l-0.7,0.2c-0.3,0.1-0.5,0.2-0.8,0.3c-0.2,0.1-0.5,0.2-0.8,0.3
			c-0.3,0.1-0.5,0.1-0.8,0.2c-0.3,0.1-0.5,0.1-0.8,0.2c-1,0.3-2,0.4-2.9,0.4h-0.6c0-0.2,0.1-0.4,0.1-0.5c0-0.1,0-0.2,0-0.2
			c0-0.1,0-0.2,0-0.2c0-0.1,0-0.2,0-0.2c0-0.1,0-0.2,0-0.3c0-0.1,0-0.2,0-0.2c0-0.1,0-0.2,0-0.3c0-0.1,0-0.2,0-0.3
			c0-0.1,0-0.2-0.1-0.3c0-0.1-0.1-0.2-0.1-0.3c0-0.1-0.1-0.2-0.1-0.3c-0.1-0.1-0.1-0.2-0.2-0.2c-0.1-0.1-0.1-0.1-0.2-0.2
			c-0.1-0.1-0.2-0.1-0.3-0.2c-0.1,0-0.2-0.1-0.3-0.1c-0.1,0-0.2-0.1-0.3-0.1c-0.1,0-0.2,0-0.3,0c-0.1,0-0.2,0-0.3,0
			c-0.1,0-0.2,0-0.3,0h-0.1h0h0h-0.1h-0.3c-0.2,0-0.4,0.1-0.6,0.1c-0.2,0-0.4,0.1-0.6,0.2c-0.1,0.1-0.2,0.1-0.3,0.2
			c-0.1,0.1-0.2,0.1-0.3,0.2c0,0-0.1,0.1-0.1,0.1c0,0-0.1,0.1-0.1,0.1c-0.1,0.1-0.2,0.2-0.2,0.3c-0.3,0.4-0.4,0.9-0.5,1.4
			c-0.1,0.5,0,0.9,0.1,1.4c0.1,0.4,0.3,0.8,0.6,1.2c0.2,0.4,0.5,0.7,0.8,0.9c0.1,0.1,0.2,0.2,0.3,0.3h0c0,0,1.2,0.9,0.4,2.2
			c0,0-0.9,1.6-2.6,3.1c-0.2,0.1-0.4,0.3-0.5,0.4c-0.4,0.3-0.8,0.6-1.2,0.9c-0.5,0.3-1,0.6-1.5,0.9c-0.2,0.1-0.5,0.3-0.7,0.4
			c-0.2,0.1-0.5,0.2-0.8,0.4c-0.3,0.1-0.5,0.2-0.8,0.3c-0.3,0.1-0.5,0.2-0.8,0.2c-0.5,0.1-1,0.2-1.6,0.2c-0.2,0-0.5,0-0.7,0
			c-0.1,0-0.2,0-0.3,0c-0.1,0-0.2,0-0.3,0c-0.2,0-0.5-0.1-0.6-0.1c-0.2,0-0.4-0.1-0.6-0.1c-0.2,0-0.3-0.1-0.5-0.1
			c-0.1-0.1-0.3-0.1-0.4-0.2c-0.1-0.1-0.2-0.2-0.4-0.3c-0.1-0.1-0.2-0.2-0.3-0.4c-0.2-0.3-0.4-0.6-0.6-1c-0.1-0.2-0.2-0.4-0.2-0.6
			c0-0.1,0-0.1-0.1-0.2c-0.1-0.4-0.2-0.8,0.2-1.1c0.4-0.3,0.9,0.1,0.9,0.1l0,0c0.7,0.4,1.3,0.6,1.3,0.6l0,0c0.1,0,0.1,0,0.2,0.1
			c0.1,0,0.2,0,0.3,0.1l0.6,0.1c0.7,0.1,1.5,0,2.2-0.2c0.4-0.1,0.7-0.2,1-0.3c0.1,0,0.2-0.1,0.3-0.1c0,0,0,0,0.1,0l0.1,0
			c0.1,0,0.1-0.1,0.2-0.1c0.2-0.1,0.4-0.3,0.6-0.4c0.4-0.2,0.7-0.5,1-0.8c0.3-0.3,0.6-0.6,0.7-0.9c0.2-0.3,0.4-0.7,0.6-1
			c0.2-0.3,0.3-0.7,0.4-1.1c0-0.2,0.1-0.3,0.1-0.5s0.1-0.4,0.1-0.6c0.1-0.4,0.1-0.8,0.1-1.2c0-0.4,0-0.8-0.1-1.3
			c-0.1-0.4-0.2-0.8-0.5-1.3c-0.2-0.5-0.5-0.9-0.9-1.2c-0.3-0.3-0.8-0.6-1.3-0.8c-0.2-0.1-0.5-0.2-0.7-0.2c-0.2,0-0.4-0.1-0.7-0.1
			c-0.2,0-0.4-0.1-0.6,0c-0.2,0-0.4,0-0.6,0.1c-0.2,0-0.4,0.1-0.6,0.1c-0.2,0-0.4,0.1-0.5,0.1c-0.4,0.2-0.7,0.3-1,0.4
			c-0.3,0.2-0.6,0.3-0.9,0.5c-0.3,0.2-0.6,0.4-0.9,0.6c-0.1,0.1-0.3,0.2-0.4,0.3c-0.1,0.1-0.3,0.2-0.4,0.3c-0.1,0.1-0.2,0.2-0.4,0.3
			c-0.1,0.1-0.2,0.2-0.4,0.4c-0.2,0.2-0.5,0.5-0.6,0.7c-0.2,0.2-0.4,0.5-0.6,0.8c-0.2,0.3-0.4,0.5-0.5,0.8c-0.2,0.3-0.3,0.6-0.5,0.9
			c-0.3,0.5-0.5,1-0.7,1.5v0c-1.4,3-5,5.4-6.3,6.1c0,0-0.1,0-0.1,0.1c-0.1,0.1-0.2,0.1-0.3,0.2c-0.1,0.1-0.1,0.1-0.1,0.1l0,0
			c-0.1,0-0.1,0.1-0.2,0.1c-0.1,0-0.2,0.1-0.3,0.1c-0.1,0-0.2,0.1-0.3,0.1c-0.4,0.2-0.9,0.3-1.3,0.4c-0.4,0.1-0.8,0.2-1.3,0.3
			c-0.1,0-0.2,0-0.3,0c-0.1,0-0.2,0-0.3,0h-0.6h-0.6h-0.1h-0.1h0h-0.1h0l0,0h-0.3c-0.2,0-0.3-0.1-0.5-0.1c-0.2,0-0.3-0.1-0.4-0.1
			c-0.3-0.1-0.5-0.2-0.7-0.3c-0.2-0.1-0.4-0.3-0.6-0.5c-0.1-0.1-0.2-0.2-0.2-0.3c-0.1-0.1-0.2-0.3-0.2-0.4c-0.2-0.3-0.3-0.6-0.4-1
			c-0.1-0.4-0.2-0.8-0.2-1.2c0-0.4-0.1-0.9-0.1-1.3c0-0.4,0-0.9,0.1-1.3c0.1-0.5,0.2-0.9,0.3-1.3c0.1-0.4,0.3-0.9,0.5-1.3
			c0.4-0.9,0.9-1.6,1.5-2.2c0.1-0.1,0.2-0.2,0.2-0.2c0.1-0.1,0.2-0.1,0.2-0.2c0.1-0.1,0.2-0.2,0.3-0.2c0.1-0.1,0.2-0.1,0.3-0.1
			c0.1-0.1,0.2-0.1,0.3-0.1c0.1,0,0.2-0.1,0.3-0.1c0.1,0,0.2-0.1,0.3-0.1c0.1,0,0.2,0,0.3-0.1c0.4,0,0.8,0,1.2,0.1h0.1l0,0h0h0
			c0,0,0.1,0,0.1,0c0.1,0,0.1,0.1,0.2,0.1c0.1,0,0.1,0.1,0.2,0.1c0.1,0,0.1,0.1,0.1,0.1c0.1,0.1,0.2,0.3,0.3,0.6
			c0.1,0.2,0.1,0.5,0.1,0.7c0,0.3,0,0.6-0.1,0.8c-0.1,0.3-0.2,0.5-0.3,0.8c-0.1,0.2-0.2,0.4-0.4,0.6L235,155c0,0-0.1,0-0.1,0.1l0,0
			l0,0h0c-0.5,0.3-0.8,0.7-1,1.2c-0.2,0.5-0.2,1,0,1.6c0.2,0.6,0.6,1,1.2,1.3c0.6,0.3,1.1,0.3,1.7,0.1l0,0h0l0.1,0c0,0,0,0,0.1,0
			c0,0,0,0,0.1,0c0.1,0,0.2-0.1,0.3-0.2c0.2-0.1,0.4-0.2,0.5-0.3c0.4-0.3,0.7-0.6,0.9-0.8c0.5-0.6,0.9-1.2,1.1-1.9
			c0.2-0.7,0.4-1.4,0.4-2.1c0-0.4,0-0.7-0.1-1.1c0-0.3-0.1-0.7-0.2-1.1c0-0.2-0.1-0.3-0.2-0.5c-0.1-0.2-0.2-0.3-0.2-0.5
			c-0.1-0.2-0.2-0.4-0.3-0.5c-0.1-0.2-0.2-0.3-0.4-0.5c-0.2-0.2-0.3-0.3-0.5-0.4c-0.2-0.1-0.3-0.3-0.5-0.4c-0.1,0-0.2-0.1-0.3-0.1
			c-0.1-0.1-0.2-0.1-0.3-0.1c-0.1,0-0.2-0.1-0.3-0.1c-0.1,0-0.2-0.1-0.3-0.1c-0.2,0-0.4-0.1-0.6-0.1c-0.2,0-0.4,0-0.6,0
			c-0.1,0-0.2,0-0.3,0c-0.1,0-0.2,0-0.3,0c0,0-0.1,0-0.1,0c0,0-0.1,0-0.1,0h0h0h0l0,0h0h-0.1c-0.6,0.1-1.2,0.3-1.8,0.6
			c-0.5,0.2-1,0.5-1.5,0.9c-0.3,0.2-0.5,0.3-0.7,0.5c-0.2,0.2-0.5,0.4-0.6,0.5c-0.2,0.2-0.4,0.4-0.6,0.6c-0.2,0.2-0.4,0.4-0.5,0.6
			c-0.2,0.2-0.3,0.4-0.5,0.6c-0.2,0.2-0.3,0.4-0.5,0.6c-0.6,0.9-1.1,1.9-1.6,2.9c-0.1,0.3-0.2,0.5-0.3,0.8c-0.1,0.3-0.2,0.5-0.3,0.8
			c0,0.1-0.1,0.3-0.1,0.4c0,0.1-0.1,0.3-0.1,0.4c0,0.1,0,0.3-0.1,0.4c0,0.1,0,0.3-0.1,0.4c-0.1,0.6-0.1,1.2-0.1,1.8
			c0,0.3,0.1,0.6,0.1,0.9c0,0.3,0.1,0.6,0.2,0.9c0.1,0.3,0.2,0.6,0.4,1c0.1,0.3,0.3,0.6,0.5,0.9c0.4,0.6,0.9,1.2,1.5,1.6
			c0.3,0.2,0.7,0.4,1,0.6c0.4,0.2,0.7,0.3,1,0.4c0.3,0.1,0.7,0.2,1,0.2c0.3,0,0.7,0.1,1,0.1h0.5l0.1,0h0h0h0h0.1h0.1
			c0,0,0.1,0,0.1,0c0.2,0,0.3,0,0.5-0.1c0.2,0,0.3-0.1,0.5-0.1c0.2,0,0.3-0.1,0.4-0.1c0.1,0,0.3-0.1,0.4-0.1c0.2,0,0.3-0.1,0.4-0.1
			c0.1-0.1,0.3-0.1,0.4-0.2c0.3-0.1,0.5-0.2,0.8-0.4c0.2-0.1,0.5-0.3,0.7-0.4c0.1-0.1,0.3-0.2,0.4-0.2c0.1-0.1,0.2-0.1,0.3-0.2
			c0.1,0,0.1-0.1,0.2-0.1c0.1,0,0.1-0.1,0.2-0.1c0,0,0.1-0.1,0.2-0.1c0.1,0,0.1-0.1,0.2-0.1c0.1-0.1,0.2-0.2,0.3-0.2
			c0.1-0.1,0.2-0.2,0.3-0.2c0.1-0.1,0.2-0.2,0.3-0.3c0.1-0.1,0.2-0.2,0.3-0.3c0.2-0.2,0.4-0.3,0.6-0.5c0.2-0.2,0.4-0.4,0.6-0.5
			c0.4-0.4,0.8-0.8,1.3-1.3h0c0,0,1.3-1.5,1.4-0.7c0,0.4,0.1,0.7,0.1,1.1c0.1,0.4,0.2,0.8,0.3,1.2c0.1,0.2,0.1,0.4,0.2,0.6
			c0.1,0.2,0.2,0.4,0.3,0.6c0.1,0.2,0.2,0.4,0.4,0.5c0.1,0.2,0.3,0.4,0.4,0.5c0.3,0.3,0.6,0.6,1,0.9c0.2,0.1,0.4,0.2,0.6,0.4
			c0.2,0.1,0.4,0.2,0.6,0.3c0.4,0.2,0.8,0.3,1.2,0.4c0.4,0.1,0.8,0.1,1.2,0.1c0.2,0,0.4,0,0.6,0c0.2,0,0.4,0,0.6-0.1
			c0.2,0,0.4-0.1,0.6-0.1c0.2,0,0.4-0.1,0.5-0.1c0.2,0,0.3-0.1,0.5-0.2c0.2-0.1,0.3-0.1,0.5-0.2c0.6-0.2,1.2-0.5,1.8-0.9
			c0.6-0.3,1.1-0.7,1.7-1.1c0.3-0.2,0.5-0.4,0.8-0.6c0.2-0.2,0.5-0.4,0.7-0.6c0.5-0.4,1-0.8,1.4-1.3c0.4-0.4,0.9-0.9,1.3-1.3
			c0.2-0.2,0.4-0.5,0.6-0.7c0.2-0.2,0.4-0.5,0.6-0.7c0.7-0.9,1.2-1.7,1.5-2.2l0,0c1.1-1.9,2.4-1.6,2.4-1.6l0,0c0.1,0,0.2,0,0.2,0
			c0.6,0.1,1.2,0.1,1.7,0.1h0c0,0,1.6-0.1,1.4,2c-0.1,1-0.1,1.9-0.1,2.9l0,0c0,0-0.3,5.1,2.8,5.7c2.8,0.6,6.3-4.6,8.2-9.8
			c0,0,0.9-3,1.4-1.4l1.7,10.4v0c0,0.2,0.1,0.3,0.2,0.5c0.1,0.2,0.2,0.3,0.3,0.4c0.4,0.4,0.8,0.7,1.3,0.7c0.1,0,0.2,0,0.2,0l0,0
			c1.1,0.1,1.6-0.7,1.6-0.7l4.1-5.4c0.7-0.9,1.4-0.9,1.6-0.9c0,0,0,0,0.1,0c0,0,0.1,0,0.1,0c0.1,0,0.3,0,0.4,0c0.1,0,0.3,0,0.4,0
			c0.1,0,0.3,0,0.4,0c0.3,0,0.5,0,0.8-0.1c0.3,0,0.5-0.1,0.7-0.2c0.1,0,0.1-0.1,0.2-0.1v0c0,0,0,0,0,0c0.1,0,0.2-0.1,0.3-0.1
			c0.5-0.2,1.1-0.4,1.1,0.1l0,0c0,0.3,0,0.6,0,0.9c0,0.4,0.1,0.7,0.1,1.1c0.1,0.4,0.2,0.8,0.3,1.2c0.1,0.2,0.1,0.4,0.2,0.6
			c0.1,0.2,0.2,0.4,0.3,0.6c0.1,0.2,0.2,0.4,0.4,0.5c0.1,0.2,0.3,0.4,0.4,0.5c0.3,0.3,0.6,0.6,1,0.9c0.2,0.1,0.4,0.2,0.6,0.4
			c0.2,0.1,0.4,0.2,0.6,0.3c0.4,0.2,0.8,0.3,1.2,0.4c0.4,0.1,0.8,0.1,1.2,0.1c0.2,0,0.4,0,0.6,0c0.2,0,0.4,0,0.5-0.1
			c0.2,0,0.4-0.1,0.6-0.1c0.2,0,0.4-0.1,0.5-0.1c0.2,0,0.3-0.1,0.5-0.2c0.2-0.1,0.3-0.1,0.5-0.2c0.6-0.2,1.2-0.5,1.8-0.9
			c0.6-0.3,1.1-0.7,1.6-1.1c0.3-0.2,0.5-0.4,0.8-0.6c0.2-0.2,0.5-0.4,0.7-0.6c0.5-0.4,1-0.8,1.4-1.3c0.4-0.4,0.9-0.9,1.3-1.3
			c0.1-0.1,0.1-0.2,0.2-0.2c0.4-0.4,1-1,1.1,0v0c0,0,0,0.1,0,0.1c0,0.3,0.1,0.6,0.1,0.9c0,0.3,0.1,0.6,0.2,0.9
			c0.1,0.3,0.2,0.6,0.4,1c0.1,0.3,0.3,0.6,0.5,0.9c0.4,0.6,0.9,1.2,1.5,1.6c0.3,0.2,0.6,0.4,1,0.6c0.4,0.2,0.7,0.3,1,0.4
			c0.3,0.1,0.7,0.2,1,0.2c0.3,0,0.7,0.1,1,0.1h0.5l0.1,0h0h0h0h0.1h0.1c0,0,0.1,0,0.1,0c0.2,0,0.3,0,0.5-0.1c0.2,0,0.3-0.1,0.5-0.1
			c0.2,0,0.3-0.1,0.4-0.1c0.1,0,0.3-0.1,0.4-0.1c0.1,0,0.3-0.1,0.4-0.1c0.1-0.1,0.3-0.1,0.4-0.2c0.3-0.1,0.5-0.2,0.8-0.4
			c0.2-0.1,0.5-0.3,0.7-0.4c0.1-0.1,0.3-0.2,0.4-0.2c0.1-0.1,0.2-0.1,0.3-0.2c0.1,0,0.1-0.1,0.2-0.1c0.1,0,0.1-0.1,0.2-0.1
			c0,0,0.1-0.1,0.2-0.1c0.1,0,0.1-0.1,0.2-0.1c0.1-0.1,0.2-0.2,0.3-0.2c0.1-0.1,0.2-0.2,0.3-0.2c0.1-0.1,0.2-0.2,0.3-0.3
			c0.1-0.1,0.2-0.2,0.3-0.3c0.2-0.2,0.4-0.3,0.6-0.5c0.2-0.2,0.4-0.4,0.6-0.5c0.5-0.5,1-1,1.5-1.5v0c0,0,0,0,0,0
			c0.1-0.1,0.2-0.2,0.2-0.3c0.3-0.3,0.8-0.8,0.9,0c0,0.3,0.1,0.7,0.1,1c0.1,0.4,0.2,0.8,0.3,1.2c0.1,0.2,0.1,0.4,0.2,0.6
			c0.1,0.2,0.2,0.4,0.3,0.6c0.1,0.2,0.2,0.4,0.4,0.5c0.1,0.2,0.3,0.4,0.4,0.5c0.3,0.3,0.6,0.6,1,0.9c0.2,0.1,0.4,0.2,0.6,0.4
			c0.2,0.1,0.4,0.2,0.6,0.3c0.4,0.2,0.8,0.3,1.2,0.4c0.4,0.1,0.8,0.1,1.2,0.1c0.2,0,0.4,0,0.6,0s0.4,0,0.6-0.1
			c0.2,0,0.4-0.1,0.6-0.1c0.2,0,0.4-0.1,0.5-0.1c0.2,0,0.3-0.1,0.5-0.2c0.2-0.1,0.3-0.1,0.5-0.2c0.6-0.2,1.2-0.5,1.8-0.9
			c0.6-0.3,1.1-0.7,1.6-1.1c0.3-0.2,0.5-0.4,0.8-0.6c0.2-0.2,0.5-0.4,0.7-0.6c0.5-0.4,1-0.8,1.4-1.3c0.4-0.4,0.9-0.9,1.3-1.3
			c0.2-0.2,0.4-0.5,0.6-0.7c0.2-0.2,0.4-0.5,0.6-0.7v0c0.6-0.9,1.1-1.7,1.5-2.2l0,0c1-1.7,2.2-1.6,2.4-1.6c0.1,0,0.2,0,0.3,0.1
			c0.6,0.1,1.2,0.1,1.7,0.1l0,0c0,0,1.5-0.1,1.4,1.8c0,0,0,0.1,0,0.1c-0.1,1-0.1,1.9-0.1,2.9l0,0c0,0-0.3,5.1,2.8,5.7
			c2.1,0.4,4.5-2.2,6.4-5.7c0,0.2,0,0.4,0,0.5c0,0.2,0,0.4,0.1,0.6c0.1,0.5,0.2,0.9,0.3,1.3c0.1,0.2,0.1,0.5,0.2,0.7
			c0.1,0.2,0.2,0.4,0.3,0.7c0.2,0.5,0.5,0.9,0.9,1.2c0.2,0.2,0.4,0.3,0.6,0.5c0.2,0.2,0.4,0.3,0.7,0.4c0.5,0.2,1,0.3,1.4,0.4
			c0.1,0,0.3,0,0.4,0c0.1,0,0.2,0,0.3,0c0.1,0,0.2,0,0.3,0h0h0h0.1h0.2c0.1,0,0.2,0,0.3,0c0.1,0,0.2,0,0.3,0c0.1,0,0.2,0,0.3,0
			c0.1,0,0.2,0,0.3-0.1c0.3-0.1,0.5-0.1,0.6-0.2c0.1,0,0.2-0.1,0.3-0.1c0.1,0,0.2-0.1,0.3-0.1c0.2-0.1,0.4-0.2,0.6-0.3
			c0.2-0.1,0.3-0.2,0.5-0.3c0.3-0.2,0.6-0.5,0.9-0.7c0.3-0.3,0.6-0.5,0.8-0.8c0.5-0.5,0.9-1.1,1.3-1.8l0.5-0.8h0.2
			c0.5,0,0.9-0.1,1.3-0.2c0.4-0.1,0.8-0.2,1.2-0.5c0.2-0.1,0.4-0.2,0.5-0.3c0.2-0.1,0.3-0.2,0.5-0.3c0.3-0.2,0.6-0.5,0.9-0.7
			c0.3-0.3,0.5-0.5,0.8-0.8c0.2-0.2,0.5-0.5,0.7-0.8c0.1-0.2,0.2-0.3,0.3-0.4c0.1-0.1,0.2-0.3,0.3-0.4
			C389.2,157.2,389.1,156.9,388.9,156.7z M248,154.6c0.1-0.3,0.2-0.5,0.3-0.7c0.2-0.5,0.6-0.9,0.9-1.4c0.2-0.2,0.4-0.4,0.6-0.6
			c0.2-0.2,0.4-0.3,0.6-0.5c0.5-0.3,0.9-0.5,1.4-0.5c0.2,0,0.5,0,0.7,0c0.1,0,0.2,0,0.3,0c0.1,0,0.2,0,0.3,0.1
			c0.2,0.1,0.4,0.2,0.5,0.3c0.1,0,0.2,0.1,0.2,0.1c0,0.1,0.1,0.1,0.1,0.1c0.1,0.1,0.1,0.2,0.1,0.3c0,0,0,0.1,0,0.1
			c0,0.1,0,0.1,0,0.2c0,0,0,0.1,0,0.2c0,0.1,0,0.1,0,0.2c0,0.1,0,0.2,0,0.2c0,0.1,0,0.2,0,0.3c0,0.1,0,0.2,0,0.3c0,0.1,0,0.2,0,0.3
			c0,0.1,0,0.2,0,0.3c0,0.1,0,0.2-0.1,0.3c0,0.2-0.1,0.4-0.2,0.6c-0.1,0.2-0.2,0.4-0.3,0.6c-0.1,0.2-0.2,0.4-0.3,0.6
			c0,0.1-0.1,0.1-0.1,0.2c0,0.1-0.1,0.1-0.1,0.2c0,0-0.1,0.1-0.1,0.1c0,0,0,0-0.1,0.1l0,0l0,0c0,0,0,0-0.1,0c0,0,0,0-0.1,0
			c-0.1,0.1-0.2,0.1-0.3,0.2c-0.1,0.1-0.2,0.1-0.3,0.2c-0.2,0.1-0.4,0.2-0.6,0.3c-0.2,0.1-0.4,0.2-0.6,0.2c-0.4,0.1-0.9,0.2-1.4,0.1
			c-0.1,0-0.1,0-0.2,0c-1.8-0.4-1.9-1.5-1.8-2.2c0-0.1,0-0.1,0.1-0.2C247.8,155.1,247.9,154.8,248,154.6z M263.1,150
			c0-0.1,0-0.2,0.1-0.2c0.1-0.1,0.2-0.2,0.5-0.4c0,0,0,0,0.1,0c0,0,0.1,0,0.1,0c0,0,0,0,0.1,0h0h0h0v0c0.1,0,0.1,0,0.2,0
			c0.1,0,0.1,0,0.2,0c0.3,0,0.5,0,0.6,0.1c0,0,0.1,0.1,0.2,0.2c0.1,0.1,0.1,0.2,0.2,0.3c0.1,0.2,0.1,0.4,0.1,0.7c0,0.1,0,0.1,0,0.2
			c0,0.1,0,0.1,0,0.2c0,0.1,0,0.1,0,0.2c0,0.1,0,0.1,0,0.2c0,0.1-0.1,0.2-0.1,0.5c-0.2,0-0.3-0.1-0.5-0.1c-0.1-0.1-0.3-0.1-0.4-0.2
			c-0.1,0-0.2-0.1-0.2-0.1c-0.1,0-0.1-0.1-0.2-0.1l-0.4-0.3c-0.1-0.1-0.2-0.2-0.3-0.3c-0.1-0.1-0.2-0.3-0.2-0.4
			C263.1,150.1,263.1,150,263.1,150z M273.2,164.8C273.2,164.8,273.1,164.9,273.2,164.8l0.8-0.4c-0.2,0.1-0.3,0.2-0.5,0.3
			C273.4,164.8,273.3,164.8,273.2,164.8z M293.4,156.1c-0.1,0.2-0.3,0.3-0.4,0.5c-0.1,0.2-0.3,0.3-0.4,0.5c-0.4-0.3-0.7-0.7-1-1.1
			l-0.2-0.4c0-0.1-0.1-0.2-0.1-0.2c0-0.1,0-0.1-0.1-0.2l-0.1-0.4c0-0.1,0-0.1,0-0.2c0-0.1,0-0.1,0-0.2v-0.4c0-0.1,0-0.1,0-0.2v-0.2
			c0-0.1,0.1-0.2,0.1-0.3c0-0.1,0.1-0.2,0.1-0.3c0.1-0.2,0.2-0.5,0.4-0.6v0h0v0c0,0,0.1-0.1,0.1-0.1l0.1-0.1c0-0.1,0.1-0.2,0.3-0.3
			c0.2-0.1,0.4-0.3,0.6-0.5c0.2-0.1,0.4-0.2,0.6-0.2c0.1,0,0.2,0,0.3,0c0.1,0,0.2,0,0.3,0.1c0.1,0,0.2,0.1,0.3,0.3
			c0,0.1,0.1,0.1,0.1,0.2c0,0.1,0.1,0.1,0.1,0.2c0,0,0,0,0,0c0,0,0,0,0,0v0l0,0v0v0c0,0,0,0.1,0,0.1s0,0.1,0,0.1c0,0.1,0,0.3,0,0.5
			c0,0.3-0.1,0.7-0.2,1.1c0,0.1-0.1,0.2-0.1,0.3c0,0.1-0.1,0.2-0.1,0.3c0,0.1-0.1,0.2-0.1,0.3c0,0.1-0.1,0.2-0.1,0.2
			C293.9,155.4,293.7,155.8,293.4,156.1z M301.7,154.6c0.1-0.3,0.2-0.5,0.3-0.7c0.2-0.5,0.5-0.9,0.9-1.4c0.2-0.2,0.4-0.4,0.6-0.6
			c0.2-0.2,0.4-0.3,0.6-0.5c0.5-0.3,0.9-0.5,1.4-0.5c0.2,0,0.5,0,0.7,0c0.1,0,0.2,0,0.3,0c0.1,0,0.2,0,0.3,0.1
			c0.2,0.1,0.4,0.2,0.5,0.3c0.1,0,0.2,0.1,0.2,0.1c0,0.1,0.1,0.1,0.1,0.1c0.1,0.1,0.1,0.2,0.1,0.3c0,0,0,0.1,0,0.1
			c0,0.1,0,0.1,0,0.2c0,0,0,0.1,0,0.2c0,0.1,0,0.1,0,0.2c0,0.1,0,0.2,0,0.2c0,0.1,0,0.2,0,0.3c0,0.1,0,0.2,0,0.3c0,0.1,0,0.2,0,0.3
			c0,0.1,0,0.2,0,0.3c0,0.1,0,0.2-0.1,0.3c0,0.2-0.1,0.4-0.2,0.6c-0.1,0.2-0.2,0.4-0.3,0.6c-0.1,0.2-0.2,0.4-0.3,0.6
			c0,0.1-0.1,0.1-0.1,0.2c-0.1,0.1-0.1,0.1-0.1,0.2c0,0-0.1,0.1-0.1,0.1c0,0,0,0-0.1,0.1l0,0l0,0c0,0,0,0-0.1,0c0,0,0,0-0.1,0
			c-0.1,0.1-0.2,0.1-0.3,0.2c-0.1,0.1-0.2,0.1-0.3,0.2c-0.2,0.1-0.4,0.2-0.6,0.3c-0.2,0.1-0.4,0.2-0.6,0.2c-0.4,0.1-0.9,0.2-1.4,0.1
			c-0.1,0-0.1,0-0.2,0h0c-1.9-0.4-1.9-1.6-1.8-2.3c0,0,0-0.1,0-0.1c0-0.2,0.1-0.3,0.2-0.4c0,0,0-0.1,0-0.1l0,0
			C301.7,154.7,301.7,154.7,301.7,154.6z M338.7,154.6c0.1-0.3,0.2-0.5,0.3-0.7c0.2-0.5,0.6-0.9,0.9-1.4c0.2-0.2,0.4-0.4,0.5-0.6
			c0.2-0.2,0.4-0.3,0.6-0.5c0.5-0.3,0.9-0.5,1.4-0.5c0.2,0,0.5,0,0.7,0c0.1,0,0.2,0,0.3,0c0.1,0,0.2,0,0.3,0.1
			c0.2,0.1,0.4,0.2,0.5,0.3c0.1,0,0.2,0.1,0.2,0.1c0,0.1,0.1,0.1,0.1,0.1c0.1,0.1,0.1,0.2,0.1,0.3c0,0,0,0.1,0,0.1
			c0,0.1,0,0.1,0,0.2c0,0,0,0.1,0,0.2c0,0.1,0,0.1,0,0.2c0,0.1,0,0.2,0,0.2c0,0.1,0,0.2,0,0.3c0,0.1,0,0.2,0,0.3c0,0.1,0,0.2,0,0.3
			c0,0.1,0,0.2,0,0.3c0,0.1,0,0.2-0.1,0.3c0,0.2-0.1,0.4-0.2,0.6c-0.1,0.2-0.2,0.4-0.3,0.6c-0.1,0.2-0.2,0.4-0.3,0.6
			c0,0.1-0.1,0.1-0.1,0.2c-0.1,0.1-0.1,0.1-0.1,0.2c0,0-0.1,0.1-0.1,0.1c0,0,0,0-0.1,0.1l0,0l0,0c0,0,0,0-0.1,0c0,0,0,0-0.1,0
			c-0.1,0.1-0.2,0.1-0.3,0.2c-0.1,0.1-0.2,0.1-0.3,0.2c-0.2,0.1-0.4,0.2-0.6,0.3c-0.2,0.1-0.4,0.2-0.6,0.2c-0.4,0.1-0.9,0.2-1.4,0.1
			c-0.1,0-0.1,0-0.2,0h0c-2.8-0.6-1.6-2.9-1.6-2.9l0,0.1C338.7,154.8,338.7,154.7,338.7,154.6z M353.8,150c0-0.1,0-0.2,0.1-0.2
			c0.1-0.1,0.2-0.2,0.5-0.4c0,0,0,0,0.1,0c0,0,0.1,0,0.1,0c0,0,0,0,0.1,0h0h0h0v0c0.1,0,0.1,0,0.2,0c0.1,0,0.1,0,0.2,0
			c0.3,0,0.5,0,0.6,0.1c0,0,0.1,0.1,0.2,0.2c0.1,0.1,0.1,0.2,0.2,0.3c0.1,0.2,0.1,0.4,0.1,0.7c0,0.1,0,0.1,0,0.2c0,0.1,0,0.1,0,0.2
			c0,0.1,0,0.1,0,0.2c0,0.1,0,0.1,0,0.2c0,0.1-0.1,0.2-0.1,0.5c-0.2,0-0.3-0.1-0.5-0.1c-0.2-0.1-0.3-0.1-0.4-0.2
			c-0.1,0-0.2-0.1-0.2-0.1c-0.1,0-0.1-0.1-0.2-0.1l-0.4-0.3c-0.1-0.1-0.2-0.2-0.3-0.3c-0.1-0.1-0.2-0.3-0.2-0.4
			C353.8,150.1,353.8,150,353.8,150z M363,164.4C362.9,164.4,362.9,164.4,363,164.4c-0.1-0.2-0.1-0.4-0.2-0.6L363,164.4z
			 M380.4,161.6c-0.2,0.3-0.4,0.5-0.6,0.7c-0.1,0.1-0.2,0.2-0.3,0.3c-0.1,0.1-0.2,0.2-0.4,0.3c-0.5,0.4-1,0.7-1.5,1
			c-0.5,0.3-1,0.4-1.6,0.5c-0.1,0-0.1,0-0.2,0c-0.1,0-0.1,0-0.2,0h-0.4h-0.1H375c0,0-0.1,0-0.2,0c-0.1,0-0.2,0-0.4-0.1
			c-0.2-0.1-0.4-0.1-0.6-0.2c-0.1,0-0.2-0.1-0.2-0.1c-0.1-0.1-0.1-0.1-0.2-0.2c0-0.1-0.1-0.1-0.1-0.2c0-0.1-0.1-0.2-0.1-0.2
			c-0.1-0.2-0.1-0.5-0.2-0.6c-0.1-0.4-0.1-1,0-1.6c0-0.3,0.1-0.6,0.1-0.9c0.1-0.3,0.1-0.6,0.2-0.9c0.3-1.2,0.8-2.3,1.4-3.4
			c0.3-0.5,0.6-1.1,1-1.6c0,0,0,0,0-0.1c0,0,0,0,0-0.1v0.4c0,0.5,0,0.9,0.1,1.4c0.1,0.4,0.2,0.9,0.4,1.3c0,0.1,0.1,0.2,0.1,0.3
			c0.1,0.1,0.1,0.2,0.1,0.3c0,0,0,0,0,0.1c0,0,0,0,0,0.1v0v0h0l0,0.1c0.1,0.1,0.2,0.2,0.2,0.3c0.5,0.8,1.1,1.4,1.7,2
			c0.2,0.1,0.4,0.3,0.6,0.4c0.2,0.1,0.4,0.2,0.6,0.3c0.1,0,0.2,0.1,0.3,0.1C380.2,161.5,380.3,161.5,380.4,161.6
			C380.4,161.6,380.4,161.6,380.4,161.6z M383.3,154.4c0,0.3-0.1,0.6-0.1,1c0,0.3-0.1,0.6-0.2,0.9c-0.1,0.3-0.2,0.6-0.3,1
			c-0.1,0.3-0.2,0.6-0.3,0.9c-0.1,0.2-0.1,0.3-0.2,0.5c-0.1,0.2-0.1,0.3-0.2,0.5c-0.1,0-0.1-0.1-0.2-0.1c-0.1,0-0.2-0.1-0.3-0.2
			c-0.1-0.1-0.2-0.2-0.2-0.3c-0.1-0.1-0.1-0.2-0.2-0.3c-0.3-0.5-0.5-0.9-0.6-1.4c0,0,0-0.1,0-0.1c0,0,0-0.1,0-0.1v0v0c0,0,0,0,0,0
			v-0.1c0-0.1-0.1-0.2-0.1-0.3c0-0.1-0.1-0.3-0.1-0.4c0-0.1,0-0.2,0-0.3c0-0.1,0-0.3,0-0.4c0-0.1,0-0.2,0-0.3c0-0.1,0-0.2,0-0.4
			c0-0.1,0-0.2,0-0.4c0-0.2,0.1-0.5,0.1-0.7c0-0.2,0.1-0.4,0.1-0.7c0-0.2,0.1-0.4,0.2-0.7c0,0,0-0.1,0.1-0.1c0-0.1,0-0.1,0.1-0.1
			c0.1-0.1,0.2-0.2,0.2-0.3c0.2-0.4,0.5-0.6,0.9-0.6c0.1,0,0.1,0,0.2,0c0,0,0.1,0,0.1,0c0,0,0,0,0.1,0c0.1,0,0.1,0,0.2,0.1
			c0,0,0.1,0.1,0.2,0.2c0.1,0.1,0.2,0.3,0.3,0.6c0.1,0.3,0.2,0.5,0.2,0.8c0,0.3,0.1,0.6,0.1,0.9
			C383.3,153.7,383.3,154.1,383.3,154.4z"/>
		<g>
			<g>
				<polygon class="st15" points="203.6,117.2 205.4,120.8 209.4,121.4 206.5,124.2 207.2,128.2 203.6,126.4 200,128.2 200.7,124.2 
					197.8,121.4 201.8,120.8 				"/>
				<g>
					<path class="st15" d="M206.4,162.7L206.4,162.7C206.4,162.7,206.4,162.7,206.4,162.7c-0.1,0-0.2,0-0.3,0
						c-1.4-0.3-1.8-2.4-1.8-3.8V157c0-1.7,1.2-2.3,1.2-2.3h0c3.4-1.3,6-6.1,6-11.9c0-2.2-0.4-4.2-1-5.9h-13.8c-0.6,1.8-1,3.8-1,5.9
						c0,5.8,2.6,10.6,6,11.9h0c0,0,1.2,0.6,1.2,2.2v0.7h0c0,0,0.3,4.6-1.8,5c-0.1,0-0.2,0-0.3,0c0,0,0,0,0,0l0,0
						c-1.4,0.2-2.4,0.4-2.4,0.8c0,0.5,2.3,0.9,5.2,0.9c2.9,0,5.2-0.4,5.2-0.9C208.8,163.2,207.8,162.9,206.4,162.7z"/>
					<path class="st15" d="M210.5,135.6c0.1-0.2,0.2-0.4,0.2-0.6c0-0.6-0.4-1.1-1-1.1c-0.1-0.5-0.5-0.8-1-0.9c-0.1-0.6-0.6-1-1.2-1
						c-0.1,0-0.1,0-0.2,0c-0.3-0.6-0.8-1-1.5-1c-0.3,0-0.6,0.1-0.8,0.2c-0.3-0.4-0.8-0.7-1.3-0.7c-0.5,0-1,0.3-1.3,0.7
						c-0.2-0.1-0.5-0.2-0.8-0.2c-0.7,0-1.2,0.4-1.5,1c-0.1,0-0.1,0-0.2,0c-0.6,0-1.1,0.4-1.2,1c-0.5,0.1-0.9,0.4-1,0.9
						c-0.6,0.1-1,0.5-1,1.1c0,0.2,0.1,0.4,0.2,0.6H210.5z"/>
				</g>
				<path class="st15" d="M223.2,141.1c0-8.6-5.5-15.9-13.2-18.5l-2,1.9c7.6,2,13.2,8.9,13.2,17.1c0,5.6-1.5,10.6-6.1,16.4h0
					l-11.6,14.8L192,158h0c-4.6-5.8-6.1-10.8-6.1-16.4c0-8.2,5.6-15.1,13.3-17.1l-2-1.9c-7.7,2.6-13.2,9.9-13.2,18.5
					c0,6.2,1.7,11.7,6.8,18.2h0l12.9,16.5l12.9-16.5h0C221.5,152.9,223.2,147.4,223.2,141.1z"/>
				<polygon class="st15" points="203.6,117.2 205.4,120.8 209.4,121.4 206.5,124.2 207.2,128.2 203.6,126.4 200,128.2 200.7,124.2 
					197.8,121.4 201.8,120.8 				"/>
			</g>
			<path class="st15" d="M240,133.3c0.7-0.8,1.2-1.1,1.2-1.1c-8.4-5.6-17,1.5-17,1.5l0,0.1c0.9,2.4,1.3,4.9,1.3,7.4
				c0,3.3-0.5,6.4-1.7,9.5l0,0c0,0,6.8-8.8,16.2-5.3c0,0-0.7-0.7-1.4-2c-0.7-1.4-1.3-3.3-0.8-5.7C238.5,135.5,239.3,134.1,240,133.3
				z M237.1,143.4c0,0-5.5-1.4-10.2,2.7c1.1-6.6-0.7-11.7-0.7-11.7s6.4-4.7,12.8-2C239,132.4,234.5,137.1,237.1,143.4z"/>
			<path class="st15" d="M169.1,137.7c0.6,2.3-0.1,4.3-0.8,5.7c-0.7,1.2-1.4,2-1.4,2c9.4-3.6,16.2,5.3,16.2,5.3l0,0
				c-1.2-3.1-1.7-6.2-1.7-9.5c0-2.5,0.5-5,1.3-7.4l0-0.1c0,0-8.6-7.1-17-1.5c0,0,0.5,0.3,1.2,1.1
				C167.8,134.1,168.6,135.5,169.1,137.7z M168.1,132.4c6.4-2.7,12.8,2,12.8,2s-1.8,5.1-0.7,11.7c-4.7-4.1-10.2-2.7-10.2-2.7
				C172.7,137.1,168.1,132.4,168.1,132.4z"/>
		</g>
	</g>
	<g>
		<path class="st16" d="M176.9,165.4c0-0.7-0.7-0.6-0.7-0.6c-0.2,0-0.4,0-0.4,0c-1-0.1-3.1-2-0.7-7.6c2.4-5.6,0.3-9-2.3-9.8
			c-3.1-1-5.6,1.5-5.6,1.5c-0.2,0.2-0.3,0.3-0.5,0.5c-0.3,0.4-0.6,0.7-0.8,1.1c-0.2,0.4-0.5,0.7-0.6,1.1c-0.2,0.4-0.4,0.7-0.6,1.1
			c-0.3,0.7-0.6,1.5-0.9,2.3c-0.1,0.4-0.2,0.8-0.3,1.2c0,0-0.8,3.3-3.9,6.4c-0.2,0.2-1.4,1.1-1.8,0.8c-0.3-0.3,0.6-1.5,0.6-1.5
			c0.2-0.2,0.3-0.5,0.5-0.7c0.3-0.4,0.5-0.7,0.8-1.1c0.2-0.4,0.4-0.8,0.6-1.2c0-0.1,0-0.1,0.1-0.2c0-0.1,0-0.1,0.1-0.1
			c0-0.1,0-0.1,0.1-0.2c0-0.1,0-0.1,0.1-0.1c0-0.1,0.1-0.2,0.1-0.4c0,0,0-0.1,0.1-0.2c0-0.1,0-0.1,0.1-0.2l0.2-0.7
			c0-0.1,0.1-0.3,0.1-0.4c0-0.1,0-0.2,0.1-0.3c0-0.1,0-0.2,0.1-0.4c0-0.1,0-0.2,0.1-0.4c0-0.1,0-0.2,0-0.4c0-0.1,0-0.2,0-0.4
			c0-0.5,0-1,0-1.5c0-0.3-0.1-0.5-0.1-0.8c0-0.3-0.1-0.5-0.2-0.8c-0.1-0.5-0.3-1-0.6-1.5c-0.1-0.1-0.1-0.3-0.2-0.4
			c-0.1-0.1-0.2-0.2-0.2-0.4c-0.1-0.1-0.2-0.2-0.3-0.3c-0.1-0.1-0.2-0.2-0.3-0.3c-0.2-0.2-0.5-0.4-0.7-0.5c-0.3-0.2-0.6-0.3-0.9-0.4
			c-0.2,0-0.3-0.1-0.5-0.1c-0.1,0-0.3,0-0.5-0.1c-0.1,0-0.1,0-0.2,0c-0.1,0-0.2,0-0.2,0h0h0h0h-0.1h-0.1c0,0-0.1,0-0.1,0
			c0,0-0.1,0-0.1,0c-0.3,0.1-0.6,0.2-0.9,0.3c-0.1,0.1-0.2,0.1-0.4,0.2c-0.1,0.1-0.2,0.1-0.3,0.2c-0.2,0.2-0.4,0.3-0.6,0.5
			c-0.2,0.2-0.3,0.3-0.5,0.5c-0.3,0.3-0.6,0.6-0.9,1c-0.1,0.1-0.1,0.2-0.2,0.2c-0.1,0.1-0.1,0.2-0.2,0.3c-0.1,0.1-0.2,0.2-0.2,0.2
			c-0.1,0.1-0.1,0.2-0.2,0.3c-0.1,0.2-0.3,0.3-0.4,0.5c-0.1,0.2-0.2,0.4-0.3,0.5c-0.3,0.4-0.5,0.7-0.7,1.1c-0.1,0.2-0.2,0.4-0.3,0.6
			c-0.1,0.2-0.2,0.4-0.3,0.5c-0.1,0.1-0.2,0.3-0.2,0.4c-0.1,0.1-0.1,0.3-0.2,0.4c0-0.2,0.1-0.4,0.1-0.6c0-0.2,0.1-0.4,0.1-0.6
			l0.2-0.9c0-0.2,0.1-0.3,0.1-0.5c0-0.2,0-0.3,0.1-0.5l0.2-0.9l0.2-0.9c0-0.2,0-0.3,0.1-0.5c0-0.1,0-0.3,0.1-0.5l0.1-0.5l0-0.2
			c0-0.1,0-0.2,0-0.3c0-0.5-0.1-0.9-0.4-1.4c-0.3-0.4-0.7-0.7-1.2-0.8c-0.5-0.1-1-0.1-1.5,0.2c-0.5,0.3-0.7,0.7-0.9,1.2l0,0.1
			l-0.4,1.7l-0.4,1.7l-0.4,1.7l-0.4,1.8c-0.1,0.6-0.2,1.1-0.4,1.7c-0.2,1.2-2.4,8.5-5.8,8.1c-1-0.1-3.1-2-0.7-7.6
			c2.4-5.6,0.3-9-2.3-9.8c-3.1-1-5.6,1.5-5.6,1.5c-0.2,0.2-0.3,0.3-0.5,0.5c-0.3,0.4-0.6,0.7-0.8,1.1c-0.2,0.4-0.5,0.7-0.6,1.1
			c-0.2,0.4-0.4,0.7-0.6,1.1c-0.3,0.7-0.6,1.5-0.9,2.3c-0.1,0.4-0.2,0.8-0.3,1.2c0,0-1.1,4.8-6.2,8.2c-2.9,1.9,0.8-5.1,0.8-5.1
			c0.2-0.4,0.4-0.9,0.6-1.3c0.2-0.4,0.4-0.9,0.7-1.4c0.1-0.2,0.2-0.5,0.3-0.7c0.1-0.2,0.2-0.5,0.3-0.7c0.1-0.2,0.2-0.5,0.3-0.7
			c0.1-0.2,0.2-0.5,0.3-0.8c0.1-0.3,0.2-0.6,0.3-0.8c0.1-0.3,0.2-0.6,0.3-0.9c0-0.2,0.1-0.3,0.1-0.5c0-0.2,0-0.3,0.1-0.5
			c0-0.1,0-0.2,0-0.3c0-0.1,0-0.2,0-0.3c0-0.1,0-0.2,0-0.3c0-0.1,0-0.2,0-0.4c0-0.2-0.1-0.5-0.2-0.9c0-0.1,0-0.2-0.1-0.3
			c0-0.1-0.1-0.2-0.1-0.3c0-0.1-0.1-0.2-0.1-0.3c-0.1-0.1-0.1-0.2-0.2-0.3c-0.1-0.2-0.3-0.4-0.5-0.6c-0.2-0.2-0.4-0.3-0.6-0.4
			c-0.2-0.1-0.5-0.2-0.7-0.3c-0.1,0-0.2-0.1-0.3-0.1c-0.1,0-0.2,0-0.3,0c-0.1,0-0.2,0-0.3,0h-0.1h-0.1h0h0h0h-0.1c0,0-0.1,0-0.2,0
			c-0.1,0-0.3,0-0.4,0c-0.1,0-0.2,0-0.4,0.1c-0.2,0-0.5,0.1-0.6,0.2c-0.2,0.1-0.4,0.2-0.6,0.3c-0.3,0.2-0.7,0.4-0.9,0.6
			c-0.1,0.1-0.3,0.2-0.4,0.4c-0.1,0.1-0.2,0.2-0.3,0.4c-0.4,0.5-0.7,1-1,1.5c0,0.1-0.1,0.1-0.1,0.2c0,0.1-0.1,0.1-0.1,0.2l-0.2,0.4
			c-0.1,0.1-0.1,0.3-0.2,0.4c-0.1,0.1-0.1,0.2-0.2,0.4c-0.1,0.2-0.3,0.5-0.4,0.7c-0.1,0.2-0.3,0.5-0.4,0.7c-0.1,0.2-0.2,0.5-0.4,0.7
			c-0.1,0.2-0.2,0.4-0.3,0.6c0,0,0-0.1,0-0.1c0-0.2,0.1-0.4,0.1-0.6c0-0.2,0.1-0.4,0.1-0.6c0-0.2,0.1-0.4,0.1-0.6c0-0.2,0-0.4,0-0.7
			c0-0.1,0-0.2,0-0.3c0-0.1,0-0.2,0-0.3c0-0.1,0-0.3,0-0.4c0-0.1,0-0.3,0-0.4c0-0.1,0-0.3-0.1-0.4c0-0.2-0.1-0.3-0.1-0.5
			c-0.1-0.3-0.3-0.7-0.5-1.1c-0.1-0.1-0.2-0.2-0.3-0.3c-0.1-0.1-0.2-0.2-0.3-0.3c-0.2-0.2-0.5-0.4-0.8-0.5c-0.3-0.1-0.5-0.2-0.8-0.2
			h-0.2h-0.1h-0.1h0h0h-0.1h-0.2c-0.2,0-0.4,0.1-0.6,0.2c-0.2,0.1-0.4,0.1-0.5,0.2c-0.2,0.1-0.3,0.2-0.4,0.3
			c-0.1,0.1-0.2,0.2-0.3,0.3c0,0-0.1,0.1-0.1,0.1c0,0.1-0.1,0.1-0.1,0.2c-0.1,0.1-0.1,0.2-0.2,0.3l-0.5,0.6l-0.2,0.3
			c0,0-0.1,0.1-0.1,0.1c0,0-0.1,0.1-0.1,0.1c0,0.1-0.1,0.2-0.2,0.3c-0.1,0.1-0.1,0.2-0.2,0.3c-0.2,0.4-0.4,0.7-0.6,1
			c-0.1,0.2-0.2,0.3-0.3,0.5c-0.1,0.2-0.2,0.3-0.3,0.5c-0.2,0.4-0.3,0.7-0.5,1c-0.1,0.3-0.3,0.7-0.4,1c-0.1,0.2-0.2,0.3-0.2,0.5
			c-0.1,0.2-0.1,0.3-0.2,0.5c-0.2,0.3-0.3,0.7-0.4,1l1.3-7.2c0.1-0.4,0-0.8-0.2-1.1c-0.2-0.3-0.5-0.6-0.9-0.7
			c-0.4-0.1-0.8-0.1-1.2,0.1c-0.4,0.2-0.6,0.5-0.7,0.9l-4.3,15.5c0,0,0,0.1,0,0.1c0,0,0,0.1,0,0.1c-0.1,0.6,0,1.2,0.4,1.7
			c0.3,0.5,0.8,0.8,1.5,0.9c0.6,0.1,1.2,0,1.7-0.4c0.5-0.3,0.8-0.8,0.9-1.5l0-0.2v0l0.2-0.5c0.1-0.2,0.1-0.3,0.2-0.5
			c0.1-0.2,0.1-0.3,0.2-0.5c0.1-0.2,0.1-0.3,0.2-0.5c0.1-0.2,0.1-0.3,0.2-0.5c0.1-0.3,0.3-0.7,0.4-1c0.3-0.7,0.6-1.3,0.9-2
			c0.3-0.7,0.6-1.3,1-2c0.1-0.2,0.2-0.3,0.3-0.5c0.1-0.2,0.2-0.3,0.2-0.5c0.1-0.2,0.2-0.3,0.3-0.5c0.1-0.2,0.2-0.3,0.3-0.5
			c0.2-0.3,0.4-0.6,0.6-0.9c0.2-0.3,0.4-0.6,0.6-0.9c0.1-0.2,0.2-0.3,0.3-0.4c0.1-0.1,0.2-0.3,0.3-0.4c0.1-0.1,0.2-0.3,0.3-0.4
			c0.1-0.1,0.2-0.3,0.3-0.4c0.1-0.2,0.2-0.3,0.3-0.4c0,0,0.1-0.1,0.1-0.1c0,0,0,0,0.1-0.1c0-0.1,0.1-0.1,0.1-0.1v0.2
			c0,0.3,0,0.6-0.1,0.9c0,0.2,0,0.3-0.1,0.5c0,0.2,0,0.3-0.1,0.5c-0.1,0.3-0.1,0.7-0.2,1c-0.1,0.3-0.2,0.7-0.2,1
			c-0.2,0.7-0.4,1.4-0.6,2.1c-0.2,0.7-0.4,1.4-0.6,2.1l-0.7,2c-0.1,0.2-0.1,0.3-0.2,0.5c-0.1,0.2-0.1,0.3-0.2,0.5l-0.2,0.5l-0.1,0.2
			l-0.1,0.3v0c-0.2,0.5-0.2,1,0,1.5c0.2,0.5,0.6,0.8,1.1,1c0.5,0.2,1,0.2,1.5,0c0.5-0.2,0.8-0.6,1-1.1l0.1-0.3l0.1-0.3l0.2-0.5
			c0,0,0-0.1,0-0.1c0,0,0-0.1,0-0.1c0-0.1,0.1-0.2,0.1-0.3c0-0.1,0.1-0.2,0.1-0.3c0.1-0.2,0.2-0.5,0.3-0.7c0.1-0.2,0.2-0.5,0.3-0.7
			c0.2-0.4,0.5-0.9,0.7-1.3c0.2-0.4,0.5-0.9,0.7-1.3l0.8-1.3c0.1-0.2,0.3-0.4,0.4-0.6c0.1-0.2,0.3-0.4,0.4-0.6
			c0.3-0.4,0.6-0.8,0.9-1.2c0.3-0.4,0.6-0.8,0.9-1.1c0.2-0.2,0.3-0.3,0.5-0.5c0.2-0.2,0.3-0.3,0.5-0.5c0.2-0.2,0.4-0.3,0.6-0.5
			c0.1-0.1,0.2-0.1,0.3-0.2l0.3-0.2c0.1,0,0.2-0.1,0.4-0.2l0,0.1c-0.1,0.2-0.1,0.5-0.2,0.7c-0.1,0.2-0.1,0.5-0.2,0.7
			c-0.1,0.2-0.1,0.5-0.2,0.7c-0.1,0.2-0.1,0.5-0.2,0.7c-0.2,0.5-0.3,1-0.5,1.5c-0.2,0.5-0.3,1-0.5,1.5c-0.1,0.2-0.2,0.5-0.2,0.7
			c-0.1,0.3-0.1,0.5-0.2,0.8c0,0.1-0.1,0.3-0.1,0.4c0,0.1-0.1,0.3-0.1,0.4c0,0.1-0.1,0.3-0.1,0.4c0,0.1-0.1,0.3-0.1,0.4
			c0,0.2-0.1,0.3-0.1,0.4c0,0.1,0,0.3-0.1,0.4c0,0.1,0,0.3,0,0.4c0,0.1,0,0.3,0,0.5v0.5c0,0.1,0,0.2,0,0.3c0,0.1,0,0.2,0,0.3
			c0,0.1,0,0.2,0,0.3c0,0.1,0,0.2,0.1,0.4c0.1,0.3,0.2,0.5,0.4,0.8c0,0.1,0.1,0.2,0.2,0.2c0.1,0.1,0.1,0.1,0.2,0.2
			c0.1,0.1,0.1,0.1,0.2,0.2c0.1,0.1,0.2,0.1,0.2,0.1c0.2,0.1,0.3,0.2,0.5,0.3c0.1,0,0.2,0,0.2,0.1c0.1,0,0.1,0,0.2,0
			c0.1,0,0.1,0,0.2,0c0.1,0,0.1,0,0.2,0h0.2l0.1,0h0.1h0.1h0h0.1c0,0,0.1,0,0.1,0c0,0,0,0,0.1,0c0.1,0,0.2,0,0.3-0.1
			c0.2,0,0.4-0.1,0.5-0.2c0.2-0.1,0.3-0.2,0.5-0.2c0.2-0.1,0.3-0.2,0.4-0.2c0.1-0.1,0.3-0.2,0.4-0.3c0.2-0.2,0.5-0.4,0.7-0.6
			c1.1-1.1,3-3.4,3-3.4c0.3-0.4,0.5-0.7,0.8-0.7c0.2,0,0.2,0.3,0.3,0.6c0,0.1,0,0.2,0,0.3c0,0.2,0,0.4,0.1,0.6c0,0,0.4,3.1,2.7,3.5
			c0.1,0,0.2,0,0.2,0c0.1,0,0.1,0,0.2,0h0.1h0.1h0h0.1h0c0,0,0.1,0,0.1,0c0,0,0,0,0,0c0.2,0,0.3-0.1,0.4-0.1c0.1,0,0.2-0.1,0.4-0.1
			c0.3-0.1,0.5-0.3,0.7-0.4c0.1-0.1,0.2-0.2,0.3-0.2c0.1-0.1,0.2-0.1,0.3-0.2c0.2-0.2,0.3-0.3,0.4-0.5c0.1-0.2,0.3-0.3,0.4-0.5
			c0.3-0.3,0.5-0.7,0.6-1c0.1-0.2,0.2-0.3,0.3-0.5c0.1-0.2,0.2-0.4,0.3-0.5c0-0.1,0.1-0.2,0.1-0.3c0-0.1,0.1-0.2,0.1-0.3
			c0,0.1,0,0.3,0,0.4c0,0.1,0,0.3,0,0.4c0,0.2,0,0.3,0,0.4c0,0.1,0,0.3,0.1,0.4c0.1,0.3,0.2,0.6,0.3,0.9c0.1,0.3,0.2,0.6,0.5,0.9
			c0.2,0.3,0.4,0.6,0.7,0.9c0.3,0.3,0.7,0.5,1,0.6c0.2,0.1,0.4,0.1,0.6,0.2c0,0,2.4,0.5,3.8-1l0,0.1c-0.1,0.2-0.4,0.8-0.5,1
			c-0.1,0.1-0.1,0.3-0.2,0.4c-0.1,0.1-0.2,0.3-0.2,0.4c-0.1,0.1-0.1,0.3-0.2,0.4c-0.1,0.1-0.1,0.3-0.2,0.4c-0.1,0.1-0.2,0.2-0.2,0.4
			c0,0.1-0.1,0.2-0.1,0.2l-0.1,0.1l-0.1,0.1c-0.1,0.2-0.1,0.3-0.2,0.4c-0.1,0.1-0.1,0.3-0.2,0.4c-0.3,0.6-0.5,1.1-0.7,1.7
			c-0.2,0.6-0.4,1.2-0.6,1.7c-0.4,1.1-0.8,2.3-1.1,3.6l-0.1,0.2v0.1l0,0.1l-0.1,0.5c0,0.2-0.1,0.3-0.1,0.5c0,0.1,0,0.3-0.1,0.5
			c0,0.2,0,0.3,0,0.5c0,0.2,0,0.3,0,0.5v0.5c0,0.1,0,0.2,0,0.3c0,0.1,0,0.2,0.1,0.3c0,0.2,0.1,0.5,0.2,0.6c0,0,0.1,0.1,0.1,0.2
			c0,0.1,0.1,0.1,0.1,0.2c0.1,0.1,0.2,0.2,0.4,0.3c0.1,0.1,0.2,0.1,0.5,0.2c0,0,0.1,0,0.1,0c0,0,0.1,0,0.1,0h0h0h0h0.1
			c0.1,0,0.2,0,0.4,0c0.1,0,0.2,0,0.4-0.1c0.3-0.1,0.5-0.1,0.6-0.2c0.1,0,0.2-0.1,0.3-0.1c0.1-0.1,0.2-0.1,0.3-0.1
			c0.3-0.2,0.6-0.5,0.9-0.7l0.4-0.4c0.1-0.1,0.1-0.1,0.2-0.2c0.1-0.1,0.1-0.1,0.2-0.2c0.1-0.1,0.2-0.3,0.3-0.4
			c0.1-0.1,0.2-0.3,0.3-0.4c0.4-0.6,0.8-1.2,1-1.7l0.4-0.9c0.1-0.2,0.1-0.3,0.2-0.4c0.1-0.1,0.1-0.3,0.2-0.5c0-0.2,0.1-0.3,0.2-0.4
			c0.1-0.1,0.1-0.3,0.2-0.5c0.1-0.2,0.1-0.3,0.2-0.4c0.1-0.1,0.1-0.3,0.1-0.4c0.1-0.3,0.2-0.6,0.3-0.9c0.1-0.3,0.2-0.6,0.3-0.9
			c0-0.1,0.1-0.3,0.1-0.4c0-0.1,0.1-0.3,0.1-0.4l0.3-0.9c0.3-1.2,0.7-2.4,1-3.5c0.3-1.2,0.6-2.4,0.9-3.5c0.2-0.7,0.3-1.4,0.5-2.2
			c0.2-0.7,0.3-1.4,0.5-2.1c0-0.1,0.1-0.1,0.1-0.2c0-0.1,0.1-0.1,0.1-0.2c0.1-0.2,0.2-0.3,0.3-0.5c0.1-0.2,0.2-0.4,0.3-0.5
			c0.2-0.3,0.5-0.7,0.7-1c0.2-0.3,0.4-0.7,0.7-1c0.1-0.2,0.2-0.3,0.4-0.5c0.1-0.2,0.2-0.3,0.4-0.5l0.8-1c0.1-0.2,0.3-0.3,0.4-0.5
			c0.1-0.1,0.3-0.3,0.4-0.4c0.1-0.1,0.1-0.2,0.2-0.2c0.1-0.1,0.1-0.1,0.2-0.2l0.4-0.4c0.2-0.1,0.3-0.3,0.4-0.4
			c0.1-0.1,0.3-0.2,0.4-0.4l0.5-0.3c0.2-0.1,0.3-0.2,0.5-0.3c0.1,0,0.1-0.1,0.2-0.1c0.1,0,0.1,0,0.2-0.1c0.1,0,0.2,0,0.3,0h0.1v0h0
			c0,0,0.1,0,0.1,0c0,0,0.1,0,0.1,0c0.1,0,0.2,0.1,0.3,0.2c0.2,0.1,0.3,0.2,0.4,0.4c0,0,0.1,0.1,0.1,0.1c0,0.1,0,0.1,0.1,0.2
			c0,0.1,0,0.2,0.1,0.4c0,0.1,0.1,0.3,0.1,0.4c0,0.1,0,0.3,0,0.4c0,0.3,0,0.6,0,0.9c0,0.6-0.1,1.3-0.3,2c0,0.1-0.1,0.2-0.1,0.3
			c0,0.1,0,0.2-0.1,0.2c-0.1,0.2-0.1,0.4-0.2,0.5c0,0,0,0.1,0,0.1c0,0,0,0.1,0,0.1c0,0.1-0.1,0.2-0.1,0.3c0,0-0.1,0.1-0.1,0.3
			c0,0-0.1,0.1-0.1,0.3c-0.1,0.3-0.3,0.7-0.4,1c-0.1,0.3-0.3,0.7-0.4,1c-0.2,0.3-0.3,0.7-0.5,1c-0.2,0.3-0.3,0.6-0.5,1
			c-0.2,0.3-0.4,0.6-0.6,0.9c-0.2,0.3-0.5,0.6-0.7,0.8c-0.1,0.1-0.3,0.2-0.4,0.3c-0.1,0.1-0.3,0.2-0.4,0.3c-0.3,0.2-0.6,0.3-0.8,0.3
			c-0.3,0.1-0.5,0.1-0.7,0c-0.2,0-0.3-0.1-0.4-0.2c-0.1,0-0.1-0.1-0.2-0.1c-0.1-0.1-0.1-0.1-0.2-0.1c0,0,0-0.1-0.1-0.1
			c0,0,0-0.1-0.1-0.1c0,0-0.1-0.1-0.1-0.1c0,0,0-0.1-0.1-0.1c0-0.1-0.1-0.2-0.1-0.2c0-0.1-0.1-0.2-0.1-0.3c0-0.1-0.1-0.2-0.1-0.3
			c0-0.1-0.1-0.2-0.1-0.3c0-0.1,0-0.2-0.1-0.3c0-0.1,0-0.2-0.1-0.3c0-0.2-0.1-0.2-0.3-0.3c-0.1,0-0.2,0-0.3,0.1
			c-0.1,0.1-0.1,0.1-0.1,0.2c-0.1,0.5-0.1,0.9,0,1.4c0,0.1,0,0.2,0,0.3c0,0.1,0,0.2,0.1,0.3c0,0.1,0.1,0.3,0.1,0.4
			c0,0.1,0.1,0.2,0.1,0.3c0.1,0.1,0.1,0.2,0.2,0.3c0.1,0.1,0.2,0.2,0.3,0.3c0,0,5.1,5.4,12.6-3.5l0,0c0.3-0.4,0.6-0.7,0.8-0.7
			c0.2,0,0.2,0.3,0.2,0.6c0,0.1,0,0.2,0,0.3c0,0.2,0,0.4,0.1,0.6c0,0,0.4,3.1,2.7,3.5c0.1,0,0.2,0,0.2,0c0.1,0,0.1,0,0.2,0h0.1h0.1
			h0h0.1h0c0,0,0.1,0,0.1,0c0,0,0,0,0,0c0.1,0,0.3-0.1,0.4-0.1c0.1,0,0.2-0.1,0.4-0.1c0.3-0.1,0.5-0.3,0.7-0.4
			c0.1-0.1,0.2-0.2,0.3-0.2c0.1-0.1,0.2-0.1,0.3-0.2c0.2-0.2,0.3-0.3,0.5-0.5c0.1-0.2,0.3-0.3,0.4-0.5c0.3-0.3,0.5-0.7,0.6-1
			c0.1-0.2,0.2-0.3,0.3-0.5c0.1-0.2,0.2-0.4,0.3-0.5c0-0.1,0.1-0.2,0.1-0.3c0-0.1,0.1-0.2,0.1-0.3c0,0.1,0,0.3,0,0.4
			c0,0.1,0,0.3,0,0.4c0,0.2,0,0.3,0,0.4c0,0.1,0,0.3,0.1,0.4c0.1,0.3,0.2,0.6,0.3,0.9c0.1,0.3,0.2,0.6,0.5,0.9
			c0.2,0.3,0.4,0.6,0.7,0.9c0.3,0.3,0.7,0.5,1,0.6c0.2,0.1,0.4,0.1,0.6,0.2c0,0,0.9,0.2,1.8,0C176.9,165.8,176.9,165.4,176.9,165.4z
			 M109.6,150.2C109.6,150.2,109.6,150.2,109.6,150.2L109.6,150.2z M134.1,157.2L134.1,157.2c-0.2,0.6-0.5,1.2-0.7,1.7
			c-0.2,0.3-0.3,0.7-0.5,1c-0.2,0.3-0.3,0.6-0.5,0.9l-0.6,0.9c-0.1,0.2-0.2,0.3-0.3,0.4c-0.1,0.1-0.2,0.3-0.3,0.4
			c-0.1,0.1-0.2,0.2-0.3,0.3c-0.1,0.1-0.2,0.2-0.3,0.3c-0.2,0.2-0.5,0.3-0.7,0.4c-0.1,0-0.2,0.1-0.3,0.1h0h0h0h0c0,0-0.1,0-0.1,0
			c0,0,0,0,0,0l-0.2-0.1c-0.1-0.1-0.1-0.1-0.2-0.1c0,0,0-0.1-0.1-0.1c0,0,0-0.1-0.1-0.1c0,0,0-0.1-0.1-0.1c0-0.1,0-0.1-0.1-0.2
			c0-0.1-0.1-0.2-0.1-0.4c0-0.1,0-0.3,0-0.4c0-0.2,0-0.3,0-0.5c0-0.2,0-0.3,0-0.5c0-0.2,0-0.3,0-0.5c0-0.2,0-0.3,0.1-0.5
			c0-0.3,0.1-0.7,0.2-1c0.1-0.3,0.2-0.7,0.3-1c0.2-0.6,0.4-1.3,0.7-2c0.2-0.3,0.3-0.6,0.4-0.9c0.1-0.3,0.3-0.6,0.5-0.9
			c0.2-0.3,0.4-0.6,0.5-0.9c0.2-0.3,0.4-0.5,0.6-0.8c0,0,1.5-2.2,2.9-1.2C135.8,152.1,134.3,156.7,134.1,157.2z M141.8,168.4
			c-0.1,0.2-0.1,0.5-0.1,0.7l-0.2,0.9l-0.2,0.9c-0.1,0.3-0.1,0.6-0.2,0.9c-0.1,0.3-0.1,0.6-0.2,0.8c0,0.2-0.1,0.3-0.1,0.4
			c0,0.1-0.1,0.3-0.1,0.4c0,0.1-0.1,0.3-0.1,0.4c0,0.1-0.1,0.3-0.1,0.4l-0.1,0.2c0,0,0,0.1-0.1,0.2l-0.1,0.4l-0.3,0.8l-0.6,1.6
			c-0.1,0.3-0.2,0.5-0.3,0.7c-0.1,0.2-0.2,0.5-0.3,0.7c-0.1,0.2-0.2,0.4-0.4,0.6c-0.1,0.1-0.1,0.2-0.2,0.2c-0.1,0.1-0.1,0.1-0.2,0.2
			c-0.1,0.1-0.1,0.1-0.2,0.1h0l0,0c0,0,0,0,0,0v0h-0.1c-0.1-0.1-0.1-0.1-0.1-0.2c0-0.1-0.1-0.2-0.1-0.3c0-0.2-0.1-0.3-0.1-0.4
			c0-0.1,0-0.3,0-0.4c0-0.1,0-0.3,0-0.4c0-0.2,0-0.3,0-0.4c0-0.1,0-0.3,0-0.4c0-0.1,0.1-0.2,0.1-0.4l0-0.1l0-0.1l0-0.2
			c0.2-0.6,0.4-1.1,0.6-1.7c0.2-0.5,0.4-1.1,0.6-1.7c0.2-0.6,0.5-1.1,0.8-1.6c0.3-0.5,0.6-1.1,0.9-1.6c0.1-0.1,0.2-0.3,0.2-0.4
			c0.1-0.1,0.1-0.2,0.2-0.4l0.1-0.1l0.1-0.1c0-0.1,0.1-0.1,0.1-0.2c0-0.1,0.1-0.1,0.1-0.2c0-0.1,0.1-0.1,0.1-0.2
			c0.1-0.1,0.2-0.3,0.3-0.4c0.1-0.1,0.2-0.2,0.3-0.3c0,0,0.1-0.1,0.2-0.2C141.9,168,141.9,168.2,141.8,168.4z M171.3,157.2
			L171.3,157.2c-0.2,0.6-0.5,1.2-0.7,1.7c-0.2,0.3-0.3,0.7-0.5,1c-0.2,0.3-0.3,0.6-0.5,0.9l-0.6,0.9c-0.1,0.2-0.2,0.3-0.3,0.4
			c-0.1,0.1-0.2,0.3-0.3,0.4c-0.1,0.1-0.2,0.2-0.3,0.3c-0.1,0.1-0.2,0.2-0.3,0.3c-0.2,0.2-0.5,0.3-0.7,0.4c-0.1,0-0.2,0.1-0.3,0.1h0
			h0h0h0c0,0-0.1,0-0.1,0c0,0,0,0,0,0l-0.2-0.1c-0.1-0.1-0.1-0.1-0.2-0.1c0,0,0-0.1-0.1-0.1c0,0,0-0.1-0.1-0.1c0,0,0-0.1-0.1-0.1
			c0-0.1,0-0.1-0.1-0.2c0-0.1-0.1-0.2-0.1-0.4c0-0.1,0-0.3,0-0.4c0-0.2,0-0.3,0-0.5c0-0.2,0-0.3,0-0.5c0-0.2,0-0.3,0-0.5
			c0-0.2,0-0.3,0.1-0.5c0-0.3,0.1-0.7,0.2-1c0.1-0.3,0.2-0.7,0.3-1c0.2-0.6,0.4-1.3,0.7-2c0.2-0.3,0.3-0.6,0.4-0.9
			c0.1-0.3,0.3-0.6,0.5-0.9c0.2-0.3,0.4-0.6,0.5-0.9c0.2-0.3,0.4-0.5,0.6-0.8c0,0,1.5-2.2,2.9-1.2
			C173,152.1,171.5,156.7,171.3,157.2z"/>
		<path class="st16" d="M317.9,160.6c-0.2-0.3-0.3-0.6-0.4-1c-0.1-0.4-0.2-0.8-0.2-1.2c0-0.4-0.1-0.9-0.1-1.3c0-0.4,0-0.9,0.1-1.3
			c0.1-0.5,0.2-0.9,0.3-1.3c0.1-0.4,0.3-0.9,0.5-1.3c0.4-0.9,0.9-1.6,1.5-2.2c0.1-0.1,0.2-0.2,0.2-0.2c0.1-0.1,0.2-0.1,0.2-0.2
			c0.1-0.1,0.2-0.2,0.3-0.2c0.1-0.1,0.2-0.1,0.3-0.1c0.1-0.1,0.2-0.1,0.3-0.1c0.1,0,0.2-0.1,0.3-0.1c0.1,0,0.2-0.1,0.3-0.1
			c0.1,0,0.2,0,0.3-0.1c0.4,0,0.8,0,1.2,0.1h0.1l0,0h0h0c0,0,0.1,0,0.1,0c0.1,0,0.1,0.1,0.2,0.1c0.1,0,0.1,0.1,0.2,0.1
			c0.1,0,0.1,0.1,0.1,0.1c0.1,0.1,0.2,0.3,0.3,0.6c0.1,0.2,0.1,0.5,0.1,0.7c0,0.3,0,0.6-0.1,0.8c-0.1,0.3-0.2,0.5-0.3,0.8
			c-0.1,0.2-0.2,0.4-0.4,0.6l-0.2,0.2c0,0-0.1,0-0.1,0.1l0,0l0,0h0c-0.5,0.3-0.8,0.7-1,1.2c-0.2,0.5-0.2,1,0,1.6
			c0.2,0.6,0.6,1,1.2,1.3c0.6,0.3,1.1,0.3,1.7,0.1l0,0h0l0.1,0c0,0,0,0,0.1,0c0,0,0,0,0.1,0c0.1,0,0.2-0.1,0.3-0.2
			c0.2-0.1,0.4-0.2,0.5-0.3c0.4-0.3,0.7-0.6,0.9-0.8c0.5-0.6,0.9-1.2,1.1-1.9c0.2-0.7,0.4-1.4,0.4-2.1c0-0.4,0-0.7-0.1-1.1
			c0-0.3-0.1-0.7-0.2-1.1c0-0.2-0.1-0.3-0.2-0.5c-0.1-0.2-0.2-0.3-0.2-0.5c-0.1-0.2-0.2-0.4-0.3-0.5c-0.1-0.2-0.2-0.3-0.4-0.5
			c-0.2-0.2-0.3-0.3-0.5-0.4c-0.2-0.1-0.3-0.3-0.5-0.4c-0.1,0-0.2-0.1-0.3-0.1c-0.1-0.1-0.2-0.1-0.3-0.1c-0.1,0-0.2-0.1-0.3-0.1
			c-0.1,0-0.2-0.1-0.3-0.1c-0.2,0-0.4-0.1-0.6-0.1c-0.2,0-0.4,0-0.6,0c-0.1,0-0.2,0-0.3,0c-0.1,0-0.2,0-0.3,0c0,0-0.1,0-0.1,0
			c0,0-0.1,0-0.1,0h0h0h0l0,0h0h-0.1c-0.6,0.1-1.2,0.3-1.7,0.6c-0.5,0.2-1,0.5-1.5,0.9c-0.3,0.2-0.5,0.3-0.7,0.5
			c-0.2,0.2-0.5,0.4-0.6,0.6c-0.2,0.2-0.4,0.4-0.6,0.6c-0.2,0.2-0.4,0.4-0.5,0.6c-0.2,0.2-0.3,0.4-0.5,0.6c-0.2,0.2-0.3,0.4-0.5,0.6
			c-0.6,0.9-1.1,1.9-1.5,2.9c-0.1,0.1-0.1,0.2-0.1,0.4c-0.2,0.5-0.7,1.4-1.2,1.9c-0.1,0.1-0.1,0.1-0.2,0.2c-0.2,0.2-0.4,0.3-0.5,0.4
			c-0.1,0.1-0.2,0.2-0.3,0.3c-0.1,0.1-0.2,0.2-0.3,0.3c-0.1,0.1-0.2,0.2-0.3,0.3c-0.1,0.1-0.2,0.2-0.3,0.3c-0.5,0.4-0.9,0.7-1.4,1
			c-0.5,0.3-1,0.6-1.5,0.9c-0.2,0.1-0.5,0.3-0.7,0.4c-0.2,0.1-0.5,0.2-0.8,0.4c-0.3,0.1-0.5,0.2-0.8,0.3c-0.3,0.1-0.5,0.2-0.8,0.2
			c-0.5,0.1-1,0.2-1.6,0.2c-0.2,0-0.5,0-0.7,0c-0.1,0-0.2,0-0.3,0c-0.1,0-0.2,0-0.3,0c-0.2,0-0.5-0.1-0.6-0.1
			c-0.2,0-0.4-0.1-0.6-0.1c-0.2,0-0.3-0.1-0.5-0.1c-0.1-0.1-0.3-0.1-0.4-0.2c-0.1-0.1-0.2-0.2-0.4-0.3c-0.1-0.1-0.2-0.2-0.3-0.4
			c-0.2-0.3-0.4-0.6-0.6-1c-0.1-0.2-0.2-0.4-0.2-0.6c0-0.1,0-0.1-0.1-0.2l0,0c-0.1-0.4-0.2-0.8,0.2-1.1c0.3-0.2,0.7,0,0.9,0.1
			c0.7,0.5,1.4,0.6,1.4,0.6v0c0.1,0,0.1,0,0.2,0.1c0.1,0,0.2,0,0.3,0.1l0.6,0.1c0.7,0.1,1.5,0,2.2-0.2c0.4-0.1,0.7-0.2,1-0.3
			c0.1,0,0.2-0.1,0.3-0.1c0,0,0,0,0.1,0l0.1,0c0.1,0,0.1-0.1,0.2-0.1c0.2-0.1,0.4-0.3,0.6-0.4c0.4-0.2,0.7-0.5,1-0.8
			c0.3-0.3,0.6-0.6,0.7-0.9c0.2-0.3,0.4-0.7,0.6-1c0.2-0.3,0.3-0.7,0.4-1.1c0-0.2,0.1-0.3,0.1-0.5c0-0.2,0.1-0.4,0.1-0.6
			c0.1-0.4,0.1-0.8,0.1-1.2c0-0.4,0-0.8-0.1-1.3c-0.1-0.4-0.2-0.8-0.5-1.3c-0.2-0.5-0.5-0.9-0.9-1.2c-0.3-0.3-0.8-0.6-1.3-0.8
			c-0.2-0.1-0.5-0.2-0.7-0.2c-0.2,0-0.4-0.1-0.7-0.1c-0.2,0-0.4-0.1-0.6,0c-0.2,0-0.4,0-0.6,0.1c-0.2,0-0.4,0.1-0.6,0.1
			c-0.2,0-0.4,0.1-0.5,0.1c-0.4,0.2-0.7,0.3-1,0.4c-0.3,0.1-0.6,0.3-0.9,0.5c-0.3,0.2-0.6,0.4-0.9,0.6c-0.1,0.1-0.3,0.2-0.4,0.3
			c-0.1,0.1-0.3,0.2-0.4,0.3c-0.1,0.1-0.2,0.2-0.4,0.3c-0.1,0.1-0.2,0.2-0.4,0.4c-0.2,0.2-0.5,0.5-0.7,0.7c-0.2,0.2-0.4,0.5-0.6,0.8
			c-0.2,0.3-0.4,0.5-0.6,0.8c-0.2,0.3-0.3,0.6-0.5,0.9c-0.4,0.7-0.7,1.4-1,2.1c-0.2,0.4-0.7,1.1-1.5,1.4c-0.2,0.1-0.3,0.1-0.5,0.2
			c-0.6,0.1-1.3,0.2-1.9,0c-0.2,0-0.5-0.1-0.7-0.2c0.1-0.2,0.3-0.3,0.4-0.5c0.1-0.2,0.2-0.4,0.3-0.5c0.2-0.4,0.4-0.7,0.6-1.1
			c0.2-0.4,0.4-0.8,0.5-1.2c0.1-0.2,0.2-0.4,0.2-0.6c0.1-0.2,0.1-0.4,0.2-0.7c0-0.1,0-0.3,0-0.4c0-0.1,0-0.3,0-0.4V151v-0.1v0h0
			v-0.1v0c0-0.1,0-0.2,0-0.2c0-0.1,0-0.2-0.1-0.4l-0.1-0.4c0-0.1-0.1-0.3-0.1-0.4c-0.1-0.1-0.1-0.3-0.2-0.4
			c-0.2-0.2-0.3-0.5-0.6-0.7c-0.2-0.2-0.5-0.4-0.8-0.5c-0.3-0.2-0.6-0.2-0.9-0.3c-0.3-0.1-0.6-0.1-0.9,0c-0.6,0-1.1,0.2-1.7,0.5
			c-0.1,0.1-0.3,0.1-0.4,0.2c-0.1,0.1-0.2,0.1-0.4,0.2c-0.1,0-0.1,0.1-0.2,0.1c-0.1,0-0.1,0.1-0.2,0.1c0,0-0.1,0.1-0.1,0.1
			c0,0-0.1,0-0.1,0.1v0l-0.1,0l-0.1,0.1c-0.4,0.4-0.7,0.8-1.1,1.4c-0.3,0.6-0.5,1.2-0.6,1.7c0,0.2,0,0.3,0,0.4c0,0.1,0,0.3,0,0.4
			c0,0.2,0,0.3,0,0.4c0,0.1,0,0.3,0,0.4c0,0.2,0,0.3,0.1,0.4c0,0.1,0.1,0.3,0.1,0.4c0,0.1,0.1,0.3,0.1,0.4c0.1,0.1,0.1,0.3,0.1,0.4
			c0.1,0.2,0.2,0.5,0.4,0.7c0.1,0.2,0.3,0.5,0.5,0.7c0.3,0.4,0.6,0.7,0.9,1h0c0,0,0.7,0.6-0.2,1.4c0,0,0,0,0,0l-1.9,1.6
			c0,0-0.1,0.1-0.1,0.1c-0.4,0.3-0.6-0.3-0.7-0.7l-1.9-11.9c-0.1-0.5-0.3-1-0.8-1.3c-0.4-0.3-0.9-0.4-1.5-0.4
			c-0.5,0.1-1,0.4-1.3,0.8c-0.3,0.4-0.4,0.9-0.3,1.5l0.1,0.8c-0.1,0.9-0.3,1.9-0.6,2.8c-0.3,0.9-0.6,1.8-0.9,2.5
			c-0.3,0.7-0.6,1.3-0.9,1.8c-0.3,0.5-0.4,0.7-0.4,0.7c0,0,0,0,0,0c0,0,0,0.1,0,0.1c-0.1,0.2-0.3,0.5-0.4,0.7
			c-0.1,0.2-0.3,0.4-0.4,0.6c-0.5,0.8-1,1.6-1.6,2.3c-0.1,0.1-0.1,0.2-0.2,0.2c-0.1,0.1-0.2,0.2-0.2,0.3c0,0-0.1,0.1-0.1,0.1
			c-4.2,4.7-3.1-2.5-3.1-2.5c0-0.1,0-0.3,0.1-0.4c0.1-0.2,0.1-0.5,0.2-0.7c0.1-0.2,0.1-0.5,0.2-0.7c0.3-1,0.7-1.8,1.2-2.6
			c0.1-0.2,0.2-0.4,0.4-0.6c0.1-0.2,0.3-0.4,0.4-0.5c0.3-0.3,0.6-0.6,0.9-0.9c0.3-0.2,0.5-0.5,0.7-0.9c0.1-0.4,0.2-0.8,0.1-1.2
			c-0.1-0.6-0.4-1-0.9-1.4c-0.5-0.3-1-0.4-1.6-0.3l-0.7,0.2c-0.3,0.1-0.5,0.2-0.8,0.3c-0.2,0.1-0.5,0.2-0.8,0.3
			c-0.3,0.1-0.5,0.1-0.8,0.2c-0.3,0.1-0.5,0.1-0.8,0.2c-1,0.3-2,0.4-2.9,0.4h-0.6c0-0.2,0.1-0.4,0.1-0.5c0-0.1,0-0.2,0-0.2
			c0-0.1,0-0.2,0-0.2c0-0.1,0-0.2,0-0.2c0-0.1,0-0.2,0-0.3c0-0.1,0-0.2,0-0.2c0-0.1,0-0.2,0-0.3c0-0.1,0-0.2,0-0.3
			c0-0.1,0-0.2-0.1-0.3c0-0.1-0.1-0.2-0.1-0.3c0-0.1-0.1-0.2-0.1-0.3c-0.1-0.1-0.1-0.2-0.2-0.2c-0.1-0.1-0.1-0.1-0.2-0.2
			c-0.1-0.1-0.2-0.1-0.3-0.2c-0.1,0-0.2-0.1-0.3-0.1c-0.1,0-0.2-0.1-0.3-0.1c-0.1,0-0.2,0-0.3,0c-0.1,0-0.2,0-0.3,0
			c-0.1,0-0.2,0-0.3,0h-0.1h0h0h-0.1h-0.3c-0.2,0-0.4,0.1-0.6,0.1c-0.2,0-0.4,0.1-0.6,0.2c-0.1,0.1-0.2,0.1-0.3,0.2
			c-0.1,0.1-0.2,0.1-0.3,0.2c0,0-0.1,0.1-0.1,0.1c0,0-0.1,0.1-0.1,0.1c-0.1,0.1-0.2,0.2-0.2,0.3c-0.3,0.4-0.4,0.9-0.5,1.4
			c-0.1,0.5,0,0.9,0.1,1.4c0.1,0.4,0.3,0.8,0.6,1.2c0.2,0.4,0.5,0.7,0.8,0.9c0.1,0.1,0.2,0.2,0.3,0.3h0c0,0,1.2,0.9,0.4,2.2
			c0,0-0.9,1.6-2.6,3.1c-0.2,0.1-0.4,0.3-0.5,0.4c-0.4,0.3-0.8,0.6-1.2,0.9c-0.5,0.3-1,0.6-1.5,0.9c-0.2,0.1-0.5,0.3-0.7,0.4
			c-0.2,0.1-0.5,0.2-0.8,0.4c-0.3,0.1-0.5,0.2-0.8,0.3c-0.3,0.1-0.5,0.2-0.8,0.2c-0.5,0.1-1,0.2-1.6,0.2c-0.2,0-0.5,0-0.7,0
			c-0.1,0-0.2,0-0.3,0c-0.1,0-0.2,0-0.3,0c-0.2,0-0.5-0.1-0.6-0.1c-0.2,0-0.4-0.1-0.6-0.1c-0.2,0-0.3-0.1-0.5-0.1
			c-0.1-0.1-0.3-0.1-0.4-0.2c-0.1-0.1-0.3-0.2-0.4-0.3c-0.1-0.1-0.2-0.2-0.3-0.4c-0.2-0.3-0.4-0.6-0.6-1c-0.1-0.2-0.2-0.4-0.2-0.6
			c0-0.1,0-0.1-0.1-0.2c-0.1-0.4-0.2-0.8,0.2-1.1c0.4-0.3,0.9,0.1,0.9,0.1l0,0c0.7,0.4,1.3,0.6,1.3,0.6l0,0c0.1,0,0.1,0,0.2,0.1
			c0.1,0,0.2,0,0.3,0.1l0.6,0.1c0.7,0.1,1.5,0,2.2-0.2c0.4-0.1,0.7-0.2,1-0.3c0.1,0,0.2-0.1,0.3-0.1c0,0,0,0,0.1,0l0.1,0
			c0.1,0,0.1-0.1,0.2-0.1c0.2-0.1,0.4-0.3,0.6-0.4c0.4-0.2,0.7-0.5,1-0.8c0.3-0.3,0.6-0.6,0.7-0.9c0.2-0.3,0.4-0.7,0.6-1
			c0.2-0.3,0.3-0.7,0.4-1.1c0-0.2,0.1-0.3,0.1-0.5c0.1-0.2,0.1-0.4,0.1-0.6c0.1-0.4,0.1-0.8,0.1-1.2c0-0.4,0-0.8-0.1-1.3
			c-0.1-0.4-0.2-0.8-0.5-1.3c-0.2-0.5-0.5-0.9-0.9-1.2c-0.3-0.3-0.8-0.6-1.3-0.8c-0.2-0.1-0.5-0.2-0.7-0.2c-0.2,0-0.4-0.1-0.7-0.1
			c-0.2,0-0.4-0.1-0.6,0c-0.2,0-0.4,0-0.6,0.1c-0.2,0-0.4,0.1-0.6,0.1c-0.2,0-0.4,0.1-0.5,0.1c-0.4,0.2-0.7,0.3-1,0.4
			c-0.3,0.1-0.6,0.3-0.9,0.5c-0.3,0.2-0.6,0.4-0.9,0.6c-0.1,0.1-0.3,0.2-0.4,0.3c-0.1,0.1-0.3,0.2-0.4,0.3c-0.1,0.1-0.2,0.2-0.4,0.3
			c-0.1,0.1-0.2,0.2-0.4,0.4c-0.2,0.2-0.5,0.5-0.6,0.7c-0.2,0.2-0.4,0.5-0.6,0.8c-0.2,0.3-0.4,0.5-0.6,0.8c-0.2,0.3-0.3,0.6-0.5,0.9
			c-0.3,0.5-0.5,1-0.8,1.5l0,0c-1.4,3.1-5,5.4-6.3,6.1c0,0-0.1,0-0.1,0.1c-0.1,0.1-0.2,0.1-0.3,0.2c-0.1,0-0.1,0.1-0.1,0.1l0,0
			c-0.1,0-0.1,0.1-0.2,0.1c-0.1,0-0.2,0.1-0.3,0.1c-0.1,0-0.2,0.1-0.3,0.1c-0.4,0.2-0.9,0.3-1.3,0.4c-0.4,0.1-0.8,0.2-1.3,0.3
			c-0.1,0-0.2,0-0.3,0c-0.1,0-0.2,0-0.3,0h-0.6h-0.6h-0.1h-0.1h0h-0.1h0l0,0h-0.3c-0.2,0-0.3-0.1-0.5-0.1c-0.2,0-0.3-0.1-0.4-0.1
			c-0.3-0.1-0.5-0.2-0.7-0.3c-0.2-0.1-0.4-0.3-0.6-0.5c-0.1-0.1-0.2-0.2-0.2-0.3c-0.1-0.1-0.2-0.3-0.2-0.4c-0.2-0.3-0.3-0.6-0.4-1
			c-0.1-0.4-0.2-0.8-0.2-1.2c0-0.4-0.1-0.9-0.1-1.3c0-0.4,0-0.9,0.1-1.3c0.1-0.5,0.2-0.9,0.3-1.3c0.1-0.4,0.3-0.9,0.5-1.3
			c0.4-0.9,0.9-1.6,1.5-2.2c0.1-0.1,0.2-0.2,0.2-0.2c0.1-0.1,0.2-0.1,0.2-0.2c0.1-0.1,0.2-0.2,0.3-0.2c0.1-0.1,0.2-0.1,0.3-0.1
			c0.1-0.1,0.2-0.1,0.3-0.1c0.1,0,0.2-0.1,0.3-0.1c0.1,0,0.2-0.1,0.3-0.1c0.1,0,0.2,0,0.3-0.1c0.4,0,0.8,0,1.2,0.1h0.1l0,0h0h0
			c0,0,0.1,0,0.1,0c0.1,0,0.1,0.1,0.2,0.1c0.1,0,0.1,0.1,0.2,0.1c0.1,0,0.1,0.1,0.1,0.1c0.1,0.1,0.2,0.3,0.3,0.6
			c0.1,0.2,0.1,0.5,0.1,0.7c0,0.3,0,0.6-0.1,0.8c-0.1,0.3-0.2,0.5-0.3,0.8c-0.1,0.2-0.2,0.4-0.4,0.6l-0.2,0.2c0,0-0.1,0-0.1,0.1l0,0
			l0,0h0c-0.5,0.3-0.8,0.7-1,1.2c-0.2,0.5-0.2,1,0,1.6c0.2,0.6,0.6,1,1.2,1.3c0.6,0.3,1.1,0.3,1.7,0.1l0,0h0l0.1,0c0,0,0,0,0.1,0
			c0,0,0,0,0.1,0c0.1,0,0.2-0.1,0.3-0.2c0.2-0.1,0.4-0.2,0.5-0.3c0.4-0.3,0.7-0.6,0.9-0.8c0.5-0.6,0.9-1.2,1.1-1.9
			c0.2-0.7,0.4-1.4,0.4-2.1c0-0.4,0-0.7-0.1-1.1c0-0.3-0.1-0.7-0.2-1.1c0-0.2-0.1-0.3-0.2-0.5c-0.1-0.2-0.2-0.3-0.2-0.5
			c-0.1-0.2-0.2-0.4-0.3-0.5c-0.1-0.2-0.2-0.3-0.4-0.5c-0.2-0.2-0.3-0.3-0.5-0.4c-0.2-0.1-0.3-0.3-0.5-0.4c-0.1,0-0.2-0.1-0.3-0.1
			c-0.1-0.1-0.2-0.1-0.3-0.1c-0.1,0-0.2-0.1-0.3-0.1c-0.1,0-0.2-0.1-0.3-0.1c-0.2,0-0.4-0.1-0.6-0.1c-0.2,0-0.4,0-0.6,0
			c-0.1,0-0.2,0-0.3,0c-0.1,0-0.2,0-0.3,0c0,0-0.1,0-0.1,0c0,0-0.1,0-0.1,0h0h0h0l0,0h0h-0.1c-0.6,0.1-1.2,0.3-1.7,0.6
			c-0.5,0.2-1,0.5-1.5,0.9c-0.3,0.2-0.5,0.3-0.7,0.5c-0.2,0.2-0.5,0.4-0.6,0.6c-0.2,0.2-0.4,0.4-0.6,0.6c-0.2,0.2-0.4,0.4-0.5,0.6
			c-0.2,0.2-0.3,0.4-0.5,0.6c-0.2,0.2-0.3,0.4-0.5,0.6c-0.6,0.9-1.1,1.9-1.6,2.9c-0.1,0.3-0.2,0.5-0.3,0.8c-0.1,0.3-0.2,0.5-0.3,0.8
			c0,0.1-0.1,0.3-0.1,0.4c0,0.1-0.1,0.3-0.1,0.4c0,0.1,0,0.3-0.1,0.4c0,0.1,0,0.3-0.1,0.4c-0.1,0.6-0.1,1.2-0.1,1.8
			c0,0.3,0.1,0.6,0.1,0.9c0,0.3,0.1,0.6,0.2,0.9c0.1,0.3,0.2,0.6,0.4,1c0.1,0.3,0.3,0.6,0.5,0.9c0.4,0.6,0.9,1.2,1.5,1.6
			c0.3,0.2,0.6,0.4,1,0.6c0.4,0.2,0.7,0.3,1,0.4c0.3,0.1,0.7,0.2,1,0.2c0.3,0,0.7,0,1,0h0.5l0.1,0h0h0h0h0.1h0.1c0,0,0.1,0,0.1,0
			c0.2,0,0.3,0,0.5-0.1c0.2,0,0.3-0.1,0.5-0.1c0.2,0,0.3-0.1,0.4-0.1c0.1,0,0.3-0.1,0.4-0.1c0.2,0,0.3-0.1,0.4-0.1
			c0.1-0.1,0.3-0.1,0.4-0.2c0.3-0.1,0.5-0.2,0.8-0.4c0.2-0.1,0.5-0.3,0.7-0.4c0.1-0.1,0.3-0.2,0.4-0.2c0.1-0.1,0.2-0.1,0.3-0.2
			c0.1,0,0.1-0.1,0.2-0.1c0.1,0,0.1-0.1,0.2-0.1c0,0,0.1-0.1,0.2-0.1c0.1,0,0.1-0.1,0.2-0.1c0.1-0.1,0.2-0.2,0.3-0.2
			c0.1-0.1,0.2-0.2,0.3-0.2c0.1-0.1,0.2-0.2,0.3-0.3c0.1-0.1,0.2-0.2,0.3-0.3c0.2-0.2,0.4-0.4,0.6-0.5c0.2-0.2,0.4-0.4,0.6-0.5
			c0.4-0.4,0.8-0.8,1.2-1.3h0c0,0,1.3-1.5,1.4-0.7c0,0.4,0.1,0.7,0.1,1.1c0.1,0.4,0.2,0.8,0.3,1.2c0.1,0.2,0.1,0.4,0.2,0.6
			c0.1,0.2,0.2,0.4,0.3,0.6c0.1,0.2,0.2,0.3,0.4,0.5c0.1,0.2,0.3,0.4,0.4,0.5c0.3,0.3,0.6,0.6,1,0.9c0.2,0.1,0.4,0.2,0.6,0.4
			c0.2,0.1,0.4,0.2,0.6,0.3c0.4,0.2,0.8,0.3,1.2,0.4c0.4,0.1,0.8,0.1,1.2,0.1c0.2,0,0.4,0,0.6,0c0.2,0,0.4,0,0.6-0.1
			c0.2,0,0.4-0.1,0.6-0.1c0.2,0,0.4-0.1,0.5-0.1c0.2,0,0.3-0.1,0.5-0.2c0.2-0.1,0.3-0.1,0.5-0.2c0.6-0.2,1.2-0.5,1.8-0.9
			c0.6-0.3,1.1-0.7,1.6-1.1c0.3-0.2,0.5-0.4,0.8-0.6c0.2-0.2,0.5-0.4,0.7-0.6c0.5-0.4,1-0.8,1.4-1.3c0.4-0.4,0.9-0.9,1.3-1.3
			c0.2-0.2,0.4-0.5,0.6-0.7c0.2-0.2,0.4-0.5,0.6-0.7c0.7-0.9,1.2-1.7,1.5-2.2l0,0c1.1-1.9,2.4-1.6,2.4-1.6l0,0c0.1,0,0.2,0,0.2,0
			c0.6,0.1,1.2,0.1,1.7,0.1l0,0c0,0,1.6-0.1,1.4,2c-0.1,1-0.1,1.9-0.1,2.9l0,0c0,0-0.3,5.1,2.8,5.7c2.8,0.6,6.4-4.6,8.2-9.8
			c0,0,0.9-3,1.4-1.4l1.7,10.4v0c0,0.2,0.1,0.3,0.2,0.5c0.1,0.2,0.2,0.3,0.3,0.4c0.4,0.4,0.8,0.7,1.3,0.7c0.1,0,0.2,0,0.2,0l0,0
			c1.1,0.1,1.6-0.7,1.6-0.7l4.1-5.4c0.7-0.9,1.4-0.9,1.6-0.9c0,0,0,0,0.1,0c0,0,0.1,0,0.1,0c0.1,0,0.3,0,0.4,0c0.1,0,0.3,0,0.4,0
			c0.1,0,0.3,0,0.4,0c0.3,0,0.5,0,0.8-0.1c0.3,0,0.5-0.1,0.7-0.2c0.1,0,0.1,0,0.2-0.1v0c0,0,0,0,0,0c0.1,0,0.2-0.1,0.3-0.1
			c0.5-0.2,1.1-0.4,1.1,0.1l0,0c0,0.3,0,0.6,0,0.9c0,0.4,0.1,0.7,0.1,1.1c0.1,0.4,0.2,0.8,0.3,1.2c0.1,0.2,0.1,0.4,0.2,0.6
			c0.1,0.2,0.2,0.4,0.3,0.6c0.1,0.2,0.2,0.3,0.4,0.5c0.1,0.2,0.3,0.4,0.4,0.5c0.3,0.3,0.6,0.6,1,0.9c0.2,0.1,0.4,0.2,0.6,0.4
			c0.2,0.1,0.4,0.2,0.6,0.3c0.4,0.2,0.8,0.3,1.2,0.4c0.4,0.1,0.8,0.1,1.2,0.1c0.2,0,0.4,0,0.6,0c0.2,0,0.4,0,0.6-0.1
			c0.2,0,0.4-0.1,0.6-0.1c0.2,0,0.4-0.1,0.5-0.1c0.2,0,0.3-0.1,0.5-0.2c0.2-0.1,0.3-0.1,0.5-0.2c0.6-0.2,1.2-0.5,1.8-0.9
			c0.6-0.3,1.1-0.7,1.7-1.1c0.3-0.2,0.5-0.4,0.8-0.6c0.2-0.2,0.5-0.4,0.7-0.6c0.5-0.4,1-0.8,1.4-1.3c0.4-0.4,0.8-0.9,1.3-1.3
			c0.1-0.1,0.1-0.2,0.2-0.2c0.4-0.4,1-1,1.1,0v0c0,0,0,0.1,0,0.1c0,0.3,0.1,0.6,0.1,0.9c0,0.3,0.1,0.6,0.2,0.9
			c0.1,0.3,0.2,0.6,0.4,1c0.1,0.3,0.3,0.6,0.5,0.9c0.4,0.6,0.9,1.2,1.5,1.6c0.3,0.2,0.6,0.4,1,0.6c0.4,0.2,0.7,0.3,1,0.4
			c0.3,0.1,0.7,0.2,1,0.2c0.3,0,0.7,0,1,0h0.5l0.1,0h0h0h0h0.1h0.1c0,0,0.1,0,0.1,0c0.1,0,0.3,0,0.5-0.1c0.2,0,0.3-0.1,0.5-0.1
			c0.2,0,0.3-0.1,0.4-0.1c0.1,0,0.3-0.1,0.4-0.1c0.2,0,0.3-0.1,0.4-0.1c0.1-0.1,0.3-0.1,0.4-0.2c0.3-0.1,0.5-0.2,0.8-0.4
			c0.2-0.1,0.5-0.3,0.7-0.4c0.1-0.1,0.3-0.2,0.4-0.2c0.1-0.1,0.2-0.1,0.3-0.2c0.1,0,0.1-0.1,0.2-0.1c0.1,0,0.1-0.1,0.2-0.1
			c0,0,0.1-0.1,0.2-0.1c0.1,0,0.1-0.1,0.2-0.1c0.1-0.1,0.2-0.2,0.3-0.2c0.1-0.1,0.2-0.2,0.3-0.2c0.1-0.1,0.2-0.2,0.3-0.3
			c0.1-0.1,0.2-0.2,0.3-0.3c0.2-0.2,0.4-0.4,0.6-0.5c0.2-0.2,0.4-0.4,0.6-0.5c0.5-0.5,1-1,1.5-1.5l0,0c0,0,0,0,0,0
			c0.1-0.1,0.2-0.2,0.2-0.3c0.3-0.3,0.8-0.8,0.9,0c0,0.3,0.1,0.7,0.1,1c0.1,0.4,0.2,0.8,0.3,1.2c0.1,0.2,0.1,0.4,0.2,0.6
			c0.1,0.2,0.2,0.4,0.3,0.6c0.1,0.2,0.2,0.3,0.4,0.5c0.1,0.2,0.3,0.4,0.4,0.5c0.3,0.3,0.6,0.6,1,0.9c0.2,0.1,0.4,0.2,0.6,0.4
			c0.2,0.1,0.4,0.2,0.6,0.3c0.4,0.2,0.8,0.3,1.2,0.4c0.4,0.1,0.8,0.1,1.2,0.1c0.2,0,0.4,0,0.6,0c0.2,0,0.4,0,0.6-0.1
			c0.2,0,0.4-0.1,0.6-0.1c0.2,0,0.4-0.1,0.5-0.1c0.2,0,0.3-0.1,0.5-0.2c0.2-0.1,0.3-0.1,0.5-0.2c0.6-0.2,1.2-0.5,1.8-0.9
			c0.6-0.3,1.1-0.7,1.7-1.1c0.3-0.2,0.5-0.4,0.8-0.6c0.2-0.2,0.5-0.4,0.7-0.6c0.5-0.4,1-0.8,1.4-1.3c0.4-0.4,0.9-0.9,1.3-1.3
			c0.2-0.2,0.4-0.5,0.6-0.7c0.2-0.2,0.4-0.5,0.6-0.7v0c0.6-0.9,1.1-1.7,1.5-2.2l0,0c1-1.7,2.2-1.6,2.4-1.6c0.1,0,0.2,0,0.3,0.1
			c0.6,0.1,1.2,0.1,1.7,0.1h0c0,0,1.6-0.1,1.4,1.8c0,0,0,0.1,0,0.1c-0.1,1-0.2,1.9-0.1,2.9l0,0c0,0-0.3,5.1,2.8,5.7
			c2.1,0.4,4.5-2.2,6.4-5.7c0,0.2,0,0.4,0,0.5c0,0.2,0,0.4,0.1,0.6c0.1,0.5,0.2,0.9,0.3,1.3c0.1,0.2,0.1,0.5,0.2,0.7
			c0.1,0.2,0.2,0.4,0.3,0.7c0.2,0.5,0.6,0.9,0.9,1.2c0.2,0.2,0.4,0.3,0.6,0.5c0.2,0.2,0.4,0.3,0.7,0.4c0.5,0.2,0.9,0.3,1.4,0.4
			c0.1,0,0.3,0,0.4,0c0.1,0,0.2,0,0.3,0c0.1,0,0.2,0,0.3,0h0h0h0.1h0.2c0.1,0,0.2,0,0.3,0c0.1,0,0.2,0,0.3-0.1c0.1,0,0.2,0,0.3,0
			c0.1,0,0.2,0,0.3-0.1c0.3-0.1,0.5-0.1,0.6-0.2c0.1,0,0.2-0.1,0.3-0.1c0.1,0,0.2-0.1,0.3-0.1c0.2-0.1,0.4-0.2,0.6-0.3
			c0.2-0.1,0.3-0.2,0.5-0.3c0.3-0.2,0.6-0.5,0.9-0.7c0.3-0.3,0.6-0.5,0.8-0.8c0.5-0.5,0.9-1.1,1.3-1.8l0.5-0.8h0.2
			c0.5,0,0.9-0.1,1.3-0.2c0.4-0.1,0.8-0.2,1.2-0.5c0.2-0.1,0.4-0.2,0.5-0.3c0.2-0.1,0.3-0.2,0.5-0.3c0.3-0.2,0.6-0.5,0.9-0.7
			c0.3-0.3,0.5-0.5,0.8-0.8c0.2-0.2,0.5-0.5,0.7-0.8c0.1-0.2,0.2-0.3,0.3-0.4c0.1-0.1,0.2-0.3,0.3-0.4c0.1-0.2,0.1-0.4-0.1-0.6
			c-0.1-0.1-0.2-0.2-0.4-0.1c-0.1,0-0.2,0.1-0.4,0.2c-0.1,0.1-0.2,0.2-0.3,0.4c-0.1,0.1-0.2,0.3-0.4,0.4c-0.1,0.1-0.2,0.2-0.4,0.3
			c-0.1,0.1-0.2,0.2-0.4,0.3c-0.3,0.2-0.5,0.4-0.8,0.5c-0.3,0.2-0.5,0.3-0.8,0.5c-0.2,0.1-0.3,0.1-0.4,0.2c-0.1,0.1-0.3,0.1-0.4,0.1
			c-0.1,0-0.2,0.1-0.3,0.1c-0.1,0-0.2,0-0.3,0c0-0.1,0.1-0.3,0.1-0.4c0.1-0.1,0.1-0.2,0.1-0.4c0.2-0.3,0.3-0.7,0.4-1
			c0.1-0.3,0.2-0.7,0.3-1c0.2-0.7,0.4-1.4,0.5-2.1c0-0.3,0.1-0.6,0.1-0.8c0,0,0,0,0,0c0.8-6.1-5.6-5.9-5.6-5.9c-4.2,0-6.2,1.7-8,5.3
			c-0.7,1.4-1.1,2.5-1.9,4.3c-0.1,0.2-0.2,0.5-0.4,0.7c-0.1,0.2-0.3,0.5-0.4,0.7c-0.1,0.2-0.3,0.5-0.4,0.7c-0.1,0.2-0.3,0.4-0.4,0.6
			c-0.5,0.9-1.1,1.7-1.8,2.5c-0.1,0.1-0.2,0.2-0.3,0.3c0,0-0.1,0.1-0.1,0.1c0,0,0,0,0,0c-0.1,0.1-0.1,0.1-0.2,0.2l-0.3,0.3
			c-3.6,3.5-2.6-3.1-2.6-3.1h0l0,0c0-0.1,0-0.3,0.1-0.4c0.1-0.2,0.1-0.5,0.2-0.7c0.1-0.2,0.1-0.5,0.2-0.7c0.3-1,0.7-1.8,1.2-2.6
			c0.1-0.2,0.2-0.4,0.4-0.6c0.1-0.2,0.3-0.4,0.4-0.5c0.3-0.3,0.6-0.6,0.9-0.9c0.3-0.2,0.5-0.5,0.7-0.9c0.1-0.4,0.2-0.8,0.1-1.2
			c-0.1-0.6-0.4-1-0.9-1.4c-0.5-0.3-1-0.4-1.6-0.3l-0.7,0.2c-0.3,0.1-0.5,0.2-0.8,0.3c-0.2,0.1-0.5,0.2-0.8,0.3
			c-0.3,0.1-0.5,0.1-0.8,0.2c-0.3,0.1-0.5,0.1-0.8,0.2c-1,0.3-2,0.4-2.9,0.4h-0.6c0-0.2,0.1-0.4,0.1-0.5c0-0.1,0-0.2,0-0.2
			c0-0.1,0-0.2,0-0.2c0-0.1,0-0.2,0-0.2c0-0.1,0-0.2,0-0.3c0-0.1,0-0.2,0-0.2c0-0.1,0-0.2,0-0.3c0-0.1,0-0.2,0-0.3
			c0-0.1,0-0.2-0.1-0.3c0-0.1-0.1-0.2-0.1-0.3c0-0.1-0.1-0.2-0.1-0.3c-0.1-0.1-0.1-0.2-0.2-0.2c-0.1-0.1-0.1-0.1-0.2-0.2
			c-0.1-0.1-0.2-0.1-0.3-0.2c-0.1,0-0.2-0.1-0.3-0.1c-0.1,0-0.2-0.1-0.3-0.1c-0.1,0-0.2,0-0.3,0c-0.1,0-0.2,0-0.3,0
			c-0.1,0-0.2,0-0.3,0h-0.1h0h0h-0.1h-0.3c-0.2,0-0.4,0.1-0.6,0.1c-0.2,0-0.4,0.1-0.6,0.2c-0.1,0.1-0.2,0.1-0.3,0.2
			c-0.1,0.1-0.2,0.1-0.3,0.2c0,0-0.1,0.1-0.1,0.1c0,0-0.1,0.1-0.1,0.1c-0.1,0.1-0.2,0.2-0.2,0.3c-0.3,0.4-0.4,0.9-0.5,1.4
			c-0.1,0.5,0,0.9,0.1,1.4c0.1,0.4,0.3,0.8,0.6,1.2c0.2,0.4,0.5,0.7,0.8,0.9c0.1,0.1,0.3,0.2,0.4,0.3c0.2,0.2,1,1,0.4,2.2
			c0,0-0.9,1.6-2.6,3.1c-0.1,0.1-0.2,0.2-0.3,0.3c0,0,0,0,0,0c-0.5,0.4-0.9,0.7-1.4,1c-0.5,0.3-1,0.6-1.5,0.9
			c-0.2,0.1-0.5,0.3-0.7,0.4c-0.2,0.1-0.5,0.2-0.8,0.4c-0.3,0.1-0.5,0.2-0.8,0.3c-0.3,0.1-0.5,0.2-0.8,0.2c-0.5,0.1-1,0.2-1.6,0.2
			c-0.2,0-0.5,0-0.7,0c-0.1,0-0.2,0-0.3,0c-0.1,0-0.2,0-0.3,0c-0.2,0-0.5-0.1-0.7-0.1c-0.2,0-0.4-0.1-0.6-0.1
			c-0.2,0-0.3-0.1-0.5-0.1c-0.1-0.1-0.3-0.1-0.4-0.2c-0.1-0.1-0.2-0.2-0.4-0.3c-0.1-0.1-0.2-0.2-0.3-0.4c-0.2-0.3-0.4-0.6-0.6-1
			c-0.1-0.2-0.2-0.4-0.2-0.6c0-0.1,0-0.2-0.1-0.2l0,0.1c-0.1-0.4-0.2-0.8,0.2-1.1c0.3-0.2,0.6-0.1,0.8,0c0.7,0.5,1.4,0.7,1.4,0.7v0
			c0.1,0,0.1,0,0.2,0.1c0.1,0,0.2,0,0.3,0.1l0.6,0.1c0.7,0.1,1.5,0,2.2-0.2c0.4-0.1,0.7-0.2,1-0.3c0.1,0,0.2-0.1,0.3-0.1
			c0,0,0,0,0.1,0l0.1,0c0.1,0,0.1-0.1,0.2-0.1c0.2-0.1,0.4-0.3,0.6-0.4c0.4-0.2,0.7-0.5,1-0.8c0.3-0.3,0.6-0.6,0.7-0.9
			c0.2-0.3,0.4-0.7,0.6-1c0.2-0.3,0.3-0.7,0.4-1.1c0-0.2,0.1-0.3,0.1-0.5c0.1-0.2,0.1-0.4,0.1-0.6c0.1-0.4,0.1-0.8,0.1-1.2
			c0-0.4,0-0.8-0.1-1.3c-0.1-0.4-0.2-0.8-0.4-1.3c-0.2-0.5-0.5-0.9-0.9-1.2c-0.3-0.3-0.8-0.6-1.3-0.8c-0.2-0.1-0.5-0.2-0.7-0.2
			c-0.2,0-0.4-0.1-0.7-0.1c-0.2,0-0.4-0.1-0.6,0c-0.2,0-0.4,0-0.6,0.1c-0.2,0-0.4,0.1-0.6,0.1c-0.2,0-0.4,0.1-0.5,0.1
			c-0.4,0.2-0.7,0.3-1,0.4c-0.3,0.1-0.6,0.3-0.9,0.5c-0.3,0.2-0.6,0.4-0.9,0.6c-0.1,0.1-0.3,0.2-0.4,0.3c-0.1,0.1-0.3,0.2-0.4,0.3
			c-0.1,0.1-0.2,0.2-0.4,0.3c-0.1,0.1-0.2,0.2-0.4,0.4c-0.2,0.2-0.5,0.5-0.6,0.7c-0.2,0.2-0.4,0.5-0.6,0.8c-0.2,0.3-0.4,0.5-0.6,0.8
			c-0.2,0.3-0.3,0.6-0.5,0.9c-0.4,0.7-0.7,1.4-1,2.1v0c-0.2,0.5-0.6,1.3-1.2,1.9c0,0,0,0,0,0c-0.1,0.1-0.2,0.2-0.3,0.3
			c-0.1,0.1-0.2,0.2-0.3,0.3c-0.1,0.1-0.3,0.2-0.4,0.4c-0.2,0.2-0.3,0.3-0.4,0.4c-0.4,0.3-0.8,0.6-1.1,0.9c-0.4,0.3-0.8,0.5-1.2,0.8
			c-0.2,0.1-0.4,0.3-0.6,0.4c-0.2,0.1-0.4,0.2-0.6,0.3c-0.1,0.1-0.2,0.1-0.3,0.2c-0.1,0.1-0.2,0.1-0.3,0.1c-0.1,0-0.2,0.1-0.3,0.1
			c-0.1,0-0.2,0.1-0.3,0.1c-0.4,0.2-0.9,0.3-1.3,0.4c-0.4,0.1-0.8,0.2-1.3,0.3c-0.1,0-0.2,0-0.3,0c-0.1,0-0.2,0-0.3,0h-0.6h-0.5
			h-0.1H321h0h-0.1h0l0,0h-0.3c-0.2,0-0.3-0.1-0.5-0.1c-0.2,0-0.3-0.1-0.4-0.1c-0.3-0.1-0.5-0.2-0.7-0.3c-0.2-0.1-0.4-0.3-0.6-0.5
			c-0.1-0.1-0.2-0.2-0.2-0.3 M318.2,161.1c-0.1-0.1-0.2-0.3-0.2-0.4 M245.5,153.5c0.1-0.3,0.2-0.5,0.3-0.7c0.2-0.4,0.5-0.9,0.9-1.4
			c0.2-0.2,0.4-0.4,0.6-0.6c0.2-0.2,0.4-0.3,0.6-0.5c0.5-0.3,0.9-0.5,1.4-0.5c0.2,0,0.5,0,0.7,0c0.1,0,0.2,0,0.3,0
			c0.1,0,0.2,0,0.3,0.1c0.2,0.1,0.4,0.2,0.6,0.3c0.1,0,0.2,0.1,0.2,0.1c0,0.1,0.1,0.1,0.1,0.1c0.1,0.1,0.1,0.2,0.1,0.3
			c0,0,0,0.1,0,0.1c0,0.1,0,0.1,0,0.2c0,0,0,0.1,0,0.2c0,0.1,0,0.1,0,0.2c0,0.1,0,0.2,0,0.2c0,0.1,0,0.2,0,0.3c0,0.1,0,0.2,0,0.3
			c0,0.1,0,0.2,0,0.3c0,0.1,0,0.2,0,0.3c0,0.1,0,0.2-0.1,0.3c0,0.2-0.1,0.4-0.2,0.6c-0.1,0.2-0.2,0.4-0.3,0.6
			c-0.1,0.2-0.2,0.4-0.3,0.5c0,0.1-0.1,0.1-0.1,0.2c-0.1,0.1-0.1,0.1-0.1,0.2c0,0-0.1,0.1-0.1,0.1c0,0,0,0-0.1,0.1l0,0l0,0
			c0,0,0,0-0.1,0c0,0,0,0-0.1,0.1c-0.1,0.1-0.2,0.1-0.3,0.2c-0.1,0.1-0.2,0.1-0.3,0.2c-0.2,0.1-0.4,0.2-0.6,0.3
			c-0.2,0.1-0.4,0.2-0.6,0.2c-0.4,0.1-0.9,0.2-1.4,0.1c-0.1,0-0.1,0-0.2,0c-1.8-0.4-1.9-1.5-1.8-2.2c0-0.1,0-0.1,0.1-0.2
			C245.3,154,245.4,153.8,245.5,153.5z M260.6,149c0-0.1,0-0.2,0.1-0.2c0.1-0.1,0.2-0.2,0.5-0.4c0,0,0,0,0.1,0c0,0,0.1,0,0.1,0
			c0,0,0,0,0.1,0h0h0h0v0c0.1,0,0.1,0,0.2,0c0.1,0,0.1,0,0.2,0c0.3,0,0.5,0,0.6,0.1c0,0,0.1,0.1,0.2,0.2c0.1,0.1,0.1,0.2,0.2,0.3
			c0.1,0.2,0.1,0.4,0.1,0.7c0,0.1,0,0.1,0,0.2c0,0.1,0,0.1,0,0.2c0,0.1,0,0.1,0,0.2c0,0.1,0,0.1,0,0.2c0,0.1-0.1,0.2-0.1,0.5
			c-0.2,0-0.3-0.1-0.5-0.1c-0.1-0.1-0.3-0.1-0.4-0.2c-0.1,0-0.2-0.1-0.2-0.1c-0.1,0-0.1-0.1-0.2-0.1l-0.4-0.3
			c-0.1-0.1-0.2-0.2-0.3-0.3c-0.1-0.1-0.2-0.3-0.2-0.4C260.5,149.1,260.5,149,260.6,149z M270.7,163.8
			C270.6,163.8,270.6,163.8,270.7,163.8l0.8-0.4c-0.2,0.1-0.3,0.2-0.5,0.3C270.8,163.7,270.7,163.8,270.7,163.8z M290.9,155.1
			c-0.1,0.2-0.3,0.3-0.4,0.5c-0.1,0.2-0.3,0.3-0.4,0.5c-0.4-0.3-0.7-0.7-1-1.1l-0.2-0.4c0-0.1-0.1-0.2-0.1-0.2c0-0.1,0-0.1-0.1-0.2
			l-0.1-0.4c0-0.1,0-0.1,0-0.2c0-0.1,0-0.1,0-0.2V153c0-0.1,0-0.2,0-0.2v-0.2c0-0.1,0.1-0.2,0.1-0.3c0-0.1,0.1-0.2,0.1-0.3
			c0.1-0.2,0.2-0.5,0.4-0.6v0h0v0c0,0,0.1-0.1,0.1-0.1l0.1-0.1c0-0.1,0.1-0.2,0.3-0.3c0.2-0.1,0.4-0.3,0.6-0.5
			c0.2-0.1,0.4-0.2,0.6-0.2c0.1,0,0.2,0,0.3,0c0.1,0,0.2,0,0.3,0.1c0.1,0,0.2,0.1,0.3,0.3c0,0.1,0.1,0.1,0.1,0.2
			c0,0.1,0.1,0.1,0.1,0.2c0,0,0,0,0,0.1c0,0,0,0,0,0v0l0,0v0v0c0,0,0,0.1,0,0.1c0,0,0,0.1,0,0.1c0,0.1,0,0.3,0,0.5
			c0,0.3-0.1,0.7-0.2,1.1c0,0.1-0.1,0.2-0.1,0.3c0,0.1-0.1,0.2-0.1,0.3c0,0.1-0.1,0.2-0.1,0.3c0,0.1-0.1,0.2-0.1,0.2
			C291.4,154.4,291.1,154.8,290.9,155.1z M299.2,153.5c0.1-0.3,0.2-0.5,0.3-0.7c0.2-0.4,0.5-0.9,0.9-1.4c0.2-0.2,0.4-0.4,0.6-0.6
			c0.2-0.2,0.4-0.3,0.6-0.5c0.5-0.3,0.9-0.5,1.4-0.5c0.2,0,0.5,0,0.7,0c0.1,0,0.2,0,0.3,0c0.1,0,0.2,0,0.3,0.1
			c0.2,0.1,0.4,0.2,0.5,0.3c0.1,0,0.1,0.1,0.2,0.1c0,0.1,0.1,0.1,0.1,0.1c0.1,0.1,0.1,0.2,0.1,0.3c0,0,0,0.1,0,0.1
			c0,0.1,0,0.1,0,0.2c0,0,0,0.1,0,0.2c0,0.1,0,0.1,0,0.2c0,0.1,0,0.2,0,0.2c0,0.1,0,0.2,0,0.3c0,0.1,0,0.2,0,0.3c0,0.1,0,0.2,0,0.3
			c0,0.1,0,0.2,0,0.3c0,0.1,0,0.2-0.1,0.3c0,0.2-0.1,0.4-0.2,0.6c-0.1,0.2-0.2,0.4-0.3,0.6c-0.1,0.2-0.2,0.4-0.3,0.5
			c0,0.1-0.1,0.1-0.1,0.2c-0.1,0.1-0.1,0.1-0.1,0.2c0,0-0.1,0.1-0.1,0.1c0,0,0,0-0.1,0.1l0,0l0,0c0,0,0,0-0.1,0c0,0,0,0-0.1,0.1
			c-0.1,0.1-0.2,0.1-0.3,0.2c-0.1,0.1-0.2,0.1-0.3,0.2c-0.2,0.1-0.4,0.2-0.6,0.3c-0.2,0.1-0.4,0.2-0.6,0.2c-0.4,0.1-0.9,0.2-1.4,0.1
			c-0.1,0-0.1,0-0.2,0h0c-1.9-0.4-1.9-1.6-1.8-2.3c0,0,0-0.1,0-0.1c0-0.1,0.1-0.3,0.2-0.4c0,0,0-0.1,0-0.1l0,0
			C299.1,153.7,299.2,153.6,299.2,153.5z M336.2,153.5c0.1-0.3,0.2-0.5,0.3-0.7c0.2-0.4,0.6-0.9,0.9-1.4c0.2-0.2,0.4-0.4,0.5-0.6
			c0.2-0.2,0.4-0.3,0.6-0.5c0.4-0.3,0.9-0.5,1.4-0.5c0.2,0,0.5,0,0.7,0c0.1,0,0.2,0,0.3,0c0.1,0,0.2,0,0.3,0.1
			c0.2,0.1,0.4,0.2,0.6,0.3c0.1,0,0.2,0.1,0.2,0.1c0,0.1,0.1,0.1,0.1,0.1c0.1,0.1,0.1,0.2,0.1,0.3c0,0,0,0.1,0,0.1
			c0,0.1,0,0.1,0,0.2c0,0,0,0.1,0,0.2c0,0.1,0,0.1,0,0.2c0,0.1,0,0.2,0,0.2c0,0.1,0,0.2,0,0.3c0,0.1,0,0.2,0,0.3c0,0.1,0,0.2,0,0.3
			c0,0.1,0,0.2,0,0.3c0,0.1,0,0.2-0.1,0.3c0,0.2-0.1,0.4-0.2,0.6c-0.1,0.2-0.2,0.4-0.3,0.6c-0.1,0.2-0.2,0.4-0.3,0.5
			c0,0.1-0.1,0.1-0.2,0.2c0,0.1-0.1,0.1-0.1,0.2c0,0-0.1,0.1-0.1,0.1c0,0,0,0-0.1,0.1l0,0l0,0c0,0,0,0-0.1,0c0,0,0,0-0.1,0.1
			c-0.1,0.1-0.2,0.1-0.3,0.2c-0.1,0.1-0.2,0.1-0.3,0.2c-0.2,0.1-0.4,0.2-0.6,0.3c-0.2,0.1-0.4,0.2-0.6,0.2c-0.4,0.1-0.9,0.2-1.4,0.1
			c-0.1,0-0.1,0-0.2,0h0c-2.8-0.6-1.6-2.9-1.6-2.9l0,0.1C336.1,153.7,336.2,153.6,336.2,153.5z M351.3,149c0-0.1,0-0.2,0.1-0.2
			c0.1-0.1,0.2-0.2,0.5-0.4c0,0,0,0,0.1,0c0,0,0.1,0,0.1,0c0,0,0,0,0.1,0h0h0h0v0c0.1,0,0.1,0,0.2,0c0.1,0,0.1,0,0.2,0
			c0.3,0,0.5,0,0.6,0.1c0,0,0.1,0.1,0.2,0.2c0.1,0.1,0.1,0.2,0.2,0.3c0.1,0.2,0.1,0.4,0.1,0.7c0,0.1,0,0.1,0,0.2c0,0.1,0,0.1,0,0.2
			c0,0.1,0,0.1,0,0.2c0,0.1,0,0.1,0,0.2c0,0.1-0.1,0.2-0.1,0.5c-0.2,0-0.3-0.1-0.5-0.1c-0.2-0.1-0.3-0.1-0.4-0.2
			c-0.1,0-0.2-0.1-0.2-0.1c-0.1,0-0.1-0.1-0.2-0.1l-0.4-0.3c-0.1-0.1-0.2-0.2-0.3-0.3c-0.1-0.1-0.2-0.3-0.2-0.4
			C351.3,149.1,351.3,149,351.3,149z M360.4,163.4C360.4,163.4,360.4,163.3,360.4,163.4c-0.1-0.2-0.1-0.4-0.2-0.6L360.4,163.4z
			 M377.9,160.6c-0.2,0.3-0.4,0.5-0.6,0.7c-0.1,0.1-0.2,0.2-0.3,0.3c-0.1,0.1-0.2,0.2-0.4,0.3c-0.5,0.4-1,0.7-1.5,1
			c-0.5,0.3-1,0.4-1.6,0.5c-0.1,0-0.1,0-0.2,0c-0.1,0-0.1,0-0.2,0h-0.4h-0.1h-0.1c0,0-0.1,0-0.2,0c-0.1,0-0.2,0-0.4-0.1
			c-0.2-0.1-0.4-0.1-0.5-0.2c-0.1,0-0.2-0.1-0.2-0.1c-0.1-0.1-0.1-0.1-0.2-0.2c0-0.1-0.1-0.1-0.1-0.2c0-0.1-0.1-0.2-0.1-0.2
			c-0.1-0.2-0.1-0.5-0.2-0.6c-0.1-0.4-0.1-0.9,0-1.6c0-0.3,0.1-0.6,0.1-0.9c0.1-0.3,0.1-0.6,0.2-0.9c0.3-1.2,0.8-2.3,1.4-3.4
			c0.3-0.5,0.6-1.1,1-1.6c0,0,0,0,0-0.1c0,0,0,0,0-0.1v0.4c0,0.5,0,0.9,0.1,1.4c0.1,0.4,0.2,0.9,0.4,1.3c0,0.1,0.1,0.2,0.1,0.3
			c0.1,0.1,0.1,0.2,0.1,0.3c0,0,0,0,0,0.1c0,0,0,0,0,0.1v0v0h0l0,0.1c0.1,0.1,0.2,0.2,0.2,0.3c0.5,0.8,1.1,1.4,1.7,2
			c0.2,0.1,0.4,0.3,0.6,0.4c0.2,0.1,0.4,0.2,0.6,0.3c0.1,0,0.2,0.1,0.3,0.1C377.7,160.5,377.8,160.5,377.9,160.6
			C377.9,160.6,377.9,160.6,377.9,160.6z M380.7,153.4c0,0.3-0.1,0.6-0.1,1c0,0.3-0.1,0.6-0.2,0.9c-0.1,0.3-0.2,0.6-0.3,1
			c-0.1,0.3-0.2,0.6-0.3,0.9c-0.1,0.2-0.1,0.3-0.2,0.5c-0.1,0.2-0.1,0.3-0.2,0.5c-0.1,0-0.1-0.1-0.2-0.1c-0.1,0-0.2-0.1-0.3-0.2
			c-0.1-0.1-0.2-0.2-0.2-0.3c-0.1-0.1-0.1-0.2-0.2-0.3c-0.3-0.5-0.5-0.9-0.6-1.4c0,0,0-0.1,0-0.1c0,0,0-0.1,0-0.1v0v0c0,0,0,0,0,0
			v-0.1c0-0.1-0.1-0.2-0.1-0.3c0-0.1-0.1-0.3-0.1-0.4c0-0.1,0-0.2,0-0.3c0-0.1,0-0.3,0-0.4c0-0.1,0-0.2,0-0.3c0-0.1,0-0.2,0-0.4
			c0-0.1,0-0.2,0-0.4c0-0.2,0.1-0.5,0.1-0.7c0-0.2,0.1-0.4,0.1-0.7c0-0.2,0.1-0.4,0.2-0.7c0,0,0-0.1,0.1-0.1c0-0.1,0-0.1,0.1-0.1
			c0.1-0.1,0.1-0.2,0.2-0.3c0.2-0.4,0.5-0.6,0.9-0.6c0.1,0,0.1,0,0.2,0c0,0,0.1,0,0.1,0c0,0,0,0,0.1,0c0.1,0,0.1,0,0.2,0.1
			c0,0,0.1,0.1,0.2,0.2c0.1,0.1,0.2,0.3,0.3,0.6c0.1,0.3,0.2,0.5,0.2,0.8c0,0.3,0.1,0.6,0.1,0.9C380.8,152.7,380.7,153,380.7,153.4z
			"/>
		<g>
			<g>
				<polygon class="st16" points="201.1,116.1 202.9,119.8 206.9,120.4 204,123.2 204.7,127.2 201.1,125.3 197.5,127.2 198.2,123.2 
					195.2,120.4 199.3,119.8 				"/>
				<g>
					<path class="st16" d="M203.9,161.7L203.9,161.7C203.9,161.7,203.9,161.7,203.9,161.7c-0.1,0-0.2,0-0.3,0
						c-1.4-0.3-1.8-2.4-1.8-3.8V156c0-1.7,1.2-2.3,1.2-2.3h0c3.4-1.3,6-6.1,6-11.9c0-2.2-0.4-4.2-1-5.9h-13.8c-0.6,1.8-1,3.8-1,5.9
						c0,5.8,2.6,10.6,6,11.9h0c0,0,1.2,0.6,1.2,2.2v0.7h0c0,0,0.3,4.6-1.8,5c-0.1,0-0.2,0-0.3,0c0,0,0,0-0.1,0l0,0
						c-1.4,0.2-2.4,0.5-2.4,0.8c0,0.5,2.3,0.9,5.2,0.9c2.9,0,5.2-0.4,5.2-0.9C206.3,162.1,205.3,161.8,203.9,161.7z"/>
					<path class="st16" d="M208,134.5c0.1-0.2,0.2-0.4,0.2-0.6c0-0.6-0.4-1.1-1-1.1c-0.1-0.5-0.5-0.8-1-0.9c-0.1-0.6-0.6-1-1.2-1
						c-0.1,0-0.1,0-0.2,0c-0.3-0.6-0.8-1-1.5-1c-0.3,0-0.6,0.1-0.8,0.2c-0.3-0.4-0.8-0.7-1.3-0.7c-0.5,0-1,0.3-1.3,0.7
						c-0.2-0.1-0.5-0.2-0.8-0.2c-0.7,0-1.2,0.4-1.5,1c-0.1,0-0.1,0-0.2,0c-0.6,0-1.1,0.4-1.2,1c-0.5,0.1-0.9,0.4-1,0.9
						c-0.6,0.1-1,0.5-1,1.1c0,0.2,0.1,0.4,0.2,0.6H208z"/>
				</g>
				<path class="st16" d="M220.7,140.1c0-8.6-5.5-15.9-13.2-18.5l-2,1.9c7.6,2,13.2,8.9,13.2,17.1c0,5.6-1.5,10.6-6.1,16.4h0
					l-11.6,14.8L189.5,157h0c-4.6-5.8-6.1-10.8-6.1-16.4c0-8.2,5.6-15.1,13.3-17.1l-2-1.9c-7.7,2.6-13.2,9.9-13.2,18.5
					c0,6.2,1.7,11.7,6.8,18.2h0l12.9,16.5l12.9-16.5h0C219,151.9,220.7,146.3,220.7,140.1z"/>
				<polygon class="st16" points="201.1,116.1 202.9,119.8 206.9,120.4 204,123.2 204.7,127.2 201.1,125.3 197.5,127.2 198.2,123.2 
					195.2,120.4 199.3,119.8 				"/>
			</g>
			<path class="st16" d="M237.5,132.3c0.7-0.8,1.2-1.1,1.2-1.1c-8.4-5.6-17,1.5-17,1.5l0,0.1c0.9,2.4,1.3,4.9,1.3,7.4
				c0,3.3-0.5,6.4-1.7,9.5l0,0c0,0,6.8-8.8,16.2-5.3c0,0-0.7-0.7-1.4-2c-0.7-1.4-1.3-3.3-0.8-5.6C236,134.5,236.8,133.1,237.5,132.3
				z M234.6,142.3c0,0-5.5-1.4-10.2,2.7c1.1-6.6-0.7-11.7-0.7-11.7s6.4-4.7,12.8-2C236.5,131.4,232,136.1,234.6,142.3z"/>
			<path class="st16" d="M166.6,136.7c0.6,2.3-0.1,4.3-0.8,5.6c-0.7,1.2-1.4,2-1.4,2c9.4-3.6,16.2,5.3,16.2,5.3l0,0
				c-1.2-3.1-1.7-6.2-1.7-9.5c0-2.5,0.5-5,1.3-7.4l0-0.1c0,0-8.6-7.1-17-1.5c0,0,0.5,0.3,1.2,1.1
				C165.3,133.1,166.1,134.5,166.6,136.7z M165.6,131.4c6.4-2.7,12.8,2,12.8,2s-1.8,5.1-0.7,11.7c-4.7-4.1-10.2-2.7-10.2-2.7
				C170.1,136.1,165.6,131.4,165.6,131.4z"/>
		</g>
	</g>
</g>
</svg>
