<?xml version="1.0" encoding="utf-8"?>
<!-- Generator: Adobe Illustrator 19.1.0, SVG Export Plug-In . SVG Version: 6.00 Build 0)  -->
<svg version="1.1" id="Layer_1" xmlns="http://www.w3.org/2000/svg" xmlns:xlink="http://www.w3.org/1999/xlink" x="0px" y="0px"
	 viewBox="0 0 450 300" style="enable-background:new 0 0 450 300;" xml:space="preserve">
<style type="text/css">
	.st0{fill:#4D4D4D;}
	.st1{fill:#FCBD10;}
	.st2{fill:#F38034;}
	.st3{fill:#B4406B;}
	.st4{fill:#658DC8;}
	.st5{opacity:0.5;}
	.st6{fill:none;}
	.st7{fill:#FFFFFF;}
	.st8{fill:#4D7092;}
	.st9{fill:#B66228;}
	.st10{fill:#C3902C;}
	.st11{fill:#7D3057;}
	.st12{fill:#333333;}
	.st13{fill:#E74E37;}
	.st14{opacity:0.8;}
	.st15{fill:#7C2C24;}
	.st16{fill:#FFE666;}
	.st17{opacity:0.4;}
	.st18{fill:#80D1EA;}
	.st19{fill:#231F20;}
	.st20{fill:#EC1C24;}
	.st21{fill:#DE271E;}
	.st22{fill:#E1AA1F;}
	.st23{fill:#C28214;}
	.st24{fill:none;stroke:#12100B;stroke-width:1.5;stroke-miterlimit:10;}
	.st25{fill:#BBE020;}
	.st26{fill:#52561B;}
	.st27{fill:#804000;}
	.st28{fill:#575756;}
	.st29{fill:#58BEEC;}
	.st30{fill:#3DAEF4;}
	.st31{fill:#FFB300;}
	.st32{fill:#FFFF00;}
	.st33{fill:#FF4D3B;}
	.st34{fill:#C757FF;}
	.st35{fill:url(#SVGID_1_);}
	.st36{opacity:0.8;fill:url(#SVGID_2_);}
	.st37{fill:url(#SVGID_3_);}
	.st38{fill:#7CFF1D;}
	.st39{opacity:0.9;fill:url(#SVGID_4_);}
	.st40{fill:#33BFFF;}
	.st41{fill:url(#SVGID_5_);}
	.st42{fill:#9D2DA0;}
	.st43{fill:#631D66;}
	.st44{fill:#E4AEED;}
</style>
<rect x="0" class="st13" width="450" height="300"/>
<g>
	<g class="st17">
		<g>
			<g>
				<polygon class="st15" points="227.5,98.8 231.1,106 239.1,107.2 233.3,112.8 234.7,120.8 227.5,117 220.4,120.8 221.8,112.8 
					216,107.2 224,106 				"/>
				<g>
					<path class="st15" d="M233.1,189.2L233.1,189.2C233.1,189.2,233.1,189.2,233.1,189.2c-0.2,0-0.4-0.1-0.6-0.1
						c-2.8-0.6-3.5-4.7-3.6-7.5v-3.8c0-3.4,2.4-4.6,2.4-4.6h-0.1c6.9-2.6,11.9-12.2,11.9-23.7c0-4.3-0.7-8.3-2-11.8h-27.3
						c-1.2,3.5-2,7.5-2,11.8c0,11.5,5.1,21.1,11.9,23.7h-0.1c0,0,2.3,1.1,2.4,4.5v1.4h0c0,0,0.6,9.1-3.7,9.9c-0.2,0-0.3,0-0.5,0.1
						c0,0-0.1,0-0.1,0l0,0c-2.9,0.3-4.8,0.9-4.8,1.5c0,1,4.7,1.9,10.4,1.9c5.7,0,10.4-0.8,10.4-1.9
						C237.9,190.1,236,189.6,233.1,189.2z"/>
					<path class="st15" d="M241.2,135.4c0.2-0.3,0.3-0.7,0.3-1.1c0-1.2-0.9-2.1-2-2.2c-0.2-0.9-1-1.7-1.9-1.8c-0.2-1.1-1.2-2-2.3-2
						c-0.1,0-0.2,0-0.3,0c-0.5-1.1-1.7-1.9-3-1.9c-0.6,0-1.2,0.2-1.7,0.5c-0.6-0.8-1.5-1.3-2.6-1.3c-1.1,0-2,0.5-2.6,1.3
						c-0.5-0.3-1.1-0.5-1.7-0.5c-1.3,0-2.4,0.8-3,1.9c-0.1,0-0.2,0-0.3,0c-1.2,0-2.1,0.9-2.3,2c-1,0.1-1.7,0.9-1.9,1.8
						c-1.1,0.1-2,1.1-2,2.2c0,0.4,0.1,0.8,0.3,1.1H241.2z"/>
				</g>
				<path class="st15" d="M266.5,146.4c0-17.1-11-31.6-26.3-36.8l-3.9,3.8c15.1,3.9,26.3,17.6,26.3,33.9c0,11.1-3,21-12.1,32.5h0
					l-23,29.5l-23-29.5h0c-9.1-11.5-12.1-21.4-12.1-32.5c0-16.4,11.2-30.1,26.3-33.9l-3.9-3.8c-15.3,5.3-26.3,19.8-26.3,36.8
					c0,12.4,3.3,23.3,13.5,36.2h0l25.5,32.8l25.5-32.8h0C263.2,169.7,266.5,158.8,266.5,146.4z"/>
				<polygon class="st15" points="227.5,98.8 231.1,106 239.1,107.2 233.3,112.8 234.7,120.8 227.5,117 220.4,120.8 221.8,112.8 
					216,107.2 224,106 				"/>
			</g>
			<path class="st15" d="M299.9,130.8c1.3-1.7,2.4-2.3,2.4-2.3c-16.6-11.1-33.8,3-33.8,3l0,0.1c1.7,4.7,2.7,9.7,2.7,14.7
				c0,6.5-0.9,12.7-3.3,18.9l0,0c0,0,13.6-17.6,32.3-10.5c0,0-1.5-1.5-2.8-3.9c-1.4-2.7-2.7-6.6-1.6-11.2
				C297,135.3,298.6,132.5,299.9,130.8z M294.2,150.8c0,0-11-2.7-20.3,5.3c2.2-13.2-1.4-23.2-1.4-23.2s12.8-9.3,25.5-3.9
				C298,129.1,288.9,138.4,294.2,150.8z"/>
			<path class="st15" d="M159.1,139.6c1.1,4.6-0.1,8.5-1.6,11.2c-1.3,2.5-2.8,3.9-2.8,3.9c18.7-7.1,32.3,10.5,32.3,10.5l0,0
				c-2.4-6.2-3.3-12.3-3.3-18.9c0-5,1-10,2.7-14.7l0.1-0.1c0,0-17.2-14.1-33.8-3c0,0,1.1,0.6,2.4,2.3
				C156.4,132.5,158,135.3,159.1,139.6z M157.1,129.1c12.7-5.4,25.5,3.9,25.5,3.9s-3.6,10-1.4,23.2c-9.3-8.1-20.3-5.3-20.3-5.3
				C166.1,138.4,157.1,129.1,157.1,129.1z"/>
		</g>
	</g>
	<g>
		<g>
			<g>
				<polygon class="st16" points="222.5,96.7 226.1,104 234.1,105.1 228.3,110.8 229.7,118.7 222.5,115 215.4,118.7 216.7,110.8 
					210.9,105.1 218.9,104 				"/>
				<g>
					<path class="st16" d="M228.1,187.2L228.1,187.2C228.1,187.2,228.1,187.2,228.1,187.2c-0.2,0-0.4-0.1-0.6-0.1
						c-2.8-0.6-3.5-4.7-3.6-7.5v-3.8c0-3.4,2.4-4.6,2.4-4.6h-0.1c6.9-2.6,11.9-12.2,11.9-23.7c0-4.3-0.7-8.3-1.9-11.8h-27.3
						c-1.2,3.5-2,7.5-2,11.8c0,11.5,5.1,21.1,11.9,23.7h-0.1c0,0,2.3,1.1,2.4,4.5v1.4h0c0,0,0.6,9.1-3.7,9.9c-0.2,0-0.3,0-0.5,0.1
						c0,0-0.1,0-0.1,0l0,0c-2.9,0.3-4.8,0.9-4.8,1.5c0,1,4.7,1.9,10.4,1.9c5.7,0,10.4-0.8,10.4-1.9
						C232.9,188.1,231,187.5,228.1,187.2z"/>
					<path class="st16" d="M236.2,133.3c0.2-0.3,0.3-0.7,0.3-1.1c0-1.2-0.9-2.1-2-2.2c-0.2-0.9-1-1.7-1.9-1.8c-0.2-1.1-1.2-2-2.3-2
						c-0.1,0-0.2,0-0.3,0c-0.5-1.1-1.7-1.9-3-1.9c-0.6,0-1.2,0.2-1.7,0.5c-0.6-0.8-1.6-1.3-2.6-1.3c-1.1,0-2,0.5-2.6,1.3
						c-0.5-0.3-1.1-0.5-1.7-0.5c-1.3,0-2.4,0.8-3,1.9c-0.1,0-0.2,0-0.3,0c-1.2,0-2.1,0.9-2.3,2c-1,0.1-1.7,0.9-2,1.8
						c-1.1,0.1-2,1.1-2,2.2c0,0.4,0.1,0.8,0.3,1.1H236.2z"/>
				</g>
				<path class="st16" d="M261.5,144.4c0-17.1-11-31.6-26.3-36.8l-3.9,3.8c15.1,3.9,26.3,17.6,26.3,33.9c0,11.1-3,21-12.1,32.5h0
					l-23,29.5l-23-29.5h0c-9.1-11.5-12.1-21.4-12.1-32.5c0-16.4,11.2-30.1,26.4-33.9l-3.9-3.8c-15.3,5.3-26.3,19.8-26.3,36.8
					c0,12.4,3.3,23.3,13.5,36.2h0l25.6,32.8l25.5-32.8h0C258.2,167.7,261.5,156.7,261.5,144.4z"/>
				<polygon class="st16" points="222.5,96.7 226.1,104 234.1,105.1 228.3,110.8 229.7,118.7 222.5,115 215.4,118.7 216.7,110.8 
					210.9,105.1 218.9,104 				"/>
			</g>
			<path class="st16" d="M294.9,128.8c1.3-1.7,2.4-2.3,2.4-2.3c-16.6-11.1-33.8,3-33.8,3l0.1,0.1c1.7,4.7,2.7,9.7,2.7,14.7
				c0,6.5-0.9,12.6-3.3,18.9l0,0c0,0,13.6-17.6,32.3-10.5c0,0-1.5-1.5-2.8-3.9c-1.4-2.7-2.7-6.6-1.6-11.2
				C292,133.2,293.6,130.4,294.9,128.8z M289.2,148.8c0,0-11-2.7-20.3,5.3c2.2-13.2-1.4-23.2-1.4-23.2s12.8-9.3,25.5-3.9
				C293,127,283.9,136.3,289.2,148.8z"/>
			<path class="st16" d="M154.1,137.6c1.1,4.6-0.1,8.5-1.6,11.2c-1.3,2.5-2.8,3.9-2.8,3.9c18.7-7.1,32.3,10.5,32.3,10.5l0,0
				c-2.4-6.2-3.3-12.3-3.3-18.9c0-5,1-10,2.7-14.7l0.1-0.1c0,0-17.2-14.1-33.8-3c0,0,1.1,0.6,2.4,2.3
				C151.4,130.4,153,133.2,154.1,137.6z M152,127c12.7-5.4,25.5,3.9,25.5,3.9s-3.6,10-1.4,23.2c-9.3-8.1-20.3-5.3-20.3-5.3
				C161.1,136.3,152,127,152,127z"/>
		</g>
	</g>
</g>
</svg>
