<?xml version="1.0" encoding="utf-8"?>
<!-- Generator: Adobe Illustrator 19.1.0, SVG Export Plug-In . SVG Version: 6.00 Build 0)  -->
<svg version="1.1" id="Layer_1" xmlns="http://www.w3.org/2000/svg" xmlns:xlink="http://www.w3.org/1999/xlink" x="0px" y="0px"
	 viewBox="0 0 450 300" style="enable-background:new 0 0 450 300;" xml:space="preserve">
<style type="text/css">
	.st0{fill:#4D4D4D;}
	.st1{fill:#FCBD10;}
	.st2{fill:#F38034;}
	.st3{fill:#B4406B;}
	.st4{fill:#658DC8;}
	.st5{opacity:0.5;}
	.st6{fill:none;}
	.st7{fill:#FFFFFF;}
	.st8{fill:#4D7092;}
	.st9{fill:#B66228;}
	.st10{fill:#C3902C;}
	.st11{fill:#7D3057;}
	.st12{fill:#333333;}
	.st13{fill:#E74E37;}
	.st14{opacity:0.8;}
	.st15{fill:#7C2C24;}
	.st16{fill:#FFE666;}
	.st17{opacity:0.4;}
	.st18{fill:#80D1EA;}
	.st19{fill:#231F20;}
	.st20{fill:#EC1C24;}
	.st21{fill:#DE271E;}
	.st22{fill:#E1AA1F;}
	.st23{fill:#C28214;}
	.st24{fill:none;stroke:#12100B;stroke-width:1.5;stroke-miterlimit:10;}
	.st25{fill:#BBE020;}
	.st26{fill:#52561B;}
	.st27{fill:#804000;}
	.st28{fill:#575756;}
	.st29{fill:#58BEEC;}
	.st30{fill:#3DAEF4;}
	.st31{fill:#FFB300;}
	.st32{fill:#FFFF00;}
	.st33{fill:#FF4D3B;}
	.st34{fill:#C757FF;}
	.st35{fill:url(#SVGID_1_);}
	.st36{opacity:0.8;fill:url(#SVGID_2_);}
	.st37{fill:url(#SVGID_3_);}
	.st38{fill:#7CFF1D;}
	.st39{opacity:0.9;fill:url(#SVGID_4_);}
	.st40{fill:#33BFFF;}
	.st41{fill:url(#SVGID_5_);}
	.st42{fill:#9D2DA0;}
	.st43{fill:#631D66;}
	.st44{fill:#E4AEED;}
</style>
<g>
	<g>
		<g>
			<path class="st12" d="M162.1,193.2v1.5c-0.5-0.2-1-0.4-1.5-0.5c-0.5-0.1-1-0.2-1.6-0.2c-0.8,0-1.5,0.2-2,0.5
				c-0.5,0.4-0.8,0.8-0.8,1.4c0,0.8,0.8,1.6,2.5,2.3c0.2,0.1,0.3,0.1,0.4,0.2c1.3,0.6,2.2,1.2,2.7,1.8c0.5,0.6,0.8,1.3,0.8,2.1
				c0,1.1-0.4,2.1-1.3,2.7c-0.9,0.7-2,1-3.5,1c-0.6,0-1.3-0.1-1.8-0.2c-0.6-0.1-1.1-0.3-1.6-0.5V204c0.6,0.3,1.1,0.5,1.7,0.6
				c0.6,0.1,1.1,0.2,1.7,0.2c0.9,0,1.7-0.2,2.3-0.6c0.6-0.4,0.9-1,0.9-1.6c0-0.6-0.2-1-0.5-1.4c-0.3-0.4-1.2-0.9-2.5-1.5
				c-1.3-0.6-2.2-1.2-2.7-1.7c-0.5-0.5-0.7-1.1-0.7-1.9c0-0.9,0.4-1.7,1.2-2.3c0.8-0.6,1.8-0.9,3.1-0.9c0.6,0,1.2,0,1.7,0.1
				C161.1,192.9,161.6,193.1,162.1,193.2z"/>
			<path class="st12" d="M167.5,203.8v7.7h-1.7v-18.6h1.5v2.6c0.5-0.9,1.1-1.6,1.9-2.1c0.8-0.5,1.6-0.7,2.6-0.7
				c1.6,0,2.9,0.6,3.8,1.8c1,1.2,1.4,2.8,1.4,4.8c0,2.1-0.5,3.8-1.5,5c-1,1.2-2.3,1.9-4,1.9c-0.9,0-1.7-0.2-2.4-0.6
				C168.6,205.1,168,204.5,167.5,203.8z M175.4,199.4c0-1.7-0.3-3-1-3.9c-0.7-0.9-1.6-1.4-2.8-1.4c-1.2,0-2.2,0.5-3,1.4
				c-0.7,1-1.1,2.3-1.1,3.9c0,1.7,0.4,3.1,1.1,4c0.7,1,1.7,1.4,3,1.4c1.1,0,2.1-0.5,2.8-1.5C175.1,202.4,175.4,201,175.4,199.4z"/>
			<path class="st12" d="M185.7,192.6c1.9,0,3.3,0.6,4.4,1.8c1.1,1.2,1.6,2.9,1.6,5c0,2.1-0.5,3.8-1.6,5c-1.1,1.2-2.6,1.9-4.4,1.9
				c-1.8,0-3.3-0.6-4.4-1.9c-1.1-1.2-1.7-2.9-1.7-5c0-2.1,0.5-3.7,1.6-5C182.4,193.2,183.9,192.6,185.7,192.6z M185.7,194
				c-1.3,0-2.3,0.5-3.1,1.5c-0.8,1-1.2,2.3-1.2,3.9c0,1.6,0.4,2.9,1.2,3.9c0.8,1,1.8,1.5,3.1,1.5c1.3,0,2.4-0.5,3.2-1.5
				c0.8-1,1.2-2.3,1.2-3.9c0-1.7-0.4-3-1.2-3.9C188.1,194.5,187,194,185.7,194z"/>
			<path class="st12" d="M201.5,192.8v1.7c-0.2,0-0.4-0.1-0.5-0.1c-0.1,0-0.3,0-0.4,0c-1.1,0-2,0.4-2.6,1.2c-0.6,0.8-0.9,2-0.9,3.5
				v6.9h-1.7v-13.1h1.5v2.8c0.3-0.9,0.8-1.7,1.5-2.2c0.7-0.5,1.4-0.8,2.3-0.8c0.1,0,0.2,0,0.4,0
				C201.1,192.8,201.3,192.8,201.5,192.8z"/>
			<path class="st12" d="M206.8,189v3.9h3.1v1.3h-3.1v7.6c0,1.1,0.1,1.8,0.4,2.2c0.3,0.4,0.8,0.6,1.4,0.6c0.2,0,0.4,0,0.7-0.1
				c0.2-0.1,0.5-0.1,0.7-0.2v1.5c-0.3,0.1-0.5,0.1-0.8,0.2c-0.3,0-0.6,0.1-0.9,0.1c-1.2,0-2-0.3-2.5-0.9c-0.5-0.6-0.7-1.6-0.7-3.1
				v-7.9h-2.7v-1.3h2.7v-3.3L206.8,189z"/>
			<path class="st12" d="M219.4,193.2v1.5c-0.5-0.2-1-0.4-1.5-0.5c-0.5-0.1-1-0.2-1.6-0.2c-0.8,0-1.5,0.2-2,0.5
				c-0.5,0.4-0.8,0.8-0.8,1.4c0,0.8,0.8,1.6,2.5,2.3c0.2,0.1,0.3,0.1,0.4,0.2c1.3,0.6,2.2,1.2,2.7,1.8c0.5,0.6,0.8,1.3,0.8,2.1
				c0,1.1-0.4,2.1-1.3,2.7c-0.9,0.7-2,1-3.5,1c-0.6,0-1.3-0.1-1.8-0.2c-0.6-0.1-1.1-0.3-1.6-0.5V204c0.6,0.3,1.1,0.5,1.7,0.6
				c0.6,0.1,1.1,0.2,1.7,0.2c0.9,0,1.7-0.2,2.3-0.6c0.6-0.4,0.9-1,0.9-1.6c0-0.6-0.2-1-0.5-1.4c-0.3-0.4-1.2-0.9-2.5-1.5
				c-1.3-0.6-2.2-1.2-2.7-1.7c-0.5-0.5-0.7-1.1-0.7-1.9c0-0.9,0.4-1.7,1.2-2.3c0.8-0.6,1.8-0.9,3.1-0.9c0.6,0,1.2,0,1.7,0.1
				C218.4,192.9,218.9,193.1,219.4,193.2z"/>
			<path class="st12" d="M221.3,192.9h1.8l3.1,10.6c0,0.1,0,0.2,0.1,0.3c0,0.2,0.1,0.4,0.2,0.8c0.1-0.4,0.1-0.7,0.2-1.1c0,0,0,0,0,0
				l3.3-10.7h2.1l3.3,10.5c0,0.1,0.1,0.5,0.2,1.1c0,0.1,0,0.1,0,0.1c0-0.4,0.1-0.6,0.1-0.8c0-0.2,0.1-0.3,0.1-0.3l3.4-10.6h1.6
				l-4.4,13.1h-1.9l-3.5-11c-0.1-0.2-0.1-0.4-0.1-0.6c0-0.2,0-0.3-0.1-0.5c0,0.3-0.1,0.6-0.1,0.7c0,0.2-0.1,0.3-0.1,0.3l-3.4,10.9
				h-1.9L221.3,192.9z"/>
			<path class="st12" d="M253.2,198.8v0.9H244c0.1,1.7,0.5,2.9,1.3,3.8c0.8,0.9,2,1.3,3.4,1.3c0.6,0,1.2-0.1,1.8-0.2
				c0.6-0.2,1.2-0.4,1.8-0.7v1.6c-0.6,0.2-1.2,0.4-1.8,0.6c-0.6,0.1-1.2,0.2-1.9,0.2c-1.9,0-3.4-0.6-4.5-1.8
				c-1.1-1.2-1.6-2.9-1.6-5.1c0-2,0.5-3.7,1.6-4.9c1.1-1.2,2.5-1.9,4.2-1.9c1.6,0,2.8,0.6,3.7,1.7
				C252.7,195.4,253.2,196.9,253.2,198.8z M251.6,198.5c-0.1-1.5-0.5-2.6-1.1-3.4c-0.6-0.8-1.5-1.2-2.6-1.2c-1.1,0-1.9,0.4-2.7,1.2
				c-0.7,0.8-1.1,1.9-1.3,3.3H251.6z"/>
			<path class="st12" d="M264.9,197.6v8.4h-1.5v-2.3c-0.5,0.8-1.1,1.4-1.8,1.8c-0.7,0.4-1.6,0.6-2.5,0.6c-1.3,0-2.3-0.3-3-1
				c-0.8-0.7-1.1-1.6-1.1-2.7c0-1.4,0.6-2.5,1.7-3.3c1.2-0.8,2.8-1.2,4.9-1.2h1.7c0-0.1,0-0.1,0-0.2c0-0.1,0-0.2,0-0.2
				c0-1.1-0.3-1.9-0.8-2.6c-0.5-0.6-1.3-0.9-2.3-0.9c-0.7,0-1.3,0.1-1.9,0.3c-0.6,0.2-1.2,0.5-1.8,0.8v-1.6c0.6-0.3,1.3-0.6,2-0.7
				c0.7-0.2,1.3-0.2,2-0.2c1.5,0,2.6,0.4,3.4,1.3C264.5,194.7,264.9,196,264.9,197.6z M261.4,199.4c-1.5,0-2.7,0.3-3.5,0.8
				c-0.8,0.5-1.2,1.2-1.2,2.2c0,0.8,0.2,1.4,0.7,1.8c0.5,0.5,1.1,0.7,1.9,0.7c1.2,0,2.2-0.4,2.9-1.2c0.7-0.8,1.1-1.8,1.1-3.1v-1.2
				H261.4z"/>
			<path class="st12" d="M275.3,192.8v1.7c-0.2,0-0.4-0.1-0.5-0.1c-0.1,0-0.3,0-0.4,0c-1.1,0-2,0.4-2.6,1.2c-0.6,0.8-0.9,2-0.9,3.5
				v6.9h-1.7v-13.1h1.5v2.8c0.3-0.9,0.8-1.7,1.5-2.2c0.6-0.5,1.4-0.8,2.3-0.8c0.1,0,0.2,0,0.4,0C275,192.8,275.2,192.8,275.3,192.8z
				"/>
		</g>
	</g>
	<g>
		<g>
			<path class="st12" d="M108.9,175.4l1-14.6l0.5-10.6l0.1-4.7c0-1.4,0.1-2.7,0.1-4l0-2.6c2.8,0,4.9,0.1,6.3,0.1c1.1,0,3,0,5.7-0.1
				c-0.4,5.1-0.7,9.6-0.8,13.5h14.5c0.1-1.5,0.2-3.4,0.3-5.9c0.1-2.5,0.1-4.2,0.1-5.1c0-0.5,0-1.3-0.1-2.5l6.3,0.1
				c0.7,0,2.5,0,5.6-0.1c-0.6,9.2-1,16-1.2,20.4c-0.2,4.5-0.3,9.8-0.3,16l-5.8-0.1c-0.9,0-3,0-6.3,0.1c0.4-4.2,0.7-9.2,0.9-14.8
				h-14.6l-0.4,14.8l-6.2-0.1C113.8,175.4,111.9,175.4,108.9,175.4"/>
			<path class="st12" d="M148.8,175.4l2.2-3.9l13.8-26l1.5-2.9c0.4-0.9,1-2.1,1.8-3.7c3.1,0,5.4,0.1,6.9,0.1c2.5,0,4.8,0,7-0.1
				l3.9,11.1l7.9,21.4l1.5,3.9c-3.1,0-5-0.1-5.6-0.1c-1.5,0-3.7,0-6.6,0.1c-0.8-2.9-1.9-6.4-3.4-10.4h-13.4
				c-1.5,3.1-3.1,6.6-4.8,10.4c-3.3,0-5.3-0.1-6.1-0.1C154,175.4,151.8,175.4,148.8,175.4 M169.5,157.3h8.3
				c-2.1-6.3-3.2-9.7-3.4-10.4c-1.2,2.6-2.2,4.8-3,6.4L169.5,157.3z"/>
			<path class="st12" d="M197.8,175.4c0.4-4.2,0.8-7.6,1-10.3c0.4-4.8,0.7-9.7,0.8-14.4c0.2-4.8,0.3-8.7,0.3-11.7
				c2.4,0,4.6,0.1,6.4,0.1c1.3,0,3.1,0,5.5-0.1l-0.6,9.7l-0.8,15.1l-0.1,3.7c3.1,0.1,5.1,0.1,6,0.1c4.7,0,8.2-0.1,10.6-0.2l-0.6,8.1
				c-4.7,0-9.1-0.1-13.4-0.1C207.2,175.4,202.1,175.4,197.8,175.4"/>
			<path class="st12" d="M229.9,175.4c0.4-4.2,0.8-7.6,1-10.3c0.4-4.8,0.7-9.7,0.8-14.4c0.2-4.8,0.3-8.7,0.3-11.7
				c2.4,0,4.6,0.1,6.4,0.1c1.3,0,3.1,0,5.4-0.1l-0.6,9.7l-0.8,15.1l-0.1,3.7c3.1,0.1,5.1,0.1,6,0.1c4.7,0,8.2-0.1,10.6-0.2l-0.6,8.1
				c-4.7,0-9.1-0.1-13.4-0.1C239.2,175.4,234.2,175.4,229.9,175.4"/>
			<path class="st12" d="M262.2,175.4c0.4-4.6,0.8-8.4,1-11.5c0.2-3.1,0.4-7.2,0.6-12.4c0.2-5.1,0.3-8.5,0.3-10.2l0-2.4
				c4.2,0,9.3,0.1,15.3,0.1c5.5,0,10.4,0,14.6-0.1l-0.1,0.9c0,0.2-0.1,1-0.1,2.3l-0.2,2.9c0,0.6-0.1,1.3-0.1,1.9
				c-3.4-0.1-6.3-0.2-8.7-0.2c-2.6,0-4.3,0-5.2,0c-0.9,0-2.3,0.1-4.2,0.1l-0.3,6.1c2.1,0.1,4.6,0.1,7.4,0.1c1,0,3.6-0.1,8-0.2
				c-0.2,2.3-0.3,5-0.5,8.1c-3.1,0-5.5-0.1-7.1-0.1c-2.5,0-5.2,0.1-8.3,0.2l-0.3,6.5h3.1c0.9,0,2.8,0,5.6-0.1l5.5-0.1
				c0.8,0,2.2-0.1,4.1-0.2c-0.2,2.6-0.4,5.4-0.5,8.2c-4.3,0-9.1-0.1-14.3-0.1l-11.8,0L262.2,175.4z"/>
			<path class="st12" d="M306,175.4c0.2-1.4,0.4-3.9,0.6-7.3c0.2-3.5,0.4-5.9,0.4-7.3l-12.2-21.8c2.7,0,4.9,0.1,6.6,0.1
				c1.7,0,3.7,0,6-0.1c0.7,1.8,1.7,3.9,2.9,6.4c1.2,2.5,2.2,4.7,3,6.6c2-3.6,3.7-6.4,4.9-8.5c1.2-2,2.1-3.5,2.7-4.5
				c2.3,0,4.4,0.1,6.5,0.1c1.1,0,3.1,0,6-0.1l-11.7,17.3c-2.3,3.5-3.5,5.3-3.5,5.4l0,0.3v0.3l0,0.3l-0.2,4.1
				c-0.1,2.7-0.2,5.7-0.3,8.9c-2.5,0-4.5-0.1-5.8-0.1C310.5,175.4,308.5,175.4,306,175.4"/>
		</g>
		<polygon class="st12" points="166,125.1 266.4,112.6 252.6,136.5 309.7,87.2 		"/>
	</g>
</g>
</svg>
