<?xml version="1.0" encoding="utf-8"?>
<!-- Generator: Adobe Illustrator 19.1.0, SVG Export Plug-In . SVG Version: 6.00 Build 0)  -->
<svg version="1.1" id="Layer_1" xmlns="http://www.w3.org/2000/svg" xmlns:xlink="http://www.w3.org/1999/xlink" x="0px" y="0px"
	 viewBox="0 0 450 300" style="enable-background:new 0 0 450 300;" xml:space="preserve">
<style type="text/css">
	.st0{fill:#4D4D4D;}
	.st1{fill:#FCBD10;}
	.st2{fill:#F38034;}
	.st3{fill:#B4406B;}
	.st4{fill:#658DC8;}
	.st5{opacity:0.5;}
	.st6{fill:none;}
	.st7{fill:#FFFFFF;}
	.st8{fill:#4D7092;}
	.st9{fill:#B66228;}
	.st10{fill:#C3902C;}
	.st11{fill:#7D3057;}
	.st12{fill:#333333;}
	.st13{fill:#E74E37;}
	.st14{opacity:0.4;}
	.st15{fill:#7C2C24;}
	.st16{fill:#FFE666;}
	.st17{fill:#80D1EA;}
	.st18{fill:#231F20;}
	.st19{fill:#EC1C24;}
	.st20{fill:#DE271E;}
	.st21{fill:#E1AA1F;}
	.st22{fill:#C28214;}
	.st23{fill:none;stroke:#12100B;stroke-width:1.5;stroke-miterlimit:10;}
	.st24{fill:#BBE020;}
	.st25{fill:#52561B;}
	.st26{fill:#804000;}
	.st27{fill:#575756;}
	.st28{fill:#58BEEC;}
	.st29{fill:#3DAEF4;}
	.st30{fill:#FFB300;}
	.st31{fill:#FFFF00;}
	.st32{fill:#FF4D3B;}
	.st33{fill:#C757FF;}
	.st34{fill:url(#SVGID_1_);}
	.st35{opacity:0.8;fill:url(#SVGID_2_);}
	.st36{fill:url(#SVGID_3_);}
	.st37{fill:#7CFF1D;}
	.st38{opacity:0.9;fill:url(#SVGID_4_);}
	.st39{fill:#33BFFF;}
	.st40{fill:url(#SVGID_5_);}
	.st41{fill:#9D2DA0;}
	.st42{fill:#631D66;}
	.st43{fill:#E4AEED;}
</style>
<path class="st41" d="M404.9,40c0-5.5-4.5-10-10-10H55.1c-5.5,0-10,4.5-10,10v220c0,5.5,4.5,10,10,10h339.9c5.5,0,10-4.5,10-10V40z"
	/>
<g>
	<g>
		<path class="st42" d="M239.1,98.5c0.5,6.4,4.3,13,8.8,22.8l7.4,15.9c1,2.2,5.1,9.3,6.6,12.1c1.5-2.7,3.3-6.2,6.3-12.8l5.7-12.4
			c5.4-11.6,8.2-17.5,10.7-27.2c5.2,0.4,7.8,0.3,11.1,0.3c3.7,0,8.9-0.1,12.9-0.3c1.2,0.7,1.2,2.8,0.3,3.9l-3.3,0.6
			c-4.6,0.8-6.9,2.1-6.9,8.1c0,23.2,0.2,35.3,0.9,49.5c0.2,5.2,0.7,7.9,5.1,8.4l3.6,0.4c0.9,0.9,0.9,3.5-0.2,3.9
			c-5.2-0.2-10-0.3-15.5-0.3c-5.1,0-11.2,0.1-16.6,0.3c-1.4-0.6-1.5-3.1-0.3-3.9l3.4-0.4c5.2-0.7,5.2-2,5.2-8.9l-0.2-29.2v-12.8
			h-0.2c-8.3,18-17.3,36.8-24.7,55.8c-0.6,0.4-1.3,0.8-2.3,0.8c-1,0-2.2-0.2-2.9-0.7c-4.4-13.9-18.2-41.8-24.5-56.5l-6.8-13.4
			l5.4-5.3c3.4,0,6.4,0,9.9-0.3L239.1,98.5z"/>
		<path class="st43" d="M142.9,100.9c-0.9-0.9-0.9-3.6,0.3-3.9c3.8,0.2,8.7,0.3,14.2,0.3c3.7,0,7,0,11-0.3c0,7,3.9,13.8,8.9,24.4
			l7.4,15.9c1,2.2,5.1,9.3,6.6,12.1c1.5-2.7,3.3-6.2,6.3-12.8l5.7-12.4c5.4-11.6,8.2-17.5,10.7-27.2c5.2,0.4,7.8,0.3,11.1,0.3
			c3.7,0,8.9-0.1,12.9-0.3c1.2,0.7,1.2,2.8,0.3,3.9l-3.3,0.6c-4.6,0.8-6.9,2.1-6.9,8.1c0,23.2,0.2,35.3,0.9,49.5
			c0.2,5.2,0.7,7.9,5.1,8.4l3.6,0.4c0.9,0.9,0.9,3.5-0.2,3.9c-5.2-0.2-10-0.3-15.5-0.3c-5.1,0-11.2,0.1-16.6,0.3
			c-1.4-0.6-1.5-3.1-0.3-3.9l3.4-0.4c5.2-0.7,5.2-2,5.2-8.9l-0.2-29.2v-12.8h-0.2c-8.3,18-17.3,36.8-24.7,55.8
			c-0.6,0.4-1.4,0.8-2.2,0.8c-1,0-2.3-0.2-2.9-0.7c-4.4-13.9-18.2-41.8-24.5-56.5h-0.2c-0.4,7.3-0.6,12.3-0.7,18.1
			c-0.1,7.3-0.2,18.6-0.2,25.3c0,5.6,0.7,7.2,5.2,7.9l4.4,0.7c0.9,0.8,0.7,3.4-0.2,3.9c-4.2-0.2-9-0.3-13.3-0.3
			c-3.6,0-7.9,0.1-12.4,0.3c-1.5-0.4-1.5-3.4-0.5-3.9l2-0.3c5.7-1,6.4-1.7,7.1-8.7c0.6-5.5,0.9-15.3,1.6-26
			c0.5-7.5,0.7-16.6,0.7-22.7c0-6.4-2.5-8.1-7-8.9L142.9,100.9z"/>
	</g>
	<g>
		<path class="st43" d="M143.2,195.9h-0.8h-0.8v-12.5h1.2h1.2l3.6,10.6h0l3.5-10.6h1.2h1.2v12.5h-0.8h-0.8v-10.5h0l-3.5,10.5h-0.8
			h-0.8l-3.5-10.5h0V195.9z"/>
		<path class="st43" d="M158.2,196.2c-0.9,0-1.6-0.2-2.1-0.7c-0.5-0.5-0.8-1.1-0.8-1.9c0-0.8,0.2-1.5,0.7-1.9
			c0.5-0.5,1.2-0.8,2.1-0.9l2.1-0.3c0.2,0,0.3,0,0.5-0.1c0.2-0.1,0.4-0.2,0.5-0.3c0.1-0.2,0.2-0.3,0.2-0.6v-0.1
			c0-0.5-0.2-0.9-0.6-1.1c-0.4-0.3-0.9-0.4-1.5-0.4c-0.6,0-1.1,0.1-1.5,0.4c-0.4,0.3-0.6,0.7-0.6,1.3h-1.4c0.1-1,0.4-1.7,1.1-2.2
			c0.6-0.5,1.5-0.7,2.7-0.7c1.1,0,1.9,0.2,2.5,0.7c0.6,0.5,0.9,1.2,0.9,2.1v5c0,0.2,0,0.3,0.1,0.4c0.1,0.1,0.2,0.1,0.4,0.1
			c0,0,0.1,0,0.2,0c0.1,0,0.2,0,0.3-0.1v1.1c-0.1,0.1-0.3,0.1-0.5,0.1c-0.2,0-0.3,0.1-0.4,0.1c-0.6,0-1-0.2-1.3-0.5
			c-0.2-0.2-0.3-0.5-0.4-0.9c-0.1,0.1-0.2,0.3-0.4,0.4C160.3,195.8,159.3,196.2,158.2,196.2z M161.4,192.3v-1
			c-0.3,0.1-0.6,0.2-0.9,0.3l-1.4,0.2c-0.7,0.1-1.3,0.3-1.6,0.5c-0.3,0.2-0.5,0.6-0.5,1c0,0.5,0.1,0.9,0.4,1.2
			c0.3,0.3,0.7,0.4,1.2,0.4c0.8,0,1.5-0.2,2-0.7c0.4-0.3,0.6-0.6,0.8-1c0-0.1,0-0.2,0.1-0.3C161.4,192.7,161.4,192.5,161.4,192.3z"
			/>
		<path class="st43" d="M165.4,186.9h0.7h0.7v1.3l0.1-0.1c0.7-1,1.5-1.4,2.6-1.4c1.2,0,2.1,0.4,2.8,1.2c0.7,0.8,1,1.9,1,3.3
			c0,1.6-0.3,2.8-1,3.7c-0.7,0.9-1.7,1.3-2.9,1.3c-1,0-1.8-0.4-2.4-1.2l-0.1-0.1v4.6h-0.8h-0.8V186.9z M169.3,194.9
			c0.8,0,1.4-0.3,1.8-0.9c0.4-0.6,0.6-1.5,0.6-2.6c0-1.1-0.2-2-0.6-2.5s-1-0.8-1.8-0.8c-0.8,0-1.5,0.3-1.8,0.9
			c-0.4,0.6-0.6,1.6-0.6,2.9c0,1,0.2,1.7,0.6,2.2C167.9,194.6,168.5,194.9,169.3,194.9z"/>
		<path class="st43" d="M177.5,196.2c-0.9,0-1.6-0.2-2.1-0.7c-0.5-0.5-0.8-1.1-0.8-1.9c0-0.8,0.2-1.5,0.7-1.9
			c0.5-0.5,1.2-0.8,2.1-0.9l2.1-0.3c0.2,0,0.3,0,0.5-0.1c0.2-0.1,0.4-0.2,0.5-0.3c0.1-0.2,0.2-0.3,0.2-0.6v-0.1
			c0-0.5-0.2-0.9-0.6-1.1c-0.4-0.3-0.9-0.4-1.5-0.4c-0.6,0-1.1,0.1-1.5,0.4c-0.4,0.3-0.6,0.7-0.6,1.3h-1.4c0.1-1,0.4-1.7,1.1-2.2
			c0.6-0.5,1.5-0.7,2.7-0.7c1.1,0,1.9,0.2,2.5,0.7c0.6,0.5,0.9,1.2,0.9,2.1v5c0,0.2,0,0.3,0.1,0.4c0.1,0.1,0.2,0.1,0.4,0.1
			c0,0,0.1,0,0.2,0c0.1,0,0.2,0,0.3-0.1v1.1c-0.1,0.1-0.3,0.1-0.5,0.1c-0.2,0-0.3,0.1-0.4,0.1c-0.6,0-1-0.2-1.3-0.5
			c-0.2-0.2-0.3-0.5-0.4-0.9c-0.1,0.1-0.2,0.3-0.4,0.4C179.6,195.8,178.6,196.2,177.5,196.2z M180.7,192.3v-1
			c-0.3,0.1-0.6,0.2-0.9,0.3l-1.4,0.2c-0.7,0.1-1.3,0.3-1.6,0.5c-0.3,0.2-0.5,0.6-0.5,1c0,0.5,0.1,0.9,0.4,1.2
			c0.3,0.3,0.7,0.4,1.2,0.4c0.8,0,1.5-0.2,2-0.7c0.4-0.3,0.6-0.6,0.8-1c0-0.1,0-0.2,0.1-0.3C180.7,192.7,180.7,192.5,180.7,192.3z"
			/>
		<path class="st43" d="M190,189.5c0-0.5-0.2-0.9-0.6-1.2s-0.9-0.4-1.5-0.4c-0.6,0-1.1,0.1-1.4,0.3c-0.3,0.2-0.5,0.5-0.5,1
			c0,0.3,0.1,0.6,0.3,0.7c0.2,0.2,0.7,0.3,1.4,0.5l1.6,0.4c0.9,0.2,1.5,0.5,1.9,0.9c0.4,0.4,0.6,0.9,0.6,1.6c0,0.9-0.3,1.6-1,2.1
			c-0.6,0.5-1.5,0.8-2.6,0.8c-1.3,0-2.2-0.3-2.9-0.8c-0.6-0.5-1-1.3-1-2.4h1.5c0.1,0.6,0.3,1.1,0.7,1.4c0.4,0.3,1,0.4,1.8,0.4
			c0.7,0,1.2-0.1,1.6-0.4c0.4-0.3,0.5-0.6,0.5-1.1c0-0.3-0.1-0.6-0.3-0.7c-0.2-0.2-0.7-0.3-1.4-0.5l-1.6-0.4
			c-0.9-0.2-1.5-0.5-1.8-0.9c-0.4-0.4-0.5-0.9-0.5-1.5c0-0.9,0.3-1.5,0.9-2s1.4-0.7,2.5-0.7c1.1,0,1.9,0.3,2.5,0.8s1,1.2,1,2.1H190z
			"/>
		<path class="st43" d="M201.7,196.2c-1.2,0-2.2-0.5-2.9-1.4c-0.7-0.9-1.1-2.1-1.1-3.7c0-1.4,0.3-2.5,1-3.3c0.7-0.8,1.6-1.3,2.7-1.3
			c1.1,0,2,0.5,2.6,1.4l0.1,0.2v-4.7h0.8h0.8v12.5h-0.7h-0.7v-1.2l-0.2,0.3C203.6,195.8,202.7,196.2,201.7,196.2z M201.8,188
			c-0.9,0-1.5,0.3-1.9,0.8c-0.4,0.5-0.6,1.4-0.6,2.6c0,1.1,0.2,2,0.6,2.6c0.4,0.6,1,0.9,1.8,0.9c0.7,0,1.3-0.3,1.8-0.8
			c0.5-0.6,0.7-1.3,0.7-2.2c0-1.2-0.2-2.2-0.6-2.9C203.2,188.3,202.6,188,201.8,188z"/>
		<path class="st43" d="M211.6,196.2c-1.3,0-2.3-0.4-3-1.2c-0.7-0.8-1.1-1.9-1.1-3.4c0-1.5,0.4-2.7,1.2-3.6c0.8-0.9,1.8-1.4,3.1-1.4
			c1.2,0,2.1,0.4,2.9,1.3s1.1,2,1.1,3.5l0,0.5h-6.6c0.1,0.9,0.3,1.6,0.6,2.1c0.4,0.6,1.1,0.9,2,0.9c0.6,0,1.1-0.2,1.5-0.5
			c0.4-0.3,0.7-0.7,0.8-1.3h1.5c-0.2,1-0.7,1.8-1.4,2.3S212.7,196.2,211.6,196.2z M214.2,190.7c0-0.8-0.3-1.5-0.6-2
			c-0.4-0.5-1-0.8-1.8-0.8c-0.8,0-1.4,0.3-1.9,0.9c-0.4,0.5-0.6,1.1-0.7,1.8H214.2z"/>
		<path class="st43" d="M222.4,183.5h0.8h0.8v12.5h-0.8h-0.8V183.5z"/>
		<path class="st43" d="M228.6,196.2c-0.9,0-1.6-0.2-2.1-0.7s-0.8-1.1-0.8-1.9c0-0.8,0.2-1.5,0.7-1.9c0.5-0.5,1.2-0.8,2.1-0.9
			l2.1-0.3c0.2,0,0.3,0,0.5-0.1c0.2-0.1,0.3-0.2,0.5-0.3c0.1-0.2,0.2-0.3,0.2-0.6v-0.1c0-0.5-0.2-0.9-0.6-1.1s-0.9-0.4-1.5-0.4
			c-0.6,0-1.1,0.1-1.5,0.4c-0.4,0.3-0.6,0.7-0.6,1.3h-1.4c0.1-1,0.4-1.7,1.1-2.2s1.5-0.7,2.7-0.7c1.1,0,1.9,0.2,2.5,0.7
			c0.6,0.5,0.9,1.2,0.9,2.1v5c0,0.2,0,0.3,0.1,0.4s0.2,0.1,0.4,0.1c0,0,0.1,0,0.2,0c0.1,0,0.2,0,0.3-0.1v1.1
			c-0.1,0.1-0.3,0.1-0.5,0.1c-0.2,0-0.3,0.1-0.4,0.1c-0.6,0-1-0.2-1.3-0.5c-0.2-0.2-0.3-0.5-0.4-0.9c-0.1,0.1-0.2,0.3-0.4,0.4
			C230.7,195.8,229.7,196.2,228.6,196.2z M231.8,192.3v-1c-0.3,0.1-0.6,0.2-0.9,0.3l-1.4,0.2c-0.7,0.1-1.3,0.3-1.6,0.5
			c-0.3,0.2-0.5,0.6-0.5,1c0,0.5,0.1,0.9,0.4,1.2c0.3,0.3,0.7,0.4,1.2,0.4c0.8,0,1.5-0.2,2-0.7c0.4-0.3,0.6-0.6,0.8-1
			c0-0.1,0-0.2,0.1-0.3C231.8,192.7,231.8,192.5,231.8,192.3z"/>
		<path class="st43" d="M242.5,195.9h-0.8h-0.8v-12.5h1.2h1.2l3.6,10.6h0l3.5-10.6h1.2h1.2v12.5H252h-0.8v-10.5h0l-3.5,10.5h-0.8
			H246l-3.5-10.5h0V195.9z"/>
		<path class="st43" d="M258.9,196.2c-1.3,0-2.3-0.4-3-1.2c-0.7-0.8-1.1-1.9-1.1-3.4c0-1.5,0.4-2.7,1.2-3.6c0.8-0.9,1.8-1.4,3.1-1.4
			c1.2,0,2.1,0.4,2.9,1.3s1.1,2,1.1,3.5l0,0.5h-6.6c0.1,0.9,0.3,1.6,0.6,2.1c0.4,0.6,1.1,0.9,2,0.9c0.6,0,1.1-0.2,1.5-0.5
			c0.4-0.3,0.7-0.7,0.8-1.3h1.5c-0.2,1-0.7,1.8-1.4,2.3C260.8,195.9,259.9,196.2,258.9,196.2z M261.4,190.7c0-0.8-0.3-1.5-0.6-2
			c-0.4-0.5-1-0.8-1.8-0.8c-0.8,0-1.4,0.3-1.9,0.9c-0.4,0.5-0.6,1.1-0.7,1.8H261.4z"/>
		<path class="st43" d="M264.8,186.9h0.7h0.7v1.3l0.3-0.4c0.7-0.8,1.5-1.2,2.4-1.2c0.8,0,1.5,0.2,1.9,0.7c0.2,0.2,0.4,0.5,0.5,0.7
			l0.2-0.3c0.7-0.8,1.4-1.1,2.3-1.1c0.9,0,1.7,0.3,2.2,0.8c0.5,0.5,0.8,1.2,0.8,2.2v6.4h-0.8h-0.8v-5.8c0-0.7-0.1-1.2-0.4-1.6
			c-0.3-0.4-0.7-0.5-1.2-0.5c-0.7,0-1.2,0.3-1.6,0.8c-0.4,0.5-0.6,1.2-0.6,2.1v5.1h-0.8h-0.8v-6.2c0-0.6-0.1-1-0.4-1.3
			c-0.3-0.3-0.6-0.4-1.1-0.4c-0.7,0-1.2,0.3-1.7,0.9c-0.4,0.6-0.6,1.3-0.6,2.2v4.9h-0.8h-0.8V186.9z"/>
		<path class="st43" d="M279.9,194.9c-0.8-0.9-1.2-2-1.2-3.5c0-1.4,0.4-2.6,1.2-3.5c0.8-0.9,1.8-1.3,3-1.3c1.3,0,2.3,0.4,3.1,1.3
			s1.2,2,1.2,3.5c0,1.4-0.4,2.6-1.2,3.5s-1.8,1.3-3.1,1.3C281.7,196.2,280.7,195.7,279.9,194.9z M284.9,193.9
			c0.5-0.6,0.7-1.5,0.7-2.5s-0.2-1.9-0.7-2.5c-0.5-0.6-1.1-0.9-1.9-0.9c-0.8,0-1.4,0.3-1.9,0.9c-0.5,0.6-0.7,1.5-0.7,2.5
			s0.2,1.9,0.7,2.5c0.5,0.6,1.1,0.9,1.9,0.9C283.8,194.9,284.4,194.6,284.9,193.9z"/>
		<path class="st43" d="M289.1,186.9h0.7h0.7v1.6c0.1-0.2,0.3-0.5,0.4-0.7c0.6-0.8,1.3-1.2,2.1-1.2c0.1,0,0.3,0,0.4,0.1v1.6l-0.3,0
			c-0.8,0-1.5,0.2-1.9,0.7c-0.4,0.5-0.7,1.2-0.7,2.1v4.9h-0.8h-0.8V186.9z"/>
		<path class="st43" d="M294.7,183.5h1.6v1.7h-1.6V183.5z M294.7,186.9h0.8h0.8v9.1h-0.8h-0.8V186.9z"/>
		<path class="st43" d="M300.9,196.2c-0.9,0-1.6-0.2-2.1-0.7c-0.5-0.5-0.8-1.1-0.8-1.9c0-0.8,0.2-1.5,0.7-1.9
			c0.5-0.5,1.2-0.8,2.1-0.9l2.1-0.3c0.2,0,0.3,0,0.5-0.1c0.2-0.1,0.3-0.2,0.5-0.3c0.1-0.2,0.2-0.3,0.2-0.6v-0.1
			c0-0.5-0.2-0.9-0.6-1.1s-0.9-0.4-1.5-0.4c-0.6,0-1.1,0.1-1.5,0.4c-0.4,0.3-0.6,0.7-0.6,1.3h-1.4c0.1-1,0.4-1.7,1.1-2.2
			c0.6-0.5,1.5-0.7,2.7-0.7c1.1,0,1.9,0.2,2.5,0.7c0.6,0.5,0.9,1.2,0.9,2.1v5c0,0.2,0,0.3,0.1,0.4c0.1,0.1,0.2,0.1,0.4,0.1
			c0,0,0.1,0,0.2,0c0.1,0,0.2,0,0.3-0.1v1.1c-0.1,0.1-0.3,0.1-0.5,0.1c-0.2,0-0.3,0.1-0.4,0.1c-0.6,0-1-0.2-1.3-0.5
			c-0.2-0.2-0.3-0.5-0.4-0.9c-0.1,0.1-0.2,0.3-0.4,0.4C303,195.8,302,196.2,300.9,196.2z M304.1,192.3v-1c-0.3,0.1-0.6,0.2-0.9,0.3
			l-1.4,0.2c-0.7,0.1-1.3,0.3-1.6,0.5c-0.3,0.2-0.5,0.6-0.5,1c0,0.5,0.1,0.9,0.4,1.2c0.3,0.3,0.7,0.4,1.2,0.4c0.8,0,1.5-0.2,2-0.7
			c0.4-0.3,0.6-0.6,0.8-1c0-0.1,0-0.2,0.1-0.3C304.1,192.7,304.1,192.5,304.1,192.3z"/>
	</g>
</g>
</svg>
