<?xml version="1.0" encoding="utf-8"?>
<!-- Generator: Adobe Illustrator 19.1.0, SVG Export Plug-In . SVG Version: 6.00 Build 0)  -->
<svg version="1.1" id="Layer_1" xmlns="http://www.w3.org/2000/svg" xmlns:xlink="http://www.w3.org/1999/xlink" x="0px" y="0px"
	 viewBox="75 0 450 300" style="enable-background:new 75 0 450 300;" xml:space="preserve">
<style type="text/css">
	.st0{fill:#DE271E;}
	.st1{fill:#E1AA1F;}
	.st2{fill:#C28214;}
	.st3{fill:none;stroke:#12100B;stroke-width:1.5;stroke-miterlimit:10;}
</style>
<g>
	<g>
		<g>
			<path class="st0" d="M256.3,126.7c-0.7-0.8-1.5-1.3-2.2-1.7c-0.8-0.4-1.5-0.6-2.4-0.6c-1.4,0-2.6,0.5-3.5,1.5s-1.4,2.3-1.4,3.8
				c0,1.6,0.5,2.8,1.4,3.8s2.1,1.4,3.5,1.4c0.9,0,1.7-0.2,2.6-0.5c0.9-0.4,1.7-0.9,2.6-1.6l-0.3,4.5c-0.7,0.5-1.5,0.9-2.4,1.1
				c-0.9,0.3-1.8,0.4-2.7,0.4c-1,0-2-0.2-2.9-0.5s-1.8-0.8-2.5-1.4c-1.1-0.9-1.9-1.9-2.5-3.1c-0.6-1.2-0.9-2.6-0.9-4
				c0-1.3,0.2-2.4,0.6-3.5c0.4-1.1,1.1-2.1,1.9-2.9c0.8-0.8,1.8-1.5,2.9-1.9c1.1-0.5,2.2-0.7,3.4-0.7c1,0,1.9,0.1,2.7,0.4
				c0.9,0.3,1.7,0.7,2.5,1.2L256.3,126.7z"/>
			<path class="st0" d="M259.5,138.3v-17h4.1v17H259.5z"/>
			<path class="st0" d="M267.5,138.3v-17h4.4c1.4,0,2.5,0.1,3.2,0.3c0.8,0.2,1.4,0.5,2,0.9c0.6,0.5,1.1,1,1.5,1.7
				c0.3,0.7,0.5,1.4,0.5,2.1c0,1.1-0.3,2-0.8,2.8s-1.3,1.4-2.3,1.9l5.2,7.3h-4.6l-4.5-6.7h-0.6v6.7H267.5z M272.1,124.4h-0.7v4.7
				h0.9c1,0,1.8-0.2,2.3-0.6c0.5-0.4,0.8-1,0.8-1.8s-0.3-1.4-0.8-1.8C274.2,124.6,273.3,124.4,272.1,124.4z"/>
			<path class="st0" d="M295.4,126.7c-0.7-0.8-1.5-1.3-2.2-1.7c-0.8-0.4-1.5-0.6-2.4-0.6c-1.4,0-2.6,0.5-3.5,1.5
				c-0.9,1-1.4,2.3-1.4,3.8c0,1.6,0.5,2.8,1.4,3.8c0.9,1,2.1,1.4,3.5,1.4c0.9,0,1.7-0.2,2.6-0.5c0.9-0.4,1.7-0.9,2.6-1.6l-0.3,4.5
				c-0.7,0.5-1.5,0.9-2.4,1.1c-0.9,0.3-1.8,0.4-2.7,0.4c-1,0-2-0.2-2.9-0.5c-0.9-0.3-1.8-0.8-2.5-1.4c-1.1-0.9-1.9-1.9-2.5-3.1
				c-0.6-1.2-0.9-2.6-0.9-4c0-1.3,0.2-2.4,0.6-3.5c0.4-1.1,1.1-2.1,1.9-2.9s1.8-1.5,2.9-1.9c1.1-0.5,2.2-0.7,3.4-0.7
				c1,0,1.9,0.1,2.7,0.4c0.9,0.3,1.7,0.7,2.5,1.2L295.4,126.7z"/>
			<path class="st0" d="M302.4,121.3v9.3c0,1.5,0.3,2.6,0.8,3.4c0.6,0.7,1.4,1.1,2.5,1.1c1.1,0,1.9-0.3,2.5-1c0.6-0.7,0.8-1.7,0.8-3
				v-9.7h3.6v9.7c0,2.4-0.6,4.4-1.9,5.7c-1.3,1.4-3,2.1-5.2,2.1c-2.3,0-4-0.7-5.3-2c-1.3-1.4-1.9-3.3-1.9-5.7v-9.8h4.1V121.3z"/>
			<path class="st0" d="M316.3,138.3v-17h4.1v13.3h6.6v3.6L316.3,138.3L316.3,138.3z"/>
			<path class="st0" d="M328,129.8c0-1.3,0.2-2.4,0.7-3.5c0.4-1.1,1.1-2.1,1.9-2.9c0.8-0.8,1.7-1.5,2.8-1.9s2.2-0.7,3.3-0.7
				c1.2,0,2.3,0.2,3.3,0.7c1.1,0.4,2,1.1,2.8,1.9s1.5,1.8,1.9,2.9s0.6,2.3,0.6,3.6c0,1.1-0.1,2.1-0.4,3s-0.7,1.8-1.3,2.6
				c-0.8,1.1-1.8,2-3.1,2.6c-1.2,0.6-2.5,0.9-3.8,0.9c-1.1,0-2.2-0.2-3.3-0.7c-1-0.4-2-1.1-2.8-1.9c-0.8-0.9-1.5-1.8-1.9-2.9
				C328.2,132.2,328,131.1,328,129.8z M332.1,129.8c0,1.5,0.4,2.7,1.3,3.7s1.9,1.5,3.2,1.5c1.3,0,2.3-0.5,3.2-1.5
				c0.9-1,1.3-2.2,1.3-3.7s-0.4-2.7-1.3-3.7s-1.9-1.5-3.2-1.5c-1.3,0-2.3,0.5-3.2,1.5C332.6,127.1,332.1,128.3,332.1,129.8z"/>
			<path class="st0" d="M355,138.3v-17h4.5c3.2,0,5.7,0.8,7.4,2.3c1.8,1.5,2.7,3.6,2.7,6.2c0,1.6-0.4,3-1.1,4.2s-1.8,2.2-3.1,3
				c-0.8,0.5-1.6,0.8-2.5,1s-2.1,0.3-3.4,0.3H355z M359,134.6h0.9c1.8,0,3.2-0.4,4.2-1.3c1-0.9,1.5-2,1.5-3.6c0-1.5-0.5-2.7-1.5-3.6
				s-2.4-1.3-4.2-1.3H359V134.6z"/>
			<path class="st0" d="M372.5,138.3v-17H383v3.5h-6.5v3.1h5.6v3.5h-5.6v3.4h6.6v3.6L372.5,138.3L372.5,138.3z"/>
		</g>
		<g>
			<path class="st0" d="M260.8,150.5c-0.8-0.8-1.5-1.4-2.3-1.7c-0.8-0.4-1.6-0.6-2.5-0.6c-1.5,0-2.7,0.5-3.7,1.5
				c-0.9,1-1.4,2.3-1.4,4c0,1.6,0.5,2.9,1.4,3.9s2.2,1.5,3.7,1.5c0.9,0,1.8-0.2,2.7-0.6c0.9-0.4,1.8-0.9,2.7-1.7l-0.3,4.7
				c-0.8,0.5-1.6,0.9-2.5,1.2c-0.9,0.3-1.8,0.4-2.8,0.4s-2-0.2-3-0.5c-0.9-0.3-1.8-0.8-2.6-1.4c-1.1-0.9-2-2-2.6-3.3
				s-0.9-2.7-0.9-4.2c0-1.3,0.2-2.5,0.7-3.7c0.4-1.1,1.1-2.1,1.9-3c0.9-0.9,1.9-1.5,3-2s2.3-0.7,3.6-0.7c1,0,1.9,0.1,2.8,0.4
				c0.9,0.3,1.8,0.7,2.6,1.2L260.8,150.5z"/>
			<path class="st0" d="M268.1,144.9v9.7c0,1.6,0.3,2.7,0.9,3.5c0.6,0.8,1.4,1.2,2.6,1.2c1.1,0,2-0.4,2.6-1.1
				c0.6-0.7,0.9-1.8,0.9-3.1V145h3.8v10c0,2.5-0.7,4.5-2,5.9c-1.3,1.4-3.1,2.1-5.4,2.1s-4.2-0.7-5.5-2.1c-1.3-1.4-1.9-3.4-1.9-5.9
				v-10.1H268.1z"/>
			<path class="st0" d="M282.6,162.5v-17.6h4.2v13.8h6.9v3.8H282.6z"/>
			<path class="st0" d="M299.3,162.5v-13.9h-5.6v-3.7h15.4v3.7h-5.6v13.9H299.3z"/>
			<path class="st0" d="M311.1,162.5v-17.6h4.2v17.6H311.1z"/>
			<path class="st0" d="M325.4,163.2h-0.3l-8.3-18.3h4.4l4.2,9.6l4.2-9.6h4.1L325.4,163.2z"/>
			<path class="st0" d="M332.4,162.5l9-18.2h0.3l8.8,18.2H346l-1.1-2.6h-7.1l-1.1,2.6H332.4z M339,156.9h4.6l-2.3-5.5L339,156.9z"/>
			<path class="st0" d="M351.7,162.5v-17.6h4.7c3.3,0,5.9,0.8,7.7,2.4c1.9,1.6,2.8,3.7,2.8,6.4c0,1.6-0.4,3.1-1.1,4.4
				c-0.7,1.3-1.8,2.3-3.2,3.1c-0.8,0.5-1.7,0.8-2.6,1s-2.1,0.3-3.5,0.3L351.7,162.5L351.7,162.5z M355.9,158.7h0.9
				c1.8,0,3.3-0.4,4.3-1.3c1-0.9,1.5-2.1,1.5-3.7c0-1.6-0.5-2.8-1.5-3.7s-2.5-1.3-4.3-1.3h-0.9V158.7z"/>
			<path class="st0" d="M368.8,153.7c0-1.3,0.2-2.5,0.7-3.7c0.4-1.1,1.1-2.2,2-3.1c0.8-0.9,1.8-1.5,2.9-2s2.2-0.7,3.4-0.7
				c1.2,0,2.3,0.2,3.4,0.7s2.1,1.1,2.9,2c0.9,0.9,1.5,1.9,1.9,3s0.7,2.4,0.7,3.7c0,1.1-0.2,2.1-0.5,3.1s-0.8,1.9-1.4,2.7
				c-0.9,1.1-1.9,2-3.2,2.7c-1.3,0.6-2.6,0.9-4,0.9c-1.2,0-2.3-0.2-3.4-0.7s-2.1-1.1-2.9-2c-0.9-0.9-1.5-1.9-2-3
				C369,156.2,368.8,155,368.8,153.7z M373.1,153.7c0,1.5,0.4,2.8,1.3,3.8s2,1.6,3.3,1.6s2.4-0.5,3.3-1.5s1.3-2.3,1.3-3.8
				s-0.4-2.8-1.3-3.9c-0.9-1-2-1.6-3.3-1.6s-2.4,0.5-3.3,1.6C373.6,150.9,373.1,152.2,373.1,153.7z"/>
			<path class="st0" d="M389.7,162.5v-17.6h4.5c1.4,0,2.6,0.1,3.4,0.3s1.5,0.5,2.1,1c0.7,0.5,1.2,1.1,1.5,1.7
				c0.4,0.7,0.5,1.4,0.5,2.2c0,1.1-0.3,2.1-0.8,2.9c-0.6,0.8-1.4,1.5-2.4,2l5.4,7.6H399l-4.7-6.9h-0.6v6.9L389.7,162.5L389.7,162.5z
				 M394.4,148.1h-0.7v4.9h0.9c1.1,0,1.9-0.2,2.4-0.6c0.6-0.4,0.8-1,0.8-1.8s-0.3-1.5-0.8-1.8C396.5,148.3,395.7,148.1,394.4,148.1z
				"/>
			<path class="st0" d="M405.5,162.5v-17.6h10.8v3.6h-6.8v3.2h5.8v3.6h-5.8v3.5h6.9v3.7H405.5z"/>
			<path class="st0" d="M418.9,157.5c1.1,0.7,2,1.1,2.8,1.4c0.8,0.3,1.5,0.4,2.2,0.4s1.3-0.2,1.8-0.5c0.4-0.3,0.7-0.7,0.7-1.2
				c0-0.7-0.8-1.5-2.4-2.4c-0.3-0.1-0.4-0.3-0.6-0.3l-1.2-0.7c-1.2-0.7-2-1.4-2.6-2.2s-0.8-1.8-0.8-2.8c0-1.4,0.5-2.6,1.6-3.5
				s2.4-1.4,4.1-1.4c0.6,0,1.3,0.1,2,0.2c0.7,0.1,1.5,0.4,2.4,0.7v4.1c-0.9-0.5-1.7-0.9-2.4-1.2c-0.8-0.3-1.4-0.4-1.9-0.4
				c-0.6,0-1.1,0.1-1.4,0.4c-0.3,0.3-0.5,0.6-0.5,1c0,0.3,0.1,0.6,0.3,0.9c0.2,0.3,0.5,0.5,0.9,0.7l2.1,1.1c1.7,1,2.9,1.8,3.5,2.6
				s0.9,1.8,0.9,2.9c0,1.7-0.6,3.1-1.8,4.2c-1.2,1.1-2.7,1.6-4.7,1.6c-0.7,0-1.4-0.1-2.1-0.2c-0.8-0.1-1.6-0.4-2.5-0.6L418.9,157.5z
				"/>
		</g>
		<g>
			<path class="st0" d="M255.1,174.8c-0.8-0.8-1.6-1.4-2.3-1.8s-1.6-0.5-2.5-0.5c-1.6,0-2.8,0.5-3.7,1.6c-0.9,1-1.5,2.4-1.5,4.1
				s0.5,3,1.4,4c0.9,1,2.2,1.6,3.7,1.6c0.9,0,1.8-0.2,2.7-0.5c0.9-0.4,1.8-0.9,2.7-1.7l-0.3,4.8c-0.8,0.5-1.6,0.9-2.5,1.2
				c-0.9,0.2-1.9,0.4-2.9,0.4c-1.1,0-2.1-0.2-3-0.5c-0.9-0.3-1.9-0.8-2.7-1.5c-1.2-0.9-2-2-2.7-3.4c-0.6-1.3-0.9-2.7-0.9-4.3
				c0-1.3,0.2-2.6,0.7-3.7c0.5-1.2,1.1-2.2,1.9-3.1c0.9-0.9,1.9-1.6,3-2s2.3-0.7,3.7-0.7c1,0,1.9,0.2,2.9,0.4
				c0.9,0.3,1.8,0.7,2.7,1.2L255.1,174.8z"/>
			<path class="st0" d="M255.7,187.2l9.2-18.6h0.3l9,18.6h-4.5l-1.2-2.7h-7.3l-1.2,2.7H255.7z M262.4,181.5h4.8l-2.3-5.6
				L262.4,181.5z"/>
			<path class="st0" d="M275.5,187.2v-18.6h0.4l11.2,10.5v-9.9h4v18.7h-0.4l-11.2-10.5v9.8L275.5,187.2L275.5,187.2z"/>
			<path class="st0" d="M295.1,187.2v-18.6h0.4l11.2,10.5v-9.9h4v18.7h-0.4l-11.2-10.5v9.8L295.1,187.2L295.1,187.2z"/>
			<path class="st0" d="M312.1,187.2l9.2-18.6h0.3l9,18.6H326l-1.2-2.7h-7.3l-1.2,2.7H312.1z M318.8,181.5h4.8l-2.3-5.6L318.8,181.5
				z"/>
			<path class="st0" d="M331.9,187.2v-18h5.5c2.1,0,3.7,0.4,4.8,1.2c1.1,0.8,1.6,1.9,1.6,3.4c0,0.9-0.2,1.7-0.7,2.3
				c-0.5,0.6-1.2,1.2-2.2,1.5c1.1,0.2,1.9,0.8,2.6,1.6s0.9,1.7,0.9,2.8c0,1.7-0.6,3-1.9,3.9c-1.2,0.9-3.2,1.3-5.7,1.3L331.9,187.2
				L331.9,187.2z M335.8,176.3h1.4c0.9,0,1.5-0.2,2-0.5c0.5-0.4,0.7-0.9,0.7-1.6s-0.2-1.2-0.7-1.5c-0.5-0.3-1.2-0.5-2.1-0.5h-1.3
				L335.8,176.3L335.8,176.3z M335.8,183.9h1.8c0.9,0,1.6-0.2,2-0.6c0.5-0.4,0.7-1,0.7-1.7s-0.2-1.2-0.7-1.6c-0.5-0.4-1.2-0.6-2-0.6
				h-1.8V183.9z"/>
			<path class="st0" d="M347.5,187.2v-18h4.3v18H347.5z"/>
			<path class="st0" d="M369.2,174.8c-0.8-0.8-1.6-1.4-2.3-1.8s-1.6-0.5-2.5-0.5c-1.6,0-2.8,0.5-3.7,1.6s-1.5,2.4-1.5,4.1
				s0.5,3,1.4,4c0.9,1,2.2,1.6,3.7,1.6c0.9,0,1.8-0.2,2.7-0.5s1.8-0.9,2.7-1.7l-0.2,4.8c-0.8,0.5-1.6,0.9-2.5,1.2
				c-0.9,0.2-1.9,0.4-2.9,0.4c-1.1,0-2.1-0.2-3-0.5c-0.9-0.3-1.9-0.8-2.7-1.5c-1.2-0.9-2-2-2.7-3.4c-0.6-1.3-0.9-2.7-0.9-4.3
				c0-1.3,0.2-2.6,0.7-3.7c0.5-1.2,1.1-2.2,1.9-3.1c0.9-0.9,1.9-1.6,3-2c1.2-0.5,2.3-0.7,3.7-0.7c1,0,2,0.2,2.9,0.4
				c0.9,0.3,1.8,0.7,2.7,1.2L369.2,174.8z"/>
			<path class="st0" d="M371.5,178.2c0-1.3,0.2-2.6,0.7-3.7c0.5-1.2,1.2-2.2,2-3.1c0.9-0.9,1.8-1.6,3-2c1.1-0.5,2.3-0.7,3.5-0.7
				c1.2,0,2.4,0.2,3.5,0.7c1.1,0.5,2.1,1.2,3,2c0.9,0.9,1.6,1.9,2,3c0.5,1.2,0.7,2.4,0.7,3.7c0,1.1-0.2,2.2-0.5,3.2
				c-0.3,1-0.8,1.9-1.4,2.7c-0.9,1.2-2,2.1-3.2,2.7c-1.2,0.6-2.7,0.9-4.1,0.9c-1.2,0-2.4-0.2-3.5-0.7c-1.1-0.5-2.1-1.2-3-2
				c-0.9-0.9-1.6-1.9-2-3.1C371.7,180.8,371.5,179.5,371.5,178.2z M376,178.2c0,1.6,0.5,2.9,1.4,3.9c0.9,1.1,2,1.6,3.4,1.6
				c1.3,0,2.5-0.5,3.4-1.6c0.9-1,1.4-2.3,1.4-3.9s-0.5-2.9-1.4-4c-0.9-1.1-2-1.6-3.4-1.6c-1.3,0-2.5,0.5-3.4,1.6
				C376.4,175.2,376,176.6,376,178.2z"/>
			<path class="st0" d="M392,182.1c1.1,0.7,2,1.2,2.8,1.4c0.8,0.3,1.6,0.4,2.3,0.4c0.8,0,1.3-0.2,1.8-0.5c0.5-0.3,0.7-0.8,0.7-1.2
				c0-0.7-0.8-1.6-2.4-2.5c-0.2-0.2-0.5-0.2-0.6-0.4l-1.2-0.7c-1.2-0.7-2-1.4-2.7-2.3c-0.5-0.9-0.9-1.8-0.9-2.9
				c0-1.5,0.5-2.7,1.6-3.6c1.1-0.9,2.5-1.4,4.2-1.4c0.6,0,1.3,0.1,2.1,0.2c0.8,0.2,1.6,0.4,2.5,0.7v4.2c-0.9-0.5-1.7-0.9-2.5-1.2
				s-1.4-0.5-1.9-0.5c-0.6,0-1.1,0.2-1.4,0.4c-0.3,0.2-0.5,0.6-0.5,1.1c0,0.3,0.1,0.6,0.3,0.9c0.2,0.3,0.5,0.5,0.9,0.8l2.1,1.2
				c1.8,1,3,1.9,3.6,2.7s0.9,1.8,0.9,3c0,1.7-0.6,3.2-1.8,4.3c-1.2,1.1-2.8,1.6-4.8,1.6c-0.7,0-1.4-0.1-2.2-0.2
				c-0.8-0.2-1.6-0.4-2.6-0.6L392,182.1z"/>
		</g>
	</g>
	<g>
		<circle class="st0" cx="188.2" cy="155.4" r="41.8"/>
	</g>
	<g id="XMLID_11_">
		<g>
			<path class="st1" d="M201.4,127.3c4.3,2.3,15.9,16.6,14.3,28.9c0,0,1.6,18.5-19.8,30.5c0,0-3.3,3.1-7.1,2.8
				c-0.3,0-0.6-0.1-0.8-0.1c4-1.5,4.2-3.9,8.8-12.8c3.3-6.4,6.5-12.5,6.5-19.6c0-6.9,0.5-13.8-2.5-20.2c-1.8-3.9-4-12.8-7.6-15.1
				c0.7,0.4,1.5,0.8,2.9,2.4C197.4,125.5,199.6,126.4,201.4,127.3z"/>
			<path class="st2" d="M200.8,136.8c3,6.4,2.5,13.3,2.5,20.2c0,7.1-3.2,13.1-6.5,19.6c-4.6,8.9-4.8,11.3-8.8,12.8
				c-0.4,0-0.7-0.1-1.1-0.2c5.4-1.5,6.7-10,9.3-14.5c3.7-6.3,4.8-10.6,4.8-17.7c0-6.9,0.5-13.8-2.5-20.2c-2-4.4-3.5-12.9-7.8-15.4
				v-0.1c0.8,0,1.3,0,1.3,0c0.1,0,0.1,0,0.2,0h0.1c0.2,0.1,0.5,0.2,0.8,0.4c0,0,0,0,0.1,0C196.7,124,198.9,132.9,200.8,136.8z"/>
			<path class="st2" d="M198.5,136.8c3,6.4,2.5,13.3,2.5,20.2c0,7.1-1.1,11.4-4.8,17.7c-2.7,4.5-3.9,13.1-9.3,14.5
				c-0.2,0-0.4-0.1-0.7-0.1c4.9-2.8,5.2-9.9,7.7-14.2c3.7-6.3,4.2-10.9,4.2-18c0-6.9,0.5-13.8-2.5-20.2c-2-4.2-3-12.5-7-15.3
				c0.7-0.1,1.4-0.2,2-0.2v0.1C195,123.9,196.4,132.5,198.5,136.8z"/>
			<path class="st1" d="M195.7,136.8c3,6.4,2.5,13.3,2.5,20.2c0,7.1-0.6,11.7-4.2,18c-2.5,4.3-2.8,11.3-7.7,14.2
				c-2.4-0.4-4.3-1-6.1-0.7c-2.4,0.5-14.2-10.9-16.6-18.8c-2.4-7.8-8.8-25,12.2-40.7c0,0,7.4-3.9,8.8-5.9c0.7-0.9,2.5-1.4,4.1-1.6
				C192.7,124.4,193.7,132.6,195.7,136.8z"/>
		</g>
		<g>
			<path class="st3" d="M192.3,121.3c0.2,0.1,0.5,0.2,0.8,0.4c0,0,0,0,0.1,0c0.7,0.4,1.5,0.8,2.9,2.4c1.3,1.4,3.5,2.3,5.3,3.2
				c4.3,2.3,15.9,16.6,14.3,28.9c0,0,1.6,18.5-19.8,30.5c0,0-3.3,3.1-7.1,2.8c-0.3,0-0.6-0.1-0.8-0.1c-0.4,0-0.7-0.1-1.1-0.2
				c-0.2,0-0.4-0.1-0.7-0.1c-2.4-0.4-4.3-1-6.1-0.7c-2.4,0.5-14.2-10.9-16.6-18.8c-2.4-7.8-8.8-25,12.2-40.7c0,0,7.4-3.9,8.8-5.9
				c0.7-0.9,2.5-1.4,4.1-1.6c0.7-0.1,1.4-0.2,2-0.2c0.8,0,1.3,0,1.3,0s0.1,0,0.2,0"/>
			<path class="st3" d="M192,121.3c0.1,0,0.1,0,0.2,0h0.1c0.3,0.1,0.6,0.2,0.9,0.4c3.5,2.3,5.7,11.1,7.6,15.1
				c3,6.4,2.5,13.3,2.5,20.2c0,7.1-3.2,13.1-6.5,19.6c-4.6,8.9-4.8,11.3-8.8,12.8c-0.1,0-0.1,0-0.2,0.1"/>
			<path class="st3" d="M188.7,121.5c4,2.9,5,11.1,7,15.3c3,6.4,2.5,13.3,2.5,20.2c0,7.1-0.6,11.7-4.2,18
				c-2.5,4.3-2.8,11.3-7.7,14.2"/>
		</g>
	</g>
</g>
</svg>
