<?xml version="1.0" encoding="utf-8"?>
<!-- Generator: Adobe Illustrator 19.1.0, SVG Export Plug-In . SVG Version: 6.00 Build 0)  -->
<svg version="1.1" id="Layer_1" xmlns="http://www.w3.org/2000/svg" xmlns:xlink="http://www.w3.org/1999/xlink" x="0px" y="0px"
	 viewBox="0 0 100 100" style="enable-background:new 0 0 100 100;" xml:space="preserve">
<style type="text/css">
	.st0{fill:#333333;}
</style>
<g>
	<g>
		<g>
			<path class="st0" d="M23.6,75.3l-2-0.8c0.8-2.1,19.5-51.1,38.7-50.7c7.8,0.2,14.4,8.3,19.6,24.3l-2.1,0.7
				C72.9,33.9,67,26.2,60.2,26C42.7,25.7,23.8,74.8,23.6,75.3z"/>
			<path class="st0" d="M23.9,76l-3-1.1l0.2-0.5c0.8-2.1,19.5-51,38.9-51c0.1,0,0.2,0,0.2,0c8,0.2,14.7,8.5,20,24.6l0.2,0.5l-3,1
				L77.3,49c-4.8-14.8-10.6-22.3-17.1-22.5c-0.1,0-0.1,0-0.2,0c-17.2,0-35.7,48.5-35.9,48.9L23.9,76z M22.3,74.2l1.1,0.4
				c2-5.1,19.7-49.1,36.7-49.1c0.1,0,0.1,0,0.2,0c6.9,0.2,12.9,7.8,17.9,22.7l1.1-0.4c-5.1-15.4-11.5-23.3-19-23.5
				c-0.1,0-0.2,0-0.2,0C42.1,24.4,24.3,68.8,22.3,74.2z"/>
		</g>
	</g>
	<g>
		<g>
			<path class="st0" d="M26.1,74.1c-0.3-2.1-2.2-3.7-4.4-3.4c-2.1,0.3-3.7,2.2-3.4,4.4c0.3,2.2,2.2,3.7,4.4,3.4
				C24.9,78.2,26.4,76.2,26.1,74.1z"/>
			<path class="st0" d="M22.3,79c-2.2,0-4.1-1.7-4.4-3.9c-0.3-2.4,1.4-4.6,3.9-4.9c2.4-0.3,4.6,1.4,4.9,3.9l0,0
				c0.3,2.4-1.4,4.6-3.9,4.9C22.6,78.9,22.4,79,22.3,79z M22.3,71.1c-0.1,0-0.3,0-0.4,0c-1.9,0.2-3.2,1.9-3,3.8
				c0.2,1.9,1.9,3.2,3.8,3c1.9-0.2,3.2-1.9,3-3.8l0,0C25.4,72.4,24,71.1,22.3,71.1z"/>
		</g>
	</g>
	<g>
		<g>
			<circle class="st0" cx="79.3" cy="48.5" r="3.9"/>
			<path class="st0" d="M79.3,52.9c-1,0-1.9-0.3-2.7-0.9c-0.9-0.7-1.5-1.8-1.7-2.9c-0.1-1.2,0.2-2.3,0.9-3.3s1.8-1.5,2.9-1.7
				c1.2-0.1,2.3,0.2,3.3,0.9c0.9,0.7,1.5,1.8,1.7,2.9c0.1,1.2-0.2,2.3-0.9,3.3c-0.7,0.9-1.8,1.5-2.9,1.7
				C79.6,52.9,79.4,52.9,79.3,52.9z M79.3,45.1c-0.1,0-0.3,0-0.4,0c-0.9,0.1-1.7,0.6-2.3,1.3c-0.6,0.7-0.8,1.6-0.7,2.5
				c0.1,0.9,0.6,1.7,1.3,2.3c0.7,0.6,1.6,0.8,2.5,0.7c0.9-0.1,1.7-0.6,2.3-1.3c0.6-0.7,0.8-1.6,0.7-2.5l0,0
				c-0.1-0.9-0.6-1.7-1.3-2.3C80.8,45.3,80,45.1,79.3,45.1z"/>
		</g>
	</g>
	<g>
		<g>
			<g>
				
					<rect x="22.9" y="72.6" transform="matrix(0.416 0.9094 -0.9094 0.416 80.9928 21.8427)" class="st0" width="1.1" height="2.7"/>
				<path class="st0" d="M22.2,75.7l-0.9-1.9l3.4-1.5l0.9,1.9L22.2,75.7z M22.7,74.3L22.7,74.3l1.6-0.6l0-0.1L22.7,74.3z"/>
			</g>
		</g>
		<g>
			<g>
				<path class="st0" d="M29.7,71.7l-0.5-1l4.7-2.2l0.5,1L29.7,71.7z M39.2,67.4l-0.5-1l4.7-2.2l0.5,1L39.2,67.4z M48.6,63.1l-0.5-1
					l4.7-2.2l0.5,1L48.6,63.1z M58.1,58.8l-0.5-1l4.7-2.2l0.5,1L58.1,58.8z M67.6,54.5l-0.5-1l4.7-2.2l0.5,1L67.6,54.5z"/>
				<path class="st0" d="M29.4,72.4l-0.9-1.9l5.6-2.6l0.9,1.9L29.4,72.4z M29.9,71L29.9,71l3.9-1.7l0-0.1L29.9,71z M38.9,68.1
					L38,66.2l5.6-2.6l0.9,1.9L38.9,68.1z M39.4,66.7L39.4,66.7l3.9-1.7l0-0.1L39.4,66.7z M48.4,63.8l-0.9-1.9l5.6-2.6l0.9,1.9
					L48.4,63.8z M48.8,62.4L48.8,62.4l3.9-1.7l0-0.1L48.8,62.4z M57.8,59.4L57,57.5l5.6-2.6l0.9,1.9L57.8,59.4z M58.3,58L58.3,58
					l3.9-1.7l0-0.1L58.3,58z M67.3,55.1l-0.9-1.9l5.6-2.6l0.9,1.9L67.3,55.1z M67.8,53.7L67.8,53.7l3.9-1.7l0-0.1L67.8,53.7z"/>
			</g>
		</g>
		<g>
			<g>
				
					<rect x="77.5" y="47.7" transform="matrix(0.416 0.9094 -0.9094 0.416 90.2081 -42.3032)" class="st0" width="1.1" height="2.7"/>
				<path class="st0" d="M76.8,50.8l-0.9-1.9l3.4-1.5l0.9,1.9L76.8,50.8z M77.2,49.4L77.2,49.4l1.6-0.6l0-0.1L77.2,49.4z"/>
			</g>
		</g>
	</g>
</g>
</svg>
