<?xml version="1.0" encoding="utf-8"?>
<!-- Generator: Adobe Illustrator 19.1.0, SVG Export Plug-In . SVG Version: 6.00 Build 0)  -->
<svg version="1.1" id="Layer_1" xmlns="http://www.w3.org/2000/svg" xmlns:xlink="http://www.w3.org/1999/xlink" x="0px" y="0px"
	 viewBox="0 0 100 100" style="enable-background:new 0 0 100 100;" xml:space="preserve">
<style type="text/css">
	.st0{fill:#333333;}
</style>
<g>
	<g>
		<path class="st0" d="M55.1,35.9c7.5,0.4,15.3,4.6,19.8,13.9c1.6,3.3,2.4,6.9,2,10.6c-0.6,4.5-4.8,7.6-9.9,7.4
			c-4.3-0.2-8-3.9-8.2-8.2c-0.1-4-2.5-5.7-5.7-6.2c-2.9-0.5-6.1,1.8-6.6,4.6c-0.5,2.5,0,5,0.9,7.4c2.2,6.1,6.5,10,12.6,12.2
			c0.5,0.2,1,0.3,1.5,0.5c1,0.3,1.4,1,1.1,1.9c-0.3,0.9-1.1,1.2-1.9,0.8c-2.2-0.9-4.5-1.5-6.5-2.8c-6.7-4.2-10.5-10.3-10.7-18.4
			c-0.1-4.1,2.4-7.4,6.2-8.7c4.3-1.4,8.8,0.5,10.6,3.7c0.8,1.4,1.3,3.1,1.5,4.7c0.4,3.5,3,5.9,6.8,5.6c3.4-0.2,5.8-3,5.7-6.3
			c-0.5-9.9-8.4-18.4-18.3-19.5c-9-1-16.4,1.9-21.6,9.4c-3.6,5.2-3.6,11-2.4,16.9c0.3,1.4,0.8,2.8,1.2,4.2c0.3,0.9,0.2,1.7-0.8,2.1
			c-1,0.4-1.6-0.2-1.9-1.1c-1.5-4.4-2.3-8.8-2-13.5C29.3,43.8,41.6,35.7,55.1,35.9z"/>
		<path class="st0" d="M61.4,81.1c-0.2,0-0.5-0.1-0.8-0.2c-0.6-0.2-1.1-0.4-1.7-0.6c-1.6-0.6-3.3-1.2-4.8-2.1
			c-7-4.4-10.6-10.7-10.8-18.6c-0.1-4.1,2.4-7.6,6.3-8.9c4.1-1.4,8.9,0.3,10.8,3.8c0.8,1.4,1.3,3.1,1.5,4.8c0.4,3.4,3,5.6,6.5,5.4
			c3.2-0.2,5.6-2.8,5.5-6c-0.5-9.9-8.2-18.1-18-19.3c-9.2-1-16.3,2.1-21.4,9.3c-3.1,4.4-3.8,9.7-2.4,16.7c0.2,1,0.5,1.9,0.8,2.8
			c0.1,0.5,0.3,0.9,0.4,1.4c0.3,1.2,0,2-1,2.4c-0.5,0.2-0.9,0.2-1.3,0c-0.4-0.2-0.7-0.6-1-1.3c-1.6-4.7-2.3-9.1-2-13.6
			c1-14.3,14.3-21.6,27-21.4h0c8.6,0.4,15.9,5.6,20.1,14c1.8,3.6,2.4,7.2,2,10.7c-0.6,4.6-4.9,7.8-10.1,7.6c-4.5-0.2-8.3-4-8.4-8.5
			c-0.1-3.4-1.9-5.4-5.5-6c-2.7-0.5-5.8,1.7-6.4,4.4c-0.4,2.2-0.1,4.5,0.9,7.3C49.8,71,54,75,60.1,77.2c0.5,0.2,1,0.3,1.5,0.5
			c0.6,0.2,1,0.4,1.2,0.8c0.2,0.4,0.2,0.9,0.1,1.4c-0.1,0.5-0.4,0.8-0.8,1C61.9,81,61.7,81.1,61.4,81.1z M52.7,50.6
			c-0.9,0-1.9,0.1-2.9,0.5c-3.8,1.3-6.1,4.5-6,8.4c0.2,7.8,3.8,13.9,10.6,18.2c1.4,0.9,3.1,1.5,4.7,2.1c0.6,0.2,1.2,0.4,1.7,0.6
			c0.4,0.2,0.8,0.2,1,0c0.3-0.1,0.4-0.4,0.5-0.7c0.1-0.4,0.1-0.7,0-1c-0.2-0.3-0.4-0.5-0.9-0.6c-0.5-0.1-1-0.3-1.6-0.5
			c-6.3-2.2-10.5-6.4-12.7-12.4c-1-2.8-1.3-5.3-0.9-7.5c0.6-3,3.9-5.3,6.9-4.8c3.8,0.6,5.8,2.8,5.9,6.5c0.1,4.2,3.7,7.8,7.9,8
			c5,0.3,9-2.7,9.6-7.1c0.4-3.4-0.2-6.9-1.9-10.4c-4.1-8.3-11.2-13.3-19.6-13.7c-0.2,0-0.3,0-0.5,0c-12.3,0-25,7.1-26,21
			c-0.3,4.4,0.3,8.8,2,13.4c0.2,0.5,0.4,0.8,0.7,1c0.2,0.1,0.5,0.1,0.9,0c0.7-0.3,0.9-0.8,0.7-1.8c-0.1-0.5-0.3-0.9-0.4-1.4
			c-0.3-0.9-0.6-1.9-0.8-2.9c-1.5-7.1-0.7-12.5,2.5-17c5.2-7.4,12.5-10.6,21.9-9.5c10.1,1.2,18,9.6,18.5,19.7
			c0.2,3.5-2.4,6.4-5.9,6.6c-3.8,0.2-6.6-2.1-7-5.9c-0.2-1.6-0.7-3.3-1.4-4.6C58.8,52.4,55.9,50.6,52.7,50.6z"/>
	</g>
	<g>
		<path class="st0" d="M52.8,43.1c5.4,0.1,9.8,2.2,13.2,6.2c2.2,2.6,3.3,5.9,3.5,9.4c0,1-0.3,1.8-1.4,1.8c-1.1,0-1.5-0.7-1.5-1.8
			C66.5,52.2,61.1,47,55,46.2c-6.1-0.8-11.1,1.4-14.4,6.7c-2,3.3-1.9,6.9-1.3,10.6c0.8,4.9,3.1,9,6.4,12.6c0.5,0.5,1,1,1.4,1.5
			c0.7,0.7,0.9,1.6,0,2.2c-0.5,0.3-1.6,0.3-2-0.1c-4.8-4.5-7.9-10-8.8-16.6c-0.5-3.9-0.3-7.7,1.7-11.3c2.5-4.4,6.3-7,11.1-8.2
			C50.3,43.3,51.6,43.2,52.8,43.1z"/>
		<path class="st0" d="M46.1,80.2c-0.5,0-1-0.1-1.3-0.4c-5-4.7-8-10.4-8.9-16.7c-0.6-4.6-0.1-8.2,1.7-11.5c2.4-4.3,6.2-7.1,11.3-8.3
			c0.9-0.2,1.8-0.3,2.6-0.4c0.4,0,0.8-0.1,1.2-0.1l0,0c5.4,0.1,9.9,2.2,13.4,6.3c2.2,2.6,3.4,5.8,3.6,9.5c0,0.7-0.1,1.3-0.5,1.6
			c-0.3,0.3-0.7,0.5-1.2,0.5c-0.8,0-1.7-0.3-1.7-2c-0.1-6.1-5.1-11.4-11.4-12.3c-6.2-0.8-11,1.4-14.2,6.6c-2.1,3.4-1.8,7.2-1.3,10.4
			c0.7,4.5,2.8,8.5,6.3,12.5c0.2,0.3,0.5,0.5,0.8,0.8c0.2,0.2,0.5,0.5,0.7,0.7c0.5,0.5,0.7,1.1,0.6,1.6c-0.1,0.4-0.3,0.7-0.7,1
			C46.9,80.1,46.5,80.2,46.1,80.2z M52.8,43.3c-0.4,0-0.8,0.1-1.2,0.1c-0.8,0.1-1.7,0.2-2.6,0.4c-5,1.2-8.6,3.8-11,8.1
			c-1.7,3.1-2.3,6.7-1.7,11.1c0.9,6.3,3.8,11.8,8.7,16.4c0.3,0.3,1.3,0.3,1.7,0.1c0.3-0.2,0.4-0.4,0.4-0.6c0-0.3-0.1-0.8-0.5-1.2
			c-0.2-0.2-0.4-0.5-0.7-0.7c-0.3-0.3-0.5-0.5-0.8-0.8c-3.6-4-5.7-8.1-6.4-12.7c-0.6-3.3-0.8-7.2,1.4-10.7c3.3-5.3,8.3-7.7,14.7-6.9
			c6.6,0.9,11.7,6.4,11.8,12.8c0,1.4,0.7,1.6,1.2,1.5c0.4,0,0.6-0.1,0.8-0.3c0.2-0.3,0.4-0.7,0.3-1.3c-0.2-3.6-1.3-6.7-3.4-9.2
			C62.4,45.5,58.1,43.4,52.8,43.3z"/>
	</g>
	<g>
		<path class="st0" d="M52,28.7c11.2,0.3,20,4.1,26.5,12.4c0.3,0.4,0.7,0.8,0.7,1.2c0,0.6-0.2,1.4-0.6,1.6c-0.4,0.3-1.2,0.1-1.7-0.1
			c-0.4-0.1-0.6-0.6-0.8-1c-6.8-8.6-15.8-11.9-26.5-11c-8.6,0.8-15.5,4.6-20.7,11.6c-0.6,0.8-1.3,1.3-2.2,0.7c-1-0.7-0.7-1.6,0-2.4
			c5-6.7,11.6-10.7,19.8-12.3C48.5,29,50.6,28.9,52,28.7z"/>
		<path class="st0" d="M27.5,44.7c-0.3,0-0.6-0.1-1-0.4c-0.9-0.7-1-1.6-0.1-2.8c4.9-6.7,11.6-10.8,19.9-12.4c1.5-0.3,3-0.4,4.2-0.5
			c0.5,0,0.9-0.1,1.3-0.1l0,0c11.6,0.3,20.4,4.4,26.7,12.5c0.1,0.1,0.1,0.1,0.2,0.2c0.3,0.3,0.6,0.7,0.6,1.2c0,0.5-0.1,1.5-0.7,1.8
			c-0.6,0.4-1.6,0-1.9-0.1c-0.3-0.1-0.5-0.4-0.7-0.7c-0.1-0.1-0.1-0.2-0.2-0.3c-6.5-8.2-15.4-11.9-26.3-10.9
			c-8.5,0.7-15.4,4.6-20.5,11.5C28.9,43.9,28.3,44.7,27.5,44.7z M52,29c-0.4,0-0.8,0.1-1.3,0.1c-1.2,0.1-2.7,0.3-4.2,0.5
			c-8.2,1.5-14.8,5.6-19.6,12.2c-0.7,1-0.7,1.6,0,2.1c0.6,0.5,1.2,0.3,1.9-0.6c5.2-7,12.2-10.9,20.9-11.7c11.1-1,20.1,2.8,26.8,11.1
			c0.1,0.1,0.2,0.2,0.3,0.4c0.2,0.2,0.3,0.5,0.5,0.6c0.6,0.2,1.2,0.3,1.5,0.1c0.3-0.2,0.5-0.9,0.4-1.4c0-0.3-0.3-0.6-0.5-0.9
			c-0.1-0.1-0.1-0.1-0.2-0.2C72,33.3,63.4,29.3,52,29z"/>
	</g>
	<g>
		<path class="st0" d="M53.4,21.6c5.5-0.1,11.2,1.5,16.7,4.2c0.8,0.4,1.4,0.9,1.2,1.9c-0.2,1.1-1.1,1.3-2.5,0.7
			c-3-1.1-6-2.5-9.1-3.2c-7.7-1.7-15.2-0.7-22.4,2.9c-1,0.5-2.3,1.4-3-0.1c-0.7-1.5,0.7-2,1.8-2.5C41.6,22.7,46.9,21.5,53.4,21.6z"
			/>
		<path class="st0" d="M35.4,29.1c-0.1,0-0.3,0-0.4-0.1c-0.4-0.1-0.7-0.4-0.9-0.9c-0.2-0.5-0.3-0.9-0.2-1.3c0.2-0.7,1-1.1,1.7-1.4
			l0.3-0.1c5.6-2.7,10.8-3.9,17.2-3.9c0.1,0,0.2,0,0.3,0c5.3-0.1,11,1.3,16.8,4.2c0.8,0.4,1.6,0.9,1.3,2.2c-0.1,0.5-0.3,0.8-0.7,1
			c-0.5,0.3-1.2,0.2-2.1-0.1c-0.8-0.3-1.5-0.6-2.3-0.9c-2.2-0.9-4.5-1.8-6.8-2.3c-7.7-1.6-15.1-0.7-22.2,2.8
			c-0.1,0.1-0.2,0.1-0.4,0.2C36.5,28.8,36,29.1,35.4,29.1z M53.1,21.8c-6.3,0-11.4,1.2-17,3.9l-0.3,0.1c-0.6,0.3-1.3,0.6-1.5,1.1
			c-0.1,0.3,0,0.6,0.1,0.9c0.2,0.4,0.4,0.6,0.6,0.7c0.5,0.1,1.1-0.2,1.7-0.5c0.1-0.1,0.3-0.1,0.4-0.2c7.2-3.6,14.8-4.6,22.5-2.9
			c2.3,0.5,4.6,1.4,6.9,2.3c0.8,0.3,1.5,0.6,2.3,0.9c0.8,0.3,1.4,0.3,1.7,0.2c0.2-0.1,0.4-0.4,0.5-0.7c0.2-0.8-0.2-1.2-1.1-1.6
			c-5.7-2.8-11.4-4.3-16.6-4.2h0C53.3,21.8,53.2,21.8,53.1,21.8z"/>
	</g>
	<g>
		<path class="st0" d="M67.7,74.7c-9.3,0-16.2-6.5-16.6-15c0-0.9,0-1.9,1.2-2c1.4-0.2,1.7,0.8,1.7,1.8c0.2,3.6,1.7,6.6,4.3,9
			c2.9,2.6,6.3,3.4,10.1,3.2c0.7,0,1.4-0.3,2-0.2c0.6,0.1,1.1,0.7,1.6,1.1c-0.4,0.6-0.8,1.5-1.3,1.6C69.7,74.7,68.4,74.7,67.7,74.7z
			"/>
		<path class="st0" d="M67.8,75L67.8,75c-9.4,0-16.4-6.4-16.9-15.2c0-0.8-0.1-2.1,1.4-2.3c0.6-0.1,1,0,1.4,0.3
			c0.5,0.4,0.6,1.2,0.6,1.8c0.2,3.5,1.6,6.5,4.3,8.9c2.6,2.4,5.9,3.4,9.9,3.1c0.2,0,0.5-0.1,0.7-0.1c0.5-0.1,1-0.2,1.4-0.1
			c0.5,0.1,0.9,0.5,1.2,0.8c0.2,0.1,0.3,0.3,0.5,0.4l0.2,0.1l-0.2,0.2c-0.1,0.2-0.2,0.4-0.4,0.6c-0.3,0.5-0.6,1-1.1,1.2
			c-0.9,0.3-1.8,0.3-2.5,0.4C68.1,75,67.9,75,67.8,75L67.8,75z M52.7,57.9c-0.1,0-0.2,0-0.3,0c-0.9,0.1-1,0.7-0.9,1.8
			c0.4,8.5,7.3,14.7,16.3,14.8c0.2,0,0.4,0,0.6,0c0.7,0,1.6-0.1,2.4-0.4c0.3-0.1,0.5-0.5,0.8-0.9c0.1-0.1,0.2-0.3,0.3-0.4
			c-0.1-0.1-0.2-0.2-0.3-0.3c-0.4-0.3-0.7-0.6-1-0.7c-0.4-0.1-0.8,0-1.2,0.1c-0.2,0-0.5,0.1-0.8,0.1c-4.2,0.3-7.5-0.8-10.3-3.2
			c-2.7-2.5-4.2-5.6-4.4-9.2c0-0.7-0.2-1.2-0.5-1.4C53.1,58,52.9,57.9,52.7,57.9z"/>
	</g>
</g>
</svg>
