<?xml version="1.0" encoding="utf-8"?>
<!-- Generator: Adobe Illustrator 19.1.0, SVG Export Plug-In . SVG Version: 6.00 Build 0)  -->
<svg version="1.1" id="Layer_1" xmlns="http://www.w3.org/2000/svg" xmlns:xlink="http://www.w3.org/1999/xlink" x="0px" y="0px"
	 viewBox="-60 147.7 179 106.3" style="enable-background:new -60 147.7 179 106.3;" xml:space="preserve">
<style type="text/css">
	.st0{fill:#FFFFFF;}
</style>
<path class="st0" d="M-57,150.5v84h173v-84H-57L-57,150.5z M112.9,153.5v8.1h-167v-8.1H112.9z M112.9,164.6v59.2h-167v-59.2H112.9z
	 M-54,231.6v-4.8h167v4.8H-54z"/>
<circle class="st0" cx="29.4" cy="157.3" r="2.5"/>
<g>
	
		<rect x="11.6" y="193.8" transform="matrix(0.7374 -0.6755 0.6755 0.7374 -124.2208 71.1594)" class="st0" width="35.7" height="3"/>
	
		<rect x="22.8" y="180.7" transform="matrix(-0.6755 -0.7374 0.7374 -0.6755 -99.0507 335.4884)" class="st0" width="3" height="17.7"/>
	
		<rect x="34.4" y="192.6" transform="matrix(0.6753 0.7375 -0.7375 0.6753 160.2489 38.9493)" class="st0" width="3" height="17.7"/>
</g>
<g>
	<path class="st0" d="M53.1,251H5.8l5.2-19.4h37L53.1,251z M9.9,247.9H49l-3.5-13.1H13.4L9.9,247.9z"/>
</g>
</svg>
