<?xml version="1.0" encoding="utf-8"?>
<!-- Generator: Adobe Illustrator 19.1.0, SVG Export Plug-In . SVG Version: 6.00 Build 0)  -->
<svg version="1.1" id="Layer_1" xmlns="http://www.w3.org/2000/svg" xmlns:xlink="http://www.w3.org/1999/xlink" x="0px" y="0px"
	 viewBox="0 0 528 114.7" style="enable-background:new 0 0 528 114.7;" xml:space="preserve">
<style type="text/css">
	.st0{fill:#3DAEF4;}
	.st1{fill:#FFFFFF;}
</style>
<g>
	<path class="st0" d="M528,10c0-5.5-4.5-10-10-10H10C4.5,0,0,4.5,0,10v94.7c0,5.5,4.5,10,10,10h508c5.5,0,10-4.5,10-10V10z"/>
	<g>
		<path class="st1" d="M113.7,43.2h10.5c6.3,0,11.1,4,11.1,12.1c0,7.1-3.6,12.3-11.1,12.3h-10.5V43.2z M119,63h4.8
			c3.1,0,6.1-1.9,6.1-7.3c0-4.9-1.7-8.1-7-8.1H119V63z"/>
		<path class="st1" d="M143.5,47.2h-4.8v-4h4.8V47.2z M138.6,49.9h4.8v17.7h-4.8V49.9z"/>
		<path class="st1" d="M147.3,49.9h4.6v2.3h0.1c1.2-1.9,3.1-2.7,5.3-2.7c5.5,0,8,4.5,8,9.5c0,4.7-2.6,9.1-7.8,9.1
			c-2.1,0-4.1-0.9-5.3-2.7h-0.1v8.4h-4.8V49.9z M160.4,58.8c0-2.8-1.1-5.7-4.2-5.7c-3.2,0-4.2,2.8-4.2,5.7s1.1,5.6,4.2,5.6
			C159.4,64.4,160.4,61.6,160.4,58.8z"/>
		<path class="st1" d="M184.7,67.6h-4.6v-2.5H180c-1.2,2-3.3,2.9-5.4,2.9c-5.2,0-6.5-2.9-6.5-7.3V49.9h4.8v10c0,2.9,0.9,4.3,3.1,4.3
			c2.6,0,3.8-1.5,3.8-5.1v-9.3h4.8V67.6z"/>
		<path class="st1" d="M194.6,49.9h3.6v3.2h-3.6v8.7c0,1.6,0.4,2,2,2c0.5,0,1,0,1.5-0.1v3.8c-0.8,0.1-1.9,0.2-2.8,0.2
			c-3,0-5.6-0.7-5.6-4.2V53.1h-2.9v-3.2h2.9v-5.3h4.8V49.9z"/>
		<path class="st1" d="M200.2,55.3c0.3-4.5,4.3-5.9,8.3-5.9c3.5,0,7.8,0.8,7.8,5v9.2c0,1.6,0.2,3.2,0.6,3.9H212
			c-0.2-0.5-0.3-1.1-0.3-1.7c-1.5,1.6-3.8,2.2-5.9,2.2c-3.3,0-6-1.7-6-5.3c0-4,3-5,6-5.4c3-0.4,5.7-0.3,5.7-2.3
			c0-2.1-1.4-2.4-3.1-2.4c-1.8,0-3,0.8-3.2,2.7H200.2z M211.4,58.9c-0.8,0.7-2.5,0.8-4,1c-1.5,0.3-2.9,0.8-2.9,2.6
			c0,1.8,1.4,2.3,3,2.3c3.8,0,3.9-3,3.9-4.1V58.9z"/>
		<path class="st1" d="M232.6,65.3L232.6,65.3c-1.2,1.9-3.2,2.7-5.4,2.7c-5.3,0-7.9-4.6-7.9-9.5c0-4.7,2.6-9.2,7.8-9.2
			c2.1,0,4.1,0.9,5.2,2.6h0.1v-8.9h4.8v24.4h-4.6V65.3z M228.4,53.1c-3.2,0-4.3,2.7-4.3,5.6c0,2.8,1.3,5.7,4.3,5.7
			c3.2,0,4.2-2.8,4.2-5.7C232.6,55.8,231.5,53.1,228.4,53.1z"/>
		<path class="st1" d="M249.5,49.4c5.6,0,9.2,3.7,9.2,9.3c0,5.6-3.6,9.3-9.2,9.3c-5.5,0-9.1-3.7-9.1-9.3
			C240.3,53.1,243.9,49.4,249.5,49.4z M249.5,64.4c3.3,0,4.3-2.8,4.3-5.6c0-2.8-1-5.7-4.3-5.7c-3.3,0-4.3,2.8-4.3,5.7
			C245.2,61.5,246.2,64.4,249.5,64.4z"/>
		<path class="st1" d="M265.5,61.8c0,2.1,1.8,3,3.7,3c1.4,0,3.2-0.5,3.2-2.3c0-1.5-2-2-5.5-2.7c-2.8-0.6-5.6-1.6-5.6-4.7
			c0-4.5,3.9-5.7,7.7-5.7c3.9,0,7.4,1.3,7.8,5.6h-4.6c-0.1-1.9-1.6-2.4-3.3-2.4c-1.1,0-2.7,0.2-2.7,1.6c0,1.7,2.7,2,5.5,2.6
			c2.8,0.6,5.6,1.7,5.6,5c0,4.6-4,6.1-8.1,6.1c-4.1,0-8.1-1.5-8.3-6.2H265.5z"/>
		<path class="st1" d="M290.2,43.2h10.3c4.1,0,7.8,1.4,7.8,6c0,2.6-1.7,4.9-4.2,5.5v0.1c3.1,0.4,5.2,2.8,5.2,5.9
			c0,2.3-0.8,6.9-8.7,6.9h-10.3V43.2z M292.5,53.9h8c3.7,0,5.5-1.8,5.5-4.1c0-3-1.9-4.6-5.5-4.6h-8V53.9z M292.5,65.6h8
			c3.4,0,6.4-1.1,6.4-5c0-3.1-2.4-4.7-6.4-4.7h-8V65.6z"/>
		<path class="st1" d="M328.4,58.7c0,5.1-2.9,9.3-8.3,9.3s-8.3-4.3-8.3-9.3s2.9-9.3,8.3-9.3S328.4,53.7,328.4,58.7z M313.8,58.7
			c0,3.8,2,7.5,6.2,7.5c4.1,0,6.2-3.8,6.2-7.5c0-3.8-2-7.5-6.2-7.5C315.9,51.2,313.8,55,313.8,58.7z"/>
		<path class="st1" d="M331.5,49.9h2.2v3h0.1c0.8-2.1,3.1-3.6,5.6-3.6c5,0,6.5,2.6,6.5,6.8v11.3h-2.2v-11c0-3-1-5.3-4.5-5.3
			c-3.4,0-5.5,2.6-5.5,6v10.3h-2.2V49.9z"/>
		<path class="st1" d="M349.7,55.3c0.2-4.1,3.1-5.9,7.1-5.9c3.1,0,6.5,1,6.5,5.7v9.4c0,0.8,0.4,1.3,1.3,1.3c0.2,0,0.5-0.1,0.7-0.1
			v1.8c-0.5,0.1-0.8,0.1-1.4,0.1c-2.2,0-2.5-1.2-2.5-3.1h-0.1c-1.5,2.3-3,3.6-6.4,3.6c-3.2,0-5.9-1.6-5.9-5.2c0-5,4.8-5.1,9.5-5.7
			c1.8-0.2,2.8-0.4,2.8-2.4c0-2.9-2.1-3.6-4.6-3.6c-2.7,0-4.6,1.2-4.7,4.1H349.7z M361.2,57.9L361.2,57.9c-0.3,0.5-1.3,0.7-1.9,0.8
			c-3.7,0.6-8.2,0.6-8.2,4.1c0,2.2,1.9,3.5,3.9,3.5c3.3,0,6.2-2.1,6.1-5.5V57.9z"/>
		<path class="st1" d="M368.9,59.3c0,3.1,1.7,6.9,5.8,6.9c3.1,0,4.8-1.8,5.5-4.5h2.2c-0.9,4-3.2,6.3-7.7,6.3c-5.6,0-8-4.3-8-9.3
			c0-4.6,2.4-9.3,8-9.3c5.7,0,7.9,5,7.8,9.9H368.9z M380.3,57.5c-0.1-3.2-2.1-6.3-5.6-6.3c-3.5,0-5.5,3.1-5.8,6.3H380.3z"/>
		<path class="st1" d="M385.4,49.9h2v4.1h0.1c1.1-2.8,3.5-4.5,6.7-4.4v2.2c-3.9-0.2-6.6,2.7-6.6,6.3v9.4h-2.2V49.9z"/>
		<path class="st1" d="M396.8,59.3c0,3.1,1.7,6.9,5.8,6.9c3.1,0,4.8-1.8,5.5-4.5h2.2c-0.9,4-3.2,6.3-7.7,6.3c-5.6,0-8-4.3-8-9.3
			c0-4.6,2.4-9.3,8-9.3c5.7,0,7.9,5,7.8,9.9H396.8z M408.2,57.5c-0.1-3.2-2.1-6.3-5.6-6.3c-3.5,0-5.5,3.1-5.8,6.3H408.2z"/>
		<path class="st1" d="M413.2,49.9h2.2v3h0.1c0.8-2.1,3.1-3.6,5.6-3.6c5,0,6.5,2.6,6.5,6.8v11.3h-2.2v-11c0-3-1-5.3-4.5-5.3
			c-3.4,0-5.5,2.6-5.5,6v10.3h-2.2V49.9z"/>
		<path class="st1" d="M442.1,55.1c-0.1-2.7-2.2-3.9-4.6-3.9c-1.9,0-4.2,0.8-4.2,3c0,1.9,2.2,2.6,3.7,3l2.9,0.6c2.5,0.4,5,1.8,5,4.9
			c0,3.8-3.8,5.3-7.1,5.3c-4.1,0-6.9-1.9-7.2-6.2h2.2c0.2,2.9,2.3,4.4,5.2,4.4c2,0,4.8-0.9,4.8-3.3c0-2-1.9-2.7-3.9-3.2l-2.8-0.6
			c-2.8-0.8-4.9-1.7-4.9-4.7c0-3.6,3.5-5,6.6-5c3.5,0,6.3,1.8,6.5,5.7H442.1z"/>
		<path class="st1" d="M449.3,59.3c0,3.1,1.7,6.9,5.8,6.9c3.1,0,4.8-1.8,5.5-4.5h2.2c-0.9,4-3.2,6.3-7.7,6.3c-5.6,0-8-4.3-8-9.3
			c0-4.6,2.4-9.3,8-9.3c5.7,0,7.9,5,7.8,9.9H449.3z M460.7,57.5c-0.1-3.2-2.1-6.3-5.6-6.3c-3.5,0-5.5,3.1-5.8,6.3H460.7z"/>
		<path class="st1" d="M476.3,55.1c-0.1-2.7-2.2-3.9-4.6-3.9c-1.9,0-4.2,0.8-4.2,3c0,1.9,2.2,2.6,3.7,3l2.9,0.6c2.5,0.4,5,1.8,5,4.9
			c0,3.8-3.8,5.3-7.1,5.3c-4.1,0-6.9-1.9-7.2-6.2h2.2c0.2,2.9,2.3,4.4,5.2,4.4c2,0,4.8-0.9,4.8-3.3c0-2-1.9-2.7-3.9-3.2l-2.8-0.6
			c-2.8-0.8-4.9-1.7-4.9-4.7c0-3.6,3.5-5,6.6-5c3.5,0,6.3,1.8,6.5,5.7H476.3z"/>
	</g>
	<path class="st1" d="M44.3,29.1h22.8c16.9,0,24.3,12.3,24.3,27.5c0,15.2-7.3,27.5-24.3,27.5H44.3V29.1z"/>
	<path class="st0" d="M54.4,44.1c2.3,0,4.5-0.1,6.8-0.1c0.4,0,0.7-0.1,1-0.5c0.8-1,1.7-2,2.5-3.1c0.3-0.4,0.6-0.6,1.1-0.5
		c0.8,0.1,1.5-0.1,1.9-0.8c0.3-0.6,0.7,0,1,0c1.4,0.4,2.6,1.1,3.7,2c0.8,0.6,1.5,1.1,2.5,1.3c0.9,0.2,1,0.4,1,1.3
		c0,0.7,0.2,1.2,0.7,1.6c0.9,0.8,1.7,1.8,2.7,2.6c0.7,0.6,0.8,1.5,0.7,2.3c-0.2,1.2-0.1,2.3,0.2,3.4c0.1,0.5,0.3,0.7,0.8,0.7
		c1.1,0,1.2,0.2,1.1,1.3c-0.1,1.3-0.5,2.5-1.3,3.6c-0.8,0.9-1.4,2-2.1,3c-0.1,0.1-0.1,0.3-0.2,0.3c-1.4,0.8-2.4,2.1-3.9,2.7
		c-2.1,0.8-4.3,1.4-6.4,2c-1,0.3-2,0.3-3,0.2c-1.3-0.1-2.6,0-3.9-0.2c-0.6-0.1-1.1-0.3-1.6-0.5c-0.3-0.1-0.5-0.4-0.9-0.1
		c-0.3,0.3-0.2,0.6-0.2,0.9c0,1.1,0.5,2.1,0.9,3.1c0.2,0.5,0.2,0.8-0.2,1.2c-0.3,0.2-0.4,0.5-0.4,0.8c-0.1,0.5-0.3,0.9-0.4,1.4
		c-0.3,0.7-0.3,1.4,0.2,2c0.3,0.4,0.3,0.8,0,1.1c-0.3,0.5-0.6,0.9-1,1.4c-0.4,0.5-0.7,0.5-1.1,0.1c-0.5-0.5-1-1-1.6-1.5
		c-0.5-0.4-0.7-0.9-0.7-1.6c0-5.1,0-10.1,0-15.2c0-2.5,0.1-5,0.2-7.5c0.1-2.8,0-5.5,0.1-8.3C54.3,44.4,54.3,44.2,54.4,44.1z"/>
</g>
</svg>
