<?xml version="1.0" encoding="utf-8"?>
<!-- Generator: Adobe Illustrator 19.1.0, SVG Export Plug-In . SVG Version: 6.00 Build 0)  -->
<svg version="1.1" id="Layer_1" xmlns="http://www.w3.org/2000/svg" xmlns:xlink="http://www.w3.org/1999/xlink" x="0px" y="0px"
	 viewBox="114 143.3 528 114.7" style="enable-background:new 114 143.3 528 114.7;" xml:space="preserve">
<style type="text/css">
	.st0{fill:#FFFFFF;}
	.st1{fill:#3DAEF4;}
</style>
<g>
	<path class="st0" d="M227.7,186.5h10.5c6.3,0,11.1,4,11.1,12.1c0,7.1-3.6,12.3-11.1,12.3h-10.5
		C227.7,210.9,227.7,186.5,227.7,186.5z M233,206.3h4.8c3.1,0,6.1-1.9,6.1-7.3c0-4.9-1.7-8.1-7-8.1H233V206.3z"/>
	<path class="st0" d="M257.5,190.5h-4.8v-4h4.8V190.5z M252.6,193.2h4.8v17.7h-4.8V193.2z"/>
	<path class="st0" d="M261.3,193.2h4.6v2.3h0.1c1.2-1.9,3.1-2.7,5.3-2.7c5.5,0,8,4.5,8,9.5c0,4.7-2.6,9.1-7.8,9.1
		c-2.1,0-4.1-0.9-5.3-2.7h-0.1v8.4h-4.8V193.2z M274.4,202.1c0-2.8-1.1-5.7-4.2-5.7c-3.2,0-4.2,2.8-4.2,5.7c0,2.9,1.1,5.6,4.2,5.6
		C273.4,207.7,274.4,204.9,274.4,202.1z"/>
	<path class="st0" d="M298.7,210.9h-4.6v-2.5H294c-1.2,2-3.3,2.9-5.4,2.9c-5.2,0-6.5-2.9-6.5-7.3v-10.8h4.8v10
		c0,2.9,0.9,4.3,3.1,4.3c2.6,0,3.8-1.5,3.8-5.1v-9.3h4.8L298.7,210.9L298.7,210.9z"/>
	<path class="st0" d="M308.6,193.2h3.6v3.2h-3.6v8.7c0,1.6,0.4,2,2,2c0.5,0,1,0,1.5-0.1v3.8c-0.8,0.1-1.9,0.2-2.8,0.2
		c-3,0-5.6-0.7-5.6-4.2v-10.4h-2.9v-3.2h2.9v-5.3h4.8v5.3H308.6z"/>
	<path class="st0" d="M314.2,198.6c0.3-4.5,4.3-5.9,8.3-5.9c3.5,0,7.8,0.8,7.8,5v9.2c0,1.6,0.2,3.2,0.6,3.9H326
		c-0.2-0.5-0.3-1.1-0.3-1.7c-1.5,1.6-3.8,2.2-5.9,2.2c-3.3,0-6-1.7-6-5.3c0-4,3-5,6-5.4c3-0.4,5.7-0.3,5.7-2.3
		c0-2.1-1.4-2.4-3.1-2.4c-1.8,0-3,0.8-3.2,2.7H314.2z M325.4,202.2c-0.8,0.7-2.5,0.8-4,1c-1.5,0.3-2.9,0.8-2.9,2.6s1.4,2.3,3,2.3
		c3.8,0,3.9-3,3.9-4.1V202.2z"/>
	<path class="st0" d="M346.6,208.6L346.6,208.6c-1.2,1.9-3.2,2.7-5.4,2.7c-5.3,0-7.9-4.6-7.9-9.5c0-4.7,2.6-9.2,7.8-9.2
		c2.1,0,4.1,0.9,5.2,2.6h0.1v-8.9h4.8v24.4h-4.6L346.6,208.6L346.6,208.6z M342.4,196.4c-3.2,0-4.3,2.7-4.3,5.6
		c0,2.8,1.3,5.7,4.3,5.7c3.2,0,4.2-2.8,4.2-5.7C346.6,199.1,345.5,196.4,342.4,196.4z"/>
	<path class="st0" d="M363.5,192.7c5.6,0,9.2,3.7,9.2,9.3c0,5.6-3.6,9.3-9.2,9.3c-5.5,0-9.1-3.7-9.1-9.3
		C354.3,196.4,357.9,192.7,363.5,192.7z M363.5,207.7c3.3,0,4.3-2.8,4.3-5.6s-1-5.7-4.3-5.7s-4.3,2.8-4.3,5.7
		C359.2,204.8,360.2,207.7,363.5,207.7z"/>
	<path class="st0" d="M379.5,205.1c0,2.1,1.8,3,3.7,3c1.4,0,3.2-0.5,3.2-2.3c0-1.5-2-2-5.5-2.7c-2.8-0.6-5.6-1.6-5.6-4.7
		c0-4.5,3.9-5.7,7.7-5.7c3.9,0,7.4,1.3,7.8,5.6h-4.6c-0.1-1.9-1.6-2.4-3.3-2.4c-1.1,0-2.7,0.2-2.7,1.6c0,1.7,2.7,2,5.5,2.6
		c2.8,0.6,5.6,1.7,5.6,5c0,4.6-4,6.1-8.1,6.1s-8.1-1.5-8.3-6.2h4.6V205.1z"/>
	<path class="st0" d="M404.2,186.5h10.3c4.1,0,7.8,1.4,7.8,6c0,2.6-1.7,4.9-4.2,5.5v0.1c3.1,0.4,5.2,2.8,5.2,5.9
		c0,2.3-0.8,6.9-8.7,6.9h-10.3L404.2,186.5L404.2,186.5z M406.5,197.2h8c3.7,0,5.5-1.8,5.5-4.1c0-3-1.9-4.6-5.5-4.6h-8V197.2z
		 M406.5,208.9h8c3.4,0,6.4-1.1,6.4-5c0-3.1-2.4-4.7-6.4-4.7h-8V208.9z"/>
	<path class="st0" d="M442.4,202c0,5.1-2.9,9.3-8.3,9.3s-8.3-4.3-8.3-9.3s2.9-9.3,8.3-9.3S442.4,197,442.4,202z M427.8,202
		c0,3.8,2,7.5,6.2,7.5c4.1,0,6.2-3.8,6.2-7.5c0-3.8-2-7.5-6.2-7.5C429.9,194.5,427.8,198.3,427.8,202z"/>
	<path class="st0" d="M445.5,193.2h2.2v3h0.1c0.8-2.1,3.1-3.6,5.6-3.6c5,0,6.5,2.6,6.5,6.8v11.3h-2.2v-11c0-3-1-5.3-4.5-5.3
		c-3.4,0-5.5,2.6-5.5,6v10.3h-2.2V193.2z"/>
	<path class="st0" d="M463.7,198.6c0.2-4.1,3.1-5.9,7.1-5.9c3.1,0,6.5,1,6.5,5.7v9.4c0,0.8,0.4,1.3,1.3,1.3c0.2,0,0.5-0.1,0.7-0.1
		v1.8c-0.5,0.1-0.8,0.1-1.4,0.1c-2.2,0-2.5-1.2-2.5-3.1h-0.1c-1.5,2.3-3,3.6-6.4,3.6c-3.2,0-5.9-1.6-5.9-5.2c0-5,4.8-5.1,9.5-5.7
		c1.8-0.2,2.8-0.4,2.8-2.4c0-2.9-2.1-3.6-4.6-3.6c-2.7,0-4.6,1.2-4.7,4.1C466,198.6,463.7,198.6,463.7,198.6z M475.2,201.2
		L475.2,201.2c-0.3,0.5-1.3,0.7-1.9,0.8c-3.7,0.6-8.2,0.6-8.2,4.1c0,2.2,1.9,3.5,3.9,3.5c3.3,0,6.2-2.1,6.1-5.5v-2.9H475.2z"/>
	<path class="st0" d="M482.9,202.6c0,3.1,1.7,6.9,5.8,6.9c3.1,0,4.8-1.8,5.5-4.5h2.2c-0.9,4-3.2,6.3-7.7,6.3c-5.6,0-8-4.3-8-9.3
		c0-4.6,2.4-9.3,8-9.3c5.7,0,7.9,5,7.8,9.9C496.5,202.6,482.9,202.6,482.9,202.6z M494.3,200.8c-0.1-3.2-2.1-6.3-5.6-6.3
		s-5.5,3.1-5.8,6.3H494.3z"/>
	<path class="st0" d="M499.4,193.2h2v4.1h0.1c1.1-2.8,3.5-4.5,6.7-4.4v2.2c-3.9-0.2-6.6,2.7-6.6,6.3v9.4h-2.2V193.2z"/>
	<path class="st0" d="M510.8,202.6c0,3.1,1.7,6.9,5.8,6.9c3.1,0,4.8-1.8,5.5-4.5h2.2c-0.9,4-3.2,6.3-7.7,6.3c-5.6,0-8-4.3-8-9.3
		c0-4.6,2.4-9.3,8-9.3c5.7,0,7.9,5,7.8,9.9C524.4,202.6,510.8,202.6,510.8,202.6z M522.2,200.8c-0.1-3.2-2.1-6.3-5.6-6.3
		s-5.5,3.1-5.8,6.3H522.2z"/>
	<path class="st0" d="M527.2,193.2h2.2v3h0.1c0.8-2.1,3.1-3.6,5.6-3.6c5,0,6.5,2.6,6.5,6.8v11.3h-2.2v-11c0-3-1-5.3-4.5-5.3
		c-3.4,0-5.5,2.6-5.5,6v10.3h-2.2V193.2z"/>
	<path class="st0" d="M556.1,198.4c-0.1-2.7-2.2-3.9-4.6-3.9c-1.9,0-4.2,0.8-4.2,3c0,1.9,2.2,2.6,3.7,3l2.9,0.6c2.5,0.4,5,1.8,5,4.9
		c0,3.8-3.8,5.3-7.1,5.3c-4.1,0-6.9-1.9-7.2-6.2h2.2c0.2,2.9,2.3,4.4,5.2,4.4c2,0,4.8-0.9,4.8-3.3c0-2-1.9-2.7-3.9-3.2l-2.8-0.6
		c-2.8-0.8-4.9-1.7-4.9-4.7c0-3.6,3.5-5,6.6-5c3.5,0,6.3,1.8,6.5,5.7H556.1z"/>
	<path class="st0" d="M563.3,202.6c0,3.1,1.7,6.9,5.8,6.9c3.1,0,4.8-1.8,5.5-4.5h2.2c-0.9,4-3.2,6.3-7.7,6.3c-5.6,0-8-4.3-8-9.3
		c0-4.6,2.4-9.3,8-9.3c5.7,0,7.9,5,7.8,9.9C576.9,202.6,563.3,202.6,563.3,202.6z M574.7,200.8c-0.1-3.2-2.1-6.3-5.6-6.3
		s-5.5,3.1-5.8,6.3H574.7z"/>
	<path class="st0" d="M590.3,198.4c-0.1-2.7-2.2-3.9-4.6-3.9c-1.9,0-4.2,0.8-4.2,3c0,1.9,2.2,2.6,3.7,3l2.9,0.6c2.5,0.4,5,1.8,5,4.9
		c0,3.8-3.8,5.3-7.1,5.3c-4.1,0-6.9-1.9-7.2-6.2h2.2c0.2,2.9,2.3,4.4,5.2,4.4c2,0,4.8-0.9,4.8-3.3c0-2-1.9-2.7-3.9-3.2l-2.8-0.6
		c-2.8-0.8-4.9-1.7-4.9-4.7c0-3.6,3.5-5,6.6-5c3.5,0,6.3,1.8,6.5,5.7H590.3z"/>
</g>
<path class="st0" d="M158.3,172.4h22.8c16.9,0,24.3,12.3,24.3,27.5c0,15.2-7.3,27.5-24.3,27.5h-22.8V172.4z"/>
<path class="st1" d="M168.4,187.4c2.3,0,4.5-0.1,6.8-0.1c0.4,0,0.7-0.1,1-0.5c0.8-1,1.7-2,2.5-3.1c0.3-0.4,0.6-0.6,1.1-0.5
	c0.8,0.1,1.5-0.1,1.9-0.8c0.3-0.6,0.7,0,1,0c1.4,0.4,2.6,1.1,3.7,2c0.8,0.6,1.5,1.1,2.5,1.3c0.9,0.2,1,0.4,1,1.3
	c0,0.7,0.2,1.2,0.7,1.6c0.9,0.8,1.7,1.8,2.7,2.6c0.7,0.6,0.8,1.5,0.7,2.3c-0.2,1.2-0.1,2.3,0.2,3.4c0.1,0.5,0.3,0.7,0.8,0.7
	c1.1,0,1.2,0.2,1.1,1.3c-0.1,1.3-0.5,2.5-1.3,3.6c-0.8,0.9-1.4,2-2.1,3c-0.1,0.1-0.1,0.3-0.2,0.3c-1.4,0.8-2.4,2.1-3.9,2.7
	c-2.1,0.8-4.3,1.4-6.4,2c-1,0.3-2,0.3-3,0.2c-1.3-0.1-2.6,0-3.9-0.2c-0.6-0.1-1.1-0.3-1.6-0.5c-0.3-0.1-0.5-0.4-0.9-0.1
	c-0.3,0.3-0.2,0.6-0.2,0.9c0,1.1,0.5,2.1,0.9,3.1c0.2,0.5,0.2,0.8-0.2,1.2c-0.3,0.2-0.4,0.5-0.4,0.8c-0.1,0.5-0.3,0.9-0.4,1.4
	c-0.3,0.7-0.3,1.4,0.2,2c0.3,0.4,0.3,0.8,0,1.1c-0.3,0.5-0.6,0.9-1,1.4c-0.4,0.5-0.7,0.5-1.1,0.1c-0.5-0.5-1-1-1.6-1.5
	c-0.5-0.4-0.7-0.9-0.7-1.6c0-5.1,0-10.1,0-15.2c0-2.5,0.1-5,0.2-7.5c0.1-2.8,0-5.5,0.1-8.3C168.3,187.7,168.3,187.5,168.4,187.4z"/>
</svg>
