<?xml version="1.0" encoding="utf-8"?>
<!-- Generator: Adobe Illustrator 19.1.0, SVG Export Plug-In . SVG Version: 6.00 Build 0)  -->
<svg version="1.1" id="Layer_1" xmlns="http://www.w3.org/2000/svg" xmlns:xlink="http://www.w3.org/1999/xlink" x="0px" y="0px"
	 viewBox="114 143.3 528 114.7" style="enable-background:new 114 143.3 528 114.7;" xml:space="preserve">
<style type="text/css">
	.st0{fill:#AC2C25;}
	.st1{fill:#FEE667;}
</style>
<g>
	<g>
		<path class="st0" d="M305.9,225.4c0-0.9-0.9-0.9-0.9-0.9c-0.2,0-0.6-0.1-0.6-0.1c-1.4-0.2-4.3-2.8-1-10.6
			c3.3-7.8,0.4-12.5-3.2-13.6c-4.3-1.3-7.8,2.1-7.8,2.1c-0.2,0.2-0.4,0.5-0.7,0.7c-0.4,0.5-0.7,1-1.1,1.5c-0.3,0.5-0.7,1-0.9,1.6
			c-0.2,0.5-0.5,1-0.7,1.6c-0.4,1-0.8,2.1-1.2,3.2c-0.2,0.6-0.3,1.1-0.4,1.7c0,0-1.1,4.6-5.5,8.9c-0.3,0.3-1.9,1.6-2.5,1.1
			c-0.4-0.4,0.8-2.1,0.8-2.1c0.2-0.3,0.5-0.7,0.7-1c0.4-0.5,0.7-1.1,1.1-1.6c0.3-0.6,0.6-1.2,0.9-1.7c0-0.1,0.1-0.2,0.1-0.2
			c0-0.1,0.1-0.2,0.1-0.2c0-0.1,0.1-0.2,0.1-0.2s0.1-0.2,0.1-0.2c0.1-0.2,0.1-0.3,0.2-0.5c0-0.1,0.1-0.2,0.1-0.2s0.1-0.2,0.1-0.2
			l0.2-0.9c0.1-0.2,0.1-0.3,0.1-0.5s0.1-0.3,0.1-0.5s0.1-0.3,0.1-0.5s0.1-0.3,0.1-0.5c0-0.2,0.1-0.3,0.1-0.5c0-0.2,0-0.3,0-0.5
			c0.1-0.7,0.1-1.4,0-2.1c0-0.3-0.1-0.7-0.2-1.1c-0.1-0.3-0.2-0.7-0.2-1.1c-0.2-0.7-0.4-1.4-0.8-2.1c-0.1-0.2-0.2-0.3-0.3-0.5
			c-0.1-0.2-0.2-0.3-0.3-0.5c-0.2-0.2-0.3-0.3-0.4-0.5c-0.2-0.2-0.3-0.3-0.5-0.5c-0.3-0.3-0.7-0.6-1-0.7c-0.4-0.2-0.8-0.4-1.2-0.6
			c-0.2-0.1-0.5-0.1-0.7-0.2c-0.2,0-0.4-0.1-0.7-0.1c-0.1,0-0.2,0-0.3,0c-0.1,0-0.2,0-0.3,0.1h0.2h-0.1h-0.1h-0.2H277
			c-0.1,0-0.1,0.1-0.2,0.1c-0.1,0-0.1,0-0.2,0.1c-0.4,0.1-0.8,0.2-1.2,0.4c-0.2,0.1-0.3,0.2-0.5,0.3c-0.2,0.1-0.3,0.2-0.4,0.3
			c-0.3,0.2-0.6,0.5-0.8,0.7c-0.2,0.2-0.5,0.4-0.7,0.7c-0.4,0.4-0.8,0.9-1.2,1.4c-0.1,0.1-0.2,0.2-0.2,0.3c-0.1,0.1-0.2,0.2-0.2,0.4
			c-0.1,0.1-0.2,0.2-0.3,0.3c-0.1,0.1-0.2,0.2-0.2,0.4c-0.2,0.2-0.3,0.5-0.5,0.7c-0.2,0.2-0.3,0.5-0.5,0.7c-0.3,0.5-0.7,1-0.9,1.5
			c-0.2,0.2-0.3,0.6-0.4,0.8c-0.2,0.2-0.3,0.5-0.4,0.7c-0.2,0.2-0.2,0.3-0.3,0.6c-0.1,0.2-0.2,0.4-0.3,0.6c0.1-0.3,0.1-0.6,0.2-0.9
			c0.1-0.2,0.1-0.6,0.2-0.9l0.2-1.2c0.1-0.2,0.1-0.4,0.2-0.7c0-0.2,0.1-0.4,0.1-0.7l0.2-1.2l0.2-1.2c0-0.2,0.1-0.4,0.1-0.7
			c0-0.2,0.1-0.4,0.1-0.7l0.1-0.7l0.1-0.3c0-0.1,0.1-0.2,0.1-0.3c0.1-0.7-0.1-1.3-0.5-1.9c-0.4-0.6-0.9-0.9-1.7-1.1
			c-0.7-0.2-1.5-0.1-2.1,0.3c-0.7,0.4-1.1,1-1.2,1.7l-0.1,0.1l-0.6,2.4l-0.6,2.4l-0.6,2.5l-0.6,2.5c-0.2,0.7-0.3,1.6-0.5,2.3
			c-0.2,1.7-3.4,11.8-8,11.3c-1.4-0.2-4.3-2.8-1-10.6c3.3-7.8,0.5-12.5-3.2-13.6c-4.3-1.3-7.8,2.1-7.8,2.1c-0.2,0.2-0.4,0.5-0.7,0.7
			c-0.4,0.5-0.7,1-1.1,1.5c-0.3,0.5-0.7,1-0.9,1.6c-0.2,0.5-0.5,1-0.7,1.6c-0.4,1-0.8,2.1-1.2,3.2c-0.2,0.6-0.3,1.1-0.4,1.7
			c0,0-1.6,6.7-8.6,11.4c-4.1,2.6,1.1-7.1,1.1-7.1c0.3-0.6,0.6-1.2,0.9-1.8c0.3-0.7,0.6-1.2,0.9-1.9c0.2-0.3,0.3-0.7,0.4-1
			c0.2-0.3,0.3-0.7,0.4-1c0.2-0.3,0.3-0.7,0.4-1c0.2-0.3,0.2-0.7,0.4-1.1c0.2-0.4,0.3-0.7,0.4-1.2c0.1-0.4,0.2-0.7,0.3-1.2
			c0.1-0.2,0.1-0.5,0.2-0.7c0-0.2,0.1-0.4,0.1-0.7c0-0.2,0.1-0.2,0.1-0.4c0-0.1,0-0.2,0.1-0.4c0-0.2,0-0.3,0-0.4
			c0-0.2,0-0.3-0.1-0.5c0-0.3-0.1-0.7-0.2-1.2c0-0.1-0.1-0.2-0.1-0.3c0-0.1-0.1-0.2-0.2-0.4c-0.1-0.2-0.2-0.2-0.2-0.4
			c-0.1-0.1-0.2-0.2-0.3-0.4c-0.2-0.2-0.4-0.6-0.7-0.8c-0.3-0.2-0.6-0.4-0.9-0.7c-0.3-0.2-0.7-0.3-0.9-0.4c-0.2-0.1-0.2-0.1-0.4-0.1
			c-0.1,0-0.2,0-0.4-0.1c-0.2,0-0.3,0-0.3-0.1h-0.2h-0.2h-0.1h-0.1h-0.1h-0.2c-0.1,0-0.2,0.1-0.2,0.1c-0.2,0-0.3,0.1-0.6,0.1
			c-0.2,0-0.3,0.1-0.5,0.1c-0.3,0.1-0.7,0.2-0.9,0.2c-0.2,0.1-0.5,0.2-0.7,0.4c-0.5,0.2-0.9,0.6-1.3,0.9c-0.2,0.2-0.3,0.3-0.5,0.5
			c-0.2,0.2-0.3,0.3-0.5,0.5c-0.6,0.7-1,1.3-1.4,2.1c-0.1,0.1-0.1,0.2-0.2,0.2s-0.1,0.2-0.2,0.2l-0.1,0c-0.1,0.2-0.2,0.3-0.2,0.5
			c-0.1,0.2-0.2,0.3-0.2,0.5c-0.2,0.3-0.3,0.7-0.6,1c-0.2,0.3-0.3,0.7-0.6,1c-0.2,0.3-0.3,0.7-0.5,0.9s-0.3,0.6-0.5,0.9
			c0,0,0-0.1,0-0.2c0.1-0.2,0.1-0.6,0.2-0.8c0.1-0.2,0.1-0.6,0.2-0.8s0.1-0.6,0.1-0.8s0-0.6,0.1-0.9c0-0.2,0-0.3,0-0.5s0-0.3,0-0.5
			c0-0.2,0-0.3,0-0.6s0-0.3-0.1-0.6c0-0.2-0.1-0.4-0.1-0.6c0-0.2-0.1-0.4-0.2-0.7c-0.2-0.5-0.4-1-0.7-1.6c-0.1-0.2-0.2-0.2-0.3-0.4
			c-0.2-0.1-0.2-0.2-0.4-0.4c-0.3-0.3-0.7-0.5-1.1-0.7c-0.3-0.2-0.7-0.2-1.2-0.3h-0.2h-0.2h-0.2l0,0h-0.1h-0.2h-0.2
			c-0.2,0-0.6,0.1-0.9,0.2c-0.3,0.1-0.6,0.2-0.7,0.3c-0.2,0.2-0.4,0.2-0.6,0.4c-0.2,0.2-0.3,0.2-0.5,0.4c-0.1,0.1-0.1,0.1-0.2,0.2
			c-0.1,0.1-0.2,0.2-0.2,0.2c-0.1,0.1-0.2,0.2-0.3,0.4l-0.7,0.7l-0.2,0.3c-0.1,0.1-0.1,0.1-0.2,0.2c0,0.1-0.1,0.1-0.2,0.2
			c-0.1,0.1-0.2,0.2-0.2,0.3c-0.1,0.1-0.2,0.2-0.2,0.3c-0.3,0.5-0.6,1-0.8,1.4c-0.2,0.2-0.3,0.5-0.4,0.7c-0.1,0.2-0.2,0.5-0.3,0.7
			c-0.2,0.5-0.5,1-0.7,1.5c-0.2,0.5-0.4,1-0.7,1.5c-0.1,0.2-0.2,0.5-0.3,0.7s-0.2,0.5-0.2,0.7c-0.2,0.4-0.4,0.9-0.6,1.4l1.8-10.1
			c0.1-0.6,0-1.1-0.3-1.6c-0.3-0.5-0.7-0.8-1.2-0.9c-0.6-0.2-1.2-0.1-1.7,0.2s-0.8,0.7-1,1.3l-5.5,21.9c0,0.1,0,0.1,0,0.2
			c0,0.1,0,0.1,0,0.2c-0.2,0.8,0,1.7,0.5,2.4c0.5,0.7,1.2,1.2,2.1,1.3c0.8,0.2,1.7,0,2.4-0.5s1.2-1.2,1.3-2.1l0.1-0.2V224l0.2-0.7
			c0.1-0.2,0.2-0.5,0.2-0.7c0.1-0.2,0.2-0.5,0.3-0.7c0.1-0.2,0.2-0.5,0.3-0.7c0.1-0.2,0.2-0.5,0.3-0.7c0.2-0.4,0.4-0.9,0.7-1.4
			c0.4-0.9,0.8-1.8,1.2-2.8c0.4-0.9,0.9-1.8,1.3-2.7c0.2-0.2,0.2-0.5,0.4-0.7c0.1-0.2,0.2-0.4,0.3-0.7c0.2-0.2,0.2-0.4,0.4-0.7
			c0.1-0.2,0.2-0.4,0.4-0.7c0.2-0.4,0.5-0.8,0.7-1.2c0.2-0.4,0.6-0.8,0.8-1.2c0.2-0.2,0.3-0.4,0.4-0.6c0.2-0.2,0.2-0.4,0.4-0.6
			c0.2-0.2,0.3-0.3,0.4-0.6c0.2-0.2,0.3-0.3,0.4-0.5c0.2-0.2,0.3-0.4,0.4-0.5c0.1-0.1,0.1-0.1,0.1-0.2l0.1-0.1
			c0-0.1,0.1-0.2,0.2-0.2v0.3c0,0.4-0.1,0.8-0.2,1.2c0,0.2-0.1,0.5-0.1,0.7c0,0.2-0.1,0.5-0.1,0.7c-0.1,0.5-0.2,1-0.3,1.4
			c-0.1,0.5-0.2,0.9-0.3,1.4c-0.2,1-0.5,1.9-0.7,2.9c-0.2,0.9-0.6,1.9-0.9,2.9l-0.9,2.8c-0.1,0.2-0.2,0.5-0.2,0.7
			c-0.1,0.2-0.2,0.5-0.2,0.7l-0.2,0.7l-0.2,0.3l-0.2,0.3v0.1c-0.2,0.7-0.2,1.4,0,2.1c0.2,0.7,0.7,1.2,1.5,1.4c0.7,0.3,1.4,0.3,2.1,0
			s1.2-0.8,1.4-1.5l0.2-0.3l0.2-0.4l0.3-0.7c0-0.1,0.1-0.1,0.1-0.2c0,0,0-0.1,0.1-0.2c0.1-0.1,0.1-0.2,0.2-0.3
			c0.1-0.1,0.1-0.2,0.2-0.3c0.2-0.3,0.3-0.7,0.4-1c0.2-0.3,0.3-0.7,0.4-1c0.3-0.6,0.7-1.2,1-1.8c0.3-0.7,0.7-1.2,1.1-1.8l1.1-1.7
			c0.2-0.3,0.3-0.6,0.6-0.9c0.2-0.2,0.4-0.6,0.6-0.9c0.4-0.6,0.8-1.2,1.2-1.7c0.4-0.6,0.8-1.1,1.3-1.6c0.2-0.2,0.4-0.5,0.7-0.7
			c0.2-0.2,0.5-0.5,0.7-0.7s0.5-0.4,0.7-0.7c0.1-0.1,0.2-0.2,0.4-0.3l0.4-0.2c0.1-0.1,0.2-0.2,0.5-0.2l-0.1,0.2
			c-0.1,0.3-0.2,0.7-0.2,1c-0.1,0.3-0.2,0.7-0.2,1c-0.1,0.3-0.2,0.7-0.3,1c-0.1,0.3-0.2,0.7-0.3,1c-0.2,0.7-0.4,1.4-0.7,2.1
			c-0.2,0.7-0.4,1.3-0.7,2.1c-0.1,0.3-0.2,0.7-0.3,1.1c-0.1,0.3-0.2,0.7-0.2,1.1c-0.1,0.2-0.1,0.3-0.2,0.6c-0.1,0.2-0.1,0.3-0.1,0.6
			c-0.1,0.2-0.1,0.3-0.2,0.6c0,0.2-0.1,0.4-0.2,0.6c0-0.2-0.1,0-0.1,0.2s-0.1,0.4-0.1,0.6c0,0.2-0.1,0.4-0.1,0.6s0,0.4-0.1,0.7v0.7
			c0,0.2,0,0.3,0,0.4c0,0.1,0,0.2,0,0.4s0.1,0.3,0.1,0.4c0,0.2,0.1,0.3,0.1,0.5c0.1,0.3,0.2,0.7,0.5,1.1c0.1,0.1,0.2,0.2,0.2,0.3
			c0.1,0.1,0.2,0.2,0.2,0.2c0.1,0.1,0.2,0.2,0.3,0.2c0.1,0.1,0.2,0.2,0.3,0.2c0.2,0.2,0.4,0.2,0.7,0.3c0.1,0,0.2,0.1,0.3,0.1
			c0.1,0,0.2,0.1,0.3,0.1c0.1,0,0.2,0.1,0.2,0.1c0.1,0,0.2,0,0.2,0.1h0.2l0.2-0.1h0.1h0.1h0.1h0.1c0.1,0,0.1,0,0.2,0h0.1
			c0.1,0,0.2,0,0.4-0.1c0.2-0.1,0.5-0.2,0.7-0.2c0.2-0.1,0.4-0.2,0.7-0.3c0.2-0.1,0.4-0.2,0.6-0.3c0.2-0.1,0.3-0.2,0.5-0.4
			c0.3-0.2,0.7-0.5,0.9-0.8c1.6-1.5,4.2-4.7,4.2-4.7c0.4-0.6,0.7-1.1,1.1-1c0.3,0,0.3,0.3,0.3,0.8c0,0.2,0,0.2,0,0.4
			c0,0.3,0.1,0.6,0.1,0.9c0,0,0.6,4.3,3.7,4.8c0.1,0,0.2,0,0.3,0c0.1,0,0.2,0,0.3,0h0.2h0.1h0.1h0.1h0.1c0.1,0,0.1,0,0.1,0
			s0,0,0.1,0c0.2,0,0.4-0.1,0.6-0.2c0.2-0.1,0.3-0.1,0.5-0.2c0.3-0.2,0.7-0.3,0.9-0.6c0.2-0.1,0.2-0.2,0.4-0.3
			c0.1-0.1,0.2-0.2,0.3-0.3c0.2-0.2,0.4-0.5,0.7-0.7c0.2-0.2,0.3-0.5,0.6-0.7c0.3-0.5,0.7-1,0.9-1.4c0.2-0.2,0.2-0.5,0.4-0.7
			c0.1-0.2,0.2-0.5,0.3-0.7c0.1-0.1,0.1-0.2,0.2-0.3c0.1-0.1,0.1-0.2,0.2-0.4c0,0.2,0,0.3,0,0.6c0,0.2,0,0.3,0.1,0.6
			c0,0.2,0.1,0.4,0.1,0.6s0.1,0.4,0.1,0.6c0.1,0.4,0.2,0.8,0.4,1.2c0.1,0.4,0.3,0.9,0.7,1.3c0.2,0.4,0.6,0.8,1.1,1.2
			c0.4,0.4,0.9,0.7,1.4,0.8c0.2,0.1,0.5,0.2,0.7,0.2c0,0,3.4,0.7,5.4-1.3v0.1c-0.2,0.3-0.6,1.1-0.7,1.4c-0.1,0.2-0.2,0.3-0.3,0.5
			c-0.1,0.2-0.2,0.4-0.3,0.6c-0.1,0.2-0.2,0.3-0.3,0.6c-0.1,0.2-0.2,0.4-0.2,0.6s-0.2,0.3-0.3,0.6c-0.1,0.1-0.1,0.2-0.2,0.3
			l-0.1,0.2l0,0.1c-0.1,0.2-0.2,0.4-0.2,0.6c-0.1,0.2-0.2,0.4-0.2,0.6c-0.3,0.7-0.7,1.6-1,2.4c-0.3,0.8-0.6,1.7-0.9,2.5
			c-0.6,1.6-1.1,3.2-1.5,5l-0.1,0.3v0.2l-0.1,0.2l-0.2,0.7c-0.1,0.2-0.1,0.5-0.1,0.7c0,0.2-0.1,0.4-0.1,0.7s-0.1,0.5-0.1,0.7
			c0,0.2,0,0.5,0,0.7v0.7c0,0.1,0,0.2,0,0.3c0,0.1,0,0.2,0.1,0.4c0.1,0.3,0.2,0.7,0.3,0.9c0.1,0.1,0.1,0.2,0.2,0.2
			c0.1,0.1,0.1,0.2,0.2,0.2c0.1,0.2,0.2,0.3,0.5,0.4c0.2,0.1,0.3,0.2,0.7,0.2c0.1,0,0.1,0.1,0.2,0.1c0.1,0,0.1,0,0.2,0.1h0.1h0.1
			h0.1h0.2c0.2,0,0.3,0,0.5,0c0.2,0,0.3,0,0.5-0.1c0.3-0.1,0.7-0.2,0.8-0.3c0.2-0.1,0.2-0.2,0.4-0.2c0.1-0.1,0.2-0.2,0.3-0.2
			c0.5-0.3,0.9-0.7,1.2-1l0.6-0.6c0.1-0.1,0.2-0.2,0.2-0.2c0.1-0.1,0.2-0.2,0.2-0.2c0.2-0.2,0.3-0.3,0.4-0.6
			c0.2-0.2,0.2-0.4,0.4-0.6c0.6-0.8,1.1-1.7,1.4-2.4l0.6-1.2c0.1-0.2,0.2-0.4,0.2-0.6c0.1-0.2,0.2-0.4,0.2-0.7
			c0.1-0.2,0.2-0.4,0.2-0.6c0.1-0.2,0.2-0.4,0.2-0.7c0.1-0.2,0.2-0.4,0.2-0.6c0.1-0.2,0.2-0.4,0.2-0.6c0.2-0.4,0.2-0.8,0.4-1.2
			c0.1-0.4,0.2-0.8,0.4-1.2c0.1-0.2,0.1-0.4,0.2-0.6s0.1-0.4,0.2-0.6l0.3-1.2c0.5-1.7,0.9-3.3,1.3-5c0.4-1.7,0.8-3.3,1.2-5
			c0.2-1,0.5-2,0.7-3s0.5-2,0.7-3c0.1-0.1,0.1-0.2,0.2-0.2c0.1-0.1,0.1-0.2,0.2-0.2c0.2-0.2,0.3-0.5,0.4-0.7
			c0.2-0.2,0.2-0.5,0.4-0.7c0.3-0.5,0.7-1,0.9-1.5c0.3-0.5,0.6-0.9,0.9-1.4c0.2-0.2,0.3-0.5,0.5-0.7c0.2-0.2,0.3-0.5,0.5-0.7
			l1.1-1.3c0.2-0.2,0.3-0.5,0.6-0.7c0.2-0.2,0.3-0.4,0.6-0.6c0.1-0.1,0.2-0.2,0.3-0.3c0.1-0.1,0.2-0.2,0.3-0.3l0.6-0.6
			c0.2-0.2,0.4-0.3,0.6-0.6c0.2-0.2,0.4-0.3,0.6-0.5l0.7-0.4c0.2-0.2,0.4-0.2,0.7-0.3c0.1-0.1,0.2-0.1,0.3-0.1c0.1,0,0.2,0,0.3-0.1
			c0.1,0,0.2-0.1,0.4-0.1h0.1v0.1h0.1c0.1,0,0.1,0,0.2,0c0,0,0.1,0,0.2,0c0.1,0.1,0.2,0.2,0.3,0.2c0.2,0.1,0.4,0.3,0.6,0.6
			c0.1,0.1,0.1,0.2,0.1,0.2c0,0.1,0.1,0.2,0.1,0.2s0.1,0.2,0.2,0.5c0.1,0.2,0.1,0.3,0.2,0.6c0,0.2,0.1,0.4,0.1,0.6
			c0.1,0.4,0.1,0.8,0,1.3c0,0.9-0.2,1.8-0.4,2.8c-0.1,0.2-0.1,0.2-0.1,0.4c0,0.1,0,0.2-0.1,0.3c-0.1,0.2-0.2,0.5-0.2,0.7
			c0,0.1-0.1,0.1-0.1,0.2c0,0.1,0,0.2-0.1,0.2c-0.1,0.1-0.1,0.2-0.1,0.3c0,0.1-0.1,0.2-0.2,0.3c0,0.1-0.1,0.2-0.2,0.3
			c-0.2,0.5-0.3,1-0.6,1.4c-0.2,0.5-0.4,1-0.6,1.5c-0.2,0.5-0.5,0.9-0.7,1.4c-0.2,0.4-0.5,0.9-0.7,1.3c-0.2,0.4-0.6,0.8-0.9,1.2
			c-0.3,0.4-0.7,0.7-1,1.1c-0.2,0.2-0.3,0.3-0.6,0.4c-0.2,0.2-0.4,0.2-0.6,0.4c-0.4,0.2-0.8,0.4-1.2,0.4c-0.3,0.1-0.7,0.1-1.1,0
			c-0.2-0.1-0.3-0.2-0.5-0.2c-0.1-0.1-0.2-0.2-0.2-0.2c-0.1-0.1-0.2-0.2-0.2-0.2c0-0.1-0.1-0.1-0.1-0.2c0-0.1-0.1-0.1-0.1-0.2
			c-0.1-0.1-0.1-0.1-0.1-0.2c0,0-0.1-0.1-0.1-0.2c-0.1-0.1-0.1-0.2-0.2-0.3c0-0.1-0.1-0.2-0.2-0.4c-0.1-0.1-0.1-0.2-0.2-0.3
			c0-0.1-0.1-0.2-0.2-0.4c0-0.2-0.1-0.2-0.1-0.4c0-0.1-0.1-0.2-0.1-0.4c0-0.2-0.2-0.3-0.4-0.4c-0.2,0-0.2,0.1-0.4,0.1
			c-0.1,0.1-0.2,0.2-0.2,0.3c-0.1,0.7-0.1,1.2,0,1.9c0,0.2,0.1,0.3,0.1,0.5s0.1,0.3,0.1,0.5c0.1,0.2,0.1,0.3,0.2,0.5
			c0.1,0.2,0.1,0.3,0.2,0.5s0.2,0.3,0.2,0.5c0.1,0.2,0.2,0.3,0.3,0.5c0,0,7.2,7.5,17.5-4.9l0,0c0.4-0.6,0.7-1.1,1.2-1
			c0.3,0,0.2,0.3,0.3,0.8c0,0.2,0,0.2,0,0.4c0,0.3,0.1,0.6,0.1,0.9c0,0,0.6,4.3,3.7,4.8c0.1,0,0.2,0,0.3,0c0.1,0,0.2,0,0.3,0h0.2
			h0.1h0.1h0.1h0.1c0.1,0,0.1,0,0.1,0s0,0,0.1,0c0.2,0,0.4-0.1,0.6-0.2c0.2-0.1,0.3-0.1,0.5-0.2c0.3-0.2,0.7-0.3,0.9-0.6
			c0.2-0.1,0.2-0.2,0.4-0.3c0.1-0.1,0.2-0.2,0.3-0.3c0.2-0.2,0.4-0.5,0.7-0.7c0.2-0.2,0.3-0.5,0.6-0.7c0.3-0.5,0.7-1,0.9-1.4
			c0.2-0.2,0.2-0.5,0.4-0.7c0.1-0.2,0.2-0.5,0.3-0.7c0.1-0.1,0.1-0.2,0.2-0.3c0.1-0.1,0.1-0.2,0.2-0.4c0,0.2,0,0.3,0,0.6
			c0,0.2,0,0.3,0.1,0.6c0,0.2,0.1,0.4,0.1,0.6s0.1,0.4,0.1,0.6c0.1,0.4,0.2,0.8,0.4,1.2c0.1,0.4,0.3,0.9,0.7,1.3
			c0.2,0.4,0.6,0.8,1.1,1.2c0.4,0.4,0.9,0.7,1.4,0.8c0.2,0.1,0.5,0.2,0.7,0.2c0,0,1.2,0.2,2.6,0C306,226,305.9,225.4,305.9,225.4z
			 M212.2,204.2C212.2,204.2,212.2,204.1,212.2,204.2L212.2,204.2z M246.3,213.9L246.3,213.9c-0.3,0.8-0.7,1.7-1.1,2.3
			c-0.2,0.5-0.5,0.9-0.7,1.4c-0.2,0.4-0.5,0.9-0.7,1.3l-0.8,1.2c-0.2,0.2-0.3,0.4-0.4,0.6c-0.2,0.2-0.3,0.3-0.4,0.6
			c-0.2,0.2-0.3,0.3-0.5,0.5s-0.3,0.2-0.5,0.4c-0.3,0.2-0.7,0.4-0.9,0.5c-0.2,0.1-0.3,0.1-0.4,0.1h-0.1l0,0h-0.1h-0.1
			c-0.1,0-0.1,0-0.1,0s0,0-0.1,0l-0.2-0.1c-0.1-0.1-0.2-0.2-0.2-0.2c0-0.1-0.1-0.1-0.1-0.2s-0.1-0.1-0.1-0.2c0-0.1-0.1-0.2-0.1-0.2
			c0-0.1-0.1-0.2-0.1-0.2c-0.1-0.2-0.1-0.3-0.2-0.5c0-0.2-0.1-0.4-0.1-0.6c0-0.2,0-0.5,0-0.7c0-0.2,0-0.4,0-0.7
			c0-0.2,0.1-0.5,0.1-0.7c0-0.2,0.1-0.4,0.1-0.7c0.1-0.5,0.2-1,0.2-1.4c0.1-0.5,0.2-0.9,0.4-1.4c0.2-0.9,0.6-1.8,0.9-2.7
			c0.2-0.4,0.4-0.8,0.6-1.2c0.2-0.4,0.4-0.9,0.7-1.3c0.2-0.4,0.5-0.8,0.7-1.2c0.2-0.4,0.5-0.7,0.8-1.1c0,0,2.1-3,4.1-1.7
			C248.8,206.8,246.6,213.3,246.3,213.9z M257.1,229.6c-0.1,0.3-0.2,0.7-0.2,1l-0.2,1.2l-0.2,1.2c-0.1,0.4-0.2,0.8-0.3,1.2
			c-0.1,0.4-0.2,0.7-0.3,1.2c-0.1,0.2-0.1,0.4-0.2,0.6c-0.1,0.2-0.1,0.4-0.2,0.6c-0.1,0.2-0.1,0.4-0.2,0.6c-0.1,0.2-0.1,0.4-0.2,0.6
			L255,238c0,0.1,0,0.2-0.1,0.2l-0.2,0.6l-0.4,1.2l-0.8,2.1c-0.2,0.3-0.3,0.7-0.4,1.1c-0.2,0.3-0.3,0.7-0.5,1
			c-0.1,0.2-0.2,0.5-0.5,0.8c-0.1,0.1-0.2,0.2-0.2,0.3c-0.1,0.1-0.2,0.2-0.2,0.2s-0.2,0.2-0.2,0.2h-0.1l-0.1,0.1c0,0,0.1,0,0.1,0.1
			v0.1h-0.1c-0.1-0.1-0.2-0.2-0.2-0.2c-0.1-0.1-0.1-0.2-0.2-0.4c-0.1-0.2-0.1-0.4-0.1-0.6c0-0.2-0.1-0.4-0.1-0.6s0-0.4,0-0.6
			c0-0.2,0-0.4,0-0.6s0-0.4,0.1-0.6c0-0.2,0.1-0.3,0.2-0.6l0.1-0.2l0.1-0.2l0.1-0.2c0.2-0.8,0.5-1.6,0.7-2.4
			c0.2-0.7,0.6-1.6,0.9-2.3c0.3-0.7,0.7-1.6,1.1-2.2c0.4-0.7,0.7-1.5,1.2-2.1c0.1-0.2,0.2-0.3,0.3-0.6c0.1-0.2,0.2-0.3,0.3-0.5
			l0.1-0.2l0.1-0.2c0.1-0.1,0.1-0.2,0.2-0.2c0.1-0.1,0.1-0.2,0.2-0.2s0.1-0.2,0.2-0.2c0.2-0.2,0.2-0.3,0.4-0.5
			c0.1-0.2,0.2-0.3,0.4-0.5c0-0.1,0.1-0.2,0.2-0.2C257.2,229,257.1,229.3,257.1,229.6z M298.2,213.9L298.2,213.9
			c-0.3,0.8-0.7,1.7-1,2.3c-0.2,0.5-0.5,0.9-0.7,1.4c-0.2,0.4-0.5,0.9-0.7,1.3l-0.8,1.2c-0.2,0.2-0.3,0.4-0.4,0.6
			c-0.2,0.2-0.3,0.3-0.4,0.6c-0.2,0.2-0.3,0.3-0.5,0.5c-0.2,0.2-0.3,0.2-0.5,0.4c-0.3,0.2-0.7,0.4-0.9,0.5c-0.2,0.1-0.3,0.1-0.4,0.1
			h-0.1l0,0h-0.1l0,0c-0.1,0-0.1,0-0.1,0s0,0-0.1,0l-0.2-0.1c-0.1-0.1-0.2-0.2-0.2-0.2c0-0.1-0.1-0.1-0.1-0.2s-0.1-0.1-0.1-0.2
			c0-0.1-0.1-0.2-0.1-0.2c0-0.1-0.1-0.2-0.1-0.2c-0.1-0.2-0.1-0.3-0.2-0.5c0-0.2-0.1-0.4-0.1-0.6c0-0.2-0.1-0.5-0.1-0.7
			c0-0.2,0-0.4,0-0.7c0-0.2,0.1-0.5,0.1-0.7c0-0.2,0.1-0.4,0.1-0.7c0.1-0.5,0.2-1,0.2-1.4c0.1-0.5,0.2-0.9,0.4-1.4
			c0.2-0.9,0.6-1.8,0.9-2.7c0.2-0.4,0.4-0.8,0.6-1.2c0.2-0.4,0.4-0.9,0.7-1.3c0.2-0.4,0.5-0.8,0.7-1.2c0.2-0.4,0.5-0.7,0.8-1.1
			c0,0,2.1-3,4.1-1.7C300.6,206.8,298.4,213.3,298.2,213.9z"/>
		<path class="st0" d="M598,211.9c-0.2-0.2-0.3-0.2-0.5-0.2c-0.2,0-0.3,0.1-0.5,0.2c-0.2,0.2-0.3,0.3-0.5,0.5
			c-0.2,0.2-0.3,0.3-0.5,0.5c-0.2,0.2-0.3,0.3-0.5,0.4c-0.2,0.2-0.3,0.3-0.5,0.5c-0.3,0.2-0.7,0.5-1.1,0.7c-0.4,0.2-0.7,0.4-1.2,0.7
			c-0.2,0.1-0.4,0.2-0.6,0.2c-0.2,0.1-0.4,0.2-0.6,0.2c-0.2,0.1-0.3,0.1-0.5,0.1c-0.2,0-0.3,0-0.4,0.1c0.1-0.2,0.2-0.3,0.2-0.5
			c0.1-0.2,0.2-0.3,0.2-0.5c0.2-0.5,0.4-1,0.6-1.4c0.2-0.5,0.3-1,0.4-1.5c0.2-0.9,0.5-1.9,0.7-3c0.1-0.4,0.1-0.7,0.2-1.2l0,0
			c1.2-8.5-7.8-8.2-7.8-8.2c-5.9,0-8.7,2.4-11.2,7.4c-1,2-1.5,3.6-2.6,6c-0.2,0.3-0.3,0.7-0.5,1c-0.2,0.3-0.3,0.7-0.6,1
			c-0.2,0.3-0.3,0.7-0.6,0.9c-0.2,0.3-0.4,0.6-0.6,0.9c-0.7,1.2-1.6,2.4-2.6,3.6c-0.2,0.2-0.3,0.3-0.3,0.4c-0.1,0.1-0.1,0.2-0.2,0.2
			l0,0c-0.1,0.1-0.2,0.2-0.2,0.2l-0.4,0.4c-5,4.8-3.6-4.3-3.6-4.3l0,0l0,0c0-0.2,0.1-0.3,0.1-0.5c0.1-0.3,0.2-0.7,0.2-1
			c0.1-0.3,0.2-0.7,0.2-1c0.5-1.3,1.1-2.6,1.7-3.6c0.2-0.2,0.3-0.5,0.5-0.8c0.2-0.2,0.3-0.5,0.6-0.7c0.4-0.5,0.8-0.8,1.2-1.2
			c0.4-0.3,0.7-0.7,0.9-1.3c0.2-0.5,0.2-1.1,0.1-1.7c-0.2-0.8-0.6-1.4-1.3-1.9c-0.7-0.4-1.4-0.6-2.2-0.4l-1.1,0.2
			c-0.4,0.1-0.7,0.2-1.1,0.3c-0.3,0.1-0.7,0.2-1.1,0.3c-0.3,0.1-0.7,0.2-1.1,0.3c-0.3,0.1-0.7,0.2-1.1,0.2c-1.4,0.3-2.8,0.6-4.1,0.6
			h-0.9c0.1-0.3,0.1-0.5,0.2-0.7c0-0.1,0.1-0.2,0.1-0.3c0-0.1,0-0.2,0.1-0.3c0-0.1,0-0.2,0-0.3c0-0.1,0-0.2,0-0.4c0-0.1,0-0.2,0-0.3
			c0-0.1,0-0.2,0-0.4c0-0.1-0.1-0.2-0.1-0.3c0-0.1-0.1-0.2-0.1-0.3c-0.1-0.2-0.1-0.2-0.2-0.4c-0.1-0.1-0.1-0.2-0.2-0.3
			s-0.2-0.2-0.2-0.3c-0.1-0.1-0.2-0.2-0.3-0.3c-0.2-0.1-0.2-0.2-0.4-0.2c-0.1-0.1-0.2-0.1-0.4-0.2c-0.2-0.1-0.3-0.1-0.4-0.1
			s-0.2,0-0.3-0.1c-0.2,0-0.2-0.1-0.4-0.1c-0.1,0-0.2,0-0.3,0h-0.1l0,0H550h-0.2h-0.4c-0.2,0.1-0.6,0.1-0.8,0.2
			c-0.2,0.1-0.6,0.2-0.8,0.3c-0.2,0.1-0.2,0.2-0.4,0.2c-0.1,0.1-0.2,0.2-0.3,0.3c-0.1,0.1-0.2,0.1-0.2,0.2c-0.1,0.1-0.1,0.1-0.2,0.2
			c-0.1,0.2-0.2,0.3-0.3,0.4c-0.3,0.6-0.6,1.2-0.7,1.9c-0.1,0.7,0,1.3,0.2,1.9c0.2,0.6,0.4,1.2,0.8,1.7c0.3,0.5,0.7,0.9,1.2,1.3
			c0.2,0.2,0.3,0.3,0.6,0.5c0.3,0.2,1.5,1.5,0.5,3c0,0-1.2,2.1-3.6,4.3c-0.2,0.1-0.2,0.2-0.4,0.3c0,0,0,0-0.1,0
			c-0.7,0.5-1.3,1-2,1.4c-0.7,0.5-1.3,0.9-2.1,1.2c-0.3,0.2-0.7,0.3-1,0.6c-0.3,0.2-0.7,0.3-1.1,0.5c-0.3,0.2-0.7,0.3-1.1,0.4
			c-0.3,0.1-0.7,0.2-1.1,0.3c-0.7,0.2-1.4,0.2-2.1,0.2c-0.3,0.1-0.7,0.1-1,0c-0.2,0-0.3,0-0.5,0c-0.2,0-0.3,0-0.5,0
			c-0.3-0.1-0.7-0.1-0.9-0.2c-0.2-0.1-0.5-0.1-0.7-0.2c-0.2-0.1-0.5-0.2-0.7-0.2c-0.2-0.1-0.3-0.2-0.5-0.3c-0.2-0.1-0.3-0.2-0.5-0.3
			c-0.2-0.1-0.3-0.2-0.4-0.5c-0.3-0.3-0.6-0.8-0.8-1.3c-0.1-0.2-0.2-0.6-0.3-0.9c0-0.1-0.1-0.2-0.1-0.3l0.1,0.1
			c-0.1-0.5-0.2-1.2,0.3-1.6c0.3-0.2,0.8-0.1,1.2,0.1c1,0.7,1.9,0.9,1.9,0.9l0,0c0.1,0,0.2,0.1,0.2,0.1c0.1,0,0.2,0.1,0.4,0.1
			l0.8,0.2c1,0.1,2.1,0,3.1-0.2c0.5-0.1,1-0.2,1.4-0.4c0.2-0.1,0.3-0.1,0.3-0.2c0,0,0.1,0,0.1-0.1l0.2-0.1c0.1-0.1,0.2-0.1,0.2-0.1
			c0.3-0.2,0.6-0.3,0.8-0.6c0.5-0.3,1-0.7,1.3-1.2c0.4-0.4,0.7-0.8,1.1-1.3c0.3-0.4,0.6-0.9,0.8-1.4s0.4-1,0.6-1.5
			c0.1-0.2,0.2-0.5,0.2-0.7c0.1-0.2,0.2-0.5,0.2-0.8c0.1-0.6,0.2-1.1,0.2-1.7c0-0.6-0.1-1.2-0.2-1.8c-0.2-0.6-0.3-1.2-0.7-1.8
			c-0.3-0.7-0.7-1.2-1.2-1.7s-1.1-0.9-1.7-1.2c-0.3-0.2-0.7-0.2-1-0.3c-0.3-0.1-0.7-0.1-0.9-0.2c-0.3-0.1-0.6-0.1-0.9-0.1
			c-0.2,0-0.6,0.1-0.8,0.1c-0.2,0.1-0.5,0.1-0.8,0.2c-0.2,0.1-0.5,0.2-0.7,0.2c-0.6,0.2-1,0.4-1.4,0.6c-0.4,0.2-0.9,0.4-1.3,0.7
			c-0.4,0.2-0.8,0.6-1.2,0.8c-0.2,0.2-0.3,0.3-0.6,0.4c-0.2,0.2-0.3,0.2-0.6,0.4c-0.2,0.2-0.3,0.3-0.5,0.5c-0.2,0.2-0.3,0.3-0.5,0.5
			c-0.3,0.3-0.7,0.7-0.9,1c-0.2,0.3-0.6,0.7-0.8,1.1c-0.2,0.3-0.5,0.7-0.7,1.1c-0.2,0.4-0.5,0.7-0.7,1.2c-0.6,0.9-1,1.9-1.4,2.9l0,0
			c-0.3,0.7-0.9,1.8-1.6,2.6l0,0c-0.2,0.1-0.2,0.2-0.4,0.4c-0.1,0.2-0.2,0.2-0.4,0.4c-0.2,0.1-0.3,0.3-0.6,0.6s-0.5,0.4-0.6,0.6
			c-0.5,0.4-1.1,0.8-1.6,1.2c-0.6,0.4-1.2,0.7-1.7,1.1c-0.2,0.2-0.6,0.3-0.8,0.5c-0.2,0.2-0.6,0.3-0.9,0.5c-0.2,0.1-0.3,0.2-0.4,0.2
			c-0.2,0.1-0.2,0.2-0.4,0.2c-0.2,0.1-0.3,0.1-0.4,0.2c-0.2,0.1-0.3,0.1-0.4,0.2c-0.6,0.2-1.2,0.4-1.8,0.6c-0.6,0.2-1.2,0.3-1.8,0.4
			c-0.2,0-0.2,0.1-0.4,0.1c-0.1,0-0.2,0-0.4,0.1h-0.8h-0.7H507h-0.1h-0.1h-0.1h-0.1l-0.1-0.1h-0.3c-0.2-0.1-0.5-0.1-0.7-0.2
			c-0.2-0.1-0.4-0.1-0.6-0.2c-0.3-0.1-0.7-0.2-0.9-0.4c-0.2-0.2-0.6-0.4-0.8-0.7c-0.1-0.2-0.2-0.3-0.3-0.5c-0.1-0.2-0.2-0.3-0.3-0.6
			c-0.2-0.4-0.4-0.9-0.6-1.4s-0.2-1.1-0.3-1.7c-0.1-0.6-0.1-1.2-0.1-1.8c0-0.6,0-1.2,0.1-1.8c0.1-0.7,0.2-1.2,0.4-1.8
			c0.2-0.6,0.4-1.2,0.7-1.8c0.5-1.2,1.2-2.2,2.1-3.1c0.2-0.1,0.2-0.2,0.3-0.3c0.1-0.1,0.2-0.2,0.3-0.2c0.2-0.1,0.2-0.2,0.4-0.3
			c0.1-0.1,0.2-0.2,0.3-0.2c0.2-0.1,0.3-0.2,0.4-0.2c0.2-0.1,0.2-0.1,0.4-0.2s0.2-0.1,0.4-0.2c0.1,0,0.2-0.1,0.4-0.1
			c0.6-0.1,1.2,0,1.7,0.2h0.1l0.1,0.1h0.1h0.1c0,0,0.1,0,0.2,0c0.1,0,0.2,0.1,0.3,0.2c0.1,0.1,0.2,0.1,0.2,0.2
			c0.1,0.1,0.2,0.1,0.2,0.2c0.2,0.2,0.3,0.5,0.4,0.7c0.1,0.3,0.2,0.7,0.2,1c0,0.4-0.1,0.7-0.2,1.2c-0.1,0.4-0.2,0.7-0.3,1.2
			c-0.2,0.3-0.3,0.6-0.6,0.8l-0.2,0.2c0,0-0.1,0-0.2,0.1l-0.1,0.1l-0.1,0.1h-0.1c-0.7,0.4-1.2,0.9-1.4,1.7s-0.2,1.5-0.1,2.2
			c0.3,0.8,0.9,1.4,1.7,1.8c0.7,0.4,1.6,0.4,2.4,0.1l0.1-0.1l0,0l0.2-0.1l0.1-0.1c0,0,0.1,0,0.1-0.1c0.1,0,0.2-0.1,0.4-0.2
			c0.2-0.2,0.5-0.3,0.7-0.4c0.5-0.4,0.9-0.7,1.2-1.2c0.7-0.8,1.2-1.7,1.6-2.7c0.3-1,0.5-1.9,0.6-2.9c0-0.5,0-1-0.1-1.5
			s-0.2-1-0.3-1.5c-0.1-0.2-0.2-0.5-0.2-0.7c-0.1-0.2-0.2-0.5-0.3-0.7c-0.2-0.2-0.3-0.5-0.4-0.7c-0.2-0.2-0.3-0.4-0.5-0.7
			c-0.2-0.2-0.4-0.4-0.7-0.6c-0.2-0.2-0.4-0.3-0.7-0.5c-0.1-0.1-0.2-0.2-0.3-0.2c-0.1-0.1-0.2-0.2-0.4-0.2c-0.1-0.1-0.2-0.1-0.3-0.2
			c-0.1,0-0.2-0.1-0.4-0.2c-0.2-0.1-0.5-0.1-0.8-0.2c-0.2-0.1-0.5-0.1-0.8-0.1c-0.2,0-0.2,0-0.3,0c-0.1,0-0.2,0-0.3,0
			c-0.1,0-0.1,0-0.2,0c-0.1,0-0.1,0-0.2,0h-0.2h-0.1h-0.1l-0.1,0.1h-0.1h-0.1c-0.9,0.2-1.7,0.4-2.4,0.8c-0.7,0.3-1.4,0.7-2.1,1.2
			c-0.3,0.2-0.7,0.5-0.9,0.7c-0.3,0.2-0.7,0.5-0.9,0.7c-0.3,0.2-0.6,0.5-0.8,0.7c-0.2,0.2-0.5,0.6-0.7,0.8c-0.2,0.3-0.5,0.6-0.7,0.9
			c-0.2,0.3-0.5,0.6-0.7,0.9c-0.8,1.2-1.6,2.6-2.1,4.1c-0.1,0.2-0.2,0.3-0.2,0.5c-0.3,0.7-0.9,1.9-1.7,2.6c-0.1,0.1-0.2,0.2-0.3,0.2
			c-0.3,0.2-0.5,0.5-0.7,0.6c-0.2,0.2-0.3,0.3-0.5,0.4c-0.2,0.2-0.3,0.2-0.5,0.4c-0.2,0.2-0.3,0.2-0.5,0.4c-0.2,0.1-0.3,0.2-0.5,0.3
			c-0.7,0.5-1.3,1-2,1.4c-0.7,0.5-1.3,0.9-2.1,1.2c-0.3,0.2-0.7,0.3-1,0.6c-0.3,0.2-0.7,0.3-1.1,0.5c-0.3,0.2-0.7,0.3-1.1,0.4
			c-0.3,0.1-0.7,0.2-1.1,0.3c-0.7,0.2-1.4,0.2-2.1,0.2c-0.3,0.1-0.7,0.1-1,0c-0.2,0-0.3,0-0.5,0s-0.3,0-0.5,0
			c-0.3-0.1-0.7-0.1-0.9-0.2c-0.2-0.1-0.5-0.1-0.7-0.2c-0.2-0.1-0.5-0.2-0.7-0.2c-0.2-0.1-0.3-0.2-0.5-0.3c-0.2-0.1-0.3-0.2-0.5-0.3
			c-0.2-0.1-0.3-0.2-0.4-0.5c-0.3-0.3-0.6-0.8-0.8-1.3c-0.1-0.2-0.2-0.6-0.3-0.9c0-0.1-0.1-0.2-0.1-0.2l0,0
			c-0.1-0.5-0.2-1.2,0.3-1.6c0.4-0.2,1,0,1.2,0.1c0.9,0.7,1.9,0.9,1.9,0.9l0,0c0.1,0,0.2,0.1,0.2,0.1c0.1,0,0.2,0.1,0.4,0.1l0.8,0.2
			c1,0.1,2.1,0,3.1-0.2c0.5-0.1,1-0.2,1.4-0.4c0.2-0.1,0.3-0.1,0.3-0.2c0,0,0.1,0,0.1-0.1l0.2-0.1c0.1-0.1,0.2-0.1,0.2-0.1
			c0.3-0.2,0.6-0.3,0.8-0.6c0.5-0.3,1-0.7,1.3-1.2c0.4-0.4,0.7-0.8,1.1-1.3c0.3-0.4,0.6-0.9,0.8-1.4s0.4-1,0.6-1.5
			c0.1-0.2,0.2-0.5,0.2-0.7c0.1-0.2,0.2-0.5,0.2-0.8c0.1-0.6,0.2-1.1,0.2-1.7c0-0.6-0.1-1.2-0.2-1.8c-0.2-0.6-0.3-1.2-0.7-1.8
			c-0.3-0.7-0.7-1.2-1.2-1.7c-0.5-0.5-1.1-0.9-1.7-1.2c-0.3-0.2-0.7-0.2-1-0.3c-0.3-0.1-0.7-0.1-0.9-0.2c-0.3-0.1-0.6-0.1-0.9-0.1
			s-0.6,0.1-0.8,0.1c-0.2,0.1-0.5,0.1-0.8,0.2c-0.2,0.1-0.5,0.2-0.7,0.2c-0.6,0.2-1,0.4-1.4,0.6c-0.4,0.2-0.9,0.4-1.3,0.7
			c-0.4,0.2-0.8,0.6-1.2,0.8c-0.2,0.2-0.3,0.3-0.6,0.4c-0.2,0.2-0.3,0.2-0.6,0.4c-0.2,0.2-0.3,0.3-0.5,0.5c-0.2,0.2-0.3,0.3-0.5,0.5
			c-0.3,0.3-0.7,0.7-0.9,1s-0.6,0.7-0.8,1.1c-0.2,0.3-0.5,0.7-0.7,1.1c-0.2,0.4-0.5,0.7-0.7,1.2c-0.6,0.9-1,1.9-1.4,2.9
			c-0.3,0.6-0.9,1.5-2.1,2c-0.2,0.1-0.5,0.2-0.7,0.2c-0.9,0.2-1.8,0.2-2.7,0.1c-0.3,0-0.7-0.1-0.9-0.2c0.2-0.2,0.3-0.5,0.5-0.7
			c0.2-0.2,0.3-0.5,0.5-0.7c0.3-0.5,0.7-1.1,0.9-1.6c0.2-0.6,0.5-1.1,0.7-1.7c0.1-0.3,0.2-0.6,0.3-0.9c0.1-0.3,0.2-0.6,0.2-0.9
			c0-0.2,0.1-0.3,0.1-0.5c0-0.2,0-0.3,0-0.6v0.6v-0.1v-0.1h-0.1v-0.1V205c0-0.1,0-0.2-0.1-0.2c0-0.1,0-0.2-0.1-0.5l-0.2-0.6
			c-0.1-0.2-0.2-0.3-0.2-0.6c-0.1-0.2-0.2-0.3-0.3-0.6c-0.2-0.3-0.5-0.7-0.8-1c-0.3-0.2-0.7-0.5-1.2-0.7s-0.9-0.3-1.3-0.3
			c-0.4-0.1-0.8-0.1-1.3-0.1c-0.8,0.1-1.6,0.2-2.3,0.7c-0.2,0.1-0.3,0.2-0.6,0.2c-0.2,0.1-0.3,0.2-0.5,0.3c-0.1,0.1-0.2,0.1-0.2,0.2
			c-0.1,0.1-0.2,0.1-0.2,0.2c-0.1,0.1-0.1,0.1-0.2,0.1c0,0-0.1,0.1-0.2,0.1v0.1l-0.1,0.1l-0.1,0.1c-0.6,0.5-1.1,1.2-1.5,2
			c-0.4,0.8-0.7,1.6-0.7,2.4c0,0.2-0.1,0.4-0.1,0.6c0,0.2,0,0.4,0,0.6c0,0.2,0,0.4,0,0.6s0,0.4,0.1,0.6c0,0.2,0.1,0.4,0.1,0.6
			s0.1,0.4,0.2,0.6c0.1,0.2,0.2,0.3,0.2,0.6c0.1,0.2,0.2,0.3,0.2,0.5c0.1,0.3,0.2,0.7,0.5,1c0.2,0.3,0.3,0.7,0.7,1
			c0.4,0.5,0.8,1,1.2,1.4l0,0c0,0,1,0.8-0.2,2l0,0l-2.6,2.2c-0.1,0.1-0.1,0.1-0.2,0.2c-0.7,0.5-0.9-0.5-1-1l-2.7-16.5
			c-0.1-0.7-0.5-1.3-1.1-1.8c-0.6-0.4-1.3-0.6-2.1-0.5c-0.7,0.2-1.3,0.5-1.8,1.2c-0.4,0.6-0.6,1.2-0.5,2l0.6,1.3
			c-0.1,1.3-0.4,2.6-0.8,4c-0.4,1.3-0.8,2.5-1.3,3.6c-0.4,1.1-0.8,1.9-1.2,2.6c-0.3,0.7-0.6,1-0.6,1s0,0,0,0.1
			c0,0.1-0.1,0.1-0.1,0.2c-0.2,0.3-0.3,0.7-0.6,0.9c-0.2,0.3-0.4,0.6-0.6,0.9c-0.7,1.1-1.4,2.1-2.3,3.2c-0.1,0.1-0.2,0.2-0.2,0.3
			c-0.2,0.2-0.2,0.2-0.3,0.3c-0.1,0.1-0.1,0.1-0.2,0.2c-6,6.4-4.4-3.5-4.4-3.5c0-0.2,0.1-0.3,0.1-0.5c0.1-0.3,0.2-0.7,0.2-1
			c0.1-0.3,0.2-0.7,0.2-1c0.5-1.3,1.1-2.6,1.7-3.6c0.2-0.2,0.3-0.5,0.5-0.8c0.2-0.2,0.3-0.5,0.6-0.7c0.4-0.5,0.8-0.8,1.2-1.2
			c0.4-0.3,0.7-0.7,0.9-1.3c0.2-0.5,0.2-1.1,0.1-1.7c-0.2-0.8-0.6-1.4-1.3-1.9c-0.7-0.4-1.4-0.6-2.2-0.4l-1.1,0.2
			c-0.4,0.1-0.7,0.2-1.1,0.3c-0.3,0.1-0.7,0.2-1.1,0.3c-0.3,0.1-0.7,0.2-1.1,0.3c-0.3,0.1-0.7,0.2-1.1,0.2c-1.4,0.3-2.8,0.6-4.1,0.6
			h-0.9c0.1-0.3,0.1-0.5,0.2-0.7c0-0.1,0.1-0.2,0.1-0.3s0-0.2,0.1-0.3c0-0.1,0-0.2,0-0.3c0-0.1,0-0.2,0-0.4c0-0.1,0-0.2,0-0.3
			c0-0.1,0-0.2,0-0.4c0-0.1-0.1-0.2-0.1-0.3s-0.1-0.2-0.1-0.3c-0.1-0.2-0.1-0.2-0.2-0.4c-0.1-0.1-0.1-0.2-0.2-0.3
			c-0.1-0.1-0.2-0.2-0.2-0.3c-0.1-0.1-0.2-0.2-0.3-0.3c-0.2-0.1-0.2-0.2-0.4-0.2c-0.1-0.1-0.2-0.1-0.4-0.2c-0.2-0.1-0.2-0.1-0.4-0.1
			c-0.1,0-0.2,0-0.3-0.1c-0.2,0-0.2-0.1-0.4-0.1c-0.1,0-0.2,0-0.3,0h-0.1h-0.1h-0.1h-0.2h-0.4c-0.2,0.1-0.6,0.1-0.8,0.2
			c-0.2,0.1-0.6,0.2-0.8,0.3c-0.2,0.1-0.2,0.2-0.4,0.2c-0.1,0.1-0.2,0.2-0.3,0.3c-0.1,0.1-0.1,0.1-0.2,0.2c-0.1,0.1-0.1,0.1-0.2,0.2
			c-0.1,0.2-0.2,0.3-0.3,0.4c-0.3,0.6-0.6,1.2-0.7,1.9c-0.1,0.7-0.1,1.3,0.2,1.9c0.2,0.6,0.4,1.2,0.8,1.7c0.3,0.5,0.7,0.9,1.2,1.3
			c0.2,0.2,0.3,0.2,0.5,0.4l0,0c0,0,1.7,1.3,0.6,3.1c0,0-1.2,2.2-3.6,4.4c-0.2,0.2-0.5,0.4-0.7,0.6c-0.6,0.4-1.1,0.8-1.7,1.2
			c-0.7,0.5-1.3,0.9-2.1,1.2c-0.3,0.2-0.7,0.3-1,0.6c-0.3,0.2-0.7,0.3-1.1,0.5c-0.3,0.2-0.7,0.3-1.1,0.4c-0.3,0.1-0.7,0.2-1.1,0.3
			c-0.7,0.2-1.4,0.2-2.1,0.2c-0.3,0.1-0.7,0.1-1,0c-0.2,0-0.3,0-0.5,0s-0.3,0-0.5,0c-0.3-0.1-0.7-0.1-0.9-0.2
			c-0.2-0.1-0.5-0.1-0.7-0.2s-0.5-0.2-0.7-0.2c-0.2-0.1-0.3-0.2-0.5-0.3c-0.2-0.1-0.3-0.2-0.5-0.3c-0.2-0.1-0.3-0.2-0.4-0.5
			c-0.3-0.3-0.6-0.8-0.8-1.3c-0.1-0.2-0.2-0.6-0.3-0.9c0-0.1-0.1-0.2-0.1-0.2c-0.1-0.5-0.2-1.2,0.3-1.6c0.5-0.3,1.3,0.2,1.3,0.2l0,0
			c0.9,0.6,1.8,0.8,1.8,0.8l0,0c0.1,0,0.2,0.1,0.2,0.1s0.2,0.1,0.4,0.1l0.8,0.2c1,0.1,2.1,0,3.1-0.2c0.5-0.1,1-0.2,1.4-0.4
			c0.2-0.1,0.3-0.1,0.3-0.2c0,0,0.1,0,0.1-0.1l0.2-0.1c0.1-0.1,0.2-0.1,0.2-0.1c0.3-0.2,0.6-0.3,0.8-0.6c0.5-0.3,1-0.7,1.3-1.2
			c0.4-0.4,0.7-0.8,1.1-1.3c0.3-0.4,0.6-0.9,0.8-1.4c0.2-0.5,0.4-1,0.6-1.5c0.1-0.2,0.2-0.5,0.2-0.7c0.1-0.2,0.2-0.5,0.2-0.8
			c0.1-0.6,0.2-1.1,0.2-1.7c0-0.6,0-1.2-0.2-1.8c-0.1-0.6-0.3-1.2-0.7-1.8c-0.3-0.7-0.7-1.2-1.2-1.7s-1.1-0.9-1.7-1.2
			c-0.3-0.2-0.7-0.2-1-0.3c-0.3-0.1-0.7-0.1-0.9-0.2c-0.3-0.1-0.6-0.1-0.9-0.1c-0.2,0-0.6,0.1-0.8,0.1c-0.2,0.1-0.5,0.1-0.8,0.2
			c-0.2,0.1-0.5,0.2-0.7,0.2c-0.6,0.2-1,0.4-1.4,0.6c-0.4,0.2-0.9,0.4-1.2,0.7c-0.4,0.2-0.8,0.6-1.2,0.8c-0.2,0.2-0.3,0.3-0.5,0.4
			c-0.2,0.2-0.3,0.2-0.6,0.4c-0.2,0.2-0.3,0.3-0.5,0.5s-0.3,0.3-0.5,0.5c-0.3,0.3-0.7,0.7-0.9,1c-0.2,0.3-0.6,0.7-0.8,1.1
			c-0.2,0.3-0.5,0.7-0.7,1.1c-0.2,0.4-0.5,0.7-0.7,1.2c-0.4,0.7-0.7,1.4-1.1,2.1l0,0c-1.9,4.2-6.9,7.4-8.8,8.6
			c-0.1,0-0.1,0.1-0.2,0.1c-0.2,0.1-0.2,0.2-0.3,0.2c-0.1,0.1-0.2,0.1-0.2,0.1l0,0c-0.1,0.1-0.2,0.1-0.3,0.2
			c-0.2,0.1-0.3,0.1-0.4,0.2c-0.2,0.1-0.3,0.1-0.4,0.2c-0.6,0.2-1.2,0.4-1.8,0.6s-1.2,0.3-1.8,0.4c-0.2,0-0.2,0.1-0.4,0.1
			c-0.2,0-0.2,0-0.4,0.1h-0.8h-0.7h-0.1h-0.1h-0.1h-0.1H380l-0.1-0.1h-0.3c-0.2-0.1-0.5-0.1-0.7-0.2c-0.2-0.1-0.4-0.1-0.6-0.2
			c-0.3-0.1-0.7-0.2-0.9-0.4c-0.2-0.2-0.6-0.4-0.8-0.7c-0.1-0.2-0.2-0.3-0.3-0.5c-0.1-0.2-0.2-0.3-0.3-0.6c-0.2-0.4-0.4-0.9-0.6-1.4
			c-0.2-0.5-0.2-1.1-0.3-1.7s-0.1-1.2-0.1-1.8c0-0.6,0-1.2,0.1-1.8c0.1-0.7,0.2-1.2,0.4-1.8c0.2-0.6,0.4-1.2,0.7-1.8
			c0.5-1.2,1.2-2.2,2.1-3.1c0.1-0.1,0.2-0.2,0.3-0.3c0.1-0.1,0.2-0.2,0.3-0.2c0.2-0.1,0.2-0.2,0.4-0.3c0.1-0.1,0.2-0.2,0.3-0.2
			c0.2-0.1,0.3-0.2,0.4-0.2c0.2-0.1,0.2-0.1,0.4-0.2c0.2-0.1,0.2-0.1,0.4-0.2c0.1,0,0.2-0.1,0.4-0.1c0.6-0.1,1.2,0,1.7,0.2h0.1v0.1
			h0.1h0.1c0,0,0.1,0,0.2,0c0.1,0,0.2,0.1,0.3,0.2c0.1,0.1,0.2,0.1,0.2,0.2c0.1,0.1,0.2,0.1,0.2,0.2c0.2,0.2,0.3,0.5,0.4,0.7
			c0.1,0.3,0.2,0.7,0.2,1c0,0.4-0.1,0.7-0.2,1.2c-0.1,0.4-0.2,0.7-0.3,1.2c-0.2,0.3-0.3,0.6-0.6,0.8l-0.2,0.2c0,0-0.1,0-0.2,0.1
			l-0.1,0.1l-0.1,0.1l0,0c-0.7,0.4-1.2,0.9-1.4,1.7s-0.2,1.5-0.1,2.2c0.3,0.8,0.9,1.4,1.7,1.8s1.6,0.4,2.4,0.1l0.1-0.1h0.1l0.2-0.1
			l0.1-0.1c0,0,0.1,0,0.1-0.1c0.1,0,0.2-0.1,0.4-0.2c0.2-0.2,0.5-0.3,0.7-0.4c0.5-0.4,0.9-0.7,1.2-1.2c0.7-0.8,1.2-1.7,1.6-2.7
			s0.5-1.9,0.6-2.9c0-0.5,0-1-0.1-1.5c-0.1-0.5-0.2-1-0.3-1.5c-0.1-0.2-0.2-0.5-0.2-0.7c-0.1-0.2-0.2-0.5-0.3-0.7
			c-0.2-0.2-0.3-0.5-0.4-0.7c-0.2-0.2-0.3-0.4-0.5-0.7c-0.2-0.2-0.4-0.4-0.7-0.6c-0.2-0.2-0.4-0.3-0.7-0.5c-0.2-0.1-0.2-0.2-0.3-0.2
			c-0.1-0.1-0.2-0.2-0.4-0.2c-0.1-0.1-0.2-0.1-0.3-0.2c-0.1,0-0.2-0.1-0.4-0.2c-0.2-0.1-0.6-0.1-0.8-0.2c-0.2-0.1-0.5-0.1-0.8-0.1
			c-0.1,0-0.2,0-0.3,0s-0.2,0-0.3,0s-0.1,0-0.2,0c-0.1,0-0.1,0-0.2,0h-0.1l0,0l0,0l-0.1,0.1h-0.1H383c-0.9,0.2-1.7,0.4-2.5,0.8
			c-0.7,0.3-1.4,0.7-2.1,1.2c-0.3,0.2-0.7,0.5-0.9,0.7c-0.3,0.2-0.7,0.5-0.9,0.7c-0.3,0.2-0.6,0.5-0.8,0.7c-0.2,0.2-0.5,0.6-0.7,0.8
			c-0.2,0.3-0.5,0.6-0.7,0.9c-0.2,0.3-0.5,0.6-0.7,0.9c-0.8,1.2-1.6,2.6-2.1,4.1c-0.2,0.3-0.2,0.7-0.4,1.1c-0.2,0.3-0.2,0.7-0.3,1.2
			c-0.1,0.2-0.1,0.3-0.2,0.6c-0.1,0.2-0.1,0.4-0.2,0.6c0,0.2-0.1,0.3-0.1,0.6c0,0.2-0.1,0.4-0.1,0.6c-0.2,0.8-0.2,1.7-0.2,2.6
			c0,0.4,0.1,0.8,0.2,1.3c0.1,0.5,0.2,0.9,0.3,1.3c0.2,0.4,0.3,0.9,0.5,1.3c0.2,0.4,0.4,0.9,0.7,1.3c0.6,0.9,1.2,1.7,2.1,2.2
			c0.4,0.3,0.9,0.6,1.3,0.8c0.6,0.2,1,0.4,1.4,0.6c0.5,0.2,1,0.2,1.4,0.3c0.5,0.1,0.9,0.1,1.4,0.1h0.7l0.1-0.1h0.1h0.1l0,0h0.1h0.2
			c0,0,0.1-0.1,0.2-0.1c0.2,0,0.4-0.1,0.7-0.1s0.4-0.1,0.7-0.2c0.2-0.1,0.4-0.1,0.6-0.2c0.2-0.1,0.4-0.1,0.6-0.2
			c0.2-0.1,0.4-0.2,0.6-0.2c0.2-0.1,0.4-0.2,0.6-0.2c0.4-0.2,0.7-0.3,1.1-0.5c0.3-0.2,0.7-0.4,1-0.6c0.2-0.1,0.3-0.2,0.5-0.3
			c0.2-0.1,0.3-0.2,0.5-0.3c0.1-0.1,0.2-0.1,0.2-0.2c0.1-0.1,0.2-0.1,0.2-0.2c0.1-0.1,0.2-0.1,0.2-0.2c0.1-0.1,0.2-0.1,0.2-0.2
			c0.2-0.2,0.3-0.2,0.4-0.3c0.2-0.1,0.3-0.2,0.4-0.3c0.2-0.1,0.3-0.2,0.4-0.3c0.2-0.1,0.2-0.2,0.4-0.3c0.3-0.2,0.6-0.5,0.8-0.7
			c0.2-0.2,0.6-0.5,0.8-0.7c0.6-0.6,1.2-1.2,1.7-1.8l0,0c0,0,1.9-2.1,2-1c0,0.5,0.1,1,0.2,1.6s0.2,1.1,0.4,1.7
			c0.1,0.2,0.2,0.6,0.3,0.8c0.1,0.2,0.2,0.5,0.4,0.7c0.2,0.2,0.3,0.5,0.5,0.7s0.4,0.5,0.6,0.7c0.4,0.5,0.9,0.9,1.4,1.2
			c0.2,0.2,0.6,0.3,0.8,0.5c0.2,0.2,0.6,0.2,0.8,0.4c0.6,0.2,1.1,0.4,1.7,0.6c0.5,0.1,1.1,0.2,1.7,0.2c0.2,0,0.6,0,0.8,0
			c0.2,0,0.5,0,0.7-0.1c0.2-0.1,0.5-0.1,0.8-0.2c0.2-0.1,0.5-0.1,0.7-0.2c0.2-0.1,0.5-0.2,0.7-0.2s0.5-0.2,0.7-0.2
			c0.8-0.3,1.7-0.7,2.6-1.3c0.8-0.4,1.6-0.9,2.3-1.5c0.4-0.2,0.7-0.5,1.1-0.8c0.3-0.2,0.7-0.6,1-0.8c0.7-0.6,1.3-1.2,1.9-1.8
			c0.6-0.6,1.2-1.2,1.7-1.9c0.2-0.3,0.6-0.7,0.8-1c0.2-0.3,0.6-0.7,0.8-1c0.9-1.2,1.7-2.4,2.1-3.1l0,0c1.6-2.6,3.4-2.2,3.4-2.2l0,0
			c0.1,0,0.2,0.1,0.3,0.1c0.8,0.2,1.7,0.2,2.4,0.2l0,0c0,0,2.2-0.2,1.9,2.7c-0.2,1.3-0.2,2.6-0.2,4l0,0c0,0-0.5,7.1,3.9,7.9
			c4,0.8,8.8-6.4,11.4-13.7c0,0,1.3-4.1,1.9-2l2.4,14.6v0.1c0.1,0.2,0.2,0.5,0.2,0.7c0.1,0.2,0.2,0.4,0.4,0.6c0.5,0.6,1.2,0.9,1.9,1
			c0.1,0,0.2,0,0.3,0l0,0c1.5,0.1,2.2-1,2.2-1l5.7-7.6c1-1.2,2-1.2,2.2-1.2h0.1c0.1,0,0.1,0,0.2,0c0.2,0,0.4,0,0.6,0.1
			c0.2,0,0.3,0.1,0.6,0.1c0.2,0,0.3,0,0.6,0c0.4,0,0.7-0.1,1.2-0.1c0.3-0.1,0.7-0.2,1.1-0.2c0.1,0,0.2-0.1,0.3-0.1l0,0l0,0
			c0.2-0.1,0.3-0.2,0.5-0.2c0.7-0.2,1.6-0.5,1.5,0.2l0,0c0,0.4,0,0.9,0,1.3c0,0.5,0.1,1,0.2,1.6c0.1,0.6,0.2,1.1,0.4,1.7
			c0.1,0.2,0.2,0.6,0.3,0.8c0.1,0.2,0.2,0.5,0.4,0.7s0.3,0.5,0.5,0.7s0.4,0.5,0.6,0.7c0.4,0.5,0.9,0.9,1.4,1.2
			c0.2,0.2,0.6,0.3,0.8,0.5c0.2,0.2,0.6,0.2,0.8,0.4c0.6,0.2,1.1,0.4,1.7,0.6c0.5,0.1,1.1,0.2,1.7,0.2c0.2,0,0.6,0,0.8,0
			c0.2,0,0.5,0,0.7-0.1c0.2-0.1,0.5-0.1,0.8-0.2c0.2-0.1,0.5-0.1,0.7-0.2c0.2-0.1,0.5-0.2,0.7-0.2c0.2-0.1,0.5-0.2,0.7-0.2
			c0.8-0.3,1.7-0.7,2.6-1.3c0.8-0.4,1.6-0.9,2.3-1.5c0.4-0.2,0.7-0.5,1.1-0.8c0.3-0.2,0.7-0.6,1-0.8c0.7-0.6,1.3-1.2,1.9-1.8
			c0.6-0.6,1.2-1.2,1.7-1.9c0.1-0.1,0.2-0.2,0.2-0.3c0.5-0.6,1.5-1.5,1.5,0l0,0c0,0.1,0,0.1,0,0.2c0,0.4,0.1,0.8,0.2,1.3
			c0.1,0.5,0.2,0.9,0.3,1.3c0.2,0.4,0.3,0.9,0.5,1.3s0.4,0.9,0.7,1.3c0.6,0.9,1.2,1.7,2.1,2.2c0.4,0.3,0.9,0.6,1.3,0.8
			c0.6,0.2,1,0.4,1.5,0.6c0.5,0.2,1,0.2,1.4,0.3c0.5,0.1,0.9,0.1,1.4,0.1h0.7l0.1-0.1h0.1l0,0h0.1h0.1h0.2c0,0,0.1-0.1,0.2-0.1
			c0.2,0,0.4-0.1,0.7-0.1c0.2,0,0.4-0.1,0.7-0.2c0.2-0.1,0.4-0.1,0.6-0.2c0.2-0.1,0.4-0.1,0.6-0.2c0.2-0.1,0.4-0.2,0.6-0.2
			c0.2-0.1,0.4-0.2,0.6-0.2c0.4-0.2,0.7-0.3,1.1-0.5c0.3-0.2,0.7-0.4,1-0.6c0.2-0.1,0.3-0.2,0.5-0.3c0.2-0.1,0.3-0.2,0.5-0.3
			c0.1-0.1,0.2-0.1,0.2-0.2c0.1-0.1,0.2-0.1,0.2-0.2c0.1-0.1,0.2-0.1,0.2-0.2c0.1-0.1,0.2-0.1,0.2-0.2c0.2-0.2,0.3-0.2,0.4-0.3
			c0.2-0.1,0.3-0.2,0.4-0.3c0.2-0.1,0.3-0.2,0.4-0.3c0.2-0.1,0.2-0.2,0.4-0.3c0.3-0.2,0.6-0.5,0.8-0.7c0.2-0.2,0.6-0.5,0.8-0.7
			c0.7-0.7,1.4-1.4,2.1-2.1l0,0l0,0c0.1-0.2,0.2-0.2,0.3-0.4c0.4-0.5,1.2-1.1,1.3-0.1c0,0.5,0.1,1,0.2,1.4c0.1,0.6,0.2,1.1,0.4,1.7
			c0.1,0.2,0.2,0.6,0.3,0.8c0.1,0.2,0.2,0.5,0.4,0.7c0.2,0.2,0.3,0.5,0.5,0.7c0.2,0.2,0.4,0.5,0.6,0.7c0.4,0.5,0.9,0.9,1.4,1.2
			c0.2,0.2,0.6,0.3,0.8,0.5s0.6,0.2,0.8,0.4c0.6,0.2,1.1,0.4,1.7,0.6c0.5,0.1,1.1,0.2,1.7,0.2c0.2,0,0.6,0,0.8,0
			c0.2,0,0.5,0,0.7-0.1s0.5-0.1,0.8-0.2c0.2-0.1,0.5-0.1,0.7-0.2c0.2-0.1,0.5-0.2,0.7-0.2c0.2-0.1,0.5-0.2,0.7-0.2
			c0.8-0.3,1.7-0.7,2.6-1.3c0.8-0.4,1.6-0.9,2.3-1.5c0.4-0.2,0.7-0.5,1.1-0.8c0.3-0.2,0.7-0.6,1-0.8c0.7-0.6,1.3-1.2,1.9-1.8
			c0.6-0.6,1.2-1.2,1.7-1.9c0.2-0.3,0.5-0.7,0.8-1c0.2-0.3,0.6-0.7,0.8-1l0,0c0.9-1.2,1.6-2.3,2.1-3.1l0,0c1.4-2.4,3-2.3,3.3-2.2
			c0.2,0,0.2,0.1,0.4,0.1c0.8,0.2,1.7,0.2,2.4,0.2l0,0c0,0,2.1-0.1,1.9,2.6c0,0.1,0,0.1,0,0.2c-0.2,1.3-0.2,2.6-0.2,4l0,0
			c0,0-0.5,7.1,3.9,7.9c2.9,0.6,6.2-3.1,8.8-7.9c0,0.2,0,0.5,0,0.7s0,0.6,0.1,0.9c0.1,0.7,0.2,1.2,0.4,1.8c0.1,0.3,0.2,0.7,0.3,0.9
			c0.1,0.2,0.2,0.6,0.4,0.9c0.3,0.7,0.7,1.2,1.3,1.7c0.2,0.2,0.6,0.5,0.8,0.7c0.3,0.2,0.6,0.4,0.9,0.6c0.7,0.2,1.3,0.4,2,0.5
			c0.2,0,0.3,0.1,0.5,0.1c0.2,0,0.3,0,0.5,0.1c0.2,0,0.3,0,0.4-0.1h0.1h0.1h0.2h0.2c0.2,0,0.3-0.1,0.4-0.1c0.2,0,0.3,0,0.4-0.1
			c0.2,0,0.3-0.1,0.4-0.1c0.2,0,0.2-0.1,0.4-0.1c0.3-0.1,0.7-0.2,0.8-0.3c0.2-0.1,0.2-0.1,0.4-0.2c0.1-0.1,0.2-0.1,0.4-0.2
			c0.2-0.2,0.5-0.3,0.7-0.4c0.2-0.2,0.5-0.3,0.7-0.4c0.4-0.3,0.9-0.7,1.2-1.1c0.4-0.3,0.8-0.7,1.2-1.2c0.7-0.7,1.2-1.6,1.8-2.5
			l0.7-1.1h0.2c0.7,0,1.2-0.1,1.8-0.2c0.6-0.1,1.1-0.3,1.7-0.7c0.2-0.2,0.5-0.3,0.7-0.4c0.2-0.2,0.4-0.3,0.7-0.4
			c0.4-0.3,0.8-0.7,1.2-1.1c0.3-0.3,0.7-0.7,1.1-1.2c0.3-0.3,0.7-0.7,0.9-1.2c0.2-0.2,0.3-0.4,0.4-0.6c0.2-0.2,0.3-0.4,0.4-0.6
			C598.3,212.4,598.2,212.1,598,211.9z M401.5,208.8c0.2-0.3,0.3-0.7,0.5-1.1c0.3-0.7,0.7-1.2,1.3-1.9c0.2-0.2,0.5-0.5,0.7-0.7
			c0.2-0.2,0.5-0.5,0.9-0.7c0.7-0.4,1.3-0.7,2-0.7c0.3-0.1,0.7-0.1,1,0c0.2,0,0.3,0.1,0.5,0.1s0.3,0.1,0.5,0.1
			c0.3,0.1,0.6,0.2,0.7,0.3c0.1,0.1,0.2,0.2,0.2,0.2c0.1,0.1,0.1,0.2,0.2,0.2c0.1,0.2,0.2,0.2,0.2,0.3c0,0.1,0.1,0.2,0.1,0.2
			c0,0.1,0,0.2,0.1,0.2c0,0.1,0,0.2,0,0.2c0,0.1,0,0.2,0,0.3c0,0.1,0,0.2,0,0.3s0,0.2,0,0.4s0,0.2,0,0.4c0,0.1,0,0.2-0.1,0.4
			c0,0.2,0,0.3-0.1,0.4c0,0.2-0.1,0.2-0.1,0.4c-0.1,0.3-0.2,0.6-0.2,0.9c-0.1,0.2-0.2,0.6-0.3,0.8c-0.1,0.3-0.2,0.6-0.4,0.7
			c-0.1,0.1-0.2,0.2-0.2,0.3c-0.1,0.1-0.2,0.2-0.2,0.2c-0.1,0.1-0.1,0.1-0.1,0.2l-0.1,0.1l-0.1,0.1l-0.1,0.1l-0.1,0.1
			c0,0-0.1,0-0.1,0.1c-0.2,0.1-0.3,0.2-0.4,0.2c-0.2,0.1-0.2,0.2-0.4,0.2c-0.3,0.2-0.6,0.2-0.9,0.4c-0.2,0.1-0.6,0.2-0.9,0.3
			c-0.6,0.2-1.2,0.2-1.9,0.2c-0.1,0-0.2-0.1-0.2-0.1c-2.5-0.6-2.6-2.1-2.5-3.1c0-0.1,0.1-0.2,0.1-0.2
			C401.3,209.5,401.4,209.2,401.5,208.8z M422.6,202.4c0-0.1,0.1-0.2,0.2-0.3c0.1-0.2,0.3-0.3,0.7-0.5h0.1c0,0,0.1,0,0.2,0l0.1-0.1
			h0.1h0.1h0.1v-0.1c0.1,0,0.2,0,0.2,0s0.2,0,0.2,0c0.3,0,0.7,0.1,0.8,0.2c0.1,0,0.2,0.1,0.2,0.2c0.1,0.1,0.2,0.2,0.2,0.3
			c0.1,0.2,0.2,0.6,0.2,1c0,0.1,0,0.2,0,0.3c0,0.1,0,0.2-0.1,0.3c0,0.1,0,0.2,0,0.2c0,0.1,0,0.2,0,0.3c0,0.1-0.1,0.3-0.2,0.7
			c-0.2-0.1-0.5-0.2-0.7-0.2c-0.2-0.1-0.4-0.2-0.6-0.3c-0.1-0.1-0.2-0.1-0.3-0.2c-0.1-0.1-0.2-0.1-0.3-0.2l-0.6-0.4
			c-0.2-0.2-0.2-0.3-0.4-0.5c-0.1-0.2-0.2-0.3-0.2-0.6C422.5,202.6,422.5,202.5,422.6,202.4z M436.6,223.2
			C436.6,223.2,436.6,223.2,436.6,223.2l1.1-0.7c-0.2,0.2-0.5,0.3-0.7,0.4C436.9,223,436.7,223.1,436.6,223.2z M464.8,211
			c-0.2,0.2-0.3,0.5-0.6,0.7c-0.2,0.2-0.3,0.5-0.6,0.7c-0.5-0.4-1-0.9-1.3-1.6l-0.2-0.6c-0.1-0.1-0.1-0.2-0.1-0.3
			c0-0.1-0.1-0.2-0.1-0.2l-0.2-0.6c0-0.1,0-0.2,0-0.2s0-0.2-0.1-0.2v-0.6c0-0.1,0-0.2,0.1-0.2v-0.2c0.1-0.2,0.1-0.3,0.2-0.5
			c0.1-0.2,0.1-0.3,0.2-0.5c0.2-0.3,0.3-0.7,0.6-0.9v-0.1h0.1v-0.1c0.1-0.1,0.1-0.1,0.1-0.2l0.2-0.2c0.1-0.1,0.2-0.2,0.3-0.4
			c0.2-0.2,0.5-0.4,0.8-0.7c0.3-0.2,0.6-0.2,0.8-0.2c0.2,0,0.3,0,0.4,0.1c0.1,0,0.2,0.1,0.4,0.2c0.1,0.1,0.2,0.2,0.3,0.4
			c0.1,0.1,0.1,0.2,0.2,0.3c0.1,0.1,0.1,0.2,0.2,0.3v0.1c0,0,0,0,0,0.1v0.1l0.1,0.1v0.1v0.1c0,0.1,0.1,0.1,0.1,0.2
			c0,0.1,0,0.1,0.1,0.2c0,0.2,0,0.4,0,0.7c0,0.4-0.1,0.9-0.3,1.5c-0.1,0.1-0.1,0.2-0.2,0.3c-0.1,0.1-0.1,0.2-0.2,0.3
			c-0.1,0.2-0.1,0.2-0.2,0.4c-0.1,0.1-0.1,0.2-0.2,0.3C465.5,210,465.2,210.5,464.8,211z M476.4,208.8c0.2-0.3,0.3-0.7,0.5-1.1
			c0.3-0.7,0.7-1.2,1.3-1.9c0.2-0.2,0.5-0.5,0.7-0.7s0.6-0.5,0.9-0.7c0.7-0.4,1.3-0.7,2-0.7c0.3-0.1,0.7-0.1,1,0
			c0.2,0,0.3,0.1,0.5,0.1s0.3,0.1,0.5,0.1c0.3,0.1,0.6,0.2,0.7,0.3c0.1,0.1,0.2,0.2,0.2,0.2c0.1,0.1,0.1,0.2,0.2,0.2
			c0.1,0.2,0.2,0.2,0.2,0.3c0,0.1,0.1,0.2,0.1,0.2c0,0.1,0,0.2,0.1,0.2c0,0.1,0,0.2,0,0.2c0,0.1,0,0.2,0,0.3c0,0.1,0,0.2,0,0.3
			s0,0.2,0,0.4s0,0.2,0,0.4c0,0.1,0,0.2-0.1,0.4c0,0.2,0,0.3-0.1,0.4c0,0.2-0.1,0.2-0.1,0.4c-0.1,0.3-0.2,0.6-0.2,0.9
			c-0.1,0.2-0.2,0.6-0.3,0.8c-0.1,0.3-0.2,0.6-0.4,0.7c-0.1,0.1-0.2,0.2-0.2,0.3c-0.1,0.1-0.2,0.2-0.2,0.2c-0.1,0.1-0.1,0.1-0.1,0.2
			l-0.1,0.1l-0.1,0.1l-0.1,0.1l-0.1,0.1c0,0-0.1,0-0.1,0.1c-0.2,0.1-0.3,0.2-0.4,0.2c-0.2,0.1-0.2,0.2-0.4,0.2
			c-0.3,0.2-0.6,0.2-0.9,0.4c-0.2,0.1-0.6,0.2-0.9,0.3c-0.6,0.2-1.2,0.2-1.9,0.2c-0.1,0-0.2-0.1-0.2-0.1l0,0
			c-2.6-0.6-2.7-2.1-2.5-3.2c0-0.1,0-0.1,0.1-0.2c0.1-0.2,0.2-0.4,0.2-0.7c0-0.1,0-0.1,0-0.1l0,0C476.3,209,476.4,209,476.4,208.8z
			 M528,208.8c0.2-0.3,0.3-0.7,0.5-1.1c0.3-0.7,0.7-1.2,1.3-1.9c0.2-0.2,0.5-0.5,0.7-0.7s0.6-0.5,0.9-0.7c0.7-0.4,1.3-0.7,2-0.7
			c0.3-0.1,0.7-0.1,1,0c0.2,0,0.3,0.1,0.5,0.1c0.2,0,0.3,0.1,0.5,0.1c0.3,0.1,0.6,0.2,0.7,0.3c0.1,0.1,0.2,0.2,0.2,0.2
			c0.1,0.1,0.2,0.2,0.2,0.2c0.1,0.2,0.2,0.2,0.2,0.3c0,0.1,0,0.2,0,0.2c0,0.1,0,0.2,0.1,0.2c0,0.1,0,0.2,0,0.2c0,0.1,0,0.2,0,0.3
			c0,0.1,0,0.2,0,0.3s0,0.2,0,0.4s0,0.2,0,0.4c0,0.1,0,0.2-0.1,0.4c0,0.2,0,0.3-0.1,0.4c0,0.2-0.1,0.2-0.1,0.4
			c-0.1,0.3-0.2,0.6-0.2,0.9c-0.1,0.2-0.2,0.6-0.3,0.8c-0.1,0.3-0.2,0.6-0.4,0.7c-0.1,0.1-0.2,0.2-0.2,0.3c-0.1,0.1-0.2,0.2-0.2,0.2
			c-0.1,0.1-0.1,0.1-0.1,0.2l-0.1,0.1v0.1l-0.1,0.1l-0.1,0.1c0,0-0.1,0-0.1,0.1c-0.2,0.1-0.3,0.2-0.4,0.2c-0.2,0.1-0.2,0.2-0.4,0.2
			c-0.3,0.2-0.6,0.2-0.9,0.4c-0.2,0.1-0.6,0.2-0.9,0.3c-0.6,0.2-1.2,0.2-1.9,0.2c-0.1,0-0.2-0.1-0.2-0.1l0,0
			c-3.9-0.8-2.1-4.1-2.1-4.1l-0.1,0.1C527.9,209.1,527.9,209,528,208.8z M549.1,202.4c0-0.1,0.1-0.2,0.2-0.3
			c0.1-0.2,0.3-0.3,0.7-0.5h0.1c0,0,0.1,0,0.2,0l0.1-0.1l0,0h0.1h0.1v-0.1c0.1,0,0.2,0,0.2,0c0.1,0,0.2,0,0.2,0
			c0.3,0,0.7,0.1,0.8,0.2c0.1,0,0.2,0.1,0.2,0.2c0.1,0.1,0.2,0.2,0.2,0.3c0.1,0.2,0.2,0.6,0.2,1c0,0.1,0,0.2,0,0.3
			c0,0.1,0,0.2-0.1,0.3c0,0.1,0,0.2,0,0.2c0,0.1,0,0.2,0,0.3c0,0.1-0.1,0.3-0.2,0.7c-0.2-0.1-0.5-0.2-0.7-0.2
			c-0.2-0.1-0.4-0.2-0.6-0.3c-0.1-0.1-0.2-0.1-0.3-0.2c-0.1-0.1-0.2-0.1-0.3-0.2l-0.6-0.4c-0.2-0.2-0.2-0.3-0.4-0.5
			c-0.1-0.2-0.2-0.3-0.2-0.6C549,202.6,549,202.5,549.1,202.4z M561.7,222.5L561.7,222.5c-0.1-0.3-0.2-0.6-0.2-0.7L561.7,222.5z
			 M586.1,218.6c-0.2,0.3-0.6,0.7-0.8,1c-0.2,0.2-0.3,0.3-0.5,0.4c-0.2,0.2-0.3,0.3-0.5,0.4c-0.7,0.5-1.4,1-2.1,1.3
			c-0.7,0.3-1.5,0.6-2.2,0.7c-0.1,0-0.2,0-0.2,0c-0.1,0-0.2,0-0.2,0h-0.6h-0.2h-0.2c-0.1,0-0.2-0.1-0.2-0.1c-0.2,0-0.3,0-0.5-0.1
			c-0.3-0.1-0.6-0.2-0.7-0.3c-0.1-0.1-0.2-0.1-0.3-0.2c-0.1-0.1-0.2-0.2-0.2-0.2c-0.1-0.1-0.1-0.2-0.2-0.3c-0.1-0.1-0.1-0.2-0.2-0.3
			c-0.1-0.3-0.2-0.7-0.2-0.9c-0.1-0.6-0.2-1.3-0.1-2.1c0-0.4,0.1-0.8,0.2-1.2s0.2-0.8,0.2-1.2c0.4-1.7,1.1-3.2,1.9-4.7
			c0.4-0.7,0.8-1.5,1.3-2.1l0.1-0.1c0,0,0-0.1,0.1-0.1v0.6c0,0.7,0.1,1.3,0.2,1.9c0.1,0.6,0.3,1.2,0.6,1.8c0.1,0.2,0.2,0.3,0.2,0.4
			c0.1,0.2,0.2,0.3,0.2,0.4l0.1,0.1c0,0,0,0.1,0.1,0.1v0.1v0.1h0.1v0.2c0.1,0.2,0.2,0.3,0.2,0.3c0.7,1.1,1.5,2,2.4,2.8
			c0.2,0.2,0.5,0.3,0.7,0.5c0.2,0.2,0.6,0.3,0.8,0.5c0.2,0.1,0.2,0.1,0.4,0.2C585.9,218.5,586,218.6,586.1,218.6
			C586.1,218.6,586.1,218.6,586.1,218.6z M590,208.5c-0.1,0.5-0.1,0.9-0.2,1.3s-0.2,0.9-0.2,1.3c-0.1,0.4-0.2,0.9-0.4,1.3
			c-0.2,0.4-0.2,0.8-0.4,1.3c-0.1,0.2-0.2,0.5-0.3,0.7c-0.1,0.2-0.2,0.5-0.3,0.7c-0.1-0.1-0.2-0.1-0.2-0.2c-0.1-0.1-0.2-0.2-0.3-0.3
			c-0.1-0.2-0.2-0.2-0.3-0.4c-0.1-0.1-0.2-0.2-0.3-0.4c-0.4-0.7-0.7-1.3-0.8-1.9c0-0.1-0.1-0.1-0.1-0.2c0,0,0-0.1-0.1-0.2v-0.1v-0.1
			c0,0-0.1,0-0.1-0.1v-0.2c-0.1-0.2-0.1-0.3-0.1-0.4c-0.1-0.2-0.1-0.3-0.1-0.5s0-0.3-0.1-0.5c0-0.2,0-0.3,0-0.5c0-0.2,0-0.3,0-0.5
			s0-0.3,0-0.5s0-0.3,0.1-0.5c0-0.3,0.1-0.7,0.2-0.9c0.1-0.3,0.1-0.6,0.2-0.9c0-0.3,0.2-0.6,0.2-0.9c0-0.1,0.1-0.2,0.1-0.2
			c0-0.1,0.1-0.2,0.1-0.2c0.2-0.2,0.2-0.3,0.2-0.3c0.3-0.6,0.7-0.8,1.3-0.8c0.1,0,0.2-0.1,0.3-0.1c0.1,0,0.1,0,0.2,0h0.1
			c0.1,0,0.2,0.1,0.2,0.2c0.1,0,0.2,0.1,0.2,0.2c0.2,0.2,0.3,0.4,0.4,0.8c0.2,0.3,0.2,0.7,0.2,1.2c0.1,0.4,0.1,0.8,0.1,1.3
			C590.1,207.7,590.1,208.1,590,208.5z"/>
		<g>
			<g>
				<polygon class="st0" points="339.7,156.7 342.1,161.8 347.8,162.7 343.7,166.5 344.6,172.2 339.7,169.5 334.6,172.2 
					335.6,166.5 331.6,162.7 337.2,161.8 				"/>
				<g>
					<path class="st0" d="M343.5,220.2L343.5,220.2L343.5,220.2c-0.2,0-0.3,0-0.4-0.1c-2-0.4-2.5-3.3-2.6-5.2v-2.6
						c0-2.4,1.7-3.2,1.7-3.2h-0.1c4.8-1.8,8.4-8.5,8.4-16.6c0-3-0.5-5.8-1.4-8.3h-19.2c-0.9,2.5-1.4,5.3-1.4,8.3
						c0,8,3.6,14.8,8.4,16.6l0,0c0,0,1.7,0.7,1.7,3.1v1l0,0c0,0,0.4,6.4-2.6,6.9c-0.1,0-0.2,0-0.3,0h-0.1l0,0
						c-2,0.2-3.3,0.7-3.3,1.1c0,0.7,3.3,1.3,7.3,1.3c4.1,0,7.3-0.6,7.3-1.3C346.9,220.8,345.6,220.4,343.5,220.2z"/>
					<path class="st0" d="M349.3,182.3c0.2-0.2,0.2-0.5,0.2-0.8c0-0.8-0.6-1.5-1.4-1.6c-0.2-0.7-0.7-1.2-1.4-1.2
						c-0.2-0.8-0.8-1.4-1.7-1.4c-0.1,0-0.2,0-0.2,0c-0.3-0.7-1.2-1.3-2.1-1.3c-0.4,0-0.8,0.1-1.2,0.3c-0.4-0.6-1.1-0.9-1.8-0.9
						s-1.4,0.3-1.8,0.9c-0.3-0.2-0.7-0.3-1.2-0.3c-0.9,0-1.7,0.6-2.1,1.3c-0.1,0-0.2,0-0.2,0c-0.8,0-1.5,0.6-1.7,1.4
						c-0.7,0.1-1.2,0.6-1.4,1.2c-0.8,0.1-1.4,0.7-1.4,1.6c0,0.3,0.1,0.6,0.2,0.8H349.3z"/>
				</g>
				<path class="st0" d="M367,190.1c0-12-7.7-22.2-18.4-25.9l-2.7,2.7c10.6,2.7,18.4,12.3,18.4,23.8c0,7.8-2.1,14.7-8.5,22.8l0,0
					l-16.1,20.7l-16.1-20.7l0,0c-6.4-8.1-8.5-15-8.5-22.8c0-11.5,7.9-21.1,18.5-23.8l-2.7-2.6c-10.7,3.7-18.4,13.9-18.4,25.9
					c0,8.7,2.3,16.4,9.4,25.4l0,0l17.9,23l17.9-23.1l0,0C364.6,206.5,367,198.8,367,190.1z"/>
				<polygon class="st0" points="339.7,156.7 342.1,161.8 347.8,162.7 343.7,166.5 344.6,172.2 339.7,169.5 334.6,172.2 
					335.6,166.5 331.6,162.7 337.2,161.8 				"/>
			</g>
			<path class="st0" d="M390.4,179.2c0.9-1.2,1.7-1.6,1.7-1.6c-11.7-7.8-23.7,2.1-23.7,2.1v0.1c1.2,3.3,1.9,6.8,1.9,10.3
				c0,4.5-0.7,8.8-2.3,13.2l0,0c0,0,9.5-12.3,22.7-7.4c0,0-1-1-2-2.7c-1-1.9-1.9-4.6-1.1-7.9C388.4,182.3,389.5,180.4,390.4,179.2z
				 M386.4,193.3c0,0-7.7-1.9-14.2,3.7c1.6-9.3-1-16.3-1-16.3s8.9-6.5,17.9-2.7C389,178,382.7,184.5,386.4,193.3z"/>
			<path class="st0" d="M291.6,185.4c0.7,3.2-0.1,6-1.1,7.9c-0.9,1.7-2,2.7-2,2.7c13.1-5,22.7,7.4,22.7,7.4l0,0
				c-1.7-4.4-2.3-8.7-2.3-13.2c0-3.6,0.7-7,1.9-10.3v-0.1c0,0-12.1-9.8-23.7-2.1c0,0,0.7,0.4,1.7,1.6
				C289.8,180.4,290.9,182.3,291.6,185.4z M290.2,178c8.9-3.8,17.9,2.7,17.9,2.7s-2.5,7-1,16.3c-6.5-5.7-14.2-3.7-14.2-3.7
				C296.6,184.5,290.2,178,290.2,178z"/>
		</g>
		<path class="st0" d="M283.6,220.8"/>
	</g>
	<g>
		<path class="st1" d="M302.5,224c0-0.9-0.9-0.9-0.9-0.9c-0.2,0-0.6-0.1-0.6-0.1c-1.4-0.2-4.3-2.8-1-10.6c3.3-7.8,0.4-12.5-3.2-13.6
			c-4.3-1.3-7.8,2.1-7.8,2.1c-0.2,0.2-0.4,0.5-0.7,0.7c-0.4,0.5-0.7,1-1.1,1.5s-0.7,1-0.9,1.6c-0.2,0.5-0.5,1-0.7,1.6
			c-0.4,1-0.8,2.1-1.2,3.2c-0.2,0.6-0.3,1.1-0.4,1.7c0,0-1.1,4.6-5.5,8.9c-0.3,0.3-1.9,1.6-2.5,1.1c-0.4-0.4,0.8-2.1,0.8-2.1
			c0.2-0.3,0.5-0.7,0.7-1c0.4-0.5,0.7-1.1,1.1-1.6c0.3-0.6,0.6-1.2,0.9-1.7c0-0.1,0.1-0.2,0.1-0.2s0.1-0.2,0.1-0.2
			c0-0.1,0.1-0.2,0.1-0.2s0.1-0.2,0.1-0.2c0.1-0.2,0.1-0.3,0.2-0.5c0-0.1,0.1-0.2,0.1-0.2s0.1-0.2,0.1-0.2l0.2-0.9
			c0.1-0.2,0.1-0.3,0.1-0.5c0-0.2,0.1-0.3,0.1-0.5s0.1-0.3,0.1-0.5s0.1-0.3,0.1-0.5s0.1-0.3,0.1-0.5s0-0.3,0-0.5
			c0.1-0.7,0.1-1.4,0-2.1c0-0.3-0.1-0.7-0.2-1.1c-0.1-0.3-0.2-0.7-0.2-1.1c-0.2-0.7-0.4-1.4-0.8-2.1c-0.1-0.2-0.2-0.3-0.3-0.5
			c-0.1-0.2-0.2-0.3-0.3-0.5c-0.2-0.2-0.3-0.3-0.4-0.5c-0.2-0.2-0.3-0.3-0.5-0.5c-0.3-0.3-0.7-0.6-1.1-0.7c-0.4-0.2-0.8-0.4-1.2-0.6
			c-0.2-0.1-0.5-0.1-0.7-0.2c-0.2,0-0.4-0.1-0.7-0.1c-0.1,0-0.2,0-0.2,0c-0.1,0-0.2,0-0.3,0.1h-0.1h-0.1h-0.1h-0.2h-0.1
			c-0.1,0-0.1,0.1-0.2,0.1s-0.1,0-0.2,0.1c-0.4,0.1-0.8,0.2-1.2,0.4c-0.2,0.1-0.3,0.2-0.5,0.3c-0.2,0.1-0.3,0.2-0.4,0.3
			c-0.3,0.2-0.6,0.5-0.8,0.7c-0.2,0.2-0.5,0.4-0.7,0.7c-0.4,0.4-0.8,0.9-1.2,1.4c-0.1,0.1-0.2,0.2-0.2,0.3c-0.1,0.1-0.2,0.2-0.2,0.4
			c-0.1,0.1-0.2,0.2-0.3,0.3c-0.1,0.1-0.2,0.2-0.2,0.4c-0.2,0.2-0.3,0.5-0.5,0.7c-0.2,0.2-0.3,0.5-0.5,0.7c-0.3,0.5-0.7,1-0.9,1.5
			c-0.2,0.2-0.3,0.5-0.4,0.8c-0.2,0.2-0.3,0.5-0.4,0.7c-0.1,0.2-0.2,0.3-0.3,0.6c-0.1,0.2-0.2,0.4-0.3,0.6c0.1-0.3,0.1-0.6,0.2-0.9
			c0.1-0.3,0.1-0.6,0.2-0.9l0.2-1.2c0.1-0.2,0.1-0.4,0.2-0.7c0-0.2,0.1-0.4,0.1-0.7l0.2-1.2l0.2-1.2c0-0.2,0.1-0.4,0.1-0.7
			s0.1-0.4,0.1-0.7l0.1-0.7l0.1-0.3c0-0.1,0.1-0.2,0.1-0.3c0.1-0.7-0.1-1.3-0.5-1.9c-0.4-0.6-0.9-0.9-1.7-1.1
			c-0.7-0.2-1.4-0.1-2.1,0.3c-0.7,0.4-1.1,1-1.2,1.7l-0.1,0.1l-0.3,2l-0.6,2.5l-0.6,2.4l-0.6,2.5c-0.2,0.7-0.3,1.6-0.5,2.3
			c-0.2,1.7-3.4,11.9-8,11.3c-1.4-0.2-4.3-2.8-1-10.6c3.3-7.8,0.4-12.5-3.2-13.6c-4.3-1.3-7.8,2.1-7.8,2.1c-0.2,0.2-0.4,0.5-0.7,0.7
			c-0.4,0.5-0.7,1-1.1,1.5s-0.7,1-0.9,1.6c-0.2,0.5-0.5,1-0.7,1.6c-0.4,1-0.8,2.1-1.2,3.2c-0.2,0.6-0.3,1.1-0.4,1.7
			c0,0-1.6,6.7-8.6,11.4c-4.1,2.6,1.1-7.1,1.1-7.1c0.3-0.6,0.6-1.2,0.9-1.8c0.3-0.7,0.6-1.2,0.9-1.9c0.2-0.3,0.3-0.7,0.4-1
			c0.2-0.3,0.3-0.7,0.4-1c0.2-0.3,0.3-0.7,0.4-1c0.2-0.3,0.2-0.7,0.4-1.1c0.2-0.4,0.2-0.7,0.4-1.2c0.1-0.4,0.2-0.7,0.3-1.2
			c0.1-0.2,0.1-0.5,0.2-0.7c0-0.2,0.1-0.4,0.1-0.7c0-0.2,0.1-0.2,0.1-0.4c0-0.1,0-0.2,0.1-0.4c0-0.2,0-0.3,0-0.4
			c0-0.2,0-0.3-0.1-0.5c0-0.3-0.1-0.7-0.2-1.2c0-0.1-0.1-0.2-0.1-0.3c0-0.1-0.1-0.2-0.2-0.4c0-0.3,0-0.4-0.1-0.6
			c-0.1-0.2-0.2-0.2-0.3-0.4c-0.2-0.2-0.4-0.6-0.7-0.8c-0.3-0.2-0.6-0.4-0.9-0.7c-0.3-0.2-0.7-0.3-0.9-0.4c-0.2-0.1-0.2-0.1-0.4-0.1
			c-0.1,0-0.2,0-0.4-0.1c-0.2,0-0.3,0-0.3-0.1h-0.2h-0.2h-0.1h-0.1H224h-0.2c-0.1,0-0.2,0.1-0.2,0.1c-0.2,0-0.3,0.1-0.6,0.1
			c-0.2,0-0.3,0.1-0.5,0.1c-0.3,0.1-0.7,0.2-0.9,0.2c-0.2,0.1-0.5,0.2-0.7,0.4c-0.5,0.2-0.9,0.6-1.3,0.9c-0.2,0.2-0.3,0.3-0.5,0.5
			c-0.2,0.2-0.3,0.3-0.5,0.5c-0.6,0.7-1,1.4-1.4,2.1c-0.1,0.1-0.1,0.2-0.2,0.2c-0.1,0.1-0.1,0.2-0.2,0.2l-0.2,0.6
			c-0.1,0.2-0.2,0.3-0.2,0.5c-0.1,0.2-0.2,0.3-0.2,0.5c-0.2,0.3-0.3,0.7-0.6,1c-0.2,0.3-0.3,0.7-0.6,1c-0.2,0.3-0.3,0.7-0.5,0.9
			c-0.2,0.2-0.3,0.6-0.5,0.9c0,0,0-0.1,0-0.2c0.1-0.2,0.1-0.6,0.2-0.8s0.1-0.6,0.2-0.8c0.1-0.2,0.1-0.6,0.1-0.8s0-0.6,0.1-0.9
			c0-0.2,0-0.3,0-0.5c0-0.2,0-0.3,0-0.5c0-0.2,0-0.3,0-0.6c0-0.2,0-0.3-0.1-0.5c0-0.2-0.1-0.4-0.1-0.6c0-0.2-0.1-0.4-0.2-0.7
			c-0.2-0.5-0.4-1-0.7-1.6c-0.1-0.2-0.2-0.2-0.3-0.4c-0.1-0.1-0.2-0.2-0.4-0.4c-0.3-0.3-0.7-0.5-1.1-0.7c-0.3-0.2-0.7-0.2-1.2-0.3
			h-0.2h-0.2h-0.2l0,0h-0.1h-0.2h0.1c-0.2,0-0.6,0.1-0.9,0.2c-0.3,0.1-0.6,0.2-0.7,0.3c-0.2,0.2-0.4,0.2-0.6,0.4
			c-0.2,0.1-0.3,0.2-0.5,0.4c-0.1,0.1-0.1,0.2-0.2,0.2c-0.1,0.1-0.1,0.2-0.2,0.2c-0.1,0.1-0.2,0.2-0.3,0.4l-0.7,0.7l-0.2,0.3
			c-0.1,0.1-0.1,0.1-0.2,0.2c0,0.1-0.1,0.1-0.2,0.2c-0.1,0.1-0.2,0.2-0.2,0.3c-0.1,0.1-0.2,0.2-0.2,0.3c-0.3,0.5-0.6,1-0.8,1.4
			c-0.2,0.2-0.2,0.5-0.4,0.7c-0.1,0.2-0.2,0.5-0.3,0.7c-0.2,0.5-0.5,1-0.7,1.5s-0.4,1-0.7,1.5c-0.1,0.2-0.2,0.5-0.3,0.7
			c-0.1,0.2-0.2,0.5-0.2,0.7c-0.2,0.4-0.4,0.9-0.6,1.4l1.8-10.1c0.1-0.6,0-1.1-0.3-1.6c-0.3-0.5-0.7-0.8-1.2-0.9
			c-0.6-0.2-1.2-0.1-1.7,0.2s-0.8,0.7-1,1.3l-5.8,21.8c0,0.1,0,0.1,0,0.2c0,0.1,0,0.1,0,0.2c-0.2,0.8,0,1.7,0.5,2.4s1.2,1.2,2.1,1.3
			c0.9,0.2,1.7,0,2.4-0.5c0.7-0.5,1.2-1.2,1.3-2.1l0.1-0.2v-0.1l0.2-0.7c0.1-0.2,0.2-0.5,0.2-0.7c0.1-0.2,0.2-0.5,0.3-0.7
			c0.1-0.2,0.2-0.5,0.3-0.7c0.1-0.2,0.2-0.5,0.3-0.7c0.2-0.4,0.4-0.9,0.7-1.4c0.4-0.9,0.8-1.8,1.3-2.8c0.4-0.9,0.9-1.8,1.3-2.7
			c0.2-0.2,0.2-0.5,0.4-0.7c0.1-0.2,0.2-0.4,0.3-0.7c0.2-0.2,0.2-0.4,0.4-0.7c0.1-0.2,0.2-0.4,0.4-0.7c0.2-0.4,0.5-0.8,0.7-1.2
			c0.2-0.4,0.6-0.8,0.8-1.2c0.2-0.2,0.3-0.4,0.4-0.6c0.2-0.2,0.2-0.4,0.4-0.6c0.2-0.2,0.3-0.3,0.5-0.6c0.2-0.2,0.3-0.3,0.4-0.5
			c0.2-0.2,0.3-0.4,0.4-0.5c0.1-0.1,0.1-0.1,0.1-0.2l0.1-0.1c0-0.1,0.1-0.2,0.2-0.2v0.3c0,0.4-0.1,0.8-0.2,1.2
			c0,0.2-0.1,0.5-0.1,0.7c0,0.2-0.1,0.5-0.1,0.7c-0.1,0.5-0.2,1-0.3,1.4c-0.1,0.5-0.2,0.9-0.3,1.4c-0.2,1-0.5,1.9-0.7,2.9
			c-0.2,0.9-0.6,1.9-0.9,2.9l-0.9,2.8c-0.1,0.2-0.2,0.5-0.2,0.7c-0.1,0.2-0.2,0.5-0.2,0.7l-0.2,0.7l-0.2,0.3l-0.2,0.3v0.1
			c-0.2,0.7-0.2,1.4,0,2.1c0.2,0.7,0.7,1.2,1.5,1.4c0.7,0.3,1.4,0.3,2.1,0c0.7-0.3,1.2-0.8,1.4-1.5l0.2-0.3l0.2-0.4l0.3-0.7
			c0-0.1,0.1-0.1,0.1-0.2c0,0,0-0.1,0.1-0.2c0.1-0.1,0.1-0.2,0.2-0.3c0-0.1,0.1-0.2,0.2-0.3c0.2-0.3,0.3-0.7,0.4-1
			c0.2-0.3,0.3-0.7,0.4-1c0.3-0.6,0.7-1.2,1-1.8c0.3-0.7,0.7-1.2,1.1-1.8l1.1-1.7c0.2-0.3,0.3-0.6,0.6-0.9c0.2-0.2,0.4-0.6,0.6-0.9
			c0.4-0.6,0.8-1.2,1.2-1.7c0.4-0.6,0.8-1.1,1.3-1.6c0.2-0.2,0.4-0.5,0.7-0.7s0.5-0.5,0.7-0.7s0.5-0.4,0.7-0.7
			c0.1-0.1,0.2-0.2,0.4-0.3l0.4-0.2c0.1-0.1,0.2-0.2,0.5-0.2l-0.1,0.2c-0.1,0.3-0.2,0.7-0.2,1c-0.1,0.3-0.2,0.7-0.2,1
			c-0.1,0.3-0.2,0.7-0.2,1c-0.1,0.3-0.2,0.7-0.3,1c-0.2,0.7-0.4,1.4-0.7,2.1c-0.2,0.7-0.4,1.3-0.7,2.1c-0.1,0.3-0.2,0.7-0.3,1.1
			c-0.1,0.3-0.2,0.7-0.2,1.1c-0.1,0.2-0.1,0.3-0.2,0.6c-0.1,0.2-0.1,0.3-0.1,0.6c-0.1,0.2-0.1,0.3-0.2,0.6c0,0.2-0.1,0.4-0.2,0.6
			c-0.1,0.2-0.1,0.4-0.1,0.6s-0.1,0.4-0.1,0.6s-0.1,0.4-0.1,0.6s0,0.4-0.1,0.7v0.7c0,0.2,0,0.2,0,0.4c0,0.1,0,0.2,0.1,0.4
			c0,0.2,0.1,0.3,0.1,0.4c0,0.2,0.1,0.3,0.1,0.5c0.1,0.3,0.2,0.7,0.5,1.1c0.1,0.1,0.2,0.2,0.2,0.3c0.1,0.1,0.2,0.2,0.2,0.2
			s0.2,0.2,0.3,0.2c0.1,0.1,0.2,0.2,0.3,0.2c0.2,0.2,0.4,0.2,0.7,0.3c0.1,0,0.2,0.1,0.3,0.1s0.2,0.1,0.3,0.1c0.1,0,0.2,0.1,0.2,0.1
			c0.1,0,0.2,0,0.2,0.1h0.2l0.2-0.1h0.1h0.1h0.1h0.1c0.1,0,0.1,0,0.2,0h0.1c0.1,0,0.2,0,0.4-0.1c0.2-0.1,0.5-0.2,0.7-0.2
			c0.2-0.1,0.4-0.2,0.7-0.3c0.2-0.1,0.4-0.2,0.6-0.3c0.2-0.1,0.3-0.2,0.5-0.4c0.3-0.2,0.7-0.5,0.9-0.8c1.6-1.5,4.2-4.7,4.2-4.7
			c0.4-0.6,0.7-1.1,1.1-1c0.3,0,0.3,0.3,0.3,0.8c0,0.2,0,0.2,0,0.4c0,0.3,0.1,0.6,0.1,0.9c0,0,0.6,4.3,3.7,4.8c0.1,0,0.2,0,0.3,0
			s0.2,0,0.3,0h0.2h0.1h0.1h0.1h0.1c0.1,0,0.1,0,0.1,0s0,0,0.1,0c0.2,0,0.4-0.1,0.6-0.2c0.2-0.1,0.3-0.1,0.5-0.2
			c0.3-0.2,0.7-0.3,0.9-0.5c0.2-0.2,0.2-0.2,0.4-0.3c0.1-0.1,0.2-0.2,0.3-0.3c0.2-0.2,0.4-0.5,0.7-0.7c0.2-0.2,0.3-0.5,0.6-0.7
			c0.3-0.5,0.7-1,0.9-1.4c0.2-0.2,0.2-0.5,0.4-0.7c0.1-0.2,0.2-0.5,0.3-0.7c0.1-0.1,0.1-0.2,0.2-0.3c0.1-0.1,0.1-0.2,0.2-0.4
			c0,0.2,0,0.3,0,0.6c0,0.2,0,0.3,0.1,0.6c0,0.2,0.1,0.4,0.1,0.6s0.1,0.4,0.1,0.6c0.1,0.4,0.2,0.8,0.4,1.2c0.1,0.4,0.3,0.9,0.7,1.3
			c0.2,0.4,0.6,0.8,1.1,1.2c0.4,0.4,0.9,0.7,1.4,0.8c0.2,0.1,0.5,0.2,0.7,0.2c0,0,3.4,0.7,5.4-1.3v0.1c-0.2,0.3-0.6,1.1-0.7,1.4
			c-0.1,0.2-0.2,0.3-0.3,0.5c-0.1,0.2-0.2,0.4-0.3,0.6s-0.2,0.3-0.3,0.6c-0.1,0.2-0.2,0.4-0.3,0.6c-0.1,0.2-0.2,0.3-0.3,0.6
			c-0.1,0.1-0.1,0.2-0.2,0.3l-0.1,0.2l-0.1,0.2c-0.1,0.2-0.2,0.4-0.2,0.6c-0.1,0.2-0.2,0.4-0.2,0.6c-0.3,0.8-0.7,1.6-1,2.4
			c-0.3,0.8-0.6,1.7-0.9,2.4c-0.6,1.6-1.1,3.2-1.5,5l-0.1,0.3v0.2l-0.1,0.2l-0.2,0.7c-0.1,0.2-0.1,0.5-0.1,0.7
			c0,0.2-0.1,0.4-0.1,0.7s-0.1,0.5-0.1,0.7c0,0.2,0,0.5,0,0.7v0.7c0,0.1,0.1,0.2,0.1,0.3c0,0.1,0,0.2,0.1,0.4
			c0.1,0.3,0.2,0.7,0.3,0.9c0.1,0.1,0.1,0.2,0.2,0.2c0.1,0.1,0.1,0.2,0.2,0.2c0.1,0.2,0.2,0.3,0.5,0.4c0.1,0.1,0.3,0.2,0.7,0.2
			c0.1,0,0.1,0.1,0.2,0.1c0.1,0,0.1,0,0.2,0.1h0.1h0.1h0.1h0.2c0.2,0,0.3,0,0.5,0s0.3,0,0.5-0.1c0.3-0.1,0.7-0.2,0.8-0.3
			c0.2-0.1,0.2-0.2,0.4-0.2c0.1-0.1,0.2-0.2,0.3-0.2c0.5-0.3,0.9-0.7,1.2-1l0.6-0.6c0.1-0.1,0.2-0.2,0.2-0.2
			c0.1-0.1,0.2-0.2,0.2-0.2c0.2-0.2,0.3-0.3,0.4-0.6c0.2-0.2,0.2-0.4,0.4-0.6c0.6-0.8,1.1-1.7,1.4-2.4l0.6-1.2
			c0.1-0.2,0.2-0.4,0.2-0.6c0.1-0.2,0.2-0.4,0.2-0.7c0.1-0.2,0.2-0.4,0.2-0.6c0.1-0.2,0.2-0.4,0.2-0.7c0.1-0.2,0.2-0.4,0.2-0.6
			c0.1-0.2,0.2-0.4,0.2-0.6c0.2-0.4,0.2-0.8,0.4-1.2c0.1-0.4,0.2-0.8,0.4-1.2c0.1-0.2,0.1-0.4,0.2-0.6s0.1-0.4,0.2-0.6l0.3-1.2
			c0.5-1.7,0.9-3.3,1.3-5s0.8-3.3,1.2-5c0.2-1,0.5-2,0.7-3s0.5-2,0.7-3c0.1-0.1,0.1-0.2,0.2-0.2s0.1-0.2,0.2-0.2
			c0.2-0.2,0.3-0.5,0.4-0.7c0.2-0.2,0.2-0.5,0.4-0.7c0.3-0.5,0.7-1,0.9-1.4c0.3-0.5,0.6-0.9,0.9-1.4c0.2-0.2,0.3-0.5,0.5-0.7
			c0.2-0.2,0.3-0.5,0.5-0.7l1.1-1.3c0.2-0.2,0.3-0.4,0.6-0.7c0.2-0.2,0.3-0.4,0.6-0.6c0.1-0.1,0.2-0.2,0.3-0.3
			c0.1-0.1,0.2-0.2,0.3-0.3l0.6-0.6c0.2-0.2,0.4-0.3,0.6-0.6c0.2-0.2,0.4-0.3,0.6-0.5l0.7-0.4c0.2-0.2,0.4-0.2,0.7-0.3
			c0.1-0.1,0.2-0.1,0.3-0.1c0.1,0,0.2,0,0.3-0.1c0.1,0,0.2-0.1,0.4-0.1h0.1v0.1h0.1c0.1,0,0.1,0,0.2,0c0,0,0.1,0,0.2,0
			c0.1,0.1,0.2,0.2,0.3,0.2c0.2,0.2,0.4,0.3,0.6,0.6c0.1,0.1,0.1,0.2,0.1,0.2c0,0.1,0.1,0.2,0.1,0.2s0.1,0.2,0.2,0.5
			c0.1,0.2,0.1,0.3,0.2,0.6c0,0.2,0.1,0.4,0.1,0.6c0.1,0.4,0.1,0.8,0,1.3c0,0.9-0.2,1.8-0.4,2.8c-0.1,0.2-0.1,0.2-0.1,0.4
			c0,0.1,0,0.2-0.1,0.3c-0.1,0.2-0.2,0.5-0.2,0.7c0,0.1-0.1,0.1-0.1,0.2c0,0.1,0,0.1-0.1,0.2c-0.1,0.1-0.1,0.2-0.1,0.3
			c0,0.1-0.1,0.2-0.2,0.3c0,0.1-0.1,0.2-0.2,0.3c-0.2,0.5-0.3,1-0.6,1.4c-0.2,0.5-0.4,1-0.6,1.5c-0.2,0.5-0.5,0.9-0.7,1.4
			c-0.2,0.4-0.5,0.9-0.7,1.3c-0.2,0.4-0.6,0.8-0.9,1.2c-0.3,0.4-0.7,0.7-1,1.1c-0.2,0.2-0.3,0.3-0.6,0.4c-0.2,0.2-0.4,0.2-0.6,0.4
			c-0.4,0.2-0.8,0.4-1.2,0.4c-0.3,0.1-0.7,0.1-1.1,0c-0.2-0.1-0.3-0.2-0.5-0.2c-0.1-0.1-0.2-0.1-0.2-0.2c-0.1-0.1-0.2-0.2-0.2-0.2
			c0-0.1-0.1-0.1-0.1-0.2c0-0.1-0.1-0.1-0.1-0.2c-0.1-0.1-0.1-0.1-0.1-0.2c0,0-0.1-0.1-0.1-0.2c-0.1-0.1-0.1-0.2-0.2-0.3
			c0-0.1-0.1-0.2-0.2-0.4c-0.1-0.1-0.1-0.2-0.2-0.3c0-0.1-0.1-0.2-0.2-0.4c0-0.2-0.1-0.2-0.1-0.4c0-0.1-0.1-0.2-0.1-0.4
			c0-0.2-0.2-0.3-0.4-0.4c-0.2,0-0.2,0-0.4,0.1c-0.1,0.1-0.2,0.2-0.2,0.3c-0.1,0.7-0.1,1.2,0,1.9c0,0.2,0.1,0.3,0.1,0.5
			s0.1,0.3,0.1,0.5c0.1,0.2,0.1,0.3,0.2,0.5s0.1,0.3,0.2,0.5c0.1,0.2,0.2,0.3,0.2,0.5c0.1,0.2,0.2,0.3,0.3,0.5c0,0,7.2,7.5,17.5-4.9
			l0,0c0.4-0.6,0.7-1.1,1.2-1c0.3,0,0.2,0.3,0.3,0.8c0,0.2,0,0.2,0,0.4c0,0.3,0.1,0.6,0.1,0.9c0,0,0.6,4.3,3.7,4.8
			c0.1,0,0.2,0,0.3,0c0.1,0,0.2,0,0.3,0h0.2h0.1h0.1h0.1h0.1c0.1,0,0.1,0,0.1,0s0,0,0.1,0c0.2,0,0.4-0.1,0.6-0.2
			c0.2-0.1,0.3-0.1,0.5-0.2c0.3-0.2,0.7-0.3,0.9-0.5c0.2-0.2,0.2-0.2,0.4-0.3c0.1-0.1,0.2-0.2,0.3-0.3c0.2-0.2,0.4-0.5,0.7-0.7
			c0.2-0.2,0.3-0.5,0.6-0.7c0.3-0.5,0.7-1,0.9-1.4c0.2-0.2,0.2-0.5,0.4-0.7c0.1-0.2,0.2-0.5,0.3-0.7c0.1-0.1,0.1-0.2,0.2-0.3
			c0.1-0.1,0.1-0.2,0.2-0.4c0,0.2,0,0.3,0,0.6c0,0.2,0,0.3,0.1,0.6c0,0.2,0.1,0.4,0.1,0.6s0.1,0.4,0.1,0.6c0.1,0.4,0.2,0.8,0.4,1.2
			c0.1,0.4,0.3,0.9,0.7,1.3c0.2,0.4,0.6,0.8,1.1,1.2c0.4,0.4,0.9,0.7,1.4,0.8c0.2,0.1,0.5,0.2,0.7,0.2c0,0,1.2,0.2,2.6,0
			C302.5,224.5,302.5,224,302.5,224z M208.7,202.8C208.7,202.7,208.7,202.7,208.7,202.8L208.7,202.8z M242.8,212.4L242.8,212.4
			c-0.3,0.8-0.7,1.7-1,2.3c-0.2,0.5-0.5,0.9-0.7,1.4c-0.2,0.4-0.5,0.9-0.7,1.3l-0.8,1.2c-0.2,0.2-0.3,0.4-0.5,0.6
			c-0.2,0.2-0.3,0.3-0.4,0.6c-0.2,0.2-0.3,0.3-0.5,0.5c-0.2,0.2-0.3,0.2-0.5,0.4c-0.3,0.2-0.7,0.4-0.9,0.5c-0.2,0.1-0.3,0.1-0.4,0.1
			h-0.1h-0.1l0,0H236c-0.1,0-0.1,0-0.1,0h-0.1l-0.2-0.1c-0.1-0.1-0.2-0.2-0.2-0.2c0-0.1-0.1-0.1-0.1-0.2c0-0.1-0.1-0.1-0.1-0.2
			s-0.1-0.2-0.1-0.2c0-0.1-0.1-0.2-0.1-0.2c-0.1-0.2-0.1-0.3-0.2-0.5c0-0.2-0.1-0.4-0.1-0.6c0-0.2,0-0.5,0-0.7c0-0.2,0-0.4,0-0.7
			s0.1-0.5,0.1-0.7c0-0.2,0.1-0.4,0.1-0.7c0.1-0.5,0.2-1,0.2-1.4c0.1-0.5,0.2-0.9,0.4-1.4c0.2-0.9,0.6-1.8,0.9-2.7
			c0.2-0.4,0.4-0.8,0.6-1.2c0.2-0.4,0.4-0.8,0.7-1.3c0.2-0.4,0.5-0.8,0.7-1.2c0.2-0.4,0.5-0.7,0.7-1.1c0,0,2.1-3,4.1-1.7
			C245.2,205.4,243,211.9,242.8,212.4z M253.6,228.1c-0.1,0.3-0.2,0.7-0.2,1l-0.2,1.2l-0.2,1.2c-0.1,0.4-0.2,0.8-0.3,1.2
			c-0.1,0.4-0.2,0.7-0.3,1.2c-0.1,0.2-0.1,0.4-0.2,0.6c-0.1,0.2-0.1,0.4-0.2,0.6c-0.1,0.2-0.1,0.4-0.2,0.6c-0.1,0.2-0.1,0.4-0.2,0.6
			l-0.1,0.2c0,0.1,0,0.2-0.1,0.2l-0.2,0.6l-0.4,1.2l-0.8,2.1c-0.2,0.3-0.3,0.7-0.4,1.1c-0.2,0.3-0.3,0.7-0.5,1
			c-0.1,0.2-0.2,0.5-0.5,0.8c-0.1,0.1-0.2,0.2-0.2,0.3c-0.1,0.1-0.2,0.2-0.2,0.2c-0.1,0.1-0.2,0.2-0.2,0.2h-0.1l-0.1,0.1
			c0,0,0.1,0,0.1,0.1v0.1h-0.1c-0.1-0.1-0.2-0.2-0.2-0.2c-0.1-0.1-0.1-0.2-0.2-0.4c-0.1-0.2-0.1-0.4-0.1-0.6s-0.1-0.4-0.1-0.6
			s0-0.4,0-0.6c0-0.2,0-0.4,0-0.6s0-0.4,0.1-0.6c0-0.2,0.1-0.3,0.2-0.6l0.1-0.2l0.1-0.2l0.1-0.2c0.2-0.8,0.5-1.6,0.7-2.4
			c0.2-0.7,0.6-1.6,0.9-2.3s0.7-1.6,1.1-2.3c0.4-0.7,0.7-1.5,1.2-2.1c0.1-0.2,0.2-0.3,0.3-0.6c0.1-0.2,0.2-0.3,0.3-0.5l0.1-0.2
			l0.1-0.2c0.1-0.1,0.1-0.2,0.2-0.2c0.1-0.1,0.1-0.2,0.2-0.2c0.1-0.1,0.1-0.2,0.2-0.2c0.2-0.2,0.2-0.3,0.4-0.5
			c0.1-0.2,0.2-0.3,0.4-0.5c0-0.1,0.1-0.2,0.2-0.2C253.8,227.6,253.7,227.9,253.6,228.1z M294.6,212.4L294.6,212.4
			c-0.3,0.8-0.7,1.7-1,2.3c-0.2,0.5-0.5,0.9-0.7,1.4c-0.2,0.4-0.5,0.9-0.7,1.3l-0.8,1.2c-0.2,0.2-0.3,0.4-0.4,0.6
			c-0.2,0.2-0.3,0.3-0.4,0.6c-0.2,0.2-0.3,0.3-0.5,0.5c-0.2,0.2-0.3,0.2-0.5,0.4c-0.3,0.2-0.7,0.4-0.9,0.5c-0.2,0.1-0.3,0.1-0.4,0.1
			h-0.1H288h-0.1h-0.1c-0.1,0-0.1,0-0.1,0s0,0-0.1,0l-0.2-0.1c-0.1-0.1-0.2-0.2-0.2-0.2c0-0.1-0.1-0.1-0.1-0.2
			c0-0.1-0.1-0.1-0.1-0.2s-0.1-0.2-0.1-0.2c0-0.1-0.1-0.2-0.1-0.2c-0.1-0.2-0.1-0.3-0.2-0.5c0-0.2-0.1-0.4-0.1-0.6
			c0-0.2,0-0.5,0-0.7c0-0.2,0-0.4,0-0.7s0.1-0.5,0.1-0.7c0-0.2,0.1-0.4,0.1-0.7c0.1-0.5,0.2-1,0.2-1.4c0.1-0.5,0.2-0.9,0.4-1.4
			c0.2-0.9,0.6-1.8,0.9-2.7c0.2-0.4,0.4-0.8,0.6-1.2c0.2-0.4,0.4-0.8,0.7-1.3c0.2-0.4,0.5-0.8,0.7-1.2c0.2-0.4,0.5-0.7,0.8-1.1
			c0,0,2.1-3,4.1-1.7C297.1,205.4,294.8,211.9,294.6,212.4z"/>
		<path class="st1" d="M594.4,210.4c-0.2-0.2-0.3-0.2-0.5-0.2c-0.2,0-0.3,0.1-0.5,0.2c-0.2,0.2-0.3,0.3-0.5,0.5
			c-0.2,0.2-0.3,0.3-0.5,0.5c-0.2,0.2-0.3,0.3-0.5,0.4c-0.2,0.2-0.3,0.3-0.5,0.4c-0.3,0.2-0.7,0.5-1.1,0.7c-0.4,0.2-0.7,0.4-1.2,0.7
			c-0.2,0.1-0.4,0.2-0.6,0.2c-0.2,0.1-0.4,0.2-0.6,0.2c-0.2,0.1-0.3,0.1-0.4,0.1c-0.2,0-0.3,0-0.5,0.1c0.1-0.2,0.2-0.3,0.2-0.5
			c0.1-0.2,0.2-0.3,0.2-0.5c0.2-0.5,0.4-1,0.6-1.4c0.2-0.5,0.3-1,0.4-1.5c0.2-0.9,0.5-1.9,0.7-3c0.1-0.4,0.1-0.7,0.2-1.2l0,0
			c1.2-8.5-7.8-8.2-7.8-8.2c-5.9,0-8.7,2.4-11.2,7.4c-1,2-1.5,3.6-2.6,6c-0.2,0.3-0.3,0.7-0.5,1c-0.2,0.3-0.3,0.7-0.6,1
			c-0.2,0.3-0.3,0.7-0.6,0.9c-0.2,0.3-0.4,0.6-0.6,0.9c-0.7,1.2-1.6,2.4-2.6,3.6c-0.2,0.2-0.3,0.3-0.3,0.4c-0.1,0.1-0.1,0.2-0.2,0.2
			l0,0c-0.1,0.1-0.2,0.2-0.2,0.2l-0.4,0.4c-5,4.8-3.6-4.3-3.6-4.3l0,0l0,0c0-0.2,0.1-0.3,0.1-0.5c0.1-0.3,0.2-0.7,0.2-1
			c0.1-0.3,0.2-0.7,0.2-1c0.5-1.3,1.1-2.6,1.7-3.6c0.2-0.2,0.3-0.5,0.5-0.8c0.2-0.2,0.3-0.5,0.6-0.7c0.4-0.4,0.8-0.8,1.2-1.2
			c0.4-0.3,0.7-0.7,0.9-1.3c0.2-0.5,0.2-1.1,0.1-1.7c-0.2-0.8-0.6-1.4-1.3-1.9c-0.7-0.4-1.4-0.6-2.2-0.4l-1.1,0.2
			c-0.4,0.1-0.7,0.2-1.1,0.3c-0.3,0.1-0.7,0.2-1.1,0.3c-0.3,0.1-0.7,0.2-1.1,0.3c-0.3,0.1-0.7,0.2-1.1,0.2c-1.4,0.3-2.8,0.6-4.1,0.6
			h-0.9c0.1-0.3,0.1-0.5,0.2-0.7c0-0.2,0.1-0.2,0.1-0.3c0-0.1,0-0.2,0.1-0.3c0-0.1,0-0.2,0-0.3c0-0.1,0-0.2,0-0.4c0-0.1,0-0.2,0-0.3
			c0-0.1,0-0.2,0-0.4c0-0.1-0.1-0.2-0.1-0.3c0-0.1-0.1-0.2-0.1-0.3c-0.1-0.2-0.1-0.3-0.2-0.4c0-0.1-0.1-0.2-0.2-0.3
			c-0.1-0.2-0.2-0.2-0.2-0.3c-0.1-0.1-0.2-0.2-0.3-0.3c-0.2-0.1-0.2-0.2-0.4-0.2c-0.1-0.1-0.2-0.1-0.4-0.2c-0.2-0.1-0.2-0.1-0.4-0.1
			c-0.1,0-0.2,0-0.3-0.1c-0.2,0-0.2-0.1-0.4-0.1c-0.1,0-0.2,0-0.3,0h-0.1h-0.1h-0.1h-0.2h-0.4c-0.2,0.1-0.6,0.1-0.8,0.2
			c-0.2,0.1-0.6,0.2-0.8,0.3c-0.2,0.1-0.2,0.2-0.4,0.2c-0.1,0.1-0.2,0.2-0.3,0.3c-0.1,0.1-0.1,0.1-0.2,0.2c-0.1,0.1-0.1,0.1-0.2,0.2
			c-0.1,0.2-0.2,0.3-0.3,0.4c-0.3,0.6-0.6,1.2-0.7,1.9c-0.1,0.7-0.1,1.3,0.2,1.9c0.2,0.6,0.4,1.2,0.8,1.7c0.3,0.5,0.7,0.9,1.2,1.3
			c0.2,0.2,0.3,0.3,0.6,0.5c0.3,0.2,1.5,1.5,0.5,3c0,0-1.2,2.1-3.6,4.3c-0.2,0.1-0.3,0.2-0.4,0.3c0,0,0,0-0.1,0
			c-0.7,0.5-1.3,1-2,1.4c-0.7,0.4-1.3,0.9-2.1,1.2c-0.3,0.2-0.7,0.3-1,0.6c-0.3,0.2-0.7,0.3-1.1,0.5c-0.3,0.2-0.7,0.2-1.1,0.4
			c-0.3,0.1-0.7,0.2-1.1,0.3c-0.7,0.2-1.4,0.2-2.1,0.2c-0.3,0.1-0.7,0.1-1,0c-0.2,0-0.3,0-0.5,0c-0.2,0-0.3,0-0.5,0
			c-0.3-0.1-0.7-0.1-0.9-0.2c-0.2-0.1-0.5-0.1-0.7-0.2c-0.2-0.1-0.4-0.2-0.7-0.2c-0.2-0.1-0.3-0.2-0.5-0.3c-0.2-0.1-0.3-0.2-0.5-0.3
			c-0.2-0.1-0.3-0.2-0.4-0.5c-0.3-0.3-0.6-0.8-0.8-1.3c-0.1-0.2-0.2-0.6-0.3-0.9c0-0.1-0.1-0.2-0.1-0.3l0.1,0.1
			c-0.1-0.5-0.2-1.2,0.3-1.6c0.3-0.2,0.9-0.1,1.2,0.1c1,0.7,1.9,0.9,1.9,0.9l0,0c0.1,0,0.2,0.1,0.2,0.1c0.1,0,0.2,0.1,0.4,0.1
			l0.8,0.2c1,0.1,2.1,0,3.1-0.2c0.5-0.1,1-0.2,1.5-0.4c0.2-0.1,0.3-0.1,0.3-0.2c0,0,0.1,0,0.1-0.1l0.2-0.1c0.1-0.1,0.2-0.1,0.2-0.1
			c0.3-0.2,0.6-0.3,0.8-0.6c0.5-0.3,1-0.7,1.3-1.2c0.4-0.4,0.7-0.8,1.1-1.3c0.3-0.4,0.6-0.9,0.8-1.4s0.4-1,0.6-1.5
			c0.1-0.2,0.2-0.5,0.2-0.7c0.1-0.2,0.2-0.5,0.2-0.8c0.1-0.6,0.2-1.1,0.2-1.7c0-0.6-0.1-1.2-0.2-1.8c-0.1-0.6-0.3-1.2-0.7-1.8
			c-0.3-0.7-0.7-1.2-1.2-1.7c-0.5-0.5-1.1-0.9-1.7-1.2c-0.3-0.2-0.7-0.2-1-0.3c-0.3-0.1-0.7-0.1-0.9-0.2c-0.3-0.1-0.6-0.1-0.9-0.1
			c-0.2,0-0.6,0.1-0.8,0.1c-0.2,0.1-0.5,0.1-0.8,0.2c-0.2,0.1-0.5,0.1-0.7,0.2c-0.6,0.2-1,0.4-1.4,0.6c-0.4,0.2-0.9,0.4-1.2,0.7
			c-0.4,0.2-0.8,0.5-1.2,0.8c-0.2,0.2-0.3,0.3-0.6,0.4c-0.2,0.2-0.3,0.2-0.6,0.4c-0.2,0.2-0.3,0.3-0.5,0.5c-0.2,0.2-0.3,0.3-0.5,0.5
			c-0.3,0.3-0.7,0.7-0.9,1s-0.6,0.7-0.8,1.1c-0.2,0.3-0.5,0.7-0.7,1.1c-0.2,0.4-0.5,0.7-0.7,1.2c-0.6,0.9-1,1.9-1.4,2.9l0,0
			c-0.3,0.7-0.9,1.8-1.6,2.6l0,0c-0.2,0.1-0.2,0.2-0.4,0.4c-0.1,0.2-0.2,0.2-0.4,0.4c-0.2,0.1-0.3,0.3-0.6,0.6s-0.5,0.4-0.6,0.6
			c-0.5,0.4-1.1,0.8-1.6,1.2c-0.6,0.4-1.2,0.7-1.7,1.1c-0.2,0.2-0.6,0.3-0.8,0.5c-0.2,0.2-0.6,0.3-0.9,0.5c-0.2,0.1-0.3,0.2-0.4,0.2
			c-0.2,0.1-0.2,0.2-0.4,0.2c-0.2,0.1-0.3,0.1-0.4,0.2c-0.2,0.1-0.3,0.1-0.4,0.2c-0.6,0.2-1.2,0.4-1.8,0.6c-0.6,0.2-1.2,0.2-1.8,0.4
			c-0.2,0-0.2,0.1-0.4,0.1c-0.1,0-0.2,0-0.4,0.1h-0.8h-0.7h-0.1h-0.1h-0.1h-0.2l0,0L503,219h-0.3c-0.2-0.1-0.5-0.1-0.7-0.2
			c-0.2-0.1-0.4-0.1-0.6-0.2c-0.3-0.1-0.7-0.2-0.9-0.4c-0.2-0.2-0.6-0.4-0.8-0.7c-0.1-0.2-0.2-0.3-0.3-0.5c-0.1-0.2-0.2-0.3-0.3-0.6
			c-0.2-0.4-0.4-0.9-0.6-1.4s-0.2-1.1-0.3-1.7c-0.1-0.6-0.1-1.2-0.1-1.8c0-0.6,0-1.2,0.1-1.8c0.1-0.7,0.2-1.2,0.4-1.8
			c0.2-0.6,0.4-1.2,0.7-1.8c0.5-1.2,1.2-2.2,2.1-3.1c0.1-0.2,0.2-0.2,0.3-0.3c0.1-0.1,0.2-0.2,0.3-0.2c0.2-0.1,0.2-0.2,0.4-0.3
			c0.1-0.1,0.2-0.2,0.3-0.2c0.2-0.1,0.3-0.2,0.4-0.2c0.2-0.1,0.2-0.1,0.4-0.2c0.2-0.1,0.3-0.1,0.4-0.2c0.1,0,0.2-0.1,0.4-0.1
			c0.6-0.1,1.2,0,1.7,0.2h0.1l0.1,0.1h0.1h0.1c0,0,0.1,0,0.2,0c0.1,0,0.2,0.1,0.3,0.2c0.1,0.1,0.2,0.1,0.2,0.2
			c0.1,0.1,0.2,0.1,0.2,0.2c0.2,0.2,0.3,0.5,0.4,0.7c0.1,0.3,0.2,0.7,0.2,1c0,0.4-0.1,0.7-0.2,1.2c-0.1,0.4-0.2,0.7-0.3,1.2
			c-0.2,0.3-0.3,0.6-0.6,0.8l-0.2,0.2c0,0-0.1,0-0.2,0.1l-0.1,0.1l-0.1,0.1h-0.1c-0.7,0.4-1.2,0.9-1.4,1.7c-0.2,0.7-0.2,1.5-0.1,2.2
			c0.3,0.8,0.9,1.4,1.7,1.8c0.7,0.4,1.6,0.4,2.4,0.1l0.1-0.1l0,0l0.2-0.1l0.1-0.1c0,0,0.1,0,0.1-0.1c0.1,0,0.2-0.1,0.4-0.2
			c0.2-0.2,0.5-0.3,0.7-0.4c0.5-0.4,0.9-0.7,1.2-1.2c0.7-0.8,1.2-1.7,1.6-2.7c0.3-1,0.5-2,0.6-3c0-0.5,0-1-0.1-1.5s-0.2-1-0.3-1.5
			c-0.1-0.2-0.2-0.5-0.2-0.7c-0.1-0.2-0.2-0.5-0.3-0.7c-0.2-0.2-0.3-0.5-0.4-0.7c-0.2-0.2-0.3-0.4-0.5-0.7c-0.2-0.2-0.4-0.4-0.7-0.6
			c-0.2-0.2-0.4-0.3-0.7-0.5c-0.1-0.1-0.2-0.2-0.3-0.2c-0.1-0.1-0.2-0.2-0.4-0.2c-0.1-0.1-0.2-0.1-0.3-0.2c-0.1,0-0.2-0.1-0.4-0.2
			c-0.2-0.1-0.5-0.1-0.8-0.2c-0.2-0.1-0.5-0.1-0.8-0.1c-0.1,0-0.2,0-0.3,0c-0.1,0-0.2,0-0.3,0c-0.1,0-0.1,0-0.2,0
			c-0.1,0-0.1,0-0.2,0h-0.1h-0.1h-0.1H506h-0.1h-0.1c-0.9,0.2-1.7,0.4-2.4,0.8c-0.7,0.3-1.4,0.7-2.1,1.2c-0.3,0.2-0.7,0.5-0.9,0.7
			c-0.3,0.2-0.7,0.5-0.9,0.7c-0.3,0.2-0.6,0.5-0.8,0.7s-0.5,0.6-0.7,0.8c-0.2,0.3-0.5,0.6-0.7,0.9c-0.2,0.3-0.5,0.6-0.7,0.9
			c-0.8,1.2-1.6,2.6-2.1,4.1c-0.1,0.2-0.2,0.3-0.2,0.5c-0.3,0.7-0.9,1.9-1.7,2.6c-0.1,0.1-0.2,0.2-0.3,0.2c-0.3,0.2-0.5,0.5-0.7,0.6
			c-0.2,0.2-0.3,0.3-0.5,0.4c-0.2,0.2-0.3,0.2-0.5,0.4s-0.3,0.2-0.5,0.4c-0.2,0.1-0.3,0.2-0.5,0.3c-0.7,0.5-1.3,1-2,1.4
			c-0.7,0.4-1.3,0.9-2.1,1.2c-0.3,0.2-0.7,0.3-1,0.6c-0.3,0.2-0.7,0.3-1.1,0.5c-0.3,0.2-0.7,0.2-1.1,0.4c-0.3,0.1-0.7,0.2-1.1,0.3
			c-0.7,0.2-1.5,0.2-2.1,0.2c-0.3,0.1-0.7,0.1-1,0c-0.2,0-0.3,0-0.5,0s-0.3,0-0.5,0c-0.3-0.1-0.7-0.1-0.9-0.2
			c-0.2-0.1-0.5-0.1-0.7-0.2c-0.2-0.1-0.5-0.2-0.7-0.2c-0.2-0.1-0.3-0.2-0.5-0.3c-0.2-0.1-0.3-0.2-0.5-0.3c-0.2-0.1-0.3-0.2-0.4-0.5
			c-0.3-0.3-0.6-0.8-0.8-1.3c-0.1-0.2-0.2-0.6-0.3-0.9c0-0.1-0.1-0.2-0.1-0.2l0,0c-0.1-0.5-0.2-1.2,0.3-1.6c0.4-0.2,1,0,1.2,0.1
			c0.9,0.7,1.9,0.9,1.9,0.9l0,0c0.1,0,0.2,0.1,0.2,0.1s0.2,0.1,0.4,0.1l0.8,0.2c1,0.1,2.1,0,3.1-0.2c0.5-0.1,1-0.2,1.4-0.4
			c0.2-0.1,0.3-0.1,0.3-0.2c0,0,0.1,0,0.1-0.1l0.2-0.1c0.1-0.1,0.2-0.1,0.2-0.1c0.3-0.2,0.6-0.3,0.8-0.6c0.5-0.3,1-0.7,1.3-1.2
			c0.4-0.4,0.7-0.8,1.1-1.3c0.3-0.4,0.6-0.9,0.8-1.4c0.2-0.5,0.4-1,0.6-1.5c0.1-0.2,0.2-0.5,0.2-0.7c0.1-0.2,0.2-0.5,0.2-0.8
			c0.1-0.6,0.2-1.1,0.2-1.7c0-0.6-0.1-1.2-0.2-1.8c-0.1-0.6-0.3-1.2-0.7-1.8s-0.7-1.2-1.2-1.7s-1.1-0.9-1.7-1.2
			c-0.3-0.2-0.7-0.2-1-0.3c-0.3-0.1-0.7-0.1-0.9-0.2c-0.3-0.1-0.6-0.1-0.9-0.1c-0.2,0-0.6,0.1-0.8,0.1c-0.2,0.1-0.5,0.1-0.7,0.2
			s-0.5,0.1-0.7,0.2c-0.6,0.2-1,0.4-1.4,0.6c-0.4,0.2-0.9,0.4-1.2,0.7c-0.4,0.2-0.8,0.5-1.2,0.8c-0.2,0.2-0.3,0.3-0.6,0.4
			c-0.2,0.2-0.3,0.2-0.6,0.4c-0.2,0.2-0.3,0.3-0.5,0.5c-0.2,0.2-0.3,0.3-0.5,0.5c-0.3,0.3-0.7,0.7-0.9,1s-0.6,0.7-0.8,1.1
			c-0.2,0.3-0.5,0.7-0.7,1.1c-0.2,0.4-0.5,0.7-0.7,1.2c-0.6,0.9-1,1.9-1.4,2.9c-0.3,0.6-0.9,1.5-2.1,2c-0.2,0.1-0.5,0.2-0.7,0.2
			c-0.9,0.2-1.8,0.2-2.7,0.1c-0.3,0-0.7-0.1-0.9-0.2c0.2-0.2,0.3-0.5,0.5-0.7s0.3-0.5,0.5-0.7c0.3-0.5,0.7-1.1,0.9-1.6
			c0.2-0.6,0.5-1.1,0.7-1.7c0.1-0.3,0.2-0.6,0.3-0.9c0.1-0.3,0.2-0.6,0.2-0.9c0-0.2,0.1-0.3,0.1-0.5s0-0.3,0-0.6v-0.6v-0.1l0,0h-0.1
			v1.5v-0.1c0-0.1,0-0.2-0.1-0.2c0-0.1,0-0.2-0.1-0.5l-0.2-0.5c-0.1-0.2-0.2-0.3-0.2-0.6c-0.1-0.2-0.2-0.3-0.3-0.6
			c-0.2-0.3-0.5-0.7-0.8-1c-0.3-0.2-0.7-0.5-1.2-0.7c-0.4-0.2-0.9-0.3-1.3-0.3c-0.4-0.1-0.8-0.1-1.3-0.1c-0.8,0.1-1.6,0.2-2.3,0.7
			c-0.2,0.1-0.3,0.2-0.6,0.2c-0.2,0.1-0.3,0.2-0.5,0.3c-0.1,0.1-0.2,0.1-0.2,0.2c-0.1,0.1-0.2,0.1-0.2,0.2c-0.1,0.1-0.1,0.1-0.2,0.1
			c0,0-0.1,0.1-0.2,0.1v0.1l-0.1,0.1l-0.1,0.1c-0.6,0.5-1.1,1.2-1.5,1.9c-0.4,0.8-0.7,1.6-0.7,2.4c0,0.2-0.1,0.4-0.1,0.6
			s0,0.4,0,0.6c0,0.2,0,0.4,0,0.6s0,0.4,0.1,0.6c0,0.2,0.1,0.4,0.1,0.6s0.1,0.4,0.2,0.6c0.1,0.2,0.2,0.3,0.2,0.6
			c0.1,0.2,0.2,0.3,0.2,0.5c0.1,0.3,0.2,0.7,0.5,1.1c0.2,0.3,0.3,0.7,0.7,0.9c0.4,0.5,0.8,1,1.2,1.4l0,0c0,0,1,0.8-0.2,2l0,0
			l-2.6,2.2c-0.1,0.1-0.1,0.1-0.2,0.2c-0.7,0.5-0.9-0.5-1-1l-2.7-16.5c-0.1-0.7-0.5-1.3-1.1-1.8c-0.6-0.4-1.3-0.6-2.1-0.5
			c-0.7,0.2-1.3,0.5-1.8,1.2c-0.4,0.6-0.6,1.2-0.5,2.1l0.2,1.2c-0.1,1.3-0.4,2.6-0.8,4c-0.4,1.3-0.8,2.5-1.2,3.6
			c-0.4,1.1-0.8,1.9-1.2,2.6c-0.3,0.7-0.6,1-0.6,1s0,0,0,0.1c0,0.1-0.1,0.1-0.1,0.2c-0.2,0.3-0.3,0.7-0.6,0.9
			c-0.2,0.3-0.4,0.6-0.6,0.9c-0.7,1.1-1.4,2.1-2.3,3.2c-0.1,0.1-0.2,0.2-0.2,0.3c-0.2,0.2-0.2,0.2-0.3,0.3c-0.1,0.1-0.1,0.1-0.2,0.2
			c-6,6.4-4.4-3.5-4.4-3.5c0-0.2,0.1-0.3,0.1-0.5c0.1-0.3,0.2-0.7,0.2-1c0.1-0.3,0.2-0.7,0.2-1c0.5-1.3,1.1-2.6,1.7-3.6
			c0.2-0.2,0.3-0.5,0.5-0.8c0.2-0.2,0.3-0.5,0.6-0.7c0.4-0.4,0.8-0.8,1.2-1.2c0.4-0.3,0.7-0.7,0.9-1.3c0.2-0.5,0.2-1.1,0.1-1.7
			c-0.2-0.8-0.6-1.4-1.3-1.9c-0.7-0.4-1.4-0.6-2.2-0.4l-1.1,0.2c-0.4,0.1-0.7,0.2-1.1,0.3c-0.3,0.1-0.7,0.2-1.1,0.3
			c-0.3,0.1-0.7,0.2-1.1,0.3c-0.3,0.1-0.7,0.2-1.1,0.2c-1.4,0.3-2.8,0.6-4.1,0.6h-0.9c0.1-0.3,0.1-0.5,0.2-0.7
			c0-0.2,0.1-0.2,0.1-0.3c0-0.1,0-0.2,0-0.3s0-0.2,0-0.3c0-0.1,0-0.2,0-0.4c0-0.1,0-0.2,0-0.3c0-0.1,0-0.2,0-0.4
			c0-0.1-0.1-0.2-0.1-0.3c0-0.1-0.1-0.2-0.1-0.3c-0.1-0.2-0.1-0.3-0.2-0.4c-0.1-0.1-0.1-0.2-0.2-0.3c-0.1-0.2-0.2-0.2-0.2-0.3
			c-0.1-0.1-0.2-0.2-0.3-0.3c-0.2-0.1-0.2-0.2-0.4-0.2c-0.1-0.1-0.2-0.1-0.4-0.2c-0.2-0.1-0.2-0.1-0.4-0.1c-0.1,0-0.2,0-0.3-0.1
			c-0.2,0-0.3-0.1-0.4-0.1c-0.1,0-0.2,0-0.3,0h-0.1h-0.1h-0.1h-0.2H419c-0.2,0.1-0.6,0.1-0.8,0.2c-0.2,0.1-0.6,0.2-0.8,0.3
			c-0.2,0.1-0.2,0.2-0.4,0.2c-0.1,0.1-0.2,0.2-0.3,0.3c-0.1,0.1-0.1,0.1-0.2,0.2c-0.1,0.1-0.1,0.1-0.2,0.2c-0.1,0.2-0.2,0.3-0.3,0.4
			c-0.3,0.6-0.6,1.2-0.7,1.9s-0.1,1.3,0.2,1.9c0.2,0.6,0.4,1.2,0.8,1.7c0.3,0.5,0.7,0.9,1.2,1.3c0.2,0.2,0.3,0.2,0.5,0.4l0,0
			c0,0,1.7,1.2,0.6,3.1c0,0-1.2,2.1-3.6,4.4c-0.2,0.2-0.5,0.4-0.7,0.7c-0.6,0.4-1.1,0.8-1.7,1.2c-0.7,0.4-1.3,0.9-2.1,1.2
			c-0.3,0.2-0.7,0.3-1,0.6c-0.3,0.2-0.7,0.3-1.1,0.5c-0.3,0.2-0.7,0.2-1.1,0.4c-0.3,0.1-0.7,0.2-1.1,0.3c-0.7,0.2-1.4,0.2-2.1,0.2
			c-0.3,0.1-0.7,0.1-1,0c-0.2,0-0.3,0-0.5,0s-0.3,0-0.5,0c-0.3-0.1-0.7-0.1-0.9-0.2c-0.2-0.1-0.5-0.1-0.7-0.2
			c-0.2-0.1-0.5-0.2-0.7-0.2c-0.2-0.1-0.3-0.2-0.5-0.3c-0.2-0.1-0.3-0.2-0.5-0.3c-0.2-0.1-0.3-0.2-0.4-0.5c-0.3-0.3-0.6-0.8-0.8-1.3
			c-0.1-0.2-0.2-0.6-0.3-0.9c0-0.1-0.1-0.2-0.1-0.2c-0.1-0.5-0.2-1.2,0.3-1.6c0.5-0.3,1.3,0.2,1.3,0.2l0,0c0.9,0.6,1.8,0.8,1.8,0.8
			l0,0c0.1,0,0.2,0.1,0.2,0.1c0.1,0,0.2,0.1,0.4,0.1l0.8,0.2c1,0.1,2.1,0,3.1-0.2c0.5-0.1,1-0.2,1.5-0.4c0.2-0.1,0.3-0.1,0.3-0.2
			c0,0,0.1,0,0.1-0.1l0.2-0.1c0.1-0.1,0.2-0.1,0.2-0.1c0.3-0.2,0.6-0.3,0.8-0.6c0.5-0.3,1-0.7,1.3-1.2c0.4-0.4,0.7-0.8,1.1-1.3
			c0.3-0.4,0.6-0.9,0.8-1.4c0.2-0.5,0.4-1,0.6-1.5c0.1-0.2,0.2-0.5,0.2-0.7c0.1-0.2,0.2-0.5,0.2-0.8c0.1-0.6,0.2-1.1,0.2-1.7
			s-0.1-1.2-0.2-1.8c-0.1-0.6-0.3-1.2-0.7-1.8s-0.7-1.2-1.2-1.7c-0.5-0.5-1.1-0.9-1.7-1.2c-0.3-0.2-0.7-0.2-1-0.3
			c-0.3-0.1-0.7-0.1-0.9-0.2c-0.3-0.1-0.6-0.1-0.9-0.1c-0.2,0-0.6,0.1-0.8,0.1c-0.2,0.1-0.5,0.1-0.8,0.2c-0.2,0.1-0.5,0.1-0.7,0.2
			c-0.6,0.2-1,0.4-1.4,0.6c-0.4,0.2-0.9,0.4-1.3,0.7c-0.4,0.2-0.8,0.5-1.2,0.8c-0.2,0.2-0.3,0.3-0.6,0.4c-0.2,0.2-0.3,0.2-0.6,0.4
			c-0.2,0.2-0.3,0.3-0.5,0.5s-0.3,0.3-0.5,0.5c-0.3,0.3-0.7,0.7-0.9,1c-0.2,0.3-0.6,0.7-0.8,1.1c-0.2,0.3-0.5,0.7-0.7,1.1
			c-0.2,0.4-0.5,0.7-0.7,1.2c-0.4,0.7-0.7,1.4-1.1,2.1l0,0c-1.9,4.2-6.9,7.4-8.8,8.6c-0.1,0-0.1,0.1-0.2,0.1
			c-0.2,0.1-0.2,0.2-0.3,0.2c-0.1,0.1-0.2,0.1-0.2,0.1l0,0c-0.1,0.1-0.2,0.1-0.3,0.2c-0.2,0.1-0.3,0.1-0.4,0.2
			c-0.2,0.1-0.3,0.1-0.4,0.2c-0.6,0.2-1.2,0.4-1.8,0.6c-0.6,0.2-1.2,0.2-1.8,0.4c-0.2,0-0.2,0.1-0.4,0.1c-0.1,0-0.2,0-0.4,0.1h-0.8
			h-0.7h-0.1h-0.1l0,0h-0.1h0.2l-0.1-0.1h-0.3c-0.2-0.1-0.5-0.1-0.7-0.2c-0.2-0.1-0.4-0.1-0.6-0.2c-0.3-0.1-0.7-0.2-0.9-0.4
			c-0.2-0.2-0.6-0.4-0.8-0.7c-0.1-0.2-0.2-0.3-0.3-0.5c-0.1-0.2-0.2-0.3-0.3-0.6c-0.2-0.4-0.4-0.9-0.6-1.4c-0.2-0.5-0.2-1.1-0.3-1.7
			c-0.1-0.6-0.1-1.2-0.1-1.8c0-0.6,0-1.2,0.1-1.8c0.1-0.7,0.2-1.2,0.4-1.8c0.2-0.6,0.4-1.2,0.7-1.8c0.5-1.2,1.2-2.2,2.1-3.1
			c0.1-0.2,0.2-0.2,0.3-0.3c0.1-0.1,0.2-0.2,0.3-0.2c0.2-0.1,0.2-0.2,0.4-0.3c0.1-0.1,0.2-0.2,0.3-0.2c0.2-0.1,0.3-0.2,0.4-0.2
			c0.2-0.1,0.2-0.1,0.4-0.2c0.2-0.1,0.2-0.1,0.4-0.2c0.1,0,0.2-0.1,0.4-0.1c0.6-0.1,1.2,0,1.7,0.2h0.1l0.1,0.1h0.1h0.1
			c0,0,0.1,0,0.2,0s0.2,0.1,0.3,0.2c0.1,0.1,0.2,0.1,0.2,0.2c0.1,0.1,0.2,0.1,0.2,0.2c0.2,0.2,0.3,0.5,0.4,0.7
			c0.1,0.3,0.2,0.7,0.2,1c0,0.4-0.1,0.7-0.2,1.2s-0.2,0.7-0.3,1.2c-0.2,0.3-0.3,0.6-0.6,0.8l-0.2,0.2c0,0-0.1,0-0.2,0.1l-0.1,0.1
			l-0.1,0.1h-0.1c-0.7,0.4-1.2,0.9-1.4,1.7s-0.2,1.5-0.1,2.2c0.3,0.8,0.9,1.4,1.7,1.8s1.6,0.4,2.4,0.1l0.1-0.1h0.1l0.2-0.1l0.1-0.1
			c0,0,0.1,0,0.1-0.1c0.1,0,0.2-0.1,0.4-0.2c0.2-0.2,0.5-0.3,0.7-0.4c0.5-0.4,0.9-0.7,1.2-1.2c0.7-0.8,1.2-1.7,1.6-2.7
			c0.3-1,0.5-2,0.6-3c0-0.5,0-1-0.1-1.5c-0.1-0.5-0.2-1-0.3-1.5c-0.1-0.2-0.2-0.5-0.2-0.7c-0.1-0.2-0.2-0.5-0.3-0.7
			c-0.2-0.2-0.3-0.5-0.4-0.7c-0.2-0.2-0.3-0.4-0.5-0.7c-0.2-0.2-0.4-0.4-0.7-0.6c-0.2-0.2-0.4-0.3-0.7-0.5c-0.1-0.1-0.2-0.2-0.3-0.2
			c-0.1-0.1-0.2-0.2-0.4-0.2c-0.1-0.1-0.2-0.1-0.3-0.2c-0.1,0-0.2-0.1-0.4-0.2c-0.2-0.1-0.6-0.1-0.8-0.2c-0.2-0.1-0.5-0.1-0.8-0.1
			c-0.1,0-0.2,0-0.3,0s-0.2,0-0.3,0s-0.1,0-0.2,0c-0.1,0-0.1,0-0.2,0h-0.1h-0.1h-0.1h-0.1h-0.1h-0.1c-0.9,0.2-1.7,0.4-2.4,0.8
			c-0.7,0.3-1.4,0.7-2.1,1.2c-0.3,0.2-0.7,0.5-0.9,0.7c-0.3,0.2-0.7,0.5-0.9,0.7c-0.3,0.2-0.6,0.5-0.8,0.7s-0.5,0.6-0.7,0.8
			c-0.2,0.3-0.5,0.6-0.7,0.9c-0.2,0.3-0.5,0.6-0.7,0.9c-0.8,1.2-1.6,2.6-2.1,4.1c-0.2,0.3-0.2,0.7-0.4,1.1c-0.1,0.3-0.2,0.7-0.3,1.2
			c-0.1,0.2-0.1,0.3-0.2,0.6c-0.1,0.2-0.1,0.4-0.2,0.6c0,0.2-0.1,0.3-0.1,0.6c0,0.2-0.1,0.4-0.1,0.6c-0.2,0.8-0.2,1.7-0.2,2.6
			c0,0.4,0.1,0.8,0.2,1.3c0.1,0.5,0.2,0.9,0.3,1.3c0.2,0.4,0.3,0.9,0.5,1.3c0.2,0.5,0.4,0.9,0.7,1.3c0.6,0.9,1.2,1.7,2.1,2.2
			c0.4,0.3,0.9,0.6,1.3,0.8c0.6,0.2,1,0.4,1.4,0.6c0.5,0.2,1,0.2,1.4,0.3c0.5,0.1,0.9,0.1,1.4,0.1h0.7l0.1-0.1l0,0h0.1h0.1h0.1h0.2
			c0,0,0.1-0.1,0.2-0.1c0.2,0,0.4-0.1,0.7-0.1s0.4-0.1,0.7-0.2c0.2-0.1,0.4-0.1,0.6-0.2c0.2-0.1,0.4-0.1,0.6-0.2
			c0.2-0.1,0.4-0.2,0.6-0.2c0.2-0.1,0.4-0.2,0.6-0.2c0.4-0.2,0.7-0.3,1.1-0.5c0.3-0.2,0.7-0.4,1-0.6c0.2-0.1,0.3-0.2,0.5-0.3
			c0.2-0.1,0.3-0.2,0.5-0.3c0.1-0.1,0.2-0.1,0.2-0.2c0.1-0.1,0.2-0.1,0.2-0.2c0.1-0.1,0.2-0.1,0.2-0.2c0.1-0.1,0.2-0.1,0.2-0.2
			c0.2-0.1,0.3-0.2,0.4-0.3c0.2-0.1,0.3-0.2,0.4-0.3c0.2-0.1,0.3-0.2,0.4-0.3c0.2-0.1,0.2-0.2,0.4-0.3c0.3-0.2,0.6-0.5,0.8-0.7
			c0.2-0.2,0.6-0.5,0.8-0.7c0.6-0.6,1.2-1.2,1.7-1.8l0,0c0,0,1.9-2.1,2-1c0,0.5,0.1,1,0.2,1.6c0.1,0.5,0.2,1.1,0.4,1.7
			c0.1,0.2,0.2,0.6,0.3,0.8c0.1,0.2,0.2,0.5,0.4,0.7s0.3,0.5,0.5,0.7c0.2,0.2,0.4,0.5,0.6,0.7c0.4,0.5,0.9,0.9,1.4,1.2
			c0.2,0.2,0.6,0.3,0.8,0.5s0.6,0.2,0.8,0.4c0.6,0.2,1.1,0.4,1.7,0.6c0.5,0.1,1.1,0.2,1.7,0.2c0.2,0,0.6,0,0.8,0s0.5,0,0.7-0.1
			c0.2-0.1,0.5-0.1,0.8-0.2c0.2-0.1,0.5-0.1,0.7-0.2c0.2-0.1,0.5-0.2,0.7-0.2c0.2-0.1,0.5-0.2,0.7-0.2c0.8-0.3,1.7-0.7,2.6-1.3
			c0.8-0.4,1.6-0.9,2.3-1.5c0.4-0.2,0.7-0.6,1.1-0.8c0.3-0.2,0.7-0.6,1-0.8c0.7-0.6,1.3-1.2,1.9-1.8c0.6-0.6,1.2-1.2,1.7-1.9
			c0.2-0.3,0.6-0.7,0.8-1c0.2-0.3,0.6-0.7,0.8-1c0.9-1.2,1.7-2.4,2.1-3.1l0,0c1.6-2.6,3.4-2.2,3.4-2.2l0,0c0.1,0,0.2,0.1,0.3,0.1
			c0.8,0.1,1.7,0.2,2.4,0.2l0,0c0,0,2.2-0.2,1.9,2.7c-0.2,1.3-0.2,2.6-0.2,4l0,0c0,0-0.5,7.1,3.9,7.9c4,0.8,8.8-6.4,11.4-13.7
			c0,0,1.3-4.1,1.9-2l2.4,14.6v0.1c0.1,0.2,0.2,0.5,0.2,0.7c0.1,0.2,0.2,0.4,0.4,0.6c0.5,0.6,1.2,0.9,1.9,1c0.1,0,0.2,0,0.3,0l0,0
			c1.5,0.1,2.2-1,2.2-1l5.7-7.6c1-1.2,2-1.2,2.2-1.2h0.1c0.1,0,0.1,0,0.2,0c0.2,0,0.3,0,0.6,0.1c0.2,0,0.3,0.1,0.6,0.1
			c0.2,0,0.3,0,0.6,0c0.4,0,0.7-0.1,1.2-0.1c0.3-0.1,0.7-0.2,1.1-0.2c0.1,0,0.2-0.1,0.3-0.1l0,0l0,0c0.2-0.1,0.3-0.2,0.5-0.2
			c0.7-0.2,1.6-0.5,1.5,0.2l0,0c0,0.4,0,0.9,0,1.3c0,0.5,0.1,1,0.2,1.6c0.1,0.5,0.2,1.1,0.4,1.7c0.1,0.2,0.2,0.6,0.3,0.8
			c0.1,0.2,0.2,0.5,0.4,0.7s0.3,0.5,0.5,0.7c0.2,0.2,0.4,0.5,0.6,0.7c0.4,0.5,0.9,0.9,1.4,1.2c0.2,0.2,0.6,0.3,0.8,0.5
			s0.6,0.2,0.8,0.4c0.6,0.2,1.1,0.4,1.7,0.6c0.5,0.1,1.1,0.2,1.7,0.2c0.2,0,0.6,0,0.8,0c0.2,0,0.5,0,0.7-0.1
			c0.2-0.1,0.5-0.1,0.8-0.2c0.2-0.1,0.5-0.1,0.7-0.2c0.2-0.1,0.5-0.2,0.7-0.2c0.2-0.1,0.5-0.2,0.7-0.2c0.8-0.3,1.7-0.7,2.6-1.3
			c0.8-0.4,1.6-0.9,2.3-1.5c0.4-0.2,0.7-0.6,1.1-0.8s0.7-0.6,1-0.8c0.7-0.6,1.3-1.2,1.9-1.8c0.6-0.6,1.2-1.2,1.7-1.9
			c0.1-0.1,0.2-0.2,0.2-0.3c0.5-0.6,1.5-1.5,1.5,0l0,0c0,0.1,0,0.1,0,0.2c0,0.4,0.1,0.8,0.2,1.3c0.1,0.5,0.2,0.9,0.3,1.3
			c0.2,0.4,0.3,0.9,0.5,1.3c0.2,0.5,0.4,0.9,0.7,1.3c0.6,0.9,1.2,1.7,2.1,2.2c0.4,0.3,0.9,0.6,1.3,0.8c0.6,0.2,1,0.4,1.4,0.6
			c0.5,0.2,1,0.2,1.5,0.3c0.5,0.1,0.9,0.1,1.4,0.1h0.7l0.1-0.1h0.1h0.1l0,0h0.1h0.2c0,0,0.1-0.1,0.2-0.1c0.2,0,0.4-0.1,0.7-0.1
			c0.2,0,0.4-0.1,0.7-0.2c0.2-0.1,0.4-0.1,0.6-0.2c0.2-0.1,0.4-0.1,0.6-0.2c0.2-0.1,0.4-0.2,0.6-0.2c0.2-0.1,0.4-0.2,0.6-0.2
			c0.4-0.2,0.7-0.3,1.1-0.5c0.3-0.2,0.7-0.4,1-0.6c0.2-0.1,0.3-0.2,0.5-0.3c0.2-0.1,0.3-0.2,0.5-0.3c0.1-0.1,0.2-0.1,0.2-0.2
			c0.1-0.1,0.2-0.1,0.2-0.2c0.1-0.1,0.2-0.1,0.2-0.2c0.1-0.1,0.2-0.1,0.2-0.2c0.2-0.1,0.3-0.2,0.4-0.3c0.2-0.1,0.3-0.2,0.4-0.3
			c0.2-0.1,0.3-0.2,0.4-0.3c0.2-0.1,0.2-0.2,0.4-0.3c0.3-0.2,0.6-0.5,0.8-0.7c0.2-0.2,0.6-0.5,0.8-0.7c0.7-0.7,1.4-1.4,2.1-2.1l0,0
			l0,0c0.1-0.2,0.2-0.2,0.3-0.4c0.4-0.5,1.2-1.1,1.3-0.1c0,0.5,0.1,1,0.2,1.4c0.1,0.5,0.2,1.1,0.4,1.7c0.1,0.2,0.2,0.6,0.3,0.8
			c0.1,0.2,0.2,0.5,0.4,0.7c0.2,0.2,0.3,0.5,0.5,0.7c0.2,0.2,0.4,0.5,0.6,0.7c0.4,0.5,0.9,0.9,1.4,1.2c0.2,0.2,0.6,0.3,0.8,0.5
			c0.2,0.2,0.6,0.2,0.8,0.4c0.6,0.2,1.1,0.4,1.7,0.6c0.5,0.1,1.1,0.2,1.7,0.2c0.2,0,0.6,0,0.8,0s0.5,0,0.7-0.1
			c0.2-0.1,0.5-0.1,0.8-0.2c0.2-0.1,0.5-0.1,0.7-0.2c0.2-0.1,0.5-0.2,0.7-0.2s0.5-0.2,0.7-0.2c0.8-0.3,1.7-0.7,2.6-1.3
			c0.8-0.4,1.6-0.9,2.3-1.5c0.4-0.2,0.7-0.6,1.1-0.8c0.3-0.2,0.7-0.6,1-0.8c0.7-0.6,1.3-1.2,1.9-1.8c0.6-0.6,1.2-1.2,1.7-1.9
			c0.2-0.3,0.6-0.7,0.8-1c0.2-0.3,0.6-0.7,0.8-1l0,0c0.9-1.2,1.6-2.3,2.1-3.1l0,0c1.4-2.4,3-2.3,3.3-2.2c0.2,0,0.2,0.1,0.4,0.1
			c0.8,0.1,1.7,0.2,2.4,0.2l0,0c0,0,2.1-0.2,1.9,2.6c0,0.1,0,0.1,0,0.2c-0.2,1.3-0.2,2.6-0.2,4l0,0c0,0-0.5,7.1,3.9,7.9
			c2.9,0.6,6.2-3.1,8.8-7.9c0,0.2,0,0.5,0,0.7s0,0.6,0.1,0.9c0.1,0.7,0.2,1.2,0.4,1.8c0.1,0.3,0.2,0.7,0.3,0.9
			c0.1,0.2,0.2,0.6,0.4,0.9c0.3,0.7,0.7,1.2,1.3,1.7c0.2,0.2,0.6,0.5,0.8,0.7c0.3,0.2,0.6,0.4,1,0.6c0.7,0.2,1.3,0.4,2,0.6
			c0.2,0,0.3,0.1,0.5,0.1c0.2,0,0.3,0,0.5,0.1c0.2,0,0.3,0,0.4-0.1h0.1h0.1h0.2h0.2c0.2,0,0.3-0.1,0.4-0.1c0.2,0,0.3,0,0.4-0.1
			c0.2,0,0.3-0.1,0.4-0.1c0.2,0,0.2-0.1,0.4-0.1c0.3-0.1,0.7-0.2,0.8-0.3c0.2-0.1,0.2-0.1,0.4-0.2c0.1-0.1,0.2-0.1,0.4-0.2
			c0.2-0.2,0.5-0.3,0.7-0.4c0.2-0.2,0.5-0.3,0.7-0.4c0.4-0.3,0.9-0.7,1.2-1.1c0.4-0.3,0.8-0.7,1.2-1.2c0.7-0.7,1.2-1.6,1.8-2.5
			l0.7-1.1h0.2c0.7,0,1.2-0.1,1.8-0.2c0.6-0.1,1.1-0.3,1.7-0.7c0.2-0.2,0.5-0.3,0.7-0.4c0.2-0.2,0.4-0.3,0.7-0.4
			c0.4-0.3,0.8-0.7,1.2-1.1c0.4-0.3,0.7-0.7,1.1-1.2c0.3-0.3,0.7-0.7,0.9-1.2c0.2-0.2,0.3-0.4,0.4-0.6c0.2-0.2,0.3-0.4,0.4-0.6
			C594.7,211,594.7,210.7,594.4,210.4z M398,207.4c0.2-0.3,0.3-0.7,0.5-1.1c0.3-0.7,0.7-1.2,1.3-1.9c0.2-0.2,0.5-0.5,0.7-0.7
			c0.2-0.2,0.5-0.5,0.9-0.7c0.7-0.4,1.3-0.7,2-0.7c0.3-0.1,0.7-0.1,1,0c0.2,0,0.3,0.1,0.5,0.1c0.2,0,0.3,0.1,0.5,0.1
			c0.3,0.1,0.6,0.2,0.7,0.3c0.1,0.1,0.2,0.2,0.2,0.2c0.1,0.1,0.1,0.2,0.2,0.2c0.1,0.2,0.2,0.2,0.2,0.3c0,0.1,0.1,0.2,0.1,0.2
			c0,0.1,0,0.2,0.1,0.2c0,0.1,0,0.2,0,0.2s0,0.2,0,0.3c0,0.1,0,0.2,0,0.3c0,0.1,0,0.2,0,0.4s0,0.2,0,0.4c0,0.1,0,0.2-0.1,0.4
			c0,0.2,0,0.2-0.1,0.4c0,0.2-0.1,0.2-0.1,0.4c-0.1,0.3-0.2,0.6-0.2,0.9c-0.1,0.2-0.2,0.6-0.3,0.8c-0.1,0.3-0.2,0.6-0.4,0.7
			c-0.1,0.1-0.2,0.2-0.2,0.3c-0.1,0.1-0.2,0.2-0.2,0.2c-0.1,0.1-0.1,0.1-0.1,0.2l-0.1,0.1l-0.1,0.1l-0.1,0.1l-0.1,0.1
			c0,0-0.1,0-0.1,0.1c-0.2,0.1-0.2,0.2-0.4,0.2c-0.2,0.1-0.2,0.2-0.4,0.2c-0.3,0.2-0.6,0.2-0.9,0.4c-0.2,0.1-0.6,0.2-0.9,0.3
			c-0.6,0.2-1.2,0.2-1.9,0.2c-0.1,0-0.2-0.1-0.2-0.1c-2.5-0.6-2.6-2.1-2.5-3.1c0-0.1,0.1-0.2,0.1-0.2
			C397.8,208.1,397.9,207.7,398,207.4z M419,201c0-0.1,0.1-0.2,0.2-0.3c0.1-0.2,0.3-0.3,0.7-0.5h0.1c0,0,0.1,0,0.2,0l0.1-0.1h0.1
			h0.1h0.1V200c0.1,0,0.2,0,0.2,0c0.1,0,0.2,0,0.2,0c0.3,0,0.7,0.1,0.8,0.2c0.1,0,0.2,0.1,0.2,0.2c0.1,0.1,0.2,0.2,0.2,0.3
			c0.1,0.2,0.2,0.6,0.2,1c0,0.1,0,0.2,0,0.3c0,0.1,0,0.2-0.1,0.3c0,0.1,0,0.2,0,0.2c0,0.1,0,0.2,0,0.3c0,0.1-0.1,0.3-0.2,0.7
			c-0.2-0.1-0.5-0.2-0.7-0.2c-0.2-0.1-0.4-0.2-0.6-0.3c-0.1-0.1-0.2-0.1-0.3-0.2c-0.1-0.1-0.2-0.1-0.3-0.2l-0.6-0.4
			c-0.2-0.2-0.2-0.3-0.4-0.5c-0.1-0.2-0.2-0.3-0.2-0.6C419,201.2,419,201.1,419,201z M433.2,221.7L433.2,221.7l1.1-0.7
			c-0.2,0.2-0.5,0.3-0.7,0.4C433.4,221.6,433.3,221.6,433.2,221.7z M461.3,209.5c-0.2,0.2-0.3,0.5-0.6,0.7c-0.2,0.2-0.3,0.5-0.6,0.7
			c-0.5-0.4-1-0.9-1.3-1.6l-0.2-0.6c-0.1-0.1-0.1-0.2-0.1-0.3c0-0.1-0.1-0.2-0.1-0.2l-0.2-0.6c0-0.1-0.1-0.2-0.1-0.2
			c0-0.1,0-0.2-0.1-0.2v-0.6c0-0.1,0-0.2,0.1-0.2v-0.2c0.1-0.2,0.1-0.3,0.2-0.5c0.1-0.2,0.1-0.3,0.2-0.5c0.2-0.3,0.3-0.7,0.6-0.9
			v-0.1h0.1v-0.1c0.1-0.1,0.1-0.1,0.1-0.2l0.2-0.2c0.1-0.1,0.2-0.2,0.3-0.4c0.2-0.2,0.5-0.4,0.8-0.7c0.3-0.2,0.6-0.2,0.8-0.2
			c0.2,0,0.3,0,0.4,0.1c0.2,0,0.2,0.1,0.4,0.2c0.1,0.1,0.2,0.2,0.3,0.4c0.1,0.1,0.1,0.2,0.2,0.3c0.1,0.1,0.1,0.2,0.2,0.3v0.1
			c0,0,0,0,0,0.1v0.1l0.1,0.1v0.1v0.1c0,0.1,0.1,0.1,0.1,0.2c0,0.1,0,0.1,0.1,0.2c0,0.2,0,0.4,0,0.7c0,0.4-0.1,0.9-0.3,1.5
			c-0.1,0.1-0.1,0.2-0.2,0.3c-0.1,0.1-0.1,0.2-0.2,0.3c-0.1,0.2-0.1,0.2-0.2,0.4c-0.1,0.1-0.1,0.2-0.2,0.3
			C461.9,208.6,461.7,209.1,461.3,209.5z M472.9,207.4c0.2-0.3,0.3-0.7,0.5-1.1c0.3-0.7,0.7-1.2,1.3-1.9c0.2-0.2,0.5-0.5,0.7-0.7
			s0.6-0.5,0.9-0.7c0.7-0.4,1.3-0.7,2-0.7c0.3-0.1,0.7-0.1,1,0c0.2,0,0.3,0.1,0.5,0.1s0.3,0.1,0.5,0.1c0.3,0.1,0.6,0.2,0.7,0.3
			c0.1,0.1,0.2,0.2,0.2,0.2c0.1,0.1,0.1,0.2,0.2,0.2c0.1,0.2,0.2,0.2,0.2,0.3c0,0.1,0.1,0.2,0.1,0.2c0,0.1,0,0.2,0,0.2s0,0.2,0,0.2
			s0,0.2,0,0.3c0,0.1,0,0.2,0,0.3c0,0.1,0,0.2,0,0.4s0,0.2,0,0.4c0,0.1,0,0.2-0.1,0.4c0,0.2,0,0.2,0,0.4s-0.1,0.2-0.1,0.4
			c-0.1,0.3-0.2,0.6-0.2,0.9c-0.1,0.2-0.2,0.6-0.3,0.8c-0.1,0.3-0.2,0.6-0.4,0.7c-0.1,0.1-0.2,0.2-0.2,0.3c-0.1,0.1-0.2,0.2-0.2,0.2
			c-0.1,0.1-0.1,0.1-0.1,0.2l-0.1,0.1v0.1l-0.1,0.1l-0.1,0.1c0,0-0.1,0-0.1,0.1c-0.2,0.1-0.3,0.2-0.4,0.2c-0.2,0.1-0.2,0.2-0.4,0.2
			c-0.3,0.2-0.6,0.2-0.9,0.4c-0.2,0.1-0.6,0.2-0.9,0.3c-0.6,0.2-1.2,0.2-1.9,0.2c-0.1,0-0.2-0.1-0.2-0.1l0,0
			c-2.6-0.6-2.7-2.2-2.5-3.2c0-0.1,0-0.1,0.1-0.2c0.1-0.2,0.2-0.4,0.2-0.7c0-0.1,0-0.1,0-0.1l0,0
			C472.9,207.6,472.9,207.5,472.9,207.4z M524.5,207.4c0.2-0.3,0.3-0.7,0.5-1.1c0.3-0.7,0.7-1.2,1.3-1.9c0.2-0.2,0.5-0.5,0.7-0.7
			s0.6-0.5,0.9-0.7c0.7-0.4,1.3-0.7,2-0.7c0.3-0.1,0.7-0.1,1,0c0.2,0,0.3,0.1,0.5,0.1c0.2,0,0.3,0.1,0.5,0.1
			c0.3,0.1,0.6,0.2,0.7,0.3c0.1,0.1,0.2,0.2,0.2,0.2c0.1,0.1,0.1,0.2,0.2,0.2c0.1,0.2,0.2,0.2,0.2,0.3c0,0.1,0.1,0.2,0.1,0.2
			c0,0.1,0,0.2,0.1,0.2c0,0.1,0,0.2,0,0.2s0,0.2,0,0.3c0,0.1,0,0.2,0,0.3c0,0.1,0,0.2,0,0.4s0,0.2,0,0.4c0,0.1,0,0.2-0.1,0.4
			c0,0.2,0,0.2-0.1,0.4c0,0.2-0.1,0.2-0.1,0.4c-0.1,0.3-0.2,0.6-0.2,0.9c-0.1,0.2-0.2,0.6-0.3,0.8c-0.1,0.3-0.2,0.6-0.4,0.7
			c-0.1,0.1-0.2,0.2-0.2,0.3c-0.1,0.1-0.2,0.2-0.2,0.2c-0.1,0.1-0.1,0.1-0.1,0.2l-0.1,0.1l-0.1,0.1l-0.1,0.1l-0.1,0.1
			c0,0-0.1,0-0.1,0.1c-0.2,0.1-0.3,0.2-0.4,0.2c-0.2,0.1-0.2,0.2-0.4,0.2c-0.3,0.2-0.6,0.2-0.9,0.4c-0.2,0.1-0.6,0.2-0.9,0.3
			c-0.6,0.2-1.2,0.2-1.9,0.2c-0.1,0-0.2-0.1-0.2-0.1l0,0c-3.9-0.8-2.1-4.1-2.1-4.1l-0.1,0.1C524.4,207.6,524.5,207.6,524.5,207.4z
			 M545.5,201c0-0.1,0.1-0.2,0.2-0.3c0.1-0.2,0.3-0.3,0.7-0.5h0.1c0,0,0.1,0,0.2,0l0.1-0.1h0.1h0.1h0.1V200c0.1,0,0.2,0,0.2,0
			c0.1,0,0.2,0,0.2,0c0.3,0,0.7,0.1,0.8,0.2c0.1,0,0.2,0.1,0.2,0.2c0.1,0.1,0.2,0.2,0.2,0.3c0.1,0.2,0.2,0.6,0.2,1
			c0,0.1,0,0.2,0,0.3c0,0.1,0,0.2-0.1,0.3c0,0.1,0,0.2,0,0.2c0,0.1,0,0.2,0,0.3c0,0.1-0.1,0.3-0.2,0.7c-0.2-0.1-0.5-0.2-0.7-0.2
			c-0.2-0.1-0.4-0.2-0.6-0.3c-0.1-0.1-0.2-0.1-0.3-0.2c-0.1-0.1-0.2-0.1-0.3-0.2l-0.6-0.4c-0.2-0.2-0.2-0.3-0.4-0.5
			c-0.1-0.2-0.2-0.3-0.2-0.6C545.5,201.2,545.5,201.1,545.5,201z M558.3,221.1L558.3,221.1c-0.1-0.3-0.2-0.6-0.2-0.7L558.3,221.1z
			 M582.6,217.2c-0.2,0.3-0.6,0.7-0.8,1c-0.2,0.2-0.3,0.3-0.5,0.4c-0.2,0.2-0.3,0.3-0.5,0.4c-0.7,0.5-1.4,1-2.1,1.3
			c-0.7,0.3-1.5,0.6-2.2,0.7c-0.1,0-0.2,0-0.2,0c-0.1,0-0.2,0-0.2,0h-0.6h-0.2h-0.1c-0.1,0-0.2-0.1-0.2-0.1c-0.2,0-0.3,0-0.5-0.1
			c-0.3-0.1-0.6-0.2-0.7-0.3c-0.1-0.1-0.2-0.1-0.3-0.2c-0.1-0.1-0.2-0.2-0.2-0.2c-0.1-0.1-0.1-0.2-0.2-0.3c-0.1-0.1-0.1-0.2-0.2-0.3
			c-0.1-0.3-0.2-0.7-0.2-0.9c-0.2-0.6-0.2-1.3-0.1-2.1c0-0.4,0.1-0.8,0.2-1.2c0.1-0.4,0.2-0.8,0.2-1.2c0.4-1.7,1.1-3.2,1.9-4.7
			c0.4-0.7,0.8-1.5,1.3-2.1l0.1-0.1c0,0,0-0.1,0.1-0.1v0.6c0,0.7,0.1,1.3,0.2,1.9c0.1,0.6,0.3,1.2,0.6,1.8c0.1,0.2,0.1,0.3,0.2,0.4
			c0.1,0.2,0.2,0.3,0.2,0.5l0.1,0.1c0,0,0,0.1,0.1,0.1v0.1v0.1h0.1l0.1,0.2c0.1,0.2,0.2,0.3,0.2,0.3c0.7,1.1,1.5,2,2.4,2.8
			c0.2,0.2,0.5,0.3,0.7,0.5c0.2,0.2,0.6,0.3,0.8,0.5c0.2,0.1,0.2,0.1,0.4,0.2C582.3,217.1,582.5,217.1,582.6,217.2
			C582.6,217.1,582.6,217.2,582.6,217.2z M586.6,207.1c-0.1,0.4-0.1,0.9-0.2,1.3s-0.2,0.9-0.2,1.3c-0.1,0.4-0.2,0.9-0.4,1.3
			c-0.2,0.4-0.2,0.9-0.4,1.3c-0.1,0.2-0.2,0.5-0.3,0.7c-0.1,0.2-0.2,0.5-0.3,0.7c-0.1-0.1-0.2-0.1-0.2-0.2c-0.1-0.1-0.2-0.2-0.3-0.3
			s-0.2-0.2-0.3-0.4c-0.1-0.1-0.2-0.2-0.2-0.4c-0.4-0.7-0.7-1.3-0.8-1.9c0-0.1-0.1-0.1-0.1-0.2c0,0,0-0.1-0.1-0.2v0.1l0,0
			c0,0-0.1,0-0.1-0.1V210c-0.1-0.2-0.1-0.3-0.1-0.4c-0.1-0.2-0.1-0.3-0.1-0.5c0-0.2,0-0.3,0-0.5s0-0.3,0-0.5s0-0.3,0-0.5
			s0-0.3,0-0.5s0-0.3,0.1-0.5c0-0.3,0.1-0.7,0.2-0.9c0.1-0.3,0.1-0.6,0.2-0.9c0-0.3,0.1-0.6,0.2-0.9c0-0.1,0.1-0.2,0.1-0.2
			c0-0.1,0.1-0.2,0.1-0.2c0.1-0.2,0.2-0.3,0.2-0.3c0.3-0.6,0.7-0.8,1.3-0.8c0.1,0,0.2-0.1,0.3-0.1c0.1,0,0.1,0,0.2,0h0.1
			c0.1,0,0.2,0.1,0.2,0.2c0.1,0,0.2,0.1,0.2,0.2c0.2,0.2,0.3,0.4,0.4,0.8c0.2,0.3,0.2,0.7,0.2,1.2c0.1,0.4,0.1,0.8,0.1,1.3
			C586.6,206.2,586.6,206.7,586.6,207.1z"/>
		<g>
			<g>
				<polygon class="st1" points="336.1,155.3 338.7,160.3 344.2,161.2 340.2,165.1 341.2,170.7 336.1,168.1 331.1,170.7 
					332.1,165.1 328,161.2 333.6,160.3 				"/>
				<g>
					<path class="st1" d="M340.1,218.7L340.1,218.7L340.1,218.7c-0.2,0-0.3,0-0.4-0.1c-2-0.4-2.5-3.3-2.6-5.2v-2.6
						c0-2.4,1.7-3.2,1.7-3.2h-0.1c4.8-1.8,8.4-8.5,8.4-16.6c0-3-0.5-5.8-1.4-8.3h-19.2c-0.9,2.5-1.4,5.3-1.4,8.3
						c0,8,3.6,14.8,8.4,16.6l0,0c0,0,1.7,0.7,1.7,3.1v1l0,0c0,0,0.4,6.4-2.6,6.9c-0.2,0-0.2,0-0.3,0h-0.1l0,0
						c-2,0.2-3.3,0.7-3.3,1.1c0,0.7,3.3,1.3,7.3,1.3c4.1,0,7.3-0.6,7.3-1.3C343.5,219.4,342.1,219,340.1,218.7z"/>
					<path class="st1" d="M345.8,180.9c0.2-0.2,0.2-0.5,0.2-0.8c0-0.8-0.7-1.5-1.4-1.6c-0.2-0.7-0.7-1.2-1.4-1.2
						c-0.2-0.8-0.8-1.4-1.7-1.4c-0.1,0-0.2,0-0.2,0c-0.3-0.8-1.2-1.3-2.1-1.3c-0.4,0-0.8,0.1-1.2,0.3c-0.4-0.6-1.1-0.9-1.8-0.9
						c-0.7,0-1.4,0.3-1.8,0.9c-0.3-0.2-0.7-0.3-1.2-0.3c-0.9,0-1.7,0.6-2.1,1.3c-0.1,0-0.2,0-0.2,0c-0.8,0-1.5,0.6-1.7,1.4
						c-0.7,0.1-1.2,0.6-1.4,1.2c-0.8,0.1-1.4,0.7-1.4,1.6c0,0.2,0.1,0.6,0.2,0.8H345.8z"/>
				</g>
				<path class="st1" d="M363.5,188.7c0-12-7.7-22.2-18.4-25.9l-2.7,2.6c10.6,2.7,18.4,12.3,18.4,23.8c0,7.8-2.1,14.7-8.5,22.8l0,0
					l-16.1,20.7L320,212.1l0,0c-6.4-8.1-8.5-15-8.5-22.8c0-11.5,7.9-21.1,18.5-23.8l-2.7-2.6c-10.7,3.7-18.4,13.9-18.4,25.9
					c0,8.7,2.3,16.4,9.4,25.4l0,0l17.9,23l17.9-23l0,0C361.2,205.1,363.5,197.4,363.5,188.7z"/>
				<polygon class="st1" points="336.1,155.3 338.7,160.3 344.2,161.2 340.2,165.1 341.2,170.7 336.1,168.1 331.1,170.7 
					332.1,165.1 328,161.2 333.6,160.3 				"/>
			</g>
			<path class="st1" d="M387,177.8c0.9-1.2,1.7-1.6,1.7-1.6c-11.7-7.8-23.7,2.1-23.7,2.1v0.1c1.2,3.3,1.9,6.8,1.9,10.3
				c0,4.5-0.7,8.8-2.3,13.2l0,0c0,0,9.5-12.3,22.7-7.4c0,0-1-1-2-2.7c-1-1.9-1.9-4.6-1.1-7.9C384.9,180.8,386,178.9,387,177.8z
				 M382.9,191.8c0,0-7.7-1.9-14.2,3.7c1.6-9.3-1-16.3-1-16.3s8.9-6.5,17.9-2.7C385.6,176.5,379.2,183.1,382.9,191.8z"/>
			<path class="st1" d="M288.2,183.9c0.7,3.2-0.1,6-1.1,7.9c-0.9,1.7-2,2.7-2,2.7c13.1-5,22.7,7.4,22.7,7.4l0,0
				c-1.7-4.4-2.3-8.7-2.3-13.2c0-3.6,0.7-7,1.9-10.3v-0.1c0,0-12.1-9.8-23.7-2.1c0,0,0.7,0.4,1.7,1.6
				C286.2,178.9,287.4,180.8,288.2,183.9z M286.7,176.5c8.9-3.8,17.9,2.7,17.9,2.7s-2.5,7-0.9,16.3c-6.5-5.6-14.2-3.7-14.2-3.7
				C293,183.1,286.7,176.5,286.7,176.5z"/>
		</g>
		<path class="st1" d="M280.1,219.3"/>
	</g>
</g>
</svg>
