<?xml version="1.0" encoding="utf-8"?>
<!-- Generator: Adobe Illustrator 19.1.0, SVG Export Plug-In . SVG Version: 6.00 Build 0)  -->
<svg version="1.1" id="Layer_1" xmlns="http://www.w3.org/2000/svg" xmlns:xlink="http://www.w3.org/1999/xlink" x="0px" y="0px"
	 viewBox="0 0 200 200" style="enable-background:new 0 0 200 200;" xml:space="preserve">
<style type="text/css">
	.st0{opacity:0.75;fill:#333333;enable-background:new    ;}
</style>
<g>
	<path id="Layer_1_1_" class="st0" d="M110.3,98l3.4-10.6l-17.9,7.4L110.3,98 M149.1,77.9c-13.6-13.7-46.6-11.2-59.6-8
		c-15.1,3.9-19.2,15.5-18.8,34.1c0.2,10.8,4.8,20.3,13.9,23.5c18.5,6.4,34.3,5.5,51-10.4c-8.5-9.2-15.6-12.4-27.2-11.6
		c-11.3,0.5-17.7-1.2-25.7-10c9.8-9.4,15.8-14,27.6-15.1c13.2-1.3,25,4.2,30,9.4c4.8,4.9,7.2,16.1,6,29.6
		c-0.9,10.9-4.4,17.4-12.4,19.7c-10.4,3.2-25.4,4.8-39.3,4.2c-16.4-0.7-25-4-27.4-6.6c-5.1-5.6-8.7-17.6-9.6-31.4
		c-0.9-13.7,1.3-26.7,5.5-33.8c4.2-7.1,19.8-12.1,42.8-13.5c19.2-1.1,37,0.3,37.2,0.3l-1.2-15.3c0,0-41,4.8-47.3,5.3
		C79.4,50.1,58.9,53.3,52,64.9c-12.3,20.6-9.1,64.5,5.7,80.9c13.3,14.8,59.2,12.3,79.8,6.1c9.3-2.8,19.7-10.4,21.5-31.3
		C160.4,106.9,158.4,87.4,149.1,77.9L149.1,77.9z M107.9,114.8l14.5,3.2l-17.9,7.4L107.9,114.8L107.9,114.8z"/>
</g>
</svg>
