<?xml version="1.0" encoding="utf-8"?>
<!-- Generator: Adobe Illustrator 19.1.0, SVG Export Plug-In . SVG Version: 6.00 Build 0)  -->
<svg version="1.1" id="Layer_1" xmlns="http://www.w3.org/2000/svg" xmlns:xlink="http://www.w3.org/1999/xlink" x="0px" y="0px"
	 viewBox="0 0 200 200" style="enable-background:new 0 0 200 200;" xml:space="preserve">
<style type="text/css">
	.st0{fill:#E5A229;}
	.st1{fill:#F1BE21;}
	.st2{fill:#FFFFFF;}
	.st3{fill:#EBEAEA;}
	.st4{fill:#0071BC;}
	.st5{fill:#29ABE2;}
	.st6{fill:#B3B3B3;}
	.st7{fill:#E6E6E6;}
	.st8{fill:#E44D26;}
	.st9{fill:#F16529;}
	.st10{fill:#EBEBEB;}
	.st11{fill:#141C28;}
	.st12{fill:#0868AA;}
	.st13{fill:#141B28;}
	.st14{fill:#0968AB;}
	.st15{fill:#1C232F;}
	.st16{fill:#3A86BC;}
	.st17{fill:#131B28;}
	.st18{fill:#CC6799;}
	.st19{fill:#9BD9EF;}
	.st20{fill:#201F1F;}
	.st21{fill:#7CB9E5;}
	.st22{fill:#9CD9EF;}
	.st23{fill:#030303;}
	.st24{fill:#F3C9B0;}
	.st25{fill:#C39A85;}
	.st26{fill:#99D5EB;}
	.st27{fill:#98D4E9;}
	.st28{fill:#99D6EB;}
	.st29{fill:#98D4EA;}
	.st30{fill:#97D3E8;}
	.st31{fill:#95CFE4;}
	.st32{fill:#FEFEFE;}
	.st33{fill:#AC5C51;}
	.st34{fill:#AB5C51;}
	.st35{fill:#FDFCFC;}
	.st36{fill:#FDFBFB;}
	.st37{opacity:0.75;enable-background:new    ;}
	.st38{fill:url(#SVGID_1_);}
	.st39{fill:#E579FF;}
	.st40{fill:url(#SVGID_2_);}
	.st41{fill:#31C5F0;}
	.st42{fill:url(#SVGID_3_);}
	.st43{fill:#FF7F18;}
	.st44{fill:url(#SVGID_4_);}
	.st45{fill:#D8A1FF;}
</style>
<g>
	
		<radialGradient id="SVGID_1_" cx="-292.9798" cy="-347.7726" r="3.792761e-002" gradientTransform="matrix(2291.6716 0 0 -2218.7549 671499.3125 -771548.875)" gradientUnits="userSpaceOnUse">
		<stop  offset="0" style="stop-color:#442F55;stop-opacity:0.98"/>
		<stop  offset="1" style="stop-color:#12002C"/>
	</radialGradient>
	<path class="st38" d="M48.2,48.3h114.4v111.2H48.2V48.3z"/>
	<path class="st45" d="M48.2,48.3h114.4v111.2H48.2V48.3z M43,164.8h124.8V43.1H43V164.8z M131.2,101.8c2.7,0,3.6,0,3.8-0.1
		c0-0.4,0.1-0.6,0.1-0.9c0-2.8-1.4-8-6.8-8c-5,0-7.1,4.4-7.6,9H131.2L131.2,101.8z M120.7,108.9c0.1,7,3.4,11.7,11.3,11.7
		c3.1,0,5.7-0.4,8.5-1.6c0.4-0.2,0.6-0.1,0.6,0.4v6.5c0,0.5-0.2,0.8-0.5,1c-2.8,1.4-6.2,2-10.4,2c-13.7,0-18.9-10.1-18.9-21.4
		c0-12.3,6.3-22.3,17.5-22.3c11.3,0,15.3,9.5,15.3,17.3c0,2.5-0.2,4.5-0.4,5.5c-0.1,0.4-0.3,0.6-0.7,0.7c-1,0.2-4.1,0.4-8.7,0.4
		h-13.6V108.9z M92.8,103.6c-1.5-5.8-5-18.4-6.3-24.4h-0.1c-1.1,6.1-4,16.4-6.1,24.4H92.8z M78.2,112l-4.1,15.5
		c-0.1,0.4-0.3,0.6-0.8,0.6h-7.6c-0.5,0-0.6-0.2-0.5-0.8l14.8-51.6c0.3-0.9,0.4-1.7,0.5-4.3c0-0.4,0.2-0.5,0.4-0.5h10.9
		c0.4,0,0.5,0.1,0.6,0.5l16.5,56c0.1,0.4,0,0.7-0.4,0.7h-8.6c-0.4,0-0.7-0.2-0.8-0.5L94.9,112L78.2,112L78.2,112z"/>
</g>
</svg>
