<?xml version="1.0" encoding="utf-8"?>
<!-- Generator: Adobe Illustrator 19.1.0, SVG Export Plug-In . SVG Version: 6.00 Build 0)  -->
<svg version="1.1" id="Layer_1" xmlns="http://www.w3.org/2000/svg" xmlns:xlink="http://www.w3.org/1999/xlink" x="0px" y="0px"
	 viewBox="0 0 200 200" style="enable-background:new 0 0 200 200;" xml:space="preserve">
<style type="text/css">
	.st0{fill:#E5A229;}
	.st1{fill:#F1BE21;}
	.st2{fill:#FFFFFF;}
	.st3{fill:#EBEAEA;}
	.st4{fill:#0071BC;}
	.st5{fill:#29ABE2;}
	.st6{fill:#B3B3B3;}
	.st7{fill:#E6E6E6;}
	.st8{fill:#E44D26;}
	.st9{fill:#F16529;}
	.st10{fill:#EBEBEB;}
	.st11{fill:#141C28;}
	.st12{fill:#0868AA;}
	.st13{fill:#141B28;}
	.st14{fill:#0968AB;}
	.st15{fill:#1C232F;}
	.st16{fill:#3A86BC;}
	.st17{fill:#131B28;}
	.st18{fill:#CC6799;}
	.st19{fill:#9BD9EF;}
	.st20{fill:#201F1F;}
	.st21{fill:#7CB9E5;}
	.st22{fill:#9CD9EF;}
	.st23{fill:#030303;}
	.st24{fill:#F3C9B0;}
	.st25{fill:#C39A85;}
	.st26{fill:#99D5EB;}
	.st27{fill:#98D4E9;}
	.st28{fill:#99D6EB;}
	.st29{fill:#98D4EA;}
	.st30{fill:#97D3E8;}
	.st31{fill:#95CFE4;}
	.st32{fill:#FEFEFE;}
	.st33{fill:#AC5C51;}
	.st34{fill:#AB5C51;}
	.st35{fill:#FDFCFC;}
	.st36{fill:#FDFBFB;}
	.st37{opacity:0.75;enable-background:new    ;}
	.st38{fill:url(#SVGID_1_);}
	.st39{fill:#E579FF;}
	.st40{fill:url(#SVGID_2_);}
	.st41{fill:#31C5F0;}
	.st42{fill:url(#SVGID_3_);}
	.st43{fill:#FF7F18;}
	.st44{fill:url(#SVGID_4_);}
	.st45{fill:#D8A1FF;}
</style>
<g>
	
		<radialGradient id="SVGID_1_" cx="-73.0768" cy="-347.7726" r="3.792761e-002" gradientTransform="matrix(2291.6716 0 0 -2218.7549 167551.5469 -771548.875)" gradientUnits="userSpaceOnUse">
		<stop  offset="0" style="stop-color:#423325;stop-opacity:0.98"/>
		<stop  offset="1" style="stop-color:#1C0A00"/>
	</radialGradient>
	<path class="st38" d="M45.8,48.3h114.4v111.2H45.8V48.3z"/>
	<path class="st43" d="M45.8,48.3h114.4v111.2H45.8V48.3z M40.6,164.8h124.8V43.1H40.6V164.8z M122.3,86.5c0-0.4,0.2-0.6,0.6-0.6
		h8.2c0.4,0,0.6,0.2,0.6,0.6v41c0,0.4-0.1,0.6-0.6,0.6H123c-0.5,0-0.7-0.3-0.7-0.7L122.3,86.5L122.3,86.5L122.3,86.5z M121.7,74.7
		c0-3.3,2.3-5.3,5.3-5.3c3.2,0,5.3,2.1,5.3,5.3c0,3.4-2.2,5.3-5.4,5.3C123.9,80,121.7,78.1,121.7,74.7z M98.3,103.6
		c-1.5-5.8-4.9-18.4-6.2-24.4h-0.1c-1.1,6.1-3.8,16.4-6,24.4H98.3z M83.9,112l-4.1,15.6c-0.1,0.4-0.3,0.5-0.8,0.5h-7.6
		c-0.5,0-0.6-0.2-0.5-0.8l14.8-51.7c0.3-0.9,0.4-1.8,0.5-4.3c0-0.4,0.2-0.5,0.4-0.5h10.9c0.4,0,0.5,0.1,0.6,0.5l16.5,56.1
		c0.1,0.4,0,0.7-0.4,0.7h-8.6c-0.4,0-0.7-0.1-0.8-0.5l-4.3-15.6H83.9L83.9,112z"/>
</g>
</svg>
