<?xml version="1.0" encoding="utf-8"?>
<!-- Generator: Adobe Illustrator 19.1.0, SVG Export Plug-In . SVG Version: 6.00 Build 0)  -->
<svg version="1.1" id="Layer_1" xmlns="http://www.w3.org/2000/svg" xmlns:xlink="http://www.w3.org/1999/xlink" x="0px" y="0px"
	 viewBox="0 0 200 200" style="enable-background:new 0 0 200 200;" xml:space="preserve">
<style type="text/css">
	.st0{fill:#E5A229;}
	.st1{fill:#F1BE21;}
	.st2{fill:#FFFFFF;}
	.st3{fill:#EBEAEA;}
	.st4{fill:#0071BC;}
	.st5{fill:#29ABE2;}
	.st6{fill:#B3B3B3;}
	.st7{fill:#E6E6E6;}
	.st8{fill:#E44D26;}
	.st9{fill:#F16529;}
	.st10{fill:#EBEBEB;}
	.st11{fill:#141C28;}
	.st12{fill:#0868AA;}
	.st13{fill:#141B28;}
	.st14{fill:#0968AB;}
	.st15{fill:#1C232F;}
	.st16{fill:#3A86BC;}
	.st17{fill:#131B28;}
	.st18{fill:#CC6799;}
	.st19{fill:#9BD9EF;}
	.st20{fill:#201F1F;}
	.st21{fill:#7CB9E5;}
	.st22{fill:#9CD9EF;}
	.st23{fill:#030303;}
	.st24{fill:#F3C9B0;}
	.st25{fill:#C39A85;}
	.st26{fill:#99D5EB;}
	.st27{fill:#98D4E9;}
	.st28{fill:#99D6EB;}
	.st29{fill:#98D4EA;}
	.st30{fill:#97D3E8;}
	.st31{fill:#95CFE4;}
	.st32{fill:#FEFEFE;}
	.st33{fill:#AC5C51;}
	.st34{fill:#AB5C51;}
	.st35{fill:#FDFCFC;}
	.st36{fill:#FDFBFB;}
	.st37{opacity:0.75;enable-background:new    ;}
	.st38{fill:url(#SVGID_1_);}
	.st39{fill:#E579FF;}
	.st40{fill:url(#SVGID_2_);}
	.st41{fill:#31C5F0;}
	.st42{fill:url(#SVGID_3_);}
	.st43{fill:#FF7F18;}
	.st44{fill:url(#SVGID_4_);}
	.st45{fill:#D8A1FF;}
</style>
<g>
	
		<radialGradient id="SVGID_1_" cx="146.8279" cy="-347.7726" r="3.792761e-002" gradientTransform="matrix(2291.6716 0 0 -2218.7549 -336396.1875 -771548.875)" gradientUnits="userSpaceOnUse">
		<stop  offset="0" style="stop-color:#34364E;stop-opacity:0.98"/>
		<stop  offset="1" style="stop-color:#0C0824"/>
	</radialGradient>
	<path class="st38" d="M47.3,48.3h114.4v111.2H47.3V48.3z"/>
	<path class="st41" d="M47.3,48.3h114.4v111.2H47.3V48.3z M42.1,164.8h124.8V43.1H42.1V164.8z M126.2,93c-4.1,0-5.5,2.1-5.5,3.8
		c0,1.9,0.9,3.2,6.4,6c8.2,4,10.7,7.7,10.7,13.3c0,8.3-6.3,12.8-14.9,12.8c-4.5,0-8.4-0.9-10.7-2.2c-0.4-0.2-0.4-0.4-0.4-0.8v-7.6
		c0-0.5,0.3-0.7,0.6-0.4c3.3,2.1,7,3.1,10.4,3.1c4.1,0,5.8-1.7,5.8-4.1c0-1.9-1.2-3.5-6.4-6.2c-7.4-3.5-10.4-7.1-10.4-13.1
		c0-6.7,5.3-12.3,14.3-12.3c4.5,0,7.6,0.7,9.3,1.5c0.4,0.3,0.5,0.7,0.5,1v7.1c0,0.4-0.3,0.7-0.8,0.5C133,93.9,129.6,93,126.2,93
		L126.2,93z M81.5,99.2c1.2,0.1,2.1,0.1,4.2,0.1c6.1,0,11.8-2.1,11.8-10.4c0-6.6-4.1-9.9-11-9.9c-2.1,0-4.1,0.1-5,0.2V99.2z
		 M72.3,71.6c0-0.4,0.7-0.6,1.1-0.6c3.3-0.2,8.3-0.3,13.4-0.3c14.4,0,20,7.9,20,18c0,13.2-9.6,18.9-21.3,18.9c-2,0-2.7-0.1-4.1-0.1
		v20c0,0.4-0.2,0.6-0.6,0.6h-8c-0.4,0-0.6-0.2-0.6-0.6L72.3,71.6L72.3,71.6z"/>
</g>
</svg>
