<?xml version="1.0" encoding="utf-8"?>
<!-- Generator: Adobe Illustrator 19.1.0, SVG Export Plug-In . SVG Version: 6.00 Build 0)  -->
<svg version="1.1" id="Layer_1" xmlns="http://www.w3.org/2000/svg" xmlns:xlink="http://www.w3.org/1999/xlink" x="0px" y="0px"
	 viewBox="0 0 200 200" style="enable-background:new 0 0 200 200;" xml:space="preserve">
<style type="text/css">
	.st0{fill:#E5A229;}
	.st1{fill:#F1BE21;}
	.st2{fill:#FFFFFF;}
	.st3{fill:#EBEAEA;}
	.st4{fill:#0071BC;}
	.st5{fill:#29ABE2;}
	.st6{fill:#B3B3B3;}
	.st7{fill:#E6E6E6;}
	.st8{fill:#E44D26;}
	.st9{fill:#F16529;}
	.st10{fill:#EBEBEB;}
	.st11{fill:#141C28;}
	.st12{fill:#0868AA;}
	.st13{fill:#141B28;}
	.st14{fill:#0968AB;}
	.st15{fill:#1C232F;}
	.st16{fill:#3A86BC;}
	.st17{fill:#131B28;}
	.st18{fill:#CC6799;}
	.st19{fill:#9BD9EF;}
	.st20{fill:#201F1F;}
	.st21{fill:#7CB9E5;}
	.st22{fill:#9CD9EF;}
	.st23{fill:#030303;}
	.st24{fill:#F3C9B0;}
	.st25{fill:#C39A85;}
	.st26{fill:#99D5EB;}
	.st27{fill:#98D4E9;}
	.st28{fill:#99D6EB;}
	.st29{fill:#98D4EA;}
	.st30{fill:#97D3E8;}
	.st31{fill:#95CFE4;}
	.st32{fill:#FEFEFE;}
	.st33{fill:#AC5C51;}
	.st34{fill:#AB5C51;}
	.st35{fill:#FDFCFC;}
	.st36{fill:#FDFBFB;}
	.st37{opacity:0.75;enable-background:new    ;}
	.st38{fill:url(#SVGID_1_);}
	.st39{fill:#E579FF;}
	.st40{fill:url(#SVGID_2_);}
	.st41{fill:#31C5F0;}
	.st42{fill:url(#SVGID_3_);}
	.st43{fill:#FF7F18;}
	.st44{fill:url(#SVGID_4_);}
	.st45{fill:#D8A1FF;}
</style>
<g>
	
		<radialGradient id="SVGID_1_" cx="-512.8834" cy="-127.6722" r="3.792761e-002" gradientTransform="matrix(2291.6716 0 0 -2218.7549 1175447 -283202.8125)" gradientUnits="userSpaceOnUse">
		<stop  offset="0" style="stop-color:#4B2D4F;stop-opacity:0.98"/>
		<stop  offset="1" style="stop-color:#180024"/>
	</radialGradient>
	<path class="st38" d="M49.1,45.5h114.4v111.2H49.1V45.5z"/>
	<path class="st39" d="M49.1,45.5h114.4v111.2H49.1V45.5z M43.9,161.9h124.8V40.3H43.9V161.9z M118.7,91.6c0-0.6,0-2.1-0.3-5
		c0-0.4,0.1-0.5,0.4-0.7c3.2-1.3,10.6-3.6,19-3.6c0.4,0,0.6,0.1,0.6,0.5v7.5c0,0.4-0.2,0.5-0.6,0.5c-3.3-0.2-8,0.3-9.8,1v32.8
		c0,0.4-0.2,0.6-0.6,0.6h-8.2c-0.4,0-0.6-0.2-0.6-0.6L118.7,91.6L118.7,91.6z M85.5,96.4c1.2,0.1,2.1,0.1,4.2,0.1
		c6.1,0,11.8-2.1,11.8-10.4c0-6.6-4.1-9.9-11-9.9c-2.1,0-4.1,0.1-5,0.2L85.5,96.4L85.5,96.4z M76.3,68.8c0-0.4,0.1-0.6,0.5-0.6
		c3.3-0.2,8.2-0.3,13.4-0.3c14.4,0,20.7,7.9,20.7,18c0,13.2-9.6,18.9-21.3,18.9c-2,0-2.7-0.1-4.1-0.1v20c0,0.4-0.2,0.6-0.6,0.6h-8
		c-0.4,0-0.6-0.2-0.6-0.6L76.3,68.8L76.3,68.8L76.3,68.8z"/>
</g>
</svg>
