<?xml version="1.0" encoding="utf-8"?>
<!-- Generator: Adobe Illustrator 19.1.0, SVG Export Plug-In . SVG Version: 6.00 Build 0)  -->
<svg version="1.1" id="Layer_1" xmlns="http://www.w3.org/2000/svg" xmlns:xlink="http://www.w3.org/1999/xlink" x="0px" y="0px"
	 viewBox="100 -100 300 300" style="enable-background:new 100 -100 300 300;" xml:space="preserve">
<style type="text/css">
	.st0{fill:#FFFFFF;}
</style>
<g>
	<rect x="214.7" y="2.3" class="st0" width="70.6" height="14.2"/>
	<rect x="197.7" y="22.4" class="st0" width="104.5" height="14.2"/>
	<rect x="186.1" y="42.5" class="st0" width="127.8" height="14.2"/>
	<rect x="171.5" y="62.6" class="st0" width="157" height="14.2"/>
	<g>
		<rect x="226.9" y="-40.2" class="st0" width="25.7" height="15.4"/>
		<rect x="249.4" y="-40.2" class="st0" width="3.2" height="42.5"/>
	</g>
	<path class="st0" d="M340.4,147.9V85.2H159.6v62.7h12.2V93.4h8.1v54.6h13V93.4h7.3v54.6H215V93.4h6.5v54.6h14.7V93.4h6.5v54.6h14.7
		V93.4h6.5v54.6h14.7V93.4h6.5v54.6h14.7V93.4h6.5v54.6H320V93.4h8.1v54.6H340.4z"/>
</g>
</svg>
