<?xml version="1.0" encoding="utf-8"?>
<!-- Generator: Adobe Illustrator 19.1.0, SVG Export Plug-In . SVG Version: 6.00 Build 0)  -->
<svg version="1.1" id="Layer_1" xmlns="http://www.w3.org/2000/svg" xmlns:xlink="http://www.w3.org/1999/xlink" x="0px" y="0px"
	 viewBox="100 -100 300 300" style="enable-background:new 100 -100 300 300;" xml:space="preserve">
<style type="text/css">
	.st0{fill:#FFFFFF;}
</style>
<g>
	<g>
		<g>
			<g>
				<path class="st0" d="M282.9,83.8c-31.6,0-57.4-25.7-57.4-57.4S251.3-31,282.9-31s57.4,25.7,57.4,57.4S314.5,83.8,282.9,83.8z
					 M282.9-27c-29.4,0-53.4,23.9-53.4,53.4s23.9,53.4,53.4,53.4s53.4-23.9,53.4-53.4S312.3-27,282.9-27z"/>
			</g>
			<g>
				<circle class="st0" cx="282.9" cy="26.4" r="42"/>
			</g>
		</g>
		<g>
			<g>
				<path class="st0" d="M200.8,138.3c-15.8,0-28.7-12.9-28.7-28.7S185,81,200.8,81s28.7,12.9,28.7,28.7S216.6,138.3,200.8,138.3z
					 M200.8,83c-14.7,0-26.7,12-26.7,26.7s12,26.7,26.7,26.7s26.7-12,26.7-26.7C227.5,94.9,215.5,83,200.8,83z"/>
			</g>
			<g>
				<circle class="st0" cx="200.8" cy="109.7" r="21"/>
			</g>
		</g>
		<g>
			<polygon class="st0" points="201.8,110.8 199.8,108.5 281.9,25.3 283.9,27.6 			"/>
		</g>
	</g>
</g>
</svg>
