<?xml version="1.0" encoding="utf-8"?>
<!-- Generator: Adobe Illustrator 19.1.0, SVG Export Plug-In . SVG Version: 6.00 Build 0)  -->
<svg version="1.1" id="Layer_1" xmlns="http://www.w3.org/2000/svg" xmlns:xlink="http://www.w3.org/1999/xlink" x="0px" y="0px"
	 viewBox="0 0 306 700" style="enable-background:new 0 0 306 700;" xml:space="preserve">
<style type="text/css">
	.st0{opacity:0.5;}
	.st1{fill:#FCDC9D;}
	.st2{opacity:0.3;fill:#893E00;}
	.st3{fill:#FFFFFF;}
	.st4{opacity:0.2;fill:#893E00;}
	.st5{opacity:0.4;fill:#FFFFFF;}
	.st6{opacity:0.2;}
	.st7{fill:#DBBB63;}
	.st8{fill:#A8B772;}
	.st9{fill:#FF964E;}
	.st10{fill:#6B8589;}
	.st11{opacity:0.6;fill:#FFFFFF;}
	.st12{fill:#5E0022;}
	.st13{opacity:0.3;}
	.st14{fill:#893E00;}
	.st15{fill:#7F5C04;}
	.st16{fill:#FCF0AC;}
	.st17{fill:#038791;}
	.st18{fill:none;}
	.st19{opacity:0.4;fill:#893E00;}
	.st20{opacity:0.5;fill:#893E00;}
	.st21{fill:#5B2700;}
	.st22{opacity:0.5;fill:#F7DF9C;}
	.st23{opacity:0.8;}
	.st24{opacity:0.6;}
</style>
<g>
	<ellipse class="st0" cx="199.7" cy="683.4" rx="31.1" ry="3.5"/>
	<path class="st1" d="M191.5,589.4c0,0,7,17.3,9.4,25.5c0,0,4.3,10.4,3.4,24.9l31.2,12c0,0,1.1-19.3-3.3-33.6c0,0-5.5-17.2-7.5-28.4
		C222.9,578.7,191.5,589.4,191.5,589.4z"/>
	<path class="st2" d="M235.6,650.9c0,0,1.1-19.3-3.3-33.6c0,0-5.5-17.2-7.5-28.4c-1.9-11.2-33.3-0.5-33.3-0.5s1,2.6,2.5,6.2
		c1.9-0.1,4.1-0.8,5.8-1.1c10.3-1.6,14.9,4.9,18.3,13.5c3.4,8.4,6,17.5,6.1,27.1c0,4.3,0,8.2-0.8,12.1L235.6,650.9z"/>
	<path class="st1" d="M84,601c0,0,9,38.2,15.4,61.2c0.5,1.9,0,0.9,0,0.9l29-1.9c0,0-4.7-23-7.9-63.3L84,601z"/>
	<path class="st3" d="M92.5,644.2c0,0-4.1-8,4.2-6.6c0,0,7.2,0.3,13.1-2.2c5.9-2.6,15.9-5.7,15.9-0.9s0.9,11.7,0.9,11.7l4.3,15.1
		l-2.5,9.6l-28.7-1L92.5,644.2z"/>
	<path d="M120.5,660.7c0,0,3.3-21.9,7.8-11.4c4.5,10.5,4.8,11.4,4.8,11.4s1.9,0.9,1.8,2.6c-0.1,1.7,20.3-1.9,25.5,12.8l-1.5,4.6
		c0,0-23.9,2.9-55-2.9c0,0-3.2-1.8-3.2-3c0-1.2-2.9-11.5-2.9-11.5L120.5,660.7z"/>
	<path class="st4" d="M128.3,659.8c-0.4-2.2-4.8-24.9-7.9-63.1L84,599.9c0,0,0.8,3.6,2.2,9.3c9.1-0.1,16.9-0.4,22.3,8
		c1.8,2.8,3.8,6.3,4.4,9.4c0.4,1.7,0.8,4.3,0.2,6c-0.6,1.6-2.9,1.6-3.2,3.8c11.8-1.6,4.5,16,7.3,21.3c0.8,1.6,2.4,2.4,4.2,2.8
		l6.1-0.4C127.8,660,128,659.9,128.3,659.8z"/>
	<path class="st3" d="M236.3,667.9c0,0,3.2,0.1,2.8-28.3c0,0,1.4-1.9-9.1-2.9c0,0-19.5-5.6-20.5-6.3c0,0-6.9-3.1-6.4,1.4l0.7,9.3
		l1.9,10.2l7.8,9.1l15,8.2C228.6,668.8,236.1,669.7,236.3,667.9z"/>
	<path d="M199.7,649.7c0,0,0.7-22.1,13.4-10.1c0,0,3,2.9,3.1,13.3c0,0,22.9,10.4,21.5,14c0,0,0.5,7.5-6.9,12.4
		c-7.5,4.9-21.2,0.5-21.6,0c0,0-3.4-4.9-8.5-4.4c0,0-12.9,0.9-17.5-2.2c0,0-16.4-8.1-12.9-20.3c0,0,10.2-11.1,21.2-3.5l3.7,2
		C195.3,650.9,198.1,648.5,199.7,649.7z"/>
	<path class="st5" d="M215.9,670.5c-1.8,0-24.1-15.9-24.1-15.9c-10.1-6.2-17.2-4.7-21.3-2.3c-3.1,11.9,13,19.9,13,19.9
		c4.6,3.1,17.5,2.2,17.5,2.2c5.1-0.5,8.5,4.4,8.5,4.4c0.4,0.5,14.1,4.9,21.6,0C229.5,672.1,215.9,670.5,215.9,670.5z"/>
	<g>
		<path class="st1" d="M107.4,271.3c0,0-44.1,32.4-35.8,43.4c7.2,9.5,18.6,4.7,21.7,3.3c0,0,21.3-11.4,28-18.6
			c6.7-7.2,8.4-22.6,8.4-22.6S131.1,265.9,107.4,271.3z"/>
		<path class="st6" d="M107.4,271.3c0,0-44.1,32.4-35.8,43.4c7.2,9.5,18.6,4.7,21.7,3.3c0,0,21.3-11.4,28-18.6
			c6.7-7.2,8.4-22.6,8.4-22.6S131.1,265.9,107.4,271.3z"/>
	</g>
	<path class="st7" d="M190.6,337.9c0,0-23.3-21.3-80.2-16.5c0,0-49.8,33.5-47.5,112.9c0,0,11.1,60,7.1,77.6
		c-4,17.6-13.1,93.5,4.8,92.4l7.4,0c0,0-0.3,5.1,5.1,2.8c5.4-2.3,19.5-3,32.7-2.6c9.4,0.3,4-4,4-5.7c0-1.7,24.5-4.8,11.7-29.9
		c0,0-15.9-44.9-4.8-100.6c0,0,10.5,35,22.5,49.2c0,0,19,27.3,15.1,44.1c0,0-11.4,31,22.2,30.7c0,0-3.7,6.3,6.5,3.4
		c10.2-2.8,24.2-4.5,27.3-1.1c3.1,3.4,12.2,1.4,6.5-4.8c-5.7-6.3,26.7,8.5,4.3-41.2c0,0-39.8-73.4-43.8-104.1c0,0-4-46.1,5.2-73.9
		C196.7,370.6,195.5,344.5,190.6,337.9z"/>
	<path class="st8" d="M191.4,216.1c0,0,8.8-13.6,19.4,0c8.4,10.8-4.5,11.3,19,36.9c0,0,3.4,7.7-4.7,12.4c0,0,4.1,5.5-1.3,7.5
		c0,0-4.3-6.6-24.3,3c-2.5,1.2-3.5,10.6-4.5,16c-0.4,2.1-1.9,14,2,18c3.9,4.1,3.9,35-6,28.8c-12-7.5-33.6-20.8-80.3-17.2
		c0,0-4.9-8.9-0.9-14.3c4.1-5.3,9.8-1.1,17.1-24.1s4.7-46.7,4.7-46.7s2.7-28.3,16.4-22.6c0,0,3.7-6.7,8.3-3.6
		c1.7,1.1-1.9,9.5,0.7,26.3l6.2-5.4c0,0,11.5-10.6,21.2-18.5C189.1,208.8,192.5,212.3,191.4,216.1z"/>
	<path class="st1" d="M63.7,112.5c0,0,8,27.9,10.9,42.4c0,0,1.7,9.4,0,15.6c0,0-13.4,23.2,18.1,32.2c0,0,24.5,4.9,65.2,1.7
		c0,0-3.8,22.8-0.7,32.1l27.4-24l7-26.2c0,0,16.2-13.2,19.4-18.3c3.2-5.1,0.1,9,12.4,5.3c7.1-2.1,9.4-26.4,6.2-30.7
		c-3.5-4.7-11.1-4.1-18.1,15.6l-7.2-49.3l-11.7-26.7L172,73.4l-30.9,3.2L66,104.1L63.7,112.5z"/>
	<path class="st9" d="M200.8,68.8c0,0-24.5-26.1-16.5-38.4c0,0,27.2-40.4,42.6-6.8l13.6,37.7c0,0,11.4,23.5-27.2,12.8
		C213.4,74.1,200.5,72.5,200.8,68.8z"/>
	<path class="st10" d="M104.2,257c2.2,3.2-12-16.9-13.6-18.7c-1.4-1.5-4.5-5.1,0-8.3c0,0,16.4-15.1,33.5-15.6
		c0,0,10.5-1.7,18.8,17.3l11.5,34.8l3.2,12.4c0,0,1.7,5.1-2.8,5.3c0,0-26.2,7.2-31.7,1.6C120.3,283,104.2,257,104.2,257z"/>
	<path class="st11" d="M157.4,278.7l-3.2-12.4l-11.5-34.8c-8.3-19-18.8-17.3-18.8-17.3c-17.1,0.4-33.5,15.6-33.5,15.6
		c-1.2,0.8-1.8,1.7-2.1,2.6c6.9-4.2,23.3-13.3,34.6-13.6c0,0,6.7-2,14.4,17.5c0,0,15.1,36.7,15.8,48c0.9-0.2,1.4-0.4,1.4-0.4
		C159.1,283.8,157.4,278.7,157.4,278.7z"/>
	<path class="st1" d="M99.4,262.2c0,0-1.8-3.6-0.9-5.5c1-2,3.8-6.5,0.9-7.2c0,0-5.3-0.6-8.4,6.4c0,0-1.4,5.8,2,12.9
		c0,0,1.6,5.5-4.3,9.4c0,0-25,17-29.3,30c0,0-7.3,24.2,10,19.3c0,0,20.9-5,40.2-40.1c0,0,2-6.5,2.3-9c0,0,6.2,4.1,10.7,4.4
		c0,0,3.6-1.6,3.1-4.1l-4.7-0.3c0,0,3.6-3.6,2.8-5.5s2.8-2.1,2.8-2.1s6.3-4.3-3.4-4.1l-12.7-0.1c0,0,0.3-3,2.1-4.3
		c2.5-1.7,5-1.8,7.1-1c2.1,0.9,3.3-5-5-5.5c0,0-5.7-1-10.2,4C104.6,259.6,100.2,264.4,99.4,262.2z"/>
	<path class="st12" d="M137.7,188.2c0,0,8.6,1.1,16.4-8.7c0,0,15.8-19.6,24.8-3.2c0,0,4.3,13.4-10.5,23c0,0-12.8,6.3-21.4,3.2
		c0,0-7.1-2.7-10.7-7.9C136.4,194.6,130.5,187.1,137.7,188.2z"/>
	<path class="st3" d="M174.8,180.2c0,0,2.7-1.8,3.3-5.6c-9.6-14.2-24,5-24,5c-1.5,1.9-2.8,3.4-4.3,4.6c1.2,2.6,3.4,6.1,6.8,5.6
		C156.5,189.7,171,185,174.8,180.2z"/>
	<g class="st13">
		<path class="st14" d="M135.6,179.8c-0.2-0.3-0.5-0.5-0.8-0.7c-0.3-0.2-0.6-0.3-1-0.4l-2-0.8l-2.1-0.8l2.2-1
			c0.7-0.3,1.2-0.3,1.7-0.4c0.5,0,0.9,0,1.4,0c0.4,0,0.9,0.1,1.3,0.1l0.6,0c0.2,0,0.3,0,0.5,0c0.2,0,0.5,0,0.7,0l0.7,0.1
			c0.4,0,0.8,0.1,1.2,0.2c0.8,0.1,1.5,0.2,2.2,0.2l-1.3,1c0,0,0,0,0,0c0,0,0-0.1,0-0.2c0-0.1,0-0.2,0-0.3c0-0.1-0.1-0.2-0.1-0.3
			c-0.2-0.4-0.5-0.9-0.8-1.4c-0.3-0.5-0.7-1-1.1-1.5c-0.4-0.5-0.8-1-1.1-1.6c1.3,0.4,2.4,1,3.5,1.8c0.5,0.4,1.1,0.9,1.6,1.5
			c0.1,0.2,0.2,0.3,0.3,0.5c0.1,0.2,0.2,0.4,0.3,0.6c0.1,0.2,0.1,0.5,0.2,0.8c0,0.3,0,0.6-0.1,0.9l-0.1,0.9l-1.1,0.1
			c-0.9,0.1-1.9,0.1-2.7,0l-1.2-0.2l-0.6-0.1l-0.6-0.1c-0.2,0-0.5,0-0.7-0.1c-0.2,0-0.5-0.1-0.7-0.1c-0.4-0.1-0.8-0.2-1.2-0.3
			c-0.4-0.1-0.8-0.2-1.1-0.3c-0.3-0.1-0.7-0.1-0.8-0.1l0.1-1.8c0.5,0.5,1.2,0.9,1.7,1.5c0.3,0.3,0.5,0.6,0.7,0.9
			c0.1,0.2,0.2,0.4,0.3,0.6C135.6,179.5,135.6,179.7,135.6,179.8z"/>
	</g>
	<path class="st15" d="M146.5,114.6c-1.4,1.1-4.5,6.2-2.2,8c2,1.5,5.4-2.1,7.1-3.4c2.3-1.7,4.5-2.8,7.2-1.8c1.2,0.4,2.3,1.3,3.4,2
		c1.1,0.6,2.4,2.2,3.6,2.3c0.4-2.2-2.3-6.4-3.3-7.9c-1.5-2.1-3.1-3.8-5.3-4.2c-2-0.4-4.1,0.4-5.8,1.3c-1.5,0.8-4.1,2.2-5,4"/>
	<g class="st13">
		<path class="st14" d="M226.3,145c-0.2,0-0.5,0.1-0.7,0.1c-0.2,0.1-0.4,0.1-0.6,0.3c-0.4,0.2-0.8,0.5-1,0.8
			c-0.3,0.3-0.6,0.7-0.8,1.1c-0.2,0.4-0.4,0.8-0.6,1.2c-0.4,0.8-0.7,1.7-1.1,2.6c-0.2,0.5-0.4,0.9-0.6,1.4l-0.6,1.3
			c-0.8,1.7-1.5,3.5-2.1,5.2c-0.6,1.8-1.2,3.5-1.6,5.3l-1.8-1.8c0,0,0,0-0.1,0.1c0,0,0,0,0.1-0.2c0.1-0.2,0.3-0.5,0.5-0.7
			c0.1-0.1,0.1-0.1,0.2-0.2l0.1-0.1l0.1-0.1c0.2-0.1,0.3-0.2,0.4-0.3c0.5-0.3,0.9-0.5,1.2-0.6l0.1,0c0,0,0,0,0,0l0.1,0l0.3-0.2
			l0.5-0.4c0.8-0.5,1.6-1,2.6-1.4c0.5-0.2,1.1-0.4,1.8-0.3c0.2,0,0.4,0,0.6,0.1c0.2,0.1,0.4,0.2,0.6,0.3c0.2,0.1,0.3,0.3,0.5,0.4
			l0.2,0.2l0,0l0.1,0.1l0,0l0,0l0,0l0,0.1c0.1,0.1,0.3,0.6,0.3,1c0,0.4,0,0.7-0.1,1c-0.2,0.6-0.5,1.1-0.8,1.5
			c-0.7,0.8-1.4,1.3-2.2,1.8c-0.4,0.2-0.8,0.4-1.2,0.6c-0.4,0.2-0.8,0.4-1.3,0.5c-0.9,0.3-1.9,0.3-2.7,0.1c0.9-0.1,1.7-0.4,2.4-0.8
			c0.7-0.4,1.4-1,2-1.5c0.6-0.6,1.2-1.2,1.5-1.8c0.2-0.3,0.3-0.6,0.3-0.9c0-0.1,0-0.2,0-0.3c0-0.1,0,0.1-0.1-0.2c-0.1-0.1,0,0-0.1,0
			c-0.1,0-0.4,0.1-0.7,0.2c-0.6,0.3-1.3,0.8-1.9,1.3l-0.5,0.4l-0.3,0.2l-0.2,0.1l-0.2,0.1c-0.5,0.3-0.9,0.5-1.1,0.6l-0.1,0.1
			l-0.1,0.1c0,0-0.1,0,0,0l0,0c0,0,0,0,0,0c0,0-0.1,0.1-0.2,0.3c-0.1,0.2-0.3,0.5-0.7,0.9c-0.4,0.3-0.9,0.5-1.2,0.6l-2.3,0.4
			l0.5-2.2c0.9-3.9,2.5-7.6,4.5-11l0.8-1.3c0.2-0.4,0.5-0.8,0.7-1.2c0.5-0.8,1-1.7,1.6-2.5c0.3-0.4,0.6-0.8,1-1.2
			c0.4-0.4,0.7-0.7,1.2-1c0.4-0.3,0.9-0.5,1.4-0.6c0.2-0.1,0.5,0,0.8-0.1C225.8,144.9,226.1,145,226.3,145z"/>
	</g>
	<g class="st13">
		<path d="M132.4,325.4c1.8,0,3.5,0.2,5.3,0.4l2.6,0.2c0.9,0.1,1.7,0.1,2.6,0.2l0.4,0l0.2,0.5c0.6,1.8,0.8,3.6,0.8,5.3
			c0,1.7-0.1,3.5-0.2,5.1l0,0.8l-0.8,0.1c-1.4,0.2-2.9-0.1-4.1-0.5c-0.6-0.2-1.2-0.3-1.7-0.5c-0.6-0.1-1-0.2-1.7-0.2
			c-1.3-0.1-2.5-0.2-3.8-0.3l-1.9-0.2l-0.9-0.1l-0.5-0.1l-0.1,0l-0.1,0l0,0l0,0l0,0c0,0,0.1,0,0.1,0l-0.2,0c-0.3,0-0.6-0.1-0.9-0.1
			l-0.7,0c-0.3,0.1-0.5,0.1-0.8,0.2c-0.2,0.1-0.5,0.2-0.7,0.3c-0.9,0.5-1.7,1.4-2.4,2.4c-0.7,1-1.3,2-2,3.1
			c-0.3,0.5-0.7,1.1-1.1,1.6c-0.4,0.5-0.8,1-1.2,1.4l0.5-0.8l0.4-0.8c0.3-0.6,0.5-1.1,0.8-1.7c0.5-1.1,1-2.3,1.6-3.4
			c0.6-1.1,1.4-2.2,2.6-3c0.3-0.2,0.6-0.3,0.9-0.5c0.3-0.1,0.7-0.2,1-0.3c0.4-0.1,0.7-0.1,1.1-0.1c0.3,0,0.6,0,1,0l0.2,0l0.3,0
			l0.5,0.1l0.9,0.1l1.8,0.2c1.2,0.1,2.5,0.2,3.7,0.2c0.6,0,1.3,0.1,2,0.2c0.7,0.1,1.3,0.3,1.9,0.5c1.2,0.4,2.2,0.6,3.3,0.5l-0.9,0.9
			c0.1-1.7,0.3-3.4,0.4-5.1c0.1-1.7,0.1-3.3-0.3-4.8l0.6,0.5c-1.8-0.2-3.5-0.6-5.3-1C135.8,326.2,134.1,325.8,132.4,325.4z"/>
	</g>
	<g class="st13">
		<path d="M130.7,381.1c0,0-0.1-0.2-0.1-0.4c0-0.1,0-0.3,0-0.5c0-0.2,0.1-0.5,0.1-0.7c0.1-0.5,0.5-1,0.9-1.5
			c0.2-0.2,0.4-0.5,0.7-0.7c0.3-0.2,0.5-0.4,0.8-0.5c1.2-0.6,2.4-0.9,3.4-0.8c0.5,0,0.9,0.1,1.2,0.2c0.3,0.1,0.4,0.2,0.4,0.2
			s-0.1,0.1-0.4,0.2c-0.2,0.1-0.6,0.3-1,0.5c-0.8,0.4-1.8,0.9-2.7,1.4c-0.2,0.1-0.5,0.2-0.7,0.4c-0.2,0.1-0.4,0.3-0.6,0.4
			c-0.2,0.1-0.4,0.3-0.6,0.4c-0.2,0.1-0.4,0.3-0.5,0.4c-0.1,0.1-0.3,0.3-0.4,0.4c-0.1,0.1-0.2,0.2-0.3,0.4
			C130.8,381,130.7,381.1,130.7,381.1z"/>
	</g>
	<g class="st13">
		<path d="M118.7,394.5c0,0-0.1-0.2-0.2-0.4c-0.1-0.3-0.1-0.7-0.1-1.2c0-0.5,0.2-1,0.4-1.6c0.2-0.5,0.6-1.1,1-1.5
			c0.8-0.9,1.8-1.7,2.7-2c0.4-0.2,0.8-0.3,1.1-0.3c0.3,0,0.4,0,0.4,0s-0.1,0.1-0.2,0.4c-0.1,0.2-0.4,0.5-0.6,0.9
			c-0.5,0.7-1.2,1.6-1.8,2.4c-0.7,0.8-1.4,1.6-1.9,2.3c-0.1,0.2-0.3,0.3-0.3,0.4c-0.1,0.1-0.2,0.2-0.3,0.4
			C118.8,394.4,118.7,394.5,118.7,394.5z"/>
	</g>
	<g class="st13">
		<path d="M117.9,400.5c0,0,0.1,1,0.2,2.8c0.1,1.8,0.3,4.3,0.6,7.4c0.1,1.5,0.3,3.2,0.5,4.9c0.2,1.7,0.5,3.5,0.8,5.5
			c0.3,1.9,0.6,3.8,1,5.8c0.4,2,0.8,3.9,1.4,5.8c0.6,1.9,1.3,3.9,1.9,5.8c0.6,1.9,1.2,3.8,1.8,5.7c0.6,1.8,1.1,3.6,1.6,5.3
			c0.5,1.7,1,3.3,1.5,4.7c0.9,3,1.4,5.5,1.7,7.3c0.2,0.9,0.2,1.6,0.3,2.1c0.1,0.5,0.1,0.7,0.1,0.7s-0.2-1-0.8-2.7
			c-0.5-1.7-1.4-4.1-2.4-7c-1.1-2.8-2.5-6.2-3.7-9.8c-0.6-1.8-1.3-3.7-1.9-5.6c-0.6-1.9-1.4-3.8-2-5.8c-0.6-2-1-4-1.4-6.1
			c-0.4-2-0.6-4-0.8-5.9c-0.2-1.9-0.4-3.8-0.5-5.5c-0.1-1.8-0.2-3.4-0.2-5c0-3.1,0.1-5.7,0.2-7.4
			C117.8,401.5,117.9,400.5,117.9,400.5z"/>
	</g>
	<g class="st13">
		<path d="M93.4,371.2c0,0,0.1,0.4,0.2,1c0.1,0.7,0.3,1.6,0.6,2.6c0.1,0.5,0.3,1.1,0.5,1.7c0.1,0.6,0.4,1.2,0.6,1.9
			c0.4,1.3,1,2.6,1.5,4c0.6,1.3,1.2,2.7,1.8,3.9c0.6,1.2,1.2,2.4,1.7,3.4c0.5,1,0.9,1.8,1.2,2.4c0.3,0.6,0.4,0.9,0.4,0.9
			s-0.3-0.3-0.8-0.7c-0.5-0.5-1.1-1.1-1.9-2c-0.7-0.9-1.5-1.9-2.3-3.2c-0.4-0.6-0.8-1.2-1.1-1.9c-0.4-0.7-0.7-1.4-1-2.1
			c-0.3-0.7-0.6-1.4-0.8-2.2c-0.3-0.7-0.4-1.5-0.6-2.1c-0.1-0.7-0.3-1.4-0.3-2.1c-0.1-0.7-0.1-1.3-0.1-1.9c0-0.6,0-1.1,0-1.6
			c0-0.5,0.1-0.9,0.1-1.2C93.3,371.6,93.4,371.2,93.4,371.2z"/>
	</g>
	<g class="st13">
		<path d="M115,353.3c0,0,0,0.1,0,0.4c0,0.2,0,0.5,0,0.9c0,0.7-0.1,1.6-0.2,2.5c-0.2,0.9-0.4,1.8-0.8,2.5c-0.3,0.7-0.7,1.1-0.7,1.1
			s-0.3-0.5-0.4-1.3c-0.2-0.7-0.2-1.7-0.1-2.7c0.2-1,0.6-2,1.1-2.6c0.2-0.3,0.5-0.6,0.7-0.7C114.9,353.3,115,353.3,115,353.3z"/>
	</g>
	<g class="st13">
		<path d="M83.5,602.6c0,0,0.2,0,0.4-0.1c0.3-0.1,0.7-0.2,1.2-0.4c0.5-0.3,1-0.6,1.5-1.1c0.5-0.5,1.1-1.1,1.8-1.8
			c0.6-0.7,1.3-1.5,2.1-2.2c0.8-0.8,2-1.5,3.2-1.8c1.2-0.4,2.5-0.5,3.8-0.6c1.3,0,2.5,0,3.8,0c1.3,0,2.6,0.1,3.8,0.2
			c1.3,0.1,2.5,0.3,3.6,0.6c1.2,0.2,2.3,0.5,3.3,0.7c1.1,0.3,2,0.7,2.9,1c1.8,0.6,3.2,1.1,4.3,1.3c0.5,0.1,1,0.1,1.2,0.1
			c0.3,0,0.5,0,0.5,0s-0.2,0-0.4,0.1c-0.3,0.1-0.7,0.2-1.3,0.2c-1.1,0-2.7-0.2-4.6-0.6c-0.9-0.2-1.9-0.4-2.9-0.6
			c-1-0.2-2.2-0.3-3.3-0.5c-1.2-0.2-2.3-0.3-3.5-0.4c-1.2-0.1-2.4-0.1-3.7-0.1c-1.3,0-2.5-0.1-3.7-0.1c-1.2,0-2.3,0.1-3.4,0.3
			c-1,0.3-1.9,0.7-2.7,1.3c-0.8,0.6-1.6,1.3-2.3,1.9c-0.7,0.6-1.4,1.2-2.1,1.6c-0.7,0.4-1.3,0.7-1.9,0.9c-0.5,0.2-1,0.2-1.3,0.2
			C83.6,602.6,83.5,602.6,83.5,602.6z"/>
	</g>
	<g class="st13">
		<path d="M83.8,587.5c0,0,0.1,0.2,0.2,0.5c0,0.2,0.2,0.3,0.3,0.5c0.1,0.2,0.2,0.3,0.4,0.5c0.3,0.4,0.6,0.8,1.1,1.1
			c0.2,0.2,0.4,0.4,0.7,0.6c0.2,0.2,0.5,0.4,0.7,0.6c1,0.7,2.1,1.4,2.9,2c0.4,0.3,0.8,0.5,1,0.7c0.3,0.2,0.4,0.3,0.4,0.3
			s-0.2,0-0.5,0.1c-0.3,0-0.8,0-1.3,0c-1.1-0.1-2.5-0.6-3.7-1.5c-0.6-0.5-1.2-1-1.6-1.6c-0.2-0.3-0.4-0.6-0.5-0.9
			c-0.1-0.3-0.2-0.6-0.3-0.9c0-0.1,0-0.3-0.1-0.4c0-0.1,0-0.3,0-0.4c0-0.2,0-0.4,0.1-0.6C83.8,587.7,83.8,587.5,83.8,587.5z"/>
	</g>
	<g class="st13">
		<path d="M81.8,597.2c0,0,0.4-0.2,1-0.2c0.6,0,1.3,0.1,1.8,0.3c0.6,0.2,1,0.5,1.5,0.8c0.5,0.3,0.8,0.5,0.8,0.5s-0.1,0.1-0.2,0.2
			c-0.1,0.1-0.4,0.3-0.7,0.4c-0.6,0.3-1.5,0.2-2.1-0.1c-0.7-0.3-1.2-0.7-1.6-1.2C82,597.6,81.8,597.2,81.8,597.2z"/>
	</g>
	<g class="st13">
		<path d="M124.5,581.3c0,0,0.1-0.2,0.2-0.6c0.1-0.4,0.3-1,0.4-1.7c0.2-0.7,0.3-1.6,0.4-2.6c0.1-1,0.1-2.2,0.1-3.4
			c0-1.3-0.2-2.6-0.3-4c-0.2-1.4-0.5-2.9-0.8-4.5c-0.7-3.1-1.6-6.3-2.5-9.6c-0.4-1.7-0.8-3.3-1.2-5c-0.4-1.7-0.7-3.3-0.9-4.9
			c-0.5-3.2-0.8-6.2-0.9-8.8c-0.1-2.6-0.1-4.7,0-6.2c0-0.7,0.1-1.3,0.1-1.7c0-0.4,0-0.6,0-0.6s0.1,0.9,0.2,2.3
			c0.1,1.5,0.4,3.6,0.7,6.1c0.4,2.5,0.9,5.4,1.5,8.6c0.3,1.6,0.7,3.2,1.1,4.8c0.4,1.6,0.8,3.3,1.2,4.9c0.4,1.7,0.9,3.3,1.3,4.9
			c0.4,1.6,0.7,3.3,1,4.9c0.3,1.6,0.4,3.2,0.5,4.7c0.1,1.5,0.1,2.9,0,4.2c-0.1,1.3-0.3,2.5-0.5,3.5c-0.2,1-0.5,1.9-0.8,2.6
			c-0.2,0.7-0.5,1.2-0.7,1.6C124.6,581.1,124.5,581.3,124.5,581.3z"/>
	</g>
	<g class="st13">
		<path d="M181.5,577.9c0,0,0.2,0.2,0.5,0.4c0.3,0.3,0.7,0.7,1.3,1.2c0.3,0.2,0.5,0.5,0.8,0.8c0.3,0.3,0.6,0.5,0.9,0.8
			c0.6,0.6,1.3,1.1,2,1.7c0.4,0.3,0.7,0.5,1.1,0.8c0.4,0.2,0.7,0.5,1.1,0.7c0.4,0.2,0.7,0.4,1,0.6c0.3,0.2,0.7,0.3,1,0.5
			c0.6,0.3,1.2,0.5,1.6,0.6c0.4,0.1,0.6,0.2,0.6,0.2s-0.2,0.1-0.7,0.2c-0.2,0.1-0.5,0.1-0.8,0.1c-0.3,0-0.7,0.1-1,0
			c-0.4,0-0.8-0.1-1.2-0.2c-0.4-0.1-0.9-0.2-1.3-0.4c-0.4-0.2-0.9-0.4-1.3-0.6c-0.4-0.2-0.8-0.5-1.3-0.8c-0.4-0.3-0.8-0.6-1.1-1
			c-0.4-0.3-0.7-0.7-1-1.1c-0.6-0.7-1-1.5-1.4-2.1c-0.3-0.7-0.6-1.3-0.7-1.7C181.6,578.1,181.5,577.9,181.5,577.9z"/>
	</g>
	<g class="st13">
		<path d="M207.4,577.9c0,0,0.1,0.1,0.2,0.3c0.1,0.2,0.3,0.5,0.4,0.8c0.1,0.3,0.3,0.7,0.4,1c0.1,0.2,0.1,0.3,0.2,0.4
			c0.1,0.1,0.2,0.3,0.2,0.4c0.3,0.5,1,1.2,1.3,1.9c0.3,0.6,0.4,1.2,0.4,1.2s-0.6-0.1-1.2-0.4c-0.3-0.1-0.7-0.3-1.1-0.6
			c-0.4-0.2-0.8-0.6-1.1-1.1c-0.2-0.2-0.3-0.5-0.4-0.8c-0.1-0.3-0.1-0.5-0.1-0.8c0-0.5,0-0.9,0.2-1.3c0.1-0.4,0.2-0.6,0.4-0.8
			C207.3,578,207.4,577.9,207.4,577.9z"/>
	</g>
	<g class="st13">
		<path d="M232.1,571c0,0,0.2,0.2,0.5,0.5c0.2,0.1,0.3,0.4,0.5,0.7c0.2,0.3,0.3,0.7,0.5,1.1c0.2,0.4,0.2,0.8,0.3,1.3
			c0,0.5,0.1,1,0,1.5c0,0.5-0.1,1.1-0.2,1.6c-0.1,0.5-0.3,1.1-0.5,1.6c-0.2,0.5-0.4,1-0.8,1.5c-0.3,0.5-0.6,0.9-1,1.3
			c-0.3,0.4-0.8,0.7-1.1,1c-0.4,0.3-0.8,0.5-1.2,0.6c-0.2,0.1-0.4,0.1-0.6,0.2c-0.2,0.1-0.4,0.1-0.5,0.1c-0.3,0-0.6,0.1-0.9,0
			c-0.5-0.1-0.7-0.1-0.7-0.1s0.3-0.1,0.7-0.3c0.2,0,0.4-0.2,0.7-0.3c0.3-0.1,0.5-0.3,0.8-0.5c0.3-0.2,0.5-0.5,0.8-0.8
			c0.2-0.3,0.5-0.6,0.8-1c0.1-0.2,0.2-0.4,0.4-0.6c0.1-0.2,0.2-0.4,0.3-0.6c0.2-0.4,0.4-0.8,0.6-1.3c0.2-0.4,0.3-0.9,0.5-1.3
			c0.1-0.4,0.3-0.9,0.3-1.3c0.1-0.4,0.1-0.9,0.2-1.3c0-0.4,0.1-0.8,0.1-1.1c0-0.4,0-0.7,0-1c0-0.3,0-0.6-0.1-0.8
			C232.2,571.3,232.1,571,232.1,571z"/>
	</g>
	<g class="st13">
		<path d="M150.9,463.9c0,0,0,0.1,0,0.3c0,0.2,0,0.4,0,0.8c0,0.7,0.2,1.7,0.6,2.9c0.4,1.2,1.1,2.6,1.9,4.2c0.8,1.6,1.7,3.5,2.5,5.6
			c0.8,2.1,1.6,4.3,2.6,6.6c1,2.3,2.1,4.8,3,7.4c1,2.6,1.9,5.3,2.9,8.1c1,2.7,2,5.5,3.1,8.2c1.1,2.8,2,5.6,2.9,8.4
			c0.9,2.8,1.6,5.6,2.4,8.2c0.4,1.3,0.8,2.6,1.2,3.9c0.4,1.3,0.8,2.5,1.2,3.7c0.7,2.5,1.2,4.8,1.7,7c0.5,2.1,1.1,4.1,1.6,5.8
			c0.5,1.7,0.9,3.3,1.1,4.6c0.2,1.3,0.2,2.3,0.2,3c0,0.7-0.1,1.1-0.1,1.1s0-0.4-0.1-1.1c0-0.7-0.2-1.7-0.5-2.9
			c-0.3-1.3-0.8-2.7-1.4-4.4c-0.6-1.7-1.4-3.6-2-5.7c-0.6-2.1-1.2-4.5-2-6.8c-0.4-1.2-0.9-2.4-1.3-3.7c-0.5-1.3-0.9-2.6-1.3-3.9
			c-0.8-2.6-1.7-5.4-2.5-8.2c-0.9-2.8-1.8-5.5-2.9-8.3c-1.1-2.7-2.1-5.6-3-8.3c-0.9-2.8-1.8-5.5-2.7-8.1c-0.9-2.6-1.8-5.1-2.7-7.5
			c-0.9-2.4-1.6-4.7-2.3-6.8c-0.7-2.1-1.4-4-2.1-5.6c-0.7-1.7-1.3-3.2-1.6-4.4c-0.3-1.3-0.4-2.3-0.4-3c0-0.4,0-0.6,0.1-0.8
			C150.9,464,150.9,463.9,150.9,463.9z"/>
	</g>
	<g class="st13">
		<path d="M186.4,558.5c0,0,0.7,1.1,1.4,3c0.4,0.9,0.7,2,1,3.2c0.3,1.2,0.7,2.4,1,3.6c0.1,0.3,0.2,0.6,0.2,0.9l0.1,0.5l0.1,0.4
			c0.2,0.5,0.4,1.1,0.7,1.5c0.3,0.5,0.6,0.9,0.9,1.3c0.3,0.4,0.7,0.7,1,1.1c0.7,0.7,1.3,1.2,1.7,1.6c0.4,0.4,0.6,0.6,0.6,0.6
			s-0.3-0.1-0.9-0.3c-0.5-0.2-1.3-0.5-2.2-1c-0.9-0.5-1.9-1.2-2.7-2.3c-0.4-0.5-0.7-1.2-1-1.8l-0.2-0.5l-0.1-0.5
			c-0.1-0.4-0.2-0.6-0.3-1c-0.3-1.3-0.6-2.5-0.7-3.7c-0.2-1.2-0.3-2.3-0.4-3.3C186.5,559.9,186.4,558.5,186.4,558.5z"/>
	</g>
	<g class="st13">
		<path d="M192.1,591.8c0,0,0.2,0,0.4,0c0.3,0,0.7-0.1,1.2-0.3c1-0.3,2.3-1.1,3.8-2.1c0.8-0.5,1.6-1.1,2.6-1.6
			c1-0.5,2.1-0.9,3.2-1.2c1.1-0.3,2.3-0.5,3.5-0.7c0.6-0.1,1.2-0.1,1.8-0.2l0.9-0.1c0.4,0,0.6,0,1-0.1c0.6,0,1.3,0,2,0.1
			c0.6,0.1,1.3,0.2,1.9,0.4c1.2,0.3,2.4,0.7,3.4,1.1c2.1,0.9,4,1.7,5.7,2.1c0.4,0.1,0.8,0.2,1.2,0.3c0.4,0.1,0.8,0.1,1.1,0.1
			c0.7,0.1,1.3,0,1.9,0c0.5,0,0.9-0.1,1.2-0.2c0.3,0,0.4-0.1,0.4-0.1s-0.1,0.1-0.4,0.2c-0.3,0.1-0.6,0.3-1.2,0.5
			c-0.5,0.1-1.2,0.3-1.9,0.4c-0.8,0.1-1.6,0.1-2.6,0c-1.9-0.2-4-0.9-6.1-1.6c-1.1-0.3-2.2-0.7-3.3-0.9c-0.6-0.1-1.1-0.2-1.7-0.3
			c-0.5,0-1-0.1-1.7,0c-0.3,0-0.7,0-0.9,0l-0.9,0.1c-0.6,0.1-1.2,0.1-1.8,0.2c-1.2,0.1-2.3,0.3-3.4,0.5c-1.1,0.2-2.1,0.4-3,0.8
			c-0.9,0.4-1.8,0.8-2.6,1.2c-1.6,0.8-3.1,1.4-4.2,1.5c-0.5,0.1-1,0-1.3,0C192.2,591.8,192.1,591.8,192.1,591.8z"/>
	</g>
	<g class="st13">
		<path d="M160.3,235.7c0.2,0,0.4-0.1,0.6-0.1c0.2-0.1,0.3-0.2,0.5-0.3c0.3-0.2,0.5-0.5,0.8-0.8c0.5-0.6,0.9-1.2,1.5-1.8l0.4-0.4
			l0.2,0.6c0.1,0.5,0.3,1.1,0.5,1.6c0.2,0.5,0.5,1,0.8,1.5c0.6,1,1.2,1.9,1.9,2.8c1.4,1.8,2.8,3.5,4.1,5.6l-1.5-0.2
			c0.9-1,1.9-2.1,2.9-3.1c1-1,1.9-2.1,2.9-3.1c2-2,4.1-4,6.3-5.7c1.1-0.9,2.3-1.7,3.3-2.6c1-0.9,2-1.8,2.7-2.9
			c0.4-0.6,0.6-1.1,0.9-1.8c0.2-0.6,0.4-1.3,0.5-2c0.3-1.4,0.5-2.8,1-4.1c-0.2,1.4-0.2,2.8-0.3,4.2c-0.1,0.7-0.1,1.4-0.3,2.2
			c-0.2,0.7-0.4,1.4-0.8,2.1c-0.7,1.3-1.6,2.5-2.7,3.5c-1.1,1-2.2,1.9-3.2,2.8c-1,0.9-2,1.9-3.1,2.8c-1,1-2,1.9-3,2.9l-2.9,3
			c-1,1-2,2-3,3l-0.9,0.9l-0.6-1c-1.1-1.9-2.5-3.7-3.7-5.7c-0.6-1-1.2-2-1.7-3.1c-0.2-0.5-0.5-1.1-0.6-1.7c-0.2-0.6-0.3-1.2-0.4-1.8
			l0.6,0.2c-0.6,0.4-1.1,1-1.7,1.5c-0.3,0.3-0.6,0.5-1,0.7c-0.2,0.1-0.4,0.2-0.6,0.2C160.7,235.7,160.5,235.7,160.3,235.7z"/>
	</g>
	<g class="st13">
		<path d="M187.8,250.8c0,0,0.1,0,0.3,0.1c0.2,0.1,0.5,0.3,0.8,0.5c0.6,0.5,1.4,1.5,1.8,2.8c0.2,0.7,0.3,1.4,0.4,2.3
			c0,0.8-0.1,1.7-0.4,2.6c-0.3,0.8-0.6,1.7-1,2.4c-0.3,0.8-0.7,1.5-0.8,2.2c0,0.1,0,0.2,0,0.3l0,0.1l0,0.1l0,0c0,0,0,0.1,0-0.1l0,0
			l0,0l0,0.7l0,0.2l0,0.1l0.1,0.2c0,0.1,0,0.1,0,0.2l0.1,0.2c0.3,0.6,0.7,1.1,1.3,1.6c1.2,0.9,2.6,1.6,3.7,2.3
			c0.6,0.3,1.1,0.7,1.5,1.1c0.4,0.4,0.8,0.7,1,1c0.3,0.3,0.4,0.6,0.5,0.8c0.1,0.2,0.1,0.3,0.1,0.3s-0.1-0.1-0.2-0.2
			c-0.1-0.1-0.4-0.3-0.7-0.5c-0.3-0.2-0.7-0.4-1.2-0.7c-0.5-0.2-1-0.4-1.6-0.7c-0.6-0.2-1.3-0.5-2-0.8c-0.7-0.3-1.5-0.6-2.2-1.1
			c-0.7-0.5-1.5-1.2-2-2.2c-0.1-0.2-0.2-0.5-0.3-0.8l-0.1-0.4c0-0.2-0.1-0.3-0.1-0.4l0-0.7l0,0l0-0.1l0-0.1l0-0.2
			c0-0.1,0-0.3,0.1-0.4c0.2-1,0.6-1.9,1-2.7c0.4-0.8,0.8-1.5,1.1-2.2c0.3-0.7,0.5-1.4,0.5-2c0.1-0.7,0.1-1.3,0-2
			c-0.1-1.2-0.5-2.2-0.9-2.8c-0.2-0.3-0.4-0.5-0.5-0.7C187.9,250.9,187.8,250.8,187.8,250.8z"/>
	</g>
	<g class="st13">
		<path d="M198.9,273.2c0,0,0-0.1,0-0.3c0-0.1,0-0.2,0-0.4c0-0.2,0-0.3,0.1-0.5c0-0.2,0.1-0.4,0.2-0.7c0.1-0.2,0.2-0.5,0.3-0.7
			c0.3-0.5,0.6-1,1.1-1.5c0.4-0.5,1-1,1.6-1.5c0.6-0.5,1.3-1,2-1.4c0.7-0.4,1.5-0.9,2.3-1.3c0.8-0.4,1.7-0.8,2.5-1
			c0.8-0.3,1.7-0.5,2.5-0.8c0.8-0.3,1.7-0.4,2.5-0.6c0.8-0.2,1.6-0.3,2.4-0.4c0.8-0.1,1.5-0.1,2.2-0.1c0.7,0,1.3,0.1,1.9,0.3
			c0.3,0.1,0.5,0.2,0.7,0.3c0.2,0.1,0.4,0.2,0.6,0.4c0.2,0.1,0.3,0.2,0.4,0.3c0.1,0.1,0.2,0.2,0.2,0.3c0.1,0.2,0.2,0.3,0.2,0.3
			s-0.1-0.1-0.3-0.2c-0.1-0.1-0.2-0.1-0.3-0.2c-0.1-0.1-0.3-0.1-0.5-0.2c-0.2-0.1-0.4-0.1-0.6-0.2c-0.2,0-0.4-0.1-0.7-0.1
			c-0.3,0-0.5,0-0.8,0c-0.3,0-0.6,0-0.9,0.1c-0.3,0-0.6,0.1-1,0.2c-0.3,0.1-0.7,0.1-1,0.2c-0.7,0.2-1.5,0.4-2.2,0.6
			c-0.8,0.2-1.6,0.5-2.4,0.8c-0.8,0.3-1.6,0.6-2.5,0.8c-0.8,0.3-1.6,0.6-2.3,0.9c-0.8,0.3-1.5,0.7-2.2,1.1c-0.7,0.4-1.4,0.7-2,1.1
			c-0.3,0.2-0.6,0.4-0.9,0.6c-0.3,0.2-0.6,0.4-0.8,0.6c-0.3,0.2-0.5,0.4-0.7,0.6c-0.2,0.2-0.4,0.4-0.6,0.6c-0.2,0.2-0.3,0.4-0.4,0.6
			c-0.1,0.2-0.3,0.3-0.3,0.5c-0.1,0.2-0.2,0.3-0.2,0.4c0,0.1-0.1,0.3-0.1,0.4C198.9,273.1,198.9,273.2,198.9,273.2z"/>
	</g>
	<g class="st13">
		<path d="M186.9,280.9c0,0-0.4,0.6-1.2,1.1c-0.8,0.6-2,1.1-3.3,1.3c-1.3,0.2-2.6,0.2-3.5,0c-0.5-0.1-0.9-0.3-1.1-0.4
			c-0.3-0.1-0.4-0.2-0.4-0.2s0.2-0.1,0.4-0.2c0.3-0.1,0.7-0.2,1.1-0.3c0.9-0.3,2-0.5,3.2-0.8c1.2-0.2,2.3-0.4,3.3-0.4
			C186.2,280.9,186.9,280.9,186.9,280.9z"/>
	</g>
	<g class="st13">
		<path d="M121.5,311.2c0,0,0.1,0.2,0.2,0.5c0,0.2,0.1,0.3,0.2,0.5c0.1,0.2,0.2,0.4,0.3,0.6c0.1,0.2,0.3,0.4,0.4,0.7
			c0.2,0.2,0.3,0.5,0.5,0.7c0.2,0.2,0.4,0.5,0.6,0.7c0.2,0.2,0.4,0.5,0.6,0.7c0.4,0.4,0.9,0.9,1.3,1.3c0.2,0.2,0.4,0.4,0.7,0.5
			c0.2,0.2,0.4,0.3,0.6,0.5c0.2,0.1,0.4,0.3,0.6,0.4c0.2,0.1,0.3,0.2,0.5,0.3c0.3,0.1,0.5,0.2,0.5,0.2s-0.2,0.1-0.5,0.2
			c-0.2,0.1-0.4,0.1-0.6,0.1c-0.2,0-0.5,0-0.8,0c-0.6-0.1-1.2-0.3-1.9-0.6c-0.6-0.3-1.2-0.8-1.8-1.4c-0.2-0.3-0.5-0.6-0.7-0.9
			c-0.2-0.3-0.4-0.6-0.5-1c-0.3-0.7-0.5-1.3-0.5-1.9c0-0.3,0-0.6,0.1-0.8c0-0.2,0.1-0.4,0.2-0.6
			C121.4,311.4,121.5,311.2,121.5,311.2z"/>
	</g>
	<g class="st13">
		<path d="M170.3,323.3c0,0,0,0.1-0.1,0.3c-0.1,0.2-0.2,0.4-0.4,0.7c-0.4,0.5-1.2,0.9-2,1.1c-0.8,0.1-1.6,0-2.1-0.2
			c-0.6-0.2-0.9-0.6-0.9-0.6s0.4-0.3,0.9-0.6c0.5-0.3,1.2-0.5,1.8-0.6c0.6-0.1,1.3-0.2,1.8-0.1c0.3,0,0.5,0,0.7,0
			C170.2,323.3,170.3,323.3,170.3,323.3z"/>
	</g>
	<g class="st13">
		<path d="M162.4,323.8c0,0,0.2-0.1,0.4-0.2c0.1,0,0.3-0.1,0.4-0.2c0.1-0.1,0.3-0.2,0.4-0.3c0.2-0.1,0.3-0.3,0.5-0.4
			c0.2-0.2,0.3-0.3,0.5-0.5c0.2-0.2,0.3-0.3,0.5-0.5c0.2-0.2,0.3-0.4,0.5-0.6c0.3-0.4,0.6-0.8,0.9-1.2c0.3-0.4,0.6-0.8,0.8-1.1
			c0.1-0.2,0.2-0.3,0.3-0.5c0.1-0.1,0.2-0.3,0.3-0.4c0.1-0.2,0.2-0.4,0.2-0.4s0.1,0.1,0.2,0.4c0.1,0.3,0.2,0.7,0.1,1.2
			c0,0.5-0.1,1-0.4,1.6c-0.2,0.6-0.6,1.1-1,1.6c-0.2,0.2-0.4,0.5-0.7,0.7c-0.2,0.2-0.5,0.4-0.8,0.5c-0.5,0.3-1.1,0.5-1.7,0.5
			c-0.3,0-0.5,0-0.7-0.1c-0.2,0-0.4-0.1-0.5-0.2C162.6,323.9,162.4,323.8,162.4,323.8z"/>
	</g>
	<g class="st13">
		<path d="M155,233.2c0-0.2-0.1-0.5-0.1-0.7c-0.1-0.2-0.1-0.5-0.2-0.7c-0.2-0.4-0.5-0.7-0.9-0.8c-0.2,0-0.4,0-0.5,0.1
			c-0.2,0.1-0.4,0.2-0.5,0.3c-0.2,0.1-0.3,0.3-0.5,0.4c-0.1,0.1-0.3,0.3-0.5,0.5c-0.3,0.3-0.5,0.7-0.8,1.1c-0.3,0.4-0.5,0.8-0.7,1.2
			c-0.4,0.9-0.8,1.7-1.2,2.6l-1.1,2.7l-0.7-2.9c-0.2-0.9-0.4-1.9-0.6-2.8c-0.2-0.9-0.3-1.9-0.4-2.8c-0.1-1-0.2-1.9-0.3-2.9
			c0-0.5-0.1-1,0-1.5l0-1.4l0-2.8c0-1,0.1-1.9,0.2-2.9c0.1-1,0.3-1.9,0.6-2.9c0.1-0.5,0.3-0.9,0.6-1.4c0.2-0.4,0.5-0.8,0.8-1.2
			c-0.2,0.4-0.4,0.9-0.5,1.3c-0.1,0.4-0.2,0.9-0.2,1.4c-0.1,0.9-0.1,1.8-0.1,2.8c0,0.9,0.1,1.9,0.2,2.8c0.1,0.9,0.2,1.9,0.2,2.8
			l0.1,1.4l0.1,1.4c0.1,0.9,0.2,1.8,0.3,2.8c0.1,0.9,0.2,1.8,0.4,2.8c0.1,0.9,0.3,1.9,0.4,2.8l-1.7-0.2c0.4-0.9,0.9-1.8,1.5-2.7
			c0.3-0.4,0.6-0.9,0.9-1.3c0.3-0.4,0.7-0.8,1.1-1.2c0.2-0.2,0.4-0.3,0.6-0.5c0.2-0.2,0.5-0.3,0.7-0.4c0.3-0.1,0.5-0.2,0.8-0.3
			c0.3,0,0.6,0,0.9,0.1c0.3,0.1,0.6,0.3,0.7,0.6c0.2,0.2,0.3,0.5,0.3,0.8C155.1,232.1,155,232.7,155,233.2z"/>
	</g>
	<g class="st13">
		<path class="st14" d="M143.2,284.6c0,0,0.2-0.1,0.5-0.2c0.2-0.1,0.3-0.2,0.5-0.3c0.2-0.1,0.4-0.2,0.6-0.3c0.9-0.5,2.1-1.1,3.3-1.5
			c1.2-0.5,2.5-0.8,3.5-1.1c0.5-0.1,1-0.2,1.3-0.3c0.3-0.1,0.5-0.1,0.5-0.1s0,0.2-0.1,0.6c-0.1,0.3-0.4,0.8-0.7,1.3
			c-0.4,0.5-0.8,1-1.4,1.4c-0.6,0.4-1.2,0.8-1.9,1.1c-0.7,0.3-1.4,0.5-2.2,0.5c-0.7,0.1-1.4,0-2-0.1c-0.3-0.1-0.6-0.1-0.8-0.2
			c-0.2-0.1-0.5-0.2-0.6-0.3C143.3,284.8,143.2,284.6,143.2,284.6z"/>
	</g>
	<g class="st13">
		<path class="st14" d="M154.1,288.3c0,0,0.1-0.1,0.2-0.3c0.1-0.2,0.4-0.4,0.6-0.5c0.5-0.4,1.1-0.6,1.6-0.6c0.5,0,0.9,0.2,1.4,0.4
			c0.2,0.1,0.5,0.2,0.7,0.3c0.2,0.1,0.3,0.1,0.3,0.1s0,0.1,0,0.4c0,0.2-0.1,0.5-0.3,0.8c-0.2,0.3-0.5,0.6-0.9,0.8
			c-0.4,0.2-0.7,0.3-1.1,0.3c-0.7,0-1.4-0.3-1.8-0.7c-0.2-0.2-0.4-0.4-0.5-0.6C154.2,288.4,154.1,288.3,154.1,288.3z"/>
	</g>
	<g class="st13">
		<path class="st14" d="M161.9,293.6c0,0,0-0.2,0.1-0.4c0.1-0.2,0.2-0.5,0.3-0.7c0.3-0.5,0.7-1,1.2-1.3c0.5-0.3,1.1-0.5,1.7-0.5
			c0.3,0,0.6,0,0.8,0c0.2,0,0.4,0.1,0.4,0.1s0,0.2,0,0.4c0,0.2,0,0.5-0.1,0.8c-0.2,0.6-0.6,1.3-1.2,1.7c-0.6,0.4-1.5,0.6-2.1,0.4
			c-0.3-0.1-0.6-0.2-0.8-0.3C162,293.7,161.9,293.6,161.9,293.6z"/>
	</g>
	<g class="st13">
		<path class="st14" d="M124.1,271.5c0,0-0.1,0.2-0.2,0.5c-0.1,0.1-0.2,0.3-0.4,0.5c-0.2,0.2-0.4,0.4-0.6,0.6
			c-0.5,0.3-1,0.7-1.7,0.9c-0.6,0.2-1.3,0.4-2,0.4c-1.4,0.1-2.7-0.2-3.7-0.5c-0.5-0.2-0.9-0.4-1.2-0.6c-0.3-0.2-0.4-0.3-0.4-0.3
			s0.2-0.1,0.5-0.3c0.3-0.2,0.7-0.4,1.2-0.6c1-0.4,2.3-0.6,3.5-0.7c1.2-0.1,2.4,0,3.4,0.1c0.2,0,0.5,0,0.7,0.1c0.2,0,0.4,0,0.5,0
			C123.9,271.5,124.1,271.5,124.1,271.5z"/>
	</g>
	<g class="st13">
		<path class="st14" d="M118.3,279.1c0,0,0.1-0.1,0.4-0.3c0.2-0.2,0.5-0.5,0.7-0.8c0.2-0.3,0.5-0.6,0.7-1c0.1-0.2,0.2-0.4,0.4-0.5
			l0.2-0.2c0.1-0.1,0.2-0.3,0.2-0.3c0.1-0.1,0.2-0.3,0.3-0.5c0.1-0.2,0.2-0.4,0.4-0.6c0.3-0.4,0.6-0.9,0.9-1.2
			c0.3-0.4,0.7-0.6,1-0.8c0.3-0.1,0.5-0.2,0.5-0.2s0,0.2,0,0.5c0,0.3,0.1,0.6,0.1,1.1c0,0.4,0.1,0.9,0,1.5c0,0.3-0.1,0.6-0.2,0.9
			c-0.1,0.3-0.2,0.6-0.5,1c-0.1,0.2-0.2,0.2-0.3,0.4l-0.1,0.1l0,0l-0.1,0.1l-0.2,0.2c-0.2,0.2-0.5,0.4-0.8,0.6
			c-0.6,0.3-1.2,0.5-1.8,0.6c-0.6,0-1-0.1-1.3-0.2C118.4,279.2,118.3,279.1,118.3,279.1z"/>
	</g>
	<g>
		<circle class="st3" cx="109.8" cy="234.4" r="3.7"/>
		<circle class="st3" cx="115.2" cy="235.3" r="1.8"/>
	</g>
	<ellipse class="st3" cx="94" cy="163.5" rx="13.2" ry="13.4"/>
	<ellipse class="st3" cx="154.4" cy="152.1" rx="15.7" ry="14.6"/>
	<g>
		<path d="M107.2,161.9c0,0,0-0.2-0.1-0.6c-0.1-0.4-0.3-1-0.6-1.7c-0.3-0.7-0.8-1.5-1.4-2.4c-0.3-0.4-0.7-0.8-1.1-1.2
			c-0.2-0.2-0.4-0.4-0.7-0.6c-0.2-0.2-0.5-0.4-0.7-0.6c-1-0.8-2.2-1.5-3.5-2c-0.7-0.3-1.3-0.5-2.1-0.6c-0.7-0.1-1.4-0.2-2.3-0.2
			c-1.6-0.1-3.3,0-4.7,0.4c-1.5,0.4-2.7,1.2-3.8,2.4c-1.1,1.1-1.9,2.5-2.5,4.1c-0.6,1.5-1.2,3.3-1.4,4.7c-0.2,1.5-0.2,3,0.1,4.4
			c0.3,1.3,0.9,2.6,1.6,3.5c0.8,1,1.7,1.8,2.5,2.4c0.8,0.6,1.6,1.1,2.3,1.5c0.7,0.3,1.3,0.6,1.7,0.6c0.4,0.1,0.6,0.1,0.6,0.1
			s-0.2,0-0.7,0c-0.4,0-1.1,0-1.9-0.3c-0.8-0.2-1.7-0.5-2.7-1.1c-1-0.5-2.1-1.2-3.2-2.2c-1.1-1-2-2.4-2.5-4.1
			c-0.5-1.6-0.7-3.5-0.5-5.3c0.1-0.5,0.1-0.9,0.2-1.4c0-0.3,0.1-0.4,0.1-0.7l0.2-0.7c0.2-0.9,0.5-1.7,0.8-2.6c0.6-1.8,1.6-3.6,3-5.1
			c1.3-1.5,3.2-2.7,5.2-3.2c2-0.5,3.9-0.4,5.7-0.2c0.8,0.1,1.8,0.2,2.7,0.4c0.9,0.2,1.7,0.6,2.4,1c1.5,0.8,2.8,1.8,3.8,2.8
			c0.3,0.2,0.5,0.5,0.7,0.8c0.2,0.2,0.4,0.5,0.6,0.8c0.4,0.5,0.7,1.1,1,1.6c0.5,1,0.8,2,1,2.8c0.2,0.8,0.2,1.4,0.2,1.9
			C107.2,161.7,107.2,161.9,107.2,161.9z"/>
	</g>
	<g>
		<path d="M138.7,154.3c0,0,0-0.2-0.1-0.7c0-0.4-0.1-1.1-0.1-1.9c0-0.8,0.1-1.8,0.3-3c0.2-1.1,0.6-2.4,1.2-3.8
			c0.6-1.3,1.4-2.7,2.4-4.1c1.1-1.3,2.5-2.6,4.1-3.5l0.7-0.4l0.6-0.3c0.4-0.2,0.9-0.4,1.4-0.5c0.9-0.3,1.9-0.6,2.9-0.7
			c2-0.3,4.1-0.2,6.1,0.3c2,0.6,3.8,1.5,5.4,2.7c1.6,1.2,2.9,2.7,3.9,4.2c1.1,1.5,1.9,3.2,2.4,4.8c0.5,1.6,0.8,3.2,0.9,4.6
			c0.1,1.5-0.2,2.9-0.6,4c-0.4,1.1-1,2-1.5,2.7c-0.5,0.7-1,1.1-1.3,1.4c-0.3,0.3-0.5,0.5-0.5,0.5s0.1-0.2,0.4-0.6
			c0.2-0.4,0.6-0.9,0.9-1.6c0.3-0.7,0.7-1.6,0.9-2.7c0.2-1.1,0.2-2.2,0-3.5c-0.2-1.3-0.7-2.7-1.3-4c-0.6-1.4-1.4-2.7-2.4-4
			c-1-1.3-2.2-2.4-3.6-3.4c-1.3-1-2.9-1.7-4.4-2.2c-1.6-0.4-3.3-0.6-4.9-0.3c-0.8,0.1-1.6,0.3-2.4,0.5c-0.4,0.1-0.7,0.2-1.1,0.4
			l-0.6,0.2l-0.5,0.2c-1.4,0.7-2.6,1.6-3.7,2.6c-1,1.1-1.9,2.2-2.6,3.3c-1.4,2.3-2.1,4.5-2.4,6c-0.2,0.8-0.3,1.4-0.4,1.8
			C138.7,154.1,138.7,154.3,138.7,154.3z"/>
	</g>
	<g class="st13">
		<path class="st14" d="M205.9,307.5c0,0,0,0.2,0.1,0.4c0,0.2-0.1,0.7-0.2,1c-0.2,0.4-0.4,0.8-0.8,1.1c-0.3,0.4-0.8,0.6-1.2,0.9
			c-0.5,0.2-1,0.3-1.5,0.3c-0.5,0-1-0.1-1.4-0.3c-0.4-0.2-0.7-0.5-0.8-0.7c-0.2-0.2-0.2-0.4-0.2-0.4s0.1-0.1,0.4-0.2
			c0.1,0,0.2-0.1,0.3-0.2c0.1-0.1,0.2-0.2,0.4-0.3c0.5-0.4,1.1-0.8,1.7-1c0.6-0.3,1.4-0.4,2-0.5c0.2,0,0.3,0,0.5-0.1
			c0.1,0,0.3,0,0.4-0.1C205.7,307.5,205.9,307.5,205.9,307.5z"/>
	</g>
	<path d="M115,143.2l-5.1,1.6c-2.4,0.6-6.3-0.3-6.3-0.3c-20.5-4.5-33.4,4.3-33.4,4.3l-10.9,7.7c-0.5,1.3,2.2,5.2,2.2,5.2
		c1.7-0.3,4,1.6,4,1.6C75.7,179,84,179.9,84,179.9c15.2,4.2,23-5.7,23-5.7c7.3-7.8,4.6-22.7,4.6-22.7c-0.6-2.8,5.5-5,5.5-5l-1.1-3.6
		L115,143.2z M100.6,176.5c0,0-9.9,5.1-20.6-0.6c0,0-4.8-1.9-9.5-11.1c0,0-5.1-8.2,1.3-13.6c0,0,4.9-5.2,20.8-5.7
		c0,0,13.8-0.4,16.3,8.1C108.9,153.6,113.8,169.1,100.6,176.5z"/>
	<g>
		<path class="st4" d="M110.7,168.5c1.7-4.9,1-9.7,0.5-12C111.3,159.8,111.3,164.2,110.7,168.5z"/>
		<path class="st4" d="M102.5,178.1c0,0-9.9,5.1-20.6-0.6c0,0-3.5-1.4-7.4-7.4c-0.1,0.3-0.1,0.6-0.2,0.8c0,0-0.4,0.7-0.9,1.9
			c7.2,8.1,12.4,8.6,12.4,8.6c15.2,4.2,23-5.7,23-5.7c0.8-2.2,1.4-4.7,1.8-7.2C109.5,172,107.1,175.5,102.5,178.1z"/>
		<path class="st4" d="M111.9,146.3c-2.4,0.6-6.3-0.3-6.3-0.3c-17.2-3.8-29,1.8-32.4,3.7c0.2,1,0.4,2,0.6,3
			c0.7-0.6,5.9-5.1,20.7-5.6c0,0,13.8-0.4,16.3,8.1c0,0,0.2,0.5,0.3,1.4c-0.1-3.3-0.4-5.5-0.4-5.5c-0.6-2.8,6.1-5,6.1-5l1.1-1.5
			l-1,0.3L111.9,146.3z"/>
	</g>
	<path d="M121.9,141.5l0.3,3.9c0,0,6.8-0.2,7.4,2.8c0,0,3.2,15.7,13.5,20.5c0,0,11.5,6.7,24.9-3.5c0,0,7.8-4,11.5-23.5
		c0,0,1.5-2.8,3.3-3.2c0,0,1.2-4.8,0.2-5.9l-13.7-3.3c0,0-16.1-3.6-34.6,8.9c0,0-3.5,2.4-6.1,2.8l-5.6,0.5L121.9,141.5z M133,149.2
		c-0.8-9.3,12.9-14.4,12.9-14.4c15.8-5.7,22.7-2.5,22.7-2.5c8.4,2.8,6.6,12.9,6.6,12.9c-1,10.8-5,14.6-5,14.6
		c-8.3,9.9-20,8.7-20,8.7C134.3,166.4,133,149.2,133,149.2z"/>
	<path class="st4" d="M125.1,142.2l0.3,3.9c0,0,6.8-0.2,7.4,2.8c0,0,3.2,15.7,13.5,20.5c0,0,11.5,6.7,24.9-3.5c0,0,7.8-4,11.5-23.5
		c0,0,1.5-2.8,3.3-3.2c0,0,1.2-4.8,0.2-5.9l-13.7-3.3c0,0-16.1-3.6-34.6,8.9c0,0-3.5,2.4-6.1,2.8l-5.6,0.5L125.1,142.2z
		 M136.2,149.9c-0.8-9.3,12.9-14.4,12.9-14.4c15.8-5.7,22.7-2.5,22.7-2.5c8.4,2.8,6.6,12.9,6.6,12.9c-1,10.8-5,14.6-5,14.6
		c-8.3,9.9-20,8.7-20,8.7C137.5,167.1,136.2,149.9,136.2,149.9z"/>
	<ellipse class="st3" cx="146" cy="152.1" rx="2.6" ry="3.9"/>
	<g>
		<path d="M170,153c0,0,0,0,0-0.1c0-0.1,0-0.2,0-0.4c0-0.3-0.1-0.6-0.1-1c0-0.4-0.1-0.7-0.1-1c0-0.2,0-0.3,0-0.5
			c0-0.2,0-0.3,0.1-0.5c0-0.2,0.1-0.3,0.2-0.5c0-0.2,0.1-0.3,0.2-0.5c0.2-0.3,0.4-0.6,0.6-0.9c0.3-0.3,0.5-0.6,0.7-0.8
			c0.1-0.1,0.2-0.2,0.3-0.3c0.1-0.1,0.1-0.1,0.1-0.1s0,0,0.1,0.1c0.1,0,0.2,0.1,0.3,0.2c0.2,0.2,0.6,0.4,0.8,0.8
			c0.3,0.4,0.5,0.8,0.6,1.3c0.1,0.3,0.1,0.5,0.1,0.8c0,0.3-0.1,0.6-0.1,0.8c-0.1,0.3-0.2,0.5-0.3,0.8c-0.1,0.3-0.3,0.5-0.5,0.7
			c-0.4,0.4-0.8,0.7-1.3,0.9c-0.5,0.2-0.9,0.2-1.2,0.2C170.2,153.1,170,153,170,153z"/>
	</g>
	<g>
		<path d="M82.2,171.1c0,0-0.1,0.2-0.4,0.3c-0.3,0.2-0.6,0.4-1.1,0.4c-0.5,0.1-1,0-1.5-0.1c-0.3-0.1-0.5-0.2-0.8-0.4
			c-0.2-0.2-0.5-0.3-0.7-0.5c-0.2-0.2-0.4-0.4-0.5-0.7c-0.1-0.2-0.3-0.5-0.3-0.7c-0.2-0.5-0.2-1-0.1-1.4c0-0.4,0.2-0.8,0.3-1.1
			c0.1-0.1,0.1-0.2,0.2-0.3c0-0.1,0.1-0.1,0.1-0.1s0,0,0.1,0c0.1,0,0.2,0,0.4,0.1c0.3,0.1,0.6,0.2,1,0.3c0.4,0.1,0.7,0.3,1,0.5
			c0.1,0.1,0.3,0.2,0.4,0.3c0.1,0.1,0.3,0.2,0.4,0.3c0.1,0.1,0.2,0.2,0.3,0.4c0.1,0.1,0.2,0.3,0.3,0.4c0.2,0.3,0.3,0.6,0.4,0.9
			c0.1,0.3,0.3,0.7,0.4,0.9c0.1,0.1,0.1,0.3,0.1,0.3C82.2,171.1,82.2,171.1,82.2,171.1z"/>
	</g>
	<g>
		<path class="st16" d="M115.6,158.3c0,0,0.1,0.3,0.3,0.8c0.2,0.5,0.3,1.2,0.5,2.1c0.1,0.9,0.1,1.9,0,3c-0.1,1.1-0.4,2.3-0.8,3.4
			c-0.4,1.1-1.1,2.2-1.6,3c-0.3,0.4-0.5,0.8-0.7,1.2c-0.1,0.2-0.3,0.5-0.3,0.8c-0.1,0.6,0.1,1.3,0.2,1.8c0.1,0.5,0.2,0.8,0.2,0.8
			s-0.3-0.1-0.7-0.5c-0.2-0.2-0.5-0.4-0.7-0.7c-0.3-0.3-0.5-0.7-0.7-1.2c-0.2-0.5-0.2-1.1-0.1-1.8c0.1-0.5,0.3-1.1,0.5-1.6
			c0.4-1.1,0.9-2,1.2-2.9c0.8-1.9,1.4-3.9,1.9-5.5c0.3-0.8,0.5-1.5,0.7-1.9C115.5,158.6,115.6,158.3,115.6,158.3z"/>
	</g>
	<g>
		<ellipse class="st17" cx="100" cy="165.5" rx="6.6" ry="9.8"/>
		<ellipse cx="100" cy="164.6" rx="3.5" ry="5.1"/>
		<ellipse class="st3" cx="95.5" cy="161.4" rx="2.6" ry="3.9"/>
	</g>
	<g>
		
			<ellipse transform="matrix(0.9962 -8.752558e-002 8.752558e-002 0.9962 -13.0455 13.8342)" class="st17" cx="151.2" cy="155.7" rx="7.2" ry="10.7"/>
		
			<ellipse transform="matrix(0.9962 -8.755289e-002 8.755289e-002 0.9962 -12.9674 13.8296)" cx="151.2" cy="154.7" rx="3.8" ry="5.6"/>
		
			<ellipse transform="matrix(0.9962 -8.752913e-002 8.752913e-002 0.9962 -12.7114 13.3607)" class="st3" cx="146" cy="151.6" rx="2.8" ry="4.2"/>
	</g>
	<path class="st16" d="M113,171.2c1.4-0.7,3.9-1.5,5.7-0.9c1.2,0.4,3.8,2.4,2.7,3.5c-0.9,0.9-5.1,0.6-6.5,0.4
		c-0.9-0.1-2.5-0.5-2.6-1.6c-0.2-1.2,1.3-1.4,2.2-1.6"/>
	<g>
		<path class="st16" d="M130.8,175.8c0.3-0.3,0.8-0.4,1.2-0.4c0.4-0.1,0.9-0.1,1.3-0.1c0.4,0,0.9,0,1.3,0l0.6,0c0.2,0,0.3,0,0.6,0
			c0.4,0,0.9,0,1.3,0c0.4,0,0.8,0.1,1.2,0.1c0.8,0.1,1.6,0.1,2.3,0.1l-0.9,0.7c0-0.1,0-0.1,0-0.2c0-0.1,0-0.1,0-0.2
			c0-0.1,0-0.2-0.1-0.3c0-0.1-0.1-0.2-0.1-0.3c-0.1-0.2-0.3-0.5-0.4-0.7c-0.2-0.2-0.3-0.5-0.5-0.7l-0.6-0.7l-0.6-0.7
			c-0.4-0.5-0.8-1-1.2-1.5c0.6,0.2,1.2,0.5,1.8,0.8c0.6,0.3,1.1,0.7,1.6,1.1c0.5,0.4,1,0.9,1.4,1.5c0.1,0.2,0.2,0.3,0.3,0.5
			c0.1,0.2,0.2,0.4,0.2,0.6c0.1,0.2,0.1,0.4,0.1,0.7c0,0.2,0,0.5-0.1,0.8l-0.1,0.6l-0.8,0.1c-0.9,0.1-1.8,0-2.7-0.1
			c-0.4-0.1-0.8-0.1-1.2-0.2c-0.4-0.1-0.8-0.1-1.2-0.2c-0.2,0-0.5-0.1-0.7-0.1l-0.6-0.2c-0.4-0.1-0.8-0.3-1.2-0.4
			c-0.4-0.1-0.8-0.3-1.2-0.4C131.6,175.9,131.2,175.8,130.8,175.8z"/>
	</g>
	<polyline points="182.9,132.7 218,145 215.7,149.8 182.7,138.6 	"/>
	<path class="st4" d="M229.3,142.6c-3.5-4.7-11.1-4.1-18.1,15.6l-7.2-49.3l-11.7-26.7l-19.7-8.4c-4.5-0.1-9,0.6-13,2.2
		c-5.6,2.2-9.9-0.5-15.4,1.7l-3.3,6.1c-2.6,2.1,12.2,23.7,14.8,26.5c3.1,3.2-10.2-21.7-7-22.4c8.7-1.9,20-4,24.6,2.3
		c4.6,6.3,6.8,9.7,6.6,18c-0.1,4-4.8,6.2-7.7,6c-4.2-0.3-4.6-1.9-6.5-2.9c-4.1-2.2-13-2.2-17,6.6c-2.9,6.4,1.9,1.2,5.7,0.8
		c4.8-0.5,7.2,2,11.2,4.1c5.4,2.8,15.3,9.2,18.7,14c5,7,7.2,21.4,7.2,29.3c0,10.1-2.7,18.6-7.2,25.4c-2.1,3.2-5.9,5.8-9.2,8.2
		c-2.1,1.6-10.5,4.8-11.1,7.1c-1.2,5,8.4,0.9,10.4,1.5c3.4,1.1,1.1,8.9,6.5,7.3l3.3-2.9l7-26.2c0,0,16.2-13.2,19.4-18.3
		c3.2-5.1,0.1,9,12.4,5.3C230.2,171.2,232.5,146.9,229.3,142.6z"/>
	<path class="st18" d="M192.1,271.7c-1.7,2.5-1.9,4.5-4.7,6.6c-2.8,2-5.4,2.5-8.9,2.8c-7.6,0.6-13.8-2.2-20.5-3.5
		c-5.4-1-12.2,1.4-15.2,6c-4.4,6.8,5,5.8,9.2,7.4c5.4,2,9.9,7.6,14.2,11.5c3.6,3.3,9.2,7.7,8,13.2c-1.3,6.2-10,5.6-15.1,4.9
		c-3.4-0.5-6.7-0.9-10.2-0.9c-2.7,0-6.2-1.1-8.3,0.6c-5,4,10.3,6.1,12.9,6.8c6.9,2,14,4.1,20.8,6.6c8.9,3.3,16.6,11.9,26.4,11.8
		c5.3,0,6.9-2.6,11.1-5.6c3.6-2.6,6.7-5.1,8.6-9c3.2-6.4,4.2-15,5-22.1c0.8-7.2,1.6-13.5-2.4-19.9c-4.1-6.7-11-8.7-17.7-11
		c-2.9-1-5-2.2-7.6-3.5c-1.5-0.7-4.6-3.1-5.9-2.6"/>
	<g class="st13">
		<path class="st14" d="M191.5,270.8c0,0,0.1,0,0.1,0c0.1-0.1,0.1-0.2,0.2-0.3L191.5,270.8z"/>
		<path class="st14" d="M198.6,275.9c0.1-0.1-2.8-0.7-1.4-1.5c-0.7-0.4-0.3-0.6-0.6-1.4c-0.6-1.4-4.7-3.2-6-2.9
			c-1.6,2.4-0.8,5-3.5,7c-2.8,2-5.4,2.5-8.9,2.8c-7.6,0.6-13.8-2.2-20.5-3.5c-5.4-1-12.2,1.4-15.2,6c-4.4,6.8,4.4,4.1,7.3,7.5
			c3.8,4.4,7.2,11,11.5,14.9c3.6,3.3,5.8,5.7,5.8,9.6c0,4.7-5.6,5.3-8.3,5c-3.4-0.4-6.7-0.9-10.2-0.9c-2.7,0-6.2-1.1-8.3,0.6
			c-0.5,0.4-0.8,0.7-0.9,1.1c27.4,2.4,42.3,11.5,51.5,17.3c9.8,6.2,9.9-24.8,6-28.8c-3.9-4.1-1.9-15.8-1.6-17.9
			C196.2,285.3,196.9,278,198.6,275.9z"/>
	</g>
	<path class="st1" d="M199.5,275.8c0,0,16.8-10.1,24.3-3l1.3,38.2c0,0,0,25.8-11.2,31.8c0,0-13.6,4.3-32.1-12.6
		c0,0-13.6-15.1-18.8-36.2c0,0-3.2-1.3-6.2,1c0,0-8.4,8.1-6.3-1.4c0,0,1.9-5.2,4.3-5.3c2.3-0.1-11.3,0.2-11.5-2.9
		c0,0-9.5,0.1-8.6-3.1c0,0,13.4-5.6,15-12.2c0,0-15.7,1.2-15.2-3.9c0-0.2,0.1-0.3,0.1-0.5c0.3-2.9,28.2-2.9,26.6-2.9
		c0,0-0.5-6.3-1.9-8.6c-1.4-2.3-4.2-10.1,1.7-6.1c4.6,3.1,6.2,7.4,6.8,9c0.6,1.6,2.8,15.1,6.8,25.3c0,0,18.2,30.4,24.9,27.2
		l-0.5-33.4"/>
	<path class="st4" d="M223.3,272.6c-7.5-7.1-24.3,3-24.3,3l-0.4,0.3l0,2.7c0.9-0.2,1.8-0.6,2.3-0.9c5.4-0.3,10.5-4.6,13.2,3.1
		c2.5,7,1,16.6,1,24.2c0,6.5-0.3,17.4-6.4,21.4c-5,3.3-12.9,3.6-18.5,1.3c-6.5-2.8-11.8-9.7-15.2-15.9c-2.4-4.3-5-14.2-11.2-13.6
		c5.8,18.7,17.5,31.8,17.5,31.8c18.4,17,32.1,12.6,32.1,12.6c11.2-6,11.2-31.8,11.2-31.8L223.3,272.6z"/>
	<path class="st19" d="M236.1,549.3c0,0-39.8-73.4-43.8-104.1c0,0-4-46.1,5.2-73.9c0,0-1.2-26.2-6.1-32.7c0,0-4.5-4.1-14.3-8.3
		c-0.9,1.1-0.8,2.9,0.5,4.7l-0.9-0.9c5.1,7,14,20.6,8.9,29.8c-3.7,0.3-6.4,1.8-10.2-0.6c-2.7-1.7-3.7-6.1-7.6-5.3
		c-2.3,5.8,8,17.8,10.2,23.4c3.9,10.2,5.6,22.1,6,33.3c0.5,12.8-2.1,26.3,0,38.9c1.4,8.5,5.9,14.4,10.4,21.6
		c5.7,9.1,7.8,19.8,10,30.3c2.8,12.7,6.1,25.1,7.2,38c0.6,6.7,1.1,13.9,2.9,20.3c1.3,4.6,4.2,6.5,8,9.2c3.6,2.6,5.2,4.6,7.1,8.7
		c2,4.3,3,5.6,7.8,5.6C243.5,585.5,249.3,578.7,236.1,549.3z"/>
	<g>
		<path class="st4" d="M114.1,397.8c0.1,0.2,0.3,0.3,0.4,0.5c0.5,0.3,0.9,0.6,1.3,0.8L114.1,397.8z"/>
		<path class="st4" d="M130.6,469.8c-0.5-1.6-0.9-3.3-1.2-4.9c-1.6-8.5-3.6-17.3-6.4-25.1c-2.6-7.3-4-14.3-4.7-21.9
			c-0.7-7.6,0.8-13.6-3.9-19.5c-5.7-3.6-17.9-12.6-12.7-0.1c4.3,10.3,9.5,20.8,12.8,31.6c1.7,5.7,2,11.9,2.8,17.6
			c0.8,5.7,1.3,12.5,0.6,18.3c-1.3,12.3-4.6,23.8-5.7,36.4c-1.2,13.4-1.9,27,1.4,40.2c2.8,11.3,8.1,21.1,8.7,33
			c0.2,5.8-0.4,11.4-1.1,16.7c-0.5,3.9,0.8,5.8,3.2,6.9c2.9-1.9,23.2-6.2,11.3-29.5C135.7,569.4,120,525,130.6,469.8z"/>
	</g>
	<path class="st4" d="M229.9,636.5c0,0-2.5-0.7-5.8-1.7c0.1,4.7,0,9-1.1,13.4c-1,4.1-2.6,7.6-2.3,12c0.1,1.8,0.6,3.3,1.3,4.6
		l6.5,3.6c0,0,7.5,1,7.7-0.9c0,0,3.2,0.1,2.8-28.3C239,639.4,240.4,637.5,229.9,636.5z"/>
	<g class="st13">
		<path d="M164.8,342.2l0,1.7l0.1,1.7l0.2,1.7l0.3,1.7c0.2,1.1,0.4,2.2,0.7,3.3c0.3,1.1,0.6,2.2,1,3.2c0.3,1.1,0.8,2.1,1.2,3.2
			c0.4,1,0.9,2,1.5,3l0.8,1.4l0.9,1.4l1,1.3c0.4,0.4,0.7,0.8,1.1,1.2c0.4,0.4,0.8,0.7,1.2,1.1c0.5,0.4,0.9,0.7,1.3,1
			c0.9,0.6,1.9,1.2,2.8,1.7c2,1,4,1.8,6.2,2.3l1.7,0.4c0.6,0.1,1.1,0.2,1.6,0.3c1.1,0.2,2.2,0.3,3,0.2c0.2,0,0.4-0.1,0.5-0.2
			c0,0,0,0,0.1-0.1c0,0,0.1,0,0,0l0.1-0.1c0.1-0.1,0.1-0.2,0.2-0.2c0.3-0.4,0.5-0.8,0.7-1.3c0.4-1,0.8-2.1,1-3l0.9,1.2
			c-3.5-0.3-7.1-0.4-10.6-1.6c-0.9-0.3-1.7-0.7-2.5-1.1c-0.4-0.2-0.8-0.5-1.2-0.7c-0.4-0.3-0.8-0.5-1.1-0.8c-0.7-0.6-1.4-1.2-2-1.9
			c-0.6-0.7-1.1-1.5-1.6-2.2c-1-1.5-1.8-3.1-2.6-4.7c-0.4-0.8-0.7-1.6-1.1-2.4c-0.3-0.8-0.6-1.7-0.8-2.6c-0.4-1.7-0.8-3.4-1.1-5.1
			c-0.3-1.7-0.5-3.5-0.5-5.3l0.2,0.2c-0.5-0.1-0.9-0.2-1.4-0.1c-0.5,0-1,0.1-1.5,0.3c-1,0.2-2,0.5-3,0.5c1-0.1,2-0.4,2.9-0.7
			c0.5-0.2,1-0.3,1.5-0.4c0.5-0.1,1.1-0.1,1.6,0l0.2,0l0,0.2c0.1,1.7,0.4,3.4,0.9,5.1c0.4,1.7,0.9,3.4,1.3,5c0.5,1.6,1.2,3.2,2,4.7
			c0.8,1.5,1.7,3,2.7,4.4c0.5,0.7,1,1.4,1.5,2c0.6,0.6,1.2,1.2,1.8,1.7c0.3,0.3,0.7,0.5,1,0.7c0.4,0.2,0.7,0.4,1.1,0.6
			c0.7,0.4,1.5,0.7,2.3,0.9c3.2,1,6.6,1.2,10.1,1.4l1.2,0.1l-0.3,1.1c-0.3,1.2-0.7,2.3-1.1,3.4c-0.3,0.6-0.5,1.1-0.9,1.7
			c-0.1,0.2-0.3,0.4-0.4,0.4l-0.1,0.1c-0.1,0.1-0.1,0.1-0.2,0.1l-0.3,0.2c-0.4,0.2-0.8,0.3-1.1,0.4c-1.4,0.2-2.6,0-3.8-0.2
			c-0.6-0.1-1.2-0.2-1.7-0.4l-1.7-0.4c-2.3-0.5-4.5-1.4-6.6-2.6c-1-0.6-2-1.2-3-1.9c-0.5-0.3-1-0.7-1.4-1.1
			c-0.5-0.4-0.9-0.8-1.3-1.2c-0.4-0.4-0.8-0.9-1.2-1.3l-1-1.4l-0.9-1.5l-0.8-1.5c-0.5-1.1-1-2.1-1.4-3.2c-0.4-1.1-0.8-2.2-1.1-3.3
			c-0.3-1.1-0.5-2.2-0.8-3.4c-0.2-1.1-0.4-2.3-0.5-3.4l-0.1-1.7l-0.1-1.7l0-1.7L164.8,342.2z"/>
	</g>
	<g>
		<path class="st16" d="M162.8,505.9c0,0,0,0.2,0,0.6c0,0.4,0.2,0.9,0.5,1.5c0.3,0.6,0.8,1.3,1.3,2.1c0.3,0.4,0.6,0.9,0.8,1.4
			c0.2,0.5,0.5,1,0.7,1.5c0.5,1.1,1.1,2.2,1.6,3.5c0.6,1.2,1.1,2.6,1.6,4c0.5,1.4,0.9,2.9,1.3,4.4c0.4,1.5,0.9,2.9,1.5,4.4
			c0.5,1.5,1.1,3,1.6,4.4c0.5,1.5,1,2.9,1.4,4.4c0.5,1.4,0.8,2.9,1,4.2c0.2,1.3,0.4,2.6,0.6,3.8c0.4,2.3,0.8,4.2,1.2,5.5
			c0.2,0.6,0.5,1.1,0.7,1.4c0.2,0.3,0.3,0.5,0.3,0.5s-0.1-0.1-0.4-0.4c-0.2-0.3-0.6-0.7-0.9-1.3c-0.7-1.2-1.4-3.1-2-5.4
			c-0.3-1.1-0.6-2.4-0.9-3.7c-0.3-1.3-0.7-2.6-1.2-4c-0.5-1.4-1-2.8-1.6-4.2c-0.6-1.4-1.1-2.9-1.7-4.4c-0.6-1.5-1.1-3.1-1.5-4.6
			c-0.4-1.5-0.8-3-1.1-4.4c-0.4-1.4-0.8-2.7-1.3-4c-0.5-1.3-0.9-2.5-1.3-3.6c-0.2-0.6-0.4-1.1-0.6-1.6c-0.2-0.5-0.3-0.9-0.6-1.4
			c-0.4-0.8-0.8-1.6-1-2.3c-0.2-0.7-0.3-1.2-0.3-1.6C162.7,506.1,162.8,505.9,162.8,505.9z"/>
	</g>
	<g>
		<path class="st16" d="M75.2,509.3c0.2,3.8,0.3,7.6,0.3,11.4c0,3.8-0.1,7.6-0.3,11.4c-0.2,3.8-0.7,7.6-1.1,11.3
			c-0.4,3.8-1,7.5-1.3,11.3c-0.2,1.9-0.4,3.8-0.6,5.6c-0.1,1-0.1,1.9-0.1,2.8c0,0.9,0,1.9,0,2.8c0.1,3.7,0.7,7.4,1.8,10.9
			c0.6,1.8,1.3,3.5,2.1,5.2c0.8,1.7,1.7,3.3,2.7,4.9c1,1.6,2.1,3.1,3.4,4.5c1.3,1.4,2.8,2.5,4.6,3.2l0,0l0,0
			c0.1,0.1,0.3,0.1,0.5,0.1c-0.2,0.1-0.3,0-0.5,0l0,0c-1.9-0.5-3.5-1.6-4.9-2.8c-1.4-1.3-2.7-2.8-3.8-4.3c-1.1-1.5-2.2-3.2-3.1-4.9
			c-0.9-1.7-1.7-3.5-2.4-5.3c-1.3-3.6-2-7.5-2.3-11.4c0-1-0.1-1.9,0-2.9c0-1,0.1-1.9,0.1-2.9c0.1-1.9,0.3-3.8,0.5-5.7
			c0.4-3.8,0.9-7.5,1.5-11.3c0.5-3.7,1-7.5,1.4-11.2c0.4-3.7,0.7-7.5,0.9-11.3C74.9,516.9,75,513.1,75.2,509.3z"/>
	</g>
	<g>
		<path class="st16" d="M75.2,596.1c0,0,0.2,0.1,0.5,0.2c0.3,0.2,0.7,0.4,1.1,0.7c0.9,0.6,1.9,1.3,3,2.1c0.5,0.4,1,0.7,1.5,1
			c0.2,0.2,0.5,0.3,0.7,0.4c0.2,0.1,0.5,0.3,0.7,0.4c0.2,0.1,0.4,0.2,0.6,0.3c0.2,0.1,0.4,0.2,0.5,0.2c0.3,0.1,0.5,0.2,0.5,0.2
			s-0.2,0.1-0.5,0.2c-0.2,0.1-0.3,0.1-0.6,0.2c-0.2,0.1-0.5,0.1-0.8,0.1c-0.6,0-1.3-0.1-1.9-0.3c-0.3-0.1-0.7-0.3-1-0.4
			c-0.3-0.2-0.6-0.4-1-0.6c-1.2-0.9-2.2-2-2.7-2.9C75.4,596.8,75.2,596.1,75.2,596.1z"/>
	</g>
	<g>
		<path class="st16" d="M82.3,580.4c0,0,0.1,0.3,0.2,0.7c0.1,0.2,0.2,0.4,0.3,0.7c0.1,0.3,0.3,0.6,0.5,0.9c0.2,0.3,0.4,0.7,0.6,1
			c0.2,0.4,0.5,0.7,0.8,1.1c0.3,0.4,0.6,0.8,0.9,1.1c0.3,0.4,0.6,0.8,0.9,1.2c0.3,0.4,0.6,0.8,1,1.1c0.3,0.4,0.6,0.7,1,1
			c0.3,0.3,0.6,0.6,0.9,0.9c0.3,0.3,0.6,0.5,0.9,0.8c0.3,0.2,0.6,0.4,0.8,0.5c0.3,0.1,0.5,0.3,0.7,0.3c0.4,0.1,0.7,0.2,0.7,0.2
			s-0.2,0.1-0.7,0.2c-0.2,0-0.5,0-0.9,0c-0.3,0-0.7-0.1-1.1-0.2c-0.4-0.2-0.8-0.3-1.2-0.6c-0.4-0.2-0.9-0.5-1.3-0.8
			c-0.4-0.3-0.8-0.6-1.2-1c-0.4-0.4-0.7-0.8-1.1-1.2c-0.3-0.4-0.7-0.9-1-1.3c-0.3-0.4-0.5-0.9-0.8-1.4c-0.3-0.4-0.4-0.9-0.6-1.3
			c-0.2-0.4-0.3-0.9-0.4-1.3c-0.1-0.4-0.1-0.8-0.2-1.1c0-0.4,0-0.7,0-0.9C82.3,580.7,82.3,580.4,82.3,580.4z"/>
	</g>
	<g>
		<path class="st16" d="M91.2,371.7c0,0,0.3,0.7,0.5,1.8c0.1,0.5,0.2,1.2,0.3,1.8c0,0.3,0.1,0.7,0.1,1c0,0.3,0.1,0.6,0.2,1
			c0,0.3,0.1,0.6,0.2,0.9c0.1,0.3,0.2,0.7,0.3,1c0.2,0.6,0.3,1.3,0.3,1.9c0.1,0.6,0,1.1,0,1.4c-0.1,0.3-0.1,0.5-0.1,0.5
			s-0.4-0.6-0.9-1.6c-0.3-0.5-0.6-1-0.9-1.6c-0.2-0.3-0.3-0.7-0.4-1c-0.1-0.4-0.2-0.7-0.3-1.2c-0.1-0.4-0.1-0.8-0.1-1.2
			c0-0.4,0-0.8,0-1.1c0.1-0.7,0.2-1.3,0.4-1.9C90.8,372.5,91.2,371.7,91.2,371.7z"/>
	</g>
	<g>
		<path class="st16" d="M119.6,340.8c0.5-1,0.8-2,1.2-3.1c0.4-1,0.8-2.1,1.5-3c0.4-0.5,0.8-0.9,1.3-1.3c0.5-0.3,1.1-0.6,1.7-0.7
			c1.2-0.3,2.4-0.2,3.5-0.1c1.1,0.1,2.2,0.3,3.3,0.4c0.5,0.1,1.1,0.2,1.6,0.2c0.5,0.1,1.1,0.1,1.7,0.2c1.1,0.2,2.2,0.4,3.2,0.6
			c1,0.2,2.1,0.3,3.1,0.3l-0.9,0.8c0.1-1.1,0.2-2.3,0.2-3.5c0-1.2,0-2.4,0-3.6l0.6,0.7c-1.8-0.4-3.6-0.9-5.4-1.4
			c-0.9-0.2-1.8-0.4-2.7-0.6c-0.9-0.2-1.8-0.3-2.7-0.3c0.9-0.3,1.8-0.3,2.8-0.3c0.9,0,1.9,0.1,2.8,0.2c1.8,0.2,3.7,0.5,5.5,0.8
			l0.6,0.1l0.1,0.6c0.1,1.2,0.2,2.4,0.2,3.6c0,1.2,0.1,2.4-0.1,3.7l-0.1,0.8l-0.8,0c-1.2,0.1-2.4-0.1-3.5-0.3l-3.2-0.5
			c-0.5-0.1-1-0.1-1.6-0.2c-0.6-0.1-1.1-0.2-1.7-0.3c-1.1-0.2-2.1-0.4-3.2-0.6c-1.1-0.2-2.1-0.3-3-0.2c-1,0.1-1.8,0.5-2.5,1.2
			c-0.7,0.7-1.2,1.7-1.8,2.6C120.9,338.9,120.3,339.9,119.6,340.8z"/>
	</g>
	<g>
		<path class="st16" d="M162.8,341c0,0,0.1,0.6,0.2,1.6c0.1,0.5,0.2,1.1,0.3,1.8c0.1,0.7,0.2,1.5,0.4,2.3c0.1,0.9,0.4,1.8,0.6,2.7
			c0.2,1,0.5,2,0.8,3c0.3,1,0.6,2.1,1,3.1c0.3,1.1,0.8,2.1,1.2,3.2c0.5,1,0.9,2.1,1.4,3.1c0.5,1,1,2,1.6,2.9
			c0.6,0.9,1.1,1.8,1.7,2.6c0.6,0.8,1.1,1.6,1.6,2.2c0.5,0.7,1,1.3,1.5,1.8c0.4,0.5,0.8,1,1.2,1.4c0.7,0.8,1.1,1.2,1.1,1.2
			s-0.5-0.3-1.3-0.9c-0.4-0.3-0.9-0.7-1.5-1.1c-0.6-0.5-1.2-1-1.8-1.6c-0.3-0.3-0.6-0.6-1-1c-0.3-0.4-0.6-0.7-1-1.1
			c-0.7-0.8-1.3-1.6-2-2.5c-0.6-0.9-1.3-1.9-1.8-2.9c-0.6-1-1.1-2.1-1.6-3.2c-0.4-1.1-0.9-2.2-1.2-3.3c-0.4-1.1-0.6-2.2-0.9-3.3
			c-0.2-1.1-0.4-2.1-0.5-3.2c-0.1-1-0.2-2-0.2-2.9c-0.1-0.9-0.1-1.7,0-2.4c0-0.7,0-1.3,0.1-1.9C162.7,341.6,162.8,341,162.8,341z"/>
	</g>
	<g>
		<path class="st16" d="M118.7,388.5c0,0,0-0.1-0.1-0.3c0-0.2,0-0.5,0-0.9c0.1-0.7,0.5-1.5,1.1-2.1c0.6-0.6,1.4-1,2-1.2
			c0.7-0.2,1.2-0.1,1.2-0.1s-0.1,0.1-0.1,0.3c-0.1,0.2-0.2,0.4-0.4,0.7c-0.3,0.5-0.8,1.1-1.3,1.7c-0.5,0.5-1.1,1-1.6,1.3
			c-0.1,0.1-0.2,0.2-0.3,0.2c-0.1,0.1-0.2,0.1-0.3,0.2C118.8,388.5,118.7,388.5,118.7,388.5z"/>
	</g>
	<g>
		<path class="st16" d="M125.8,381.7c0,0-0.1-0.4,0.1-0.8c0.1-0.4,0.4-0.9,0.7-1.2c0.4-0.3,0.8-0.5,1.2-0.5c0.4-0.1,0.8,0,0.8,0
			s0.1,0.4,0,0.8c-0.1,0.5-0.4,0.9-0.7,1.2c-0.4,0.3-0.8,0.5-1.3,0.5C126.2,381.8,125.8,381.7,125.8,381.7z"/>
	</g>
	<g>
		<path class="st16" d="M139.2,374.3c0,0,0-0.1,0-0.3c0-0.2,0-0.4,0.1-0.7c0.2-0.5,0.7-1,1.2-1.3c0.5-0.3,1-0.4,1.5-0.5
			c0.2,0,0.4-0.1,0.6-0.1c0.2,0,0.3,0,0.3,0s0.1,0.4-0.1,1c-0.2,0.5-0.7,1-1.2,1.3c-0.5,0.3-1,0.4-1.5,0.5c-0.2,0-0.4,0-0.6,0.1
			C139.3,374.3,139.2,374.3,139.2,374.3z"/>
	</g>
	<g>
		<path class="st16" d="M185.8,540.3c0,0,0.1,0.1,0.2,0.4c0.2,0.3,0.4,0.7,0.6,1.2c0.5,1.1,1,2.7,1.4,4.7c0.2,1,0.4,2,0.7,3.2
			c0.2,1.1,0.6,2.3,0.9,3.5c0.3,1.2,0.6,2.5,0.9,3.8c0.3,1.3,0.6,2.6,0.9,3.9c0.3,1.3,0.5,2.6,0.8,3.9c0.3,1.3,0.5,2.5,0.9,3.7
			c0.4,1.2,0.7,2.3,1.2,3.2c0.5,0.9,1.1,1.8,1.8,2.4c0.3,0.4,0.7,0.6,1,0.9c0.4,0.2,0.7,0.4,1.1,0.6c0.4,0.1,0.7,0.3,1,0.4
			c0.3,0.1,0.6,0.2,0.9,0.2c0.6,0.2,1,0.2,1.3,0.2c0.3,0,0.5,0.1,0.5,0.1s-0.2,0-0.5,0c-0.3,0-0.8,0.1-1.4,0.1c-0.3,0-0.6,0-1-0.1
			c-0.4-0.1-0.7-0.2-1.2-0.3c-0.4-0.1-0.8-0.3-1.3-0.5c-0.4-0.3-0.9-0.5-1.3-0.8c-0.9-0.6-1.6-1.5-2.3-2.6c-0.7-1-1.2-2.2-1.6-3.4
			c-0.4-1.2-0.8-2.5-1.1-3.8c-0.3-1.3-0.6-2.6-0.9-3.9c-0.3-1.3-0.5-2.6-0.8-3.9c-0.3-1.3-0.5-2.6-0.7-3.8c-0.2-1.2-0.5-2.4-0.6-3.6
			c-0.2-1.2-0.3-2.3-0.4-3.3c-0.2-2-0.4-3.6-0.7-4.8C186.1,541,185.8,540.3,185.8,540.3z"/>
	</g>
	<g>
		<path class="st16" d="M208.6,571c0,0,0.1,0.2,0.2,0.6c0.1,0.4,0.2,0.9,0.3,1.5c0.2,1.2,0.4,2.8,0.6,4.3c0.1,0.8,0.3,1.5,0.4,2.2
			c0.2,0.7,0.3,1.3,0.5,1.9c0.2,0.5,0.4,1,0.5,1.3c0.2,0.3,0.2,0.5,0.2,0.5s-0.2-0.1-0.5-0.3c-0.2-0.1-0.4-0.2-0.6-0.4
			c-0.2-0.2-0.4-0.4-0.7-0.6c-0.5-0.5-0.9-1.1-1.2-1.9c-0.2-0.4-0.3-0.8-0.4-1.2c-0.1-0.4-0.2-0.8-0.3-1.3c-0.3-1.7-0.1-3.4,0.2-4.6
			C208.2,571.8,208.6,571,208.6,571z"/>
	</g>
	<g>
		<path class="st16" d="M183.3,573c0,0,0.2,0.3,0.6,0.8c0.2,0.2,0.4,0.5,0.7,0.8c0.3,0.3,0.6,0.6,0.9,1c0.7,0.7,1.6,1.4,2.5,2.2
			c0.5,0.4,1,0.8,1.5,1.2c0.5,0.4,1,0.8,1.6,1.2c0.5,0.4,1.1,0.8,1.6,1.1c0.3,0.2,0.5,0.3,0.8,0.5c0.3,0.2,0.5,0.3,0.8,0.5
			c0.5,0.3,1,0.6,1.5,0.8c0.5,0.2,1,0.5,1.4,0.6c0.5,0.1,0.9,0.4,1.2,0.4c0.4,0.1,0.7,0.2,1,0.2c0.6,0.1,0.9,0.1,0.9,0.1
			s-0.3,0.1-0.9,0.3c-0.3,0.1-0.7,0.1-1.1,0.1c-0.4,0-0.9,0-1.4-0.1c-0.5-0.1-1.1-0.2-1.7-0.4c-0.6-0.2-1.2-0.4-1.8-0.7
			c-0.6-0.3-1.2-0.5-1.8-0.9c-0.6-0.3-1.2-0.7-1.7-1.1c-0.5-0.4-1.1-0.8-1.6-1.3c-0.5-0.4-1-0.9-1.4-1.4c-0.5-0.4-0.9-1-1.2-1.4
			c-0.4-0.5-0.7-0.9-1-1.4c-0.3-0.5-0.5-0.9-0.7-1.3c-0.2-0.4-0.3-0.7-0.4-1C183.3,573.4,183.3,573,183.3,573z"/>
	</g>
	<path class="st19" d="M229.7,253.1c-23.5-25.6-10.6-26.1-19-36.9c-10.6-13.6-19.4,0-19.4,0c0.3-0.9,0.3-1.8,0-2.6
		c-0.2,0.4-0.4,0.9-0.5,1.3c-0.8,2.3-2.1,4.9-3.1,7.2c-1,2.2-1.6,4.1-3.4,6c-3.6,4-5.6,8.6-8.7,12.5c-1,1.2-2.2,1.1-1.8,3l-0.3-0.3
		c-0.2,0.8,0,2,0.1,2.8c1.9,0.2,4.2-4,5.1-5.3c1.6-2.3,3.1-3.7,5.1-5.3c1.9-1.6,4.5-3.6,5.9-5.8c1.9-2.9,0.7-5.8,1.4-8.9
		c1.1-4.8,7.6-9.6,12.7-7.1c5.3,2.6,4.1,11.5,3.3,16.1c-0.6,3.5-2.6,6.8,0.2,10.1c2.3,2.7,5.4,2.2,8,4.2c2.7,2.1,4.8,4.8,4.7,8.2
		c-0.2,4.7-2.8,5.9-5.9,8.5c1.6,1,4.1-0.1,5.4,1c-2.5,2.5-15.6,2.4-15.9,6.8c3.1,0.7,16.1-7.4,15.8-0.5c0,0.9-1,1.7-1.2,2.7
		c4.2,0.3,5.4,2.2,5.4,2.2c5.3-1.9,1.3-7.5,1.3-7.5C233.1,260.8,229.7,253.1,229.7,253.1z"/>
	<g class="st13">
		<path d="M50.2,109.1c0,0,0,0.3,0,0.8c0,0.2,0,0.5,0,0.9c0,0.3,0,0.7,0,1.1c0.1,0.4,0.1,0.8,0.2,1.2c0.1,0.4,0.2,0.9,0.3,1.3
			c0.1,0.4,0.4,0.8,0.5,1.3l0.4,0.6l0.4,0.6c0.6,0.8,1.2,1.6,1.9,2.4c0.6,0.8,1.2,1.5,1.7,2.2c0.5,0.7,0.8,1.3,1,1.8
			c0.2,0.4,0.3,0.7,0.3,0.7s-0.2-0.2-0.6-0.5c-0.4-0.3-0.9-0.7-1.6-1.2c-0.6-0.5-1.4-1.1-2.1-1.8c-0.4-0.4-0.8-0.7-1.2-1.1
			c-0.4-0.4-0.7-0.9-1.1-1.3l-0.5-0.7c-0.1-0.3-0.3-0.5-0.4-0.8c-0.2-0.5-0.4-1.1-0.5-1.7c-0.1-0.6-0.1-1.1-0.1-1.6
			c0-0.5,0.1-1,0.2-1.4c0.1-0.4,0.2-0.8,0.3-1.1c0.1-0.3,0.3-0.6,0.4-0.8C50,109.3,50.2,109.1,50.2,109.1z"/>
	</g>
	<g class="st13">
		<path d="M85.4,100.8c0,0,0,0.1,0.1,0.3c0.1,0.2,0.1,0.5,0.3,0.9c0.1,0.4,0.3,0.8,0.6,1.3c0.3,0.5,0.6,1,1,1.5
			c0.4,0.5,0.9,1.1,1.4,1.7c0.5,0.6,1.1,1.1,1.7,1.7c0.6,0.6,1.3,1.2,1.9,1.8c0.7,0.6,1.3,1.2,2,1.8c1.4,1.2,2.7,2.4,4,3.6
			c1.3,1.1,2.5,2.1,3.5,2.9c1.1,0.8,2,1.4,2.7,1.8c0.7,0.4,1.1,0.6,1.1,0.6s-0.1,0-0.3-0.1c-0.2,0-0.5-0.1-0.9-0.2
			c-0.8-0.2-1.9-0.6-3.2-1.2c-1.3-0.6-2.7-1.5-4.1-2.6c-0.7-0.5-1.4-1.1-2.1-1.7c-0.7-0.6-1.4-1.2-2.1-1.8c-0.7-0.6-1.4-1.2-2-1.9
			c-0.7-0.6-1.3-1.3-1.9-2c-0.6-0.7-1.1-1.3-1.6-2c-0.2-0.3-0.4-0.7-0.6-1c-0.2-0.3-0.4-0.7-0.5-1c-0.1-0.3-0.3-0.6-0.4-0.9
			c-0.1-0.3-0.2-0.6-0.3-0.9c-0.1-0.6-0.2-1.1-0.2-1.5c-0.1-0.4,0-0.7,0-0.9C85.4,100.9,85.4,100.8,85.4,100.8z"/>
	</g>
	<g class="st13">
		<path d="M101.7,112.2c0,0,0.1,0.2,0.3,0.4c0.1,0.1,0.2,0.3,0.3,0.4c0.1,0.1,0.3,0.3,0.4,0.5c0.7,0.6,1.7,1.4,2.7,2.2
			c1,0.8,2,1.5,2.8,2.1c0.4,0.3,0.7,0.5,1,0.7c0.3,0.1,0.4,0.2,0.4,0.2s-0.2,0.1-0.5,0.1c-0.3,0.1-0.8,0.1-1.4,0
			c-0.5-0.1-1.2-0.2-1.8-0.5c-0.3-0.1-0.6-0.3-0.9-0.5c-0.3-0.2-0.6-0.4-0.9-0.6c-0.6-0.5-1.1-1-1.5-1.5c-0.4-0.5-0.7-1.1-0.9-1.7
			c-0.1-0.3-0.1-0.5-0.2-0.8c0-0.3,0-0.5,0-0.6C101.6,112.4,101.7,112.2,101.7,112.2z"/>
	</g>
	<g class="st13">
		<path d="M196.9,49.3c0.3,1.3,0.6,2.6,1.1,3.8c0.4,1.2,0.9,2.4,1.4,3.6l1.6,3.6c0.6,1.2,1.1,2.4,1.6,3.6l-0.7-0.6
			c0.3,0,0.7-0.1,1.1-0.4c0.4-0.3,0.8-0.7,1.2-1.1c0.8-0.9,1.4-2,2-3c0.6-1.1,1.2-2.2,1.7-3.4c0.2-0.5,0.5-1.2,0.7-1.7
			c0.2-0.6,0.4-1.2,0.6-1.8c0.2-0.6,0.3-1.2,0.4-1.8c0.1-0.6,0.3-1.2,0.3-1.9c0.2-1.2,0.3-2.5,0.5-3.8c0.2-2.5,0.4-5.1,0.7-7.7
			c0.3,2.6,0.5,5.1,0.5,7.7c0,2.6-0.1,5.2-0.7,7.8c-0.2,0.6-0.3,1.3-0.5,1.9c-0.2,0.7-0.4,1.2-0.7,1.9c-0.5,1.2-1.1,2.4-1.7,3.6
			c-0.3,0.6-0.7,1.1-1.1,1.7c-0.4,0.6-0.8,1.1-1.3,1.6c-0.5,0.5-1,1-1.6,1.5c-0.7,0.4-1.5,0.8-2.5,0.6l-0.5-0.1l-0.2-0.5l-1.4-3.7
			c-0.5-1.2-0.9-2.5-1.3-3.8c-0.4-1.3-0.7-2.6-1-3.9C197,52,196.9,50.7,196.9,49.3z"/>
	</g>
	<path class="st20" d="M227,24.5c-5.3-11.6-12.1-14.3-18.6-13c1.7,1.4,3.7,2.7,4.5,3.8c5.2,6.5,9.6,16.8,11.8,25
		c0.9,3.6,1.7,8.5,0.4,12.2c-0.8,2.3-4.5,6.2-7.2,5.2c-2.6-1-2.7-7.6-3.1-9.7c-0.6-3.3-1-7.1-3.7-9.5c-2.3,6.5,2.4,18.2-6.5,20.9
		c-2.4-2.9-5.2-7-6.8-10.4c-3.1,7.3,4.3,17.5,8.9,22.8c0.7,0.8,1.5,1.6,2.3,2.4c2.4,0.5,4.5,0.8,4.5,0.8
		c38.5,10.7,27.2-12.8,27.2-12.8L227,24.5z"/>
	<g>
		<path class="st14" d="M209.1,70.9c0,0,0.9-0.1,2.4-0.1c0.8,0,1.7,0,2.8,0c1.1,0,2.2-0.1,3.5-0.3c1.2-0.3,2.5-0.8,3.7-1.6
			c1.2-0.8,2.3-1.8,3.3-3c2.1-2.4,3.7-5.4,4.5-8.7c0.1-0.4,0.2-0.8,0.3-1.2c0.1-0.4,0.1-0.8,0.2-1.2c0.1-0.8,0.2-1.7,0.2-2.5
			c0.1-1.7,0.1-3.4,0.1-5c0-1.6,0-3.2,0-4.8c0-1.5-0.1-2.8-0.3-4.1c-0.4-2.6-1-4.7-1.4-6.2c-0.4-1.5-0.7-2.3-0.7-2.3s0.4,0.8,1,2.2
			c0.6,1.4,1.5,3.5,2.1,6.1c0.3,1.3,0.6,2.8,0.7,4.3c0.1,1.5,0.2,3.1,0.3,4.7c0.1,1.7,0.1,3.4,0.1,5.2c0,0.9-0.1,1.8-0.2,2.7
			c0,0.4-0.1,0.9-0.2,1.4c-0.1,0.4-0.2,0.9-0.3,1.3c-0.4,1.8-1.1,3.5-2,5.1c-0.9,1.6-2,3-3.1,4.3c-1.1,1.2-2.5,2.4-3.9,3.1
			c-1.4,0.8-2.8,1.3-4.2,1.5c-1.4,0.2-2.6,0.1-3.7,0c-1.1-0.1-2-0.3-2.8-0.4C210,71,209.1,70.9,209.1,70.9z"/>
	</g>
	<g class="st0">
		<path class="st21" d="M182,195.5c-0.6,0.6-1.2,1.2-1.7,1.9c-0.5,0.6-1.2,1.3-1.8,1.9l-1.9,1.7l-1.9,1.6l-0.5,0.4l-0.6,0.4
			c-0.4,0.3-0.8,0.5-1.2,0.7c-0.8,0.4-1.6,0.8-2.4,1.2c-1.7,0.7-3.4,1.2-5.2,1.4l0.2-2.9c1.3,0.4,2.7,0.6,4.1,0.7
			c1.4,0.1,2.9,0.2,4.4,0.3l0.6,0c0.1,0,0.4,0,0.5,0c0.3,0,0.7,0,1,0c0.7,0,1.4-0.1,2.1-0.2c0.7-0.1,1.4-0.3,2.1-0.5
			c0.3-0.1,0.7-0.2,1-0.4c0.3-0.1,0.6-0.4,0.9-0.6c-0.3,0.7-0.9,1.3-1.6,1.7c-0.6,0.5-1.3,0.8-2.1,1.1c-0.7,0.3-1.5,0.5-2.2,0.7
			c-0.4,0.1-0.8,0.2-1.2,0.2c-0.2,0-0.3,0-0.6,0.1l-0.6,0c-1.5,0.1-3,0.2-4.5,0.2c-1.5,0-3.1-0.2-4.7-0.6l-7.1-1.9l7.3-1.1
			c1.5-0.2,3.1-0.6,4.5-1.1c0.7-0.3,1.5-0.5,2.2-0.9c0.4-0.2,0.7-0.3,1-0.5l0.5-0.3l0.5-0.3l2.2-1.3l2.2-1.3
			c0.4-0.2,0.7-0.4,1.1-0.6l1.1-0.7C180.4,196.2,181.2,195.8,182,195.5z"/>
	</g>
	<path class="st22" d="M200.3,18.4c-1.4,2.4-4.3,4.6-5.9,7.2c-1.8,3-3.5,7.1-3.9,10.6c-0.4,3.9,0,8.3,1.1,12
		c0.8,2.6,2.1,7.1,4.4,8.8c-0.1-1.5-0.9-3.1-1-4.7c-0.1-1.9,0-3.9,0-5.8c0-3.6-0.8-9,1.1-12.1c0.4,3.3,3,7.2,4.8,10.4
		c2.2,3.9,3.6,6.9,4,11.2c5.1-6.1,4.1-17.8,1-24.5c0,2.1,0.2,10-2.1,10.6c-1.6-3.6-4.5-7.2-5.2-11.3c-0.6-4.1,0.6-8.4,1.7-12.1"/>
	<g class="st13">
		<path class="st14" d="M109.5,134.5c0,0,0.1,0.2,0.3,0.6c0.2,0.4,0.5,1,0.8,1.8c0.3,0.8,0.7,1.8,1,3c0.4,1.2,0.7,2.5,1,3.9
			c0.3,1.5,0.6,3.1,0.8,4.7c0.2,1.7,0.4,3.5,0.5,5.3c0.1,1.9,0.2,3.7,0.2,5.8c-0.1,2-0.3,4.1-0.9,6.1c-0.3,1-0.7,2-1.2,2.9
			c-0.5,0.9-0.9,1.8-1.3,2.5l-0.1,0.1c0,0,0,0.1,0,0l0,0.1c0,0.1-0.1,0.2-0.1,0.3c0,0.1,0,0.2-0.1,0.3c0,0.2,0,0.5,0.1,0.8
			c0.3,0.6,0.8,1.4,1.3,2.1c1,1.3,2.3,2.4,3.6,3.2c1.3,0.8,2.8,1.6,4,2.2c1.3,0.6,2.5,1,3.6,1.2c1.2,0.3,2.2,0.5,3,0.5
			c0.8,0.1,1.5,0,1.9-0.1c0.4-0.1,0.6-0.4,0.6-0.4c0,0-0.1,0.2-0.5,0.5c-0.4,0.2-1.1,0.5-2,0.5c-0.9,0.1-2,0.1-3.2,0
			c-1.2-0.1-2.7-0.3-4.1-0.8c-1.5-0.5-3-1.1-4.5-1.9c-1.6-0.8-3.2-1.9-4.5-3.5c-0.7-0.8-1.2-1.5-1.8-2.6c-0.3-0.5-0.5-1.3-0.5-2
			c0-0.4,0-0.7,0.2-1.1c0.1-0.2,0.1-0.3,0.1-0.4l0.1-0.2l0.1-0.2c0.4-1,0.9-1.9,1.3-2.7c0.4-0.8,0.7-1.7,0.9-2.5
			c0.6-1.7,0.8-3.5,0.9-5.4c0.1-1.8,0.1-3.8,0.1-5.6c0-1.8,0-3.6-0.1-5.2c-0.1-1.7-0.2-3.2-0.3-4.7c-0.3-2.9-0.6-5.3-0.9-7
			c-0.2-0.8-0.3-1.5-0.4-2C109.5,134.7,109.5,134.5,109.5,134.5z"/>
	</g>
	<path d="M110.6,146c-0.8,0.5-0.6,3.4,0.1,4c1.2,1.2,2.8-0.3,3.9-1.2c2.6-2.1,4.9-3.6,8.4-3.5c1.9,0.1,3.3,1,5,1.6
		c1.1,0.4,3.3,1.8,3.3,0.1c0-2-4.1-4.8-5.6-5.6c-2.9-1.4-6.7-1.3-9.5-0.1c-1.7,0.7-4.6,2.5-5.5,4.2"/>
	<path class="st4" d="M110.6,147.9c-0.8,0.5-0.6,3.4,0.1,4c1.2,1.2,2.8-0.3,3.9-1.2c2.6-2.1,4.9-3.6,8.4-3.5c1.9,0.1,3.3,1,5,1.6
		c1.1,0.4,3.3,1.8,3.3,0.1c0-2-4.1-4.8-5.6-5.6c-2.9-1.4-6.7-1.3-9.5-0.1c-1.7,0.7-4.6,2.5-5.5,4.2"/>
	<path class="st4" d="M80.5,135.2c0.8,0.1,1.8-1.4,2.3-1.9c0.8-0.7,1.9-1.7,3-1.9c2.9-0.6,4.5,1.5,6.9,2.5c2,0.8,4.9,2.3,6-0.2
		c0.8-1.7,0.7-5,0.1-6.8c-1.7-5.3-8.2-7.6-13.1-5.3c-2.9,1.4-4.4,4.1-5.3,7.1c-0.5,1.7-2,5.5,0.5,6.1"/>
	<path class="st4" d="M200.4,76c0,0-6-22.9-33.9-19.2c0,0-67.1-1.7-120,49.2c0,0-15.4,15.8,19.6,27.4l-5.4-6.2
		c0,0,63.4-0.5,68.5-8.2c0,0-16.5-9.2-17.2-19c-0.5-6.4,11.5,14.5,26.2,18.8c0,0,10.3-2.8,10.9-4.8c0.6-2-6.9-6.4-11.1-16.2
		c-3.6-8.4,13.9,15.4,18.8,14.5c4.8-0.9,2-2.3,2-2.3s-13-17.9-10.2-21.3c2.5-3.1,22.5-10.2,28.4-4.8c6,5.4,21.8,30.5,24.9,47.4
		c2.6,13.9,9.3,7.1,10.4,5.5c4.2-5.9,10.4-13.2,11.8-15.7c1.4-2.6,0.1-8.9-3.5-16.7C220.7,104.4,209.2,68.4,200.4,76z"/>
	<path class="st9" d="M201.4,69.8c0,0-10.8-18.2-38.7-14.5c0,0-67.1-1.7-120,49.2c0,0-11.7,17.3,23.3,29l-5.4-6.5
		c0,0,59.7-1.7,64.8-9.4c0,0-16.5-9.2-17.2-19c-0.5-6.4,11.5,14.5,26.2,18.8c0,0,10.3-2.8,10.9-4.8c0.6-2-6.9-6.4-11.1-16.2
		c-3.6-8.4,13.9,15.4,18.8,14.5c4.8-0.9,2-2.3,2-2.3s-13-17.9-10.2-21.3c2.5-3.1,22.5-10.2,28.4-4.8c6,5.4,30.7,55.7,33.8,72.6
		c2.6,13.9,9.2-7.6,10.3-9.2c4.2-5.9,11.5-17.7,12.9-20.2c1.4-2.6,1.6-10.5-7-28.1C223.3,97.4,210.3,62.1,201.4,69.8z"/>
	<g>
		<g class="st13">
			<path d="M189.5,68.4L190,68c0.1-0.2,0.4-0.2,0.6-0.3c0.2-0.1,0.4-0.2,0.7-0.2c0.2-0.1,0.5,0,0.7,0c0.3,0,0.5,0.1,0.7,0.2
				c0.2,0.1,0.4,0.2,0.7,0.4c0.2,0.2,0.4,0.3,0.5,0.5c0.2,0.2,0.3,0.4,0.4,0.6c0.3,0.4,0.5,0.8,0.7,1.2c0.2,0.4,0.3,0.8,0.5,1.3
				c0.3,0.8,0.4,1.7,0.5,2.6l-1.5-0.8c0.7-0.4,1.4-1.2,2.4-1.8c0.5-0.3,1-0.6,1.7-0.8c0.3-0.1,0.7-0.1,1-0.1c0.4,0,0.7,0.1,1,0.3
				c0.2,0.1,0.6,0.4,0.8,0.6c0.2,0.2,0.4,0.5,0.6,0.7c0.3,0.5,0.5,1,0.7,1.5c0.3,1.1,0.5,2.1,0.3,3.2c-0.2-0.5-0.4-1-0.6-1.4
				c-0.2-0.5-0.5-0.9-0.7-1.3c-0.3-0.4-0.5-0.8-0.9-1.1c-0.2-0.2-0.3-0.3-0.5-0.4c-0.1-0.1-0.2-0.1-0.2-0.1c0,0-0.2-0.1-0.3-0.1
				c-0.1,0-0.3-0.1-0.5-0.1c-0.2,0-0.3,0-0.5,0.1c-0.3,0.1-0.7,0.3-1.1,0.6c-0.7,0.5-1.4,1.3-2.5,1.9l-1.4,0.8l-0.1-1.6
				c-0.1-0.8-0.2-1.6-0.3-2.3c-0.1-0.4-0.2-0.7-0.3-1.1c-0.1-0.4-0.2-0.7-0.4-1c-0.1-0.2-0.2-0.3-0.2-0.5c-0.1-0.2-0.2-0.3-0.3-0.4
				c-0.1-0.1-0.2-0.2-0.4-0.3c-0.1-0.1-0.3-0.2-0.4-0.2c-0.2,0-0.3-0.1-0.5-0.1c-0.2,0-0.4,0-0.6,0c-0.2,0-0.4,0-0.6,0.1L189.5,68.4
				z"/>
		</g>
		<g class="st13">
			<path class="st14" d="M204.2,69.1c2,0.8,5.7,7.8-3.9,2.5c-1.4-0.8-5.2,2.5-5,4.2c5.8,5.6,14.2,16.4,15.9,24.3
				c2.2,10.5-4.6,16.1-13.4,9.7c-6.3-4.6-10.9-10.2-14.9-17c-4.3-7.2-8.8-11-13.6-12.1C166,79.9,144,83,142.8,90.9
				c-1,6,2.5,8,6.1,12.2c1.7,2,5.1,4.4,6.7,7.3c1-0.7-0.5-1.5-0.5-1.5s-13-17.9-10.2-21.3c2.5-3.1,22.5-10.2,28.4-4.8
				c6,5.4,30.7,55.7,33.8,72.6c2.6,13.9,9.2-7.6,10.3-9.2c4.2-5.9,11.5-17.7,12.9-20.2c1.4-2.6,1.6-10.5-7-28.1
				C223.3,97.7,212.7,69.1,204.2,69.1z"/>
			<path class="st14" d="M144.2,104.8c-2.4-2.7-9-11.2-12.4-10.6c-1.5,6.1,4.9,11.7,8.3,16.2c0.8,1,2.1,2.6,3.1,4.1
				c1.2-0.6,2.1-1.2,2.3-1.8c0.6-2-6.9-6.4-11.1-16.2C132.1,91.3,138.2,98.8,144.2,104.8z"/>
			<path class="st14" d="M59.5,123c-2.7-2.4-8.2-11.8-11.8-11.7c0.1,4.8,3.5,10.8,5.1,15.3c0.2,0.6,0.4,1.2,0.7,1.8
				c3.3,1.9,7.5,3.8,12.6,5.5l-5.4-6.5c0,0,1.8-0.1,4.9-0.2C63.6,126.2,61.6,124.9,59.5,123z"/>
			<path class="st14" d="M100.8,118.2c-5-2.4-8.2-5.1-11.9-9c-2.3-2.5-5.4-6.7-8.3-7.8c-1.4,10.6,2.2,18,8.8,24.3
				c8-0.7,16.3-1.6,22.9-2.9C108.5,121.7,104.7,120,100.8,118.2z"/>
			<path class="st14" d="M125.5,117.9c0,0-15.5-8.7-17.1-18.2c-0.6-0.4-1.1-0.8-1.6-1.2c-3.7,4.3,7.3,16.5,12.8,22.6
				C122.6,120.2,124.7,119.1,125.5,117.9z"/>
			<path class="st14" d="M76.1,123.4c-2.6-1.8-7.2-9.1-9.3-9.2c1,3.9,3.1,9.2,6.1,12.6c2.5-0.1,5.2-0.3,8.1-0.5
				C79.4,125.5,77.8,124.6,76.1,123.4z"/>
		</g>
		<g>
			<path class="st14" d="M125.4,78.1c0,0-0.1,0.1-0.3,0.4c-0.2,0.3-0.4,0.7-0.7,1.2c-0.5,1.1-0.9,2.8-1,4.9c-0.1,1-0.1,2.2-0.1,3.3
				c0,0.6,0,1.2,0.1,1.8c0.1,0.6,0.1,1.2,0.2,1.8c0.4,2.5,1.4,5,2.7,7.4c0.2,0.3,0.3,0.6,0.5,0.9l0.5,0.9c0.4,0.6,0.7,1.1,1.1,1.6
				c0.8,1.1,1.6,2.1,2.5,3c1.8,1.9,3.6,3.4,5.3,4.7c1.7,1.2,3.2,2.2,4.2,2.8c0.5,0.3,1,0.5,1.2,0.8c0.2,0.2,0.4,0.4,0.4,0.4
				s-0.1-0.1-0.4-0.3c-0.3-0.1-0.8-0.3-1.3-0.5c-1.2-0.4-2.8-1.1-4.7-2.2c-0.9-0.5-1.9-1.1-2.9-1.9c-1-0.7-2-1.5-3-2.5
				c-1-0.9-2-2-2.8-3.1c-0.4-0.6-0.9-1.2-1.3-1.8l-0.6-0.9c-0.2-0.3-0.4-0.6-0.6-1c-0.7-1.3-1.3-2.6-1.8-4c-0.5-1.4-0.8-2.8-0.9-4.2
				c-0.1-0.7-0.1-1.4-0.1-2c0-0.6,0-1.3,0.1-1.9c0.1-1.2,0.2-2.4,0.4-3.5c0.2-1.1,0.5-2,0.8-2.9c0.3-0.8,0.7-1.5,1-2
				c0.4-0.5,0.7-0.9,0.9-1.1C125.3,78.2,125.4,78.1,125.4,78.1z"/>
		</g>
		<g>
			<path class="st14" d="M106.4,108.2c0,0,0,0.1,0.1,0.2c0,0.1,0,0.2,0.1,0.2c0,0.1,0.1,0.2,0.2,0.3c0.1,0.2,0.3,0.4,0.5,0.7
				c0.2,0.3,0.5,0.5,0.7,0.8c0.3,0.3,0.6,0.6,0.9,1c0.3,0.3,0.7,0.7,1.1,1c0.8,0.7,1.6,1.5,2.4,2.2c0.4,0.4,0.8,0.8,1.2,1.1
				c0.2,0.2,0.4,0.4,0.6,0.5c0.2,0.2,0.4,0.3,0.6,0.5c0.8,0.6,1.6,1.2,2.3,1.7c0.7,0.5,1.3,1,1.7,1.3c0.4,0.4,0.6,0.6,0.6,0.6
				s-0.3-0.1-0.8-0.2c-0.5-0.2-1.2-0.3-2-0.6c-0.8-0.3-1.8-0.6-2.8-1.2c-0.2-0.1-0.5-0.3-0.7-0.5l-0.3-0.2l-0.3-0.3
				c-0.4-0.4-0.9-0.8-1.3-1.2c-0.8-0.8-1.6-1.7-2.3-2.5c-0.3-0.4-0.7-0.9-0.9-1.3c-0.3-0.4-0.5-0.8-0.7-1.2
				c-0.2-0.4-0.4-0.8-0.5-1.1c-0.1-0.4-0.2-0.7-0.2-1c0-0.3,0-0.5,0-0.6C106.3,108.3,106.4,108.2,106.4,108.2z"/>
		</g>
		<g>
			<path class="st14" d="M49.5,107.1c0,0,0.1,0.4,0.2,1.1c0.1,0.7,0.2,1.7,0.4,2.8c0.1,0.6,0.3,1.1,0.4,1.7c0.1,0.3,0.2,0.6,0.3,0.9
				c0.1,0.3,0.3,0.6,0.4,1c0.3,0.7,0.6,1.3,0.9,2c0.3,0.7,0.7,1.4,1,2c0.4,0.7,0.7,1.3,1.1,1.9c0.4,0.6,0.8,1.2,1.2,1.7
				c0.4,0.5,0.9,1,1.3,1.5c0.5,0.4,0.9,0.8,1.4,1.2c0.9,0.7,1.7,1.1,2.4,1.4c0.6,0.3,1,0.5,1,0.5s-0.1,0-0.3,0c-0.2,0-0.5,0-0.8-0.1
				c-0.7-0.1-1.7-0.3-2.8-0.8c-0.6-0.3-1.2-0.6-1.7-1c-0.6-0.4-1.2-0.9-1.7-1.5c-0.5-0.6-1.1-1.2-1.5-1.8c-0.4-0.7-0.9-1.4-1.2-2.1
				c-0.7-1.4-1.4-2.9-1.8-4.4c-0.1-0.4-0.2-0.7-0.3-1.1c-0.1-0.3-0.2-0.7-0.2-1.1c-0.1-0.7-0.2-1.4-0.1-2c0-1.2,0.3-2.2,0.4-2.9
				C49.4,107.4,49.5,107.1,49.5,107.1z"/>
		</g>
		<g>
			<path class="st14" d="M81.6,96.1c0,0,0.1,0.7,0.3,1.8c0.1,0.6,0.2,1.2,0.4,2c0.2,0.8,0.4,1.6,0.7,2.6c0.3,0.9,0.6,1.9,1,2.9
				c0.2,0.5,0.4,1,0.7,1.5c0.2,0.5,0.5,1,0.8,1.6c0.6,1.1,1.3,2.1,2,3.1c0.8,1,1.6,1.9,2.5,2.8c0.9,0.9,1.9,1.6,3,2.3
				c1.1,0.7,2.2,1.4,3.2,2c1.1,0.6,2.1,1.2,3.1,1.6c1,0.4,1.9,0.8,2.9,1.1c1.8,0.5,3.5,0.7,4.6,1c0.6,0.1,1,0.3,1.3,0.4
				c0.3,0.1,0.4,0.2,0.4,0.2s-0.7-0.1-1.8-0.2c-0.6,0-1.3,0-2.1-0.1c-0.8,0-1.7,0-2.7-0.2c-1-0.1-2.1-0.4-3.2-0.8
				c-1.1-0.4-2.2-0.9-3.4-1.4c-1.1-0.6-2.3-1.2-3.4-1.9c-1.1-0.7-2.3-1.5-3.3-2.4c-1-0.9-1.9-2-2.7-3.1c-0.8-1.1-1.4-2.3-2-3.4
				c-0.6-1.1-1-2.3-1.3-3.4c-0.4-1.1-0.6-2.2-0.8-3.2c-0.2-1-0.3-1.9-0.3-2.7c-0.1-0.8,0-1.5,0-2.1c0-0.6,0.1-1,0.1-1.3
				C81.6,96.3,81.6,96.1,81.6,96.1z"/>
		</g>
	</g>
	<path class="st22" d="M50.7,102.7c-1.6,2.6-0.1,7.1,1.4,9.3c2.3,3.4,5.3,6.1,9,7.5c-0.8-2.2-1.3-4.7-1.1-7.2
		c0.1-1.7,0.6-5.4,1.8-6.5c1.2,2.8,5.5,7.3,8.6,7.9c-2.1-3.9,0-10,2.5-14c2-3.4,3.4-7,7.3-8c1.2,2.2,1.8,5.1,2.9,7.4
		c1.1,2.3,2.6,4.1,4.3,6c3.6,4.3,10.3,9.3,16,9.2c0.2-2-1.9-5.3-2.4-7.3c-0.6-2.5-1.2-4.9-1.2-7.6c0-4.4-0.4-10.9,3.7-13.4
		c1.3,1.2,1.4,4.2,2.6,5.8c1.1,1.5,3,2.8,4.4,4.1c3.3,3,8,3.6,11.2,6.4c-2.4-5.6-5.6-12.3-4.7-18.6c0.4-2.8,1.9-4.7,4-6.8
		c2.1-2.1,3.5-3.9,5.8-5.2c-1.8,7,2.7,16.5,9.4,19.8c-1.6-4.3-1.1-9.2,0.7-13.3c0.8-1.8,1.9-3.5,3-5.1c0.9-1.3,2.2-2.5,2.8-4
		c-2.5-0.2-5.7,2-7.2,3.7c-1.2,1.4-3.4,7.4-4.8,7.2c-0.8-3.6-0.1-7.5-0.3-11.2c-4.2-0.6-9.7,1.9-13.1,4.1c-4.9,3.3-7.8,8-11,12.6
		c-0.4-1.9-1.2-5.6-1.7-7.5c-5,3.7-9.8,6.9-12.6,13c-0.5,1-1.2,2.3-1.4,3.4c-0.2,0.8-0.1,3.9-0.7,4.4c-1.4,1.1-3.5-2.8-4.3-4.1
		c-1.1-1.9-1.7-4.5-2.8-6.1c-0.9-1.2-0.8-1.2-2.6-0.7c-1.6,0.4-3.6,1.1-4.9,2.1c-2,1.6-3.8,3.9-5.5,5.8c-1.3,1.4-3,3-3.7,4.6
		c-0.2-2.4-1.6-6.7-1-8.8c-3.3-0.2-5.1,3.9-6.8,7.4c-0.8,1.7-1.2,4.4-1.8,6.2c-0.5,1.5-0.3,3.6-1.5,4.8c-2.3-2-3.2-4.7-4.1-7.2"/>
	<path class="st15" d="M97.5,130.1c-1.3,0.6-3.7,0.2-5.1-0.4c-1.7-0.6-3.1-1-5-0.9c-3,0.1-4.7,2.5-6.2,4.9c-0.6,1-1,3-1.9,3.5
		c-1.8,1.1-1.4-2-1.4-3.2c0-3.6-0.1-8.4,2.7-11.1c3.2-3,9.6-2.5,13.1-0.2c1.2,0.8,2.3,2.1,3.2,3.2c0.6,0.7,2.7,4.2,0.4,4.1"/>
	<g class="st23">
		<path class="st3" d="M65.2,161.3c0,0-0.5-0.2-1.5-0.5c-0.5-0.2-1-0.3-1.7-0.7c-0.6-0.4-1.1-1-1.6-1.8c-0.1-0.2-0.2-0.4-0.3-0.7
			c0-0.1,0-0.1,0-0.2c0-0.1,0,0,0-0.2l0-0.1l0.1-0.2l0.1-0.2c0.3-0.5,0.7-0.7,1.1-1c0.8-0.6,1.7-1,2.7-1.5c0.5-0.2,0.9-0.5,1.3-0.8
			c0.4-0.3,0.9-0.7,1.3-1c0.9-0.7,1.8-1.4,2.7-2c1.9-1.3,3.9-2.4,5.9-3.1c1-0.4,2-0.6,2.9-0.9c0.9-0.3,1.8-0.6,2.6-0.7
			c0.8-0.2,1.6-0.3,2.3-0.3c0.7-0.1,1.3-0.1,1.8-0.2c1-0.1,1.5-0.3,1.5-0.3s-0.5,0.2-1.5,0.5c-1,0.2-2.4,0.4-3.9,0.9
			c-0.8,0.2-1.6,0.5-2.5,0.9c-0.9,0.4-1.9,0.6-2.8,1c-1.9,0.8-3.8,1.9-5.6,3.1c-0.9,0.6-1.8,1.3-2.7,2c-0.4,0.3-0.9,0.7-1.3,1
			c-0.5,0.4-1,0.6-1.5,0.8c-0.9,0.5-1.9,0.9-2.7,1.3c-0.4,0.2-0.8,0.5-1,0.8l-0.1,0.1l-0.1,0.2l0,0.1c0-0.1,0,0,0,0c0,0,0,0.1,0,0.1
			c0,0.2,0.1,0.3,0.2,0.5c0.4,0.7,0.9,1.3,1.3,1.7c0.5,0.4,1.1,0.6,1.5,0.8C64.8,161,65.2,161.3,65.2,161.3z"/>
	</g>
	<g class="st24">
		<path class="st3" d="M110.9,146.3c0,0,0.2-0.2,0.5-0.6c0.3-0.4,0.8-0.9,1.4-1.5c0.3-0.3,0.7-0.6,1-0.9c0.4-0.3,0.8-0.6,1.3-0.8
			c0.5-0.3,1-0.5,1.5-0.7c0.3-0.1,0.5-0.2,0.8-0.3c0.3-0.1,0.6-0.2,0.8-0.2c1.1-0.2,2.3-0.3,3.3-0.2c1.1,0.1,2,0.3,2.8,0.6
			c0.4,0.1,0.8,0.3,1.1,0.5c0.3,0.2,0.5,0.4,0.7,0.5c0.2,0.1,0.3,0.3,0.4,0.4c0.1,0.1,0.1,0.1,0.1,0.1s-0.1,0-0.2-0.1
			c-0.1-0.1-0.3-0.2-0.5-0.3c-0.2-0.1-0.5-0.2-0.8-0.3c-0.3-0.1-0.7-0.2-1.1-0.3c-1.6-0.3-3.7-0.3-5.8,0.1c-0.3,0-0.5,0.1-0.8,0.2
			c-0.3,0.1-0.5,0.2-0.8,0.2c-0.5,0.2-1,0.4-1.4,0.6c-0.4,0.2-0.9,0.4-1.3,0.7c-0.4,0.2-0.8,0.5-1.1,0.7c-0.7,0.5-1.2,0.9-1.6,1.2
			C111.1,146.2,110.9,146.3,110.9,146.3z"/>
	</g>
	<g class="st24">
		<path class="st3" d="M131.3,144.7c0,0,0.1-0.3,0.3-0.7c0.2-0.4,0.5-1.1,0.9-1.8c0.5-0.7,1.1-1.5,1.8-2.2c0.7-0.8,1.6-1.5,2.5-2.1
			c0.9-0.6,1.7-1.3,2.7-1.9c0.9-0.5,1.8-0.9,2.6-1.1c0.8-0.3,1.4-0.5,1.9-0.6c0.5-0.1,0.7-0.2,0.7-0.2s-0.2,0.2-0.7,0.4
			c-0.4,0.2-1,0.6-1.8,1c-0.7,0.4-1.6,0.8-2.4,1.4c-0.8,0.5-1.6,1.2-2.5,1.9c-0.9,0.6-1.7,1.3-2.5,1.9c-0.8,0.7-1.4,1.3-1.9,1.9
			c-0.5,0.6-1,1.1-1.2,1.5C131.5,144.5,131.3,144.7,131.3,144.7z"/>
	</g>
</g>
</svg>
