<?xml version="1.0" encoding="utf-8"?>
<!-- Generator: Adobe Illustrator 19.1.0, SVG Export Plug-In . SVG Version: 6.00 Build 0)  -->
<svg version="1.1" id="Layer_1" xmlns="http://www.w3.org/2000/svg" xmlns:xlink="http://www.w3.org/1999/xlink" x="0px" y="0px"
	 viewBox="3 -200 474.6 700" style="enable-background:new 3 -200 474.6 700;" xml:space="preserve">
<style type="text/css">
	.st0{fill:url(#SVGID_1_);}
	.st1{opacity:0.3;}
	.st2{fill:#FFFFFF;}
	.st3{fill:none;stroke:#595959;stroke-miterlimit:10;}
	.st4{opacity:0.02;}
	.st5{opacity:0.05;}
	.st6{clip-path:url(#SVGID_3_);}
	.st7{opacity:0.5;}
	.st8{fill:#FCDC9D;}
	.st9{opacity:0.3;fill:#893E00;}
	.st10{opacity:0.2;fill:#893E00;}
	.st11{opacity:0.4;fill:#FFFFFF;}
	.st12{fill:#DBBB63;}
	.st13{fill:#A8B772;}
	.st14{fill:#FF964E;}
	.st15{fill:#6B8589;}
	.st16{opacity:0.6;fill:#FFFFFF;}
	.st17{fill:#5E0022;}
	.st18{fill:#893E00;}
	.st19{fill:#7F5C04;}
	.st20{fill:#FCF0AC;}
	.st21{fill:#038791;}
	.st22{fill:none;}
	.st23{opacity:0.4;fill:#893E00;}
	.st24{opacity:0.5;fill:#893E00;}
	.st25{fill:#5B2700;}
	.st26{opacity:0.5;fill:#F7DF9C;}
	.st27{opacity:0.8;}
	.st28{opacity:0.6;}
	.st29{fill:#FF4949;}
</style>
<g>
	<g>
		<g>
			<g>
				<g>
					
						<image style="overflow:visible;opacity:0.31;" width="292" height="477" xlink:href="3BD5A033.png"  transform="matrix(1 0 0 1 1.6701 -155.7407)">
					</image>
					<g>
						<linearGradient id="SVGID_1_" gradientUnits="userSpaceOnUse" x1="154.7409" y1="-147.6719" x2="154.7409" y2="298.9667">
							<stop  offset="0" style="stop-color:#81CAE3"/>
							<stop  offset="0.2941" style="stop-color:#ACD7DC"/>
							<stop  offset="0.5884" style="stop-color:#CFE3D6"/>
							<stop  offset="0.829" style="stop-color:#E5E9D2"/>
							<stop  offset="0.9839" style="stop-color:#EDECD1"/>
						</linearGradient>
						<path class="st0" d="M285.5-136.4c0-6.2-5.1-11.3-11.3-11.3h-239c-6.2,0-11.3,5.1-11.3,11.3v424.1c0,6.2,5.1,11.3,11.3,11.3
							h239c6.2,0,11.3-5.1,11.3-11.3V-136.4z"/>
					</g>
				</g>
				<circle cx="154.7" cy="-125.6" r="4.1"/>
				<g>
					<g class="st1">
						<path class="st2" d="M250.7-54.7c0-4.7-3.8-8.5-8.5-8.5h-74.1c-4.7,0-8.5,3.8-8.5,8.5v74.1c0,4.7,3.8,8.5,8.5,8.5h74.1
							c4.7,0,8.5-3.8,8.5-8.5V-54.7z"/>
						<path class="st2" d="M149.8-54.7c0-4.7-3.8-8.5-8.5-8.5H67.3c-4.7,0-8.5,3.8-8.5,8.5v74.1c0,4.7,3.8,8.5,8.5,8.5h74.1
							c4.7,0,8.5-3.8,8.5-8.5V-54.7z"/>
						<path class="st2" d="M149.8,46.8c0-4.7-3.8-8.5-8.5-8.5H67.3c-4.7,0-8.5,3.8-8.5,8.5v74.1c0,4.7,3.8,8.5,8.5,8.5h74.1
							c4.7,0,8.5-3.8,8.5-8.5V46.8z"/>
						<path class="st2" d="M250.7,46.8c0-4.7-3.8-8.5-8.5-8.5h-74.1c-4.7,0-8.5,3.8-8.5,8.5v74.1c0,4.7,3.8,8.5,8.5,8.5h74.1
							c4.7,0,8.5-3.8,8.5-8.5V46.8z"/>
						<path class="st2" d="M149.8,149.7c0-4.7-3.8-8.5-8.5-8.5H67.3c-4.7,0-8.5,3.8-8.5,8.5v74.1c0,4.7,3.8,8.5,8.5,8.5h74.1
							c4.7,0,8.5-3.8,8.5-8.5V149.7z"/>
						<path class="st2" d="M250.7,149.7c0-4.7-3.8-8.5-8.5-8.5h-74.1c-4.7,0-8.5,3.8-8.5,8.5v74.1c0,4.7,3.8,8.5,8.5,8.5h74.1
							c4.7,0,8.5-3.8,8.5-8.5V149.7z"/>
					</g>
					<g>
						<polygon class="st3" points="215.1,-7.9 204.5,-23.9 193.9,-7.9 						"/>
						<polygon class="st3" points="228.8,0.1 204.5,-36.8 180.2,0.1 						"/>
						<line class="st3" x1="215.1" y1="-7.9" x2="228.8" y2="0.1"/>
						<line class="st3" x1="204.5" y1="-23.9" x2="204.5" y2="-36.8"/>
						<line class="st3" x1="193.9" y1="-7.9" x2="180.2" y2="0.1"/>
					</g>
					<g>
						<polygon class="st3" points="87.2,-36.5 120.1,-36.5 129.4,-25.9 103.6,-0.1 77.9,-25.9 						"/>
						<line class="st3" x1="77.9" y1="-25.9" x2="128.8" y2="-25.9"/>
						<polyline class="st3" points="120.1,-36.5 113.8,-25.9 103.9,-35.9 93.4,-25.9 87.2,-36.5 						"/>
						<polyline class="st3" points="113.8,-25.9 103.6,-0.7 93,-25.3 						"/>
					</g>
					<g>
						<polygon class="st3" points="103.6,97.1 93.3,92.9 89.3,83 93.5,72.5 103.6,68.8 113.7,72.5 118,83 113.9,92.9 						"/>
						<polygon class="st3" points="103.6,55.8 84.4,63.8 76.4,83 84.2,102 103.6,110.6 123.1,102 130.9,83 122.8,63.8 						"/>
						<line class="st3" x1="113.7" y1="72.9" x2="122.8" y2="63.8"/>
						<line class="st3" x1="103.6" y1="68.8" x2="103.6" y2="55.8"/>
						<line class="st3" x1="93.5" y1="72.5" x2="84.6" y2="63.6"/>
						<line class="st3" x1="89.3" y1="83" x2="76.4" y2="83"/>
						<line class="st3" x1="118" y1="83" x2="130.9" y2="83"/>
						<line class="st3" x1="113.9" y1="92.9" x2="123.1" y2="102"/>
						<line class="st3" x1="103.6" y1="97" x2="103.6" y2="110.6"/>
						<line class="st3" x1="93.3" y1="92.9" x2="84.2" y2="102"/>
					</g>
					<g>
						<polygon class="st3" points="180.6,101 186.6,106.9 221.9,106.9 228.4,100.9 228.4,65.4 221.9,59.4 186.6,59.4 180.6,65.4 
													"/>
						<polygon class="st3" points="193.2,91.4 196,94.3 212.8,94.3 215.9,91.4 215.9,74.5 212.8,71.7 196,71.7 193.2,74.5 						"/>
						<line class="st3" x1="215.9" y1="74.5" x2="228.4" y2="65.4"/>
						<line class="st3" x1="212.8" y1="71.7" x2="221.9" y2="59.4"/>
						<line class="st3" x1="196" y1="71.7" x2="186.6" y2="59.4"/>
						<line class="st3" x1="193.2" y1="74.5" x2="180.6" y2="65.4"/>
						<line class="st3" x1="193.2" y1="91.4" x2="180.6" y2="101"/>
						<line class="st3" x1="196" y1="94.3" x2="186.6" y2="106.9"/>
						<line class="st3" x1="212.8" y1="94.3" x2="221.9" y2="106.9"/>
						<line class="st3" x1="215.9" y1="91.4" x2="228.4" y2="100.9"/>
					</g>
					<g>
						<polygon class="st3" points="103.6,199.7 95.5,193.8 95.5,177.6 103.6,172.1 111.7,177.6 111.7,193.8 						"/>
						<polygon class="st3" points="103.6,215.7 86.2,203.1 86.2,168.2 103.6,156.4 121.1,168.2 121.1,203.1 						"/>
						<line class="st3" x1="111.7" y1="177.6" x2="121.1" y2="168.2"/>
						<line class="st3" x1="103.6" y1="172.1" x2="103.6" y2="156.4"/>
						<line class="st3" x1="95.5" y1="177.6" x2="86.2" y2="168.2"/>
						<line class="st3" x1="111.7" y1="193.8" x2="121.1" y2="203.1"/>
						<line class="st3" x1="103.6" y1="199.7" x2="103.6" y2="215.7"/>
						<line class="st3" x1="95.5" y1="193.8" x2="86.2" y2="203.1"/>
					</g>
					<g>
						
							<rect x="195.4" y="177" transform="matrix(0.7071 0.7071 -0.7071 0.7071 191.4691 -90.1154)" class="st3" width="18.2" height="18.2"/>
						
							<rect x="186.7" y="168.2" transform="matrix(0.7071 0.7071 -0.7071 0.7071 191.4691 -90.1154)" class="st3" width="35.7" height="35.7"/>
						<line class="st3" x1="217.4" y1="186.1" x2="229.7" y2="186.1"/>
						<line class="st3" x1="204.5" y1="173.2" x2="204.5" y2="161.4"/>
						<line class="st3" x1="204.5" y1="198.9" x2="204.5" y2="211.3"/>
						<line class="st3" x1="191.7" y1="186.1" x2="179.3" y2="186.1"/>
					</g>
				</g>
			</g>
			<path class="st4" d="M275.5,299h-240c-6.2,0-11.3-5.1-11.3-11.3v-425.9L275.5,299z"/>
		</g>
		<g class="st5">
			<defs>
				<path id="SVGID_2_" class="st5" d="M285.5-136.4c0-6.2-5.1-11.3-11.3-11.3h-239c-6.2,0-11.3,5.1-11.3,11.3v424.1
					c0,6.2,5.1,11.3,11.3,11.3h239c6.2,0,11.3-5.1,11.3-11.3V-136.4z"/>
			</defs>
			<clipPath id="SVGID_3_">
				<use xlink:href="#SVGID_2_"  style="overflow:visible;"/>
			</clipPath>
			<path class="st6" d="M370.9,414.3c0.7,0.1,1.6,0.2,2.7,0.2c5.9-2,11.8-9-1.6-38.7c0,0-40.3-74.2-44.3-105.2c0,0-4-46.6,5.3-74.7
				c0,0-0.8-17.2-3.7-27.4c2.2,0.8,4.4,1.3,6.8,1.3c3.3,0,5.1-1,7.1-2.4c4.1,0.3,6.4-0.4,6.4-0.4c11.3-6.1,11.3-32.2,11.3-32.2
				l0-0.1c0.1-0.7,0.2-1.4,0.2-2c0.7-6.2,1.3-11.6-0.9-17l-0.6-19.3c1.3-0.5,2-1.2,2.4-2c1.2-2.2-0.8-5.2-1.1-5.6
				c2-1.2,3.3-2.6,4.1-4c2.5-4.2,0.6-8.6,0.6-8.6c-23.7-25.9-10.7-26.4-19.2-37.3c-10.8-13.8-19.6,0-19.6,0c1.1-3.9-2.3-7.4-6.9-3.7
				l7.1-26.5c0,0,16.4-13.4,19.6-18.5c0.4-0.6,0.6-0.9,0.9-1c1.5,0,0.9,9.7,11.4,6.5c0.1,0,0.1-0.1,0.2-0.1c0,0,0.1,0,0.1,0
				c7.2-2.2,9.5-26.7,6.3-31.1c-1.5-2-3.7-3-6.3-2.1c-1.1,0.4-2.4,1.1-3.6,2.3c4.2-6.2,9.5-14.9,10.7-17.1c0.5-0.8,0.8-2.2,0.7-4.3
				c0-4.4-1.7-12.1-7.8-24.5c0,0-5.4-14.5-11.6-23c1,0.2,1.6,0.2,1.6,0.2c27.3,7.6,29.8-1.8,28.9-8.1c-0.3-3.1-1.5-5.7-1.5-5.7
				l-13.8-38.1c-15.7-33.9-43.1,6.9-43.1,6.9c-6.3,9.6,7.4,27.8,13.7,35.4c-5.2-5.2-16.4-12.7-35.4-10.2c0,0-67.9-1.7-121.3,49.7
				c0,0-8.5,12.6,10.6,23.7c0.1,0.1,0.1,0.3,0.2,0.5c3.4,1.9,7.6,3.8,12.8,5.5l-0.4-0.5c0.1,0,0.3,0.1,0.4,0.1l-5.2-6.3
				c0.8,0,3.3,0,6.9-0.1c1.7,6.4,3.7,13.9,5.2,20.4c-1.8,0.9-2.7,1.5-2.7,1.5l-11,7.8c-0.5,1.3,2.2,5.2,2.2,5.2
				c1.7-0.3,4.1,1.6,4.1,1.6c2.8,4.3,5.4,7.5,7.8,9.9c-2.4,6.4-5.7,22.6,19.6,29.8c0,0,24.8,5,66,1.7c0,0-0.5,3.1-1,7.6
				c0-0.9-0.1-1.5-0.5-1.7c-4.7-3.1-8.4,3.7-8.4,3.7c-6-2.5-9.9,1.5-12.4,6.7c-1.4-1.6-2.9-2.8-4.2-3.7c-4.5-3-7.9-2.5-7.9-2.5
				c-17.3,0.4-33.9,15.7-33.9,15.7c-1.2,0.9-1.8,1.7-2.1,2.6c0,0,0.1-0.1,0.2-0.1c-1,2.5,1.1,4.8,2.1,6c0.8,0.9,4.7,6.3,8.2,11.2
				c-1.5,0.1-5.3,1-7.8,6.5c0,0-1.4,5.9,2,13.1c0,0,1.6,5.6-4.3,9.5c0,0-25.3,17.2-29.6,30.3c0,0-7.3,24.4,10.1,19.6
				c0,0,5.3-1.3,13.2-7.1c4.8,0.2,9.3-1.7,11-2.5c0,0,8.1-4.3,16-9.4c-2.4,5.4,1.7,12.9,1.7,12.9c0.2,0,0.4,0,0.7,0
				c-0.3,0-0.7,0-1,0.1c0,0-50.3,33.9-48,114.1c0,0,11.2,60.7,7.2,78.5c-4,17.8-13.2,94.6,4.9,93.4l7.5,0c0,0-0.2,3.9,3.3,3.4
				c1.7,7,4.5,18.6,7.5,30.4c-2.9,1.5-0.4,6.4-0.4,6.4l5.4,19.4h0c0,0,0,0.1,0,0.2l0.4,1.3c0.8,2.9,2.5,9.3,2.5,10.2
				c0,1.2,3.2,3,3.2,3c31.5,5.8,55.6,2.9,55.6,2.9l1.5-4.6c-5.3-14.9-25.9-11.2-25.8-13c0.1-1.8-1.8-2.7-1.8-2.7s-0.3-1-4.9-11.5
				c-0.6-1.4-1.1-2.2-1.7-2.6l-0.2-0.6c0,0-0.9-7-0.9-11.9c0-1.2-0.6-1.9-1.6-2.2c-1-7.8-2-17.2-3-27.9c8.1,0,3-4.1,3-5.8
				c0,0,0-0.1,0.1-0.1c0.1,0,0.1,0.1,0.2,0.1c1.9-1.3,11.8-3.6,14.5-12.1c0-0.1,0.1-0.3,0.1-0.4c0-0.1,0.1-0.2,0.1-0.4
				c1.2-4.1,0.6-9.7-3.2-17.2c0,0-16.1-45.4-4.9-101.8c0,0,10.6,35.4,22.7,49.7c0,0,19.3,27.6,15.2,44.6c0,0-11.5,31.3,22.4,31.1
				c0,0-3,5,3.7,4.1c2.3,5.8,5.3,13.8,6.7,18.6c0,0,2.4,5.9,3.3,15c-0.7,0.3-1.2,1-1,2.3l0.4,5.4c-3.6,3.4-3.9,12.5-3.9,12.5
				c-1.6-1.2-4.5,1.2-4.5,1.2l-3.8-2c-11.1-7.7-21.5,3.6-21.5,3.6c-3.6,12.3,13,20.5,13,20.5c4.6,3.1,17.7,2.2,17.7,2.2
				c5.2-0.5,8.6,4.4,8.6,4.4c0.1,0.1,1.2,0.6,2.8,1c-3.8-0.2-8-0.3-12.4-0.3c-17.4,0-31.4,1.6-31.4,3.5s14.1,3.5,31.4,3.5
				s31.4-1.6,31.4-3.5c0-0.8-2.3-1.5-6.2-2.1c2.3-0.3,4.5-0.9,6.3-2.1c7.5-5,7-12.5,7-12.5c0.1-0.3,0-0.8-0.2-1.2
				c0.9-3,1.8-10,1.5-26.3c0,0,0.2-0.2-0.1-0.6c-0.1-0.4-0.7-1.1-3.6-1.8c-0.4-6.3-1.2-13.8-3.2-20.2c0,0-3.7-11.4-6.1-21.8
				c3.8,1.6,9.8-0.7,4.9-6.1C364.9,414.6,367.6,415,370.9,414.3z M339.4-89.8C339.4-89.8,339.4-89.8,339.4-89.8
				C339.4-89.8,339.4-89.8,339.4-89.8C339.4-89.8,339.4-89.8,339.4-89.8z M221,5.4c0,0,0-0.1-0.1-0.1c-0.1,0.2-0.1,0.5-0.2,0.7
				c0,0,0,0,0,0.1c-1.1-1.4-2.4-3.3-3.6-5.7c0,0-1.6-2.6-1.8-5.8l5.4-4.2c0,0.2,0.1,0.4,0.1,0.6C221-9,222.5-0.4,221,5.4z
				 M249.2,89.3c0,0-4.1,4.5-4.9,2.4c0,0-1.7-3.3-0.8-5.2c0.5-1,1.6-2.8,1.9-4.3c1.8,2.6,3.3,4.6,3.5,4.9c0.2,0.3,0.5,0.8,1,1.5
				C249.6,88.9,249.4,89.1,249.2,89.3z M304.4,62.5l-5.8,5.1L304.4,62.5C304.4,62.5,304.4,62.5,304.4,62.5z"/>
		</g>
	</g>
	<g>
		<g>
			<g>
				<ellipse class="st7" cx="363.2" cy="476.8" rx="28.3" ry="3.2"/>
				<path class="st8" d="M355.8,391.2c0,0,6.4,15.7,8.5,23.2c0,0,3.9,9.5,3.1,22.7l28.4,11c0,0,1-17.6-3-30.6c0,0-5-15.6-6.8-25.8
					C384.3,381.5,355.8,391.2,355.8,391.2z"/>
				<path class="st9" d="M395.9,447.3c0,0,1-17.6-3-30.6c0,0-5-15.6-6.8-25.8c-1.7-10.2-30.3-0.5-30.3-0.5s0.9,2.3,2.2,5.6
					c1.7-0.1,3.7-0.8,5.3-1c9.4-1.5,13.5,4.5,16.7,12.3c3.1,7.7,5.4,15.9,5.5,24.6c0,3.9,0,7.5-0.7,11.1L395.9,447.3z"/>
				<path class="st8" d="M257.9,401.8c0,0,8.2,34.7,14,55.7c0.5,1.7,0,0.8,0,0.8l26.4-1.7c0,0-4.3-21-7.2-57.6L257.9,401.8z"/>
				<path class="st2" d="M265.6,441.1c0,0-3.7-7.3,3.8-6c0,0,6.6,0.3,11.9-2c5.3-2.3,14.5-5.1,14.5-0.8c0,4.4,0.8,10.7,0.8,10.7
					l3.9,13.8l-2.2,8.7l-26.1-0.9L265.6,441.1z"/>
				<path d="M291.2,456.1c0,0,3-19.9,7.1-10.4c4.1,9.5,4.4,10.4,4.4,10.4s1.7,0.8,1.6,2.4c-0.1,1.6,18.4-1.7,23.2,11.7l-1.4,4.2
					c0,0-21.7,2.6-50.1-2.6c0,0-2.9-1.6-2.9-2.7s-2.6-10.5-2.6-10.5L291.2,456.1z"/>
				<path class="st10" d="M298.2,455.3c-0.4-2-4.4-22.6-7.1-57.5l-33.2,2.9c0,0,0.8,3.3,2,8.5c8.3-0.1,15.4-0.4,20.3,7.3
					c1.6,2.6,3.4,5.7,4,8.5c0.3,1.6,0.8,3.9,0.2,5.5c-0.6,1.5-2.7,1.5-2.9,3.5c10.8-1.5,4.1,14.5,6.6,19.4c0.7,1.4,2.2,2.2,3.8,2.5
					l5.5-0.4C297.8,455.5,298,455.4,298.2,455.3z"/>
				<path class="st2" d="M396.5,462.7c0,0,2.9,0.1,2.5-25.7c0,0,1.3-1.7-8.2-2.6c0,0-17.8-5.1-18.6-5.7c0,0-6.3-2.9-5.8,1.3l0.7,8.5
					l1.7,9.2l7.1,8.3l13.7,7.5C389.5,463.5,396.3,464.4,396.5,462.7z"/>
				<path d="M363.2,446.1c0,0,0.7-20.1,12.2-9.2c0,0,2.7,2.6,2.8,12.1c0,0,20.8,9.5,19.6,12.7c0,0,0.5,6.8-6.3,11.3
					c-6.8,4.5-19.3,0.5-19.7,0c0,0-3.1-4.5-7.8-4c0,0-11.8,0.8-15.9-2c0,0-14.9-7.4-11.7-18.5c0,0,9.3-10.1,19.3-3.2l3.4,1.8
					C359.2,447.2,361.8,445.1,363.2,446.1z"/>
				<path class="st11" d="M378,465c-1.6,0-21.9-14.5-21.9-14.5c-9.2-5.6-15.6-4.3-19.4-2.1c-2.8,10.9,11.8,18.1,11.8,18.1
					c4.2,2.8,15.9,2,15.9,2c4.7-0.5,7.8,4,7.8,4c0.4,0.5,12.9,4.5,19.7,0C390.3,466.6,378,465,378,465z"/>
				<g>
					<path class="st8" d="M279.2,101.8c0,0-40.2,29.5-32.6,39.5c6.6,8.7,16.9,4.3,19.8,3c0,0,19.4-10.3,25.5-16.9
						c6.1-6.6,7.6-20.6,7.6-20.6S300.8,96.9,279.2,101.8z"/>
					<path class="st4" d="M279.2,101.8c0,0-40.2,29.5-32.6,39.5c6.6,8.7,16.9,4.3,19.8,3c0,0,19.4-10.3,25.5-16.9
						c6.1-6.6,7.6-20.6,7.6-20.6S300.8,96.9,279.2,101.8z"/>
				</g>
				<path class="st12" d="M355,162.4c0,0-21.2-19.4-73-15c0,0-45.3,30.5-43.2,102.7c0,0,10.1,54.6,6.5,70.6
					c-3.6,16-11.9,85.1,4.4,84.1l6.7,0c0,0-0.3,4.6,4.7,2.6c4.9-2.1,17.8-2.7,29.8-2.3c8.5,0.3,3.6-3.6,3.6-5.2s22.3-4.4,10.6-27.2
					c0,0-14.5-40.9-4.4-91.6c0,0,9.6,31.8,20.4,44.8c0,0,17.3,24.8,13.7,40.1c0,0-10.3,28.2,20.2,27.9c0,0-3.4,5.7,6,3.1
					c9.3-2.6,22-4.1,24.8-1s11.1,1.3,6-4.4c-5.2-5.7,24.3,7.8,3.9-37.5c0,0-36.2-66.8-39.8-94.7c0,0-3.6-41.9,4.7-67.2
					C360.5,192.2,359.4,168.3,355,162.4z"/>
				<path class="st13" d="M355.7,51.5c0,0,8-12.4,17.7,0c7.7,9.8-4.1,10.3,17.3,33.6c0,0,3.1,7-4.3,11.3c0,0,3.7,5-1.2,6.8
					c0,0-3.9-6-22.1,2.7c-2.3,1.1-3.2,9.6-4.1,14.6c-0.3,1.9-1.7,12.7,1.8,16.4c3.6,3.7,3.5,31.9-5.4,26.2
					c-10.9-6.9-30.6-18.9-73.1-15.7c0,0-4.5-8.1-0.8-13s8.9-1,15.5-21.9s4.3-42.5,4.3-42.5s2.4-25.7,14.9-20.6c0,0,3.3-6.1,7.6-3.3
					c1.6,1-1.7,8.7,0.7,24l5.7-5c0,0,10.5-9.6,19.3-16.9C353.6,44.8,356.6,48,355.7,51.5z"/>
				<path class="st8" d="M239.4-42.8c0,0,7.3,25.4,9.9,38.6c0,0,1.6,8.5,0,14.2c0,0-12.2,21.1,16.5,29.3c0,0,22.3,4.5,59.4,1.6
					c0,0-3.5,20.8-0.7,29.2l24.9-21.8l6.4-23.9c0,0,14.7-12,17.7-16.7s0.1,8.2,11.3,4.9c6.5-1.9,8.5-24.1,5.6-27.9
					c-3.2-4.3-10.1-3.7-16.5,14.2l-6.6-44.8l-10.7-24.3l-18.6-8l-28.1,2.9l-68.3,25L239.4-42.8z"/>
				<path class="st14" d="M364.2-82.5c0,0-22.3-23.8-15-34.9c0,0,24.7-36.7,38.8-6.2l12.4,34.3c0,0,10.3,21.3-24.7,11.6
					C375.7-77.7,363.9-79.2,364.2-82.5z"/>
				<path class="st15" d="M276.3,88.7c2,2.9-10.9-15.4-12.4-17c-1.2-1.4-4.1-4.7,0-7.6c0,0,14.9-13.8,30.5-14.2
					c0,0,9.5-1.6,17.1,15.7l10.5,31.6l2.9,11.3c0,0,1.5,4.7-2.5,4.9c0,0-23.8,6.6-28.9,1.5C291,112.4,276.3,88.7,276.3,88.7z"/>
				<path class="st16" d="M324.7,108.5l-2.9-11.3l-10.5-31.6c-7.5-17.3-17.1-15.7-17.1-15.7c-15.5,0.4-30.5,14.2-30.5,14.2
					c-1.1,0.8-1.7,1.6-1.9,2.3c6.3-3.8,21.2-12.1,31.5-12.4c0,0,6.1-1.8,13.1,15.9c0,0,13.7,33.4,14.4,43.7c0.8-0.2,1.3-0.3,1.3-0.3
					C326.3,113.2,324.7,108.5,324.7,108.5z"/>
				<path class="st8" d="M271.9,93.4c0,0-1.7-3.2-0.8-5c0.9-1.8,3.5-6,0.8-6.6c0,0-4.8-0.5-7.6,5.8c0,0-1.3,5.3,1.8,11.8
					c0,0,1.4,5-3.9,8.5c0,0-22.8,15.5-26.7,27.3c0,0-6.6,22,9.1,17.6c0,0,19-4.5,36.6-36.5c0,0,1.8-6,2.1-8.2c0,0,5.6,3.8,9.7,4
					c0,0,3.2-1.4,2.8-3.8l-4.3-0.3c0,0,3.2-3.2,2.6-5s2.6-1.9,2.6-1.9s5.7-3.9-3.1-3.8l-11.5-0.1c0,0,0.3-2.8,1.9-3.9
					c2.3-1.6,4.5-1.7,6.5-0.9c1.9,0.8,3-4.5-4.5-5c0,0-5.2-0.9-9.3,3.6C276.7,91.1,272.7,95.4,271.9,93.4z"/>
				<path class="st17" d="M306.8,26.1c0,0,7.8,1,14.9-7.9c0,0,14.4-17.9,22.6-2.9c0,0,3.9,12.2-9.6,20.9c0,0-11.6,5.7-19.4,2.9
					c0,0-6.5-2.4-9.7-7.2C305.6,32,300.2,25.1,306.8,26.1z"/>
				<path class="st2" d="M340.6,18.8c0,0,2.4-1.7,3-5.1c-8.7-12.9-21.9,4.5-21.9,4.5c-1.4,1.8-2.6,3.1-4,4.2
					c1.1,2.4,3.1,5.5,6.2,5.1C323.9,27.5,337.1,23.2,340.6,18.8z"/>
				<g class="st1">
					<path class="st18" d="M304.9,18.5c-0.2-0.3-0.5-0.4-0.8-0.6c-0.3-0.1-0.6-0.3-0.9-0.4c-0.6-0.2-1.2-0.4-1.9-0.7l-2.1-0.8l2.2-1
						c0.6-0.3,1.1-0.3,1.6-0.4c0.5,0,0.9,0,1.3,0c0.4,0,0.8,0.1,1.1,0.1l0.5,0c0.2,0,0.3,0,0.5,0c0.2,0,0.4,0,0.6,0l0.6,0.1
						c0.4,0,0.8,0.1,1.1,0.2c0.7,0.1,1.4,0.2,2,0.2l-1.3,1c0,0,0,0,0,0c0,0,0,0,0-0.1c0-0.1,0-0.1,0-0.2c0-0.1,0-0.2-0.1-0.3
						c-0.2-0.4-0.4-0.8-0.7-1.3c-0.3-0.4-0.6-0.9-1-1.4c-0.3-0.5-0.7-1-1-1.5c0.6,0.2,1.1,0.4,1.7,0.6c0.5,0.3,1.1,0.5,1.6,0.9
						c0.5,0.4,1,0.8,1.5,1.4c0.1,0.1,0.2,0.3,0.3,0.5c0.1,0.2,0.2,0.4,0.3,0.6c0.1,0.2,0.1,0.5,0.2,0.7c0,0.3,0,0.6-0.1,0.8
						l-0.1,0.9l-1.1,0.1c-0.9,0.1-1.7,0.1-2.5,0c-0.4,0-0.8-0.1-1.1-0.1l-0.5-0.1l-0.5-0.1c-0.2,0-0.5,0-0.7-0.1
						c-0.2,0-0.4-0.1-0.6-0.1c-0.4-0.1-0.8-0.2-1.1-0.3c-0.3-0.1-0.7-0.2-1-0.2c-0.3-0.1-0.6-0.1-0.7-0.1l0.1-1.8
						c0.5,0.4,1,0.9,1.5,1.4c0.2,0.3,0.5,0.6,0.7,0.9C304.8,17.8,304.9,18.2,304.9,18.5z"/>
				</g>
				<path class="st19" d="M314.8-40.8c-1.3,1-4.1,5.7-2,7.3c1.8,1.4,4.9-1.9,6.5-3.1c2.1-1.5,4.1-2.5,6.6-1.6
					c1.1,0.4,2.1,1.2,3.1,1.8c1,0.6,2.2,2,3.3,2.1c0.4-2-2.1-5.9-3-7.2c-1.4-1.9-2.8-3.4-4.8-3.8c-1.8-0.3-3.7,0.4-5.3,1.2
					c-1.3,0.7-3.7,2-4.5,3.7"/>
				<g class="st1">
					<path class="st18" d="M387.4-13.2c-0.2,0-0.4,0.1-0.7,0.1c-0.2,0.1-0.4,0.1-0.6,0.2c-0.4,0.2-0.7,0.5-0.9,0.8
						c-0.3,0.3-0.5,0.6-0.7,1c-0.2,0.4-0.4,0.7-0.5,1.1c-0.3,0.8-0.6,1.6-0.9,2.4c-0.2,0.4-0.3,0.8-0.5,1.3L382-5.1
						c-0.7,1.6-1.4,3.2-1.9,4.8c-0.6,1.6-1.1,3.2-1.4,4.8l-1.8-1.8c0,0-0.1,0-0.1,0.1c-0.1,0.1,0,0,0.1-0.1c0.1-0.1,0.3-0.4,0.5-0.7
						c0.1-0.1,0.1-0.1,0.2-0.2l0.1-0.1l0.1,0c0.2-0.1,0.3-0.2,0.4-0.3c0.5-0.3,0.9-0.4,1.1-0.6l0.1,0c0,0,0,0,0,0l0.1,0l0.2-0.2
						l0.5-0.3c0.7-0.5,1.4-0.9,2.4-1.3c0.5-0.2,1-0.3,1.7-0.3c0.2,0,0.4,0,0.6,0.1c0.2,0.1,0.4,0.2,0.6,0.3c0.2,0.1,0.3,0.3,0.4,0.4
						l0.2,0.2l0.1,0.1l0,0l0,0l0,0l0,0.1c0,0.1,0.2,0.6,0.3,1c0,0.3,0,0.7-0.1,1c-0.2,0.6-0.5,1-0.8,1.4c-0.6,0.7-1.3,1.2-2,1.7
						c-0.4,0.2-0.7,0.4-1.1,0.6c-0.4,0.2-0.8,0.3-1.2,0.4c-0.8,0.2-1.7,0.3-2.5,0c0.8-0.1,1.5-0.4,2.2-0.8c0.6-0.4,1.2-0.9,1.8-1.4
						c0.5-0.5,1-1.1,1.4-1.6c0.2-0.3,0.3-0.6,0.3-0.8c0-0.1,0-0.2,0-0.2c0,0,0.1,0.1-0.1-0.2c-0.1,0,0.1,0.1,0,0.1
						c-0.1,0-0.3,0.1-0.6,0.2c-0.5,0.3-1.1,0.7-1.7,1.2l-0.5,0.4L381,3l-0.2,0.1l-0.2,0.1c-0.5,0.3-0.8,0.4-1,0.6
						c0,0-0.1,0.1-0.1,0.1l-0.1,0c0,0-0.1,0,0,0l0,0l0,0l-0.2,0.3c-0.1,0.2-0.3,0.5-0.7,0.8c-0.4,0.3-0.8,0.5-1.2,0.6l-2.3,0.4
						l0.5-2.2c0.8-3.6,2.3-7,4.1-10l0.7-1.1c0.2-0.3,0.4-0.7,0.6-1.1c0.5-0.8,0.9-1.5,1.5-2.3c0.3-0.4,0.6-0.7,0.9-1.1
						c0.3-0.3,0.7-0.7,1.1-0.9c0.4-0.3,0.9-0.5,1.3-0.5C386.6-13.3,387-13.3,387.4-13.2z"/>
				</g>
				<g class="st1">
					<path d="M301.9,151c1.6,0,3.2,0.1,4.8,0.3l2.4,0.2c0.8,0.1,1.6,0.1,2.4,0.1l0.4,0l0.2,0.5c0.6,1.6,0.7,3.3,0.7,4.8
						c0,1.6-0.1,3.2-0.1,4.7l0,0.8l-0.8,0.1c-1.3,0.2-2.6-0.1-3.7-0.4c-0.6-0.1-1.1-0.3-1.6-0.4c-0.5-0.1-0.9-0.1-1.5-0.2
						c-1.2-0.1-2.3-0.1-3.4-0.3l-1.7-0.2l-0.9-0.1l-0.4-0.1l-0.1,0l-0.1,0l0,0l0,0l0,0c0,0,0.1,0,0.1,0l-0.2,0
						c-0.3,0-0.6-0.1-0.8-0.1l-0.7,0c-0.2,0.1-0.5,0.1-0.7,0.2c-0.2,0.1-0.4,0.2-0.7,0.3c-0.8,0.5-1.6,1.3-2.2,2.1
						c-0.6,0.9-1.2,1.9-1.8,2.8c-0.3,0.5-0.6,1-1,1.4c-0.3,0.5-0.7,0.9-1.1,1.3c0.3-0.5,0.6-1,0.8-1.5c0.2-0.5,0.5-1,0.7-1.5
						c0.5-1,0.9-2.1,1.5-3.1c0.6-1,1.3-2.1,2.4-2.8c0.3-0.2,0.6-0.3,0.9-0.5c0.3-0.1,0.6-0.2,0.9-0.3c0.3-0.1,0.7-0.1,1-0.1
						c0.3,0,0.6,0,0.9,0l0.2,0l0.3,0l0.4,0l0.8,0.1l1.7,0.1c1.1,0.1,2.2,0.2,3.3,0.2c0.5,0,1.2,0.1,1.8,0.2c0.6,0.1,1.2,0.3,1.7,0.4
						c1.1,0.3,2,0.5,3,0.4l-0.9,0.9c0.1-1.6,0.3-3.1,0.3-4.6c0.1-1.5,0.1-3-0.3-4.3l0.6,0.5c-1.6-0.2-3.2-0.5-4.8-0.9L301.9,151z"/>
				</g>
				<g class="st1">
					<path d="M300.4,201.7c0,0-0.1-0.1-0.1-0.4c0-0.1-0.1-0.3,0-0.5c0-0.2,0-0.4,0.1-0.7c0.1-0.5,0.4-1,0.8-1.4
						c0.2-0.2,0.4-0.4,0.7-0.6c0.2-0.2,0.5-0.3,0.8-0.5c1.1-0.6,2.2-0.8,3.1-0.7c0.4,0,0.8,0.1,1.1,0.2c0.3,0.1,0.4,0.2,0.4,0.2
						s-0.1,0.1-0.3,0.2c-0.2,0.1-0.5,0.3-0.9,0.5c-0.7,0.4-1.6,0.9-2.4,1.3c-0.2,0.1-0.4,0.2-0.6,0.3c-0.2,0.1-0.4,0.2-0.6,0.3
						c-0.2,0.1-0.4,0.2-0.5,0.3c-0.1,0.1-0.3,0.2-0.5,0.3c-0.1,0.1-0.3,0.2-0.4,0.3c-0.1,0.1-0.2,0.2-0.3,0.3
						C300.5,201.6,300.4,201.7,300.4,201.7z"/>
				</g>
				<g class="st1">
					<path d="M289.5,213.9c0,0-0.1-0.1-0.2-0.4c-0.1-0.2-0.1-0.7-0.1-1.1c0-0.9,0.5-2,1.3-2.9c0.7-0.9,1.7-1.5,2.5-1.8
						c0.4-0.2,0.8-0.2,1-0.3c0.3,0,0.4,0,0.4,0s-0.1,0.1-0.2,0.4c-0.1,0.2-0.3,0.5-0.5,0.8c-0.4,0.7-1,1.5-1.6,2.2
						c-0.3,0.4-0.6,0.7-0.9,1.1c-0.3,0.3-0.6,0.7-0.8,0.9c-0.1,0.1-0.2,0.3-0.3,0.4c-0.1,0.1-0.2,0.2-0.3,0.3
						C289.6,213.8,289.5,213.9,289.5,213.9z"/>
				</g>
				<g class="st1">
					<path d="M288.7,219.3c0,0,0.1,0.9,0.2,2.6c0.1,1.6,0.3,4,0.5,6.7c0.1,1.4,0.3,2.9,0.5,4.5c0.2,1.6,0.5,3.2,0.7,5
						c0.3,1.7,0.6,3.5,0.9,5.3c0.3,1.8,0.7,3.6,1.3,5.3c0.5,1.7,1.2,3.5,1.7,5.3c0.6,1.7,1.1,3.5,1.6,5.1c0.5,1.7,1,3.3,1.5,4.8
						c0.5,1.5,0.9,3,1.3,4.3c0.8,2.7,1.3,5,1.6,6.6c0.1,0.8,0.2,1.5,0.3,1.9c0,0.4,0.1,0.7,0.1,0.7s-0.2-0.9-0.7-2.5
						c-0.5-1.6-1.2-3.7-2.3-6.3c-1-2.6-2.3-5.6-3.4-8.9c-0.6-1.6-1.2-3.4-1.8-5.1c-0.6-1.7-1.2-3.4-1.8-5.3c-0.5-1.8-1-3.7-1.3-5.5
						c-0.3-1.8-0.5-3.6-0.7-5.4c-0.2-1.7-0.4-3.4-0.5-5c-0.1-1.6-0.2-3.1-0.2-4.5c0-2.8,0.1-5.1,0.2-6.8
						C288.6,220.2,288.7,219.3,288.7,219.3z"/>
				</g>
				<g class="st1">
					<path d="M266.5,192.7c0,0,0.1,0.3,0.2,0.9c0.1,0.6,0.3,1.4,0.5,2.4c0.1,0.5,0.3,1,0.4,1.6c0.1,0.6,0.4,1.1,0.5,1.7
						c0.4,1.2,0.9,2.4,1.4,3.6c0.5,1.2,1.1,2.4,1.6,3.5c0.6,1.1,1.1,2.2,1.5,3.1c0.5,0.9,0.8,1.7,1.1,2.2c0.3,0.5,0.4,0.9,0.4,0.9
						s-1.1-0.9-2.4-2.5c-0.7-0.8-1.4-1.8-2.1-2.9c-0.3-0.6-0.7-1.1-1-1.7c-0.3-0.6-0.6-1.2-0.9-1.9c-0.3-0.7-0.5-1.3-0.7-2
						c-0.2-0.7-0.4-1.3-0.5-2c-0.1-0.6-0.3-1.3-0.3-1.9c-0.1-0.6-0.1-1.2-0.1-1.7c0-0.5,0-1,0.1-1.4c0-0.4,0.1-0.8,0.1-1.1
						C266.4,193,266.5,192.7,266.5,192.7z"/>
				</g>
				<g class="st1">
					<path d="M286.1,176.4c0,0,0,0.1,0,0.4c0,0.2,0,0.5,0,0.8c0,0.7,0,1.5-0.2,2.3c-0.1,0.8-0.4,1.7-0.7,2.3c-0.3,0.6-0.7,1-0.7,1
						s-0.3-0.5-0.4-1.1c-0.2-0.7-0.2-1.6-0.1-2.5c0.2-0.9,0.5-1.8,1.1-2.3c0.2-0.3,0.5-0.5,0.7-0.6
						C286,176.4,286.1,176.4,286.1,176.4z"/>
				</g>
				<g class="st1">
					<path d="M257.4,403.3c0,0,0.1,0,0.4-0.1c0.3-0.1,0.6-0.2,1-0.4c0.4-0.2,0.9-0.6,1.4-1c0.5-0.5,1-1,1.6-1.7
						c0.6-0.6,1.2-1.3,1.9-2.1c0.7-0.7,1.8-1.4,2.9-1.7c1.1-0.3,2.3-0.5,3.5-0.5c1.2,0,2.3,0,3.4,0c1.1,0,2.3,0.1,3.5,0.2
						c1.1,0.1,2.3,0.3,3.3,0.5c1.1,0.2,2.1,0.4,3,0.7c1,0.3,1.9,0.6,2.7,0.9c1.6,0.6,2.9,1,3.9,1.2c0.5,0.1,0.9,0.1,1.1,0.1
						c0.3,0,0.4,0,0.4,0s-0.1,0-0.4,0.1c-0.3,0.1-0.7,0.1-1.2,0.2c-1,0-2.5-0.1-4.2-0.5c-0.8-0.2-1.8-0.4-2.7-0.5
						c-0.9-0.1-2-0.3-3-0.4c-1-0.1-2.1-0.2-3.2-0.3c-1.1-0.1-2.2-0.1-3.3-0.1c-1.2,0-2.3-0.1-3.4-0.1c-1.1,0-2.1,0.1-3.1,0.3
						c-0.9,0.2-1.7,0.6-2.5,1.2c-0.7,0.6-1.4,1.2-2.1,1.7c-0.7,0.6-1.3,1.1-1.9,1.4c-0.6,0.4-1.2,0.6-1.7,0.8
						c-0.5,0.1-0.9,0.2-1.2,0.2C257.6,403.3,257.4,403.3,257.4,403.3z"/>
				</g>
				<g class="st1">
					<path d="M257.8,389.6c0,0,0.1,0.2,0.2,0.4c0,0.1,0.2,0.3,0.2,0.4c0.1,0.1,0.2,0.3,0.3,0.5c0.3,0.3,0.6,0.7,1,1
						c0.2,0.2,0.4,0.3,0.6,0.5c0.2,0.2,0.4,0.3,0.7,0.5c0.9,0.7,1.9,1.3,2.6,1.9c0.4,0.3,0.7,0.5,0.9,0.7c0.2,0.2,0.4,0.3,0.4,0.3
						s-0.2,0-0.5,0.1c-0.3,0-0.7,0.1-1.2,0c-1-0.1-2.3-0.5-3.4-1.3c-0.5-0.4-1.1-0.9-1.4-1.5c-0.4-0.6-0.6-1.2-0.7-1.7
						c0-0.1,0-0.3,0-0.4c0-0.1,0-0.3,0-0.4c0-0.2,0-0.4,0.1-0.5C257.7,389.7,257.8,389.6,257.8,389.6z"/>
				</g>
				<g class="st1">
					<path d="M255.9,398.4c0,0,0.4-0.2,0.9-0.2c0.5-0.1,1.2,0.1,1.7,0.3c0.5,0.2,0.9,0.5,1.3,0.7c0.4,0.3,0.7,0.5,0.7,0.5
						s-0.1,0.1-0.2,0.2c-0.1,0.1-0.3,0.3-0.6,0.4c-0.6,0.3-1.3,0.2-2,0c-0.6-0.3-1.1-0.7-1.4-1.1
						C256.1,398.8,255.9,398.4,255.9,398.4z"/>
				</g>
				<g class="st1">
					<path d="M294.8,383.9c0,0,0-0.2,0.1-0.5c0.1-0.4,0.2-0.9,0.3-1.5c0.3-1.3,0.5-3.2,0.4-5.5c0-1.1-0.2-2.4-0.3-3.7
						c-0.2-1.3-0.4-2.7-0.7-4.1c-0.6-2.8-1.4-5.8-2.3-8.8c-0.4-1.5-0.8-3-1.1-4.5c-0.3-1.5-0.6-3-0.8-4.5c-0.5-2.9-0.7-5.6-0.8-8
						c-0.1-2.3,0-4.3,0-5.7c0-0.7,0.1-1.2,0.1-1.6c0-0.4,0-0.6,0-0.6s0.1,0.8,0.2,2.1c0.1,1.4,0.4,3.3,0.7,5.6
						c0.3,2.3,0.8,5,1.4,7.8c0.3,1.4,0.6,2.9,1,4.3c0.3,1.5,0.7,3,1.1,4.5c0.4,1.5,0.8,3,1.2,4.5c0.4,1.5,0.7,3,0.9,4.5
						c0.3,1.5,0.4,2.9,0.5,4.2c0.1,1.4,0.1,2.7,0,3.8c-0.1,1.2-0.3,2.3-0.5,3.2c-0.2,0.9-0.5,1.7-0.7,2.4c-0.2,0.7-0.5,1.1-0.6,1.5
						C294.8,383.7,294.8,383.9,294.8,383.9z"/>
				</g>
				<g class="st1">
					<path d="M346.7,380.8c0,0,0.2,0.1,0.5,0.4c0.3,0.3,0.7,0.6,1.2,1.1c1,0.9,2.2,2,3.4,3c1.3,1,2.6,1.8,3.7,2.3
						c0.6,0.3,1.1,0.4,1.4,0.6c0.4,0.1,0.6,0.2,0.6,0.2s-0.2,0.1-0.6,0.2c-0.2,0.1-0.4,0.1-0.7,0.1c-0.3,0-0.6,0.1-1,0
						c-0.4,0-0.7-0.1-1.1-0.1c-0.4-0.1-0.8-0.2-1.2-0.4c-0.4-0.2-0.8-0.3-1.2-0.6c-0.4-0.2-0.8-0.5-1.2-0.8c-0.4-0.3-0.7-0.6-1-0.9
						c-0.3-0.3-0.6-0.7-0.9-1c-0.5-0.7-0.9-1.4-1.2-2c-0.3-0.6-0.5-1.2-0.6-1.5C346.7,381,346.7,380.8,346.7,380.8z"/>
				</g>
				<g class="st1">
					<path d="M370.2,380.8c0,0,0.1,0.1,0.2,0.3c0.1,0.2,0.3,0.4,0.4,0.7c0.1,0.3,0.3,0.6,0.4,0.9c0.1,0.1,0.1,0.3,0.2,0.4
						c0.1,0.1,0.1,0.2,0.2,0.3c0.3,0.4,0.8,1.1,1.1,1.7c0.3,0.6,0.3,1.1,0.3,1.1s-0.5,0-1.1-0.3c-0.3-0.1-0.6-0.3-1-0.5
						c-0.3-0.2-0.7-0.5-1-1c-0.1-0.2-0.3-0.5-0.3-0.7c-0.1-0.3-0.1-0.5-0.1-0.7c0-0.5,0.1-0.9,0.2-1.2c0.1-0.3,0.2-0.6,0.4-0.8
						C370.1,380.9,370.2,380.8,370.2,380.8z"/>
				</g>
				<g class="st1">
					<path d="M392.7,374.6c0,0,0.2,0.2,0.5,0.5c0.2,0.1,0.3,0.4,0.5,0.6c0.2,0.3,0.3,0.6,0.4,1c0.2,0.4,0.2,0.8,0.3,1.2
						c0,0.4,0.1,0.9,0.1,1.4c0,0.5-0.1,1-0.2,1.5c-0.1,0.5-0.3,1-0.4,1.5c-0.2,0.5-0.4,0.9-0.7,1.4c-0.3,0.4-0.6,0.8-0.9,1.2
						c-0.3,0.4-0.7,0.7-1.1,0.9c-0.4,0.2-0.7,0.5-1.1,0.6c-0.2,0.1-0.4,0.1-0.5,0.2c-0.2,0-0.3,0-0.5,0.1c-0.3,0-0.6,0-0.8,0
						c-0.4-0.1-0.7-0.1-0.7-0.1s0.2-0.1,0.6-0.2c0.2,0,0.4-0.2,0.6-0.3c0.2-0.1,0.5-0.3,0.7-0.5c0.3-0.2,0.5-0.5,0.7-0.7
						c0.2-0.3,0.5-0.6,0.7-0.9c0.1-0.2,0.2-0.3,0.3-0.5c0.1-0.2,0.2-0.4,0.3-0.5c0.2-0.4,0.3-0.8,0.5-1.1c0.1-0.4,0.3-0.8,0.4-1.2
						c0.1-0.4,0.2-0.8,0.3-1.2c0.1-0.4,0.1-0.8,0.2-1.1c0-0.4,0.1-0.7,0.1-1c0-0.3,0-0.6,0-0.9c0-0.3,0-0.5-0.1-0.7
						C392.8,374.8,392.7,374.6,392.7,374.6z"/>
				</g>
				<g class="st1">
					<path d="M318.8,277c0,0,0,0.1,0,0.2c0,0.2,0,0.4,0,0.7c0,0.6,0.2,1.5,0.6,2.6c0.4,1.1,1,2.4,1.7,3.8c0.8,1.4,1.6,3.2,2.3,5.1
						c0.8,1.9,1.5,3.9,2.4,6c0.9,2.1,1.9,4.4,2.7,6.8c0.9,2.4,1.7,4.8,2.6,7.3c0.9,2.5,1.8,5,2.8,7.5c1,2.5,1.9,5.1,2.6,7.7
						c0.8,2.5,1.4,5.1,2.2,7.5c0.7,2.4,1.4,4.7,2.1,7c0.7,2.3,1.1,4.4,1.5,6.4c0.5,2,1,3.7,1.4,5.3c0.5,1.6,0.8,3,1,4.2
						c0.2,1.2,0.2,2.1,0.2,2.7c0,0.6-0.1,1-0.1,1s0-0.3-0.1-1c0-0.6-0.2-1.5-0.4-2.7c-0.3-1.1-0.7-2.5-1.3-4
						c-0.6-1.5-1.3-3.3-1.8-5.2c-0.6-1.9-1.1-4.1-1.9-6.2c-0.3-1.1-0.8-2.2-1.2-3.3c-0.4-1.2-0.8-2.3-1.2-3.5
						c-0.8-2.4-1.5-4.9-2.3-7.4c-0.8-2.5-1.6-5-2.6-7.5c-1-2.5-1.9-5.1-2.8-7.6c-0.8-2.5-1.6-5-2.4-7.4c-0.8-2.4-1.6-4.6-2.5-6.8
						c-0.8-2.2-1.5-4.3-2.1-6.2c-0.6-1.9-1.2-3.6-1.9-5.1c-0.6-1.5-1.1-2.9-1.4-4c-0.3-1.2-0.4-2.1-0.3-2.7c0-0.3,0-0.6,0.1-0.7
						C318.8,277.1,318.8,277,318.8,277z"/>
				</g>
				<g class="st1">
					<path d="M351.1,363.2c0,0,0.7,1,1.3,2.7c0.3,0.8,0.7,1.8,1,2.9c0.3,1.1,0.6,2.2,0.9,3.3c0.1,0.3,0.1,0.6,0.2,0.8l0.1,0.4
						l0.1,0.4c0.2,0.5,0.3,1,0.6,1.4c0.2,0.4,0.5,0.8,0.8,1.2c0.3,0.3,0.6,0.7,0.9,1c0.6,0.6,1.2,1.1,1.5,1.5
						c0.4,0.4,0.6,0.6,0.6,0.6s-0.3-0.1-0.8-0.3c-0.5-0.2-1.2-0.4-2-0.9c-0.8-0.4-1.8-1.1-2.5-2.1c-0.4-0.5-0.7-1.1-0.9-1.7
						l-0.2-0.5l-0.1-0.4c-0.1-0.3-0.2-0.6-0.2-0.9c-0.3-1.2-0.5-2.3-0.7-3.4c-0.2-1.1-0.3-2.1-0.4-3
						C351.1,364.4,351.1,363.2,351.1,363.2z"/>
				</g>
				<g class="st1">
					<path d="M356.3,393.5c0,0,0.1,0,0.4,0c0.3,0,0.6-0.1,1.1-0.3c0.9-0.3,2-1,3.4-1.9c0.7-0.5,1.4-1,2.3-1.4c0.9-0.5,1.9-0.8,3-1.1
						c1-0.3,2.1-0.5,3.2-0.6c0.5-0.1,1.1-0.1,1.7-0.2l0.8-0.1c0.4,0,0.6,0,0.9-0.1c0.5,0,1.2,0,1.8,0.1c0.6,0.1,1.2,0.2,1.7,0.3
						c1.1,0.3,2.2,0.7,3.1,1c1.9,0.8,3.7,1.6,5.2,1.9c0.4,0.1,0.8,0.2,1.1,0.2c0.4,0.1,0.7,0.1,1,0.1c0.7,0.1,1.2,0,1.7,0
						c0.5,0,0.8-0.1,1.1-0.1c0.3,0,0.4-0.1,0.4-0.1s-0.1,0.1-0.4,0.2c-0.2,0.1-0.6,0.3-1.1,0.4c-0.5,0.1-1.1,0.3-1.8,0.4
						c-0.7,0.1-1.5,0.1-2.4,0c-1.7-0.2-3.7-0.8-5.6-1.4c-1-0.3-2-0.6-3-0.8c-0.5-0.1-1-0.2-1.5-0.3c-0.5,0-0.9-0.1-1.5,0
						c-0.3,0-0.6,0-0.8,0l-0.8,0.1c-0.5,0.1-1.1,0.1-1.6,0.2c-1.1,0.1-2.1,0.2-3.1,0.4c-1,0.2-1.9,0.4-2.7,0.7
						c-0.8,0.3-1.6,0.7-2.4,1.1c-1.5,0.7-2.9,1.2-3.9,1.3c-0.5,0.1-0.9,0-1.2,0C356.4,393.5,356.3,393.5,356.3,393.5z"/>
				</g>
				<g class="st1">
					<path d="M327.3,69.4c0.4,0,0.7-0.2,0.9-0.4c0.3-0.2,0.5-0.5,0.7-0.7c0.4-0.5,0.8-1.1,1.3-1.7l0.4-0.4l0.2,0.6
						c0.1,0.5,0.3,1,0.5,1.4c0.2,0.5,0.4,0.9,0.7,1.3c0.5,0.9,1.1,1.7,1.7,2.5c1.2,1.6,2.6,3.2,3.8,5.1l-1.5-0.2
						c0.9-0.9,1.7-1.9,2.6-2.8c0.9-0.9,1.8-1.9,2.7-2.8c1.8-1.8,3.7-3.6,5.7-5.2c1-0.8,2.1-1.5,3-2.3c1-0.8,1.8-1.6,2.5-2.6
						c0.3-0.5,0.6-1,0.8-1.6c0.2-0.6,0.4-1.2,0.5-1.8c0.3-1.2,0.5-2.5,0.9-3.7c-0.2,1.3-0.1,2.5-0.2,3.8c0,0.6-0.1,1.3-0.3,2
						c-0.1,0.6-0.4,1.3-0.7,1.9c-0.6,1.2-1.5,2.3-2.5,3.2c-1,0.9-2,1.7-2.9,2.5c-0.9,0.8-1.9,1.7-2.8,2.6c-0.9,0.9-1.8,1.8-2.7,2.7
						l-2.7,2.7c-0.9,0.9-1.8,1.8-2.7,2.7l-0.9,0.9l-0.6-1c-1-1.7-2.3-3.4-3.4-5.2c-0.6-0.9-1.1-1.8-1.5-2.8c-0.2-0.5-0.4-1-0.6-1.5
						c-0.2-0.5-0.3-1.1-0.3-1.6l0.6,0.2c-0.5,0.4-1,0.9-1.5,1.4c-0.3,0.2-0.6,0.5-0.9,0.6C328.1,69.3,327.7,69.4,327.3,69.4z"/>
				</g>
				<g class="st1">
					<path d="M352.4,83.1c0,0,0.1,0,0.3,0.1c0.2,0.1,0.4,0.2,0.7,0.5c0.6,0.5,1.3,1.3,1.6,2.6c0.2,0.6,0.3,1.3,0.3,2.1
						c0,0.7-0.1,1.6-0.3,2.4c-0.2,0.8-0.6,1.5-0.9,2.2c-0.3,0.7-0.6,1.4-0.7,2c0,0.1,0,0.2,0,0.2l0,0.1l0,0.1l0,0c0,0,0,0.1,0-0.1v0
						v0l0,0.6l0,0.1l0,0.1c0,0.1,0,0.1,0,0.2c0,0.1,0.1,0.2,0.1,0.4c0.2,0.5,0.6,1,1.2,1.4c1,0.8,2.3,1.5,3.3,2.1
						c0.5,0.3,1,0.7,1.4,1c0.4,0.3,0.7,0.6,0.9,0.9c0.2,0.3,0.4,0.5,0.4,0.7c0.1,0.2,0.1,0.3,0.1,0.3c0,0-0.3-0.3-0.8-0.7
						c-0.3-0.2-0.7-0.4-1.1-0.6c-0.4-0.2-0.9-0.4-1.5-0.6c-0.6-0.2-1.2-0.4-1.8-0.7c-0.6-0.3-1.3-0.6-2-1c-0.7-0.4-1.4-1.1-1.9-2
						c-0.1-0.2-0.2-0.5-0.3-0.7l-0.1-0.4c0-0.1-0.1-0.3,0-0.4l0-0.6l0,0l0-0.1l0-0.1l0-0.2c0-0.1,0-0.2,0.1-0.4
						c0.2-0.9,0.6-1.7,0.9-2.4c0.3-0.7,0.7-1.4,1-2c0.3-0.6,0.4-1.2,0.5-1.8c0.1-0.6,0.1-1.2,0-1.8c-0.1-1.1-0.4-2-0.8-2.6
						c-0.2-0.3-0.3-0.5-0.5-0.6C352.4,83.2,352.4,83.1,352.4,83.1z"/>
				</g>
				<g class="st1">
					<path d="M362.5,103.5c0,0,0-0.1,0-0.3c0-0.1,0-0.2,0-0.3c0-0.1,0-0.3,0.1-0.5c0-0.2,0.1-0.4,0.2-0.6c0.1-0.2,0.2-0.4,0.3-0.7
						c0.2-0.5,0.6-0.9,1-1.4c0.4-0.5,0.9-1,1.4-1.4c0.5-0.5,1.1-0.9,1.8-1.3c0.7-0.4,1.3-0.8,2.1-1.2c0.7-0.4,1.5-0.7,2.3-1
						c0.8-0.2,1.5-0.5,2.3-0.7c0.8-0.2,1.5-0.4,2.3-0.6c0.8-0.2,1.5-0.3,2.2-0.3c0.7-0.1,1.4-0.1,2,0c0.6,0,1.2,0.1,1.7,0.3
						c0.3,0.1,0.5,0.2,0.7,0.3c0.2,0.1,0.4,0.2,0.5,0.3c0.1,0.1,0.3,0.2,0.4,0.3c0.1,0.1,0.1,0.2,0.2,0.3C384,94.9,384,95,384,95
						s-0.1-0.1-0.2-0.2c-0.1-0.1-0.2-0.1-0.3-0.2c-0.1,0-0.3-0.1-0.4-0.2c-0.1-0.1-0.3-0.1-0.5-0.1c-0.2,0-0.4-0.1-0.6-0.1
						c-0.2,0-0.5,0-0.7,0c-0.3,0-0.5,0-0.8,0.1c-0.6,0.1-1.2,0.2-1.8,0.4c-0.6,0.1-1.3,0.4-2,0.6c-0.7,0.2-1.4,0.5-2.1,0.7
						c-0.7,0.3-1.5,0.5-2.2,0.8c-0.7,0.2-1.4,0.5-2.1,0.8c-0.7,0.3-1.4,0.6-2,0.9c-0.6,0.3-1.3,0.7-1.8,1c-0.6,0.3-1.1,0.7-1.5,1
						c-0.5,0.3-0.8,0.7-1.2,1c-0.2,0.2-0.3,0.3-0.4,0.5c-0.1,0.2-0.2,0.3-0.3,0.5c-0.1,0.1-0.1,0.3-0.2,0.4c0,0.1-0.1,0.2-0.1,0.3
						C362.5,103.4,362.5,103.5,362.5,103.5z"/>
				</g>
				<g class="st1">
					<path d="M351.6,110.5c0,0-0.4,0.5-1.1,1c-0.7,0.5-1.8,1-3,1.2c-1.2,0.2-2.4,0.2-3.2-0.1c-0.9-0.2-1.4-0.6-1.4-0.6
						s0.2-0.1,0.4-0.2c0.2-0.1,0.6-0.2,1-0.3c0.8-0.3,1.8-0.5,2.9-0.7c1-0.2,2.1-0.3,3-0.4C351,110.4,351.6,110.5,351.6,110.5z"/>
				</g>
				<g class="st1">
					<path d="M292,138.1c0,0,0.1,0.2,0.2,0.4c0,0.1,0.1,0.3,0.2,0.5c0.1,0.2,0.2,0.3,0.3,0.5c0.1,0.2,0.3,0.4,0.4,0.6
						c0.2,0.2,0.3,0.4,0.5,0.6c0.2,0.2,0.3,0.4,0.5,0.6c0.2,0.2,0.4,0.4,0.6,0.6c0.4,0.4,0.8,0.8,1.2,1.2c0.2,0.2,0.4,0.3,0.6,0.5
						c0.2,0.1,0.4,0.3,0.6,0.4c0.2,0.1,0.3,0.3,0.5,0.3c0.2,0.1,0.3,0.2,0.4,0.3c0.3,0.1,0.4,0.2,0.4,0.2s-0.2,0.1-0.5,0.2
						c-0.2,0.1-0.3,0.1-0.6,0.1c-0.2,0-0.5,0-0.7,0c-0.5,0-1.1-0.2-1.7-0.5c-0.6-0.3-1.2-0.7-1.6-1.3c-0.2-0.3-0.5-0.5-0.6-0.8
						c-0.2-0.3-0.4-0.6-0.5-0.9c-0.3-0.6-0.4-1.2-0.4-1.8c0-0.3,0-0.5,0.1-0.7c0-0.2,0.1-0.4,0.2-0.5
						C291.9,138.2,292,138.1,292,138.1z"/>
				</g>
				<g class="st1">
					<path d="M336.5,149.1c0,0,0,0.1-0.1,0.3c0,0.2-0.2,0.4-0.4,0.6c-0.4,0.5-1.1,0.9-1.8,1c-0.7,0.1-1.5,0-2-0.2
						c-0.5-0.2-0.8-0.6-0.8-0.6s0.3-0.3,0.8-0.6c0.5-0.3,1.1-0.5,1.6-0.6c0.6-0.1,1.1-0.1,1.6-0.1c0.3,0,0.5,0,0.7,0.1
						C336.4,149.1,336.5,149.1,336.5,149.1z"/>
				</g>
				<g class="st1">
					<path d="M329.3,149.5c0,0,0.1-0.1,0.4-0.2c0.1,0,0.2-0.1,0.4-0.2c0.1-0.1,0.2-0.2,0.4-0.3c0.1-0.1,0.3-0.2,0.4-0.3
						c0.1-0.1,0.3-0.3,0.4-0.4c0.1-0.1,0.3-0.3,0.4-0.5c0.2-0.2,0.3-0.3,0.4-0.5c0.3-0.3,0.6-0.7,0.9-1c0.3-0.4,0.5-0.7,0.8-1
						c0.1-0.2,0.2-0.3,0.3-0.4c0.1-0.1,0.2-0.2,0.2-0.3c0.1-0.2,0.2-0.3,0.2-0.3s0.1,0.1,0.2,0.4c0.1,0.2,0.2,0.6,0.1,1.1
						c0,0.4-0.1,1-0.3,1.5c-0.2,0.5-0.5,1-0.9,1.5c-0.2,0.2-0.4,0.4-0.6,0.6c-0.2,0.2-0.5,0.4-0.7,0.5c-0.5,0.3-1.1,0.4-1.5,0.4
						c-0.5,0-0.9-0.1-1.1-0.2C329.4,149.6,329.3,149.5,329.3,149.5z"/>
				</g>
				<g class="st1">
					<path d="M322.5,67c-0.1-0.5-0.2-0.9-0.4-1.3c-0.2-0.4-0.5-0.7-0.8-0.7c-0.3,0-0.6,0.1-0.9,0.3c-0.2,0.1-0.3,0.2-0.4,0.4
						c-0.1,0.1-0.3,0.3-0.4,0.5c-0.2,0.3-0.5,0.7-0.7,1c-0.2,0.4-0.4,0.7-0.6,1.1c-0.4,0.8-0.8,1.6-1.1,2.4l-1.1,2.7l-0.7-2.9
						c-0.2-0.8-0.4-1.7-0.5-2.5c-0.1-0.9-0.3-1.7-0.4-2.6c-0.1-0.9-0.2-1.7-0.2-2.6c0-0.4,0-0.9,0-1.3l0-1.3l0.1-2.6
						c0-0.9,0.1-1.7,0.2-2.6c0.1-0.9,0.3-1.8,0.5-2.6c0.1-0.4,0.3-0.8,0.5-1.2c0.2-0.4,0.5-0.7,0.8-1.1c-0.2,0.4-0.3,0.8-0.4,1.2
						c-0.1,0.4-0.2,0.8-0.2,1.2c-0.1,0.8-0.1,1.7,0,2.5c0,0.8,0.1,1.7,0.2,2.5c0.1,0.8,0.2,1.7,0.2,2.6l0.1,1.3l0.1,1.3
						c0.1,0.8,0.2,1.7,0.3,2.5c0.1,0.8,0.2,1.7,0.3,2.5c0.1,0.8,0.3,1.7,0.4,2.5l-1.7-0.2c0.4-0.8,0.8-1.7,1.4-2.5
						c0.3-0.4,0.5-0.8,0.8-1.2c0.3-0.4,0.6-0.7,1-1.1c0.2-0.2,0.3-0.3,0.6-0.5c0.2-0.2,0.4-0.3,0.7-0.4c0.2-0.1,0.5-0.2,0.8-0.2
						c0.3,0,0.6,0,0.9,0.1c0.3,0.1,0.5,0.3,0.7,0.5c0.2,0.2,0.2,0.5,0.3,0.7C322.6,66.1,322.6,66.6,322.5,67z"/>
				</g>
				<g class="st1">
					<path class="st18" d="M311.8,113.9c0,0,0.2-0.1,0.5-0.2c0.2-0.1,0.3-0.2,0.5-0.3c0.2-0.1,0.4-0.2,0.6-0.3
						c0.8-0.5,1.8-1,2.9-1.4c1.1-0.4,2.2-0.7,3.2-0.9c0.5-0.1,0.9-0.2,1.2-0.2c0.3-0.1,0.5-0.1,0.5-0.1s0,0.2-0.1,0.5
						c-0.1,0.3-0.3,0.8-0.6,1.2c-0.3,0.4-0.8,0.9-1.3,1.3c-0.5,0.4-1.1,0.7-1.8,1c-0.6,0.2-1.3,0.4-2,0.5c-0.7,0.1-1.3,0-1.8-0.1
						c-0.3-0.1-0.5-0.1-0.7-0.2c-0.2-0.1-0.4-0.2-0.5-0.3C311.9,114,311.8,113.9,311.8,113.9z"/>
				</g>
				<g class="st1">
					<path class="st18" d="M321.7,117.2c0,0,0.1-0.1,0.2-0.3c0.1-0.2,0.3-0.4,0.6-0.5c0.5-0.4,1-0.6,1.5-0.6c0.5,0,0.8,0.2,1.2,0.4
						c0.2,0.1,0.4,0.2,0.6,0.3c0.2,0.1,0.3,0.1,0.3,0.1s0,0.1,0,0.4c0,0.2-0.1,0.5-0.3,0.8c-0.2,0.3-0.5,0.6-0.8,0.7
						c-0.3,0.2-0.7,0.3-1,0.3c-0.7,0-1.3-0.3-1.7-0.7c-0.2-0.2-0.4-0.4-0.5-0.6C321.8,117.4,321.7,117.2,321.7,117.2z"/>
				</g>
				<g class="st1">
					<path class="st18" d="M328.8,122c0,0,0-0.1,0.1-0.3c0.1-0.2,0.2-0.5,0.3-0.7c0.2-0.5,0.6-1,1-1.3c0.4-0.3,1-0.4,1.6-0.4
						c0.3,0,0.6,0,0.8,0.1c0.2,0,0.4,0.1,0.4,0.1s0,0.1,0,0.4c0,0.2,0,0.5-0.1,0.8c-0.1,0.6-0.5,1.2-1.1,1.6c-0.6,0.4-1.4,0.5-2,0.3
						c-0.3-0.1-0.6-0.2-0.8-0.3C328.9,122.1,328.8,122,328.8,122z"/>
				</g>
				<g class="st1">
					<path class="st18" d="M294.4,102c0,0-0.1,0.2-0.2,0.5c-0.1,0.1-0.2,0.3-0.3,0.5c-0.2,0.2-0.3,0.3-0.5,0.5
						c-0.4,0.3-1,0.6-1.5,0.9c-0.6,0.2-1.2,0.3-1.9,0.4c-1.3,0.1-2.5-0.2-3.4-0.6c-0.4-0.2-0.8-0.4-1.1-0.6
						c-0.3-0.2-0.4-0.3-0.4-0.3s0.1-0.1,0.4-0.3c0.3-0.2,0.6-0.4,1.1-0.6c0.9-0.4,2.1-0.6,3.2-0.7c1.1-0.1,2.2,0,3,0.1
						c0.2,0,0.4,0.1,0.6,0.1c0.2,0,0.3,0.1,0.5,0C294.2,101.9,294.4,102,294.4,102z"/>
				</g>
				<g class="st1">
					<path class="st18" d="M289.1,108.8c0,0,0.1-0.1,0.3-0.3c0.2-0.2,0.4-0.4,0.6-0.7c0.2-0.3,0.4-0.6,0.6-0.9
						c0.1-0.2,0.2-0.3,0.3-0.5l0.1-0.2c0.1-0.1,0.2-0.2,0.2-0.3c0.1-0.1,0.2-0.3,0.3-0.4c0.1-0.2,0.2-0.3,0.3-0.5
						c0.2-0.4,0.5-0.8,0.9-1.1c0.3-0.3,0.7-0.6,1-0.7c0.3-0.1,0.5-0.1,0.5-0.1s0,0.2,0,0.4c0,0.2,0.1,0.6,0.2,1
						c0.1,0.4,0.1,0.9,0,1.4c0,0.3-0.1,0.6-0.2,0.8c-0.1,0.3-0.2,0.6-0.5,0.9c-0.1,0.2-0.2,0.2-0.3,0.3l-0.1,0.1l0,0l-0.1,0.1
						l-0.2,0.2c-0.2,0.2-0.5,0.4-0.7,0.5c-0.5,0.3-1.1,0.5-1.6,0.5c-0.5,0-0.9-0.1-1.2-0.3C289.2,109,289.1,108.8,289.1,108.8z"/>
				</g>
				<g>
					<circle class="st2" cx="281.4" cy="68.2" r="3.4"/>
					<circle class="st2" cx="286.3" cy="68.9" r="1.7"/>
				</g>
				<ellipse class="st2" cx="267" cy="3.6" rx="12" ry="12.2"/>
				<ellipse class="st2" cx="322" cy="-6.7" rx="14.3" ry="13.3"/>
				<g>
					<path d="M279,2.2c0,0,0-0.2-0.1-0.6c-0.1-0.4-0.3-0.9-0.6-1.5C278-0.5,277.6-1.3,277-2c-0.3-0.4-0.6-0.7-1-1.1
						c-0.2-0.2-0.4-0.4-0.6-0.6c-0.2-0.2-0.4-0.4-0.7-0.5c-0.9-0.7-2-1.4-3.2-1.8c-0.6-0.2-1.2-0.4-1.9-0.5
						c-0.6-0.1-1.3-0.2-2.1-0.2c-1.5-0.1-2.9,0-4.2,0.4C262.1-6,261-5.3,260-4.2c-1,1-1.6,2.3-2.2,3.7c-0.5,1.4-1.1,3-1.3,4.2
						c-0.2,1.4-0.2,2.7,0,3.9c0.3,1.2,0.8,2.3,1.5,3.2c0.7,0.9,1.5,1.6,2.3,2.2c0.8,0.6,1.5,1.1,2.1,1.4c0.6,0.3,1.1,0.5,1.5,0.6
						c0.4,0.1,0.6,0.1,0.6,0.1s-0.2,0-0.6,0c-0.4,0-1,0-1.7-0.2c-0.7-0.2-1.6-0.5-2.5-1c-0.9-0.5-1.9-1.1-2.9-2
						c-1-0.9-1.8-2.2-2.3-3.7c-0.5-1.5-0.7-3.2-0.5-4.9c0.1-0.4,0.1-0.8,0.2-1.3c0-0.2,0.1-0.4,0.1-0.6l0.2-0.6
						c0.2-0.8,0.4-1.6,0.7-2.4c0.6-1.6,1.4-3.3,2.7-4.7c1.2-1.3,3-2.5,4.8-2.9c1.8-0.5,3.6-0.4,5.2-0.2c0.8,0.1,1.6,0.2,2.4,0.4
						c0.8,0.2,1.6,0.5,2.2,0.9c1.4,0.7,2.5,1.6,3.4,2.6c0.2,0.2,0.5,0.5,0.7,0.7c0.2,0.2,0.4,0.5,0.6,0.7c0.4,0.5,0.6,1,0.9,1.5
						c0.5,0.9,0.7,1.8,0.9,2.6c0.2,0.7,0.2,1.3,0.2,1.7C279.1,2,279,2.2,279,2.2z"/>
				</g>
				<g>
					<path d="M307.7-4.7c0,0,0-0.2-0.1-0.6c0-0.4-0.1-1-0.1-1.7c0-0.8,0.1-1.7,0.3-2.7c0.2-1.1,0.5-2.2,1-3.4
						c0.5-1.2,1.2-2.5,2.2-3.7c1-1.2,2.2-2.4,3.8-3.2l0.6-0.3l0.5-0.3c0.4-0.2,0.8-0.4,1.2-0.5c0.8-0.3,1.7-0.5,2.6-0.7
						c1.8-0.3,3.8-0.2,5.6,0.3c1.8,0.5,3.5,1.4,5,2.5c1.4,1.1,2.6,2.5,3.6,3.8c1,1.3,1.7,2.9,2.2,4.4c0.5,1.5,0.7,2.9,0.8,4.3
						c0.1,1.4-0.2,2.6-0.6,3.7c-0.4,1-0.9,1.8-1.4,2.4c-0.5,0.6-0.9,1-1.2,1.3c-0.3,0.3-0.5,0.4-0.5,0.4s0.1-0.2,0.3-0.5
						c0.2-0.3,0.5-0.8,0.8-1.5c0.3-0.7,0.6-1.5,0.8-2.4c0.2-1,0.2-2-0.1-3.2c-0.2-1.2-0.6-2.4-1.2-3.6c-0.5-1.3-1.3-2.4-2.2-3.6
						c-1.8-2.3-4.4-4.3-7.2-5c-1.4-0.4-2.9-0.5-4.4-0.3c-0.7,0.1-1.5,0.3-2.2,0.5c-0.4,0.1-0.7,0.2-1,0.3l-0.6,0.2l-0.5,0.2
						c-1.3,0.6-2.4,1.4-3.3,2.4c-0.9,0.9-1.7,2-2.3,3c-1.3,2.1-1.9,4-2.3,5.5c-0.2,0.7-0.3,1.3-0.4,1.7C307.7-5,307.7-4.7,307.7-4.7
						z"/>
				</g>
				<g class="st1">
					<path class="st18" d="M368.8,134.7c0,0,0,0.2,0.1,0.4c0,0.2,0,0.6-0.2,1c-0.3,0.8-0.9,1.5-1.8,1.9c-0.4,0.2-0.9,0.3-1.4,0.3
						c-0.5,0-0.9-0.1-1.3-0.3c-0.4-0.2-0.6-0.5-0.8-0.7c-0.1-0.2-0.2-0.4-0.2-0.4s0.1-0.1,0.3-0.2c0.1,0,0.2-0.2,0.3-0.2
						c0.1-0.1,0.2-0.2,0.3-0.3c0.4-0.4,0.9-0.7,1.5-1c0.6-0.3,1.2-0.4,1.8-0.4c0.3,0,0.6,0,0.8-0.1
						C368.6,134.7,368.8,134.7,368.8,134.7z"/>
				</g>
				<path d="M286.2-14.8l-4.6,1.4c-2.2,0.5-5.7-0.3-5.7-0.3c-18.7-4.1-30.4,4-30.4,4l-9.9,7c-0.5,1.2,2,4.7,2,4.7
					c1.6-0.2,3.7,1.5,3.7,1.5c9.2,14.3,16.7,15,16.7,15c13.9,3.8,20.9-5.2,20.9-5.2c6.7-7.1,4.2-20.6,4.2-20.6c-0.5-2.5,5-4.6,5-4.6
					l-1-3.2L286.2-14.8z M273,15.5c0,0-9,4.7-18.8-0.6c0,0-4.4-1.8-8.6-10.1c0,0-4.6-7.5,1.2-12.4c0,0,4.5-4.7,18.9-5.2
					c0,0,12.6-0.3,14.9,7.3C280.6-5.4,285,8.7,273,15.5z"/>
				<g>
					<path class="st10" d="M282.2,8.2c1.5-4.4,0.9-8.8,0.5-10.9C282.8,0.3,282.7,4.3,282.2,8.2z"/>
					<path class="st10" d="M274.8,16.9c0,0-9,4.7-18.8-0.6c0,0-3.2-1.3-6.7-6.7c-0.1,0.3-0.1,0.5-0.2,0.8c0,0-0.4,0.6-0.8,1.7
						c6.6,7.4,11.3,7.9,11.3,7.9c13.9,3.8,20.9-5.2,20.9-5.2c0.8-2,1.3-4.3,1.6-6.6C281.1,11.4,278.9,14.6,274.8,16.9z"/>
					<path class="st10" d="M283.3-12c-2.2,0.5-5.7-0.3-5.7-0.3c-15.6-3.4-26.4,1.6-29.5,3.4c0.2,0.9,0.4,1.8,0.6,2.7
						c0.6-0.6,5.4-4.7,18.8-5.1c0,0,12.6-0.3,14.9,7.3c0,0,0.1,0.5,0.3,1.3c-0.1-3-0.4-5-0.4-5c-0.5-2.5,5.5-4.5,5.5-4.5l1-1.4
						l-0.9,0.3L283.3-12z"/>
				</g>
				<path d="M292.4-16.4l0.3,3.6c0,0,6.2-0.2,6.7,2.6c0,0,2.9,14.3,12.3,18.6c0,0,10.5,6.1,22.6-3.2c0,0,7.1-3.7,10.5-21.4
					c0,0,1.4-2.5,3-2.9c0,0,1.1-4.4,0.1-5.4l-12.5-3c0,0-14.7-3.3-31.5,8.1c0,0-3.2,2.2-5.5,2.5l-5.1,0.4L292.4-16.4z M302.5-9.3
					c-0.8-8.4,11.7-13.1,11.7-13.1c14.4-5.2,20.6-2.3,20.6-2.3c7.6,2.6,6,11.7,6,11.7c-0.9,9.8-4.5,13.3-4.5,13.3
					c-7.5,9-18.2,7.9-18.2,7.9C303.7,6.3,302.5-9.3,302.5-9.3z"/>
				<path class="st10" d="M295.3-15.7l0.3,3.6c0,0,6.2-0.2,6.7,2.6c0,0,2.9,14.3,12.3,18.6c0,0,10.5,6.1,22.6-3.2
					c0,0,7.1-3.7,10.5-21.4c0,0,1.4-2.5,3-2.9c0,0,1.1-4.4,0.1-5.4l-12.5-3c0,0-14.7-3.3-31.5,8.1c0,0-3.2,2.2-5.5,2.5l-5.1,0.4
					L295.3-15.7z M305.5-8.7c-0.8-8.4,11.7-13.1,11.7-13.1c14.4-5.2,20.6-2.3,20.6-2.3c7.6,2.6,6,11.7,6,11.7
					c-0.9,9.8-4.5,13.3-4.5,13.3c-7.5,9-18.2,7.9-18.2,7.9C306.6,6.9,305.5-8.7,305.5-8.7z"/>
				<ellipse class="st2" cx="314.4" cy="-6.7" rx="2.4" ry="3.5"/>
				<g>
					<path d="M336.2-5.9c0,0,0,0,0-0.1c0-0.1,0-0.2,0-0.3c0-0.3-0.1-0.6-0.2-0.9c-0.1-0.3-0.1-0.6-0.1-0.9c0-0.1,0-0.3,0-0.4
						c0-0.1,0-0.3,0.1-0.4c0-0.1,0.1-0.3,0.1-0.4c0-0.1,0.1-0.3,0.2-0.4c0.2-0.3,0.4-0.6,0.6-0.8c0.3-0.3,0.5-0.5,0.7-0.7
						c0.1-0.1,0.2-0.2,0.3-0.2c0.1-0.1,0.1-0.1,0.1-0.1s0.7,0.3,1.2,1c0.3,0.3,0.5,0.7,0.6,1.2c0.1,0.2,0.1,0.5,0.1,0.7
						c0,0.3,0,0.5-0.1,0.8c-0.1,0.3-0.2,0.5-0.3,0.7c-0.1,0.2-0.3,0.5-0.5,0.6c-0.3,0.4-0.8,0.7-1.2,0.8c-0.4,0.1-0.8,0.2-1.1,0.1
						C336.4-5.9,336.2-5.9,336.2-5.9z"/>
				</g>
				<g>
					<path d="M256.3,10.6c0,0-0.1,0.2-0.4,0.3c-0.2,0.2-0.6,0.4-1.1,0.5c-0.4,0.1-1,0.1-1.4-0.1c-0.3-0.1-0.5-0.2-0.7-0.3
						c-0.2-0.1-0.4-0.3-0.6-0.5c-0.2-0.2-0.4-0.4-0.5-0.6c-0.1-0.2-0.2-0.4-0.3-0.7c-0.1-0.5-0.2-0.9-0.1-1.3
						c0.1-0.8,0.6-1.4,0.6-1.4s0,0,0.1,0c0.1,0,0.2,0,0.3,0.1c0.3,0.1,0.6,0.2,1,0.3c0.3,0.1,0.7,0.3,1,0.4c0.1,0.1,0.3,0.1,0.4,0.2
						c0.1,0.1,0.2,0.2,0.3,0.3c0.1,0.1,0.2,0.2,0.3,0.3c0.1,0.1,0.1,0.2,0.2,0.4c0.1,0.3,0.2,0.6,0.3,0.9c0.1,0.3,0.2,0.6,0.3,0.9
						c0.1,0.1,0.1,0.2,0.1,0.3C256.3,10.5,256.3,10.6,256.3,10.6z"/>
				</g>
				<g>
					<path class="st20" d="M286.7-1c0,0,0.1,0.3,0.3,0.7c0.2,0.5,0.3,1.1,0.5,1.9c0.1,0.8,0.2,1.7,0.1,2.8c-0.1,1-0.4,2.1-0.8,3.1
						c-0.4,1.1-1,2-1.5,2.7c-0.2,0.4-0.5,0.7-0.7,1c-0.1,0.2-0.3,0.5-0.3,0.7c-0.1,0.5,0,1.2,0.1,1.6c0.1,0.5,0.1,0.7,0.1,0.7
						s-0.3-0.1-0.6-0.4c-0.2-0.1-0.4-0.3-0.7-0.6c-0.2-0.3-0.5-0.6-0.7-1.1c-0.2-0.5-0.2-1.1-0.1-1.7c0.1-0.5,0.2-1,0.4-1.5
						c0.4-1,0.8-1.8,1.1-2.6c0.7-1.7,1.3-3.5,1.8-4.9c0.3-0.7,0.5-1.3,0.7-1.8C286.6-0.8,286.7-1,286.7-1z"/>
				</g>
				<g>
					<ellipse class="st21" cx="272.5" cy="5.5" rx="6" ry="8.9"/>
					<ellipse cx="272.5" cy="4.7" rx="3.1" ry="4.7"/>
					<ellipse class="st2" cx="268.4" cy="1.7" rx="2.4" ry="3.5"/>
				</g>
				<g>
					
						<ellipse transform="matrix(0.9962 -8.752558e-002 8.752558e-002 0.9962 1.5289 27.916)" class="st21" cx="319.1" cy="-3.5" rx="6.5" ry="9.7"/>
					
						<ellipse transform="matrix(0.9962 -8.755289e-002 8.755289e-002 0.9962 1.6044 27.9165)" cx="319" cy="-4.3" rx="3.4" ry="5.1"/>
					
						<ellipse transform="matrix(0.9962 -8.752913e-002 8.752913e-002 0.9962 1.8335 27.4857)" class="st2" cx="314.3" cy="-7.2" rx="2.6" ry="3.8"/>
				</g>
				<path class="st20" d="M284.3,10.6c1.3-0.7,3.5-1.4,5.2-0.8c1.1,0.4,3.5,2.2,2.5,3.1c-0.8,0.8-4.7,0.5-5.9,0.4
					c-0.8-0.1-2.2-0.4-2.4-1.5c-0.1-1.1,1.2-1.3,2-1.5"/>
				<g>
					<path class="st20" d="M300.5,14.9c0.3-0.2,0.7-0.4,1.1-0.4c0.4-0.1,0.8-0.1,1.2-0.1c0.4,0,0.8,0,1.2,0l0.5,0c0.2,0,0.3,0,0.5,0
						c0.4,0,0.8,0,1.2,0c0.4,0,0.8,0.1,1.1,0.1c0.7,0.1,1.4,0.1,2.1,0.1l-0.9,0.7c0,0,0-0.1,0-0.1c0-0.1,0-0.1,0-0.2
						c0-0.2-0.1-0.4-0.2-0.6c-0.1-0.2-0.2-0.4-0.4-0.6c-0.1-0.2-0.3-0.4-0.5-0.6l-0.5-0.7l-0.5-0.7c-0.4-0.4-0.7-0.9-1.1-1.4
						c0.6,0.2,1.1,0.4,1.6,0.7c0.5,0.3,1,0.6,1.5,1c0.5,0.4,1,0.8,1.3,1.4c0.1,0.1,0.2,0.3,0.3,0.5c0.1,0.2,0.2,0.3,0.2,0.5
						c0.1,0.2,0.1,0.4,0.1,0.6c0,0.2,0,0.5-0.1,0.7l-0.1,0.6l-0.8,0.1c-0.8,0.1-1.7,0-2.4-0.1c-0.4-0.1-0.8-0.1-1.1-0.2
						c-0.4-0.1-0.7-0.1-1.1-0.2c-0.2,0-0.4-0.1-0.6-0.1l-0.6-0.1c-0.4-0.1-0.7-0.2-1.1-0.4c-0.4-0.1-0.7-0.3-1.1-0.3
						C301.2,14.9,300.9,14.8,300.5,14.9z"/>
				</g>
				<polyline points="347.9,-24.4 379.8,-13.2 377.8,-8.9 347.8,-19 				"/>
				<path class="st10" d="M390.2-15.4c-3.2-4.3-10.1-3.7-16.5,14.2L367.1-46l-10.7-24.3l-17.9-7.7c-4.1,0-8.2,0.6-11.9,2
					c-5.1,2-9-0.4-14,1.5l-3,5.6c-2.4,1.9,11.1,21.6,13.5,24.1c2.8,2.9-9.3-19.8-6.3-20.4c8-1.7,18.2-3.6,22.4,2.1
					c4.2,5.7,6.2,8.9,6,16.4c-0.1,3.6-4.4,5.6-7.1,5.4c-3.8-0.3-4.2-1.7-5.9-2.6c-3.7-2-11.9-2-15.4,6c-2.6,5.9,1.8,1.1,5.2,0.7
					c4.4-0.4,6.5,1.8,10.2,3.7c4.9,2.6,13.9,8.4,17,12.7c4.6,6.3,6.5,19.5,6.5,26.7c0,9.2-2.5,17-6.5,23.1c-1.9,2.9-5.4,5.2-8.3,7.5
					c-1.9,1.4-9.6,4.4-10.1,6.5c-1.1,4.6,7.7,0.8,9.4,1.3c3.1,1,1,8.1,5.9,6.6l3-2.7l6.4-23.9c0,0,14.7-12,17.7-16.7
					s0.1,8.2,11.3,4.9C391,10.7,393.1-11.5,390.2-15.4z"/>
				<path class="st22" d="M356.3,102.1c-1.6,2.2-1.8,4.1-4.3,6c-2.6,1.9-4.9,2.3-8.1,2.6c-6.9,0.5-12.5-2-18.7-3.2
					c-4.9-0.9-11.1,1.3-13.8,5.5c-4,6.2,4.5,5.3,8.3,6.7c4.9,1.8,9,6.9,12.9,10.5c3.3,3,8.4,7,7.3,12c-1.2,5.6-9.1,5.1-13.8,4.5
					c-3.1-0.4-6.1-0.8-9.3-0.8c-2.5,0-5.7-1-7.6,0.5c-4.6,3.6,9.4,5.5,11.7,6.2c6.3,1.8,12.7,3.8,18.9,6c8.1,3,15.1,10.8,24.1,10.8
					c4.8,0,6.2-2.3,10.1-5.1c3.3-2.4,6.1-4.7,7.8-8.2c2.9-5.8,3.8-13.6,4.5-20.1c0.7-6.6,1.4-12.2-2.2-18.1c-3.7-6.1-10-7.9-16.1-10
					c-2.7-0.9-4.5-2-6.9-3.2c-1.3-0.7-4.2-2.9-5.3-2.4"/>
				<g class="st1">
					<path class="st18" d="M355.8,101.3c0,0,0.1,0,0.1,0c0.1-0.1,0.1-0.2,0.2-0.2L355.8,101.3z"/>
					<path class="st18" d="M362.2,106c0.1-0.1-2.6-0.6-1.3-1.4c-0.6-0.3-0.2-0.6-0.5-1.3c-0.6-1.3-4.3-2.9-5.5-2.6
						c-1.4,2.1-0.7,4.6-3.2,6.3c-2.6,1.9-4.9,2.3-8.1,2.6c-6.9,0.5-12.5-2-18.7-3.2c-4.9-0.9-11.1,1.3-13.8,5.5
						c-4,6.2,4,3.7,6.7,6.8c3.5,4,6.6,10,10.5,13.6c3.3,3,5.2,5.2,5.2,8.7c0,4.2-5.1,4.8-7.6,4.5c-3.1-0.3-6.1-0.8-9.3-0.8
						c-2.5,0-5.7-1-7.6,0.5c-0.4,0.3-0.7,0.7-0.8,1c25,2.1,38.5,10.5,46.8,15.7c8.9,5.6,9-22.6,5.4-26.2c-3.6-3.7-1.8-14.4-1.4-16.3
						C360,114.5,360.6,107.9,362.2,106z"/>
				</g>
				<path class="st8" d="M363.1,105.8c0,0,15.3-9.2,22.1-2.7l1.2,34.7c0,0,0,23.5-10.2,29c0,0-12.4,3.9-29.2-11.5
					c0,0-12.4-13.8-17.1-33c0,0-2.9-1.2-5.6,0.9c0,0-7.7,7.4-5.7-1.3c0,0,1.7-4.8,3.9-4.9c2.1-0.1-10.3,0.2-10.5-2.6
					c0,0-8.6,0.1-7.9-2.8c0,0,12.2-5.1,13.7-11.1c0,0-14.3,1.1-13.8-3.5c0-0.1,0.1-0.3,0.1-0.4c0.2-2.6,25.7-2.6,24.2-2.6
					c0,0-0.5-5.7-1.7-7.9c-1.3-2.1-3.9-9.2,1.6-5.5c4.2,2.8,5.6,6.7,6.2,8.2c0.6,1.5,2.5,13.8,6.2,23c0,0,16.6,27.7,22.7,24.7
					l-0.5-30.4"/>
				<path class="st10" d="M384.7,103c-6.8-6.5-22.1,2.7-22.1,2.7l-0.4,0.3l0,2.5c0.8-0.2,1.6-0.5,2.1-0.8c4.9-0.3,9.5-4.2,12,2.8
					c2.3,6.4,1,15.1,1,22c0,5.9-0.3,15.8-5.8,19.5c-4.5,3-11.8,3.3-16.9,1.1c-6-2.5-10.7-8.8-13.9-14.4c-2.1-3.9-4.6-12.9-10.2-12.4
					c5.3,17.1,15.9,28.9,15.9,28.9c16.8,15.4,29.2,11.5,29.2,11.5c10.2-5.5,10.2-29,10.2-29L384.7,103z"/>
				<path class="st23" d="M396.3,354.8c0,0-36.2-66.8-39.8-94.7c0,0-3.6-41.9,4.7-67.2c0,0-1.1-23.8-5.5-29.8c0,0-4.1-3.7-13-7.5
					c-0.8,1-0.7,2.7,0.5,4.3l-0.8-0.8c4.7,6.3,12.7,18.8,8.1,27.1c-3.4,0.2-5.8,1.7-9.3-0.6c-2.4-1.6-3.4-5.5-6.9-4.8
					c-2.1,5.3,7.3,16.2,9.3,21.3c3.6,9.3,5.1,20.1,5.4,30.3c0.4,11.7-1.9,24,0,35.4c1.3,7.8,5.4,13.1,9.5,19.6
					c5.2,8.2,7.1,18,9.1,27.6c2.5,11.6,5.6,22.9,6.6,34.6c0.5,6.1,1,12.7,2.6,18.5c1.2,4.2,3.8,5.9,7.3,8.4c3.3,2.4,4.8,4.2,6.5,8
					c1.8,3.9,2.7,5.1,7.1,5.1C403.1,387.8,408.4,381.5,396.3,354.8z"/>
				<g>
					<path class="st10" d="M285.3,216.9c0.1,0.2,0.2,0.3,0.4,0.5c0.4,0.3,0.8,0.5,1.2,0.7L285.3,216.9z"/>
					<path class="st10" d="M300.4,282.4c-0.4-1.5-0.8-3-1.1-4.5c-1.4-7.7-3.3-15.8-5.8-22.9c-2.4-6.6-3.6-13-4.2-19.9
						c-0.7-6.9,0.8-12.4-3.5-17.8c-5.2-3.2-16.3-11.5-11.6-0.1c3.9,9.4,8.7,18.9,11.7,28.8c1.6,5.1,1.8,10.8,2.5,16
						c0.7,5.2,1.1,11.4,0.6,16.7c-1.2,11.2-4.2,21.7-5.2,33.1c-1.1,12.2-1.7,24.6,1.2,36.6c2.5,10.3,7.4,19.2,7.9,30
						c0.2,5.2-0.4,10.4-1,15.2c-0.5,3.5,0.7,5.3,3,6.3c2.6-1.7,21.2-5.6,10.3-26.8C304.9,373,290.6,332.7,300.4,282.4z"/>
				</g>
				<path class="st10" d="M390.7,434.2c0,0-2.3-0.7-5.3-1.5c0,4.3,0,8.2-1,12.2c-0.9,3.7-2.4,6.9-2.1,10.9c0.1,1.6,0.5,3,1.2,4.2
					l6,3.3c0,0,6.8,0.9,7-0.8c0,0,2.9,0.1,2.5-25.7C398.9,436.8,400.2,435,390.7,434.2z"/>
				<g class="st1">
					<path d="M331.4,166.3l0,1.6l0.1,1.5l0.2,1.5l0.2,1.5c0.2,1,0.4,2,0.7,3c0.3,1,0.6,2,0.9,3c0.3,1,0.7,1.9,1.1,2.9
						c0.4,0.9,0.9,1.9,1.3,2.7l0.8,1.3l0.8,1.3l0.9,1.2c0.3,0.4,0.7,0.7,1,1.1c0.4,0.3,0.7,0.6,1.1,1c0.4,0.3,0.8,0.6,1.2,0.9
						c0.8,0.6,1.7,1.1,2.6,1.6c1.8,0.9,3.7,1.6,5.6,2.1l1.5,0.3c0.5,0.1,1,0.2,1.5,0.3c1,0.2,2,0.3,2.7,0.1c0.2,0,0.3-0.1,0.4-0.2
						c0,0,0,0,0.1,0c0,0,0.1,0,0,0l0.1-0.1c0.1-0.1,0.1-0.1,0.1-0.2c0.2-0.3,0.4-0.8,0.6-1.2c0.4-0.9,0.7-1.9,0.9-2.8l0.9,1.2
						c-3.2-0.2-6.4-0.4-9.6-1.5c-0.8-0.3-1.6-0.6-2.3-1c-0.7-0.4-1.5-0.9-2.1-1.4c-0.7-0.5-1.3-1.1-1.8-1.7c-0.6-0.7-1-1.3-1.5-2
						c-0.9-1.4-1.7-2.8-2.4-4.3c-0.4-0.7-0.7-1.5-1-2.2c-0.3-0.8-0.6-1.5-0.7-2.4c-0.3-1.6-0.7-3.1-1-4.7c-0.3-1.6-0.5-3.2-0.4-4.8
						l0.2,0.2c-0.4-0.1-0.8-0.2-1.3-0.1c-0.4,0-0.9,0.1-1.3,0.2c-0.9,0.2-1.8,0.4-2.7,0.4c0.9-0.1,1.8-0.4,2.7-0.7
						c0.4-0.1,0.9-0.3,1.4-0.3c0.5-0.1,1-0.1,1.4,0l0.2,0l0,0.2c0.1,1.6,0.4,3.1,0.8,4.6c0.4,1.5,0.8,3.1,1.2,4.6
						c0.4,1.4,1.1,2.9,1.8,4.2c0.7,1.4,1.5,2.7,2.4,4c0.4,0.6,0.9,1.2,1.4,1.8c0.5,0.6,1.1,1,1.7,1.5c0.6,0.4,1.2,0.8,1.9,1.2
						c0.7,0.3,1.4,0.6,2.1,0.8c2.9,0.9,6,1.1,9.2,1.3l1.2,0.1l-0.3,1.1c-0.3,1.1-0.6,2.1-1,3.2c-0.2,0.5-0.5,1-0.9,1.5
						c-0.1,0.2-0.3,0.4-0.4,0.4l-0.1,0.1c-0.1,0.1-0.1,0.1-0.2,0.1l-0.3,0.2c-0.4,0.2-0.7,0.3-1,0.4c-1.3,0.2-2.4,0-3.5-0.2
						c-0.5-0.1-1.1-0.2-1.6-0.3l-1.5-0.4c-2.1-0.5-4.1-1.3-6-2.4c-0.9-0.5-1.8-1.1-2.7-1.7c-0.4-0.3-0.9-0.7-1.3-1
						c-0.4-0.4-0.8-0.7-1.2-1.1c-0.4-0.4-0.7-0.8-1.1-1.2l-1-1.3l-0.8-1.4l-0.7-1.4c-0.5-1-0.9-1.9-1.2-2.9c-0.4-1-0.7-2-1-3
						c-0.3-1-0.5-2-0.7-3.1c-0.2-1-0.3-2.1-0.4-3.1l-0.1-1.6l-0.1-1.6l0-1.6L331.4,166.3z"/>
				</g>
				<g>
					<path class="st20" d="M329.6,315.3c0,0,0,0.2,0,0.5c0,0.3,0.2,0.8,0.5,1.3c0.3,0.5,0.7,1.1,1.2,1.9c0.2,0.4,0.5,0.8,0.7,1.3
						c0.2,0.4,0.4,0.9,0.7,1.4c0.5,1,1,2,1.5,3.1c0.5,1.1,1,2.4,1.5,3.7c0.4,1.3,0.8,2.6,1.2,4c0.4,1.4,0.8,2.6,1.4,4
						c0.5,1.3,1,2.7,1.5,4c0.5,1.3,0.9,2.7,1.3,4c0.4,1.3,0.7,2.6,0.9,3.9c0.2,1.2,0.4,2.4,0.5,3.4c0.3,2.1,0.7,3.9,1.1,5
						c0.2,0.6,0.4,1,0.6,1.3c0.2,0.3,0.3,0.4,0.3,0.4s-0.1-0.1-0.4-0.3c-0.2-0.3-0.6-0.6-0.9-1.2c-0.6-1.1-1.3-2.9-1.8-4.9
						c-0.3-1-0.6-2.2-0.9-3.4c-0.3-1.2-0.6-2.4-1.1-3.6c-0.4-1.3-1-2.5-1.4-3.8c-0.5-1.3-1-2.7-1.5-4c-0.5-1.3-1-2.8-1.3-4.2
						c-0.4-1.4-0.7-2.7-1-4c-0.3-1.3-0.7-2.5-1.1-3.6c-0.4-1.2-0.8-2.3-1.2-3.3c-0.2-0.5-0.3-1-0.5-1.5c-0.1-0.5-0.3-0.8-0.5-1.2
						c-0.4-0.8-0.7-1.5-0.9-2.1c-0.2-0.6-0.2-1.1-0.2-1.5C329.6,315.5,329.6,315.3,329.6,315.3z"/>
				</g>
				<g>
					<path class="st20" d="M249.9,318.4c0.2,3.4,0.3,6.9,0.4,10.4c0,3.5,0,6.9-0.3,10.4c-0.2,3.5-0.6,6.9-1,10.3
						c-0.4,3.4-0.9,6.8-1.2,10.3c-0.2,1.7-0.4,3.4-0.5,5.1c-0.1,0.9-0.1,1.7-0.1,2.5c0,0.8,0,1.7,0,2.5c0.1,3.4,0.6,6.7,1.7,9.9
						c0.5,1.6,1.1,3.2,1.9,4.7c0.7,1.5,1.6,3,2.5,4.5c0.9,1.4,1.9,2.8,3.1,4.1c1.2,1.2,2.5,2.3,4.1,2.9l0,0l0,0
						c0.1,0.1,0.3,0.1,0.4,0.1c-0.1,0.1-0.3,0-0.5,0l0,0c-1.7-0.4-3.2-1.4-4.5-2.6c-1.3-1.2-2.5-2.5-3.5-3.9c-1-1.4-2-2.9-2.8-4.4
						c-0.9-1.5-1.6-3.1-2.2-4.8c-1.2-3.3-1.9-6.8-2.1-10.4c0-0.9-0.1-1.8,0-2.6c0-0.9,0.1-1.8,0.1-2.6c0.1-1.8,0.3-3.5,0.5-5.2
						c0.4-3.4,0.9-6.9,1.3-10.3c0.5-3.4,0.9-6.8,1.3-10.2c0.4-3.4,0.6-6.8,0.9-10.3C249.6,325.3,249.7,321.9,249.9,318.4z"/>
				</g>
				<g>
					<path class="st20" d="M249.9,397.3c0,0,0.2,0.1,0.4,0.2c0.3,0.1,0.6,0.3,1,0.6c0.8,0.5,1.8,1.2,2.7,1.9
						c0.5,0.3,0.9,0.7,1.4,0.9c0.2,0.1,0.4,0.3,0.7,0.4c0.2,0.1,0.4,0.3,0.6,0.3c0.4,0.2,0.7,0.3,1,0.4c0.3,0.1,0.4,0.2,0.4,0.2
						s-0.1,0.1-0.4,0.2c-0.1,0.1-0.3,0.1-0.5,0.2c-0.2,0.1-0.5,0.1-0.7,0.1c-0.5,0-1.2,0-1.8-0.3c-0.3-0.1-0.6-0.2-0.9-0.4
						c-0.3-0.1-0.6-0.3-0.9-0.5c-1.1-0.8-2-1.8-2.4-2.7C250,398,249.9,397.3,249.9,397.3z"/>
				</g>
				<g>
					<path class="st20" d="M256.4,383.1c0,0,0.1,0.2,0.2,0.6c0.1,0.2,0.2,0.4,0.3,0.6c0.1,0.2,0.3,0.5,0.5,0.8
						c0.2,0.3,0.4,0.6,0.6,0.9c0.2,0.3,0.5,0.6,0.7,1c0.2,0.4,0.5,0.7,0.8,1c0.3,0.4,0.6,0.7,0.8,1c0.3,0.3,0.6,0.7,0.9,1
						c0.3,0.3,0.6,0.7,0.9,0.9c0.3,0.3,0.6,0.6,0.8,0.8c0.3,0.3,0.6,0.5,0.8,0.7c0.3,0.2,0.5,0.4,0.7,0.5c0.2,0.1,0.5,0.3,0.6,0.3
						c0.4,0.1,0.6,0.2,0.6,0.2s-0.2,0.1-0.7,0.2c-0.2,0-0.5,0-0.8,0c-0.3,0-0.7-0.1-1-0.2c-0.3-0.1-0.8-0.3-1.1-0.5
						c-0.4-0.2-0.8-0.4-1.2-0.7c-0.4-0.3-0.8-0.6-1.1-0.9c-0.4-0.3-0.7-0.7-1-1.1c-0.3-0.4-0.6-0.8-0.9-1.2
						c-0.3-0.4-0.5-0.8-0.7-1.2c-0.2-0.4-0.4-0.8-0.5-1.2c-0.2-0.4-0.2-0.8-0.3-1.2c-0.1-0.4-0.1-0.7-0.1-1c0-0.3,0-0.6,0-0.8
						C256.3,383.3,256.4,383.1,256.4,383.1z"/>
				</g>
				<g>
					<path class="st20" d="M264.4,193.2c0,0,0.3,0.7,0.5,1.7c0.1,0.5,0.2,1.1,0.3,1.7c0,0.3,0.1,0.6,0.1,0.9c0,0.3,0.1,0.6,0.1,0.9
						c0,0.2,0.1,0.6,0.2,0.8c0.1,0.3,0.1,0.6,0.2,0.9c0.1,0.6,0.3,1.2,0.3,1.7c0,0.5,0,1-0.1,1.3c-0.1,0.3-0.1,0.5-0.1,0.5
						s-0.4-0.6-0.9-1.4c-0.3-0.4-0.6-0.9-0.9-1.5c-0.1-0.3-0.3-0.6-0.4-0.9c-0.1-0.3-0.2-0.7-0.3-1.1c-0.1-0.3-0.1-0.7-0.1-1.1
						c0-0.4,0-0.7,0-1c0.1-0.6,0.2-1.2,0.4-1.7C264.1,193.8,264.4,193.2,264.4,193.2z"/>
				</g>
				<g>
					<path class="st20" d="M290.3,165c0.4-0.9,0.7-1.9,1.1-2.8c0.4-0.9,0.7-1.9,1.4-2.8c0.3-0.4,0.7-0.9,1.2-1.2
						c0.5-0.3,1-0.5,1.6-0.7c1.1-0.3,2.2-0.2,3.2-0.1c1,0.1,2,0.2,3,0.4c0.5,0.1,1,0.1,1.4,0.2c0.5,0.1,1,0.1,1.5,0.2
						c1,0.1,2,0.3,2.9,0.5c1,0.2,1.9,0.3,2.8,0.3l-0.9,0.8c0.1-1,0.2-2.1,0.2-3.1l0-3.2l0.6,0.7c-1.7-0.4-3.3-0.9-4.9-1.3
						c-0.8-0.2-1.6-0.4-2.4-0.6c-0.8-0.2-1.6-0.3-2.5-0.3c0.8-0.2,1.7-0.3,2.5-0.3c0.9,0,1.7,0.1,2.6,0.1c1.7,0.2,3.4,0.5,5,0.7
						l0.6,0.1l0.1,0.6c0.1,1.1,0.2,2.2,0.2,3.3c0,1.1,0.1,2.2-0.1,3.4l-0.1,0.8l-0.8,0c-1.1,0.1-2.2-0.1-3.2-0.2l-2.9-0.5
						c-0.5-0.1-0.9-0.1-1.4-0.2c-0.5-0.1-1-0.1-1.5-0.2c-1-0.2-1.9-0.4-2.9-0.5c-1-0.1-1.9-0.3-2.7-0.1c-0.9,0.1-1.6,0.5-2.2,1.1
						c-0.6,0.6-1.1,1.5-1.6,2.3C291.5,163.3,291,164.2,290.3,165z"/>
				</g>
				<g>
					<path class="st20" d="M329.6,165.2c0,0,0.1,0.5,0.2,1.5c0.1,0.9,0.3,2.2,0.7,3.8c0.1,0.8,0.3,1.6,0.5,2.5
						c0.2,0.9,0.5,1.8,0.7,2.7c0.3,0.9,0.6,1.9,0.9,2.8c0.3,1,0.7,1.9,1.1,2.9c0.4,0.9,0.8,1.9,1.3,2.8c0.4,0.9,0.9,1.8,1.4,2.6
						c0.5,0.8,1,1.6,1.5,2.4c0.5,0.7,1,1.4,1.5,2c0.5,0.6,0.9,1.2,1.3,1.7c0.4,0.5,0.8,0.9,1.1,1.3c0.6,0.7,1,1.1,1,1.1
						s-0.5-0.3-1.2-0.8c-0.4-0.3-0.9-0.6-1.4-1c-0.5-0.4-1.1-0.9-1.7-1.5c-0.3-0.3-0.6-0.6-0.9-0.9c-0.3-0.3-0.6-0.7-0.9-1
						c-0.6-0.7-1.2-1.5-1.8-2.3c-0.5-0.9-1.2-1.7-1.6-2.7c-0.5-0.9-1-1.9-1.4-2.9c-0.4-1-0.8-2-1.1-3.1c-0.3-1-0.5-2-0.8-3
						c-0.2-1-0.4-2-0.5-2.9c-0.1-0.9-0.2-1.8-0.2-2.6c-0.1-0.8,0-1.5,0-2.2c0-0.7,0-1.2,0.1-1.7
						C329.6,165.8,329.6,165.2,329.6,165.2z"/>
				</g>
				<g>
					<path class="st20" d="M289.5,208.4c0,0,0-0.1-0.1-0.3c0-0.2-0.1-0.5,0-0.8c0.1-0.7,0.5-1.4,1-2c0.5-0.6,1.3-1,1.9-1.1
						c0.6-0.1,1.1,0,1.1,0s0,0.1-0.1,0.3c-0.1,0.2-0.2,0.4-0.3,0.7c-0.3,0.5-0.7,1.1-1.1,1.5c-0.5,0.5-1,0.9-1.5,1.1
						c-0.1,0.1-0.2,0.1-0.3,0.2c-0.1,0.1-0.2,0.1-0.3,0.2C289.6,208.4,289.5,208.4,289.5,208.4z"/>
				</g>
				<g>
					<path class="st20" d="M296,202.2c0,0-0.1-0.4,0-0.8c0.1-0.4,0.3-0.8,0.6-1.1c0.3-0.3,0.7-0.4,1.2-0.5c0.4,0,0.8,0,0.8,0
						s0.1,0.4,0,0.8c-0.1,0.4-0.3,0.9-0.6,1.1c-0.3,0.3-0.8,0.4-1.2,0.5C296.4,202.3,296,202.2,296,202.2z"/>
				</g>
				<g>
					<path class="st20" d="M308.1,195.5c0,0,0-0.1,0-0.3c0-0.1,0-0.4,0.1-0.6c0.2-0.5,0.6-1,1.1-1.3c0.5-0.3,0.9-0.3,1.3-0.4
						c0.2,0,0.4,0,0.6,0c0.2,0,0.3,0,0.3,0s0.1,0.4-0.1,0.9c-0.2,0.5-0.6,1-1.1,1.2c-0.5,0.3-0.9,0.3-1.3,0.4c-0.2,0-0.4,0-0.6,0
						C308.3,195.5,308.1,195.5,308.1,195.5z"/>
				</g>
				<g>
					<path class="st20" d="M350.6,346.6c0,0,0.1,0.1,0.2,0.4c0.1,0.2,0.4,0.6,0.6,1.1c0.5,1,0.9,2.5,1.3,4.3
						c0.2,0.9,0.4,1.9,0.6,2.9c0.3,1,0.5,2.1,0.8,3.2c0.3,1.1,0.6,2.3,0.8,3.4c0.3,1.2,0.5,2.4,0.8,3.6c0.2,1.2,0.5,2.4,0.7,3.6
						c0.3,1.2,0.5,2.3,0.8,3.3c0.3,1,0.6,2.1,1.1,2.9c0.5,0.9,1,1.6,1.6,2.2c0.3,0.3,0.6,0.5,0.9,0.8c0.3,0.2,0.7,0.4,1,0.6
						c0.3,0.1,0.6,0.3,0.9,0.4c0.3,0.1,0.6,0.2,0.8,0.2c0.5,0.2,0.9,0.2,1.2,0.2c0.3,0,0.4,0.1,0.4,0.1s-0.2,0-0.4,0
						c-0.3,0-0.7,0.1-1.3,0.1c-0.3,0-0.6,0-0.9-0.1c-0.3-0.1-0.7-0.1-1.1-0.2c-0.4-0.1-0.8-0.3-1.2-0.4c-0.4-0.2-0.8-0.4-1.2-0.7
						c-0.8-0.6-1.5-1.4-2.1-2.3c-0.6-0.9-1.1-2-1.5-3.1c-0.4-1.1-0.7-2.3-1-3.5c-0.3-1.2-0.5-2.4-0.8-3.6c-0.2-1.2-0.5-2.4-0.7-3.6
						c-0.3-1.2-0.4-2.3-0.7-3.5c-0.2-1.1-0.4-2.2-0.6-3.3c-0.1-1.1-0.2-2.1-0.3-3c-0.2-1.8-0.3-3.3-0.6-4.3
						C350.8,347.2,350.6,346.6,350.6,346.6z"/>
				</g>
				<g>
					<path class="st20" d="M371.3,374.6c0,0,0.1,0.2,0.2,0.5c0.1,0.3,0.2,0.8,0.3,1.3c0.2,1.1,0.4,2.5,0.6,3.9
						c0.1,0.7,0.2,1.4,0.4,2c0.1,0.6,0.3,1.2,0.5,1.7c0.2,0.5,0.3,0.9,0.5,1.2c0.1,0.3,0.2,0.5,0.2,0.5s-0.2-0.1-0.5-0.2
						c-0.2-0.1-0.3-0.2-0.5-0.3c-0.2-0.1-0.4-0.3-0.6-0.6c-0.4-0.4-0.8-1-1.2-1.7c-0.2-0.3-0.3-0.7-0.4-1.1
						c-0.1-0.4-0.2-0.8-0.3-1.2c-0.2-1.6-0.1-3.1,0.2-4.2C370.9,375.3,371.3,374.6,371.3,374.6z"/>
				</g>
				<g>
					<path class="st20" d="M348.3,376.4c0,0,0.2,0.2,0.5,0.7c0.2,0.2,0.4,0.4,0.6,0.7c0.3,0.3,0.5,0.5,0.9,0.9
						c0.7,0.6,1.4,1.3,2.3,2c0.4,0.4,0.9,0.7,1.3,1.1c0.5,0.4,0.9,0.7,1.4,1c0.5,0.3,1,0.7,1.5,1c0.2,0.2,0.5,0.3,0.7,0.5
						c0.2,0.1,0.5,0.3,0.7,0.4c0.5,0.3,0.9,0.5,1.4,0.8c0.4,0.2,0.9,0.4,1.3,0.6c0.4,0.1,0.8,0.3,1.1,0.4c0.3,0.1,0.7,0.2,0.9,0.2
						c0.5,0.1,0.8,0.1,0.8,0.1s-0.3,0.1-0.8,0.3c-0.3,0.1-0.6,0.1-1,0.1c-0.4,0-0.8,0-1.3-0.1c-0.5-0.1-1-0.2-1.5-0.3
						c-0.5-0.2-1.1-0.3-1.6-0.6c-0.6-0.2-1.1-0.5-1.6-0.8c-0.6-0.3-1.1-0.7-1.6-1c-0.5-0.4-1-0.8-1.5-1.2c-0.5-0.4-0.9-0.8-1.3-1.3
						c-0.4-0.4-0.8-0.9-1.1-1.3c-0.3-0.4-0.6-0.9-0.9-1.3c-0.5-0.8-0.8-1.6-1-2.1C348.3,376.7,348.3,376.4,348.3,376.4z"/>
				</g>
				<path class="st23" d="M390.5,85.2c-21.3-23.3-9.6-23.8-17.3-33.6c-9.7-12.4-17.7,0-17.7,0c0.2-0.9,0.2-1.7,0-2.4
					c-0.2,0.4-0.3,0.8-0.5,1.2c-0.8,2.1-1.9,4.5-2.8,6.5c-0.9,2-1.5,3.8-3.1,5.5c-3.3,3.6-5.1,7.8-8,11.4c-0.9,1.1-2,1-1.7,2.8
					l-0.3-0.3c-0.2,0.8,0,1.8,0.1,2.5c1.7,0.2,3.8-3.6,4.6-4.8c1.4-2.1,2.8-3.4,4.6-4.9c1.7-1.4,4.1-3.3,5.4-5.3
					c1.7-2.6,0.6-5.2,1.3-8.1c1-4.4,6.9-8.8,11.6-6.5c4.9,2.4,3.7,10.4,3,14.6c-0.5,3.2-2.3,6.2,0.2,9.2c2.1,2.4,4.9,2,7.3,3.8
					c2.5,1.9,4.4,4.4,4.3,7.4c-0.1,4.3-2.6,5.4-5.4,7.8c1.5,0.9,3.7-0.1,4.9,0.9c-2.3,2.2-14.2,2.2-14.4,6.2
					c2.8,0.7,14.7-6.7,14.4-0.5c0,0.8-0.9,1.5-1.1,2.5c3.8,0.3,4.9,2,4.9,2c4.9-1.7,1.2-6.8,1.2-6.8
					C393.6,92.2,390.5,85.2,390.5,85.2z"/>
				<g class="st1">
					<path d="M227.1-45.9c0,0,0,0.3,0,0.7c0,0.2,0,0.5,0,0.8c0,0.3,0.1,0.6,0.1,1c0.1,0.3,0.1,0.7,0.2,1.1c0.1,0.4,0.2,0.8,0.3,1.1
						c0.1,0.4,0.3,0.8,0.5,1.1l0.3,0.6l0.4,0.6c0.5,0.7,1.1,1.5,1.7,2.2c0.6,0.7,1.1,1.4,1.5,2c0.4,0.6,0.7,1.2,0.9,1.6
						c0.2,0.4,0.3,0.7,0.3,0.7s-0.2-0.1-0.6-0.4c-0.3-0.3-0.8-0.6-1.4-1.1c-0.6-0.4-1.3-1-2-1.6c-0.3-0.3-0.7-0.6-1.1-1
						c-0.4-0.4-0.7-0.8-1-1.2l-0.4-0.7c-0.1-0.2-0.2-0.5-0.4-0.7c-0.2-0.5-0.4-1-0.5-1.5c-0.1-0.5-0.1-1-0.1-1.5
						c0-0.5,0.1-0.9,0.2-1.3c0.1-0.4,0.2-0.7,0.3-1c0.1-0.3,0.2-0.5,0.3-0.7C227-45.7,227.1-45.9,227.1-45.9z"/>
				</g>
				<g class="st1">
					<path d="M259.2-53.4c0,0,0,0.1,0.1,0.3c0.1,0.2,0.1,0.5,0.2,0.8c0.1,0.3,0.3,0.7,0.5,1.2c0.2,0.4,0.5,0.9,0.9,1.4
						c0.4,0.5,0.8,1,1.2,1.5c0.5,0.5,1,1,1.5,1.6c0.5,0.5,1.1,1,1.7,1.6c0.6,0.5,1.2,1.1,1.9,1.6c1.2,1.1,2.5,2.2,3.6,3.3
						c1.1,1,2.2,2,3.2,2.7c1,0.7,1.8,1.3,2.5,1.7c0.6,0.4,1,0.6,1,0.6s-0.1,0-0.3,0c-0.2,0-0.5-0.1-0.9-0.2
						c-0.7-0.2-1.8-0.5-2.9-1.1c-1.2-0.6-2.4-1.4-3.7-2.3c-0.6-0.5-1.3-1-1.9-1.5c-0.6-0.5-1.3-1.1-1.9-1.6
						c-0.6-0.6-1.2-1.1-1.9-1.7c-0.6-0.6-1.2-1.2-1.7-1.8c-0.5-0.6-1-1.2-1.4-1.8c-0.4-0.6-0.8-1.2-1.1-1.8
						c-0.3-0.6-0.5-1.2-0.6-1.7c-0.1-0.5-0.2-1-0.2-1.4c0-0.4,0-0.7,0-0.9C259.2-53.3,259.2-53.4,259.2-53.4z"/>
				</g>
				<g class="st1">
					<path d="M274-43.1c0,0,0.1,0.1,0.3,0.4c0.1,0.1,0.2,0.2,0.3,0.4c0.1,0.1,0.3,0.3,0.4,0.4c0.7,0.6,1.5,1.3,2.4,2
						c0.9,0.7,1.8,1.4,2.5,2c0.4,0.3,0.7,0.5,0.9,0.6c0.2,0.1,0.4,0.2,0.4,0.2s-0.2,0.1-0.5,0.2c-0.3,0.1-0.7,0.1-1.2,0
						c-0.5-0.1-1.1-0.2-1.7-0.5c-0.3-0.1-0.6-0.3-0.9-0.4c-0.3-0.2-0.5-0.4-0.8-0.5c-0.5-0.4-1-0.9-1.4-1.4
						c-0.4-0.5-0.7-1.1-0.8-1.6c-0.1-0.3-0.1-0.5-0.1-0.7c0-0.2,0-0.4,0-0.6C273.9-42.9,274-43.1,274-43.1z"/>
				</g>
				<g class="st1">
					<path d="M360.7-100.3c0.3,1.2,0.6,2.3,1,3.4c0.4,1.1,0.8,2.2,1.3,3.3l1.5,3.2c0.5,1.1,1,2.2,1.5,3.3l-0.7-0.6
						c0.3,0,0.6-0.1,1-0.4c0.4-0.2,0.7-0.6,1.1-1c0.7-0.8,1.3-1.8,1.8-2.8c0.6-1,1.1-2,1.5-3c0.2-0.5,0.4-1.1,0.6-1.6
						c0.2-0.5,0.4-1.1,0.5-1.6c0.1-0.5,0.3-1.1,0.4-1.7c0.1-0.6,0.2-1.1,0.3-1.7c0.2-1.1,0.3-2.3,0.4-3.4c0.2-2.3,0.4-4.7,0.7-7
						c0.3,2.3,0.5,4.7,0.5,7.1c0.1,2.4-0.1,4.8-0.6,7.1c-0.1,0.6-0.3,1.2-0.5,1.8c-0.2,0.6-0.4,1.1-0.6,1.7c-0.5,1.1-1,2.2-1.6,3.3
						c-0.6,1.1-1.3,2.1-2.1,3c-0.4,0.5-0.9,1-1.5,1.3c-0.6,0.4-1.4,0.7-2.3,0.5l-0.5-0.1l-0.2-0.5l-1.2-3.3
						c-0.4-1.1-0.8-2.3-1.2-3.4c-0.4-1.2-0.7-2.3-0.9-3.5C360.8-97.8,360.7-99,360.7-100.3z"/>
				</g>
				<path class="st24" d="M388-122.9c-4.9-10.5-11-13.1-16.9-11.9c1.6,1.3,3.4,2.5,4.1,3.4c4.7,5.9,8.8,15.3,10.7,22.7
					c0.9,3.2,1.6,7.8,0.4,11.1c-0.7,2.1-4.1,5.7-6.5,4.8c-2.4-0.9-2.5-6.9-2.8-8.8c-0.5-3-0.9-6.5-3.4-8.6
					c-2.1,5.9,2.2,16.6-5.9,19.1c-2.2-2.6-4.8-6.4-6.2-9.5c-2.8,6.6,3.9,15.9,8.1,20.8c0.6,0.7,1.3,1.4,2.1,2.2
					c2.2,0.5,4.1,0.7,4.1,0.7c35.1,9.7,24.7-11.6,24.7-11.6L388-122.9z"/>
				<g>
					<path class="st18" d="M371.8-80.6c0,0,0.8-0.1,2.2-0.1c0.7,0,1.5,0,2.5,0c1,0,2-0.1,3.2-0.3c1.1-0.3,2.2-0.8,3.3-1.5
						c1.1-0.7,2-1.7,3-2.8c1.9-2.2,3.4-4.9,4.1-7.9c0.1-0.4,0.2-0.7,0.3-1.1c0.1-0.4,0.1-0.7,0.2-1.1c0.1-0.8,0.2-1.5,0.2-2.3
						c0.1-1.5,0.1-3.1,0.1-4.6c0-1.5,0-2.9,0-4.3c0-1.3-0.1-2.6-0.3-3.7c-0.4-2.3-0.9-4.3-1.2-5.6c-0.4-1.4-0.6-2.1-0.6-2.1
						s0.4,0.7,1,2c0.6,1.3,1.4,3.1,2,5.5c0.3,1.2,0.6,2.5,0.6,3.9c0.1,1.4,0.2,2.8,0.3,4.3c0.1,1.5,0.1,3.1,0.1,4.7
						c0,0.8-0.1,1.6-0.2,2.4c0,0.4-0.1,0.8-0.2,1.3c-0.1,0.4-0.2,0.8-0.3,1.2c-0.4,1.6-1,3.2-1.8,4.7c-0.8,1.5-1.8,2.8-2.9,3.9
						c-1,1.1-2.3,2.2-3.5,2.9c-1.3,0.7-2.6,1.1-3.9,1.3c-1.3,0.2-2.4,0.1-3.4,0c-1-0.1-1.8-0.3-2.5-0.4
						C372.6-80.5,371.8-80.6,371.8-80.6z"/>
				</g>
				<g class="st7">
					<path class="st25" d="M347.1,32.7c-0.6,0.5-1,1.1-1.5,1.7c-0.5,0.6-1.1,1.2-1.6,1.7c-1.1,1-2.3,2.1-3.5,3l-0.5,0.4l-0.5,0.4
						c-0.3,0.2-0.7,0.5-1.1,0.7c-0.7,0.4-1.5,0.8-2.2,1.1c-1.5,0.6-3.1,1.1-4.8,1.3l0.2-2.9c2.3,0.6,4.9,0.7,7.6,1l0.5,0
						c0.1,0,0.3,0,0.5,0c0.3,0,0.6,0,0.9,0c0.6,0,1.3-0.1,1.9-0.2c0.6-0.1,1.3-0.2,1.9-0.4c0.6-0.2,1.2-0.4,1.7-0.9
						c-0.3,0.6-0.8,1.2-1.4,1.6c-0.6,0.4-1.2,0.7-1.9,1c-0.7,0.3-1.3,0.5-2,0.7c-0.4,0.1-0.7,0.2-1.1,0.2c-0.2,0-0.3,0-0.5,0.1
						l-0.5,0c-1.3,0.1-2.7,0.2-4.1,0.2c-1.4,0-2.9-0.2-4.3-0.5l-7.1-1.8l7.3-1.1c1.4-0.2,2.8-0.6,4.1-1c0.7-0.2,1.3-0.5,2-0.8
						c0.3-0.1,0.6-0.3,1-0.5l0.4-0.2l0.5-0.3c1.3-0.8,2.6-1.6,4-2.3c0.3-0.2,0.7-0.3,1-0.5l1-0.6C345.6,33.4,346.3,33,347.1,32.7z"
						/>
				</g>
				<path class="st26" d="M363.8-128.5c-1.3,2.2-3.9,4.2-5.4,6.5c-1.7,2.7-3.2,6.4-3.6,9.7c-0.4,3.6,0,7.6,1,10.9
					c0.7,2.4,1.9,6.4,4,8c-0.1-1.4-0.8-2.8-0.9-4.3c-0.1-1.7,0-3.5,0-5.3c0-3.3-0.8-8.2,1-11.1c0.3,3,2.7,6.6,4.3,9.5
					c2,3.5,3.3,6.3,3.6,10.2c4.6-5.6,3.7-16.2,0.9-22.3c0,1.9,0.2,9.1-1.9,9.6c-1.5-3.3-4.1-6.5-4.7-10.3c-0.6-3.7,0.5-7.7,1.6-11"
					/>
				<g class="st1">
					<path class="st18" d="M281.1-22.8c0,0,0.1,0.2,0.3,0.6c0.2,0.4,0.5,0.9,0.7,1.7c0.3,0.7,0.6,1.6,1,2.7c0.3,1.1,0.7,2.3,1,3.6
						c0.3,1.3,0.6,2.8,0.8,4.3c0.2,1.5,0.4,3.2,0.5,4.9c0.1,1.7,0.2,3.4,0.2,5.3c0,1.8-0.3,3.8-0.8,5.6c-0.3,0.9-0.6,1.8-1.1,2.7
						c-0.4,0.9-0.9,1.6-1.2,2.3l-0.1,0.1c0,0,0,0.1,0,0l0,0.1c0,0.1-0.1,0.2-0.1,0.2c0,0.1,0,0.2,0,0.3c0,0.2,0,0.4,0.1,0.6
						c0.2,0.5,0.7,1.3,1.2,1.9c0.9,1.2,2,2.1,3.3,2.9c1.2,0.8,2.5,1.5,3.6,2c1.2,0.5,2.2,0.9,3.3,1.2c1,0.2,2,0.4,2.7,0.5
						c0.8,0.1,1.4,0.1,1.7-0.1c0.4-0.1,0.5-0.3,0.5-0.3c0,0-0.1,0.2-0.5,0.5c-0.4,0.2-1,0.4-1.8,0.5c-0.8,0.1-1.8,0.1-2.9,0
						c-1.1,0-2.4-0.3-3.8-0.7c-1.3-0.4-2.7-0.9-4.1-1.7c-1.4-0.7-2.9-1.7-4.2-3.2c-0.6-0.7-1.1-1.3-1.7-2.4
						c-0.3-0.5-0.5-1.2-0.5-1.9c0-0.4,0-0.6,0.1-1c0.1-0.2,0.1-0.3,0.1-0.4l0.1-0.2l0.1-0.2c0.4-0.9,0.8-1.7,1.2-2.5
						c0.3-0.7,0.6-1.5,0.9-2.3c0.5-1.6,0.7-3.2,0.8-4.9c0.1-1.7,0.1-3.4,0.1-5.1c0-1.7,0-3.2-0.1-4.8c-0.1-1.5-0.1-2.9-0.3-4.3
						c-0.2-2.6-0.5-4.8-0.8-6.4c-0.1-0.8-0.2-1.4-0.3-1.8C281.1-22.5,281.1-22.8,281.1-22.8z"/>
				</g>
				<path d="M282.1-12.2c-0.8,0.5-0.5,3.1,0.1,3.7c1.1,1.1,2.5-0.2,3.6-1.1c2.3-1.9,4.4-3.3,7.6-3.1c1.7,0.1,3,0.9,4.5,1.5
					c1,0.4,3,1.6,3,0.1c0-1.8-3.8-4.4-5.1-5.1c-2.6-1.3-6.1-1.2-8.6-0.1c-1.5,0.7-4.2,2.3-5,3.8"/>
				<path class="st10" d="M282.1-10.6c-0.8,0.5-0.5,3.1,0.1,3.7c1.1,1.1,2.5-0.2,3.6-1.1c2.3-1.9,4.4-3.3,7.6-3.1
					c1.7,0.1,3,0.9,4.5,1.5c1,0.4,3,1.6,3,0.1c0-1.8-3.8-4.4-5.1-5.1c-2.6-1.3-6.1-1.2-8.6-0.1c-1.5,0.7-4.2,2.3-5,3.8"/>
				<path class="st10" d="M254.7-22.1c0.7,0.1,1.6-1.2,2.1-1.7c0.7-0.7,1.8-1.5,2.7-1.7c2.6-0.5,4.1,1.4,6.3,2.3
					c1.8,0.8,4.4,2,5.5-0.2c0.7-1.5,0.6-4.5,0.1-6.2c-1.5-4.8-7.4-7-11.9-4.8c-2.7,1.3-4,3.7-4.9,6.4c-0.5,1.5-1.8,5,0.4,5.6"/>
				<path class="st10" d="M363.8-76c0,0-5.5-20.8-30.8-17.4c0,0-61.1-1.6-109.2,44.8c0,0-14,14.4,17.9,25l-4.9-5.6
					c0,0,57.7-0.5,62.4-7.4c0,0-15-8.3-15.6-17.3C283-59.9,294-40.9,307.3-37c0,0,9.4-2.6,9.9-4.4c0.5-1.8-6.3-5.8-10.1-14.7
					c-3.2-7.6,12.7,14,17.1,13.2c4.4-0.8,1.8-2.1,1.8-2.1s-11.8-16.3-9.3-19.4c2.3-2.8,20.4-9.3,25.9-4.4
					c5.4,4.9,19.9,27.8,22.7,43.1c2.3,12.6,8.4,6.5,9.5,5c3.8-5.3,9.5-12,10.8-14.3s0.1-8.1-3.2-15.2
					C382.3-50.2,371.8-82.9,363.8-76z"/>
				<path class="st14" d="M364.8-81.6c0,0-9.8-16.6-35.2-13.2c0,0-61.1-1.6-109.2,44.8c0,0-10.6,15.8,21.2,26.4l-4.9-6
					c0,0,54.3-1.6,59-8.5c0,0-15-8.3-15.6-17.3c-0.4-5.8,10.5,13.2,23.8,17.1c0,0,9.4-2.6,9.9-4.4c0.5-1.8-6.3-5.8-10.1-14.7
					c-3.2-7.6,12.7,14,17.1,13.2c4.4-0.8,1.8-2.1,1.8-2.1s-11.8-16.3-9.3-19.4c2.3-2.8,20.4-9.3,25.9-4.4
					c5.4,4.9,27.9,50.7,30.8,66.1c2.3,12.6,8.3-6.9,9.4-8.4c3.8-5.3,10.4-16.1,11.7-18.4s1.4-9.6-6.3-25.6
					C384.7-56.5,372.8-88.6,364.8-81.6z"/>
				<g>
					<g class="st1">
						<path d="M353.9-82.9l0.4-0.4c0.1-0.1,0.3-0.2,0.5-0.3c0.2-0.1,0.4-0.2,0.6-0.2c0.2-0.1,0.4,0,0.7,0c0.2,0,0.5,0.1,0.7,0.2
							c0.2,0.1,0.4,0.2,0.6,0.4c0.2,0.1,0.4,0.3,0.5,0.5c0.1,0.2,0.3,0.3,0.4,0.5c0.5,0.7,0.8,1.5,1.1,2.2c0.2,0.8,0.4,1.6,0.5,2.4
							l-1.5-0.8c0.6-0.4,1.3-1.1,2.2-1.7c0.4-0.3,1-0.6,1.6-0.7c0.3-0.1,0.6-0.1,1,0c0.3,0,0.6,0.1,1,0.3c0.1,0.1,0.6,0.4,0.8,0.5
							c0.2,0.2,0.4,0.4,0.5,0.7c0.3,0.5,0.5,0.9,0.6,1.4c0.3,1,0.4,2,0.2,2.9c-0.2-0.5-0.3-0.9-0.6-1.3c-0.2-0.4-0.4-0.8-0.7-1.2
							c-0.2-0.4-0.5-0.7-0.8-1c-0.1-0.1-0.3-0.3-0.4-0.4c-0.2-0.1-0.1-0.1-0.4-0.2c-0.1,0-0.3-0.1-0.4,0c-0.1,0-0.3,0-0.4,0.1
							c-0.3,0.1-0.6,0.3-0.9,0.5c-0.7,0.5-1.3,1.2-2.3,1.8l-1.4,0.8l-0.1-1.6c-0.1-0.7-0.1-1.4-0.3-2.1c-0.1-0.3-0.2-0.7-0.2-1
							c-0.1-0.3-0.2-0.6-0.3-0.9c-0.1-0.2-0.2-0.3-0.2-0.4c-0.1-0.1-0.2-0.3-0.3-0.4c-0.1-0.1-0.2-0.2-0.3-0.3
							c-0.1-0.1-0.2-0.2-0.4-0.2c-0.1,0-0.3-0.1-0.4-0.1c-0.2,0-0.3,0-0.5,0c-0.2,0-0.4,0-0.5,0.1L353.9-82.9z"/>
					</g>
					<g class="st1">
						<path class="st18" d="M367.3-82.3c1.8,0.7,5.2,7.1-3.6,2.3c-1.3-0.7-4.8,2.3-4.6,3.8c5.3,5.1,12.9,14.9,14.5,22.1
							c2,9.6-4.2,14.6-12.2,8.8c-5.8-4.2-9.9-9.3-13.6-15.5c-3.9-6.6-8-10-12.3-11c-2.9-0.6-22.9,2.2-24.1,9.3
							c-0.9,5.4,2.3,7.3,5.5,11.1c1.6,1.8,4.7,4,6.1,6.6c0.9-0.7-0.4-1.3-0.4-1.3s-11.8-16.3-9.3-19.4c2.3-2.8,20.4-9.3,25.9-4.4
							c5.4,4.9,28,50.7,30.8,66.1c2.3,12.6,8.3-6.9,9.4-8.4c3.8-5.3,10.4-16.1,11.7-18.4s1.4-9.6-6.3-25.6
							C384.7-56.2,375.1-82.2,367.3-82.3z"/>
						<path class="st18" d="M312.7-49.8c-2.2-2.5-8.2-10.2-11.3-9.6c-1.3,5.5,4.5,10.6,7.5,14.8c0.7,1,1.9,2.3,2.8,3.7
							c1.1-0.5,1.9-1.1,2.1-1.6c0.5-1.8-6.3-5.8-10.1-14.7C301.7-62,307.2-55.3,312.7-49.8z"/>
						<path class="st18" d="M235.6-33.2c-2.5-2.2-7.5-10.7-10.7-10.7c0.1,4.4,3.2,9.8,4.6,13.9c0.2,0.6,0.4,1.1,0.6,1.6
							c3,1.7,6.8,3.4,11.5,5l-4.9-6c0,0,1.7,0,4.4-0.2C239.3-30.3,237.5-31.5,235.6-33.2z"/>
						<path class="st18" d="M273.2-37.6c-4.6-2.2-7.5-4.6-10.8-8.2c-2.1-2.3-4.9-6.1-7.5-7.1c-1.3,9.7,2,16.3,8,22.1
							c7.3-0.6,14.8-1.5,20.9-2.6C280.2-34.4,276.7-35.9,273.2-37.6z"/>
						<path class="st18" d="M295.7-37.8c0,0-14.1-7.9-15.5-16.6c-0.5-0.4-1-0.8-1.5-1.1c-3.4,3.9,6.7,15,11.7,20.6
							C293.1-35.8,295-36.8,295.7-37.8z"/>
						<path class="st18" d="M250.7-32.9c-2.4-1.6-6.6-8.3-8.5-8.4c1,3.6,2.8,8.4,5.5,11.5c2.3-0.1,4.8-0.3,7.4-0.4
							C253.7-30.9,252.3-31.8,250.7-32.9z"/>
					</g>
					<g>
						<path class="st18" d="M295.6-74.1c0,0-0.1,0.1-0.3,0.4c-0.2,0.3-0.4,0.6-0.6,1.1c-0.4,1-0.8,2.5-0.9,4.4c-0.1,0.9-0.1,2-0.1,3
							c0,0.6,0,1.1,0.1,1.7c0.1,0.5,0.1,1.1,0.2,1.7c0.3,2.3,1.2,4.5,2.5,6.7c0.2,0.3,0.3,0.6,0.4,0.8l0.5,0.8c0.3,0.5,0.6,1,1,1.5
							c0.7,1,1.5,1.9,2.3,2.8c1.6,1.7,3.3,3.1,4.8,4.2c1.5,1.1,2.9,2,3.8,2.6c0.5,0.3,0.9,0.5,1.1,0.7c0.2,0.2,0.3,0.3,0.3,0.3
							s-0.1-0.1-0.4-0.2c-0.2-0.1-0.7-0.2-1.2-0.4c-1.1-0.4-2.6-1-4.3-2c-0.9-0.5-1.8-1-2.7-1.7c-0.9-0.7-1.9-1.4-2.8-2.3
							c-0.9-0.9-1.8-1.8-2.6-2.8c-0.4-0.5-0.8-1.1-1.2-1.6l-0.5-0.8c-0.2-0.3-0.3-0.6-0.5-0.9c-0.6-1.2-1.2-2.4-1.7-3.6
							c-0.5-1.3-0.7-2.6-0.8-3.8c-0.1-0.6-0.1-1.3-0.1-1.9c0-0.6,0-1.2,0.1-1.7c0.1-1.1,0.2-2.2,0.4-3.2c0.4-1.9,1-3.5,1.7-4.5
							c0.3-0.5,0.6-0.8,0.9-1C295.5-74,295.6-74.1,295.6-74.1z"/>
					</g>
					<g>
						<path class="st18" d="M278.3-46.7c0,0,0,0.1,0.1,0.2c0,0.1,0,0.1,0.1,0.2c0,0.1,0.1,0.2,0.2,0.2c0.1,0.2,0.3,0.4,0.5,0.6
							c0.2,0.2,0.4,0.5,0.7,0.8c0.3,0.3,0.6,0.6,0.9,0.9c0.3,0.3,0.6,0.6,1,0.9c0.7,0.6,1.4,1.3,2.2,2c0.4,0.3,0.7,0.7,1.1,1
							c0.2,0.2,0.4,0.3,0.5,0.5c0.2,0.2,0.3,0.3,0.5,0.4c0.7,0.6,1.4,1.1,2.1,1.5c0.6,0.5,1.2,0.9,1.5,1.2c0.3,0.3,0.5,0.5,0.5,0.5
							s-0.3-0.1-0.7-0.2c-0.4-0.1-1.1-0.3-1.8-0.5c-0.7-0.2-1.6-0.6-2.5-1.1c-0.2-0.1-0.5-0.3-0.7-0.4l-0.3-0.2l-0.3-0.3
							c-0.4-0.3-0.8-0.7-1.2-1c-0.8-0.7-1.5-1.5-2.1-2.3c-0.3-0.4-0.6-0.8-0.8-1.2c-0.3-0.4-0.5-0.8-0.7-1.1c-0.2-0.4-0.3-0.7-0.4-1
							c-0.1-0.3-0.2-0.6-0.2-0.9c0-0.3,0-0.4,0.1-0.6C278.2-46.6,278.3-46.7,278.3-46.7z"/>
					</g>
					<g>
						<path class="st18" d="M226.5-47.7c0,0,0.1,0.4,0.2,1c0.1,0.6,0.2,1.5,0.4,2.5c0.1,0.5,0.2,1,0.4,1.6c0.1,0.3,0.2,0.5,0.3,0.8
							c0.1,0.3,0.2,0.6,0.4,0.9c0.2,0.6,0.5,1.2,0.8,1.8c0.3,0.6,0.6,1.2,0.9,1.8c0.3,0.7,0.6,1.2,1,1.8c0.4,0.6,0.7,1.1,1.1,1.6
							c0.4,0.5,0.8,0.9,1.2,1.3c0.4,0.4,0.8,0.8,1.2,1.1c0.8,0.6,1.6,1.1,2.1,1.3c0.6,0.3,0.9,0.5,0.9,0.5s-0.1,0-0.3,0
							c-0.2,0-0.4,0-0.7-0.1c-0.6-0.1-1.5-0.3-2.6-0.7c-0.5-0.2-1.1-0.5-1.6-0.9c-0.5-0.4-1.1-0.8-1.6-1.3c-0.5-0.5-1-1.1-1.4-1.7
							c-0.4-0.6-0.8-1.3-1.1-1.9c-0.7-1.3-1.2-2.7-1.6-4c-0.1-0.3-0.2-0.7-0.3-1c-0.1-0.3-0.1-0.6-0.2-1c-0.1-0.6-0.1-1.3-0.1-1.8
							c0-1.1,0.3-2,0.4-2.6C226.4-47.4,226.5-47.7,226.5-47.7z"/>
					</g>
					<g>
						<path class="st18" d="M255.8-57.7c0,0,0.1,0.6,0.3,1.6c0.1,0.5,0.2,1.1,0.4,1.8c0.2,0.7,0.4,1.5,0.6,2.3
							c0.3,0.8,0.6,1.7,1,2.7c0.2,0.5,0.4,0.9,0.6,1.4c0.2,0.5,0.5,1,0.7,1.4c0.5,1,1.2,1.9,1.8,2.8c0.7,0.9,1.4,1.8,2.3,2.5
							c0.8,0.8,1.7,1.4,2.7,2.1c1,0.6,2,1.2,2.9,1.8c1,0.5,1.9,1.1,2.8,1.5c0.9,0.4,1.8,0.7,2.6,1c1.7,0.4,3.2,0.6,4.2,0.9
							c0.5,0.1,0.9,0.3,1.2,0.4c0.3,0.1,0.4,0.2,0.4,0.2s-0.6-0.1-1.6-0.2c-0.5,0-1.2,0-1.9,0c-0.7,0-1.6,0-2.5-0.1
							c-0.9-0.1-1.9-0.4-2.9-0.7c-1-0.3-2-0.8-3.1-1.3c-1-0.5-2.1-1.1-3.1-1.7c-1-0.6-2.1-1.4-3-2.2c-0.9-0.9-1.7-1.8-2.5-2.8
							c-0.7-1-1.3-2.1-1.8-3.1c-0.5-1-0.9-2.1-1.2-3.1c-0.3-1-0.5-2-0.7-2.9c-0.2-0.9-0.2-1.7-0.3-2.5c-0.1-0.7,0-1.4,0-1.9
							c0-0.5,0.1-0.9,0.1-1.2C255.7-57.5,255.8-57.7,255.8-57.7z"/>
					</g>
				</g>
				<path class="st26" d="M227.6-51.7c-1.4,2.3-0.1,6.5,1.3,8.5c2.1,3.1,4.9,5.6,8.2,6.8c-0.7-2-1.2-4.3-1-6.5
					c0.1-1.5,0.5-4.9,1.6-5.9c1.1,2.6,5,6.6,7.8,7.2c-1.9-3.6,0-9.1,2.2-12.7c1.9-3.1,3.1-6.4,6.6-7.3c1.1,2,1.6,4.7,2.7,6.8
					c1,2.1,2.4,3.7,3.9,5.5c3.3,3.9,9.4,8.5,14.6,8.4c0.2-1.8-1.7-4.9-2.2-6.7c-0.6-2.3-1.1-4.5-1.1-6.9c0-4-0.4-9.9,3.3-12.2
					c1.2,1.1,1.2,3.8,2.4,5.3c1,1.4,2.8,2.5,4,3.7c3,2.8,7.3,3.3,10.2,5.8c-2.2-5.1-5.1-11.2-4.3-16.9c0.4-2.6,1.8-4.3,3.6-6.2
					c1.9-1.9,3.1-3.5,5.3-4.8c-1.6,6.4,2.4,15,8.6,18c-1.5-3.9-1-8.3,0.7-12.1c0.7-1.6,1.7-3.2,2.7-4.6c0.8-1.2,2-2.3,2.6-3.6
					c-2.3-0.2-5.2,1.8-6.6,3.4c-1.1,1.2-3.1,6.7-4.4,6.5c-0.7-3.3-0.1-6.8-0.2-10.2c-3.8-0.5-8.8,1.7-11.9,3.7
					c-4.5,3-7.1,7.2-10,11.5c-0.3-1.8-1.1-5.1-1.6-6.9c-4.6,3.3-8.9,6.3-11.4,11.9c-0.4,0.9-1.1,2.1-1.3,3.1c-0.2,0.7-0.1,3.5-0.7,4
					c-1.2,1-3.2-2.6-3.9-3.8c-1-1.7-1.5-4.1-2.6-5.6c-0.8-1.1-0.7-1.1-2.4-0.6c-1.4,0.4-3.3,1-4.4,1.9c-1.9,1.4-3.5,3.6-5,5.3
					c-1.1,1.2-2.7,2.7-3.3,4.2c-0.2-2.2-1.5-6.1-0.9-8c-3-0.2-4.7,3.6-6.2,6.7c-0.7,1.5-1.1,4-1.7,5.6c-0.5,1.4-0.2,3.3-1.3,4.4
					c-2.1-1.8-2.9-4.2-3.7-6.6"/>
				<path class="st19" d="M270.2-26.8c-1.1,0.5-3.4,0.1-4.6-0.3c-1.5-0.6-2.8-0.9-4.6-0.8c-2.7,0.1-4.3,2.3-5.6,4.5
					c-0.5,0.9-0.9,2.7-1.8,3.2c-1.7,1-1.3-1.8-1.3-2.9c0-3.3-0.1-7.6,2.5-10.1c2.9-2.8,8.7-2.2,11.9-0.2c1.1,0.7,2.1,1.9,2.9,2.9
					c0.5,0.6,2.4,3.8,0.3,3.7"/>
				<g class="st27">
					<path class="st2" d="M240.8,1.7c0,0-0.5-0.2-1.3-0.4c-0.4-0.1-1-0.3-1.5-0.6c-0.5-0.4-1-0.9-1.5-1.6c-0.1-0.2-0.2-0.4-0.3-0.6
						c0-0.1,0-0.1,0-0.2c0-0.1,0,0,0-0.2l0-0.1l0-0.1l0.1-0.2c0.3-0.4,0.7-0.7,1-1c0.7-0.5,1.6-1,2.4-1.4c0.4-0.2,0.9-0.4,1.2-0.7
						c0.4-0.3,0.8-0.6,1.2-0.9c0.8-0.6,1.6-1.3,2.4-1.8c1.7-1.2,3.5-2.2,5.4-2.9c0.9-0.4,1.8-0.6,2.6-0.8c0.8-0.3,1.6-0.5,2.4-0.7
						c0.8-0.2,1.5-0.2,2.1-0.3c0.6-0.1,1.2-0.1,1.6-0.2c0.9-0.1,1.4-0.3,1.4-0.3s-0.5,0.2-1.3,0.4c-0.9,0.2-2.1,0.4-3.6,0.8
						c-0.7,0.2-1.5,0.5-2.3,0.8c-0.8,0.3-1.7,0.6-2.6,0.9c-1.7,0.7-3.5,1.7-5.1,2.9c-0.8,0.6-1.6,1.2-2.4,1.8
						c-0.4,0.3-0.8,0.6-1.2,0.9c-0.5,0.3-0.9,0.5-1.3,0.7c-0.9,0.4-1.7,0.8-2.4,1.2c-0.3,0.2-0.7,0.5-0.9,0.7L236.9-2l-0.1,0.1
						l0,0.1c0-0.1,0,0,0,0c0,0,0,0,0,0.1c0,0.1,0.1,0.3,0.2,0.5c0.3,0.6,0.8,1.2,1.2,1.6c0.4,0.4,1,0.6,1.4,0.7
						C240.4,1.4,240.8,1.7,240.8,1.7z"/>
				</g>
				<g class="st28">
					<path class="st2" d="M282.4-12c0,0,0.2-0.2,0.5-0.5c0.3-0.3,0.7-0.8,1.2-1.4c0.3-0.3,0.6-0.6,0.9-0.8c0.4-0.3,0.7-0.5,1.2-0.8
						c0.4-0.2,0.9-0.5,1.4-0.6c0.2-0.1,0.5-0.2,0.7-0.3c0.2-0.1,0.5-0.2,0.8-0.2c1-0.2,2.1-0.3,3-0.2c1,0.1,1.9,0.2,2.6,0.5
						c0.4,0.1,0.7,0.3,1,0.5c0.3,0.2,0.5,0.3,0.7,0.5c0.2,0.1,0.3,0.3,0.4,0.4c0.1,0.1,0.1,0.1,0.1,0.1s-0.2-0.2-0.6-0.4
						c-0.2-0.1-0.4-0.2-0.7-0.3c-0.3-0.1-0.6-0.2-1-0.3c-1.4-0.3-3.4-0.3-5.3,0.1c-0.2,0-0.4,0.1-0.7,0.2c-0.3,0.1-0.5,0.1-0.7,0.2
						c-0.4,0.2-0.9,0.3-1.3,0.5c-0.4,0.2-0.8,0.4-1.2,0.6c-0.4,0.2-0.7,0.4-1,0.6c-0.6,0.4-1.1,0.8-1.5,1.1
						C282.6-12.1,282.4-12,282.4-12z"/>
				</g>
				<g class="st28">
					<path class="st2" d="M301-13.5c0,0,0.1-0.2,0.2-0.7c0.2-0.4,0.4-1,0.8-1.6c0.4-0.6,1-1.4,1.6-2c0.7-0.7,1.5-1.3,2.3-1.9
						c0.8-0.6,1.6-1.2,2.4-1.7c0.9-0.5,1.7-0.8,2.4-1c0.7-0.2,1.3-0.4,1.7-0.5c0.4-0.1,0.7-0.2,0.7-0.2s-0.2,0.1-0.6,0.4
						c-0.4,0.2-0.9,0.5-1.6,0.9c-0.6,0.4-1.4,0.8-2.2,1.3c-0.7,0.5-1.5,1.1-2.3,1.7c-0.8,0.6-1.6,1.2-2.3,1.8
						c-0.7,0.6-1.3,1.2-1.8,1.8c-0.5,0.6-0.9,1-1.1,1.4C301.1-13.7,301-13.5,301-13.5z"/>
				</g>
			</g>
		</g>
		<g>
			<path class="st29" d="M386.4,24.6L386.4,24.6c0.1-0.7,0.4-1.4,0.8-2.1c1.5-2.3,4.7-2.9,7-1.3c1.4,0.9,2.2,2.5,2.2,4
				c1.5-0.6,3.2-0.4,4.6,0.5c2.3,1.5,2.9,4.7,1.3,7c-0.8,1.1-1.9,1.8-3.1,2.1c-1.8,0.6-5.1,1.2-9.1-0.3c-3.1-3.6-3.6-7.2-3.7-8.9
				c0-0.3,0-0.6,0-0.9C386.4,24.7,386.4,24.6,386.4,24.6z"/>
			<path class="st29" d="M324.3,50.3L324.3,50.3c-0.1-0.3,0-0.7,0.1-1c0.4-1.2,1.6-1.9,2.9-1.5c0.7,0.2,1.3,0.8,1.5,1.5
				c0.6-0.4,1.3-0.6,2.1-0.4c1.2,0.4,1.9,1.6,1.5,2.9c-0.2,0.6-0.6,1.1-1.1,1.3c-0.7,0.5-2,1.2-4,1.1c-1.9-1.1-2.6-2.6-2.8-3.4
				C324.4,50.7,324.4,50.5,324.3,50.3C324.3,50.4,324.3,50.3,324.3,50.3z"/>
			<path class="st29" d="M349.2,46.2L349.2,46.2c-0.1-0.5-0.1-1.1,0.1-1.6c0.6-1.9,2.6-3,4.5-2.4c1.2,0.3,2,1.2,2.4,2.3
				c0.9-0.7,2.1-1,3.3-0.6c1.9,0.6,3,2.6,2.4,4.5c-0.3,0.9-0.9,1.7-1.7,2.1c-1.1,0.8-3.2,1.9-6.4,1.8c-2.9-1.8-4.1-4.2-4.5-5.3
				C349.3,46.7,349.3,46.5,349.2,46.2C349.2,46.3,349.2,46.2,349.2,46.2z"/>
			<path class="st29" d="M416.8,21.1L416.8,21.1c0-1,0.3-2,0.8-2.9c1.8-3.3,5.9-4.5,9.1-2.7c2,1.1,3.2,3,3.5,5.1
				c1.9-0.9,4.2-1,6.2,0.1c3.3,1.8,4.5,5.9,2.7,9.1c-0.9,1.6-2.3,2.7-3.9,3.2c-2.3,1-6.6,2.2-12.3,0.8c-4.7-4.4-5.8-9.2-6.1-11.4
				c-0.1-0.4-0.1-0.8-0.1-1.2C416.8,21.1,416.8,21.1,416.8,21.1z"/>
			<path class="st29" d="M381.3,51.6L381.3,51.6c-0.3-0.5-0.5-1-0.6-1.6c-0.3-2,1.1-3.9,3.2-4.2c1.2-0.2,2.4,0.3,3.2,1.1
				c0.5-1,1.5-1.8,2.8-2c2-0.3,3.9,1.1,4.2,3.2c0.1,1-0.1,1.9-0.7,2.7c-0.7,1.2-2.2,3.2-5.2,4.4c-3.5-0.4-5.6-2.1-6.5-3.1
				C381.7,52.1,381.5,51.9,381.3,51.6C381.4,51.7,381.3,51.6,381.3,51.6z"/>
			<path class="st29" d="M430.7-28.7L430.7-28.7c-0.2-1.4-0.2-2.9,0.3-4.3c1.5-5.1,6.9-8,12-6.5c3.1,0.9,5.4,3.3,6.4,6.1
				c2.4-1.9,5.6-2.6,8.7-1.7c5.1,1.5,8,6.9,6.5,12c-0.7,2.5-2.4,4.4-4.4,5.6c-2.9,2.1-8.6,5.1-16.9,4.8
				c-7.8-4.7-10.8-11.1-11.9-14.2c-0.2-0.5-0.4-1.1-0.5-1.7C430.8-28.7,430.7-28.7,430.7-28.7z"/>
		</g>
	</g>
</g>
</svg>
