<?xml version="1.0" encoding="utf-8"?>
<!-- Generator: Adobe Illustrator 19.1.0, SVG Export Plug-In . SVG Version: 6.00 Build 0)  -->
<svg version="1.1" id="Layer_1" xmlns="http://www.w3.org/2000/svg" xmlns:xlink="http://www.w3.org/1999/xlink" x="0px" y="0px"
	 viewBox="0 0 400 85.3" style="enable-background:new 0 0 400 85.3;" xml:space="preserve">
<style type="text/css">
	.st0{fill:#FFFFFF;}
</style>
<g>
	<g>
		<path class="st0" d="M285.6,51.4L304.1,5h21.6l-32.6,76.4h-15.4L245.5,5h21.6L285.6,51.4z"/>
		<path class="st0" d="M356.5,35L338,81.4h-21.6L349,5h15.4l32.1,76.4H375L356.5,35z"/>
		<rect x="211.3" y="5" class="st0" width="18.4" height="76.4"/>
		<rect x="5.4" y="5" class="st0" width="18.5" height="76.4"/>
		<path class="st0" d="M46.9,5h19.9l36.4,46.7h0.2V5h19.9v76.4h-19.9L67,34.6h-0.2v46.8H46.9V5z"/>
		<path class="st0" d="M176.8,81.4h-19.9V21.8h-16.4V5h52.7v16.8h-16.4V81.4z"/>
	</g>
</g>
</svg>
