<?xml version="1.0" encoding="utf-8"?>
<!-- Generator: Adobe Illustrator 19.1.0, SVG Export Plug-In . SVG Version: 6.00 Build 0)  -->
<svg version="1.1" id="Layer_1" xmlns="http://www.w3.org/2000/svg" xmlns:xlink="http://www.w3.org/1999/xlink" x="0px" y="0px"
	 viewBox="0 0 434.3 215.3" style="enable-background:new 0 0 434.3 215.3;" xml:space="preserve">
<style type="text/css">
	.st0{fill:url(#SVGID_1_);}
	.st1{fill:#FFFFFF;}
	.st2{fill:#5D5D5D;}
	.st3{fill:#58595B;}
	.st4{fill:url(#SVGID_2_);}
	.st5{fill:url(#SVGID_3_);}
</style>
<g>
	
		<linearGradient id="SVGID_1_" gradientUnits="userSpaceOnUse" x1="268.0283" y1="-16189.3896" x2="268.0283" y2="-16361.0156" gradientTransform="matrix(1 0 0 -1 0 -16168)">
		<stop  offset="0" style="stop-color:#81CAE3"/>
		<stop  offset="0.2941" style="stop-color:#ACD7DC"/>
		<stop  offset="0.5884" style="stop-color:#CFE3D6"/>
		<stop  offset="0.829" style="stop-color:#E5E9D2"/>
		<stop  offset="0.9839" style="stop-color:#EDECD1"/>
	</linearGradient>
	<rect x="106.1" y="21.4" class="st0" width="323.9" height="171.6"/>
	<g>
		<rect x="105.4" y="5.1" class="st1" width="325.2" height="15.7"/>
	</g>
	<g>
		<rect x="105.4" y="193.7" class="st1" width="325.2" height="16"/>
	</g>
	<g>
		<circle class="st2" cx="268" cy="13.4" r="2.8"/>
	</g>
	<g>
		<g>
			<path class="st3" d="M431.3,210.3H104.8V4.4h326.5V210.3z M106.1,209H430V5.7H106.1V209z"/>
		</g>
		<g>
			<rect x="105.4" y="20.1" class="st3" width="325.2" height="1.3"/>
		</g>
		<g>
			<rect x="105.4" y="193" class="st3" width="325.2" height="1.3"/>
		</g>
	</g>
	<g>
		<rect x="53.9" y="35" class="st1" width="107" height="11.1"/>
	</g>
	
		<linearGradient id="SVGID_2_" gradientUnits="userSpaceOnUse" x1="107.4009" y1="-16214.708" x2="107.4009" y2="-16335.7861" gradientTransform="matrix(1 0 0 -1 0 -16168)">
		<stop  offset="0" style="stop-color:#81CAE3"/>
		<stop  offset="0.2941" style="stop-color:#ACD7DC"/>
		<stop  offset="0.5884" style="stop-color:#CFE3D6"/>
		<stop  offset="0.829" style="stop-color:#E5E9D2"/>
		<stop  offset="0.9839" style="stop-color:#EDECD1"/>
	</linearGradient>
	<rect x="54.6" y="46.7" class="st4" width="105.7" height="121.1"/>
	<g>
		<rect x="53.9" y="168.4" class="st1" width="107" height="11.3"/>
	</g>
	<g>
		<circle class="st2" cx="107.4" cy="40.9" r="2"/>
	</g>
	<g>
		<g>
			<path class="st3" d="M161.5,180.4H53.3v-146h108.3V180.4z M54.6,179.1h105.7V35.6H54.6V179.1z"/>
		</g>
		<g>
			<rect x="53.9" y="45.4" class="st3" width="107" height="1.3"/>
		</g>
		<g>
			<rect x="53.9" y="167.8" class="st3" width="107" height="1.3"/>
		</g>
	</g>
	
		<linearGradient id="SVGID_3_" gradientUnits="userSpaceOnUse" x1="36.5981" y1="-16232.5967" x2="36.5981" y2="-16318.1133" gradientTransform="matrix(1 0 0 -1 0 -16168)">
		<stop  offset="0" style="stop-color:#81CAE3"/>
		<stop  offset="0.2941" style="stop-color:#ACD7DC"/>
		<stop  offset="0.5884" style="stop-color:#CFE3D6"/>
		<stop  offset="0.829" style="stop-color:#E5E9D2"/>
		<stop  offset="0.9839" style="stop-color:#EDECD1"/>
	</linearGradient>
	<rect x="8.3" y="64.6" class="st5" width="56.7" height="85.5"/>
	<g>
		<rect x="7.6" y="56.1" class="st1" width="57.9" height="7.9"/>
	</g>
	<g>
		<rect x="7.6" y="150.8" class="st1" width="57.9" height="8"/>
	</g>
	<g>
		<g>
			<path class="st3" d="M66.2,159.4H7v-104h59.2V159.4z M8.3,158.1h56.7V56.7H8.3V158.1z"/>
		</g>
		<g>
			<rect x="7.6" y="63.3" class="st3" width="57.9" height="1.3"/>
		</g>
		<g>
			<rect x="7.6" y="150.1" class="st3" width="57.9" height="1.3"/>
		</g>
	</g>
	<g>
		<circle class="st2" cx="36.6" cy="60.3" r="1.4"/>
	</g>
</g>
</svg>
